<svg width="24" height="24" viewBox="0 0 24 24" fill="currentColor" xmlns="http://www.w3.org/2000/svg">
<path d="M4.22219 21C3.61108 21 2.00001 21 2.00001 21C2.00001 21 2.00074 19.2771 2 18.6653V5.33217C2 4.72107 2 3 2 3C2 3 3.61183 3.00074 4.22219 3H19.7775C20.3886 3 21.9997 3 21.9997 3C21.9997 3 22.0004 4.72181 21.9997 5.33217V18.6653C21.9997 19.2764 21.9997 21 21.9997 21C21.9997 21 20.3893 21.0007 19.7775 21H4.22219ZM6.44437 15.332H9.77765C10.0925 15.332 10.3565 15.2253 10.5699 15.012C10.7832 14.7987 10.8895 14.535 10.8887 14.2209V13.1098H9.2221V13.6654H6.99992V10.3321H9.2221V10.8876H10.8887V9.77654C10.8887 9.46173 10.7821 9.19803 10.5687 8.98545C10.3554 8.77286 10.0917 8.66619 9.77765 8.66545H6.44437C6.12956 8.66545 5.86586 8.77212 5.65327 8.98545C5.44068 9.19877 5.33402 9.46247 5.33328 9.77654V14.2209C5.33328 14.5357 5.43994 14.7998 5.65327 15.0131C5.8666 15.2265 6.1303 15.3327 6.44437 15.332ZM14.222 15.332H17.5553C17.8701 15.332 18.1342 15.2253 18.3475 15.012C18.5608 14.7987 18.6671 14.535 18.6664 14.2209V13.1098H16.9998V13.6654H14.7776V10.3321H16.9998V10.8876H18.6664V9.77654C18.6664 9.46173 18.5597 9.19803 18.3464 8.98545C18.1331 8.77286 17.8694 8.66619 17.5553 8.66545H14.222C13.9072 8.66545 13.6435 8.77212 13.4309 8.98545C13.2183 9.19877 13.1117 9.46247 13.1109 9.77654V14.2209C13.1109 14.5357 13.2176 14.7998 13.4309 15.0131C13.6443 15.2265 13.908 15.3327 14.222 15.332Z" fill="currentColor"/>
</svg>
