<svg width="20" height="18" viewBox="0 0 20 18" fill="currentColor" xmlns="http://www.w3.org/2000/svg">
<path d="M2.22219 18C1.61108 18 5.09942e-06 18 5.09942e-06 18C5.09942e-06 18 0.000740729 16.2771 0 15.6653V2.33217C0 1.72107 2.93051e-06 0 2.93051e-06 0C2.93051e-06 0 1.61183 0.000740729 2.22219 0H17.7775C18.3886 0 19.9997 0 19.9997 0C19.9997 0 20.0004 1.72181 19.9997 2.33217V15.6653C19.9997 16.2764 19.9997 18 19.9997 18C19.9997 18 18.3893 18.0007 17.7775 18H2.22219ZM4.44437 12.332H7.77765C8.09246 12.332 8.35653 12.2253 8.56986 12.012C8.78319 11.7987 8.88948 11.535 8.88874 11.2209V10.1098H7.2221V10.6654H4.99992V7.33209H7.2221V7.88764H8.88874V6.77654C8.88874 6.46173 8.78208 6.19803 8.56875 5.98545C8.35542 5.77286 8.09172 5.66619 7.77765 5.66545H4.44437C4.12956 5.66545 3.86586 5.77212 3.65327 5.98545C3.44068 6.19877 3.33402 6.46247 3.33328 6.77654V11.2209C3.33328 11.5357 3.43994 11.7998 3.65327 12.0131C3.8666 12.2265 4.1303 12.3327 4.44437 12.332ZM12.222 12.332H15.5553C15.8701 12.332 16.1342 12.2253 16.3475 12.012C16.5608 11.7987 16.6671 11.535 16.6664 11.2209V10.1098H14.9998V10.6654H12.7776V7.33209H14.9998V7.88764H16.6664V6.77654C16.6664 6.46173 16.5597 6.19803 16.3464 5.98545C16.1331 5.77286 15.8694 5.66619 15.5553 5.66545H12.222C11.9072 5.66545 11.6435 5.77212 11.4309 5.98545C11.2183 6.19877 11.1117 6.46247 11.1109 6.77654V11.2209C11.1109 11.5357 11.2176 11.7998 11.4309 12.0131C11.6443 12.2265 11.908 12.3327 12.222 12.332Z" fill="currentColor"/>
</svg>
