<svg width="24" height="24" viewBox="0 0 24 24" fill="currentColor" xmlns="http://www.w3.org/2000/svg">
<path d="M10 6.75C11.0036 6.75 11.8109 5.91 11.8109 4.875C11.8109 3.84 11.0036 3 10 3C8.99636 3 8.18182 3.84 8.18182 4.875C8.18182 5.91 8.99636 6.75 10 6.75Z" fill="black"/>
<path d="M10 7.25C8.66909 7.25 6 7.94 6 9.3125V11H14V9.3125C14 7.94 11.3309 7.25 10 7.25Z" fill="black"/>
<path d="M17 14.75C18.0036 14.75 18.8109 13.91 18.8109 12.875C18.8109 11.84 18.0036 11 17 11C15.9964 11 15.1818 11.84 15.1818 12.875C15.1818 13.91 15.9964 14.75 17 14.75Z" fill="black"/>
<path d="M17 15.25C15.6691 15.25 13 15.94 13 17.3125V19H21V17.3125C21 15.94 18.3309 15.25 17 15.25Z" fill="black"/>
<path d="M8.81091 14.875C8.81091 15.91 8.00364 16.75 7 16.75C5.99636 16.75 5.18182 15.91 5.18182 14.875C5.18182 13.84 5.99636 13 7 13C8.00364 13 8.81091 13.84 8.81091 14.875Z" fill="black"/>
<path d="M3 19.3125C3 17.94 5.66909 17.25 7 17.25C8.33091 17.25 11 17.94 11 19.3125V21H3V19.3125Z" fill="black"/>
</svg>
