<svg width="12" height="12" viewBox="0 0 12 12" fill="none" xmlns="http://www.w3.org/2000/svg">
<path d="M6 0C4.81331 0 3.65328 0.351894 2.66658 1.01118C1.67989 1.67047 0.910851 2.60754 0.456725 3.7039C0.00259969 4.80026 -0.11622 6.00666 0.115291 7.17054C0.346802 8.33443 0.918247 9.40353 1.75736 10.2426C2.59648 11.0818 3.66558 11.6532 4.82946 11.8847C5.99335 12.1162 7.19975 11.9974 8.2961 11.5433C9.39246 11.0892 10.3295 10.3201 10.9888 9.33342C11.6481 8.34673 12 7.18669 12 6C12 4.4087 11.3679 2.88258 10.2426 1.75736C9.11743 0.632141 7.5913 0 6 0ZM6 10.5C5.10999 10.5 4.23996 10.2361 3.49994 9.74161C2.75992 9.24715 2.18314 8.54434 1.84254 7.72208C1.50195 6.89981 1.41284 5.99501 1.58647 5.12209C1.7601 4.24918 2.18869 3.44736 2.81802 2.81802C3.44736 2.18868 4.24918 1.7601 5.1221 1.58647C5.99501 1.41283 6.89981 1.50195 7.72208 1.84254C8.54435 2.18314 9.24715 2.75991 9.74162 3.49993C10.2361 4.23996 10.5 5.10998 10.5 6C10.5 7.19347 10.0259 8.33807 9.18198 9.18198C8.33807 10.0259 7.19348 10.5 6 10.5Z" fill="currentColor"/>
<path d="M6.1575 4.50004C6.37549 4.49168 6.59209 4.53809 6.7875 4.63504L7.455 4.97254L8.13 3.63754L7.5 3.29254C7.08256 3.08844 6.62202 2.9881 6.1575 3.00004C4.44 3.00004 3.375 4.14754 3.375 6.00004C3.375 7.85254 4.44 9.00004 6.1575 9.00004C6.62202 9.01198 7.08256 8.91164 7.5 8.70754L8.1675 8.36254L7.4925 7.02754L6.825 7.36504C6.62959 7.46199 6.41299 7.5084 6.195 7.50004C5.775 7.50004 4.875 7.50004 4.875 6.00004C4.875 4.50004 5.775 4.50004 6.1575 4.50004Z" fill="currentColor"/>
</svg>
