<svg width="16" height="16" viewBox="0 0 16 16" fill="none" xmlns="http://www.w3.org/2000/svg">
<path d="M11.31 0H4.69L0 4.69V11.31L4.69 16H11.31L16 11.31V4.69L11.31 0ZM8 12C7.75279 12.0015 7.51378 11.9114 7.32911 11.747C7.14443 11.5827 7.02719 11.3557 7 11.11V11C6.9985 10.7528 7.08863 10.5138 7.25298 10.3291C7.41734 10.1444 7.64428 10.0272 7.89 10H8C8.24721 9.9985 8.48622 10.0886 8.67089 10.253C8.85557 10.4173 8.97281 10.6443 9 10.89V11C9.0015 11.2472 8.91137 11.4862 8.74701 11.6709C8.58266 11.8556 8.35572 11.9728 8.11 12H8ZM9 9H7V4H9V9Z" fill="currentColor"/>
</svg>
