<svg width="16" height="16" viewBox="0 0 16 16" fill="none" xmlns="http://www.w3.org/2000/svg">
<path d="M15.9999 8.02727C15.9989 6.4988 15.56 5.00262 14.7352 3.71579C13.9104 2.42896 12.7343 1.40534 11.3459 0.766059C9.95758 0.126781 8.41516 -0.101394 6.90119 0.108536C5.38721 0.318466 3.96507 0.957714 2.80304 1.95063C1.64102 2.94355 0.787752 4.24858 0.344223 5.71127C-0.0993054 7.17397 -0.114533 8.73312 0.300343 10.2042C0.715219 11.6753 1.54283 12.9967 2.68524 14.0121C3.82766 15.0276 5.23704 15.6945 6.74663 15.9339V10.3406H4.74664V8.02727H6.74663V6.26727C6.74663 4.26727 7.94662 3.15393 9.77328 3.15393C10.3719 3.16359 10.9691 3.21707 11.5599 3.31393V5.31393H10.5533C10.4026 5.29332 10.2494 5.30269 10.1024 5.34152C9.95536 5.38035 9.81748 5.44787 9.69666 5.54019C9.57584 5.63251 9.47446 5.74781 9.39837 5.87945C9.32228 6.0111 9.27297 6.15649 9.25328 6.30727C9.24653 6.39158 9.24653 6.47629 9.25328 6.5606V8.0606H11.4666L11.1133 10.3739H9.24661V15.9673C11.1354 15.6693 12.855 14.7047 14.0939 13.2481C15.3327 11.7915 16.0089 9.93941 15.9999 8.02727Z" fill="currentColor"/>
</svg>
