<svg width="20" height="20" viewBox="0 0 20 20" fill="currentColor" xmlns="http://www.w3.org/2000/svg">
<path d="M19.9999 10.0342C19.9986 8.11581 19.45 6.2379 18.419 4.62276C17.388 3.00761 15.9178 1.72283 14.1824 0.920446C12.447 0.118065 10.5189 -0.168325 8.62648 0.0951654C6.73402 0.358656 4.95634 1.161 3.5038 2.40724C2.05127 3.65349 0.98469 5.29147 0.430279 7.12735C-0.124132 8.96324 -0.143166 10.9202 0.375429 12.7666C0.894024 14.613 1.92854 16.2716 3.35656 17.5461C4.78457 18.8206 6.54631 19.6576 8.43328 19.9582V12.9378H5.9333V10.0342H8.43328V7.8252C8.43328 5.31493 9.93328 3.91755 12.2166 3.91755C12.9649 3.92967 13.7114 3.99679 14.4499 4.11837V6.62864H13.1916C13.0033 6.60276 12.8117 6.61453 12.628 6.66326C12.4442 6.712 12.2718 6.79675 12.1208 6.91262C11.9698 7.02849 11.8431 7.17321 11.748 7.33844C11.6529 7.50367 11.5912 7.68616 11.5666 7.8754C11.5582 7.98122 11.5582 8.08755 11.5666 8.19337V10.0761H14.3333L13.8916 12.9796H11.5583V20C13.9193 19.626 16.0688 18.4153 17.6174 16.5871C19.1659 14.7589 20.0112 12.4342 19.9999 10.0342Z" fill="currentColor"/>
</svg>
