<svg width="21" height="18" viewBox="0 0 21 18" fill="none" xmlns="http://www.w3.org/2000/svg">
<path d="M21 9C21 11.3869 20.0518 13.6761 18.364 15.364C16.6761 17.0518 14.3869 18 12 18C9.61 18 7.32 17.06 5.6 15.4L7.1 13.9C7.72957 14.5667 8.4893 15.0971 9.33214 15.4583C10.175 15.8196 11.083 16.0039 12 16C18.24 16 21.36 8.46 16.95 4.05C12.54 -0.36 5 2.77 5 9H8L4 13H3.9L0 9H3C3 6.61305 3.94821 4.32387 5.63604 2.63604C7.32387 0.948211 9.61305 0 12 0C14.3869 0 16.6761 0.948211 18.364 2.63604C20.0518 4.32387 21 6.61305 21 9Z" fill="black"/>
<path d="M9.97613 12.3837V7.32016H9V6.33652C9.20279 6.33652 9.38591 6.31391 9.54936 6.26869C9.7128 6.22346 9.85052 6.14755 9.96251 6.04095C10.0775 5.93435 10.1638 5.78737 10.2213 5.60001H11.152V12.3837H9.97613Z" fill="black"/>
<path d="M13.4801 12.5C13.1593 12.5 12.8702 12.4645 12.6129 12.3934C12.3557 12.3256 12.1317 12.2383 11.941 12.1317C11.7503 12.0219 11.5944 11.9121 11.4734 11.8023L12.1045 10.8186C12.2134 10.9058 12.3345 10.9882 12.4677 11.0657C12.6039 11.14 12.7537 11.2014 12.9171 11.2499C13.0836 11.2983 13.2698 11.3225 13.4756 11.3225C13.7207 11.3225 13.9356 11.2741 14.1203 11.1772C14.3079 11.0803 14.4547 10.943 14.5607 10.7653C14.6666 10.5876 14.7196 10.3777 14.7196 10.1354C14.7196 9.92543 14.6817 9.7413 14.6061 9.58301C14.5334 9.42149 14.4275 9.29551 14.2883 9.20506C14.1521 9.11138 13.9841 9.06454 13.7843 9.06454C13.5331 9.06454 13.3227 9.113 13.1532 9.20991C12.9837 9.30359 12.8369 9.42634 12.7128 9.57817L11.6686 9.04031L11.8865 5.60001H15.4914V6.79685H12.958L12.8445 8.13421C12.9898 8.05668 13.1426 7.9953 13.303 7.95008C13.4635 7.90162 13.6345 7.87739 13.8161 7.87739C14.261 7.87739 14.6378 7.97753 14.9466 8.17782C15.2583 8.3781 15.4944 8.64783 15.6548 8.98701C15.8183 9.3262 15.9 9.70415 15.9 10.1209C15.9 10.5925 15.7956 11.0076 15.5867 11.3662C15.3809 11.7215 15.0964 11.9993 14.7332 12.1996C14.37 12.3999 13.9523 12.5 13.4801 12.5Z" fill="black"/>
</svg>
