<svg width="21" height="18" viewBox="0 0 21 18" fill="none" xmlns="http://www.w3.org/2000/svg">
<path d="M0 9C0 11.3869 0.948211 13.6761 2.63604 15.364C4.32387 17.0518 6.61305 18 9 18C11.39 18 13.68 17.06 15.4 15.4L13.9 13.9C13.2704 14.5667 12.5107 15.0971 11.6679 15.4583C10.825 15.8196 9.91698 16.0039 9 16C2.76 16 -0.36 8.46 4.05 4.05C8.46 -0.36 16 2.77 16 9H13L17 13H17.1L21 9H18C18 6.61305 17.0518 4.32387 15.364 2.63604C13.6761 0.948211 11.3869 0 9 0C6.61305 0 4.32387 0.948211 2.63604 2.63604C0.948211 4.32387 0 6.61305 0 9Z" fill="black"/>
<path d="M5.97613 12.3837V7.32016H5V6.33652C5.20279 6.33652 5.38591 6.31391 5.54936 6.26869C5.7128 6.22346 5.85052 6.14755 5.96251 6.04095C6.07752 5.93435 6.16379 5.78737 6.22129 5.60001H7.15202V12.3837H5.97613Z" fill="black"/>
<path d="M9.48011 12.5C9.15928 12.5 8.87022 12.4645 8.61295 12.3934C8.35567 12.3256 8.13169 12.2383 7.94101 12.1317C7.75032 12.0219 7.59445 11.9121 7.47338 11.8023L8.10445 10.8186C8.21342 10.9058 8.33449 10.9882 8.46766 11.0657C8.60387 11.14 8.75369 11.2014 8.91714 11.2499C9.08361 11.2983 9.26975 11.3225 9.47557 11.3225C9.72074 11.3225 9.93564 11.2741 10.1203 11.1772C10.3079 11.0803 10.4547 10.943 10.5607 10.7653C10.6666 10.5876 10.7196 10.3777 10.7196 10.1354C10.7196 9.92543 10.6817 9.7413 10.6061 9.58301C10.5334 9.42149 10.4275 9.29551 10.2883 9.20506C10.1521 9.11138 9.98407 9.06454 9.7843 9.06454C9.53308 9.06454 9.32272 9.113 9.15322 9.20991C8.98372 9.30359 8.83693 9.42634 8.71283 9.57817L7.6686 9.04031L7.88653 5.60001H11.4914V6.79685H8.958L8.84449 8.13421C8.98978 8.05668 9.14263 7.9953 9.30305 7.95008C9.46346 7.90162 9.63448 7.87739 9.81608 7.87739C10.261 7.87739 10.6378 7.97753 10.9466 8.17782C11.2583 8.3781 11.4944 8.64783 11.6548 8.98701C11.8183 9.3262 11.9 9.70415 11.9 10.1209C11.9 10.5925 11.7956 11.0076 11.5867 11.3662C11.3809 11.7215 11.0964 11.9993 10.7332 12.1996C10.37 12.3999 9.95229 12.5 9.48011 12.5Z" fill="black"/>
</svg>
