<svg
  width="24"
  height="24"
  viewBox="0 0 24 24"
  fill="currentColor"
  xmlns="http://www.w3.org/2000/svg"
>
  <path
    d="M19.25 4H4.65C4.25 4 3.95 4.3 3.95 4.7V19.4C3.95 19.7 4.25 20 4.65 20H19.35C19.75 20 20.05 19.7 20.05 19.3V4.7C19.95 4.3 19.65 4 19.25 4ZM8.45 14C7.05 14 5.95 12.9 5.95 11.5C5.95 10.1 7.05 9 8.45 9C9.85 9 10.95 10.1 10.95 11.5C10.95 12.9 9.85 14 8.45 14ZM15.45 14C14.05 14 12.95 12.9 12.95 11.5C12.95 10.1 14.05 9 15.45 9C16.85 9 17.95 10.1 17.95 11.5C17.95 12.9 16.85 14 15.45 14Z"
  />
</svg>
