<svg width="18" height="18" viewBox="0 0 18 18" fill="currentColor" xmlns="http://www.w3.org/2000/svg">
<path d="M17.1056 0H0.782609C0.335404 0 0 0.3375 0 0.7875V17.325C0 17.6625 0.335404 18 0.782609 18H17.2174C17.6646 18 18 17.6625 18 17.2125V0.7875C17.8882 0.3375 17.5528 0 17.1056 0ZM5.03106 11.25C3.46584 11.25 2.23602 10.0125 2.23602 8.4375C2.23602 6.8625 3.46584 5.625 5.03106 5.625C6.59627 5.625 7.82609 6.8625 7.82609 8.4375C7.82609 10.0125 6.59627 11.25 5.03106 11.25ZM12.8571 11.25C11.2919 11.25 10.0621 10.0125 10.0621 8.4375C10.0621 6.8625 11.2919 5.625 12.8571 5.625C14.4224 5.625 15.6522 6.8625 15.6522 8.4375C15.6522 10.0125 14.4224 11.25 12.8571 11.25Z" fill="currentColor"/>
</svg>
