<svg
  width="18"
  height="16"
  viewBox="0 0 18 16"
  fill="currentColor"
  xmlns="http://www.w3.org/2000/svg"
>
  <path
    d="M16.25 0H1.65C1.25 0 0.95 0.3 0.95 0.7V15.4C0.95 15.7 1.25 16 1.65 16H16.35C16.75 16 17.05 15.7 17.05 15.3V0.7C16.95 0.3 16.65 0 16.25 0ZM5.45 10C4.05 10 2.95 8.9 2.95 7.5C2.95 6.1 4.05 5 5.45 5C6.85 5 7.95 6.1 7.95 7.5C7.95 8.9 6.85 10 5.45 10ZM12.45 10C11.05 10 9.95 8.9 9.95 7.5C9.95 6.1 11.05 5 12.45 5C13.85 5 14.95 6.1 14.95 7.5C14.95 8.9 13.85 10 12.45 10Z"
  />
</svg>
