<svg xmlns="http://www.w3.org/2000/svg" xml:space="preserve" viewBox="0 0 409.5 236"><path d="M409.5 236c-1.7-.6-3.5-1.1-5.1-2-5.3-2.9-10.5-5.9-15.7-9-4.8-2.8-9.5-5.8-14.3-8.7-4.3-2.6-8.5-5.1-12.9-7.5-4.9-2.7-10-5.2-14.9-8-3.8-2.2-7.4-4.8-11.2-7.1-5.7-3.3-11.6-6.4-17.3-9.7-3.9-2.2-7.6-4.6-11.5-6.9-4-2.3-8.1-4.4-12-6.7-3.8-2.2-7.5-4.5-11.3-6.7-2.4-1.4-4.9-2.5-7.3-3.9-2.8-1.6-5.5-3.3-8.2-4.9-3.8-2.3-7.5-4.6-11.4-6.8-3.9-2.3-7.9-4.5-11.9-6.8-6.1-3.5-12.2-6.8-18.2-10.4-4.8-2.8-9.4-5.8-14.2-8.5-4.8-2.8-9.8-5.3-14.6-8.1-3.6-2.1-7.2-4.3-10.8-6.4-5.9-3.5-11.8-6.9-17.7-10.3-4.8-2.8-9.6-5.7-14.4-8.5-3.8-2.2-7.8-4.4-11.6-6.6-3-1.7-5.9-3.6-8.9-5.4-3-1.8-6.2-3.4-9.2-5.1-3.9-2.2-7.8-4.4-11.6-6.6-4.1-2.4-8.1-4.8-12.2-7.2-5.8-3.4-11.5-6.9-17.3-10.2-4.9-2.8-9.9-5.4-14.7-8.2-3.7-2.1-7.3-4.5-11-6.6-4.9-2.9-9.8-5.6-14.7-8.4-4.7-2.7-9.4-5.6-14.2-8.3-5-2.9-10-5.7-15-8.6C10.3 5.6 6.6 3.3 2.8 1 2 .5 1 .3 0 0h409.5v236z" fill="currentColor"/></svg>
