<svg width="16" height="16" viewBox="0 0 16 16" fill="none" xmlns="http://www.w3.org/2000/svg">
<path fill-rule="evenodd" clip-rule="evenodd" d="M1.08687 7.46667H3.21031C3.2851 5.53749 3.76315 3.78006 4.51995 2.45566C4.65969 2.21111 4.81092 1.97841 4.97289 1.76064C2.81175 2.81109 1.27822 4.9513 1.08687 7.46667ZM8 0C3.58172 0 0 3.58172 0 8C0 12.4183 3.58172 16 8 16C12.4183 16 16 12.4183 16 8C16 3.58172 12.4183 0 8 0ZM7.46667 1.1413C6.74082 1.34466 6.03016 1.96273 5.44607 2.98488C4.79279 4.12812 4.35217 5.69751 4.27783 7.46667H7.46667V1.1413ZM7.46667 8.53333H4.27783C4.35217 10.3025 4.79279 11.8719 5.44607 13.0151C6.03016 14.0373 6.74082 14.6553 7.46667 14.8587V8.53333ZM4.97289 14.2394C4.81093 14.0216 4.65969 13.7889 4.51995 13.5443C3.76315 12.2199 3.2851 10.4625 3.21031 8.53333H1.08687C1.27822 11.0487 2.81176 13.1889 4.97289 14.2394ZM8.53333 14.8587V8.53333H11.7222C11.6478 10.3025 11.2072 11.8719 10.5539 13.0151C9.96984 14.0373 9.25918 14.6553 8.53333 14.8587ZM11.7222 7.46667H8.53333V1.1413C9.25918 1.34466 9.96984 1.96273 10.5539 2.98488C11.2072 4.12812 11.6478 5.69751 11.7222 7.46667ZM12.7897 7.46667C12.7149 5.53749 12.2369 3.78006 11.4801 2.45566C11.3403 2.21111 11.1891 1.97841 11.0271 1.76064C13.1883 2.81109 14.7218 4.95129 14.9131 7.46667H12.7897ZM12.7897 8.53333C12.7149 10.4625 12.2369 12.2199 11.4801 13.5443C11.3403 13.7889 11.1891 14.0216 11.0271 14.2394C13.1883 13.1889 14.7218 11.0487 14.9131 8.53333H12.7897Z" fill="currentColor"/>
</svg>
