<svg width="16" height="16" viewBox="0 0 16 16" fill="none" xmlns="http://www.w3.org/2000/svg">
<path d="M15.3877 5.71677L8.43113 0.151551C8.30832 0.0545014 8.15636 0.00170898 7.99983 0.00170898C7.8433 0.00170898 7.69134 0.0545014 7.56853 0.151551L0.612004 5.71677C0.530019 5.78155 0.463681 5.86397 0.417917 5.95791C0.372153 6.05185 0.348138 6.15489 0.347656 6.25938V15.3029C0.347656 15.4874 0.420948 15.6643 0.551408 15.7948C0.681868 15.9252 0.85881 15.9985 1.04331 15.9985H5.91287V10.4333H10.0868V15.9985H14.9564C15.1409 15.9985 15.3178 15.9252 15.4483 15.7948C15.5787 15.6643 15.652 15.4874 15.652 15.3029V6.25938C15.6515 6.15489 15.6275 6.05185 15.5817 5.95791C15.536 5.86397 15.4696 5.78155 15.3877 5.71677Z" fill="currentColor"/>
</svg>
