<svg xmlns="http://www.w3.org/2000/svg" xml:space="preserve" width="16" height="16"><path fill="currentColor" d="M8 0C6.4 0 4.9.5 3.6 1.3c-1.4.9-2.4 2.2-3 3.6C0 6.4-.2 8 .2 9.6c.3 1.6 1.1 3 2.2 4.1 1.1 1.1 2.5 1.9 4.1 2.2s3.2.2 4.6-.5c1.5-.6 2.7-1.6 3.6-2.9.8-1.4 1.3-2.9 1.3-4.5 0-2.1-.8-4.2-2.3-5.7C12.2.8 10.1 0 8 0zm0 14c-1.2 0-2.3-.4-3.3-1-1-.7-1.8-1.6-2.2-2.7C2 9.2 1.9 8 2.1 6.8c.2-1.2.8-2.2 1.6-3.1.8-.8 1.9-1.4 3.1-1.6 1.2-.2 2.4-.1 3.5.4s2 1.2 2.7 2.2c.7 1 1 2.1 1 3.3 0 1.6-.6 3.1-1.8 4.2C11.1 13.4 9.6 14 8 14z" class="st0"/><path fill="currentColor" d="M9 7H7v5h2V7zM8 6c.6 0 1-.4 1-1s-.4-1-1-1-1 .4-1 1 .4 1 1 1z" class="st0"/></svg>
