<svg width="18" height="18" viewBox="0 0 18 18" fill="currentColor" xmlns="http://www.w3.org/2000/svg">
<path d="M8.99887 1.62112C11.4016 1.62112 11.6862 1.63125 12.6355 1.674C13.206 1.68086 13.7711 1.78589 14.306 1.9845C14.6972 2.12904 15.0509 2.35973 15.3408 2.6595C15.6406 2.94952 15.8712 3.30325 16.0157 3.6945C16.2143 4.22943 16.3194 4.79456 16.3262 5.36513C16.369 6.31462 16.3791 6.60262 16.3791 9.00225C16.3791 11.4019 16.369 11.6899 16.3262 12.6394C16.3194 13.2099 16.2143 13.7751 16.0157 14.31C15.8664 14.6982 15.6372 15.0508 15.3431 15.345C15.049 15.6392 14.6964 15.8683 14.3082 16.0177C13.7733 16.2164 13.2083 16.3214 12.6378 16.3283C11.6884 16.371 11.4004 16.3811 9.00112 16.3811C6.6018 16.3811 6.31384 16.371 5.36445 16.3283C4.79396 16.3214 4.2289 16.2164 3.69404 16.0177C3.30283 15.8732 2.94915 15.6425 2.65917 15.3427C2.35944 15.0527 2.12877 14.699 1.98425 14.3078C1.78567 13.7728 1.68065 13.2077 1.67379 12.6371C1.63105 11.6876 1.62092 11.3996 1.62092 9C1.62092 6.60038 1.63105 6.31238 1.67379 5.36287C1.68065 4.79231 1.78567 4.22718 1.98425 3.69225C2.12877 3.301 2.35944 2.94727 2.65917 2.65725C2.94915 2.35748 3.30283 2.12679 3.69404 1.98225C4.2289 1.78364 4.79396 1.67861 5.36445 1.67175C6.31384 1.629 6.6018 1.61888 9.00112 1.61888L8.99887 1.62112ZM8.99887 0C6.55455 0 6.24859 0.010125 5.28684 0.054C4.54101 0.0691689 3.80315 0.210673 3.10461 0.4725C2.50389 0.698128 1.95985 1.05255 1.51069 1.51088C1.05242 1.96009 0.698041 2.50421 0.472441 3.105C0.210647 3.80362 0.0691602 4.54158 0.0539932 5.2875C0.0101237 6.24937 0 6.55537 0 9C0 11.4446 0.0101237 11.7506 0.0539932 12.7125C0.0691602 13.4584 0.210647 14.1964 0.472441 14.895C0.698041 15.4958 1.05242 16.0399 1.51069 16.4891C1.95985 16.9474 2.50389 17.3019 3.10461 17.5275C3.80386 17.7896 4.5425 17.9311 5.28909 17.946C6.24859 17.9899 6.55455 18 8.99887 18C11.4432 18 11.7492 17.9899 12.7109 17.946C13.4575 17.9311 14.1961 17.7896 14.8954 17.5275C15.4932 17.2961 16.036 16.9424 16.4893 16.4891C16.9425 16.0358 17.2962 15.4928 17.5276 14.895C17.7896 14.1957 17.9311 13.4569 17.946 12.7103C17.9899 11.7506 18 11.4446 18 8.99775C18 6.55087 17.9899 6.24713 17.946 5.28525C17.9299 4.53996 17.7876 3.80278 17.5253 3.105C17.2997 2.50421 16.9453 1.96009 16.4871 1.51088C16.0379 1.05255 15.4939 0.698128 14.8931 0.4725C14.1946 0.210673 13.4567 0.0691689 12.7109 0.054C11.7492 0.010125 11.4432 0 8.99887 0Z" fill="currentColor"/>
<path d="M8.99887 4.3785C8.08494 4.3785 7.19153 4.64955 6.43163 5.15736C5.67172 5.66518 5.07945 6.38696 4.7297 7.23143C4.37995 8.0759 4.28844 9.00513 4.46674 9.90161C4.64504 10.7981 5.08514 11.6216 5.73139 12.2679C6.37764 12.9142 7.20101 13.3544 8.09738 13.5327C8.99375 13.711 9.92286 13.6195 10.7672 13.2697C11.6116 12.9199 12.3333 12.3276 12.841 11.5676C13.3488 10.8076 13.6198 9.91405 13.6198 9C13.6198 8.3931 13.5003 7.79213 13.268 7.23143C13.0358 6.67072 12.6955 6.16125 12.2664 5.73211C11.8373 5.30296 11.3279 4.96254 10.7672 4.73029C10.2066 4.49804 9.6057 4.3785 8.99887 4.3785ZM8.99887 12.0004C8.40553 12.0004 7.82551 11.8244 7.33216 11.4947C6.83882 11.165 6.4543 10.6964 6.22724 10.1482C6.00017 9.59995 5.94076 8.99667 6.05652 8.41466C6.17228 7.83264 6.458 7.29802 6.87755 6.87841C7.29711 6.4588 7.83166 6.17305 8.4136 6.05728C8.99555 5.94151 9.59875 6.00092 10.1469 6.22801C10.6951 6.45511 11.1636 6.83967 11.4933 7.33308C11.8229 7.82649 11.9989 8.40658 11.9989 9C11.9989 9.79575 11.6828 10.5589 11.1202 11.1216C10.5576 11.6843 9.79452 12.0004 8.99887 12.0004Z" fill="currentColor"/>
<path d="M13.802 5.27625C14.3984 5.27625 14.8819 4.79272 14.8819 4.19625C14.8819 3.59978 14.3984 3.11625 13.802 3.11625C13.2056 3.11625 12.7222 3.59978 12.7222 4.19625C12.7222 4.79272 13.2056 5.27625 13.802 5.27625Z" fill="currentColor"/>
</svg>
