<svg width="17" height="16" fill="none" xmlns="http://www.w3.org/2000/svg"><path d="M8.998 1.441c2.136 0 2.389.009 3.233.047.507.006 1.01.1 1.485.276.348.128.662.334.92.6.267.258.472.572.6.92.177.475.27.978.276 1.485.038.844.047 1.1.047 3.233s-.009 2.389-.047 3.233c-.006.507-.1 1.01-.276 1.485a2.644 2.644 0 0 1-1.518 1.518 4.42 4.42 0 0 1-1.485.276c-.844.038-1.1.047-3.233.047s-2.389-.009-3.233-.047a4.42 4.42 0 0 1-1.485-.276 2.472 2.472 0 0 1-.92-.6 2.472 2.472 0 0 1-.6-.92 4.419 4.419 0 0 1-.276-1.485c-.038-.844-.047-1.1-.047-3.233s.009-2.389.047-3.233c.006-.507.1-1.01.276-1.485.129-.348.334-.662.6-.92.258-.266.572-.472.92-.6.476-.177.978-.27 1.485-.276.844-.038 1.1-.047 3.233-.047l-.002.002Zm0-1.441c-2.173 0-2.445.009-3.3.048a5.868 5.868 0 0 0-1.94.372c-.534.2-1.018.516-1.417.923-.407.4-.722.883-.923 1.417a5.868 5.868 0 0 0-.372 1.94C1.007 5.555.998 5.827.998 8s.01 2.445.048 3.3c.014.663.14 1.319.372 1.94.2.534.516 1.018.923 1.417.4.407.883.722 1.417.923a5.868 5.868 0 0 0 1.942.372c.853.039 1.125.048 3.298.048s2.445-.009 3.3-.048a5.867 5.867 0 0 0 1.942-.372 4.093 4.093 0 0 0 2.34-2.34 5.865 5.865 0 0 0 .372-1.942c.039-.853.048-1.125.048-3.3s-.009-2.445-.048-3.3a5.867 5.867 0 0 0-.374-1.938 3.907 3.907 0 0 0-.923-1.417A3.907 3.907 0 0 0 14.238.42a5.868 5.868 0 0 0-1.94-.372C11.443.009 11.171 0 8.998 0Z" fill="currentColor"/><path d="M8.999 3.892a4.108 4.108 0 1 0 0 8.216 4.108 4.108 0 0 0 0-8.216Zm0 6.775a2.667 2.667 0 1 1 0-5.333 2.667 2.667 0 0 1 0 5.333ZM13.269 4.69a.96.96 0 1 0 0-1.92.96.96 0 0 0 0 1.92Z" fill="currentColor"/></svg>
