<svg width="18" height="18" viewBox="0 0 18 18" fill="currentColor" xmlns="http://www.w3.org/2000/svg">
<path d="M17.2486 0.00153748H0.751409C0.65122 -0.00509058 0.55077 0.00976279 0.456787 0.0451031C0.362803 0.0804434 0.277454 0.135455 0.206454 0.206454C0.135455 0.277454 0.0804434 0.362803 0.0451031 0.456787C0.00976279 0.55077 -0.00509058 0.65122 0.00153748 0.751409V17.2486C-0.00509058 17.3488 0.00976279 17.4492 0.0451031 17.5432C0.0804434 17.6372 0.135455 17.7225 0.206454 17.7935C0.277454 17.8645 0.362803 17.9196 0.456787 17.9549C0.55077 17.9902 0.65122 18.0051 0.751409 17.9985H17.2486C17.3488 18.0051 17.4492 17.9902 17.5432 17.9549C17.6372 17.9196 17.7225 17.8645 17.7935 17.7935C17.8645 17.7225 17.9196 17.6372 17.9549 17.5432C17.9902 17.4492 18.0051 17.3488 17.9985 17.2486V0.751409C18.0051 0.65122 17.9902 0.55077 17.9549 0.456787C17.9196 0.362803 17.8645 0.277454 17.7935 0.206454C17.7225 0.135455 17.6372 0.0804434 17.5432 0.0451031C17.4492 0.00976279 17.3488 -0.00509058 17.2486 0.00153748ZM5.32563 15.3739H2.70108V6.75038H5.40061V15.3739H5.32563ZM3.97586 5.55059C3.66441 5.55059 3.35995 5.45823 3.10098 5.2852C2.84202 5.11217 2.64018 4.86623 2.521 4.57848C2.40181 4.29074 2.37062 3.97411 2.43139 3.66864C2.49215 3.36318 2.64213 3.08259 2.86236 2.86236C3.08259 2.64213 3.36318 2.49215 3.66864 2.43139C3.97411 2.37062 4.29074 2.40181 4.57848 2.521C4.86623 2.64018 5.11217 2.84202 5.2852 3.10098C5.45823 3.35995 5.55059 3.66441 5.55059 3.97586C5.55573 4.18406 5.51852 4.39113 5.4412 4.58451C5.36388 4.77789 5.24808 4.95355 5.10081 5.10081C4.95355 5.24808 4.77789 5.36388 4.58451 5.4412C4.39113 5.51852 4.18406 5.55573 3.97586 5.55059ZM15.3739 15.3739H12.6744V11.1746C12.6744 10.1998 12.6744 8.92501 11.3246 8.92501C9.97483 8.92501 9.74987 9.97483 9.74987 11.0996V15.3739H7.05033V6.75038H9.5999V7.95018C9.86151 7.51421 10.2373 7.15802 10.6867 6.92013C11.136 6.68224 11.6418 6.57168 12.1495 6.60041C14.849 6.60041 15.3739 8.4001 15.3739 10.7247V15.3739Z" fill="currentColor"/>
</svg>
