<svg width="16" height="16" viewBox="0 0 16 16" fill="none" xmlns="http://www.w3.org/2000/svg">
<path d="M15.3321 0.00136665H0.667919C0.578862 -0.00452496 0.489574 0.00867804 0.406033 0.0400916C0.322492 0.0715052 0.246626 0.120404 0.183515 0.183515C0.120404 0.246626 0.0715052 0.322492 0.0400916 0.406033C0.00867804 0.489574 -0.00452496 0.578862 0.00136665 0.667919V15.3321C-0.00452496 15.4211 0.00867804 15.5104 0.0400916 15.594C0.0715052 15.6775 0.120404 15.7534 0.183515 15.8165C0.246626 15.8796 0.322492 15.9285 0.406033 15.9599C0.489574 15.9913 0.578862 16.0045 0.667919 15.9986H15.3321C15.4211 16.0045 15.5104 15.9913 15.594 15.9599C15.6775 15.9285 15.7534 15.8796 15.8165 15.8165C15.8796 15.7534 15.9285 15.6775 15.9599 15.594C15.9913 15.5104 16.0045 15.4211 15.9986 15.3321V0.667919C16.0045 0.578862 15.9913 0.489574 15.9599 0.406033C15.9285 0.322492 15.8796 0.246626 15.8165 0.183515C15.7534 0.120404 15.6775 0.0715052 15.594 0.0400916C15.5104 0.00867804 15.4211 -0.00452496 15.3321 0.00136665ZM4.73389 13.6657H2.40096V6.00034H4.80055V13.6657H4.73389ZM3.5341 4.93386C3.25725 4.93386 2.98662 4.85176 2.75643 4.69796C2.52624 4.54415 2.34683 4.32553 2.24089 4.06976C2.13494 3.81399 2.10722 3.53254 2.16123 3.26102C2.21524 2.98949 2.34856 2.74008 2.54432 2.54432C2.74008 2.34856 2.98949 2.21524 3.26102 2.16123C3.53254 2.10722 3.81399 2.13494 4.06976 2.24089C4.32553 2.34683 4.54415 2.52624 4.69796 2.75643C4.85176 2.98662 4.93386 3.25725 4.93386 3.5341C4.93843 3.71916 4.90535 3.90323 4.83662 4.07512C4.7679 4.24702 4.66496 4.40315 4.53406 4.53406C4.40315 4.66496 4.24702 4.7679 4.07512 4.83662C3.90323 4.90535 3.71916 4.93843 3.5341 4.93386ZM13.6657 13.6657H11.2661V9.933C11.2661 9.06648 11.2661 7.93334 10.0663 7.93334C8.86652 7.93334 8.66655 8.86652 8.66655 9.86635V13.6657H6.26696V6.00034H8.53324V7.06683C8.76578 6.67929 9.09982 6.36269 9.49925 6.15123C9.89867 5.93976 10.3483 5.84149 10.7995 5.86703C13.1991 5.86703 13.6657 7.46676 13.6657 9.53307V13.6657Z" fill="currentColor"/>
</svg>
