<svg width="20" height="16" viewBox="0 0 20 16" fill="currentColor" xmlns="http://www.w3.org/2000/svg">
<path d="M20 1.99999C20 1.46985 20 2.05636e-06 20 2.05636e-06C20 2.05636e-06 18.5699 -7.62939e-06 18 -7.62939e-06H2C1.44994 -7.62939e-06 8.49366e-07 -8.19564e-07 8.49366e-07 -8.19564e-07C8.49366e-07 -8.19564e-07 3.54648e-06 1.45005 3.54648e-06 1.99999V14C3.54648e-06 14.5366 0 16 0 16C0 16 1.43665 16 2 16H18C18.5043 16 20 16 20 16C20 16 20 14.5957 20 14V1.99999ZM18 1.99999L10 6.98999L2 1.99999H18ZM18 14H2V3.99999L10 8.99999L18 3.99999V14Z" fill="currentColor"/>
</svg>
