<svg
  width="24"
  height="24"
  viewBox="0 0 24 24"
  fill="currentColor"
  xmlns="http://www.w3.org/2000/svg"
>
  <path
    d="M9.7793 2.21484C9.07591 2.95092 8.52873 3.86226 8.23633 4.93848C7.77401 5.18549 7.33811 5.47713 6.93555 5.80664C6.98838 5.82967 7.04235 5.8554 7.0957 5.88379C7.10354 5.88795 7.11134 5.8922 7.11914 5.89648C7.17392 5.9266 7.22783 5.95914 7.27832 5.99512C7.30794 6.01618 7.33631 6.0384 7.36328 6.06152C7.37454 6.07119 7.38482 6.08177 7.39551 6.0918C7.4177 6.11258 7.43868 6.13388 7.45801 6.15625C7.46178 6.16062 7.46607 6.16451 7.46973 6.16895C7.49492 6.1995 7.51754 6.23118 7.53613 6.26465C7.98412 7.07284 7.43359 8.24664 7.25879 8.5791C7.24321 8.78745 7.19766 9.25753 7.0918 9.52344C6.96317 9.84472 6.47396 10.1432 6.13477 10.3184C5.9192 10.6898 5.50391 11.505 5.50391 11.9814C5.50411 12.6373 6.04518 12.7456 6.21094 12.7627C6.96018 12.8918 7.40626 13.408 7.58496 13.6631C7.92711 13.7677 8.58328 14.0153 8.81934 14.4277C9.07415 14.8745 8.79921 15.8815 8.63477 16.3857C8.6781 16.6155 8.74808 17.1414 8.5918 17.5859C8.43291 18.0368 8.03843 18.3873 7.85547 18.5312C7.82894 18.5918 7.79005 18.6741 7.74219 18.7715C8.63854 19.3363 9.65376 19.7295 10.7432 19.9014C10.7497 19.8961 10.757 19.8919 10.7637 19.8867C10.7988 19.8595 10.8355 19.8328 10.874 19.8076C10.8911 19.7965 10.9082 19.7852 10.9258 19.7744C10.9599 19.7536 10.9947 19.7332 11.0303 19.7139C11.0493 19.7035 11.0686 19.6935 11.0879 19.6836C11.1068 19.6739 11.1264 19.6655 11.1455 19.6562C11.2324 19.6141 11.3201 19.5753 11.4053 19.542C11.3579 19.1565 11.365 18.5654 11.7686 18.2422C11.9209 18.12 12.0863 18.0628 12.251 18.0439C12.3611 18.0314 12.4708 18.0362 12.5762 18.0498C12.7336 18.0701 12.8811 18.1105 13.0049 18.1445C13.0304 18.1516 13.0597 18.1592 13.0879 18.167C13.1301 17.8997 13.1514 17.3714 13.1348 16.8721C13.1316 16.7758 13.1661 16.6825 13.2305 16.6113C13.2502 16.5895 13.3051 16.5319 13.3867 16.4521C13.4139 16.4256 13.4435 16.3959 13.4766 16.3652C13.5011 16.3424 13.5271 16.3185 13.5547 16.2939C13.6183 16.2375 13.6908 16.1785 13.7686 16.1172C13.7865 16.103 13.8037 16.0874 13.8223 16.0732L13.9746 15.9619L14.0918 15.8838C14.1037 15.8762 14.1159 15.8689 14.1279 15.8613C14.1367 15.8558 14.1454 15.8502 14.1543 15.8447C14.418 15.6836 14.7184 15.5491 15.0264 15.5059C15.4636 15.4433 15.9502 15.685 16.3662 15.9814C16.444 16.0369 16.5198 16.0936 16.5918 16.1514C16.6129 16.1683 16.6338 16.1852 16.6543 16.2021C16.7041 16.2433 16.7519 16.2847 16.7979 16.3252C16.869 16.388 16.935 16.4493 16.9951 16.5068C17.0155 16.5263 17.0357 16.5449 17.0547 16.5635C17.129 16.6363 17.1923 16.7009 17.2412 16.7529C17.3671 16.7833 17.5862 16.8397 17.8535 16.9131C17.9658 16.9438 18.0871 16.9758 18.2129 17.0127C18.2178 17.0141 18.2226 17.0161 18.2275 17.0176C19.3348 15.645 20 13.9008 20 12C20 11.8799 19.9955 11.7604 19.9902 11.6416C20.3682 11.1249 20.7338 10.5721 21.0439 10.002C21.2179 9.68214 21.3859 9.33268 21.5332 8.96289C21.7361 9.60487 21.8753 10.2746 21.9453 10.9648C22.155 11.1529 22 10.7171 22 11.9814C22 12.4199 21.971 12.8518 21.916 13.2754C21.4504 16.9324 19.0108 19.9685 15.6982 21.2881C15.6632 21.3021 15.628 21.3155 15.5928 21.3291C15.5334 21.352 15.474 21.3747 15.4141 21.3965C15.1984 21.4753 14.9791 21.5463 14.7568 21.6104C14.735 21.6166 14.7133 21.6228 14.6914 21.6289C13.8347 21.8695 12.9324 22 12 22C11.7448 22 11.4923 21.9877 11.2412 21.9688C11.2381 21.9688 11.2346 21.9696 11.2314 21.9697C11.2227 21.9697 11.2139 21.9661 11.2051 21.9648C11.178 21.9627 11.151 21.9594 11.124 21.957C11.0269 21.9485 10.9303 21.939 10.834 21.9277C10.7595 21.9191 10.6853 21.9087 10.6113 21.8984C10.5663 21.8921 10.5214 21.8858 10.4766 21.8789C10.3902 21.8657 10.3043 21.8513 10.2188 21.8359C10.1868 21.8302 10.1549 21.8244 10.123 21.8184C6.13925 21.0618 2.99587 17.9455 2.2002 13.9756C2.18626 13.9068 2.17267 13.8378 2.16016 13.7686C2.15238 13.725 2.14393 13.6815 2.13672 13.6377C2.08029 13.2996 2.04013 12.9559 2.01855 12.6074C2.01812 12.6006 2.01799 12.5937 2.01758 12.5869C2.01421 12.5288 2.01213 12.4705 2.00977 12.4121C2.00928 12.4007 2.00924 12.3893 2.00879 12.3779C2.00364 12.2464 2 12.1142 2 11.9814C2 11.8703 2.00225 11.7597 2.00586 11.6494C2.00691 11.6198 2.00845 11.5901 2.00977 11.5605C2.02423 11.2121 2.05909 10.8687 2.1084 10.5303C2.1117 10.5079 2.11374 10.4853 2.11719 10.4629C2.11808 10.457 2.11921 10.4512 2.12012 10.4453C2.13692 10.3366 2.15648 10.2287 2.17676 10.1211C2.18683 10.0676 2.19611 10.0141 2.20703 9.96094C2.229 9.85406 2.25395 9.74819 2.2793 9.64258C2.29065 9.59523 2.30243 9.54806 2.31445 9.50098C2.3408 9.39792 2.36697 9.29511 2.39648 9.19336C2.41243 9.13832 2.4304 9.08395 2.44727 9.0293C2.55246 8.68879 2.67497 8.35624 2.81445 8.03223C2.834 7.98677 2.85188 7.94062 2.87207 7.89551C2.91143 7.8077 2.95333 7.72122 2.99512 7.63477C3.02356 7.57585 3.05248 7.51725 3.08203 7.45898C3.12282 7.37867 3.16416 7.29878 3.20703 7.21973C3.24552 7.14866 3.28603 7.07881 3.32617 7.00879C3.36241 6.94564 3.39701 6.88161 3.43457 6.81934C3.47612 6.75037 3.52032 6.68311 3.56348 6.61523C3.65552 6.47063 3.75148 6.32891 3.85059 6.18945C3.88374 6.14275 3.91529 6.09493 3.94922 6.04883C3.99701 5.98395 4.04738 5.9211 4.09668 5.85742C4.15074 5.78754 4.2049 5.71781 4.26074 5.64941C4.29878 5.60286 4.33713 5.5566 4.37598 5.51074C4.44265 5.432 4.51008 5.35397 4.5791 5.27734C4.61212 5.24071 4.64517 5.20411 4.67871 5.16797C4.76751 5.07225 4.85875 4.9789 4.95117 4.88672C4.97399 4.86396 4.99649 4.8409 5.01953 4.81836C5.13674 4.70367 5.25621 4.59129 5.37891 4.48242C5.39248 4.47021 5.40153 4.45467 5.41699 4.44434C5.42054 4.44194 5.42418 4.44146 5.42773 4.43945C5.4326 4.4352 5.43751 4.43101 5.44238 4.42676C5.76459 4.14499 5.9772 3.97429 6.13086 3.87695C7.20594 3.09364 8.44221 2.52018 9.7793 2.21484Z"
    fill="currentColor"
  />
  <path
    fill-rule="evenodd"
    clip-rule="evenodd"
    d="M15.2197 2.00391C15.2233 2.00406 15.2269 2.00472 15.2305 2.00488L15.415 2.0166C15.4222 2.01718 15.4294 2.01795 15.4365 2.01855C15.4394 2.0188 15.4424 2.0183 15.4453 2.01855C15.4603 2.01985 15.4752 2.02201 15.4902 2.02344C15.5052 2.02497 15.5202 2.02676 15.5352 2.02832C15.5785 2.03282 15.6218 2.03739 15.665 2.04297C15.6728 2.04398 15.6807 2.04468 15.6885 2.0459C15.7022 2.04773 15.7158 2.05079 15.7295 2.05273C15.779 2.05975 15.8286 2.06678 15.8779 2.0752C15.8805 2.07564 15.8832 2.07573 15.8857 2.07617C15.9174 2.08161 15.9489 2.08774 15.9805 2.09375C15.987 2.095 15.9935 2.09639 16 2.09766C16.0222 2.10197 16.0443 2.10673 16.0664 2.11133C16.1841 2.13576 16.301 2.16396 16.417 2.19629C16.4196 2.19701 16.4222 2.19752 16.4248 2.19824C16.4463 2.20428 16.4678 2.21049 16.4893 2.2168C16.5068 2.22197 16.5244 2.22721 16.542 2.23242C16.5647 2.23936 16.5877 2.24569 16.6104 2.25293C16.6153 2.25448 16.6201 2.25623 16.625 2.25781C16.6496 2.26575 16.6739 2.27461 16.6982 2.2832C16.9967 2.38433 17.2863 2.51226 17.5625 2.66504C17.565 2.66645 17.5678 2.66753 17.5703 2.66895C17.5846 2.67687 17.5991 2.68432 17.6133 2.69238C17.6172 2.69462 17.6211 2.69697 17.625 2.69922C18.9885 3.47825 19.9999 4.87946 20 6.75781C20 6.83032 19.9957 6.90352 19.9893 6.97754C19.8356 8.9446 17.6951 11.4453 16.3447 12.8408C16.3183 12.8682 16.2924 12.8954 16.2666 12.9219C15.7173 13.485 15.3154 13.8511 15.2607 13.9004C15.1869 13.967 15.0937 14 15 14C14.9063 14 14.8131 13.967 14.7393 13.9004C14.5458 13.726 10 9.59431 10 6.75781C10 6.64067 10.006 6.52551 10.0137 6.41211C10.0158 6.38104 10.0178 6.35012 10.0205 6.31934C10.0213 6.30987 10.0226 6.30045 10.0234 6.29102C10.0446 6.06295 10.0803 5.84286 10.1309 5.63086C10.1336 5.61948 10.1359 5.60801 10.1387 5.59668C10.1415 5.58524 10.1446 5.57388 10.1475 5.5625C10.1646 5.49524 10.1832 5.42885 10.2031 5.36328C10.2054 5.35579 10.2076 5.34829 10.21 5.34082C10.216 5.32151 10.2223 5.30236 10.2285 5.2832C10.2293 5.28066 10.2296 5.27794 10.2305 5.27539C10.3342 4.95812 10.4711 4.66186 10.6348 4.38672C10.6395 4.3787 10.6436 4.37028 10.6484 4.3623C10.6505 4.35882 10.6522 4.35504 10.6543 4.35156C10.7056 4.26701 10.76 4.18486 10.8164 4.10449C10.818 4.1022 10.8197 4.09995 10.8213 4.09766C10.8313 4.08338 10.8423 4.0698 10.8525 4.05566C10.9299 3.94846 11.0109 3.84455 11.0967 3.74512C11.1181 3.72031 11.1402 3.69619 11.1621 3.67188C11.168 3.66537 11.1738 3.65882 11.1797 3.65234C11.2174 3.61093 11.2558 3.57024 11.2949 3.53027C11.3035 3.52155 11.3117 3.51256 11.3203 3.50391C11.6529 3.16946 12.0332 2.88676 12.4443 2.66016C12.4511 2.65643 12.4581 2.65311 12.4648 2.64941C12.4815 2.64035 12.4979 2.63096 12.5146 2.62207C12.5166 2.62105 12.5186 2.62016 12.5205 2.61914C12.6252 2.56371 12.7317 2.51209 12.8398 2.46387C12.8457 2.46126 12.8516 2.45865 12.8574 2.45605C12.8782 2.44687 12.899 2.43763 12.9199 2.42871C12.9229 2.42745 12.9258 2.42606 12.9287 2.4248C13.0523 2.37237 13.1776 2.32421 13.3047 2.28125C13.3135 2.27828 13.3223 2.27539 13.3311 2.27246C13.3832 2.25515 13.4357 2.23933 13.4883 2.22363C13.5124 2.21643 13.5364 2.20901 13.5605 2.20215C13.6053 2.18946 13.6503 2.17753 13.6953 2.16602C13.708 2.16277 13.7207 2.1594 13.7334 2.15625C13.7405 2.15448 13.7477 2.1531 13.7549 2.15137C13.7588 2.15041 13.7627 2.14938 13.7666 2.14844C13.7708 2.14742 13.7751 2.14652 13.7793 2.14551C13.9629 2.10171 14.1484 2.06703 14.335 2.04297H14.3408C14.3698 2.03924 14.3987 2.03547 14.4277 2.03223C14.4411 2.03075 14.4544 2.0297 14.4678 2.02832C14.5189 2.02304 14.5699 2.01842 14.6211 2.01465C14.6331 2.01376 14.6452 2.01252 14.6572 2.01172C14.6735 2.01062 14.6898 2.00973 14.7061 2.00879C14.7093 2.0086 14.7126 2.00799 14.7158 2.00781C14.8106 2.00257 14.9053 2 15 2C15.0732 2 15.1465 2.00077 15.2197 2.00391ZM15 5.375C14.1504 5.375 13.4619 6.04663 13.4619 6.875C13.4619 7.70337 14.1504 8.375 15 8.375C15.8496 8.375 16.5381 7.70337 16.5381 6.875C16.5381 6.04663 15.8496 5.375 15 5.375Z"
    fill="currentColor"
  />
</svg>
