<svg
  width="21"
  height="20"
  viewBox="0 0 21 20"
  fill="currentColor"
  xmlns="http://www.w3.org/2000/svg"
>
  <path
    d="M7.7793 0.214844C7.07591 0.950916 6.52873 1.86226 6.23633 2.93848C5.77401 3.18549 5.33811 3.47713 4.93555 3.80664C4.98838 3.82967 5.04235 3.8554 5.0957 3.88379C5.10354 3.88795 5.11134 3.8922 5.11914 3.89648C5.17392 3.9266 5.22783 3.95914 5.27832 3.99512C5.30794 4.01618 5.33631 4.0384 5.36328 4.06152C5.37454 4.07119 5.38482 4.08177 5.39551 4.0918C5.4177 4.11258 5.43868 4.13388 5.45801 4.15625C5.46178 4.16062 5.46607 4.16451 5.46973 4.16895C5.49492 4.1995 5.51754 4.23118 5.53613 4.26465C5.98412 5.07284 5.43359 6.24664 5.25879 6.5791C5.24321 6.78745 5.19766 7.25753 5.0918 7.52344C4.96317 7.84472 4.47396 8.14325 4.13477 8.31836C3.9192 8.68983 3.50391 9.50502 3.50391 9.98145C3.50411 10.6373 4.04518 10.7456 4.21094 10.7627C4.96018 10.8918 5.40626 11.408 5.58496 11.6631C5.92711 11.7677 6.58328 12.0153 6.81934 12.4277C7.07415 12.8745 6.79921 13.8815 6.63477 14.3857C6.6781 14.6155 6.74808 15.1414 6.5918 15.5859C6.43291 16.0368 6.03843 16.3873 5.85547 16.5312C5.82894 16.5918 5.79005 16.6741 5.74219 16.7715C6.63854 17.3363 7.65376 17.7295 8.74316 17.9014C8.74968 17.8961 8.75701 17.8919 8.76367 17.8867C8.7988 17.8595 8.83547 17.8328 8.87402 17.8076C8.89108 17.7965 8.9082 17.7852 8.92578 17.7744C8.95989 17.7536 8.99468 17.7332 9.03027 17.7139C9.04932 17.7035 9.06857 17.6935 9.08789 17.6836C9.10683 17.6739 9.12639 17.6655 9.14551 17.6562C9.23238 17.6141 9.32006 17.5753 9.40527 17.542C9.35788 17.1565 9.36503 16.5654 9.76855 16.2422C9.92092 16.12 10.0863 16.0628 10.251 16.0439C10.3611 16.0314 10.4708 16.0362 10.5762 16.0498C10.7336 16.0701 10.8811 16.1105 11.0049 16.1445C11.0304 16.1516 11.0597 16.1592 11.0879 16.167C11.1301 15.8997 11.1514 15.3714 11.1348 14.8721C11.1316 14.7758 11.1661 14.6825 11.2305 14.6113C11.2502 14.5895 11.3051 14.5319 11.3867 14.4521C11.4139 14.4256 11.4435 14.3959 11.4766 14.3652C11.5011 14.3424 11.5271 14.3185 11.5547 14.2939C11.6183 14.2375 11.6908 14.1785 11.7686 14.1172C11.7865 14.103 11.8037 14.0874 11.8223 14.0732L11.9746 13.9619L12.0918 13.8838C12.1037 13.8762 12.1159 13.8689 12.1279 13.8613C12.1367 13.8558 12.1454 13.8502 12.1543 13.8447C12.418 13.6836 12.7184 13.5491 13.0264 13.5059C13.4636 13.4433 13.9502 13.685 14.3662 13.9814C14.444 14.0369 14.5198 14.0936 14.5918 14.1514C14.6129 14.1683 14.6338 14.1852 14.6543 14.2021C14.7041 14.2433 14.7519 14.2847 14.7979 14.3252C14.869 14.388 14.935 14.4493 14.9951 14.5068C15.0155 14.5263 15.0357 14.5449 15.0547 14.5635C15.129 14.6363 15.1923 14.7009 15.2412 14.7529C15.3671 14.7833 15.5862 14.8397 15.8535 14.9131C15.9658 14.9438 16.0871 14.9758 16.2129 15.0127C16.2178 15.0141 16.2226 15.0161 16.2275 15.0176C17.3348 13.645 18 11.9008 18 10C18 9.87987 17.9955 9.76044 17.9902 9.6416C18.3682 9.12494 18.7338 8.57213 19.0439 8.00195C19.2179 7.68214 19.3859 7.33268 19.5332 6.96289C19.7361 7.60487 19.8753 8.2746 19.9453 8.96484C20.155 9.15291 20 8.71708 20 9.98145C20 10.4199 19.971 10.8518 19.916 11.2754C19.4504 14.9324 17.0108 17.9685 13.6982 19.2881C13.6632 19.3021 13.628 19.3155 13.5928 19.3291C13.5334 19.352 13.474 19.3747 13.4141 19.3965C13.1984 19.4753 12.9791 19.5463 12.7568 19.6104C12.735 19.6166 12.7133 19.6228 12.6914 19.6289C11.8347 19.8695 10.9324 20 10 20C9.74481 20 9.49232 19.9877 9.24121 19.9688C9.23806 19.9688 9.2346 19.9696 9.23145 19.9697C9.22272 19.9697 9.21385 19.9661 9.20508 19.9648C9.178 19.9627 9.15104 19.9594 9.12402 19.957C9.02694 19.9485 8.93026 19.939 8.83398 19.9277C8.75946 19.9191 8.68534 19.9087 8.61133 19.8984C8.56631 19.8921 8.52138 19.8858 8.47656 19.8789C8.39023 19.8657 8.30434 19.8513 8.21875 19.8359C8.1868 19.8302 8.15489 19.8244 8.12305 19.8184C4.13925 19.0618 0.995867 15.9455 0.200195 11.9756C0.186257 11.9068 0.172675 11.8378 0.160156 11.7686C0.152378 11.725 0.143931 11.6815 0.136719 11.6377C0.0802894 11.2996 0.0401325 10.9559 0.0185547 10.6074C0.0181194 10.6006 0.0179872 10.5937 0.0175781 10.5869C0.0142136 10.5288 0.0121329 10.4705 0.00976562 10.4121C0.00928191 10.4007 0.00924191 10.3893 0.00878906 10.3779C0.00364443 10.2464 4.82499e-06 10.1142 0 9.98145C0 9.87034 0.00225317 9.75966 0.00585938 9.64941C0.00690556 9.61975 0.008448 9.59014 0.00976562 9.56055C0.0242316 9.21211 0.0590877 8.8687 0.108398 8.53027C0.111701 8.50785 0.113737 8.48526 0.117188 8.46289C0.118084 8.45702 0.11921 8.45118 0.120117 8.44531C0.136918 8.33656 0.156478 8.22867 0.176758 8.12109C0.186831 8.06763 0.196113 8.0141 0.207031 7.96094C0.228999 7.85406 0.253947 7.74819 0.279297 7.64258C0.29065 7.59523 0.30243 7.54806 0.314453 7.50098C0.340796 7.39792 0.366968 7.29511 0.396484 7.19336C0.412432 7.13832 0.430404 7.08395 0.447266 7.0293C0.552456 6.68879 0.674973 6.35624 0.814453 6.03223C0.833996 5.98677 0.851878 5.94062 0.87207 5.89551C0.911429 5.8077 0.953326 5.72122 0.995117 5.63477C1.02356 5.57585 1.05248 5.51725 1.08203 5.45898C1.12282 5.37867 1.16416 5.29878 1.20703 5.21973C1.24552 5.14866 1.28603 5.07881 1.32617 5.00879C1.36241 4.94564 1.39701 4.88161 1.43457 4.81934C1.47612 4.75037 1.52032 4.68311 1.56348 4.61523C1.65552 4.47063 1.75148 4.32891 1.85059 4.18945C1.88374 4.14275 1.91529 4.09493 1.94922 4.04883C1.99701 3.98395 2.04738 3.9211 2.09668 3.85742C2.15074 3.78754 2.2049 3.71781 2.26074 3.64941C2.29878 3.60286 2.33713 3.5566 2.37598 3.51074C2.44265 3.432 2.51008 3.35397 2.5791 3.27734C2.61212 3.24071 2.64517 3.20411 2.67871 3.16797C2.76751 3.07225 2.85875 2.9789 2.95117 2.88672C2.97399 2.86396 2.99649 2.8409 3.01953 2.81836C3.13674 2.70367 3.25621 2.59129 3.37891 2.48242C3.39248 2.47021 3.40153 2.45467 3.41699 2.44434C3.42054 2.44194 3.42418 2.44146 3.42773 2.43945C3.4326 2.4352 3.43751 2.43101 3.44238 2.42676C3.76459 2.14499 3.9772 1.97429 4.13086 1.87695C5.20594 1.09364 6.44221 0.520181 7.7793 0.214844Z"
    fill="currentColor"
  />
  <path
    fill-rule="evenodd"
    clip-rule="evenodd"
    d="M13.2197 0.00390625C13.2233 0.00406 13.2269 0.00472157 13.2305 0.00488281L13.415 0.0166016C13.4222 0.0171797 13.4294 0.0179469 13.4365 0.0185547C13.4394 0.0188013 13.4424 0.0182967 13.4453 0.0185547C13.4603 0.019852 13.4752 0.0220105 13.4902 0.0234375C13.5052 0.0249677 13.5202 0.026764 13.5352 0.0283203C13.5785 0.0328204 13.6218 0.0373909 13.665 0.0429688C13.6728 0.0439754 13.6807 0.0446845 13.6885 0.0458984C13.7022 0.0477318 13.7158 0.0507927 13.7295 0.0527344C13.779 0.0597453 13.8286 0.0667798 13.8779 0.0751953C13.8805 0.0756357 13.8832 0.0757262 13.8857 0.0761719C13.9174 0.0816124 13.9489 0.0877358 13.9805 0.09375C13.987 0.0950009 13.9935 0.096389 14 0.0976562C14.0222 0.101971 14.0443 0.106731 14.0664 0.111328C14.1841 0.135756 14.301 0.163959 14.417 0.196289C14.4196 0.197007 14.4222 0.197518 14.4248 0.198242C14.4463 0.20428 14.4678 0.210489 14.4893 0.216797C14.5068 0.221966 14.5244 0.227212 14.542 0.232422C14.5647 0.239362 14.5877 0.245687 14.6104 0.25293C14.6153 0.25448 14.6201 0.256232 14.625 0.257812C14.6496 0.265752 14.6739 0.274608 14.6982 0.283203C14.9967 0.384326 15.2863 0.512256 15.5625 0.665039C15.565 0.666448 15.5678 0.667533 15.5703 0.668945C15.5846 0.676871 15.5991 0.684323 15.6133 0.692383C15.6172 0.694616 15.6211 0.69697 15.625 0.699219C16.9885 1.47825 17.9999 2.87946 18 4.75781C18 4.83032 17.9957 4.90352 17.9893 4.97754C17.8356 6.9446 15.6951 9.44534 14.3447 10.8408C14.3183 10.8682 14.2924 10.8954 14.2666 10.9219C13.7173 11.485 13.3154 11.8511 13.2607 11.9004C13.1869 11.967 13.0937 12 13 12C12.9063 12 12.8131 11.967 12.7393 11.9004C12.5458 11.726 8 7.59431 8 4.75781C8 4.64067 8.00596 4.52551 8.01367 4.41211C8.01581 4.38104 8.01783 4.35012 8.02051 4.31934C8.02133 4.30987 8.02258 4.30045 8.02344 4.29102C8.04459 4.06295 8.08026 3.84286 8.13086 3.63086C8.13357 3.61948 8.13587 3.60801 8.13867 3.59668C8.14149 3.58524 8.14455 3.57388 8.14746 3.5625C8.16461 3.49524 8.18317 3.42885 8.20312 3.36328C8.20541 3.35579 8.20764 3.34829 8.20996 3.34082C8.21595 3.32151 8.22228 3.30236 8.22852 3.2832C8.22934 3.28066 8.22964 3.27794 8.23047 3.27539C8.33418 2.95812 8.47109 2.66186 8.63477 2.38672C8.63954 2.3787 8.64362 2.37028 8.64844 2.3623C8.65054 2.35882 8.65218 2.35504 8.6543 2.35156C8.70563 2.26701 8.76002 2.18486 8.81641 2.10449C8.81802 2.1022 8.81968 2.09995 8.82129 2.09766C8.83134 2.08338 8.84233 2.0698 8.85254 2.05566C8.92994 1.94846 9.01087 1.84455 9.09668 1.74512C9.11808 1.72031 9.14021 1.69619 9.16211 1.67188C9.16797 1.66537 9.17379 1.65882 9.17969 1.65234C9.21742 1.61093 9.2558 1.57024 9.29492 1.53027C9.30346 1.52155 9.31171 1.51256 9.32031 1.50391C9.65287 1.16946 10.0332 0.886763 10.4443 0.660156C10.4511 0.656432 10.4581 0.653108 10.4648 0.649414C10.4815 0.640347 10.4979 0.630955 10.5146 0.62207C10.5166 0.621046 10.5186 0.620162 10.5205 0.619141C10.6252 0.563714 10.7317 0.512091 10.8398 0.463867C10.8457 0.461257 10.8516 0.458646 10.8574 0.456055C10.8782 0.446866 10.899 0.43763 10.9199 0.428711C10.9229 0.427453 10.9258 0.426057 10.9287 0.424805C11.0523 0.372368 11.1776 0.324205 11.3047 0.28125C11.3135 0.278279 11.3223 0.275386 11.3311 0.272461C11.3832 0.255148 11.4357 0.239334 11.4883 0.223633C11.5124 0.216431 11.5364 0.209008 11.5605 0.202148C11.6053 0.18946 11.6503 0.177531 11.6953 0.166016C11.708 0.162769 11.7207 0.159403 11.7334 0.15625C11.7405 0.154484 11.7477 0.153104 11.7549 0.151367C11.7588 0.150414 11.7627 0.149381 11.7666 0.148438C11.7708 0.14742 11.7751 0.146515 11.7793 0.145508C11.9629 0.101708 12.1484 0.0670278 12.335 0.0429688H12.3408C12.3698 0.0392444 12.3987 0.0354674 12.4277 0.0322266C12.4411 0.0307465 12.4544 0.0297037 12.4678 0.0283203C12.5189 0.0230438 12.5699 0.018417 12.6211 0.0146484C12.6331 0.0137556 12.6452 0.0125227 12.6572 0.0117188C12.6735 0.0106244 12.6898 0.00972898 12.7061 0.00878906C12.7093 0.00860226 12.7126 0.00799388 12.7158 0.0078125C12.8106 0.00256795 12.9053 1.66178e-09 13 0C13.0732 0 13.1465 0.000766165 13.2197 0.00390625ZM13 3.375C12.1504 3.375 11.4619 4.04663 11.4619 4.875C11.4619 5.70337 12.1504 6.375 13 6.375C13.8496 6.375 14.5381 5.70337 14.5381 4.875C14.5381 4.04663 13.8496 3.375 13 3.375Z"
    fill="currentColor"
  />
</svg>
