<svg width="18" height="18" viewBox="0 0 18 18" fill="currentColor" xmlns="http://www.w3.org/2000/svg">
<path d="M7 3.75C8.00364 3.75 8.81091 2.91 8.81091 1.875C8.81091 0.84 8.00364 0 7 0C5.99636 0 5.18182 0.84 5.18182 1.875C5.18182 2.91 5.99636 3.75 7 3.75Z" fill="currentColor"/>
<path d="M7 4.25C5.66909 4.25 3 4.94 3 6.3125V8H11V6.3125C11 4.94 8.33091 4.25 7 4.25Z" fill="currentColor"/>
<path d="M14 11.75C15.0036 11.75 15.8109 10.91 15.8109 9.875C15.8109 8.84 15.0036 8 14 8C12.9964 8 12.1818 8.84 12.1818 9.875C12.1818 10.91 12.9964 11.75 14 11.75Z" fill="currentColor"/>
<path d="M14 12.25C12.6691 12.25 10 12.94 10 14.3125V16H18V14.3125C18 12.94 15.3309 12.25 14 12.25Z" fill="currentColor"/>
<path d="M5.81091 11.875C5.81091 12.91 5.00364 13.75 4 13.75C2.99636 13.75 2.18182 12.91 2.18182 11.875C2.18182 10.84 2.99636 10 4 10C5.00364 10 5.81091 10.84 5.81091 11.875Z" fill="currentColor"/>
<path d="M0 16.3125C0 14.94 2.66909 14.25 4 14.25C5.33091 14.25 8 14.94 8 16.3125V18H0V16.3125Z" fill="currentColor"/>
</svg>
