<svg width="24" height="24" viewBox="0 0 24 24" fill="none" xmlns="http://www.w3.org/2000/svg">
<path d="M12.0447 15.7833L16.5999 19.1998C16.7173 19.2885 16.8586 19.3332 16.9999 19.3332C17.1012 19.3332 17.2039 19.3098 17.2979 19.2632C17.5239 19.1499 17.6666 18.9192 17.6666 18.6665V10.1614L12.0447 15.7833Z" fill="currentColor"/>
<path d="M5.1955 19.8045C5.32549 19.9345 5.49616 19.9998 5.66682 19.9998C5.83748 19.9998 6.00815 19.9345 6.13814 19.8045L20.8045 5.13814C21.0652 4.87748 21.0652 4.45616 20.8045 4.1955C20.5438 3.93483 20.1225 3.93483 19.8619 4.1955L17.6666 6.39079V5.33347C17.6666 5.08081 17.5239 4.85015 17.2979 4.73682C17.0726 4.62549 16.8019 4.64882 16.5999 4.80015L11.4447 8.66674H6.33347C5.96481 8.66674 5.66682 8.96473 5.66682 9.33339V14.6666C5.66682 15.0353 5.96481 15.3333 6.33347 15.3333H8.72409L5.1955 18.8619C4.93483 19.1225 4.93483 19.5438 5.1955 19.8045Z" fill="currentColor"/>
</svg>
