<svg
  width="18"
  height="18"
  viewBox="0 0 18 18"
  fill="currentColor"
  xmlns="http://www.w3.org/2000/svg"
>
  <path
    d="M4.81333 3.56889L6.85778 1.52444L6.85778 6.85778L1.52444 6.85778L3.56889 4.81333L0 1.26222L1.26222 0L4.81333 3.56889Z"
    fill="currentColor"
  />
  <path
    d="M16.4756 6.85778L14.4311 4.81333L18 1.26222L16.7378 5.96046e-07L13.1867 3.56889L11.1422 1.52445L11.1422 6.85778L16.4756 6.85778Z"
    fill="currentColor"
  />
  <path
    d="M13.1867 14.4311L11.1422 16.4756L11.1422 11.1422H16.4756L14.4311 13.1867L18 16.7378L16.7378 18L13.1867 14.4311Z"
    fill="currentColor"
  />
  <path
    d="M3.56889 13.1867L1.52444 11.1422L6.85778 11.1422L6.85778 16.4756L4.81333 14.4311L1.26222 18L-6.55651e-07 16.7378L3.56889 13.1867Z"
    fill="currentColor"
  />
</svg>
