<svg
  width="24"
  height="24"
  viewBox="0 0 24 24"
  fill="currentColor"
  xmlns="http://www.w3.org/2000/svg"
>
  <path
    d="M7.81333 6.56889L9.85778 4.52444L9.85778 9.85778L4.52444 9.85778L6.56889 7.81333L3 4.26222L4.26222 3L7.81333 6.56889Z"
    fill="currentColor"
  />
  <path
    d="M19.4756 9.85778L17.4311 7.81333L21 4.26222L19.7378 3L16.1867 6.56889L14.1422 4.52445L14.1422 9.85778L19.4756 9.85778Z"
    fill="currentColor"
  />
  <path
    d="M16.1867 17.4311L14.1422 19.4756L14.1422 14.1422H19.4756L17.4311 16.1867L21 19.7378L19.7378 21L16.1867 17.4311Z"
    fill="currentColor"
  />
  <path
    d="M6.56889 16.1867L4.52444 14.1422L9.85778 14.1422L9.85778 19.4756L7.81333 17.4311L4.26222 21L3 19.7378L6.56889 16.1867Z"
    fill="currentColor"
  />
</svg>
