<svg width="16" height="16" viewBox="0 0 16 16" fill="currentColor" xmlns="http://www.w3.org/2000/svg">
<path d="M2.18 16C3.38398 16 4.36 15.024 4.36 13.82C4.36 12.616 3.38398 11.64 2.18 11.64C0.976019 11.64 0 12.616 0 13.82C0 15.024 0.976019 16 2.18 16Z" fill="currentColor"/>
<path d="M0 0.439941V3.26994C7.03 3.26994 12.73 8.96994 12.73 15.9999H15.56C15.56 7.40994 8.59 0.439941 0 0.439941ZM0 6.09994V8.92994C3.9 8.92994 7.07 12.0999 7.07 15.9999H9.9C9.9 10.5299 5.47 6.09994 0 6.09994Z" fill="currentColor"/>
</svg>
