<svg
  width="24"
  height="24"
  viewBox="0 0 24 24"
  fill="currentColor"
  xmlns="http://www.w3.org/2000/svg"
>
  <path
    fill-rule="evenodd"
    clip-rule="evenodd"
    d="M14.1456 15.5539C12.9819 16.4255 11.5366 16.9417 9.97086 16.9417C6.12096 16.9417 3 13.8208 3 9.97086C3 6.12096 6.12096 3 9.97086 3C13.8208 3 16.9417 6.12096 16.9417 9.97086C16.9417 11.5366 16.4255 12.9819 15.5539 14.1456L21 19.5917L19.5917 21L14.1456 15.5539ZM14.95 9.97086C14.95 12.7208 12.7208 14.95 9.97086 14.95C7.22093 14.95 4.99167 12.7208 4.99167 9.97086C4.99167 7.22093 7.22093 4.99167 9.97086 4.99167C12.7208 4.99167 14.95 7.22093 14.95 9.97086Z"
    fill="currentColor"
  />
  <path d="M11 9H14V11H11V14H9V11H6V9H9V6H11V9Z" fill="currentColor" />
</svg>
