<svg width="24" height="24" viewBox="0 0 24 24" fill="none" xmlns="http://www.w3.org/2000/svg">
<path d="M16.7068 15.257C17.6255 14.0506 18.1179 12.5734 18.1068 11.057C18.1201 10.1294 17.9488 9.20838 17.603 8.34753C17.2571 7.48667 16.7436 6.70315 16.0923 6.04251C15.4409 5.38187 14.6648 4.8573 13.8089 4.49928C12.9531 4.14126 12.0346 3.95694 11.1068 3.95703C9.2238 3.95703 7.41789 4.70506 6.08638 6.03657C4.75487 7.36808 4.00684 9.17399 4.00684 11.057C4.00684 12.9401 4.75487 14.746 6.08638 16.0775C7.41789 17.409 9.2238 18.157 11.1068 18.157C12.6258 18.1846 14.1082 17.6904 15.3068 16.757L18.3068 19.757C18.4938 19.9403 18.7451 20.0429 19.0068 20.0429C19.2686 20.0429 19.5199 19.9403 19.7068 19.757C19.8901 19.5701 19.9927 19.3188 19.9927 19.057C19.9927 18.7953 19.8901 18.544 19.7068 18.357L16.7068 15.257ZM11.1068 16.057C10.4419 16.0703 9.78091 15.9508 9.16269 15.7055C8.54448 15.4602 7.98142 15.094 7.50648 14.6284C7.03154 14.1628 6.65428 13.6071 6.39677 12.9938C6.13927 12.3806 6.0067 11.7221 6.00684 11.057C6.00684 9.70443 6.54416 8.40722 7.50059 7.45079C8.45703 6.49435 9.75423 5.95703 11.1068 5.95703C12.4594 5.95703 13.7566 6.49435 14.7131 7.45079C15.6695 8.40722 16.2068 9.70443 16.2068 11.057C16.207 11.7221 16.0744 12.3806 15.8169 12.9938C15.5594 13.6071 15.1821 14.1628 14.7072 14.6284C14.2323 15.094 13.6692 15.4602 13.051 15.7055C12.4328 15.9508 11.7718 16.0703 11.1068 16.057Z" fill="currentColor"/>
</svg>
