<svg
  width="18"
  height="18"
  viewBox="0 0 18 18"
  fill="currentColor"
  xmlns="http://www.w3.org/2000/svg"
>
  <path
    fill-rule="evenodd"
    clip-rule="evenodd"
    d="M11.1456 12.5539C9.98186 13.4255 8.53665 13.9417 6.97086 13.9417C3.12096 13.9417 0 10.8208 0 6.97086C0 3.12096 3.12096 0 6.97086 0C10.8208 0 13.9417 3.12096 13.9417 6.97086C13.9417 8.53665 13.4255 9.98186 12.5539 11.1456L18 16.5917L16.5917 18L11.1456 12.5539ZM11.95 6.97086C11.95 9.72079 9.72079 11.95 6.97086 11.95C4.22093 11.95 1.99167 9.72079 1.99167 6.97086C1.99167 4.22093 4.22093 1.99167 6.97086 1.99167C9.72079 1.99167 11.95 4.22093 11.95 6.97086Z"
    fill="currentColor"
  />
  <path d="M8 6H11V8H8V11H6V8H3V6H6V3H8V6Z" fill="currentColor" />
</svg>
