<svg width="20" height="20" viewBox="0 0 20 20" fill="currentColor" xmlns="http://www.w3.org/2000/svg">
<path d="M17.4401 10.99L17.4301 11.01C17.4701 10.68 17.5101 10.34 17.5101 10C17.5101 9.66 17.4801 9.34 17.4401 9.01L17.4501 9.03L19.8901 7.11L17.4601 2.89L14.5901 4.05L14.6001 4.06C14.0801 3.66 13.5101 3.32 12.8901 3.06H12.9001L12.4401 0H7.57012L7.13012 3.07H7.14012C6.52012 3.33 5.95012 3.67 5.43012 4.07L5.44012 4.06L2.56012 2.89L0.120117 7.11L2.56012 9.03L2.57012 9.01C2.53012 9.34 2.50012 9.66 2.50012 10C2.50012 10.34 2.53012 10.68 2.58012 11.01L2.57012 10.99L0.470117 12.64L0.140117 12.9L2.57012 17.1L5.45012 15.95L5.43012 15.91C5.96012 16.32 6.53012 16.66 7.16012 16.92H7.13012L7.58012 20H12.4301C12.4301 20 12.4601 19.82 12.4901 19.58L12.8701 16.93H12.8601C13.4801 16.67 14.0601 16.33 14.5901 15.92L14.5701 15.96L17.4501 17.11L19.8801 12.91C19.8801 12.91 19.7401 12.79 19.5501 12.65L17.4401 10.99ZM10.0001 13.5C8.07012 13.5 6.50012 11.93 6.50012 10C6.50012 8.07 8.07012 6.5 10.0001 6.5C11.9301 6.5 13.5001 8.07 13.5001 10C13.5001 11.93 11.9301 13.5 10.0001 13.5Z" fill="currentColor"/>
</svg>
