<svg width="24" height="24" viewBox="0 0 24 24" fill="none" xmlns="http://www.w3.org/2000/svg">
<path d="M19.4401 12.99L19.4301 13.01C19.4701 12.68 19.5101 12.34 19.5101 12C19.5101 11.66 19.4801 11.34 19.4401 11.01L19.4501 11.03L21.8901 9.11L19.4601 4.89L16.5901 6.05L16.6001 6.06C16.0801 5.66 15.5101 5.32 14.8901 5.06H14.9001L14.4401 2H9.57012L9.13012 5.07H9.14012C8.52012 5.33 7.95012 5.67 7.43012 6.07L7.44012 6.06L4.56012 4.89L2.12012 9.11L4.56012 11.03L4.57012 11.01C4.53012 11.34 4.50012 11.66 4.50012 12C4.50012 12.34 4.53012 12.68 4.58012 13.01L4.57012 12.99L2.47012 14.64L2.14012 14.9L4.57012 19.1L7.45012 17.95L7.43012 17.91C7.96012 18.32 8.53012 18.66 9.16012 18.92H9.13012L9.58012 22H14.4301C14.4301 22 14.4601 21.82 14.4901 21.58L14.8701 18.93H14.8601C15.4801 18.67 16.0601 18.33 16.5901 17.92L16.5701 17.96L19.4501 19.11L21.8801 14.91C21.8801 14.91 21.7401 14.79 21.5501 14.65L19.4401 12.99ZM12.0001 15.5C10.0701 15.5 8.50012 13.93 8.50012 12C8.50012 10.07 10.0701 8.5 12.0001 8.5C13.9301 8.5 15.5001 10.07 15.5001 12C15.5001 13.93 13.9301 15.5 12.0001 15.5Z" fill="black"/>
</svg>
