<svg width="24" height="24" viewBox="0 0 24 24" fill="currentColor" xmlns="http://www.w3.org/2000/svg">
<path fill-rule="evenodd" clip-rule="evenodd" d="M15.1716 3.17157C15.9217 2.42143 16.9391 2 18 2C19.0609 2 20.0783 2.42143 20.8284 3.17157C21.5786 3.92172 22 4.93913 22 6C22 7.06087 21.5786 8.07828 20.8284 8.82843C20.0783 9.57857 19.0609 10 18 10C16.9391 10 15.9217 9.57857 15.1716 8.82843C15.0979 8.75477 15.0274 8.67854 14.9602 8.59994L9.91861 11.1971C9.97235 11.4594 10 11.7283 10 12C10 12.2717 9.97235 12.5406 9.91861 12.8029L14.9602 15.4001C15.0274 15.3215 15.0979 15.2452 15.1716 15.1716C15.9217 14.4214 16.9391 14 18 14C19.0609 14 20.0783 14.4214 20.8284 15.1716C21.5786 15.9217 22 16.9391 22 18C22 19.0609 21.5786 20.0783 20.8284 20.8284C20.0783 21.5786 19.0609 22 18 22C16.9391 22 15.9217 21.5786 15.1716 20.8284C14.4214 20.0783 14 19.0609 14 18C14 17.7283 14.0276 17.4594 14.0814 17.1971L9.0398 14.5999C8.97257 14.6785 8.90208 14.7548 8.82843 14.8284C8.07828 15.5786 7.06087 16 6 16C4.93913 16 3.92172 15.5786 3.17157 14.8284C2.42143 14.0783 2 13.0609 2 12C2 10.9391 2.42143 9.92172 3.17157 9.17157C3.92172 8.42143 4.93913 8 6 8C7.06087 8 8.07828 8.42143 8.82843 9.17157C8.90208 9.24523 8.97257 9.32146 9.0398 9.40006L14.0814 6.80288C14.0276 6.54061 14 6.27173 14 6C14 4.93913 14.4214 3.92172 15.1716 3.17157ZM16.2282 6.92783C16.2166 6.89892 16.2035 6.8703 16.189 6.84204C16.1829 6.83017 16.1765 6.81847 16.17 6.80695C16.059 6.55509 16 6.28058 16 6C16 5.46957 16.2107 4.96086 16.5858 4.58579C16.9609 4.21071 17.4696 4 18 4C18.5304 4 19.0391 4.21071 19.4142 4.58579C19.7893 4.96086 20 5.46957 20 6C20 6.53043 19.7893 7.03914 19.4142 7.41421C19.0391 7.78929 18.5304 8 18 8C17.4696 8 16.9609 7.78929 16.5858 7.41421C16.4413 7.26978 16.3213 7.10552 16.2282 6.92783ZM7.77176 11.0722C7.67872 10.8945 7.55865 10.7302 7.41421 10.5858C7.03914 10.2107 6.53043 10 6 10C5.46957 10 4.96086 10.2107 4.58579 10.5858C4.21071 10.9609 4 11.4696 4 12C4 12.5304 4.21071 13.0391 4.58579 13.4142C4.96086 13.7893 5.46957 14 6 14C6.53043 14 7.03914 13.7893 7.41421 13.4142C7.55865 13.2698 7.67872 13.1055 7.77176 12.9278C7.78339 12.8989 7.79647 12.8703 7.81103 12.842C7.81714 12.8302 7.82346 12.8185 7.82998 12.8069C7.94104 12.5551 8 12.2806 8 12C8 11.7194 7.94104 11.4449 7.82998 11.1931C7.82346 11.1815 7.81714 11.1698 7.81103 11.158C7.79647 11.1297 7.78339 11.1011 7.77176 11.0722ZM16.17 17.1931C16.059 17.4449 16 17.7194 16 18C16 18.5304 16.2107 19.0391 16.5858 19.4142C16.9609 19.7893 17.4696 20 18 20C18.5304 20 19.0391 19.7893 19.4142 19.4142C19.7893 19.0391 20 18.5304 20 18C20 17.4696 19.7893 16.9609 19.4142 16.5858C19.0391 16.2107 18.5304 16 18 16C17.4696 16 16.9609 16.2107 16.5858 16.5858C16.4413 16.7302 16.3213 16.8945 16.2282 17.0722C16.2166 17.1011 16.2035 17.1297 16.189 17.158C16.1829 17.1698 16.1765 17.1815 16.17 17.1931Z" fill="currentColor"/>
</svg>
