<svg
  width="24"
  height="24"
  viewBox="0 0 24 24"
  fill="currentColor"
  xmlns="http://www.w3.org/2000/svg"
>
  <path
    d="M22 12C22 14.3869 21.0518 16.6761 19.364 18.364C17.6761 20.0518 15.3869 21 13 21C10.61 21 8.32 20.06 6.6 18.4L8.1 16.9C8.72957 17.5667 9.4893 18.0971 10.3321 18.4583C11.175 18.8196 12.083 19.0039 13 19C19.24 19 22.36 11.46 17.95 7.05C13.54 2.64 6 5.77 6 12H9L5 16H4.9L1 12H4C4 9.61305 4.94821 7.32387 6.63604 5.63604C8.32387 3.94821 10.6131 3 13 3C15.3869 3 17.6761 3.94821 19.364 5.63604C21.0518 7.32387 22 9.61305 22 12Z"
    fill="currentColor"
  />
  <path
    d="M10.9761 15.3837V10.3202H10V9.33652C10.2028 9.33652 10.3859 9.31391 10.5494 9.26869C10.7128 9.22346 10.8505 9.14755 10.9625 9.04095C11.0775 8.93435 11.1638 8.78737 11.2213 8.60001H12.152V15.3837H10.9761Z"
    fill="currentColor"
  />
  <path
    d="M14.4801 15.5C14.1593 15.5 13.8702 15.4645 13.6129 15.3934C13.3557 15.3256 13.1317 15.2383 12.941 15.1317C12.7503 15.0219 12.5944 14.9121 12.4734 14.8023L13.1045 13.8186C13.2134 13.9058 13.3345 13.9882 13.4677 14.0657C13.6039 14.14 13.7537 14.2014 13.9171 14.2499C14.0836 14.2983 14.2698 14.3225 14.4756 14.3225C14.7207 14.3225 14.9356 14.2741 15.1203 14.1772C15.3079 14.0803 15.4547 13.943 15.5607 13.7653C15.6666 13.5876 15.7196 13.3777 15.7196 13.1354C15.7196 12.9254 15.6817 12.7413 15.6061 12.583C15.5334 12.4215 15.4275 12.2955 15.2883 12.2051C15.1521 12.1114 14.9841 12.0645 14.7843 12.0645C14.5331 12.0645 14.3227 12.113 14.1532 12.2099C13.9837 12.3036 13.8369 12.4263 13.7128 12.5782L12.6686 12.0403L12.8865 8.60001H16.4914V9.79685H13.958L13.8445 11.1342C13.9898 11.0567 14.1426 10.9953 14.303 10.9501C14.4635 10.9016 14.6345 10.8774 14.8161 10.8774C15.261 10.8774 15.6378 10.9775 15.9466 11.1778C16.2583 11.3781 16.4944 11.6478 16.6548 11.987C16.8183 12.3262 16.9 12.7041 16.9 13.1209C16.9 13.5925 16.7956 14.0076 16.5867 14.3662C16.3809 14.7215 16.0964 14.9993 15.7332 15.1996C15.37 15.3999 14.9523 15.5 14.4801 15.5Z"
    fill="currentColor"
  />
</svg>
