<svg
  width="24"
  height="24"
  viewBox="0 0 24 24"
  fill="currentColor"
  xmlns="http://www.w3.org/2000/svg"
>
  <path
    d="M2 12C2 14.3869 2.94821 16.6761 4.63604 18.364C6.32387 20.0518 8.61305 21 11 21C13.39 21 15.68 20.06 17.4 18.4L15.9 16.9C15.2704 17.5667 14.5107 18.0971 13.6679 18.4583C12.825 18.8196 11.917 19.0039 11 19C4.76 19 1.64 11.46 6.05 7.05C10.46 2.64 18 5.77 18 12H15L19 16H19.1L23 12H20C20 9.61305 19.0518 7.32387 17.364 5.63604C15.6761 3.94821 13.3869 3 11 3C8.61305 3 6.32387 3.94821 4.63604 5.63604C2.94821 7.32387 2 9.61305 2 12Z"
    fill="currentColor"
  />
  <path
    d="M7.97613 15.3837V10.3202H7V9.33652C7.20279 9.33652 7.38591 9.31391 7.54936 9.26869C7.7128 9.22346 7.85052 9.14755 7.96251 9.04095C8.07752 8.93435 8.16379 8.78737 8.22129 8.60001H9.15202V15.3837H7.97613Z"
    fill="currentColor"
  />
  <path
    d="M11.4801 15.5C11.1593 15.5 10.8702 15.4645 10.6129 15.3934C10.3557 15.3256 10.1317 15.2383 9.94101 15.1317C9.75032 15.0219 9.59445 14.9121 9.47338 14.8023L10.1045 13.8186C10.2134 13.9058 10.3345 13.9882 10.4677 14.0657C10.6039 14.14 10.7537 14.2014 10.9171 14.2499C11.0836 14.2983 11.2698 14.3225 11.4756 14.3225C11.7207 14.3225 11.9356 14.2741 12.1203 14.1772C12.3079 14.0803 12.4547 13.943 12.5607 13.7653C12.6666 13.5876 12.7196 13.3777 12.7196 13.1354C12.7196 12.9254 12.6817 12.7413 12.6061 12.583C12.5334 12.4215 12.4275 12.2955 12.2883 12.2051C12.1521 12.1114 11.9841 12.0645 11.7843 12.0645C11.5331 12.0645 11.3227 12.113 11.1532 12.2099C10.9837 12.3036 10.8369 12.4263 10.7128 12.5782L9.6686 12.0403L9.88653 8.60001H13.4914V9.79685H10.958L10.8445 11.1342C10.9898 11.0567 11.1426 10.9953 11.303 10.9501C11.4635 10.9016 11.6345 10.8774 11.8161 10.8774C12.261 10.8774 12.6378 10.9775 12.9466 11.1778C13.2583 11.3781 13.4944 11.6478 13.6548 11.987C13.8183 12.3262 13.9 12.7041 13.9 13.1209C13.9 13.5925 13.7956 14.0076 13.5867 14.3662C13.3809 14.7215 13.0964 14.9993 12.7332 15.1996C12.37 15.3999 11.9523 15.5 11.4801 15.5Z"
    fill="currentColor"
  />
</svg>
