<svg
  width="16"
  height="18"
  viewBox="0 0 16 18"
  fill="currentColor"
  xmlns="http://www.w3.org/2000/svg"
>
  <path
    d="M6.04878 11.9326C6.04878 10.9618 6.82927 10.3146 8 10.3146C9.17073 10.3146 9.95122 10.9618 9.95122 11.9326C9.95122 13.9551 9.56098 18 8 18C6.43902 18 6.04878 13.9551 6.04878 11.9326Z"
    fill="currentColor"
  />
  <path
    fill-rule="evenodd"
    clip-rule="evenodd"
    d="M1.17073 8.29213C1.17108 7.02593 1.49909 5.783 2.12057 4.69291C2.74205 3.60281 3.63425 2.70546 4.70417 2.09439C5.77409 1.48331 6.98256 1.18089 8.20361 1.21864C9.42466 1.25639 10.6136 1.63293 11.6465 2.30902C12.6793 2.98511 13.5184 3.93598 14.0761 5.06253C14.6337 6.18908 14.8897 7.45007 14.8172 8.71404C14.7448 9.97801 14.3466 11.1987 13.6641 12.2489C12.9816 13.299 12.0398 14.1402 10.937 14.6848C10.8727 15.1636 10.7854 15.6388 10.6755 16.1086C13.778 14.9679 16 11.8994 16 8.29213C16 3.71326 12.4176 0 8 0C3.58244 0 0 3.71326 0 8.29213C0 11.8994 2.22205 14.9687 5.32449 16.1094L5.30107 16.0083C5.20208 15.5711 5.12265 15.1295 5.06302 14.6848C3.89772 14.1094 2.91359 13.2035 2.2247 12.0721C1.53581 10.9407 1.17037 9.63004 1.17073 8.29213Z"
    fill="currentColor"
  />
  <path
    fill-rule="evenodd"
    clip-rule="evenodd"
    d="M3.90244 8.29213C3.90248 7.60144 4.06503 6.92118 4.376 6.31031C4.68697 5.69944 5.13699 5.1764 5.68704 4.78652C6.23708 4.39664 6.87057 4.15169 7.53258 4.0729C8.19459 3.99411 8.86515 4.08386 9.48614 4.33437C10.1071 4.58487 10.6598 4.98858 11.0963 5.51049C11.5327 6.0324 11.8398 6.65677 11.9909 7.32948C12.1419 8.00219 12.1325 8.70294 11.9632 9.37099C11.794 10.039 11.4701 10.6542 11.0197 11.1632C11.0873 11.4075 11.1214 11.664 11.122 11.9326C11.122 12.1656 11.1173 12.4253 11.1063 12.7035C12.0041 12.0242 12.6716 11.068 13.0132 9.97166C13.3549 8.87532 13.3533 7.69506 13.0086 6.59974C12.6639 5.50442 11.9938 4.55016 11.0942 3.8735C10.1946 3.19683 9.11153 2.83243 8 2.83243C6.88847 2.83243 5.80542 3.19683 4.90581 3.8735C4.00619 4.55016 3.3361 5.50442 2.99142 6.59974C2.64673 7.69506 2.64511 8.87532 2.98678 9.97166C3.32845 11.068 3.99591 12.0242 4.89366 12.7035C4.88273 12.4253 4.87805 12.1656 4.87805 11.9326C4.87857 11.664 4.91265 11.4075 4.98029 11.1632C4.28567 10.3806 3.90085 9.35556 3.90244 8.29213Z"
    fill="currentColor"
  />
  <path
    d="M6.2439 7.68539C6.2439 8.16815 6.42892 8.63113 6.75825 8.97249C7.08758 9.31384 7.53425 9.50562 8 9.50562C8.46575 9.50562 8.91242 9.31384 9.24175 8.97249C9.57108 8.63113 9.7561 8.16815 9.7561 7.68539C9.7561 7.20264 9.57108 6.73966 9.24175 6.3983C8.91242 6.05694 8.46575 5.86517 8 5.86517C7.53425 5.86517 7.08758 6.05694 6.75825 6.3983C6.42892 6.73966 6.2439 7.20264 6.2439 7.68539Z"
    fill="currentColor"
  />
</svg>
