<svg width="24" height="24" viewBox="0 0 24 24" fill="currentColor" xmlns="http://www.w3.org/2000/svg">
<path d="M21.75 8.26667C21.5 6.75 20.75 5.7 19 5.46667C16.25 5 12 5 12 5C12 5 7.75 5 5 5.46667C3.25 5.7 2.375 6.75 2.25 8.26667C2 9.78333 2 12 2 12C2 12 2 14.2167 2.25 15.7333C2.5 17.25 3.25 18.3 5 18.5333C7.75 19 12 19 12 19C12 19 16.25 19 19 18.5333C20.75 18.1833 21.5 17.25 21.75 15.7333C22 14.2167 22 12 22 12C22 12 22 9.78333 21.75 8.26667ZM9.5 15.5V8.5L15.75 12L9.5 15.5Z" fill="currentColor"/>
</svg>
