<svg
  width="24"
  height="24"
  viewBox="0 0 24 24"
  fill="currentColor"
  xmlns="http://www.w3.org/2000/svg"
>
  <path
    d="M10.0488 14.9326C10.0488 13.9618 10.8293 13.3146 12 13.3146C13.1707 13.3146 13.9512 13.9618 13.9512 14.9326C13.9512 16.9551 13.561 21 12 21C10.439 21 10.0488 16.9551 10.0488 14.9326Z"
    fill="currentColor"
  />
  <path
    fill-rule="evenodd"
    clip-rule="evenodd"
    d="M5.17073 11.2921C5.17108 10.0259 5.49909 8.783 6.12057 7.69291C6.74205 6.60281 7.63425 5.70546 8.70417 5.09439C9.77409 4.48331 10.9826 4.18089 12.2036 4.21864C13.4247 4.25639 14.6136 4.63293 15.6465 5.30902C16.6793 5.98511 17.5184 6.93598 18.0761 8.06253C18.6337 9.18908 18.8897 10.4501 18.8172 11.714C18.7448 12.978 18.3466 14.1987 17.6641 15.2489C16.9816 16.299 16.0398 17.1402 14.937 17.6848C14.8727 18.1636 14.7854 18.6388 14.6755 19.1086C17.778 17.9679 20 14.8994 20 11.2921C20 6.71326 16.4176 3 12 3C7.58244 3 4 6.71326 4 11.2921C4 14.8994 6.22205 17.9687 9.32449 19.1094L9.30107 19.0083C9.20208 18.5711 9.12265 18.1295 9.06302 17.6848C7.89772 17.1094 6.91359 16.2035 6.2247 15.0721C5.53581 13.9407 5.17037 12.63 5.17073 11.2921Z"
    fill="currentColor"
  />
  <path
    fill-rule="evenodd"
    clip-rule="evenodd"
    d="M7.90244 11.2921C7.90248 10.6014 8.06503 9.92118 8.376 9.31031C8.68697 8.69944 9.13699 8.1764 9.68704 7.78652C10.2371 7.39664 10.8706 7.15169 11.5326 7.0729C12.1946 6.99411 12.8651 7.08386 13.4861 7.33437C14.1071 7.58487 14.6598 7.98858 15.0963 8.51049C15.5327 9.0324 15.8398 9.65677 15.9909 10.3295C16.1419 11.0022 16.1325 11.7029 15.9632 12.371C15.794 13.039 15.4701 13.6542 15.0197 14.1632C15.0873 14.4075 15.1214 14.664 15.122 14.9326C15.122 15.1656 15.1173 15.4253 15.1063 15.7035C16.0041 15.0242 16.6716 14.068 17.0132 12.9717C17.3549 11.8753 17.3533 10.6951 17.0086 9.59974C16.6639 8.50442 15.9938 7.55016 15.0942 6.8735C14.1946 6.19683 13.1115 5.83243 12 5.83243C10.8885 5.83243 9.80542 6.19683 8.90581 6.8735C8.00619 7.55016 7.3361 8.50442 6.99142 9.59974C6.64673 10.6951 6.64511 11.8753 6.98678 12.9717C7.32845 14.068 7.99591 15.0242 8.89366 15.7035C8.88273 15.4253 8.87805 15.1656 8.87805 14.9326C8.87857 14.664 8.91265 14.4075 8.98029 14.1632C8.28567 13.3806 7.90085 12.3556 7.90244 11.2921Z"
    fill="currentColor"
  />
  <path
    d="M10.2439 10.6854C10.2439 11.1681 10.4289 11.6311 10.7583 11.9725C11.0876 12.3138 11.5343 12.5056 12 12.5056C12.4657 12.5056 12.9124 12.3138 13.2417 11.9725C13.5711 11.6311 13.7561 11.1681 13.7561 10.6854C13.7561 10.2026 13.5711 9.73966 13.2417 9.3983C12.9124 9.05694 12.4657 8.86517 12 8.86517C11.5343 8.86517 11.0876 9.05694 10.7583 9.3983C10.4289 9.73966 10.2439 10.2026 10.2439 10.6854Z"
    fill="currentColor"
  />
</svg>
