<svg width="24" height="24" viewBox="0 0 24 24" fill="none" xmlns="http://www.w3.org/2000/svg">
<path d="M19.9643 6.68539C18.9331 6.47179 17.9993 5.94484 17.299 5.18134C16.5987 4.41784 16.1686 3.45772 16.0714 2.44094V2H12.5141V15.6702C12.5119 16.2754 12.3139 16.8647 11.948 17.3554C11.582 17.846 11.0665 18.2133 10.4739 18.4056C9.88128 18.5979 9.24133 18.6055 8.64397 18.4275C8.04662 18.2495 7.52188 17.8947 7.14351 17.413C6.75926 16.9232 6.5461 16.3277 6.53496 15.7127C6.52381 15.0978 6.71525 14.4953 7.08152 13.9928C7.44778 13.4903 7.96983 13.1138 8.57196 12.918C9.17408 12.7221 9.82499 12.7171 10.4303 12.9036V9.40403C9.08052 9.22336 7.70619 9.45572 6.49952 10.0686C5.29286 10.6815 4.31421 11.6443 3.70048 12.8223C3.08674 14.0003 2.8686 15.3345 3.07658 16.6385C3.28456 17.9424 3.90826 19.1508 4.86042 20.0946C5.76845 20.9943 6.93274 21.6115 8.20467 21.8675C9.47659 22.1235 10.7985 22.0068 12.0015 21.5321C13.2046 21.0574 14.2343 20.2463 14.9592 19.2024C15.6841 18.1585 16.0713 16.9292 16.0714 15.6712V8.68613C17.509 9.68133 19.2328 10.215 21 10.2119V6.78937C20.652 6.78979 20.3048 6.75494 19.9643 6.68539Z" fill="black"/>
</svg>
