<svg
  fill="none"
  height="24"
  viewBox="0 0 24 24"
  width="24"
  xmlns="http://www.w3.org/2000/svg"
>
  <g>
    <path
      d="m15.85 8.14c.39 0 .77.03 1.14.08-.68-2.97-3.8-5.22-7.54999-5.22-4.25 0-7.7 2.88-7.7 6.43 0 2.05 1.15 3.86 2.94 5.04l-1.01 2.03 2.76-1.19c.59.21 1.21.38 1.87.47-.09-.39-.14-.79-.14-1.21-.01-3.54 3.43999-6.43 7.68999-6.43zm-3.85-2.25c.1261 0 .2509.02483.3674.07308.1165.04824.2223.11895.3114.2081.0892.08914.1599.19497.2081.31144.0483.11648.0731.24131.0731.36738s-.0248.2509-.0731.36738c-.0482.11647-.1189.2223-.2081.31144-.0891.08915-.1949.15986-.3114.2081-.1165.04825-.2413.07308-.3674.07308-.2546 0-.4988-.10114-.6788-.28118-.1801-.18003-.2812-.42421-.2812-.67882s.1011-.49879.2812-.67882c.18-.18004.4242-.28118.6788-.28118zm-5.12999 1.93c-.25461 0-.49879-.10114-.67883-.28118-.18003-.18003-.28117-.42421-.28117-.67882s.10114-.49879.28117-.67882c.18004-.18004.42422-.28118.67883-.28118.2546 0 .49878.10114.67882.28118.18003.18003.28118.42421.28118.67882s-.10115.49879-.28118.67882c-.18004.18004-.42422.28118-.67882.28118z"
      fill="currentColor"
    />
    <path
      d="m22.26 14.57c0-2.84-2.87-5.14-6.41-5.14s-6.40999 2.3-6.40999 5.14 2.86999 5.14 6.40999 5.14c.58 0 1.14-.08 1.67-.2l3.46 1.49-1.2-2.4c1.5-.94 2.48-2.38 2.48-4.03zm-8.34-.32c-.1899 0-.3755-.0563-.5333-.1618-.1579-.1055-.281-.2554-.3536-.4308-.0727-.1754-.0917-.3685-.0546-.5547.037-.1862.1284-.3573.2627-.4915.1342-.1343.3053-.2257.4915-.2628.1862-.037.3793-.018.5547.0547.1754.0726.3253.1957.4308.3536.1055.1578.1618.3434.1618.5333.01.53-.43.96-.96.96zm3.85 0c-.2546 0-.4988-.1011-.6788-.2812-.1801-.18-.2812-.4242-.2812-.6788s.1011-.4988.2812-.6788c.18-.1801.4242-.2812.6788-.2812s.4988.1011.6788.2812c.1801.18.2812.4242.2812.6788s-.1011.4988-.2812.6788c-.18.1801-.4242.2812-.6788.2812z"
      fill="currentColor"
    />
  </g>
</svg>
