<svg width="24" height="24" viewBox="0 0 24 24" fill="currentColor" xmlns="http://www.w3.org/2000/svg">
<path d="M20.2486 3.00154H3.75141C3.65122 2.99491 3.55077 3.00976 3.45679 3.0451C3.3628 3.08044 3.27745 3.13545 3.20645 3.20645C3.13545 3.27745 3.08044 3.3628 3.0451 3.45679C3.00976 3.55077 2.99491 3.65122 3.00154 3.75141V20.2486C2.99491 20.3488 3.00976 20.4492 3.0451 20.5432C3.08044 20.6372 3.13545 20.7225 3.20645 20.7935C3.27745 20.8645 3.3628 20.9196 3.45679 20.9549C3.55077 20.9902 3.65122 21.0051 3.75141 20.9985H20.2486C20.3488 21.0051 20.4492 20.9902 20.5432 20.9549C20.6372 20.9196 20.7225 20.8645 20.7935 20.7935C20.8645 20.7225 20.9196 20.6372 20.9549 20.5432C20.9902 20.4492 21.0051 20.3488 20.9985 20.2486V3.75141C21.0051 3.65122 20.9902 3.55077 20.9549 3.45679C20.9196 3.3628 20.8645 3.27745 20.7935 3.20645C20.7225 3.13545 20.6372 3.08044 20.5432 3.0451C20.4492 3.00976 20.3488 2.99491 20.2486 3.00154ZM8.32563 18.3739H5.70108V9.75038H8.40061V18.3739H8.32563ZM6.97586 8.55059C6.66441 8.55059 6.35995 8.45823 6.10098 8.2852C5.84202 8.11217 5.64018 7.86623 5.521 7.57848C5.40181 7.29074 5.37062 6.97411 5.43139 6.66864C5.49215 6.36318 5.64213 6.08259 5.86236 5.86236C6.08259 5.64213 6.36318 5.49215 6.66864 5.43139C6.97411 5.37062 7.29074 5.40181 7.57848 5.521C7.86623 5.64018 8.11217 5.84202 8.2852 6.10098C8.45823 6.35995 8.55059 6.66441 8.55059 6.97586C8.55573 7.18406 8.51852 7.39113 8.4412 7.58451C8.36388 7.77789 8.24808 7.95355 8.10081 8.10081C7.95355 8.24808 7.77789 8.36388 7.58451 8.4412C7.39113 8.51852 7.18406 8.55573 6.97586 8.55059ZM18.3739 18.3739H15.6744V14.1746C15.6744 13.1998 15.6744 11.925 14.3246 11.925C12.9748 11.925 12.7499 12.9748 12.7499 14.0996V18.3739H10.0503V9.75038H12.5999V10.9502C12.8615 10.5142 13.2373 10.158 13.6867 9.92013C14.136 9.68224 14.6418 9.57168 15.1495 9.60041C17.849 9.60041 18.3739 11.4001 18.3739 13.7247V18.3739Z" fill="currentColor"/>
</svg>
