<svg width="24" height="24" viewBox="0 0 24 24" fill="currentColor" xmlns="http://www.w3.org/2000/svg">
<path d="M20.1056 3H3.78261C3.3354 3 3 3.3375 3 3.7875V20.325C3 20.6625 3.3354 21 3.78261 21H20.2174C20.6646 21 21 20.6625 21 20.2125V3.7875C20.8882 3.3375 20.5528 3 20.1056 3ZM8.03106 14.25C6.46584 14.25 5.23602 13.0125 5.23602 11.4375C5.23602 9.8625 6.46584 8.625 8.03106 8.625C9.59627 8.625 10.8261 9.8625 10.8261 11.4375C10.8261 13.0125 9.59627 14.25 8.03106 14.25ZM15.8571 14.25C14.2919 14.25 13.0621 13.0125 13.0621 11.4375C13.0621 9.8625 14.2919 8.625 15.8571 8.625C17.4224 8.625 18.6522 9.8625 18.6522 11.4375C18.6522 13.0125 17.4224 14.25 15.8571 14.25Z" fill="currentColor"/>
</svg>
