<svg width="24" height="24" viewBox="0 0 24 24" fill="currentColor" xmlns="http://www.w3.org/2000/svg">
<path d="M11.9989 4.62112C14.4016 4.62112 14.6862 4.63125 15.6355 4.674C16.206 4.68086 16.7711 4.78589 17.306 4.9845C17.6972 5.12904 18.0509 5.35973 18.3408 5.6595C18.6406 5.94952 18.8712 6.30325 19.0157 6.6945C19.2143 7.22943 19.3194 7.79456 19.3262 8.36513C19.369 9.31462 19.3791 9.60262 19.3791 12.0022C19.3791 14.4019 19.369 14.6899 19.3262 15.6394C19.3194 16.2099 19.2143 16.7751 19.0157 17.31C18.8664 17.6982 18.6372 18.0508 18.3431 18.345C18.049 18.6392 17.6964 18.8683 17.3082 19.0177C16.7733 19.2164 16.2083 19.3214 15.6378 19.3283C14.6884 19.371 14.4004 19.3811 12.0011 19.3811C9.6018 19.3811 9.31384 19.371 8.36445 19.3283C7.79396 19.3214 7.2289 19.2164 6.69404 19.0177C6.30283 18.8732 5.94915 18.6425 5.65917 18.3427C5.35944 18.0527 5.12877 17.699 4.98425 17.3078C4.78567 16.7728 4.68065 16.2077 4.67379 15.6371C4.63105 14.6876 4.62092 14.3996 4.62092 12C4.62092 9.60038 4.63105 9.31238 4.67379 8.36287C4.68065 7.79231 4.78567 7.22718 4.98425 6.69225C5.12877 6.301 5.35944 5.94727 5.65917 5.65725C5.94915 5.35748 6.30283 5.12679 6.69404 4.98225C7.2289 4.78364 7.79396 4.67861 8.36445 4.67175C9.31384 4.629 9.6018 4.61888 12.0011 4.61888L11.9989 4.62112ZM11.9989 3C9.55455 3 9.24859 3.01013 8.28684 3.054C7.54101 3.06917 6.80315 3.21067 6.10461 3.4725C5.50389 3.69813 4.95985 4.05255 4.51069 4.51088C4.05242 4.96009 3.69804 5.50421 3.47244 6.105C3.21065 6.80362 3.06916 7.54158 3.05399 8.2875C3.01012 9.24937 3 9.55537 3 12C3 14.4446 3.01012 14.7506 3.05399 15.7125C3.06916 16.4584 3.21065 17.1964 3.47244 17.895C3.69804 18.4958 4.05242 19.0399 4.51069 19.4891C4.95985 19.9474 5.50389 20.3019 6.10461 20.5275C6.80386 20.7896 7.5425 20.9311 8.28909 20.946C9.24859 20.9899 9.55455 21 11.9989 21C14.4432 21 14.7492 20.9899 15.7109 20.946C16.4575 20.9311 17.1961 20.7896 17.8954 20.5275C18.4932 20.2961 19.036 19.9424 19.4893 19.4891C19.9425 19.0358 20.2962 18.4928 20.5276 17.895C20.7896 17.1957 20.9311 16.4569 20.946 15.7103C20.9899 14.7506 21 14.4446 21 11.9978C21 9.55087 20.9899 9.24713 20.946 8.28525C20.9299 7.53996 20.7876 6.80278 20.5253 6.105C20.2997 5.50421 19.9453 4.96009 19.4871 4.51088C19.0379 4.05255 18.4939 3.69813 17.8931 3.4725C17.1946 3.21067 16.4567 3.06917 15.7109 3.054C14.7492 3.01013 14.4432 3 11.9989 3Z" fill="black"/>
<path d="M11.9989 7.3785C11.0849 7.3785 10.1915 7.64955 9.43163 8.15736C8.67172 8.66518 8.07945 9.38696 7.7297 10.2314C7.37995 11.0759 7.28844 12.0051 7.46674 12.9016C7.64504 13.7981 8.08514 14.6216 8.73139 15.2679C9.37764 15.9142 10.201 16.3544 11.0974 16.5327C11.9937 16.711 12.9229 16.6195 13.7672 16.2697C14.6116 15.9199 15.3333 15.3276 15.841 14.5676C16.3488 13.8076 16.6198 12.914 16.6198 12C16.6198 11.3931 16.5003 10.7921 16.268 10.2314C16.0358 9.67072 15.6955 9.16125 15.2664 8.73211C14.8373 8.30296 14.3279 7.96254 13.7672 7.73029C13.2066 7.49804 12.6057 7.3785 11.9989 7.3785ZM11.9989 15.0004C11.4055 15.0004 10.8255 14.8244 10.3322 14.4947C9.83882 14.165 9.4543 13.6964 9.22724 13.1482C9.00017 12.5999 8.94076 11.9967 9.05652 11.4147C9.17228 10.8326 9.458 10.298 9.87755 9.87841C10.2971 9.4588 10.8317 9.17305 11.4136 9.05728C11.9955 8.94151 12.5987 9.00092 13.1469 9.22801C13.6951 9.45511 14.1636 9.83967 14.4933 10.3331C14.8229 10.8265 14.9989 11.4066 14.9989 12C14.9989 12.7957 14.6828 13.5589 14.1202 14.1216C13.5576 14.6843 12.7945 15.0004 11.9989 15.0004Z" fill="black"/>
<path d="M16.802 8.27625C17.3984 8.27625 17.8819 7.79272 17.8819 7.19625C17.8819 6.59978 17.3984 6.11625 16.802 6.11625C16.2056 6.11625 15.7222 6.59978 15.7222 7.19625C15.7222 7.79272 16.2056 8.27625 16.802 8.27625Z" fill="black"/>
</svg>
