<svg
  width="24"
  height="24"
  viewBox="0 0 24 24"
  fill="currentColor"
  xmlns="http://www.w3.org/2000/svg"
>
  <path
    d="M16.7116 11.7106C16.4362 11.6261 16.2462 11.5678 16.391 11.2C16.7035 10.399 16.7367 9.70854 16.398 9.21508C15.7618 8.29045 14.0221 8.3397 12.0281 9.18995C12.0281 9.18794 11.402 9.46834 11.5618 8.96181C11.8693 7.9598 11.8221 7.1196 11.3447 6.63518C10.2633 5.53166 7.38794 6.67638 4.9206 9.18693C3.07236 11.0673 2 13.0593 2 14.7829C2 18.0804 6.15276 20.2854 10.2161 20.2854C15.5417 20.2854 19.0854 16.9347 19.0854 14.4342C19.0854 12.9216 17.8352 12.0643 16.7116 11.7106ZM10.2271 18.807C6.98593 19.1286 4.18593 17.6543 3.97588 15.5156C3.76583 13.3769 6.22311 11.3799 9.46533 11.0553C12.7075 10.7337 15.5065 12.207 15.7166 14.3467C15.9266 16.4884 13.4693 18.4854 10.2271 18.807ZM22 9.02613C21.9989 7.42753 21.3631 5.89477 20.2324 4.76477C19.1016 3.63477 17.5684 3 15.9698 3C15.7835 3 15.6048 3.07401 15.4731 3.20576C15.3413 3.33751 15.2673 3.51619 15.2673 3.70251C15.2673 3.88883 15.3413 4.06752 15.4731 4.19926C15.6048 4.33101 15.7835 4.40503 15.9698 4.40503C16.5772 4.40489 17.1787 4.52444 17.7398 4.75684C18.301 4.98924 18.8108 5.32994 19.2402 5.75946C19.6697 6.18898 20.0103 6.69891 20.2425 7.26011C20.4748 7.82131 20.5942 8.42278 20.594 9.03015C20.594 9.12247 20.6123 9.21388 20.6477 9.29914C20.6831 9.38441 20.7349 9.46188 20.8002 9.52711C20.8656 9.59234 20.9431 9.64407 21.0284 9.67934C21.1137 9.71461 21.2052 9.73273 21.2975 9.73266C21.3898 9.7326 21.4812 9.71435 21.5665 9.67896C21.6517 9.64357 21.7292 9.59173 21.7944 9.5264C21.8597 9.46107 21.9114 9.38353 21.9467 9.29822C21.9819 9.2129 22.0001 9.12147 22 9.02915V9.02613ZM19.205 8.92362C19.0455 8.15381 18.6643 7.44746 18.1084 6.89156C17.5525 6.33566 16.8462 5.95448 16.0764 5.79497C15.9849 5.77366 15.89 5.77089 15.7974 5.78683C15.7048 5.80278 15.6163 5.83711 15.5372 5.88781C15.4581 5.93851 15.3899 6.00455 15.3367 6.08202C15.2836 6.15949 15.2464 6.24684 15.2276 6.33889C15.2087 6.43095 15.2085 6.52585 15.2269 6.61799C15.2453 6.71014 15.282 6.79767 15.3348 6.8754C15.3876 6.95314 15.4554 7.01951 15.5343 7.0706C15.6131 7.12169 15.7014 7.15646 15.794 7.17286C16.2947 7.27563 16.7544 7.52303 17.1159 7.88441C17.4775 8.2458 17.7251 8.70531 17.8281 9.20603C17.8657 9.38872 17.9742 9.54903 18.1298 9.65174C18.2855 9.75445 18.4756 9.79115 18.6583 9.75377C18.8408 9.71603 19.0009 9.60742 19.1034 9.45178C19.2059 9.29614 19.2424 9.10619 19.205 8.92362ZM8.56482 13.1518C7.25829 13.4151 6.37688 14.5106 6.59598 15.598C6.81507 16.6874 8.05025 17.3568 9.35678 17.0935C10.6633 16.8301 11.5437 15.7347 11.3256 14.6472C11.1075 13.5598 9.86935 12.8884 8.56482 13.1518Z"
    fill="currentColor"
  />
</svg>
