<svg width="24" height="24" viewBox="0 0 24 24" fill="currentColor" xmlns="http://www.w3.org/2000/svg">
<path d="M21.9999 12.0342C21.9986 10.1158 21.45 8.2379 20.419 6.62276C19.388 5.00761 17.9178 3.72283 16.1824 2.92045C14.447 2.11807 12.5189 1.83167 10.6265 2.09517C8.73402 2.35866 6.95634 3.161 5.5038 4.40724C4.05127 5.65349 2.98469 7.29147 2.43028 9.12735C1.87587 10.9632 1.85683 12.9202 2.37543 14.7666C2.89402 16.613 3.92854 18.2716 5.35656 19.5461C6.78457 20.8206 8.54631 21.6576 10.4333 21.9582V14.9378H7.9333V12.0342H10.4333V9.8252C10.4333 7.31493 11.9333 5.91755 14.2166 5.91755C14.9649 5.92967 15.7114 5.99679 16.4499 6.11837V8.62864H15.1916C15.0033 8.60276 14.8117 8.61453 14.628 8.66326C14.4442 8.712 14.2718 8.79675 14.1208 8.91262C13.9698 9.02849 13.8431 9.17321 13.748 9.33844C13.6529 9.50367 13.5912 9.68616 13.5666 9.8754C13.5582 9.98122 13.5582 10.0876 13.5666 10.1934V12.0761H16.3333L15.8916 14.9796H13.5583V22C15.9193 21.626 18.0688 20.4153 19.6174 18.5871C21.1659 16.7589 22.0112 14.4342 21.9999 12.0342Z" fill="currentColor"/>
</svg>
