<svg width="24" height="24" viewBox="0 0 24 24" fill="currentColor" xmlns="http://www.w3.org/2000/svg">
  <path d="M4.61001 3L3.20001 4.41L7.56001 8.77L7.27001 9.07H3.27001V15.07H7.27001L12.27 20.07V13.48L16.45 17.66C15.8 18.15 15.07 18.54 14.27 18.77V20.83C15.61 20.53 16.84 19.91 17.88 19.08L19.93 21.13L21.34 19.72L4.61001 3ZM19.27 12.07C19.27 12.89 19.12 13.68 18.86 14.41L20.39 15.94C20.95 14.77 21.27 13.46 21.27 12.07C21.27 7.79 18.28 4.21 14.27 3.3V5.36C17.16 6.22 19.27 8.9 19.27 12.07ZM12.27 4.07L10.39 5.95L12.27 7.83V4.07ZM16.77 12.07C16.77 10.3 15.75 8.78 14.27 8.04V9.83L16.75 12.31C16.76 12.23 16.77 12.15 16.77 12.07Z" fill="currentColor"/>
</svg>
