<svg width="19" height="19" viewBox="0 0 19 19" fill="currentColor" xmlns="http://www.w3.org/2000/svg">
<path d="M1.61001 0L0.200012 1.41L4.56001 5.77L4.27001 6.07H0.270012V12.07H4.27001L9.27001 17.07V10.48L13.45 14.66C12.8 15.15 12.07 15.54 11.27 15.77V17.83C12.61 17.53 13.84 16.91 14.88 16.08L16.93 18.13L18.34 16.72L1.61001 0ZM16.27 9.07C16.27 9.89 16.12 10.68 15.86 11.41L17.39 12.94C17.95 11.77 18.27 10.46 18.27 9.07C18.27 4.79 15.28 1.21 11.27 0.3V2.36C14.16 3.22 16.27 5.9 16.27 9.07ZM9.27001 1.07L7.39001 2.95L9.27001 4.83V1.07ZM13.77 9.07C13.77 7.3 12.75 5.78 11.27 5.04V6.83L13.75 9.31C13.76 9.23 13.77 9.15 13.77 9.07Z" fill="currentColor"/>
</svg>
