<svg
  width="24"
  height="24"
  viewBox="0 0 24 24"
  fill="currentColor"
  xmlns="http://www.w3.org/2000/svg"
>
  <path
    d="M19.0794 7.12125C18.1627 6.92517 17.3327 6.44143 16.7102 5.74055C16.0878 5.03966 15.7055 4.15828 15.619 3.22489V2.82011H12.457V15.3692C12.455 15.9248 12.279 16.4658 11.9537 16.9162C11.6285 17.3665 11.1702 17.7037 10.6435 17.8802C10.1167 18.0568 9.54785 18.0638 9.01687 17.9004C8.48588 17.737 8.01945 17.4113 7.68312 16.9691C7.34156 16.5195 7.15209 15.9728 7.14218 15.4082C7.13228 14.8437 7.30245 14.2907 7.62801 13.8294C7.95358 13.3681 8.41763 13.0225 8.95285 12.8427C9.48808 12.6629 10.0667 12.6583 10.6047 12.8295V9.61693C9.4049 9.45107 8.18328 9.66438 7.11069 10.227C6.0381 10.7896 5.16819 11.6735 4.62265 12.7548C4.0771 13.8362 3.8832 15.0611 4.06807 16.2581C4.25294 17.4551 4.80734 18.5644 5.65371 19.4308C6.46084 20.2566 7.49577 20.8232 8.62637 21.0583C9.75697 21.2933 10.932 21.1861 12.0014 20.7503C13.0708 20.3146 13.9861 19.57 14.6304 18.6118C15.2748 17.6535 15.6189 16.5249 15.619 15.3701V8.9579C16.8969 9.87149 18.4291 10.3614 20 10.3586V7.21671C19.6906 7.21709 19.3821 7.18509 19.0794 7.12125Z"
  />
</svg>
