<svg
  fill="currentColor"
  height="18"
  viewBox="0 0 14 18"
  width="14"
  xmlns="http://www.w3.org/2000/svg"
>
  <path
    d="m13.1945 4.73109c-.8021-.17157-1.5284-.59484-2.0731-1.20811-.5446-.61328-.8791-1.38448-.9548-2.2012v-.354182h-2.76677v10.980502c-.00171.4861-.15569.9594-.44031 1.3535-.28461.3941-.68556.6891-1.14648.8436-.46093.1545-.95867.1606-1.42328.0176s-.87274-.428-1.16703-.8149c-.29886-.3934-.46465-.8717-.47332-1.3657s.14023-.9778.4251-1.3815c.28487-.4036.69091-.70601 1.15923-.86333.46833-.15732.97458-.16138 1.44537-.01158v-2.81098c-1.04982-.14512-2.11874.04152-3.05726.53382-.93852.49231-1.69968 1.26565-2.177035 2.21185-.477352.94622-.647012 2.01792-.4852503 3.06532.1617623 1.0474.6468563 2.018 1.3874253 2.7761.70625.7227 1.61181 1.2184 2.60108 1.4241.98928.2056 2.0174.1118 2.95313-.2694.93572-.3813 1.7366-1.0328 2.30041-1.8713s.86499-1.826.86499-2.8364v-5.61074c1.1182.79939 2.4589 1.22803 3.8334 1.22559v-2.74913c-.2707.00033-.5407-.02766-.8055-.08353z"
  />
</svg>
