<svg width="18" height="20" viewBox="0 0 18 20" fill="currentColor" xmlns="http://www.w3.org/2000/svg">
<path d="M16.9643 4.68539C15.9331 4.47179 14.9993 3.94484 14.299 3.18134C13.5987 2.41784 13.1686 1.45772 13.0714 0.440942V0H9.51407V13.6702C9.51187 14.2754 9.31389 14.8647 8.94796 15.3554C8.58202 15.846 8.06652 16.2133 7.4739 16.4056C6.88128 16.5979 6.24133 16.6055 5.64397 16.4275C5.04662 16.2495 4.52188 15.8947 4.14351 15.413C3.75926 14.9232 3.5461 14.3277 3.53496 13.7127C3.52381 13.0978 3.71525 12.4953 4.08152 11.9928C4.44778 11.4903 4.96983 11.1138 5.57196 10.918C6.17408 10.7221 6.82499 10.7171 7.43028 10.9036V7.40403C6.08052 7.22336 4.70619 7.45572 3.49952 8.06861C2.29286 8.68151 1.31421 9.64428 0.700476 10.8223C0.0867382 12.0003 -0.131397 13.3345 0.0765832 14.6385C0.284563 15.9424 0.908255 17.1508 1.86042 18.0946C2.76845 18.9943 3.93274 19.6115 5.20467 19.8675C6.47659 20.1235 7.79846 20.0068 9.00154 19.5321C10.2046 19.0574 11.2343 18.2463 11.9592 17.2024C12.6841 16.1585 13.0713 14.9292 13.0714 13.6712V6.68613C14.509 7.68133 16.2328 8.21497 18 8.21193V4.78937C17.652 4.78979 17.3048 4.75494 16.9643 4.68539Z" fill="currentColor"/>
</svg>
