<svg width="20" height="20" viewBox="0 0 20 20" fill="currentColor" xmlns="http://www.w3.org/2000/svg">
<path d="M11 9.48539V3.33334H9V10.5146L13.3077 13.5915L14.4701 11.9641L11 9.48539Z" fill="currentColor"/>
<path fill-rule="evenodd" clip-rule="evenodd" d="M20 10C20 15.5229 15.5228 20 10 20C4.47715 20 0 15.5229 0 10C0 4.47717 4.47715 1.52588e-05 10 1.52588e-05C15.5228 1.52588e-05 20 4.47717 20 10ZM18 10C18 14.4183 14.4183 18 10 18C5.58172 18 2 14.4183 2 10C2 5.58174 5.58172 2.00002 10 2.00002C14.4183 2.00002 18 5.58174 18 10Z" fill="currentColor"/>
</svg>
