<svg width="16" height="14" viewBox="0 0 16 14" fill="none" xmlns="http://www.w3.org/2000/svg">
<path d="M16 2.06654C15.4109 2.34447 14.7804 2.5246 14.1333 2.59987C14.8103 2.18143 15.3269 1.54744 15.6 0.799871C14.9662 1.19144 14.2656 1.46265 13.5333 1.59987C13.2304 1.26374 12.8602 0.995069 12.4468 0.811305C12.0333 0.62754 11.5858 0.532789 11.1333 0.533204C10.2675 0.534966 9.43763 0.879698 8.8254 1.49193C8.21316 2.10417 7.86843 2.93404 7.86667 3.79987C7.85257 4.04627 7.87504 4.29339 7.93333 4.53321C6.61791 4.47523 5.33022 4.13577 4.15716 3.53774C2.98411 2.93971 1.95297 2.09702 1.13333 1.06654C0.817783 1.56434 0.655503 2.14392 0.666667 2.7332C0.671269 3.27357 0.807176 3.80471 1.06268 4.28087C1.31818 4.75704 1.68562 5.16394 2.13333 5.46654C1.61599 5.47834 1.10639 5.33935 0.666667 5.06654V5.1332C0.659852 5.88583 0.915814 6.61725 1.39043 7.2014C1.86505 7.78554 2.52859 8.18581 3.26667 8.3332C2.98479 8.41509 2.69345 8.45991 2.4 8.46654C2.1977 8.47738 1.99499 8.45486 1.8 8.39987C1.99454 9.06013 2.39935 9.6388 2.95288 10.0479C3.50641 10.4571 4.17839 10.6743 4.86667 10.6665C3.703 11.5697 2.273 12.062 0.8 12.0665C0.531602 12.0775 0.262882 12.0551 0 11.9999C1.49363 12.9535 3.22789 13.4622 5 13.4665C6.22889 13.4781 7.44776 13.2446 8.58536 12.7797C9.72296 12.3147 10.7565 11.6277 11.6255 10.7587C12.4945 9.88967 13.1815 8.85616 13.6465 7.71856C14.1114 6.58096 14.3449 5.3621 14.3333 4.1332V3.7332C14.9691 3.26412 15.5309 2.70231 16 2.06654Z" fill="currentColor"/>
</svg>
