<svg width="17" height="16" viewBox="0 0 17 16" fill="none" xmlns="http://www.w3.org/2000/svg">
<path d="M16.7971 13.0299L10.4771 1.37994C10.3261 1.08852 10.0885 0.850986 9.7971 0.699942C9.40417 0.489826 8.94416 0.443391 8.51716 0.570741C8.09017 0.69809 7.73075 0.988918 7.5171 1.37994L1.1971 13.0299C0.987446 13.4214 0.941284 13.8799 1.06871 14.3053C1.19613 14.7306 1.48677 15.0882 1.8771 15.2999C2.12717 15.4306 2.40498 15.4992 2.6871 15.4999H15.3071C15.5862 15.5004 15.861 15.4316 16.1071 15.2999C16.3017 15.1978 16.4743 15.0582 16.6149 14.8893C16.7555 14.7203 16.8613 14.5252 16.9263 14.3153C16.9914 14.1053 17.0143 13.8846 16.9939 13.6657C16.9734 13.4469 16.9099 13.2342 16.8071 13.0399L16.7971 13.0299ZM8.9971 13.4999C8.79932 13.4999 8.60598 13.4413 8.44153 13.3314C8.27708 13.2215 8.14891 13.0654 8.07322 12.8826C7.99754 12.6999 7.97773 12.4988 8.01632 12.3049C8.0549 12.1109 8.15014 11.9327 8.29 11.7928C8.42985 11.653 8.60803 11.5577 8.80201 11.5192C8.99599 11.4806 9.19706 11.5004 9.37979 11.5761C9.56251 11.6517 9.71869 11.7799 9.82857 11.9444C9.93845 12.1088 9.9971 12.3022 9.9971 12.4999C9.9971 12.7652 9.89175 13.0195 9.70421 13.207C9.51667 13.3946 9.26232 13.4999 8.9971 13.4999ZM9.9971 9.99994C9.9971 10.1326 9.94442 10.2597 9.85066 10.3535C9.75689 10.4473 9.62971 10.4999 9.4971 10.4999H8.4971C8.36449 10.4999 8.23732 10.4473 8.14355 10.3535C8.04978 10.2597 7.9971 10.1326 7.9971 9.99994V5.99994C7.9971 5.86733 8.04978 5.74016 8.14355 5.64639C8.23732 5.55262 8.36449 5.49994 8.4971 5.49994H9.4971C9.62971 5.49994 9.75689 5.55262 9.85066 5.64639C9.94442 5.74016 9.9971 5.86733 9.9971 5.99994V9.99994Z" fill="currentColor"/>
</svg>
