<svg width="20" height="14" viewBox="0 0 20 14" fill="currentColor" xmlns="http://www.w3.org/2000/svg">
<path d="M19.75 3.26667C19.5 1.75 18.75 0.7 17 0.466667C14.25 1.04308e-07 10 0 10 0C10 0 5.75 1.04308e-07 3 0.466667C1.25 0.7 0.375 1.75 0.25 3.26667C0 4.78333 0 7 0 7C0 7 0 9.21667 0.25 10.7333C0.5 12.25 1.25 13.3 3 13.5333C5.75 14 10 14 10 14C10 14 14.25 14 17 13.5333C18.75 13.1833 19.5 12.25 19.75 10.7333C20 9.21667 20 7 20 7C20 7 20 4.78333 19.75 3.26667ZM7.5 10.5V3.5L13.75 7L7.5 10.5Z" fill="currentColor"/>
</svg>
