<svg
  width="20"
  height="14"
  viewBox="0 0 20 14"
  fill="currentColor"
  xmlns="http://www.w3.org/2000/svg"
>
  <path
    d="M5 3.5H0V1.5H5V3.5ZM5 6.5H0V8.5H5V6.5ZM18.59 13.5L14.76 9.67C13.96 10.19 13.02 10.5 12 10.5C9.24 10.5 7 8.26 7 5.5C7 2.74 9.24 0.5 12 0.5C14.76 0.5 17 2.74 17 5.5C17 6.52 16.69 7.46 16.17 8.25L20 12.09L18.59 13.5ZM15 5.5C15 3.85 13.65 2.5 12 2.5C10.35 2.5 9 3.85 9 5.5C9 7.15 10.35 8.5 12 8.5C13.65 8.5 15 7.15 15 5.5ZM0 13.5H10V11.5H0V13.5Z"
    fill="currentColor"
  />
</svg>
