<svg height="2953pt" preserveAspectRatio="xMidYMid meet" viewBox="0 0 2953 2953" width="2953pt" xmlns="http://www.w3.org/2000/svg"><g transform="matrix(.1 0 0 -.1 0 2953)"><path d="m4175 20075c-11-8-56-26-99-40-65-22-110-28-240-36-196-11-322-31-440-70-227-75-376-198-500-410-26-46-69-120-95-163-25-44-68-101-94-128-58-58-43-77 25-30 79 54 202 109 328 147 365 109 589 228 790 420 190 182 239 224 305 262 35 21 65 44 65 51 0 16-20 15-45-3z"/><path d="m8450 20078c0-7 22-25 49-41 71-39 127-86 287-238 77-74 179-160 225-191 153-102 351-189 599-263 126-38 249-93 328-147 68-47 83-28 25 30-26 27-69 84-94 128-26 43-69 117-95 163-124 212-273 335-500 410-118 39-244 59-440 70-130 8-175 14-239 36-43 14-87 32-99 40-25 18-46 19-46 3z"/><path d="m2717 19796c-395-254-656-504-781-746-75-145-103-253-131-505-27-235-71-375-150-480-21-27-23-34-11-38 10-4 35 13 68 45 123 120 236 185 422 243 215 67 393 150 576 271 148 97 251 186 414 354 83 85 188 191 233 236 46 45 80 83 78 86-3 3-40-12-83-33-51-26-117-48-192-64-240-52-338-78-420-112-170-70-328-178-507-348-51-48-93-83-93-78s28 45 62 88c162 210 306 463 478 839 59 129 114 222 162 273 26 27 31 54 10 53-4-1-65-38-135-84z"/><path d="m9805 19870c-4-6 11-30 32-54 56-65 92-129 197-353 161-347 272-537 435-748 33-43 61-83 61-88s-40 29-90 76c-175 167-334 277-502 347-90 37-183 62-428 115-75 16-141 38-192 64-43 21-80 36-82 33-3-3 34-44 82-91s152-152 230-233c313-322 598-502 988-623 185-58 293-120 423-243 66-63 95-60 50 4-79 115-119 238-139 434-27 261-61 394-136 540-125 243-396 502-783 748-71 45-132 82-135 82s-8-5-11-10z"/><path d="m5465 19638c-146-34-260-66-275-76-73-54-85-119-50-264 11-46 20-98 20-116 0-39-28-98-62-129-13-12-106-56-208-98-210-87-250-93-321-54-33 19-56 46-105 123-67 108-94 134-154 147-57 13-96-3-274-115-174-108-198-135-199-216-1-39 7-61 43-121 86-147 92-160 88-216-3-28-12-63-21-77-26-39-307-286-344-302-47-20-122-18-160 6-18 11-67 48-109 82l-77 63h-71c-54 0-77-4-96-19-40-30-250-293-267-333-17-43-11-105 15-144 9-15 56-58 103-97 95-78 119-116 119-187 0-42-11-67-82-189-120-208-122-211-170-235-62-29-93-27-214 19-122 46-151 48-210 19-55-26-70-51-143-244-101-265-87-313 117-391 111-43 163-86 182-151 12-38 9-61-24-230-46-234-49-242-90-282-51-49-94-60-221-54-102 5-113 3-154-19-78-42-87-73-96-306-7-189-6-200 14-239 35-69 75-86 221-94 154-7 198-27 240-108 13-26 60-350 60-418 0-105-46-151-196-198-61-19-123-45-139-57-30-23-64-90-65-125 0-18 146-513 154-521 3-2 879 268 882 271 1 1-19 56-43 122-148 397-217 787-217 1225 0 324 25 544 99 846 299 1219 1238 2197 2445 2548 134 39 368 90 463 101 53 7 58 9 53 29-3 11-48 212-101 446s-100 428-103 431c-4 3-119-21-257-53z"/><path d="m6956 19681c-12-39-196-861-196-873 0-10 24-18 83-27 142-21 386-81 552-136 413-137 772-332 1125-613 128-102 406-381 514-517 416-521 671-1122 763-1795 25-187 25-666 0-855-37-278-100-536-192-789-25-70-44-130-41-133 8-9 870-273 874-268 12 11 152 484 152 512 0 45-16 83-51 119-24 25-56 39-142 65-88 27-119 41-148 69-63 60-66 89-35 321s43 264 112 305c41 24 59 28 175 33 141 7 162 15 207 81 20 31 22 43 22 184-1 210-11 288-44 330-41 54-97 70-214 63-113-8-159 2-206 43-45 40-50 54-95 281-44 220-44 247 10 312 23 28 52 44 137 77 151 58 203 116 188 209-8 52-132 370-153 394-23 26-91 57-125 57-15 0-76-18-134-40-59-22-122-40-141-40-45 0-92 21-124 56-23 26-130 205-186 313-49 95-21 165 108 270 50 40 93 85 103 105 19 40 20 100 3 138-20 44-248 318-278 334-34 17-122 18-152 2-12-6-55-38-94-70-40-32-85-66-100-73-36-19-120-19-156 0-44 23-326 274-341 304-40 77-31 124 49 256 61 100 75 151 56 207-16 49-46 74-223 183-143 88-163 97-206 97-83 0-118-27-192-147-59-97-86-123-145-140-63-18-76-15-290 73-191 78-233 108-254 183-11 40-9 57 14 159 15 66 24 129 21 148-7 46-43 100-79 118-17 9-134 41-261 70-127 30-239 56-248 58-10 2-19-3-22-13z"/><path d="m1552 18897c-438-472-625-810-657-1187-9-102 7-237 57-475 36-174 42-217 42-330 0-90-5-148-16-187-11-41-13-60-5-65 6-3 12-2 14 4 9 26 76 129 114 174 61 73 184 161 330 235 315 160 488 346 769 824 91 156 143 233 193 287 53 58 38 74-21 22-72-63-145-101-344-181-101-40-218-94-261-120-182-109-315-250-433-458-57-101-53-95-59-88-3 3 13 51 35 106 81 205 123 385 180 775 45 314 61 398 97 512 27 85 78 200 112 251 18 26 19 33 8 43-11 8-43-21-155-142z"/><path d="m10963 19038c-10-11-7-22 14-54 86-125 146-342 198-709 58-413 102-607 184-814 23-57 39-106 35-110-4-3-9-1-11 5s-30 56-63 110c-161 272-335 417-646 538-193 76-306 134-371 191-63 55-81 42-26-18 52-56 96-123 239-360 252-421 423-599 723-751 212-108 354-231 421-366 27-54 26-53 38-46 6 4 4 28-6 64-11 38-16 99-16 187 0 114 6 155 42 330 67 320 74 444 36 633-42 209-168 459-354 702-69 90-216 259-337 389-74 78-91 91-100 79z"/><path d="m17133 18859-163-78v-210-211h-105-105v-145-145h104 105l3-457c3-455 3-458 27-517 30-75 78-128 144-157 46-21 67-24 177-24 104 0 137 4 198 24 52 17 76 30 82 45 11 25 44 276 37 282-2 2-30-8-62-22-83-38-189-45-227-15-15 12-32 39-38 59-6 22-10 185-10 410v372h165 165v145 145h-165-165l-2 289-3 288z"/><path d="m23393 18860-163-79v-210-211h-105-105v-145-145h104 105l3-452c4-394 6-460 21-505 25-75 73-133 140-167 48-25 71-30 154-33 106-5 210 11 279 44l39 18 19 143c10 78 17 145 14 147-3 3-31-7-63-21-40-19-82-29-131-32-71-4-74-4-103 26l-31 30v401 401h160 160v145 145h-160-160v290c0 160-3 290-7 289-5 0-81-36-170-79z"/><path d="m29213 18863-163-76v-924-923h165 165v1000c0 550-1 1000-2 999-2 0-76-34-165-76z"/><path d="m24161 18908c-110-54-137-211-53-302 98-104 264-79 323 49 35 75 16 168-47 227-57 53-147 64-223 26z"/><path d="m14770 17910v-970h170 170l-2 968-3 967-167 3-168 2z"/><path d="m15992 18379c-60-11-138-49-192-92l-45-37-3 55-3 55h-169-170v-710-710h170 169l3 473 3 472 29 58c46 94 122 132 258 129 103-2 169-45 210-136 23-51 23-54 26-523l3-473h164 165v501c0 544-3 581-58 699-32 68-121 159-190 194-99 50-251 69-370 45z"/><path d="m18250 18375c-223-50-396-225-462-470-18-68-22-107-22-255 0-149 4-187 22-255 36-133 85-220 172-307 89-89 178-138 300-164 92-20 277-14 360 11 87 27 182 81 244 140l57 55-102 109-103 110-47-44c-57-53-107-79-183-95-69-14-142-7-203 20-92 40-171 145-188 248l-7 42h466 465l7 46c10 72-3 332-20 394-55 195-184 332-373 396-98 33-279 42-383 19zm238-288c99-26 165-92 196-197 29-99 58-90-289-90h-306l7 38c32 187 205 297 392 249z"/><path d="m19753 18376c-59-19-107-51-142-94l-30-37-1 58v57h-170-170v-710-710h170 169l3 468c3 514 2 500 67 574 17 20 52 46 78 58 41 19 60 22 134 18 72-3 98-9 150-35 35-18 65-31 66-29 1 1 13 68 26 150l24 148-32 23c-60 46-124 68-215 71-54 3-100-1-127-10z"/><path d="m20838 18374c-76-18-130-46-184-96l-44-41v62 61h-165-165v-710-710h165 165v453c0 525 1 530 79 608 53 54 103 72 201 71 83 0 141-24 184-74 63-73 66-101 66-606v-452h171 171l-4 508c-4 481-6 511-26 585-12 43-34 101-48 128-34 62-115 139-182 173-106 54-262 70-384 40z"/><path d="m22148 18379c-99-14-180-39-276-84-51-24-95-51-98-59-5-14 64-221 85-255 5-8 33 1 94 33 111 56 206 80 327 80 189 1 260-59 276-237l7-76-59 24c-113 45-303 59-437 30-155-33-301-135-352-247-54-119-54-297 0-416 73-159 224-249 435-259 158-8 284 29 375 108l35 31v-56-56h161 160l-4 533c-4 569-4 572-57 681-75 155-253 238-508 235-59-1-133-5-164-10zm305-834c113-29 107-23 107-123v-89l-38-30c-126-101-301-129-427-67-67 32-88 64-93 139-5 74 20 117 88 152 85 43 238 51 363 18z"/><path d="m25135 18375c-131-29-219-79-312-178-111-119-168-275-180-487-20-389 132-665 424-767 71-25 90-27 223-27 130 0 153 3 226 27 197 65 334 221 396 449 20 72 23 107 22 258 0 147-4 188-22 255-53 193-165 341-316 415-45 22-112 47-151 55-85 18-229 18-310 0zm253-317c57-14 134-84 167-151 67-138 72-358 11-493-30-65-88-129-140-156-50-26-163-35-223-19-52 14-119 64-155 116-86 124-100 377-29 530 74 161 195 217 369 173z"/><path d="m26728 18374c-76-18-130-46-184-96l-44-41v62 61h-170-170v-710-710h170 170v453c0 525 1 530 79 608 53 54 103 72 202 71 111 0 178-41 221-136 23-51 23-53 26-523l3-473h170 171l-4 508c-4 480-6 511-26 585-12 43-34 101-48 128-34 62-115 139-182 173-106 54-262 70-384 40z"/><path d="m28038 18379c-100-14-181-39-273-84-49-24-95-47-102-52-9-7 0-41 37-137 27-71 51-130 53-132 2-3 43 16 90 40 109 55 206 80 322 80 107 1 163-14 209-55 44-38 62-85 71-181l7-78-46 21c-107 47-314 63-451 34-154-32-298-135-350-248-37-80-51-190-37-284 37-239 203-377 472-390 158-8 284 28 375 108l35 31v-56-56h161 160l-3 533c-4 587-3 572-71 700-75 143-249 219-495 216-59-1-133-5-164-10zm228-820c43-6 101-20 131-30l53-20v-88-87l-47-36c-106-79-218-110-333-90-123 22-180 79-180 180 0 89 68 151 190 171 78 12 99 12 186 0z"/><path d="m24090 17650v-710h165 165v710 710h-165-165z"/><path d="m4980 17681v-119l153-4c145-3 154-4 200-31 30-18 54-42 67-67 20-39 20-60 20-2045s0-2006-20-2045c-13-25-37-49-67-67-46-27-55-28-200-31l-153-4v-119-118l1563-3c859-2 1565 1 1568 5 10 14 199 710 199 733 0 17-8 23-37 29-21 3-48 9-60 12-18 4-26-5-52-59-76-160-195-304-290-352-115-59-161-65-796-97-678-35-868-35-930-2-51 26-73 52-91 100-20 57-20 3979 0 4036 18 48 40 74 91 100 35 19 60 22 193 25l152 4v119 119h-755-755z"/><path d="m632 17542c-291-615-408-1074-361-1419 21-161 70-305 189-558 124-264 187-443 230-657 7-38 16-58 26-58 11 0 14 18 14 83 0 144 50 303 137 434 21 32 106 129 190 215 222 229 342 398 438 616 45 102 90 237 175 517 30 102 73 215 105 282 30 62 55 115 55 118s-6 5-13 5c-8 0-29-21-47-47-51-71-137-159-315-321-309-280-425-403-520-550-71-110-125-253-125-331 0-23-3-32-10-25-6 6-5 56 1 139 18 223-4 421-95 865-76 372-81 534-21 709 30 88 28 78 11 84-9 4-29-27-64-101z"/><path d="m11973 17642c-10-6-7-25 12-80 62-184 56-327-30-757-83-416-104-614-86-830 7-77 7-123 1-129-7-7-10 2-10 23 0 82-52 219-127 335-93 145-224 283-518 548-164 147-262 248-315 321-28 40-60 62-60 41 0-3 22-51 50-106 27-55 70-164 95-244 25-79 66-210 91-291 120-386 241-585 549-903 149-153 201-222 251-335 38-87 64-209 64-302 0-67 3-83 15-83 8 0 17 10 19 23 42 210 93 374 170 545 24 53 73 163 110 244 123 274 151 388 151 623 0 276-54 502-217 910-102 258-199 458-215 447z"/><path d="m7620 17300c-292-62-543-226-734-480-86-115-173-280-214-410-110-347-121-1046-22-1437 121-478 513-892 950-1002 478-121 990 132 1287 637 159 269 215 538 216 1032 1 552-64 831-261 1126-192 285-488 485-800 539-116 21-315 18-422-5zm415-216c202-48 378-211 440-406 50-159 75-501 75-1038 0-546-25-889-75-1047-56-178-201-325-387-391-58-20-97-26-193-30-213-7-351 44-491 183-151 149-190 281-214 725-13 232-13 888 0 1120 22 389 55 527 161 666 69 90 207 183 319 215 101 28 254 29 365 3z"/><path d="m3790 17141v-99l123-4c129-4 161-14 204-60 12-12 26-36 32-51 8-20 11-423 11-1299 0-1251 0-1272-20-1313-34-70-81-89-227-93l-123-4v-99-99h630 630v99 99l-122 4c-141 4-187 20-225 77l-23 34v1297 1297l23 34c38 57 84 73 225 77l123 4-3 97-3 96-627 3-628 2z"/><path d="m17798 16117-157-72-1-927v-928h165 165v45 45l51-40c123-97 339-107 517-23 79 37 198 158 239 243 119 246 118 633-2 868-108 214-299 325-528 309-102-7-157-26-224-77l-53-40v335c0 184-3 335-7 334-5 0-79-33-165-72zm548-812c83-34 151-131 174-251 16-82 8-293-14-361-24-74-74-143-129-177-41-25-61-30-130-34-100-5-177 20-238 77l-39 38v301 300l24 29c71 85 242 122 352 78z"/><path d="m14757 16123c-4-3-7-440-7-970v-963h640 640v165 165h-470-470v805 805h-163c-90 0-167-3-170-7z"/><path d="m1497 15796c-35-80-133-231-267-411-56-76-129-178-162-228-184-272-264-541-256-858 1-76 0-139-3-139s-16 36-27 81c-46 172-114 311-313 641-264 437-341 625-364 891-4 37-10 67-14 67-9 0-46-235-68-425-22-196-22-572 0-732 52-377 180-655 414-903 37-40 142-137 233-215 197-169 274-250 331-345 52-88 69-81 39 16-28 88-37 251-21 365 26 182 74 322 201 589 187 393 259 709 290 1290 10 189 18 262 36 348 12 57-19 37-49-32z"/><path d="m11124 15828c19-87 26-158 36-338 32-599 100-898 295-1310 100-212 134-301 171-445 25-97 29-128 29-265 0-134-3-165-23-228-23-74-22-103 4-81 8 6 14 16 14 21 0 18 73 122 123 176 29 30 131 123 227 207 249 216 355 335 455 511 195 342 257 840 179 1444-26 199-46 320-54 320-5 0-11-35-15-77-22-254-103-448-365-883-195-323-291-527-325-692-13-64-20-19-17 111 5 167-16 322-60 459-62 195-134 323-342 605-163 222-246 350-283 434-30 68-61 88-49 31z"/><path d="m16650 15634c-130-17-382-111-396-149-6-15 85-265 97-265 3 0 31 15 62 33 144 87 378 120 497 71 82-35 118-95 127-217l6-77-47 20c-150 67-407 66-564-1-185-80-274-216-273-419 0-152 37-248 127-335 178-169 539-182 719-24l35 31v-56-56h161 160l-3 538c-3 515-4 540-25 599-52 155-138 237-303 288-55 17-299 29-380 19zm283-839c113-29 107-23 107-124v-89l-39-31c-153-121-391-132-484-22-33 40-41 69-35 126 10 82 74 134 191 154 63 12 189 5 260-14z"/><path d="m19517 15625c-255-53-432-259-478-556-15-99-6-344 16-429 58-223 214-394 415-455 83-25 268-31 360-11 154 33 291 125 377 254 113 171 152 489 88 737-55 215-216 389-415 450-76 23-275 29-363 10zm290-331c122-58 183-189 183-394 0-280-121-432-334-418-118 8-194 61-247 173-35 74-49 144-49 249 0 143 36 249 111 331 86 93 216 115 336 59z"/><path d="m22533 15626c-62-20-112-54-144-99l-29-40v61 62h-170-170v-710-710h170 170v442c0 516 2 531 80 609 56 56 111 73 214 67 54-4 91-13 139-36l65-30 12 66c6 37 17 104 24 150l13 83-31 24c-61 46-125 68-216 71-54 3-100-1-127-10z"/><path d="m20530 15188c0-433 9-606 35-691 65-214 240-337 478-337 127 0 232 38 313 112l44 41v-62-61h170 170v710 710h-170-170v-453c0-500-2-519-61-590-52-64-99-82-210-82-89 0-99 2-145 30-37 24-56 44-79 90l-30 59-3 473-3 473h-169-170z"/><path d="m1500 14296c0-3-5-40-11-83-15-110-41-209-114-433-122-374-148-502-149-710 0-146 8-203 46-335 21-74 88-221 133-292 46-74 10-46-57 45-156 209-315 361-574 546-354 254-451 369-569 676-20 51-40 86-49 88-22 5-21-2 19-205 158-794 404-1274 779-1518 119-78 202-113 455-195 285-92 344-121 444-222 43-43 80-78 82-78 14 0 0 26-44 87-128 176-201 388-217 626-6 92-2 137 36 380 10 71 24 204 31 296 21 306-11 539-121 885-63 200-90 317-90 397 0 37-4 49-15 49-8 0-15-2-15-4z"/><path d="m11140 14251c0-77-26-196-81-368-109-343-132-473-132-753 0-205 10-327 45-525 25-142 29-343 9-455-30-171-102-344-198-477-48-67-61-93-48-93 2 0 39 35 82 78 100 101 159 130 444 222 253 82 336 117 455 195 375 244 621 724 779 1518 40 203 41 210 19 205-10-2-29-36-48-88-109-287-231-435-541-655-286-204-437-346-603-568-70-93-95-104-42-19 118 191 182 448 166 667-12 180-42 306-145 625-80 248-105 344-120 453-6 43-11 80-11 83 0 2-7 4-15 4-11 0-15-12-15-49z"/><path d="m25553 13360-163-79v-210-211h-105-105v-145-145h104 105l3-452c4-394 6-460 21-505 25-75 73-133 140-167 48-25 71-30 154-33 106-5 216 12 282 44l36 18 19 143c10 78 17 145 14 147-3 3-31-7-63-21-40-19-82-29-131-32-71-4-74-4-103 26l-31 30v401 401h160 160v145 145h-160-160v290c0 160-3 290-7 289-5 0-81-36-170-79z"/><path d="m22085 13417c-44-20-92-71-105-113-20-59-8-138 26-182 60-75 157-101 239-63 139 63 154 254 27 342-42 28-140 37-187 16z"/><path d="m26321 13408c-110-54-137-211-53-302 35-37 97-66 145-66 172-1 262 213 140 332-21 20-51 42-66 47-46 18-118 13-166-11z"/><path d="m15372 13399c-355-63-594-329-668-742-22-123-22-371 0-494 65-360 258-614 537-707 112-37 207-49 344-43 185 9 327 58 461 159 126 95 239 286 296 503 31 117 32 125 32 335s-1 218-32 335c-37 139-117 309-187 397-86 107-235 200-384 240-88 23-313 33-399 17zm299-335c166-49 274-186 335-424 29-114 27-354-4-470-53-197-144-325-279-391-66-33-71-34-193-34s-127 1-193 33c-96 47-158 113-211 225-70 145-81 202-81 412 0 158 3 190 23 260 58 201 179 341 337 391 57 18 201 17 266-2z"/><path d="m9065 13132c-173-212-440-458-691-638-294-210-720-413-1071-510-343-94-602-128-963-128-351 1-577 29-885 109-714 186-1359 594-1822 1152-48 56-90 103-95 103-12 0-668-610-668-621 0-17 339-373 373-391 35-20 102-23 142-8 14 5 62 44 105 85 86 82 128 105 188 105 53 0 87-20 261-155 121-93 158-128 172-159 32-71 25-111-37-231-61-117-71-173-41-231 23-44 38-55 215-149 170-91 216-105 275-86 48 16 82 57 141 169 40 76 57 98 90 117 76 43 87 42 306-30 297-98 318-122 286-336-20-142-14-182 39-228 43-37 68-44 274-77 179-28 215-27 261 13 44 37 59 72 76 176 19 120 29 148 62 180 52 50 86 57 279 57 196 0 232-6 276-47 44-42 55-71 73-188 20-126 39-160 108-194l49-25 201 32c219 35 248 46 285 113 25 44 26 64 5 201-16 101-16 111 0 152 30 77 63 97 287 171 194 64 204 66 248 55 68-17 101-48 150-141 24-46 54-98 67-116 29-39 100-68 149-60 44 7 336 159 381 199 33 29 54 79 54 128 0 14-27 79-60 143-68 133-72 160-35 233 26 50 28 52 264 231 150 113 209 112 339-9 42-39 90-79 107-89 37-23 115-25 154-4 27 13 376 380 376 394 0 3-128 125-285 270s-308 286-335 313l-50 48z"/><path d="m1924 12893c21-105 28-195 36-473 5-173 14-350 20-394 44-308 172-548 458-863 51-57 89-103 83-103-5 0-56 33-113 74-260 186-460 276-880 396-114 33-244 73-288 91-104 40-217 116-277 185-74 86-75 51-3-67 273-442 630-830 965-1052 175-116 426-224 627-271 320-74 708-64 1118 29 124 28 392 103 402 113 4 4 4 12 0 18-5 8-39 5-117-9-154-29-489-31-585-4-116 33-208 85-287 163-60 60-81 90-127 185-55 112-65 144-137 444-40 166-95 318-173 475-104 209-178 318-497 730-96 124-163 235-186 308-18 55-49 76-39 25z"/><path d="m10711 12878c-31-103-87-188-349-525-154-198-245-340-337-528-100-204-140-318-199-571-66-284-127-418-245-534-76-75-154-119-266-152-73-21-99-23-285-22-160 0-229 5-315 21-78 14-112 17-117 9-4-6-4-14 0-18 9-9 271-83 403-113 401-93 797-103 1117-29 201 47 452 155 627 271 273 180 558 467 794 798 129 181 236 354 225 365-7 7-27-9-57-44-60-70-174-146-279-186-45-18-175-58-288-90-415-119-619-210-878-396-57-41-108-74-113-74-6 0 32 46 83 103 218 238 332 417 403 630 53 162 65 263 75 621 8 284 15 374 36 479 9 46-21 33-35-15z"/><path d="m17146 12874c-35-11-66-32-108-74l-58-58v59 59h-165-165v-710-710h164 165l3 458c3 406 5 462 21 501 27 68 61 107 122 136 50 25 63 27 143 23 73-3 97-9 150-35 43-22 64-28 67-20 2 7 13 75 25 151 25 162 32 146-80 199-54 26-79 32-150 34-57 2-101-2-134-13z"/><path d="m18048 12875c-212-54-368-233-424-490-23-107-24-369-1-471 37-164 96-274 196-366 176-163 469-186 650-50l34 25-5-75c-10-161-105-235-341-269-45-6-101-14-125-18l-42-6 81-125c44-69 84-129 88-133 5-4 54-1 110 7 310 47 456 154 530 389l26 82 3 743 3 742h-166-165v-35c0-19-3-35-6-35s-21 12-39 26c-62 47-131 67-245 70-69 2-125-1-162-11zm322-327c25-10 64-38 88-61l42-41v-296-296l-43-42c-56-55-127-82-215-82-212 0-336 209-302 509 12 111 39 184 86 240 80 93 221 122 344 69z"/><path d="m19516 12879c-103-15-207-48-298-96-69-35-88-49-83-62 4-9 25-65 47-126 23-60 44-114 48-118s40 10 81 32c105 56 212 84 329 85 52 0 115-6 140-13 56-16 114-73 129-126 11-41 15-165 6-165-3 0-21 7-41 15-105 44-308 58-439 30-91-19-200-73-264-131-100-90-147-243-123-404 21-149 102-265 232-330 189-95 466-75 609 45l31 27v-51-51h166 165l-3 528c-5 581-5 581-70 704-76 143-251 220-495 217-59-1-135-5-167-10zm310-835c96-25 94-23 94-123v-89l-37-32c-139-123-409-129-489-11-33 49-34 133-1 182 26 39 94 77 164 89 61 11 196 3 269-16z"/><path d="m21083 12875c-69-19-118-44-181-95l-52-40v60 60h-165-165v-710-710h164 165l4 458c2 310 7 468 15 492 41 123 124 182 262 182 102 1 160-26 206-94 50-74 54-119 54-600v-438h165 165v498c0 553-3 583-64 707-78 158-238 246-443 244-43 0-102-7-130-14z"/><path d="m24308 12879c-99-14-180-39-276-84-51-24-95-51-98-60-5-13 82-265 91-265 1 0 41 20 88 44 111 56 206 80 327 80 189 1 260-59 276-237l7-76-59 24c-113 45-303 59-437 30-155-33-301-135-352-247-54-119-54-297 0-416 73-159 224-249 435-259 158-8 284 29 375 108l35 31v-56-56h161 160l-4 533c-4 569-4 572-57 681-75 155-253 238-508 235-59-1-133-5-164-10zm305-834c113-29 107-23 107-123v-89l-38-30c-126-101-301-129-427-67-67 32-88 64-93 139-5 74 20 117 88 152 85 43 238 51 363 18z"/><path d="m27290 12874c-112-24-217-83-298-168-119-125-177-278-189-496-20-389 132-665 424-767 71-25 90-27 223-27 130 0 153 3 226 27 195 65 335 223 396 446 18 64 21 105 21 256 1 154-2 191-21 260-53 194-165 341-316 415-45 22-112 47-151 55-87 18-229 18-315-1zm258-316c57-14 134-84 167-151 67-138 72-358 11-493-30-65-88-129-140-156-50-26-163-35-223-19-53 14-119 64-155 116-86 127-100 376-29 530 74 161 195 217 369 173z"/><path d="m28888 12874c-76-18-130-46-184-96l-44-41v62 61h-170-170v-710-710h170 170v453c0 525 1 530 79 608 53 54 103 72 202 71 111 0 178-41 221-136 23-51 23-53 26-523l3-473h170 171l-4 508c-4 480-6 511-26 585-12 43-34 101-48 128-34 62-115 139-182 173-106 54-262 70-384 40z"/><path d="m22000 12150v-710h165 165v710 710h-165-165z"/><path d="m22580 12710v-150l336-2 337-3-362-422-361-422v-135-136h570 570v150 150l-359 2-359 3 358 425 359 425 1 133v132h-545-545z"/><path d="m26250 12150v-710h165 165v710 710h-165-165z"/><path d="m5440 10554c-357-23-622-74-1195-231-701-191-931-232-1244-220-239 9-402 49-610 148-57 27-106 47-109 44-17-17 213-209 384-321 271-179 568-297 879-351 125-21 471-24 590-5 339 56 562 162 934 445 377 286 562 366 850 367 84 0 284-25 309-39 9-5-13-19-65-40-192-80-448-236-643-391-110-88-328-296-412-392l-49-57 68-20c37-11 91-26 119-34l51-15 38 65c106 181 334 443 500 575 172 137 421 272 501 273 62 0 301-123 439-227 198-148 409-379 547-600l54-85 112 32c62 18 116 35 119 38 10 11-351 364-457 448-198 156-455 311-653 395l-68 29 40 12c136 39 391 41 535 4 173-45 304-118 564-314 413-311 620-412 967-469 119-19 465-16 590 5 311 54 608 172 879 351 174 114 401 304 384 321-3 4-47-14-97-40-193-96-382-143-622-152-308-12-545 30-1193 207-689 188-987 242-1356 243-245 0-428-26-670-98l-115-34-100 30c-261 78-569 118-795 103z"/></g></svg>