<svg xmlns="http://www.w3.org/2000/svg" width="351" height="351"><path d="M0 0h351v351H0V0Z" fill="#1F2EBE"/><path d="M78 63c13.65 6.825 13.65 6.825 19.625 10.438a3433.14 3433.14 0 0 0 6.783 4.033c4.988 2.943 10.01 5.826 15.03 8.716l3.34 1.925 6.805 3.92c3.377 1.945 6.753 3.894 10.128 5.843a5930.228 5930.228 0 0 0 29.914 17.188c8.39 4.782 16.738 9.637 25.076 14.511a4463.328 4463.328 0 0 0 43.473 25.085C249.86 161.31 261.444 168.127 273 175c-3.5 2.931-7.041 5.298-11.016 7.54l-1.722.976c-1.21.686-2.42 1.37-3.633 2.052-3.18 1.789-6.35 3.592-9.524 5.393l-1.89 1.071a839.252 839.252 0 0 0-14.153 8.218 1212.17 1212.17 0 0 1-18.125 10.5A2252.657 2252.657 0 0 0 190 224a2459.509 2459.509 0 0 1-25.066 14.46A2076.045 2076.045 0 0 0 145 250a2361.46 2361.46 0 0 1-25.042 14.446c-4.768 2.716-9.518 5.46-14.251 8.238l-3.227 1.892a2460.538 2460.538 0 0 0-6.136 3.617l-2.856 1.678-2.483 1.467C86.743 283.695 82.357 285.822 78 288V63Z" fill="#F93B4B"/></svg>