<?xml version="1.0" encoding="utf-8"?>
<!-- Generator: Adobe Illustrator 23.0.3, SVG Export Plug-In . SVG Version: 6.00 Build 0)  -->
<svg version="1.1" id="Layer_1" xmlns="http://www.w3.org/2000/svg" xmlns:xlink="http://www.w3.org/1999/xlink" x="0px" y="0px"
	 viewBox="0 0 193.78 57.17" style="enable-background:new 0 0 193.78 57.17;" xml:space="preserve">
<style type="text/css">
	.st0{fill:#5592C9;}
</style>
<g id="Group_539_5_" transform="translate(32 31)">
	<g id="Group_536_5_">
		<path id="Path_252_5_" class="st0" d="M-3.21,24.39c-14.74,0-26.69-11.95-26.69-26.69S-17.95-29-3.21-29S23.48-17.05,23.48-2.31
			l0,0C23.46,12.43,11.52,24.37-3.21,24.39z M-3.31-12.83c0.03,0,2.17,2.28,2.17,4.12c0.12,1.24-0.79,2.34-2.03,2.45
			c-0.01,0-0.02,0-0.04,0c-0.03,0-0.06,0-0.09-0.01h-0.02c-0.03,0-0.07,0.01-0.09,0.01c-1.24-0.1-2.17-1.18-2.07-2.42
			c0-0.01,0-0.02,0-0.03C-5.48-10.55-3.35-12.83-3.31-12.83L-3.31-12.83z M-23.41-0.82h2.44v-4.5h4.09V-7.2h-4.09v-2.5h4.22v-1.88
			h-6.66L-23.41-0.82z M-1.11-12.51h2.57l-2.99-10.76H-4.8L-7.9-12.51h2.38l0.68-2.41h3.11L-1.11-12.51z M-2.17-16.74h-2.24
			l1.04-4.68h0.17L-2.17-16.74z M9.1-6.2c0,3.16,1.46,5.56,4.56,5.56s4.58-2.4,4.58-5.56s-1.48-5.57-4.58-5.57S9.1-9.37,9.1-6.2z
			 M11.7-6.2c0-2.06,0.51-3.74,1.97-3.74s1.99,1.68,1.99,3.74s-0.53,3.75-1.99,3.75S11.7-4.14,11.7-6.2z M-4.35,21.41
			c0.2-1.55,0.29-3.11,0.28-4.67v-0.33c0-2.76-0.1-3.69-1.94-4.3c-2.84-0.94-4-4.11-3.38-8.06l-9.5-24.17
			c-9.84,8.65-10.81,23.65-2.15,33.49C-16.79,18.2-10.77,21.1-4.35,21.41L-4.35,21.41z M-3.22,6C-7,5.12-8.41,1.67-8.41-1.39
			l-8.32-20.42c-0.54,0.38-1.07,0.78-1.58,1.19C-16.48-16.28-8.26,3.21-8.25,3.24c1.45,3.5,4.1,2.34,4.74,5.23
			c0.08,0.33,0.14,0.67,0.16,1.01h0.28c0.02-0.34,0.08-0.68,0.16-1.01c0.64-2.89,3.28-1.73,4.73-5.23
			c0.01-0.03,8.22-19.52,10.05-23.86c-0.51-0.42-1.04-0.82-1.58-1.19L1.98-1.39c0,3.06-1.41,6.51-5.19,7.39H-3.22z M-3.23-0.17
			c-1.95-0.48-3.45-2.03-3.86-4c-0.14-0.84-0.16-1.7-0.06-2.55l-7.29-16.51c-0.59,0.32-1.16,0.66-1.72,1.02
			c2.18,4.9,8.85,19.87,8.85,19.89c1.06,2.22,2.9,2.26,3.55,3.59c0.24,0.48,0.38,1.01,0.42,1.54h0.24c0.05-0.54,0.19-1.06,0.42-1.54
			c0.64-1.33,2.49-1.37,3.55-3.59C0.88-2.33,7.55-17.3,9.73-22.2c-0.55-0.36-1.13-0.71-1.72-1.02L0.72-6.72
			c0.1,0.85,0.08,1.7-0.06,2.55c-0.41,1.96-1.91,3.52-3.85,4L-3.23-0.17z M-3.13-2.97l0.11-0.9c0.46-2.09,1.98-1.83,3.03-3.88
			l0.02-0.03c0.03-0.08,5.19-11.15,7.34-15.77c-6.67-3.33-14.51-3.33-21.18,0c2.15,4.62,7.31,15.69,7.35,15.77
			c0,0.01,0.01,0.02,0.01,0.03c1.05,2.05,2.56,1.79,3.02,3.88l0.11,0.9H-3.13z M20.53-2.31c0-6.82-2.94-13.31-8.06-17.81L2.96,4.05
			C3.59,8,2.42,11.17-0.42,12.11c-1.84,0.61-1.94,1.54-1.94,4.3v0.33c0,1.56,0.09,3.12,0.28,4.67
			C10.57,20.79,20.52,10.36,20.53-2.31L20.53-2.31z M-19.45,4.71c0,0,0.35,0.75,0.64,1.28s0.67,1.17,0.67,1.17l-0.62,0.37
			c0,0-0.48-0.79-0.91-1.71c-0.12,0.06-0.87,0.45-0.99,0.51c0.07,0.13,0.84,1.62,0.84,1.62l-0.63,0.37c0,0-0.78-1.52-0.85-1.64
			c-0.14,0.07-1.75,0.9-1.75,0.9l-0.39-0.77l3.96-2.06L-19.45,4.71z M-16.95,8.77l0.55,0.67l-3.47,2.9l-0.56-0.66l3.44-2.87
			L-16.95,8.77z M-13.74,11.81l0.69,0.49l-0.89,4.78l-0.79-0.45c0,0,0.2-0.97,0.22-1.07c-0.04-0.03-0.5-0.3-0.94-0.62
			s-0.89-0.69-0.93-0.71l-0.96,0.57l-0.67-0.58l4.23-2.38L-13.74,11.81z M-15.74,13.84c0.08,0.07,0.37,0.31,0.68,0.52
			c0.23,0.17,0.46,0.32,0.71,0.46c0.04-0.2,0.36-1.77,0.43-2.06L-15.74,13.84z M-10.88,13.57c0.58,0.28,1.17,0.52,1.77,0.72
			c0.62,0.23,1.26,0.42,1.9,0.57l-0.21,0.69c-0.5-0.1-0.99-0.23-1.48-0.38l-1.24,3.55l-0.82-0.28c0,0,1.19-3.41,1.24-3.56
			c-0.5-0.18-0.98-0.39-1.45-0.63L-10.88,13.57z M3.4,14.48c0.31,0.18,0.54,0.47,0.63,0.82c0.05,0.15,0.08,0.31,0.08,0.48
			c0,0.63-0.44,1.13-1.24,1.38c0,0-0.4,0.13-0.52,0.16c0.05,0.14,0.52,1.67,0.52,1.67l-0.79,0.2l-1.35-4.35l1.2-0.37
			C2.4,14.28,2.93,14.28,3.4,14.48L3.4,14.48z M1.72,15.3c0.04,0.13,0.37,1.2,0.41,1.33c0.17-0.05,0.53-0.16,0.53-0.16
			c0.23-0.06,0.42-0.21,0.54-0.41c0.04-0.09,0.07-0.18,0.07-0.28c0-0.08-0.01-0.16-0.03-0.23c-0.05-0.15-0.15-0.28-0.29-0.35
			c-0.25-0.11-0.52-0.12-0.78-0.03L1.72,15.3z M6.1,12.58l3.92,2.87l-0.7,0.49c0,0-0.79-0.6-0.87-0.66C8.4,15.31,8,15.6,7.56,15.86
			c-0.41,0.25-0.86,0.47-0.9,0.49c0.02,0.1,0.17,1.06,0.17,1.06l-0.75,0.36l-0.66-4.81L6.1,12.58z M6.55,15.62
			c0.12-0.06,0.42-0.22,0.72-0.4c0.2-0.12,0.4-0.25,0.59-0.38c-0.16-0.12-1.38-1.06-1.63-1.25C6.28,13.9,6.51,15.42,6.55,15.62
			L6.55,15.62z M10.57,8.62l3.42,3.05l-0.61,0.72c0,0-3.2-0.94-3.69-1.07c0.36,0.35,2.35,2.44,2.35,2.44l-0.6,0.54l-3.22-3.27
			l0.76-0.68c0,0,3.09,0.92,3.58,1.05c-0.36-0.34-2.5-2.18-2.5-2.18L10.57,8.62z M12.14,6.35l3.96,2.3l-0.4,0.7l-3.98-2.3
			L12.14,6.35z M13.85,2.55l0.68,0.35l-0.07,0.08c-0.19,0.2-0.33,0.44-0.42,0.71c-0.08,0.19-0.08,0.41-0.01,0.6
			c0.05,0.11,0.15,0.19,0.27,0.22c0.3,0.1,0.56-0.16,0.86-0.47c0.39-0.58,1.1-0.85,1.77-0.67c0.85,0.29,1.14,1.05,0.79,2.08
			c-0.12,0.3-0.28,0.58-0.48,0.83l-0.04,0.05l-0.7-0.33l0.07-0.08c0.21-0.23,0.37-0.5,0.49-0.78c0.17-0.36,0.02-0.78-0.34-0.95
			c-0.01,0-0.01-0.01-0.02-0.01c-0.38-0.13-0.66,0.16-0.99,0.5c-0.4,0.42-0.86,0.9-1.62,0.64c-0.31-0.1-0.57-0.31-0.72-0.6
			c-0.17-0.4-0.18-0.84-0.02-1.24c0.1-0.32,0.26-0.61,0.47-0.88L13.85,2.55z"/>
	</g>
	<g id="Group_538_5_" transform="translate(59.62 4.828)">
		<g id="Group_537_5_">
			<path id="Path_253_5_" class="st0" d="M-29.48-28.22h5.32v1.54h-3.39v2.86h3.24v1.54h-3.24v4.58h-1.93V-28.22z"/>
			<path id="Path_254_5_" class="st0" d="M-19.96-25.58c1.58,0,3.4,0.83,3.4,3.99c0,3.25-1.82,4.01-3.4,4.01s-3.42-0.75-3.42-4.01
				C-23.37-24.76-21.54-25.58-19.96-25.58z M-19.96-18.91c1.21,0,1.48-1.39,1.48-2.68s-0.27-2.67-1.48-2.67s-1.49,1.37-1.49,2.67
				S-21.16-18.91-19.96-18.91z"/>
			<path id="Path_255_5_" class="st0" d="M-11.87-25.58c1.58,0,3.4,0.83,3.4,3.99c0,3.25-1.82,4.01-3.4,4.01s-3.42-0.75-3.42-4.01
				C-15.29-24.76-13.45-25.58-11.87-25.58z M-11.87-18.91c1.21,0,1.48-1.39,1.48-2.68s-0.27-2.67-1.48-2.67s-1.49,1.37-1.49,2.67
				S-13.08-18.91-11.87-18.91z"/>
			<path id="Path_256_5_" class="st0" d="M-0.63-29v9.97c-0.01,0.44,0.01,0.89,0.06,1.33h-1.75c-0.04-0.4-0.06-0.8-0.06-1.2h-0.04
				c-0.33,0.84-1.16,1.38-2.06,1.33c-1.92-0.01-2.72-1.85-2.72-4c0-2.53,1.01-4,2.68-4c0.86-0.04,1.65,0.45,2,1.23h0.03V-29H-0.63z
				 M-3.97-18.96c1.1,0,1.47-1.19,1.47-2.65c0-1.51-0.42-2.6-1.44-2.6c-1.04,0-1.4,1.01-1.4,2.56C-5.34-19.86-5.05-18.96-3.97-18.96
				z"/>
			<path id="Path_257_5_" class="st0" d="M5.38-25.01c0.76-0.38,1.6-0.58,2.46-0.57c2.41,0,2.97,1.17,2.97,3.12v3.39
				c0,0.46,0.03,0.92,0.1,1.37H9.21c-0.08-0.35-0.11-0.7-0.1-1.06H9.08c-0.46,0.75-1.29,1.19-2.17,1.17
				c-1.23,0.05-2.27-0.9-2.32-2.13c0-0.05,0-0.1,0-0.15c0-2.11,1.72-2.64,4.08-2.64h0.38v-0.28c0.08-0.73-0.45-1.39-1.18-1.47
				c-0.09-0.01-0.18-0.01-0.27,0c-0.77,0.02-1.51,0.28-2.12,0.75L5.38-25.01z M9.05-21.5H8.88c-1.6,0-2.54,0.33-2.54,1.46
				c-0.04,0.62,0.43,1.15,1.05,1.19c0.05,0,0.09,0,0.14,0c1.11,0,1.52-0.83,1.52-2.21L9.05-21.5z"/>
			<path id="Path_258_5_" class="st0" d="M12.53-24.18c0.01-0.43-0.01-0.86-0.06-1.28h1.75c0.01,0.39,0.06,0.8,0.06,1.19h0.03
				c0.37-0.8,1.18-1.31,2.06-1.31c1.76,0,2.29,1.31,2.29,2.88v5h-1.87v-4.65c0-1.19-0.3-1.69-1.07-1.69c-0.98,0-1.32,0.83-1.32,1.82
				v4.52h-1.87L12.53-24.18z"/>
			<path id="Path_259_5_" class="st0" d="M26.71-29v9.97c-0.01,0.44,0.01,0.89,0.06,1.33h-1.75c-0.04-0.4-0.06-0.8-0.06-1.2h-0.04
				c-0.33,0.84-1.16,1.38-2.06,1.33c-1.93,0-2.73-1.84-2.73-3.99c0-2.53,1.01-4,2.68-4c0.86-0.04,1.65,0.45,2,1.23h0.03V-29H26.71z
				 M23.36-18.96c1.1,0,1.47-1.19,1.47-2.65c0-1.51-0.42-2.6-1.45-2.6s-1.4,1.01-1.4,2.56C21.99-19.86,22.28-18.96,23.36-18.96z"/>
			<path id="Path_260_5_" class="st0" d="M37.05-20.24h-3.61l-0.75,2.53h-1.93l3.52-10.51h2.11l3.39,10.51h-1.99L37.05-20.24z
				 M36.64-21.71l-1.33-4.91h-0.03l-1.44,4.91H36.64z"/>
			<path id="Path_261_5_" class="st0" d="M40.94-16.5c0.7,0.4,1.48,0.63,2.29,0.66c1.76,0,2.05-1.22,2.05-2.44v-0.74h-0.03
				c-0.34,0.82-1.16,1.35-2.05,1.31c-1.08,0-2.71-0.72-2.71-3.85c0-2.14,0.77-4.02,2.8-4.02c0.89-0.01,1.69,0.51,2.05,1.33h0.06
				c0-0.41,0.05-0.8,0.06-1.2h1.69c-0.03,0.41-0.06,0.81-0.06,1.22v5.72c0,2.42-0.74,4.16-3.59,4.16c-0.91,0-1.81-0.17-2.66-0.48
				L40.94-16.5z M43.64-19.08c1.18,0,1.64-0.84,1.64-2.6c0-1.63-0.62-2.5-1.51-2.49c-0.98,0.01-1.35,0.92-1.35,2.5
				C42.42-19.85,43-19.08,43.64-19.08L43.64-19.08z"/>
			<path id="Path_262_5_" class="st0" d="M48.85-24.18c0.01-0.43-0.01-0.86-0.06-1.28h1.68c0.01,0.47,0.06,0.95,0.06,1.42h0.03
				c0.27-0.88,1.06-1.49,1.97-1.54c0.11,0.01,0.21,0.02,0.32,0.04v1.75c-0.17-0.05-0.35-0.07-0.53-0.08c-0.77,0-1.61,0.47-1.61,1.91
				v4.25h-1.87V-24.18z"/>
			<path id="Path_263_5_" class="st0" d="M54.23-28.76h1.93v1.84h-1.93V-28.76z M54.26-25.46h1.87v7.76h-1.87V-25.46z"/>
			<path id="Path_264_5_" class="st0" d="M63.27-17.9c-0.59,0.21-1.21,0.32-1.84,0.32c-2.56,0-3.64-1.79-3.64-3.99
				c0-2.21,1.14-4,3.75-4c0.56,0.02,1.11,0.12,1.63,0.32l-0.11,1.48c-0.4-0.23-0.85-0.35-1.31-0.38c-1.41,0-2.03,0.95-2.03,2.6
				c0,1.44,0.69,2.56,2.12,2.56c0.47-0.02,0.92-0.15,1.33-0.38L63.27-17.9z"/>
			<path id="Path_265_5_" class="st0" d="M70.54-18.99c-0.01,0.43,0.01,0.86,0.06,1.28h-1.75c-0.01-0.39-0.06-0.8-0.06-1.19
				l-0.04-0.01l0.01,0.01c-0.37,0.8-1.18,1.32-2.06,1.31c-1.76,0-2.29-1.31-2.29-2.88v-5h1.86v4.66c0,1.19,0.33,1.69,1.11,1.69
				c0.99,0,1.28-0.9,1.28-1.9v-4.44h1.87L70.54-18.99z"/>
			<path id="Path_266_5_" class="st0" d="M72.4-29h1.87v11.29H72.4V-29z"/>
			<path id="Path_267_5_" class="st0" d="M76.83-27.06l1.87-0.57v2.17h1.55v1.37h-1.55v4.02c0,0.83,0.3,1.07,0.84,1.07
				c0.25,0,0.49-0.05,0.71-0.17v1.33c-0.39,0.18-0.82,0.27-1.25,0.26c-1.39,0-2.17-0.63-2.17-2.26v-4.24h-1.23v-1.37h1.23V-27.06z"
				/>
			<path id="Path_268_5_" class="st0" d="M87.56-18.99c-0.01,0.43,0.01,0.86,0.06,1.28h-1.75c-0.01-0.39-0.06-0.8-0.06-1.19
				l-0.04-0.01l0.01,0.01c-0.37,0.8-1.18,1.32-2.06,1.31c-1.76,0-2.29-1.31-2.29-2.88v-5h1.87v4.66c0,1.19,0.33,1.69,1.11,1.69
				c0.99,0,1.28-0.9,1.28-1.9v-4.44h1.87L87.56-18.99z"/>
			<path id="Path_269_5_" class="st0" d="M89.3-24.18c0.01-0.43-0.01-0.86-0.06-1.28h1.68c0.01,0.47,0.06,0.95,0.06,1.42h0.03
				c0.27-0.88,1.06-1.49,1.97-1.54c0.11,0.01,0.21,0.02,0.32,0.04v1.75c-0.17-0.05-0.35-0.07-0.53-0.08c-0.77,0-1.61,0.47-1.61,1.91
				v4.25H89.3L89.3-24.18z"/>
			<path id="Path_270_5_" class="st0" d="M100.08-18.08c-0.73,0.33-1.52,0.5-2.32,0.5c-2.5,0-3.59-1.79-3.59-3.89
				c0-2.32,1.22-4.11,3.19-4.11c1.67,0,3.1,0.98,3.1,4.14v0.36h-4.49c0,1.33,0.53,2.12,1.97,2.12c0.73,0.05,1.45-0.17,2.03-0.6
				L100.08-18.08z M98.67-22.25c0-1.37-0.45-2.06-1.3-2.06c-0.98,0-1.38,1.04-1.38,2.06H98.67z"/>
			<path id="Path_271_5_" class="st0" d="M-25.72-11.35c2.18,0,4.19,1.63,4.19,5.4s-2,5.4-4.19,5.4s-4.19-1.62-4.19-5.4
				S-27.9-11.35-25.72-11.35z M-25.72-2.02c1.22,0,2.2-1.04,2.2-3.93s-0.98-3.93-2.2-3.93s-2.2,1.04-2.2,3.93
				S-26.94-2.02-25.72-2.02z"/>
			<path id="Path_272_5_" class="st0" d="M-19.94-7.17c0.01-0.43-0.01-0.86-0.06-1.28h1.68c0.02,0.47,0.06,0.95,0.06,1.42h0.03
				c0.27-0.88,1.06-1.49,1.97-1.53c0.11,0.01,0.21,0.02,0.32,0.04v1.75c-0.17-0.05-0.35-0.08-0.53-0.08c-0.77,0-1.61,0.47-1.61,1.91
				v4.25h-1.87V-7.17z"/>
			<path id="Path_273_5_" class="st0" d="M-14.61,0.51c0.7,0.4,1.48,0.63,2.29,0.66c1.76,0,2.05-1.22,2.05-2.44V-2h-0.03
				c-0.34,0.82-1.16,1.35-2.05,1.31c-1.08,0-2.71-0.72-2.71-3.85c0-2.14,0.77-4.02,2.8-4.02c0.89-0.01,1.69,0.51,2.05,1.33h0.06
				c0-0.41,0.04-0.8,0.06-1.21h1.69c-0.03,0.41-0.06,0.81-0.06,1.22v5.72c0,2.42-0.74,4.16-3.58,4.16c-0.91,0-1.81-0.17-2.66-0.48
				L-14.61,0.51z M-11.91-2.06c1.18,0,1.64-0.84,1.64-2.6c0-1.63-0.62-2.5-1.5-2.48c-0.98,0.01-1.36,0.92-1.36,2.5
				C-13.14-2.83-12.55-2.06-11.91-2.06L-11.91-2.06z"/>
			<path id="Path_274_5_" class="st0" d="M-6.4-8c0.76-0.38,1.6-0.58,2.46-0.57c2.41,0,2.97,1.17,2.97,3.12v3.39
				c0,0.46,0.03,0.92,0.1,1.37h-1.68c-0.08-0.34-0.12-0.7-0.11-1.05h-0.03C-3.16-1-3.98-0.55-4.86-0.57
				c-1.23,0.05-2.26-0.9-2.32-2.13c0-0.05,0-0.1,0-0.15c0-2.11,1.72-2.64,4.08-2.64h0.38v-0.29C-2.64-6.5-3.17-7.16-3.9-7.24
				c-0.09-0.01-0.18-0.01-0.27,0c-0.77,0.02-1.51,0.28-2.12,0.75L-6.4-8z M-2.73-4.49h-0.17c-1.6,0-2.54,0.33-2.54,1.46
				C-5.47-2.41-5-1.87-4.38-1.84c0.05,0,0.09,0,0.14,0c1.11,0,1.52-0.83,1.52-2.21L-2.73-4.49z"/>
			<path id="Path_275_5_" class="st0" d="M0.75-7.17C0.76-7.6,0.74-8.02,0.69-8.45h1.75C2.45-8.06,2.5-7.65,2.5-7.26h0.03
				c0.37-0.8,1.18-1.32,2.06-1.31c1.76,0,2.29,1.31,2.29,2.88v5H5.01v-4.65c0-1.19-0.3-1.69-1.07-1.69c-0.98,0-1.32,0.83-1.32,1.82
				v4.52H0.75V-7.17z"/>
			<path id="Path_276_5_" class="st0" d="M8.72-11.75h1.93v1.84H8.72V-11.75z M8.75-8.45h1.87v7.76H8.75V-8.45z"/>
			<path id="Path_277_5_" class="st0" d="M12.06-2.3l3.31-4.73h-3.21v-1.41h5.08v1.6L13.99-2.1h3.36v1.42h-5.29L12.06-2.3z"/>
			<path id="Path_278_5_" class="st0" d="M18.98-8c0.76-0.38,1.6-0.58,2.46-0.57c2.41,0,2.97,1.17,2.97,3.12v3.39
				c0,0.46,0.04,0.92,0.11,1.37h-1.69c-0.08-0.34-0.12-0.7-0.11-1.05h-0.03C22.22-1,21.4-0.55,20.52-0.57
				c-1.23,0.05-2.27-0.9-2.32-2.13c0-0.05,0-0.1,0-0.15c0-2.11,1.72-2.64,4.08-2.64h0.38v-0.29c0.08-0.73-0.45-1.39-1.18-1.47
				c-0.09-0.01-0.18-0.01-0.27,0c-0.77,0.02-1.51,0.28-2.12,0.75L18.98-8z M22.66-4.49h-0.17c-1.6,0-2.54,0.33-2.54,1.46
				C19.91-2.41,20.38-1.88,21-1.84c0.05,0,0.09,0,0.14,0c1.11,0,1.52-0.83,1.52-2.21L22.66-4.49z"/>
			<path id="Path_279_5_" class="st0" d="M26.82-10.04l1.87-0.57v2.17h1.55v1.37h-1.55v4.02c0,0.83,0.3,1.07,0.84,1.07
				c0.25,0,0.49-0.05,0.71-0.17v1.33c-0.39,0.18-0.82,0.26-1.25,0.26c-1.39,0-2.17-0.63-2.17-2.26v-4.25h-1.23v-1.37h1.23
				L26.82-10.04z"/>
			<path id="Path_280_5_" class="st0" d="M31.58-11.75h1.93v1.84h-1.93V-11.75z M31.61-8.45h1.87v7.76h-1.87V-8.45z"/>
			<path id="Path_281_5_" class="st0" d="M38.55-8.57c1.58,0,3.4,0.83,3.4,3.99c0,3.25-1.82,4.01-3.4,4.01s-3.42-0.75-3.42-4.01
				C35.13-7.74,36.97-8.57,38.55-8.57z M38.55-1.9c1.21,0,1.48-1.38,1.48-2.68s-0.27-2.67-1.48-2.67s-1.49,1.37-1.49,2.67
				S37.35-1.9,38.55-1.9z"/>
			<path id="Path_282_5_" class="st0" d="M43.43-7.17c0.01-0.43-0.01-0.86-0.06-1.28h1.75c0.01,0.39,0.06,0.8,0.06,1.19h0.03
				c0.37-0.8,1.18-1.31,2.06-1.31c1.76,0,2.29,1.31,2.29,2.88v5h-1.87v-4.65c0-1.19-0.3-1.69-1.07-1.69c-0.98,0-1.32,0.83-1.32,1.82
				v4.52h-1.87L43.43-7.17z"/>
			<path id="Path_283_5_" class="st0" d="M58.36-8.57c1.58,0,3.4,0.83,3.4,3.99c0,3.25-1.82,4.01-3.4,4.01s-3.42-0.75-3.42-4.01
				C54.94-7.74,56.78-8.57,58.36-8.57z M58.36-1.9c1.21,0,1.48-1.38,1.48-2.68s-0.27-2.67-1.48-2.67s-1.49,1.37-1.49,2.67
				S57.15-1.9,58.36-1.9z"/>
			<path id="Path_284_5_" class="st0" d="M63.84-7.08h-1.29v-1.37h1.29v-1.58c-0.11-1.08,0.68-2.04,1.76-2.15
				c0.16-0.02,0.31-0.01,0.47,0.01c0.45,0.01,0.9,0.07,1.34,0.18l-0.07,1.35c-0.24-0.07-0.49-0.11-0.74-0.12
				c-0.48-0.01-0.88,0.36-0.89,0.84c0,0.04,0,0.08,0,0.12v1.34h1.41v1.37h-1.41v6.38h-1.87L63.84-7.08z"/>
			<path id="Path_285_5_" class="st0" d="M72.85-10.04l1.87-0.57v2.17h1.55v1.37h-1.55v4.02c0,0.83,0.3,1.07,0.84,1.07
				c0.25,0,0.49-0.05,0.71-0.17v1.33c-0.39,0.18-0.82,0.26-1.25,0.26c-1.39,0-2.17-0.63-2.17-2.26v-4.25h-1.24v-1.37h1.24
				L72.85-10.04z"/>
			<path id="Path_286_5_" class="st0" d="M77.46-11.99h1.87v4.53h0.04c0.38-0.71,1.12-1.14,1.93-1.12c1.76,0,2.29,1.31,2.29,2.88v5
				h-1.87v-4.65c0-1.19-0.3-1.69-1.07-1.69c-0.98,0-1.32,0.83-1.32,1.82v4.52h-1.87L77.46-11.99z"/>
			<path id="Path_287_5_" class="st0" d="M90.96-1.07c-0.73,0.33-1.52,0.5-2.32,0.5c-2.5,0-3.58-1.79-3.58-3.89
				c0-2.32,1.22-4.11,3.19-4.11c1.67,0,3.1,0.98,3.1,4.14v0.36h-4.49c0,1.33,0.53,2.12,1.97,2.12c0.73,0.05,1.45-0.17,2.03-0.6
				L90.96-1.07z M89.55-5.24c0-1.37-0.45-2.06-1.3-2.06c-0.98,0-1.38,1.04-1.38,2.06H89.55z"/>
			<path id="Path_288_5_" class="st0" d="M-27.65,5.81v6.81c0,1.75,0.53,2.32,1.66,2.32c1.1,0,1.64-0.57,1.64-2.32V5.81h1.93v6.81
				c0,2.77-1.6,3.86-3.57,3.86c-1.99,0-3.58-1.09-3.58-3.86V5.81H-27.65z"/>
			<path id="Path_289_5_" class="st0" d="M-20.56,9.85c0.01-0.43-0.01-0.85-0.06-1.28h1.75c0.01,0.39,0.06,0.8,0.06,1.19h0.03
				c0.37-0.8,1.18-1.31,2.06-1.31c1.76,0,2.29,1.31,2.29,2.88v5h-1.87v-4.65c0-1.19-0.3-1.69-1.07-1.69c-0.98,0-1.32,0.83-1.32,1.82
				v4.52h-1.87V9.85z"/>
			<path id="Path_290_5_" class="st0" d="M-12.6,5.27h1.93v1.84h-1.93V5.27z M-12.57,8.57h1.86v7.76h-1.86V8.57z"/>
			<path id="Path_291_5_" class="st0" d="M-8.14,6.97l1.87-0.57v2.17h1.55v1.37h-1.55v4.02c0,0.83,0.3,1.07,0.84,1.07
				c0.25,0,0.49-0.05,0.71-0.17v1.33c-0.39,0.18-0.82,0.27-1.25,0.26c-1.39,0-2.17-0.63-2.17-2.26V9.94h-1.23V8.57h1.23L-8.14,6.97z
				"/>
			<path id="Path_292_5_" class="st0" d="M2.16,15.94c-0.73,0.33-1.52,0.5-2.32,0.5c-2.5,0-3.58-1.79-3.58-3.89
				c0-2.32,1.22-4.11,3.19-4.11c1.67,0,3.1,0.98,3.1,4.14v0.36h-4.49c0,1.33,0.53,2.12,1.97,2.12c0.73,0.05,1.45-0.17,2.03-0.6
				L2.16,15.94z M0.74,11.77c0-1.37-0.45-2.06-1.3-2.06c-0.98,0-1.39,1.04-1.39,2.06H0.74z"/>
			<path id="Path_293_5_" class="st0" d="M10.36,5.03V15c-0.01,0.44,0.01,0.89,0.06,1.33H8.67c-0.04-0.4-0.06-0.8-0.06-1.21H8.57
				c-0.33,0.84-1.16,1.38-2.06,1.33c-1.93,0-2.72-1.84-2.72-3.99c0-2.53,1.01-4,2.68-4c0.86-0.04,1.65,0.45,2,1.23h0.03V5.03H10.36z
				 M7.02,15.07c1.1,0,1.47-1.19,1.47-2.65c0-1.51-0.42-2.6-1.44-2.6c-1.04,0-1.4,1.01-1.4,2.56C5.65,14.17,5.93,15.07,7.02,15.07z"
				/>
			<path id="Path_294_5_" class="st0" d="M16.24,5.81h2.29l3.49,8.25h0.03V5.81h1.75v10.51h-2.3l-3.48-8.19h-0.03v8.19h-1.75
				L16.24,5.81z"/>
			<path id="Path_295_5_" class="st0" d="M26.12,9.02c0.76-0.38,1.6-0.58,2.46-0.57c2.41,0,2.97,1.17,2.97,3.12v3.39
				c0,0.46,0.04,0.92,0.11,1.37h-1.69c-0.08-0.35-0.12-0.7-0.11-1.06h-0.04c-0.46,0.75-1.29,1.19-2.17,1.17
				c-1.23,0.05-2.27-0.9-2.32-2.13c0-0.05,0-0.1,0-0.15c0-2.11,1.72-2.64,4.08-2.64h0.38v-0.29c0.08-0.73-0.45-1.39-1.18-1.47
				c-0.09-0.01-0.18-0.01-0.27,0c-0.77,0.02-1.52,0.28-2.12,0.75L26.12,9.02z M29.79,12.53h-0.17c-1.6,0-2.54,0.33-2.54,1.46
				c-0.04,0.62,0.43,1.15,1.05,1.19c0.05,0,0.09,0,0.14,0c1.11,0,1.52-0.83,1.52-2.21L29.79,12.53z"/>
			<path id="Path_296_5_" class="st0" d="M33.96,6.97l1.87-0.57v2.17h1.55v1.37h-1.55v4.02c0,0.83,0.3,1.07,0.84,1.07
				c0.25,0,0.49-0.05,0.71-0.17v1.33c-0.39,0.18-0.82,0.27-1.25,0.26c-1.39,0-2.17-0.63-2.17-2.26V9.94h-1.23V8.57h1.23L33.96,6.97z
				"/>
			<path id="Path_297_5_" class="st0" d="M38.71,5.27h1.93v1.84h-1.93L38.71,5.27z M38.74,8.57h1.87v7.76h-1.87L38.74,8.57z"/>
			<path id="Path_298_5_" class="st0" d="M45.68,8.45c1.58,0,3.4,0.83,3.4,3.99c0,3.25-1.82,4.01-3.4,4.01s-3.42-0.75-3.42-4.01
				C42.27,9.27,44.1,8.45,45.68,8.45z M45.68,15.12c1.21,0,1.48-1.38,1.48-2.68s-0.27-2.67-1.48-2.67s-1.49,1.37-1.49,2.67
				S44.48,15.12,45.68,15.12z"/>
			<path id="Path_299_5_" class="st0" d="M50.56,9.85c0.01-0.43-0.01-0.85-0.06-1.28h1.74c0.01,0.39,0.06,0.8,0.06,1.19h0.03
				c0.37-0.8,1.18-1.31,2.06-1.31c1.76,0,2.29,1.31,2.29,2.88v5h-1.86v-4.65c0-1.19-0.3-1.69-1.07-1.69c-0.98,0-1.32,0.83-1.32,1.82
				v4.52h-1.87L50.56,9.85z"/>
			<path id="Path_300_5_" class="st0" d="M58.16,14.51c0.61,0.3,1.27,0.47,1.94,0.51c0.68,0,1.2-0.17,1.2-0.77
				c0-0.3-0.15-0.59-0.83-0.98l-0.77-0.45c-0.78-0.47-1.64-0.96-1.64-2.18c0.14-1.34,1.34-2.32,2.68-2.2c0.66,0,1.32,0.11,1.94,0.32
				l-0.11,1.44c-0.52-0.22-1.08-0.34-1.64-0.35c-0.75,0-1.07,0.28-1.07,0.75c0,0.42,0.33,0.65,0.87,0.99l0.92,0.59
				c0.96,0.62,1.45,1.06,1.45,1.96c0,1.43-1.21,2.29-2.89,2.29c-0.73,0-1.46-0.13-2.15-0.38L58.16,14.51z"/>
		</g>
	</g>
</g>
</svg>
