<svg xmlns="http://www.w3.org/2000/svg" id="Lockup" viewBox="0 0 768.05 250"><defs><style>.cls-1{fill:#1e2dbe;stroke-width:0}</style></defs><path d="M365.23 75.82c-2.84 0-5.39-.49-7.64-1.37s-4.21-2.16-5.68-3.62c-1.47-1.57-2.74-3.33-3.72-5.29-.98-2.06-1.76-4.11-2.16-6.27-.39-2.16-.69-4.41-.69-6.76s.2-4.6.69-6.76c.39-2.16 1.18-4.31 2.16-6.27.98-2.06 2.25-3.82 3.72-5.29 1.47-1.57 3.33-2.74 5.68-3.62s4.8-1.37 7.64-1.37c3.53 0 6.56.69 9.21 2.06 2.64 1.37 4.7 3.23 6.17 5.49 1.47 2.35 2.64 4.8 3.33 7.45.69 2.64 1.08 5.49 1.08 8.42s-.39 5.78-1.08 8.42-1.86 5.19-3.33 7.45c-1.47 2.35-3.53 4.11-6.17 5.49-2.64 1.18-5.78 1.86-9.21 1.86Zm0-7.45c2.06 0 3.92-.49 5.49-1.47s2.84-2.25 3.72-3.92c.88-1.57 1.57-3.33 1.96-5.09s.69-3.62.69-5.49c0-1.96-.2-3.82-.69-5.68a18.8 18.8 0 0 0-1.96-5.09c-.88-1.57-2.16-2.84-3.72-3.82-1.57-.98-3.43-1.47-5.49-1.47-2.74 0-5.09.88-6.96 2.64s-3.13 3.72-3.82 6.07a25 25 0 0 0-1.08 7.35c0 1.96.2 3.82.69 5.58.39 1.76 1.08 3.53 1.96 5.09s2.16 2.84 3.72 3.82c1.47.98 3.33 1.47 5.49 1.47Zm26.35 6.67V41.93h7.54v3.43c1.37-2.84 3.62-4.21 6.76-4.21 2.35 0 4.41.78 6.17 2.25l-1.08 6.96c-1.67-1.18-3.53-1.76-5.58-1.76-1.76 0-3.23.59-4.41 1.76s-1.76 3.23-1.76 6.07v18.51h-7.64zm35.46 12.93-4.02-6.07c4.51-.29 7.64-.98 9.4-2.06s2.64-2.74 2.64-5.09v-1.86c-1.76 1.96-4.31 2.94-7.54 2.94-4.02 0-7.35-1.47-9.89-4.51s-3.82-7.25-3.82-12.83 1.27-9.6 3.82-12.64 5.88-4.6 9.89-4.6c3.13 0 5.58.88 7.45 2.74v-1.96h7.54v29.78c0 5.49-1.18 9.4-3.53 11.85-2.25 2.45-6.27 3.82-11.95 4.31Zm1.86-19.4c2.74 0 4.8-1.08 6.17-3.23V51.63c-1.47-2.16-3.62-3.23-6.17-3.23-2.35 0-4.21.88-5.49 2.55-1.27 1.76-1.86 4.21-1.86 7.54 0 3.13.69 5.58 1.96 7.35s3.04 2.74 5.39 2.74Zm39.68 6.47V72.4c-2.16 2.25-5.09 3.43-8.82 3.43-3.53 0-6.37-.98-8.62-2.84-2.25-1.96-3.33-4.6-3.33-8.13s1.27-6.27 3.82-8.13 5.58-2.74 9.11-2.74c3.13 0 5.78.59 7.84 1.76v-1.76c0-2.16-.49-3.62-1.57-4.6s-2.64-1.47-4.9-1.47c-3.62 0-6.86 1.08-9.8 3.13l-2.35-6.17c3.62-2.45 7.93-3.62 12.93-3.62 1.76 0 3.23.1 4.6.39 1.27.29 2.64.78 4.11 1.67 1.37.78 2.45 2.16 3.23 3.92s1.18 3.92 1.18 6.56v21.26h-7.45Zm-7.45-5.88c2.84 0 5.39-1.08 7.35-3.13v-4.31c-1.86-.88-4.11-1.37-6.56-1.37-2.06 0-3.62.39-4.9 1.08s-1.86 1.86-1.86 3.33c0 1.37.49 2.35 1.57 3.13s2.55 1.27 4.41 1.27Zm41.93 5.88v-19c0-5.09-2.06-7.74-6.17-7.74-4.51 0-6.76 2.55-6.76 7.54v19.1h-7.54V41.93h7.54v3.13c2.16-2.55 5.09-3.92 8.72-3.92 3.43 0 6.27 1.08 8.42 3.23 2.16 2.16 3.23 5.58 3.23 10.29v20.28h-7.45v.1Zm21.26-38.89c-.88.88-1.96 1.37-3.13 1.37-1.27 0-2.35-.49-3.23-1.37s-1.37-1.96-1.37-3.23.49-2.35 1.37-3.13c.88-.88 1.96-1.27 3.23-1.27s2.35.39 3.13 1.27c.88.88 1.27 1.96 1.27 3.13 0 1.27-.49 2.35-1.27 3.23m-7.05 38.89V41.93h7.54v33.01h-7.54zm12.43 0v-6.07l17.34-20.28h-16.07v-6.76h25.37v5.78L539.1 68.18h17.24v6.76h-26.65v.1Zm31.16 0v-6.07l17.34-20.28h-16.07v-6.76h25.37v5.78l-17.24 20.47h17.24v6.76h-26.65v.1Zm51.43 0V72.4c-2.16 2.25-5.09 3.43-8.82 3.43-3.53 0-6.37-.98-8.62-2.84-2.25-1.96-3.33-4.6-3.33-8.13s1.27-6.27 3.82-8.13 5.58-2.74 9.11-2.74c3.13 0 5.78.59 7.84 1.76v-1.76c0-2.16-.49-3.62-1.57-4.6s-2.64-1.47-4.9-1.47c-3.62 0-6.86 1.08-9.8 3.13l-2.35-6.17c3.62-2.45 7.93-3.62 12.93-3.62 1.76 0 3.23.1 4.6.39 1.27.29 2.64.78 4.11 1.67 1.37.78 2.45 2.16 3.23 3.92s1.18 3.92 1.18 6.56v21.26h-7.45Zm-7.35-5.88c2.84 0 5.39-1.08 7.35-3.13v-4.31c-1.86-.88-4.11-1.37-6.56-1.37-2.06 0-3.62.39-4.9 1.08s-1.86 1.86-1.86 3.33c0 1.37.49 2.35 1.57 3.13s2.45 1.27 4.41 1.27Zm19.3 5.88v-6.07l17.34-20.28h-16.07v-6.76h25.37v5.78l-17.24 20.47h17.24v6.76h-26.65v.1Zm38.99-38.89c-.88.88-1.96 1.37-3.13 1.37-1.27 0-2.35-.49-3.23-1.37s-1.37-1.96-1.37-3.23.49-2.35 1.37-3.13c.88-.88 1.96-1.27 3.23-1.27s2.35.39 3.13 1.27c.88.88 1.27 1.96 1.27 3.13 0 1.27-.39 2.35-1.27 3.23m-6.96 38.89V41.93h7.54v33.01h-7.54zm28.12.78c-4.7 0-8.33-1.57-11.07-4.6s-4.11-7.25-4.11-12.64 1.37-9.6 4.11-12.74c2.74-3.04 6.37-4.6 11.07-4.6s8.33 1.57 11.07 4.6c2.74 3.04 4.11 7.35 4.11 12.74s-1.37 9.6-4.11 12.64c-2.64 3.04-6.37 4.6-11.07 4.6m0-7.25q3.525 0 5.58-2.64c1.37-1.76 2.06-4.21 2.06-7.35s-.69-5.58-2.06-7.45-3.23-2.74-5.58-2.74-4.11.88-5.49 2.74c-1.37 1.86-2.06 4.31-2.06 7.45s.69 5.58 2.06 7.35c1.37 1.76 3.13 2.64 5.49 2.64m41.14 6.47v-19c0-5.09-2.06-7.74-6.17-7.74-4.51 0-6.76 2.55-6.76 7.54v19.1h-7.54V41.93h7.54v3.13c2.16-2.55 5.09-3.92 8.72-3.92 3.43 0 6.27 1.08 8.42 3.23 2.16 2.16 3.23 5.58 3.23 10.29v20.28h-7.45v.1Zm28.12.78c-4.7 0-8.42-1.57-11.17-4.6-2.74-3.04-4.11-7.35-4.11-12.74s1.37-9.6 4.11-12.64 6.47-4.6 11.17-4.6c4.21 0 7.64 1.27 10.38 3.92s4.02 6.47 4.02 11.56c0 1.76-.1 3.33-.29 4.7h-21.94c.1 2.35.98 4.21 2.45 5.58 1.47 1.47 3.23 2.16 5.29 2.16 2.94 0 5.29-1.18 6.96-3.43l4.8 4.9c-2.84 3.43-6.76 5.19-11.66 5.19Zm-7.74-20.77h14.6c-.2-2.35-.88-4.21-2.16-5.39-1.27-1.27-2.84-1.86-4.7-1.86-2.16 0-3.92.59-5.29 1.76-1.47 1.27-2.25 3.04-2.45 5.49M347.3 139.69V94.43h7.74v45.26zm36.25 0v-18.91c0-5.09-2.06-7.74-6.17-7.74-4.51 0-6.76 2.55-6.76 7.54v19.1h-7.45v-33.01h7.54v3.13c2.16-2.55 5.09-3.92 8.72-3.92 3.43 0 6.27 1.08 8.42 3.23 2.16 2.16 3.23 5.58 3.23 10.29v20.28h-7.54Zm23.9.79c-5.09 0-7.74-2.84-7.74-8.42v-18.71h-4.9v-6.56h4.9V96.8l7.54-3.62v13.62h7.64v6.56h-7.64v17.24c0 2.16.88 3.13 2.74 3.13 1.67 0 3.43-.49 5.19-1.47l-.88 6.76c-1.86.98-4.11 1.47-6.86 1.47Zm26.06 0c-4.7 0-8.42-1.57-11.17-4.6-2.74-3.04-4.11-7.35-4.11-12.74s1.37-9.6 4.11-12.64 6.47-4.6 11.17-4.6c4.21 0 7.64 1.27 10.38 3.92 2.74 2.64 4.02 6.47 4.02 11.56 0 1.76-.1 3.33-.29 4.7h-21.94c.1 2.35.98 4.21 2.45 5.58 1.47 1.47 3.23 2.16 5.29 2.16 2.94 0 5.29-1.18 6.96-3.43l4.8 4.9c-2.74 3.43-6.66 5.19-11.66 5.19Zm-7.64-20.77h14.6c-.2-2.35-.88-4.21-2.16-5.39-1.27-1.27-2.84-1.86-4.7-1.86-2.16 0-3.92.59-5.29 1.76-1.47 1.27-2.25 3.04-2.45 5.49m27.33 19.98v-33.01h7.54v3.43c1.37-2.84 3.62-4.21 6.76-4.21 2.35 0 4.41.78 6.17 2.25l-1.08 6.96c-1.67-1.18-3.53-1.76-5.58-1.76-1.76 0-3.23.59-4.41 1.76s-1.76 3.23-1.76 6.07v18.51zm44.67 0v-18.91c0-5.09-2.06-7.74-6.17-7.74-4.51 0-6.76 2.55-6.76 7.54v19.1h-7.54v-33.01h7.54v3.13c2.16-2.55 5.09-3.92 8.72-3.92 3.43 0 6.27 1.08 8.42 3.23 2.16 2.16 3.23 5.58 3.23 10.29v20.28h-7.45Zm33.21 0v-2.64c-2.16 2.25-5.09 3.43-8.82 3.43-3.53 0-6.37-.98-8.62-2.84-2.25-1.96-3.33-4.6-3.33-8.13s1.27-6.27 3.82-8.13 5.58-2.74 9.11-2.74c3.13 0 5.78.59 7.84 1.76v-1.76c0-2.16-.49-3.62-1.57-4.6s-2.64-1.47-4.9-1.47c-3.62 0-6.86 1.08-9.8 3.13l-2.35-6.17c3.62-2.45 7.93-3.62 12.93-3.62 1.76 0 3.23.1 4.6.39 1.27.29 2.64.78 4.11 1.67 1.37.78 2.45 2.16 3.23 3.92s1.18 3.92 1.18 6.56v21.26h-7.45Zm-7.45-5.88c2.84 0 5.39-1.08 7.35-3.13v-4.31c-1.86-.88-4.11-1.37-6.56-1.37-2.06 0-3.62.39-4.9 1.08-1.27.69-1.86 1.86-1.86 3.33 0 1.37.49 2.35 1.57 3.13s2.55 1.27 4.41 1.27Zm19.4 5.88v-6.07l17.34-20.28H544.3v-6.76h25.37v5.78l-17.24 20.47h17.24v6.76h-26.65v.1Zm38.99-38.89c-.88.88-1.96 1.37-3.13 1.37-1.27 0-2.35-.49-3.23-1.37s-1.37-1.96-1.37-3.23.49-2.35 1.37-3.13c.88-.88 1.96-1.27 3.23-1.27s2.35.39 3.13 1.27c.88.88 1.27 1.96 1.27 3.13 0 1.27-.39 2.35-1.27 3.23m-6.96 38.89v-33.01h7.54v33.01zm28.12.79c-4.7 0-8.33-1.57-11.07-4.6-2.74-3.04-4.11-7.25-4.11-12.64s1.37-9.6 4.11-12.74c2.74-3.04 6.37-4.6 11.07-4.6s8.33 1.57 11.07 4.6c2.74 3.04 4.11 7.35 4.11 12.74s-1.37 9.6-4.11 12.64c-2.64 3.04-6.37 4.6-11.07 4.6m0-7.25q3.525 0 5.58-2.64c2.055-2.64 2.06-4.21 2.06-7.35s-.69-5.58-2.06-7.45-3.23-2.74-5.58-2.74-4.11.88-5.49 2.74c-1.37 1.86-2.06 4.31-2.06 7.45s.69 5.58 2.06 7.35c1.27 1.76 3.13 2.64 5.49 2.64m41.14 6.46v-18.91c0-5.09-2.06-7.74-6.17-7.74-4.51 0-6.76 2.55-6.76 7.54v19.1h-7.54v-33.01h7.54v3.13c2.16-2.55 5.09-3.92 8.72-3.92 3.43 0 6.27 1.08 8.42 3.23 2.16 2.16 3.23 5.58 3.23 10.29v20.28h-7.45Zm33.21 0v-2.64c-2.16 2.25-5.09 3.43-8.82 3.43-3.53 0-6.37-.98-8.62-2.84-2.25-1.96-3.33-4.6-3.33-8.13s1.27-6.27 3.82-8.13 5.58-2.74 9.11-2.74c3.13 0 5.78.59 7.84 1.76v-1.76c0-2.16-.49-3.62-1.57-4.6s-2.64-1.47-4.9-1.47c-3.62 0-6.86 1.08-9.8 3.13l-2.35-6.17c3.62-2.45 7.93-3.62 12.93-3.62 1.76 0 3.23.1 4.6.39 1.27.29 2.64.78 4.11 1.67 1.37.78 2.45 2.16 3.23 3.92s1.18 3.92 1.18 6.56v21.26h-7.45Zm-7.45-5.88c2.84 0 5.39-1.08 7.35-3.13v-4.31c-1.86-.88-4.11-1.37-6.56-1.37-2.06 0-3.62.39-4.9 1.08-1.27.69-1.86 1.86-1.86 3.33 0 1.37.49 2.35 1.57 3.13s2.55 1.27 4.41 1.27Zm21.65 5.88v-43.1l7.54-3.53v46.73h-7.54zm28.41.79c-4.7 0-8.42-1.57-11.17-4.6-2.74-3.04-4.11-7.35-4.11-12.74s1.37-9.6 4.11-12.64 6.47-4.6 11.17-4.6c4.21 0 7.64 1.27 10.38 3.92 2.74 2.64 4.02 6.47 4.02 11.56 0 1.76-.1 3.33-.29 4.7h-21.94c.1 2.35.98 4.21 2.45 5.58 1.47 1.47 3.23 2.16 5.29 2.16 2.94 0 5.29-1.18 6.96-3.43l4.8 4.9c-2.74 3.43-6.66 5.19-11.66 5.19Zm-7.64-20.77h14.6c-.2-2.35-.88-4.21-2.16-5.39-1.27-1.27-2.84-1.86-4.7-1.86-2.16 0-3.92.59-5.29 1.76-1.47 1.27-2.35 3.04-2.45 5.49m-354.13 85.42c-4.21 0-7.54-1.57-9.99-4.6-2.45-3.04-3.72-7.35-3.72-12.74s1.27-9.5 3.82-12.64 5.88-4.7 9.89-4.7c3.23 0 5.68 1.08 7.45 3.13v-12.54l7.54-3.43v46.73h-7.54v-2.45c-1.67 2.16-4.11 3.23-7.45 3.23Zm1.18-7.25c2.84 0 4.9-1.08 6.27-3.13v-13.81c-1.47-2.16-3.53-3.13-6.27-3.13-2.35 0-4.11.88-5.39 2.64s-1.86 4.21-1.86 7.45c0 3.04.69 5.49 1.96 7.35 1.27 1.67 3.04 2.64 5.29 2.64Zm34.58 7.25c-4.7 0-8.42-1.57-11.17-4.6-2.74-3.04-4.11-7.35-4.11-12.74s1.37-9.6 4.11-12.64 6.47-4.6 11.17-4.6c4.21 0 7.64 1.27 10.38 3.92 2.74 2.64 4.02 6.47 4.02 11.56 0 1.76-.1 3.33-.29 4.7H386.3c.1 2.35.98 4.21 2.45 5.58 1.47 1.47 3.23 2.16 5.29 2.16 2.94 0 5.29-1.18 6.96-3.43l4.8 4.9c-2.74 3.43-6.66 5.19-11.66 5.19Zm-7.64-20.77h14.6c-.2-2.35-.88-4.21-2.16-5.39-1.27-1.27-2.84-1.86-4.7-1.86-2.16 0-3.92.59-5.29 1.76-1.47 1.27-2.25 3.04-2.45 5.49m27.42 19.99v-43.1l7.54-3.53v46.73h-7.54zm31.55 0v-45.26h7.74v37.81h21.94v7.45zm53.68 0v-2.64c-2.16 2.25-5.09 3.43-8.82 3.43-3.53 0-6.37-.98-8.62-2.84-2.25-1.96-3.33-4.6-3.33-8.13s1.27-6.27 3.82-8.13 5.58-2.74 9.11-2.74c3.13 0 5.78.59 7.84 1.76v-1.76c0-2.16-.49-3.62-1.57-4.6s-2.64-1.47-4.9-1.47c-3.62 0-6.86 1.08-9.8 3.13l-2.35-6.17c3.62-2.45 7.93-3.62 12.93-3.62 1.76 0 3.23.1 4.6.39 1.27.29 2.64.78 4.11 1.67 1.37.78 2.45 2.16 3.23 3.92s1.18 3.92 1.18 6.56v21.26h-7.45Zm-7.35-5.88c2.84 0 5.39-1.08 7.35-3.13v-4.31c-1.86-.88-4.11-1.37-6.56-1.37-2.06 0-3.62.39-4.9 1.08-1.27.69-1.86 1.86-1.86 3.33 0 1.37.49 2.35 1.57 3.13s2.45 1.27 4.41 1.27Zm29.2 5.88-12.05-33.01h7.74l7.35 20.67c.49 1.76.78 2.74.88 2.94.29-1.08.59-2.16.88-2.94l7.15-20.67h7.74l-12.05 33.01zm35.85.78c-4.7 0-8.33-1.57-11.07-4.6-2.74-3.04-4.11-7.25-4.11-12.64s1.37-9.6 4.11-12.74c2.74-3.04 6.37-4.6 11.07-4.6s8.33 1.57 11.07 4.6c2.74 3.04 4.11 7.35 4.11 12.74s-1.37 9.6-4.11 12.64-6.37 4.6-11.07 4.6m0-7.25q3.525 0 5.58-2.64c2.055-2.64 2.06-4.21 2.06-7.35s-.69-5.58-2.06-7.45-3.23-2.74-5.58-2.74-4.11.88-5.49 2.74c-1.37 1.86-2.06 4.31-2.06 7.45s.69 5.58 2.06 7.35c1.27 1.76 3.13 2.64 5.49 2.64m20.67 6.47v-33.01h7.54v3.43c1.37-2.84 3.62-4.21 6.76-4.21 2.35 0 4.41.78 6.17 2.25l-1.08 6.96c-1.67-1.18-3.53-1.76-5.58-1.76-1.76 0-3.23.59-4.41 1.76s-1.76 3.23-1.76 6.07v18.51zm37.52.78c-4.7 0-8.33-1.57-11.07-4.6-2.74-3.04-4.11-7.25-4.11-12.64s1.37-9.6 4.11-12.74c2.74-3.04 6.37-4.6 11.07-4.6s8.33 1.57 11.07 4.6c2.74 3.04 4.11 7.35 4.11 12.74s-1.37 9.6-4.11 12.64c-2.64 3.04-6.37 4.6-11.07 4.6m0-7.25q3.525 0 5.58-2.64c2.055-2.64 2.06-4.21 2.06-7.35s-.69-5.58-2.06-7.45-3.23-2.74-5.58-2.74-4.11.88-5.49 2.74c-1.37 1.86-2.06 4.31-2.06 7.45s.69 5.58 2.06 7.35c1.27 1.76 3.13 2.64 5.49 2.64M69.58 66.12c-1.27 2.16-1.67 3.04-1.67 3.04-.98 1.86-3.33 2.84-5.29 2.06l-3.53-1.37c-1.96-.78-4.21.29-4.9 2.25l-2.74 7.15c-.78 1.96.29 4.21 2.25 4.9l3.53 1.37c1.96.78 3.13 3.04 2.64 5.09l-1.57 7.74c-.29 2.06-2.35 3.72-4.41 3.62l-3.82-.1c-2.06-.1-3.82 1.57-3.92 3.72l-.29 7.64c-.1 2.06 1.57 3.82 3.72 3.92l3.82.1c2.06.1 4.02 1.86 4.11 3.92l1.08 7.84c.39 2.06-.98 4.21-2.94 4.9l-3.72 1.18c-1.96.59-3.13 2.74-2.55 4.8l3.33 10.97 20.57-6.37c-9.4-23.02-8.52-49.96 4.9-73.18s36.34-37.52 60.93-40.85l-4.8-20.96-11.17 2.35a3.82 3.82 0 0 0-2.84 4.6l.88 3.82c.49 2.06-.78 4.31-2.74 5l-7.35 3.04c-1.86.88-4.41.1-5.49-1.67l-2.06-3.23c-1.08-1.76-3.43-2.35-5.29-1.18l-6.47 4.02c-1.76 1.08-2.35 3.43-1.18 5.29l2.06 3.23c1.08 1.76.69 4.31-.98 5.58l-5.98 5.29c-1.47 1.47-4.11 1.57-5.68.2l-2.94-2.45c-1.67-1.37-4.02-1.08-5.39.59l-4.8 5.88c-1.37 1.67-1.08 4.02.59 5.39l2.94 2.45c1.67 1.37 2.06 3.82.88 5.58 0-.2-.59.69-1.76 2.84Zm79.35 137.54c2.45 0 3.53-.1 3.53-.1 2.06-.1 4.11 1.47 4.41 3.53l.59 3.82c.29 2.06 2.25 3.53 4.41 3.13l7.54-1.18c2.06-.29 3.53-2.25 3.13-4.41l-.59-3.72c-.29-2.06 1.08-4.21 3.04-4.8l7.54-2.55c1.96-.78 4.41.1 5.39 1.96l1.76 3.33c.98 1.86 3.33 2.55 5.19 1.57l6.76-3.62c1.86-.98 2.55-3.33 1.57-5.19l-1.86-3.43c-.98-1.86-.39-4.31 1.27-5.58l6.27-4.8c1.57-1.37 4.21-1.27 5.68.1l2.84 2.64c1.57 1.47 3.92 1.37 5.39-.2l7.84-8.33-15.77-14.6c-15.18 19.69-39.09 32.33-65.83 32.33s-50.65-12.64-65.83-32.33l-15.87 14.69 7.84 8.33c1.47 1.57 3.82 1.67 5.39.2l2.84-2.64c1.57-1.47 4.11-1.47 5.68-.1l6.27 4.8c1.67 1.18 2.35 3.72 1.27 5.58l-1.86 3.43c-.98 1.86-.29 4.21 1.57 5.19l6.76 3.62c1.86.98 4.21.29 5.19-1.57l1.76-3.33c.98-1.86 3.43-2.74 5.39-1.96l7.54 2.55c2.06.59 3.43 2.74 3.04 4.8l-.59 3.72c-.29 2.06 1.08 4.02 3.13 4.41l7.54 1.18c2.06.29 4.02-1.08 4.41-3.13l.59-3.82c.29-2.06 2.35-3.62 4.41-3.53h3.43Zm79.44-137.54c-1.27-2.16-1.76-3.04-1.76-3.04-1.18-1.76-.78-4.31.88-5.58l2.94-2.45c1.67-1.37 1.86-3.72.59-5.39l-4.8-5.88c-1.37-1.67-3.72-1.86-5.39-.59l-2.94 2.45c-1.67 1.37-4.21 1.18-5.68-.2l-5.98-5.29c-1.67-1.27-2.06-3.82-.98-5.58l2.06-3.23c1.08-1.76.59-4.11-1.18-5.29l-6.47-4.02c-1.76-1.08-4.11-.59-5.29 1.18l-2.06 3.23c-1.08 1.76-3.53 2.55-5.49 1.67l-7.35-3.04c-1.96-.69-3.23-2.94-2.74-5l.88-3.82c.49-2.06-.78-4.11-2.84-4.6L163.6 9.1l-4.8 20.96c24.69 3.33 47.51 17.63 60.93 40.85s14.3 50.16 4.9 73.18l20.57 6.37 3.33-10.97c.59-1.96-.49-4.11-2.55-4.8l-3.72-1.18c-1.96-.59-3.33-2.84-2.94-4.9l1.08-7.84c.2-2.06 2.06-3.82 4.11-3.92l3.82-.1c2.06-.1 3.72-1.86 3.72-3.92l-.29-7.64c-.1-2.06-1.86-3.72-3.92-3.72l-3.82.1c-2.06.1-4.11-1.57-4.41-3.62l-1.57-7.74c-.49-2.06.69-4.31 2.64-5.09l3.53-1.37a3.885 3.885 0 0 0 2.25-4.9l-2.74-7.15a3.885 3.885 0 0 0-4.9-2.25l-3.53 1.37c-1.96.78-4.31-.2-5.29-2.06 0 .39-.39-.49-1.67-2.64ZM29.8 64.36c-.1.1-.1.2-.1.2s0-.1.1-.2m32.82-43.2.29.39c.88-.59 4.02-2.84 7.74-3.92C91.42 11.75 90.34 4.6 99.16.39L98.87 0c-.88.59-3.53 2.16-7.35 2.16-24.39.2-22.53 14.4-28.9 19" class="cls-1"/><path d="m38.42 48.2.49.29c4.9-5.49 9.7-6.47 10.48-6.76 19.3-5.68 26.06-18.51 31.25-22.14l-.2-.29c-7.15 5.09-15.58-.1-30.07 15.38-.1.1-.49-.49-.49-.49 11.76-14.2 12.05-23.8 17.44-29l-.29-.29c-34.29 20.38-19.2 31.54-28.61 43.3" class="cls-1"/><path d="M39.8 24.49C7.57 56.43 27.65 64.65 22.56 80.52l.29.1c2.94-6.76 10.38-9.7 10.58-9.8 13.62-6.27 17.93-22.24 23.41-27.04l-.29-.29c-6.66 7.25-17.63 3.13-26.65 21.06 0 .1-.59-.29-.59-.29 7.25-15.58 3.82-29.68 10.78-39.48-.1 0-.2-.2-.29-.29" class="cls-1"/><path d="M16.38 122.94h.49c-.1-1.86-.59-9.4 6.96-16.46 15.28-14.2 12.74-26.74 19-36.54l-.49-.29c-4.9 8.33-22.73 17.44-23.41 30.17l-.69-.1c2.64-18.32-7.05-30.47-1.76-42.12-.2-.1-.39-.2-.49-.29-20.47 42.12-3.43 41.54.39 65.63" class="cls-1"/><path d="m24.32 162.91.49-.2c-4.21-9.5 2.84-22.43 3.13-23.12 9.31-18.03 6.17-34.38 8.33-40.07l-.49-.1c-5 12.34-18.71 19.1-16.56 39.87h-.69c-2.16-12.83-16.85-25.27-16.36-39.38h-.29c-9.01 50.06 16.95 49.67 22.43 62.99Z" class="cls-1"/><path d="m45.09 199.94.39-.29c-8.72-10.58-6.07-22.04-5.88-22.83 4.31-24.98-3.72-29.49-3.92-40.75h-.39c-.39 12.64-13.32 26.84-1.57 44.47l-.59.39c-12.93-18.91-23.22-14.3-29.29-33.01-.2 0-.39.1-.49.2 9.01 54.86 33.5 38.21 41.73 51.82Z" class="cls-1"/><path d="m95.63 223.94-.1-.49c-17.05 3.43-25.76.1-28.8-15.58-4.41-22.04-19.4-30.47-21.16-39.28-.29 0-.39 0-.39.1 3.23 15.58-4.31 24.78 14.4 43.4l-.49.39c-18.03-14.3-30.47-9.01-37.62-19-.1.1-.29.2-.29.29 22.24 37.13 46.24 39.18 74.45 30.17" class="cls-1"/><path d="m53.51 230.31.1-.2c22.92 13.32 46.92-5.29 75.92-5.98 7.25-.2 29.09 1.18 49.08 24.39l-5.29 1.47c-6.56-11.46-16.75-19.79-26.06-22.04-26.45-6.56-26.94 18.03-56.23 18.42-21.85.29-36.74-15.18-37.52-16.07ZM267.85 64.36c.1.1.1.2.1.2s-.1-.1-.1-.2" class="cls-1"/><path d="M267.85 64.36c.1.1.1.2.1.2s-.1-.1-.1-.2m-238.05 0c-.1.1-.1.2-.1.2s0-.1.1-.2" class="cls-1"/><path d="M267.85 64.36c.1.1.1.2.1.2s-.1-.1-.1-.2m-32.82-43.2-.29.39c-.88-.59-4.02-2.84-7.74-3.92C206.23 11.75 207.31 4.6 198.49.39l.29-.39c.88.59 3.53 2.16 7.35 2.16 24.29.2 22.43 14.4 28.9 19" class="cls-1"/><path d="m259.23 48.2-.49.29c-4.9-5.49-9.7-6.47-10.48-6.76-19.3-5.68-26.06-18.51-31.25-22.14l.2-.29c7.15 5.09 15.58-.1 30.07 15.38.1.1.49-.49.49-.49-11.76-14.2-12.05-23.8-17.44-29l.29-.29c34.19 20.38 19.2 31.54 28.61 43.3" class="cls-1"/><path d="M257.76 24.49c32.23 31.94 12.15 40.07 17.24 56.03l-.29.1c-2.94-6.76-10.38-9.7-10.58-9.8-13.62-6.27-17.93-22.24-23.41-27.04l.29-.29c6.66 7.25 17.63 3.13 26.65 21.06 0 .1.59-.29.59-.29-7.25-15.58-3.82-29.68-10.78-39.48.1 0 .2-.2.29-.29" class="cls-1"/><path d="M281.17 122.94h-.49c.1-1.86.59-9.4-6.96-16.46-15.28-14.2-12.74-26.74-19-36.54l.49-.29c4.9 8.33 22.73 17.44 23.41 30.17l.69-.1c-2.64-18.32 7.05-30.47 1.76-42.12.2-.1.39-.2.49-.29 20.47 42.12 3.53 41.54-.39 65.63" class="cls-1"/><path d="m273.34 162.91-.49-.2c4.21-9.5-2.84-22.43-3.13-23.12-9.31-18.03-6.17-34.38-8.33-40.07l.49-.1c5 12.34 18.71 19.1 16.56 39.87h.69c2.16-12.93 16.85-25.27 16.36-39.38h.29c9.01 50.06-17.05 49.67-22.43 62.99Z" class="cls-1"/><path d="m252.47 199.94-.39-.29c8.72-10.58 6.07-22.04 5.88-22.83-4.31-24.98 3.72-29.49 3.92-40.75h.39c.39 12.64 13.32 26.84 1.57 44.47l.59.39c12.93-18.91 23.22-14.3 29.29-33.01.2 0 .39.1.49.2-8.91 54.86-33.41 38.21-41.73 51.82Z" class="cls-1"/><path d="m202.02 223.94.1-.49c17.05 3.43 25.76.1 28.8-15.58 4.31-22.04 19.3-30.47 21.06-39.28.29 0 .39 0 .39.1-3.23 15.58 4.31 24.78-14.4 43.4l.49.39c18.03-14.3 30.47-9.01 37.62-19 .1.1.29.2.29.29-22.24 37.13-46.24 39.18-74.35 30.17" class="cls-1"/><path d="m244.14 230.31-.1-.2c-22.92 13.32-46.92-5.29-75.92-5.98-7.25-.2-29.09 1.18-49.08 24.39l5.29 1.47c6.56-11.46 16.75-19.79 26.06-22.04 26.45-6.56 26.94 18.03 56.23 18.42 21.75.29 36.64-15.18 37.52-16.07ZM29.8 64.36c-.1.1-.1.2-.1.2s0-.1.1-.2" class="cls-1"/><path d="M29.8 64.36c-.1.1-.1.2-.1.2s0-.1.1-.2m238.05 0c.1.1.1.2.1.2s-.1-.1-.1-.2m-83.36.69h-.39c-10.68 0-21.06 6.86-26.16 18.42-2.64 5.88-3.23 13.42-3.23 20.77s.59 14.89 3.23 20.77c5.09 11.46 15.48 19.4 26.16 19.4h.39c10.68 0 21.06-7.84 26.16-19.4 2.64-5.88 3.23-13.42 3.23-20.77s-.59-14.89-3.23-20.77c-5.09-11.46-15.48-18.42-26.16-18.42m16.46 39.67c0 6.86-.2 12.83-.2 12.83-.39 5.58-.49 11.27-3.13 15.09-2.94 4.41-7.64 6.66-12.44 6.66l-.2.1h-.59l-.2-.1c-4.7 0-9.5-2.25-12.44-6.66-2.64-3.82-2.74-9.5-3.13-15.09 0 0-.2-5.88-.2-12.64v-.29c0-6.86.2-12.83.2-12.83.39-5.58.49-11.27 3.13-15.09 2.94-4.41 7.64-6.66 12.44-6.66l.2-.1h.59l.2.1c4.7 0 9.5 2.25 12.44 6.66 2.64 3.82 2.74 9.5 3.13 15.09 0 0 .2 5.88.2 12.64z" class="cls-1"/><path d="M192.52 147.63s-2.06 5.49-5.98 8.82c-2.16 1.86-5.29 2.35-7.84 2.64l-26.35 1.27h-5.78s-4.41-.29-4.7-4.31V63.58c.2-4.11 4.7-4.31 4.7-4.31h5.78v-5.39h-35.27v5.39h5.78s4.41.29 4.7 4.31v92.38c-.2 4.11-4.7 4.31-4.7 4.31h-5.78v5.39h35.27l38.21.1 4.7-17.05v-.59z" class="cls-1"/><path d="M109.64 75.24c.2-3.43 3.92-3.62 3.92-3.62h4.9v-4.51H89.07v4.51h4.9s3.72.2 3.92 3.62v59.07c-.2 3.43-3.92 3.62-3.92 3.62h-4.9v4.51h29.39v-4.51h-4.9s-3.72-.2-3.92-3.62z" class="cls-1"/></svg>