<svg xmlns="http://www.w3.org/2000/svg" xml:space="preserve" id="Layer_1" x="0" y="0" version="1.1" viewBox="0 0 3443.5 1000"><style>.st0{fill:#1e2dbe}</style><g id="Lockup"><path d="M634.3 185.7h-1.2c-29 0-54.1 39.2-68.2 118-6.7 37.6-8.2 86.6-8.2 133.6s1.6 96 8.2 133.2c14.1 78.8 39.6 124.2 68.2 124.2h1.2c29 0 54.1-45.4 68.2-124.2 6.7-37.6 8.2-86.2 8.2-133.2s-1.6-96-8.2-133.6c-14.1-78.4-39.2-118-68.2-118m32.6 254.8c0 48.2-.4 89.4-.4 89.4-.8 39.2-1.2 78.8-6.3 105.4-5.9 30.6-14.9 46.2-24.3 46.2l-.4.4h-1.2l-.4-.4c-9.4 0-18.4-16.1-24.3-46.2-5.1-26.6-5.1-66.2-6.3-105.4 0 0-.4-40.8-.4-88.6v-2.4c0-48.2.4-89.4.4-89.4.8-39.2 1.2-78.8 6.3-105.4 5.9-30.6 14.9-46.2 24.3-46.2l.4-.4h1.2l.4.4c9.4 0 18.4 16.1 24.3 46.2 5.1 26.6 5.1 66.2 6.3 105.4.3 25.1.4 54.6.4 88.6zM278.5 264.1c-5.1 8.6-6.7 12.2-6.7 12.2-3.9 7.4-13.3 11.4-21.2 8.2l-14.1-5.5c-7.8-3.1-16.8 1.2-19.6 9l-11.4 28.6c-3.1 7.8 1.2 16.8 9 19.6l14.1 5.5c7.8 3.1 12.5 12.2 10.6 20.4l-6.3 31c-1.2 8.2-9.4 14.9-17.6 14.5l-15.3-.4c-8.2-.4-15.3 6.3-15.7 14.9l-1.2 30.6c-.4 8.2 6.3 15.3 14.9 15.7l15.3.4c8.2.4 16.1 7.4 16.4 15.7l4.3 31.4c1.6 8.2-3.9 16.8-11.8 19.6l-14.9 4.7c-7.8 2.4-12.5 11-10.2 19.2l13.3 43.9 82.3-25.5c-37.6-92.1-34.1-199.8 19.6-292.7S457.7 135 556 121.7l-19.2-83.8-44.7 10.2c-8.2 2-13.3 10.2-11.4 18.4l3.5 15.3c2 8.2-3.1 17.2-11 20l-29 11.4c-7.4 3.5-17.6.4-22-6.7L414 93.6c-4.3-7-13.7-9.4-21.2-4.7L366.9 105c-7 4.3-9.4 13.7-4.7 21.2l8.2 12.9c4.3 7 2.8 17.2-3.9 22.3L343 182.2c-5.9 5.9-16.4 6.3-22.7.8l-11.8-9.8c-6.7-5.5-16.1-4.3-21.6 2.4l-19.2 23.5c-5.5 6.7-4.3 16.1 2.4 21.6l11.8 9.8c6.7 5.5 8.2 15.3 3.5 22.3 0-.4-2.4 3.1-7 11.4z" class="st0"/><path d="M595.9 814.7c9.8 0 14.1-.4 14.1-.4 8.2-.4 16.4 5.9 17.6 14.1l2.4 15.3c1.2 8.2 9 14.1 17.6 12.5l30.2-4.7c8.2-1.2 14.1-9.4 12.5-17.6l-2.4-14.9c-1.2-8.2 4.3-16.8 12.2-19.2l30.2-10.2c7.8-3.1 17.6.4 21.6 7.8l7 13.3c3.9 7.4 13.3 10.2 20.8 6.3l27-14.5c7.4-3.9 10.2-13.3 6.3-20.8l-7.4-13.7c-3.9-7.4-1.6-17.2 5.1-22.3l25.1-19.2c6.3-5.5 16.8-5.1 22.7.4l11.4 10.6c6.3 5.9 15.7 5.5 21.6-.8l31.4-33.3-63.1-58.4c-60.7 78.8-156.4 129.3-263.3 129.3S393.7 723.7 333 644.9l-63.1 58.4 31.4 33.3c5.9 6.3 15.3 6.7 21.6.8l11.4-10.6c6.3-5.9 16.4-5.9 22.7-.4l25.1 19.2c6.7 4.7 9.4 14.9 5.1 22.3l-7.4 13.7c-3.9 7.4-1.2 16.8 6.3 20.8l27 14.5c7.4 3.9 16.8 1.2 20.8-6.3l7-13.3c3.9-7.4 13.7-11 21.6-7.8l30.2 10.2c8.2 2.4 13.7 11 12.2 19.2l-2.4 15.3c-1.2 8.2 4.3 16.1 12.5 17.6l30.2 4.7c8.2 1.2 16.1-4.3 17.6-12.5l2.4-15.3c1.2-8.2 9.4-14.5 17.6-14.1-.6.1 3.3.1 13.1.1m317.8-550.2c-5.1-8.6-7-12.2-7-12.2-4.7-7-3.1-17.2 3.5-22.3l11.8-9.8c6.7-5.5 7.4-14.9 2.4-21.6l-19.2-23.5c-5.5-6.7-14.9-7.4-21.6-2.4l-11.8 9.8c-6.7 5.5-16.8 4.7-22.7-.8l-23.9-21.2c-6.7-5.1-8.2-15.3-3.9-22.3l8.2-12.9c4.3-7 2.4-16.4-4.7-21.2L798.9 88c-7-4.3-16.4-2.4-21.2 4.7l-8.2 12.9c-4.3 7-14.1 10.2-22 6.7l-29.4-12.2c-7.8-2.8-12.9-11.8-11-20l3.5-15.3c2-8.2-3.1-16.4-11.4-18.4l-44.7-10.2-19.2 83.8c98.8 13.3 190 70.5 243.7 163.4s57.2 200.6 19.6 292.7l82.3 25.5 13.3-43.9c2.4-7.8-2-16.4-10.2-19.2l-14.9-4.7c-7.8-2.4-13.3-11.4-11.8-19.6l4.3-31.4c.8-8.2 8.2-15.3 16.4-15.7l15.3-.4c8.2-.4 14.9-7.4 14.9-15.7l-1.2-30.6c-.4-8.2-7.4-14.9-15.7-14.9l-15.3.4c-8.2.4-16.4-6.3-17.6-14.5l-6.3-31c-2-8.2 2.8-17.2 10.6-20.4l14.1-5.5c7.8-3.1 11.8-11.8 9-19.6l-11-28.6c-3.1-7.8-11.8-11.8-19.6-9l-14.1 5.5c-7.8 3.1-17.2-.8-21.2-8.2 0 1.6-1.6-2-6.7-10.6zm-794.3-7.1-.4.4zM250.3 84.6l1.2 1.6c3.5-2.4 16.1-11.4 31-15.7 83.1-23.5 78.8-52.1 114-69L395.3 0c-3.5 2.4-14.1 8.6-29.4 8.6-97.2.8-89.7 57.6-115.6 76" class="st0"/><path d="m153.9 192.4 2 1.2c19.6-22 38.8-25.9 41.9-27 77.2-22.7 104.2-74 125-88.6l-.8-1.2c-28.6 20.4-62.3-.4-120.3 61.5-.4.4-2-2-2-2 47-56.8 48.2-95.2 69.8-116l-1.2-.8c-137.1 81.6-76.7 126.2-114.4 172.9" class="st0"/><path d="M159.4 98c-128.9 127.8-48.6 160.3-69 224.1l1.2.4c11.8-27 41.5-38.8 42.3-39.2 54.5-25.1 71.7-89 93.6-108.2l-1.2-1.2c-26.6 29-70.5 12.5-106.6 84.2 0 .4-2.4-1.2-2.4-1.2 29-62.3 15.3-119.1 43.1-157.9-.2-.3-.6-.7-1-1" class="st0"/><path d="M65.7 491.4h2c-.4-7.4-2.4-37.6 27.8-65.8 61.1-56.8 51-107 76-146.2l-2-1.2C150 311.5 78.6 348 75.9 398.9l-2.8-.4c10.6-73.3-28.2-121.9-7-168.5-.8-.4-1.6-.8-2-1.2-81.8 168.9-13.7 166.6 1.6 262.6" class="st0"/><path d="m97.1 651.3 2-.8c-16.8-38 11.4-89.7 12.5-92.5 37.2-72.1 24.7-137.5 33.3-160.3l-2-.4c-20 49.4-74.8 76.4-66.2 159.5h-2.8C65.3 505.1 6.5 455.7 8.5 399.3H7.3c-35.6 200.6 68.2 199 89.8 252" class="st0"/><path d="m180.6 799.8 1.6-1.2c-34.9-42.3-24.3-88.2-23.5-91.3 17.2-99.9-14.9-118-15.7-163h-1.6c-1.6 50.6-53.3 107.4-6.3 177.9l-2.4 1.6c-51.7-75.6-92.9-57.2-117.2-132-.8 0-1.6.4-2 .8 36.1 219.3 134.1 152.7 167.1 207.2" class="st0"/><path d="m382.4 895.4-.4-2c-68.2 13.7-103 .4-115.2-62.3-17.2-88.2-77.2-121.9-84.2-157.1-1.2 0-1.6 0-1.6.4 12.9 62.3-17.2 99.1 57.6 173.6l-2 1.6c-72.1-57.2-121.9-36-150.5-76-.4.4-1.2.8-1.2 1.2 89 148.8 185 157 297.5 120.6" class="st0"/><path d="m214.2 921.3.4-.8c91.7 53.7 187.7-21.2 303.7-23.9 29-.8 116.4 4.7 196.3 97.6l-21.2 5.9c-26.2-45.8-67-79.2-104.2-88.2-105.8-26.2-107.8 72.1-224.9 73.7-87.4 1.1-146.9-61.2-150.1-64.3m857.1-663.9.4.4zm0 0 .4.4zm-951.9 0-.4.4zm951.9 0 .4.4zM940.4 84.6l-1.2 1.6c-3.5-2.4-16.1-11.4-31-15.7-83.1-23.5-78.8-52.1-114-69l1.2-1.6c3.5 2.4 14.1 8.6 29.4 8.6 97.2.9 89.7 57.7 115.6 76.1" class="st0"/><path d="m1037.2 192.4-2 1.2c-19.6-22-38.8-25.9-41.9-27-77.2-22.7-104.2-74-125-88.6l.8-1.2c28.6 20.4 62.3-.4 120.3 61.5.4.4 2-2 2-2-47-56.8-48.2-95.2-69.8-116l1.2-1.2c136.7 82 76.7 126.7 114.4 173.3" class="st0"/><path d="M1031.3 98c128.9 127.8 48.6 160.3 69 224.1l-1.2.4c-11.8-27-41.5-38.8-42.3-39.2-54.5-25.1-71.7-89-93.6-108.2l1.2-1.2c26.6 29 70.9 12.5 106.6 84.2 0 .4 2.4-1.2 2.4-1.2-29-62.3-15.3-119.1-43.1-157.9.2-.3.6-.7 1-1" class="st0"/><path d="M1125 491.4h-2c.4-7.4 2.4-37.6-27.8-65.8-61.1-56.8-51-107-76-146.2l2-1.2c19.6 33.3 90.9 69.8 93.6 120.7l2.8-.4c-10.6-73.3 28.2-121.9 7-168.5.8-.4 1.6-.8 2-1.2 81.8 168.9 14 166.6-1.6 262.6" class="st0"/><path d="m1093.6 651.3-2-.8c16.8-38-11.4-89.7-12.5-92.5-37.2-72.1-24.7-137.5-33.3-160.3l1.6-.4c20 49.4 74.8 76.4 66.2 159.5h2.8c8.6-51.7 67.4-101.1 65.4-157.5h1.2c36.4 200.6-67.8 199-89.4 252" class="st0"/><path d="m1010.1 799.8-1.2-1.2c34.9-42.3 24.3-88.2 23.5-91.3-17.2-99.9 14.9-118 15.7-163h1.6c1.6 50.6 53.3 107.4 6.3 177.9l2.4 1.6c51.7-75.6 92.9-57.2 117.2-132 .8 0 1.6.4 2 .8-36.6 219.3-134.1 152.7-167.5 207.2" class="st0"/><path d="m808.3 895.4.4-2c68.2 13.7 103 .4 115.2-62.3 17.2-88.2 77.2-121.9 84.2-157.1 1.2 0 1.6 0 1.6.4-12.9 62.3 17.2 99.1-57.6 173.6l2 1.6c72.1-57.2 121.9-36 150.5-76 .4.4 1.2.8 1.2 1.2-89 148.8-185 157-297.5 120.6" class="st0"/><path d="m976.8 921.3-.4-.8c-91.7 53.7-187.7-21.2-303.7-23.9-29-.8-116.4 4.7-196.3 97.6l21.2 5.9c26.2-45.8 67-79.2 104.2-88.2 105.8-26.2 107.8 72.1 224.9 73.7 87.1 1.1 146.6-61.2 150.1-64.3M119.4 257.4l-.4.4zm0 0-.4.4zm951.9 0 .4.4zM536 307.6h2.8v-16.1h-53.7L449 491h-.8l-45.1-199.4H320v16.1h14.9s11.4.8 11.8 11v244.1c-.8 10.6-11.8 11-11.8 11H320v16.1h68.6v-16.1h-14.9s-11.4-.8-11.8-11V329.5l62.3 264.1H440l47.8-263.7v233.2c-.8 10.6-11.8 11-11.8 11h-14.9v16.1h77.6v-16.1H536s-11.4-.8-11.8-11V318.6c.4-10.2 11.8-11 11.8-11m333.8-16.8V386h-17.6v-26.2c0-.8 1.6-55.6-49.4-51.3v252.4s1.6 14.9 29.4 12.9v16.1H724.5v-16.1c28.2 1.6 31.4-12.9 31.4-12.9V308.4c-51-3.9-49.4 50.6-49.4 51.3v25.9h-17.6v-94.8zm596.5 3.5-49.4-147.7h-1.2c.4 3.5.8 8.2.8 14.1.4 6.3.4 12.9.8 20s.4 13.7.4 20v93.6h-29V114h45.1l47.4 141.8h1.2l49.4-141.8h45.1v180.6h-31v-95.2c0-5.9 0-12.2.4-18.8s.4-13.3.8-19.6.4-11 .8-14.1h-1.2L1495 294.7h-28.6v-.4zm201.8-139.5c18.4 0 32.9 5.5 43.5 16.4 10.6 11 16.1 26.2 16.1 45.8v16.1h-90.5c.4 12.5 3.9 22 10.2 29 6.7 6.7 15.7 10.2 27.4 10.2 8.6 0 16.8-.8 23.9-2.8 7-2 14.5-4.3 21.6-7.8v25.5c-6.7 3.1-13.7 5.5-21.2 7-7 1.6-16.1 2.4-25.9 2.4-13.3 0-25.5-2.8-35.6-7.8-10.2-5.1-18.4-12.9-24.3-23.1s-8.6-23.5-8.6-39.2c0-23.5 5.9-41.2 17.2-53.7 12.1-11.8 27.4-18 46.2-18m0 23.5c-8.6 0-15.7 2.8-20.8 8.2-5.5 5.5-8.2 13.7-9.4 24.3h58.8c0-9.4-2.8-17.2-7-23.5-4.4-5.9-11.8-9-21.6-9m272.7-20.8-52.5 65.8 57.2 70.9H1911l-54.8-69.4v69.4h-29.8v-69.4l-54.8 69.4H1737l57.6-70.9-52.9-65.8h33.7l51 66.6v-66.6h29.8v66.6l51.3-66.6zm147.4 0v112.8h20v72.9h-29.4v-49h-93.3v48.6h-29V270h11.4c9.8-14.5 17.6-31.7 22.7-51.7s8.6-40.4 9.8-60.7zm-31.4 24.3h-29c-1.6 15.7-4.7 31.7-9 47-4.3 15.7-10.2 29.4-17.6 41.2h55.6zm59.2-24.3h34.5l27.4 77.2c2 4.7 3.5 9.8 4.7 14.5q1.8 7.05 2.4 14.1h1.2c.8-4.3 1.6-9 3.1-14.1 1.2-5.1 2.8-9.8 4.7-14.9l26.2-77.2h34.5l-59.2 155.6c-5.1 13.7-12.5 24.3-21.6 31.4-9 7.4-20 11-33.3 11-4.3 0-7.8-.4-11-.8-3.1-.4-5.9-.8-7.8-1.6v-25.1c2 .4 3.9.8 6.7 1.2s5.5.4 8.2.4c7.8 0 14.1-2.4 18.8-7 4.7-4.7 8.2-10.6 11-17.2l3.9-11zm188 0V212h60.7v-54.5h31.7v137.2h-31.7v-58.4h-60.4v58h-31.7V157.1h31.4zm181.5-2.7c17.6 0 31 3.9 40.4 11.8 9 7.8 13.7 19.6 13.7 36v92.1h-22.3l-6.3-18.8h-1.2c-5.9 7.4-12.2 12.9-18.8 16.4-6.7 3.5-15.7 5.1-26.6 5.1-12.2 0-22.3-3.5-30.6-10.2-8.2-7-12.2-17.6-12.2-32.1s5.1-24.7 15.7-31.7c10.2-7 26.2-11 47-11.8l23.9-.8V203c0-8.6-2-14.9-6.3-18.8-4.3-3.5-10.2-5.5-17.6-5.5-7 0-13.7.8-20 2.8s-12.5 4.3-18.8 7l-10.2-22.3c6.7-3.5 14.5-6.3 23.1-8.6 8.3-1.6 17.7-2.8 27.1-2.8m22.3 74.8-16.8.4c-14.1.4-23.5 2.8-29 7-5.5 4.3-8.2 10.2-8.2 17.2 0 6.7 2 11.4 5.9 14.1 3.9 2.8 8.6 4.3 14.9 4.3 9.4 0 17.2-2.8 23.5-7.8 6.3-5.5 9.8-13.3 9.8-23.5zm340.9-3.9c0 22.7-5.9 40.4-17.6 52.5-11.8 12.5-27.8 18.4-48.2 18.4-12.5 0-23.5-2.8-33.3-8.2-9.8-5.5-17.6-13.7-23.1-24.3s-8.2-23.5-8.2-38.8c0-22.7 5.9-40.4 17.6-52.5 11.8-12.2 27.8-18.4 47.8-18.4 12.5 0 23.9 2.8 33.7 8.2 9.8 5.5 17.6 13.3 23.1 23.9 5.4 11 8.2 24 8.2 39.2m-97.5 0c0 14.5 2.8 25.9 7.8 33.7s13.3 11.8 25.1 11.8 19.6-3.9 24.7-11.8 7.8-19.2 7.8-33.7-2.8-25.5-7.8-33.3c-5.1-7.8-13.7-11.8-25.1-11.8s-19.6 3.9-24.7 11.8c-5.5 7.8-7.8 18.8-7.8 33.3m241-68.2v112.8h20v72.9h-29.4v-49h-93.3v48.6h-29V270h11.4c9.8-14.5 17.6-31.7 22.7-51.7s8.6-40.4 9.8-60.7zm-31.7 24.3h-29c-1.6 15.7-4.7 31.7-9 47-4.3 15.7-10.2 29.4-17.6 41.2h55.6zm104.2-24.3V212h60.4v-54.5h31.7v137.2H3125v-58.4h-60.4v58H3033V157.1h31.7zm181-2.7c17.6 0 31 3.9 40.4 11.8 9 7.8 13.7 19.6 13.7 36v92.1h-22.3l-6.3-18.8h-1.2c-5.9 7.4-12.2 12.9-18.8 16.4-6.7 3.5-15.7 5.1-26.6 5.1-12.2 0-22.3-3.5-30.6-10.2-8.2-7-12.2-17.6-12.2-32.1s5.1-24.7 15.7-31.7c10.2-7 26.2-11 47-11.8l23.9-.8V203c0-8.6-2-14.9-6.3-18.8-4.3-3.5-10.2-5.5-17.6-5.5-7 0-13.7.8-20 2.8s-12.5 4.3-18.8 7l-10.2-22.3c6.7-3.5 14.5-6.3 23.1-8.6 8.8-1.6 17.8-2.8 27.1-2.8m22.7 74.8-16.8.4c-14.1.4-23.5 2.8-29 7-5.5 4.3-8.2 10.2-8.2 17.2 0 6.7 2 11.4 5.9 14.1 3.9 2.8 8.6 4.3 14.9 4.3 9.4 0 17.2-2.8 23.5-7.8 6.3-5.5 9.8-13.3 9.8-23.5zm85.1 64.7h-35.3l37.6-55.2c-4.7-1.6-9.4-4.3-13.7-7.4s-7.8-7.4-10.6-12.9-3.9-11.8-3.9-19.6c0-13.3 4.7-23.9 14.5-31 9.8-7 22.3-10.6 38.4-10.6h63.1v137.2h-31.7v-52.5h-25.5zm5.1-94.9c0 6.7 2.4 11.4 7.4 14.9s11.8 5.1 20 5.1h25.5V181h-29.8c-8.2 0-14.1 2-17.6 5.5-3.6 3.1-5.5 7.4-5.5 12.9M1508.2 478.5c0 22.7-5.9 40.4-17.6 52.5-11.8 12.5-27.8 18.4-48.2 18.4-12.5 0-23.5-2.8-33.3-8.2-9.8-5.5-17.6-13.7-23.1-24.3s-8.2-23.5-8.2-38.8c0-22.7 5.9-40.4 17.6-52.5s27.8-18.4 47.8-18.4c12.5 0 23.9 2.8 33.7 8.2 9.8 5.5 17.6 13.3 23.1 23.9 5.4 11 8.1 23.9 8.2 39.2m-98 0c0 14.5 2.8 25.9 7.8 33.7 5.1 7.8 13.3 11.8 25.1 11.8s19.6-3.9 24.7-11.8c5.1-7.8 7.8-19.2 7.8-33.7s-2.8-25.5-7.8-33.3c-5.1-7.8-13.7-11.8-25.1-11.8s-19.6 3.9-24.7 11.8c-5.4 7.8-7.8 18.7-7.8 33.3m368.4-68.2V435h-58.8v112.5h-31.7V410.3zm72.9-2.8c17.6 0 31 3.9 40.4 11.8 9 7.8 13.7 19.6 13.7 36v92.1h-22.3l-6.3-18.8h-1.2c-5.9 7.4-12.2 12.9-18.8 16.4-6.7 3.5-15.7 5.1-26.6 5.1-12.2 0-22.3-3.5-30.6-10.2-8.2-7-12.2-17.6-12.2-32.1s5.1-24.7 15.7-31.7c10.2-7 26.2-11 47-11.8l23.9-.8v-6.7c0-8.6-2-14.9-6.3-18.8-4.3-3.5-10.2-5.5-17.6-5.5-7 0-13.7.8-20 2.8s-12.5 4.3-18.8 7l-10.2-22.3c6.7-3.5 14.5-6.3 23.1-8.6 8.7-2.7 17.7-3.9 27.1-3.9m22.7 74.9-16.8.4c-14.1.4-23.5 2.8-29 7-5.5 4.3-8.2 10.2-8.2 17.2 0 6.7 2 11.4 5.9 14.1 3.9 2.8 8.6 4.3 14.9 4.3 9.4 0 17.2-2.8 23.5-7.8 6.3-5.5 9.8-13.3 9.8-23.5zm97.2-72.1v54.5h60.4v-54.5h31.7v137.2h-31.7v-58.4h-60.4v58h-31.7V409.9h31.7zm156.7 0v65c0 3.1 0 7-.4 12.5s-.8 10.2-1.2 15.3-.8 8.2-.8 10.2l67-103h38.4v137.2h-30.6v-64.3c0-3.9 0-8.2.4-13.3s.4-9.8.8-14.5.4-8.2.8-10.6l-66.6 103h-38.4V410.7h30.6zm183.8-2.8c10.2 0 19.2 1.2 27.4 3.9 8.2 2.8 14.9 6.7 19.6 12.2s7.4 12.2 7.4 20c0 8.2-2.4 14.9-7.4 19.6-4.7 4.7-11.4 8.6-19.6 10.6v1.2c5.9 1.2 11 3.1 15.7 5.9 4.7 2.4 8.2 5.9 11 10.2 2.7 4.3 4.3 9.8 4.3 16.8 0 7.4-2.4 14.5-7 20.8-4.7 6.3-11.8 11.4-21.2 15.3s-21.6 5.9-36 5.9c-10.6 0-20.4-.8-29-2.4s-16.1-3.5-21.6-6.3v-27c5.9 2.8 12.5 5.1 20.8 7.4 8.2 2.4 16.8 3.1 26.2 3.1 10.2 0 18.8-1.6 25.9-4.3 7-2.8 10.6-7.4 10.6-14.1 0-12.5-12.9-18.8-39.2-18.8h-16.1v-23.1h14.1c12.2 0 22-1.2 28.6-3.5s10.2-7 10.2-13.3c0-5.1-2.4-9-7-11.8-4.7-2.4-12.2-3.9-22-3.9-7 0-13.7.8-20.8 2.4s-13.7 3.5-20.8 6.3l-9.8-23.1c7.8-3.1 16.1-5.5 24.7-7 9.8-1.8 19.6-3 31-3m141.1 0c17.6 0 31 3.9 40.4 11.8 9 7.8 13.7 19.6 13.7 36v92.1h-22.3l-6.3-19.2h-1.2c-5.9 7.4-12.2 12.9-18.8 16.4s-15.7 5.1-26.6 5.1c-12.2 0-22.3-3.5-30.6-10.2-8.2-7-12.2-17.6-12.2-32.1s5.1-24.7 15.7-31.7c10.2-7 26.2-11 47-11.8l23.9-.8v-6.7c0-8.6-2-14.9-6.3-18.8-4.3-3.5-10.2-5.5-17.6-5.5-7 0-13.7.8-20 2.8s-12.5 4.3-18.8 7l-10.2-22.3c6.7-3.5 14.5-6.3 23.1-8.6 8.7-2.3 17.7-3.5 27.1-3.5m22.7 74.9-16.8.4c-14.1.4-23.5 2.8-29 7s-8.2 10.2-8.2 17.2c0 6.7 2 11.4 5.9 14.1 3.9 2.8 8.6 4.3 14.9 4.3 9.4 0 17.2-2.8 23.5-7.8 6.3-5.5 9.8-13.3 9.8-23.5zm208.9 113.2h-29.4V547h-114.8V409.9h31.7V522h60.7V409.9h31.7v112.8h19.6v72.9zm51.3-185.3v65c0 3.1 0 7-.4 12.5s-.8 10.2-1.2 15.3-.8 8.2-.8 10.2l67-103h38.4v137.2h-30.6v-64.3c0-3.9 0-8.2.4-13.3s.4-9.8.8-14.5.4-8.2.8-10.6l-66.6 103h-38.4V410.7h30.6zM2893 547.1h-35.3l37.6-55.2c-4.7-1.6-9.4-4.3-13.7-7.4s-7.8-7.4-10.6-12.9c-2.7-5.5-3.9-11.8-3.9-19.6 0-13.3 4.7-23.9 14.5-31 9.8-7 22.3-10.6 38.4-10.6h63.1v137.2h-31.7V495h-25.5zm5.1-94.9c0 6.7 2.4 11.4 7.4 14.9 5.1 3.5 11.8 5.1 20 5.1h25.5v-38.4h-29.8c-8.2 0-14.1 2-17.6 5.5-3.5 3.1-5.5 7.4-5.5 12.9m-1406 235.1H1447v112.5h-31.7V687.3h-44.7v-24.7h121.5zm152.1-24.3h34.5l27.4 77.2c2 4.7 3.5 9.8 4.7 14.5q1.8 7.05 2.4 14.1h1.2c.8-4.3 1.6-9 3.1-14.1 1.2-5.1 2.8-9.8 4.7-14.9l26.2-77.2h34.5l-58.8 155.6c-5.1 13.7-12.5 24.3-21.6 31.4-9 7.4-20 11-33.3 11-4.3 0-7.8-.4-11-.8s-5.9-.8-7.8-1.6v-25.1c2 .4 3.9.8 6.7 1.2s5.5.4 8.2.4c7.8 0 14.1-2.4 18.8-7 4.7-4.7 8.2-10.6 11-17.2l3.9-11zm258.2 0v112.8h20v72.9H1893v-48.6h-93.3v48.6h-29v-72.9h11.4c9.8-14.5 17.6-31.7 22.7-51.7s8.6-40.4 9.8-60.7h87.8zm-31.4 24.3h-29c-1.6 15.7-4.7 31.7-9 47-4.3 15.7-10.2 29.4-17.6 41.2h55.6zm131-27c17.6 0 31 3.9 40.4 11.8 9 7.8 13.7 19.6 13.7 36v92.1h-22.3l-6.3-18.8h-1.2c-5.9 7.4-12.2 12.9-18.8 16.4s-15.7 5.1-26.6 5.1c-12.2 0-22.3-3.5-30.6-10.2-8.2-7-12.2-17.6-12.2-32.1s5.1-24.7 15.7-31.7c10.2-7 26.2-11 47-11.8l23.9-.8v-7.8c0-8.6-2-14.9-6.3-18.8-4.3-3.5-10.2-5.5-17.6-5.5-7 0-13.7.8-20 2.8s-12.5 4.3-18.8 7l-10.2-22.3c6.7-3.5 14.5-6.3 23.1-8.6 8.7-1.6 17.7-2.8 27.1-2.8m22.3 74.8-16.8.4c-14.1.4-23.5 2.8-29 7-5.5 4.3-8.2 10.2-8.2 17.2 0 6.7 2 11.4 5.9 14.1s8.6 4.3 14.9 4.3c9.4 0 17.2-2.8 23.5-7.8 6.3-5.5 9.8-13.3 9.8-23.5zm659.5-562.3c-9.8-11.8-22.7-17.6-38.8-17.6-10.6 0-18.8 2-25.1 5.9s-11.4 9-15.3 14.5h-1.6l-4.7-18h-25.9V355l31.7-14.5v-41.2c0-3.5-.4-7-.8-10.6-.4-3.5-.8-7-1.6-10.2h2c3.5 4.7 8.6 9 14.9 12.9 6.3 3.5 14.5 5.5 24.7 5.5 16.1 0 29-5.9 39.2-18 10.2-12.2 14.9-29.8 14.9-53.3.8-23.5-3.9-41.1-13.6-52.8m-25.1 85.8c-4.7 8.2-12.2 12.2-22 12.2-12.2 0-20.4-3.9-25.1-11.8-4.3-7.8-6.7-19.2-6.7-33.7v-3.9c0-13.7 2.8-23.9 7-30.6 4.7-6.7 12.5-10.2 23.9-10.2 10.2 0 17.6 3.9 22.7 11.8 4.7 7.8 7 18.8 7 32.9s-2.2 25.1-6.8 33.3m-1013 167c-9.8-11.8-22.7-17.6-38.8-17.6-10.6 0-18.8 2-25.1 5.9s-11.4 9-15.3 14.5h-1.2l-4.7-18h-25.9v197.5l31.7-14.5v-41.2c0-3.5-.4-7-.8-10.6-.4-3.5-.8-7-1.6-10.2h2c3.5 4.7 8.6 9 14.9 12.9 6.3 3.5 14.5 5.5 24.7 5.5 16.1 0 29-5.9 39.2-18 10.2-12.2 14.9-29.8 14.9-53.3.5-23.6-4.2-41.2-14-52.9m-25 85.8c-4.7 8.2-12.2 12.2-22 12.2-12.2 0-20.4-3.9-25.1-11.8-4.3-7.8-6.7-19.2-6.7-33.7v-3.9c0-13.7 2.8-23.9 7-30.6 4.7-6.7 12.5-10.2 23.9-10.2 10.2 0 17.6 3.9 22.7 11.8 4.7 7.8 7 18.8 7 32.9.2 14.1-2.2 25.1-6.8 33.3m3.1 166.9c-9.8-11.8-22.7-17.6-38.8-17.6-10.6 0-18.8 2-25.1 5.9s-11.4 9-15.3 14.5h-1.6l-4.7-18h-25.9v197.5l31.7-14.5v-41.2c0-3.5-.4-7-.8-10.6-.4-3.5-.8-7-1.6-10.2h2c3.5 4.7 8.6 9 14.9 12.9 6.3 3.5 14.5 5.5 24.7 5.5 16.1 0 29-5.9 39.2-18 10.2-12.2 14.9-29.8 14.9-53.3.8-23.6-3.9-41.2-13.6-52.9m-25.1 85.8c-4.7 8.2-12.2 12.2-22 12.2-12.2 0-20.4-3.9-25.1-11.8-4.3-7.8-6.7-19.2-6.7-33.7v-3.9c0-13.7 2.8-23.9 7-30.6 4.7-6.7 12.5-10.2 23.9-10.2 10.2 0 17.6 3.9 22.7 11.8 4.7 7.8 7 18.8 7 32.9s-2.2 25.1-6.8 33.3" class="st0"/></g></svg>