<?xml version="1.0" encoding="utf-8"?>
<!-- Generator: Adobe Illustrator 24.0.1, SVG Export Plug-In . SVG Version: 6.00 Build 0)  -->
<svg version="1.1" id="Calque_1" xmlns="http://www.w3.org/2000/svg" xmlns:xlink="http://www.w3.org/1999/xlink" x="0px" y="0px"
	 viewBox="0 0 231.92 75.34" style="enable-background:new 0 0 231.92 75.34;" xml:space="preserve">
<style type="text/css">
	.st0{display:none;}
	.st1{fill:#FFFFFF;}
</style>
<g id="Grid_Background" class="st0">
</g>
<g id="Lockup">
	<g>
		<path class="st1" d="M110.22,22.65c-0.84,0-1.61-0.14-2.3-0.41s-1.26-0.64-1.7-1.1c-0.45-0.46-0.82-1-1.13-1.61
			s-0.52-1.24-0.65-1.9c-0.13-0.66-0.19-1.33-0.19-2.04c0-0.7,0.06-1.38,0.19-2.04c0.13-0.66,0.35-1.29,0.65-1.9
			s0.68-1.15,1.13-1.61s1.02-0.83,1.7-1.1c0.69-0.27,1.45-0.41,2.3-0.41c1.05,0,1.98,0.2,2.78,0.61c0.8,0.41,1.42,0.96,1.87,1.66
			c0.45,0.69,0.78,1.44,1,2.25c0.22,0.81,0.33,1.65,0.33,2.53c0,0.88-0.11,1.73-0.33,2.53c-0.22,0.81-0.55,1.55-1,2.25
			c-0.45,0.69-1.07,1.25-1.87,1.66C112.19,22.45,111.27,22.65,110.22,22.65z M110.22,20.41c0.62,0,1.18-0.15,1.66-0.45
			c0.48-0.3,0.85-0.69,1.12-1.18c0.27-0.49,0.46-1,0.59-1.54s0.19-1.09,0.19-1.65c0-0.6-0.07-1.17-0.19-1.7
			c-0.13-0.54-0.33-1.05-0.59-1.53c-0.27-0.48-0.64-0.86-1.11-1.15s-1.03-0.43-1.67-0.43c-0.83,0-1.53,0.26-2.08,0.79
			c-0.56,0.53-0.94,1.13-1.16,1.82c-0.21,0.69-0.32,1.42-0.32,2.2c0,0.58,0.06,1.15,0.19,1.69c0.13,0.55,0.33,1.06,0.59,1.54
			c0.27,0.48,0.64,0.86,1.11,1.15C109.02,20.27,109.58,20.41,110.22,20.41z"/>
		<path class="st1" d="M118.15,22.42v-9.95h2.28v1.03c0.4-0.84,1.08-1.27,2.04-1.27c0.7,0,1.32,0.23,1.85,0.68L123.99,15
			c-0.49-0.35-1.06-0.53-1.69-0.53c-0.52,0-0.96,0.18-1.32,0.55c-0.36,0.36-0.55,0.97-0.55,1.83v5.57H118.15z"/>
		<path class="st1" d="M128.86,26.31l-1.21-1.83c1.36-0.09,2.31-0.3,2.83-0.63c0.53-0.33,0.79-0.84,0.79-1.53v-0.56
			c-0.55,0.6-1.3,0.9-2.26,0.9c-1.22,0-2.21-0.45-2.97-1.35s-1.14-2.19-1.14-3.87c0-1.61,0.38-2.88,1.14-3.81
			c0.76-0.93,1.76-1.39,2.99-1.39c0.93,0,1.68,0.28,2.24,0.84v-0.6h2.28v8.96c0,1.65-0.35,2.84-1.06,3.58
			C131.78,25.75,130.57,26.18,128.86,26.31z M129.4,20.47c0.82,0,1.44-0.32,1.87-0.97v-4.13c-0.45-0.65-1.08-0.97-1.87-0.97
			c-0.71,0-1.26,0.26-1.65,0.78c-0.38,0.52-0.57,1.27-0.57,2.26c0,0.93,0.19,1.67,0.58,2.22C128.15,20.2,128.7,20.47,129.4,20.47z"
			/>
		<path class="st1" d="M141.35,22.42v-0.8c-0.66,0.69-1.55,1.03-2.65,1.03c-1.06,0-1.93-0.29-2.6-0.87c-0.67-0.58-1-1.39-1-2.44
			c0-1.08,0.38-1.9,1.14-2.45c0.76-0.56,1.68-0.84,2.76-0.84c0.95,0,1.73,0.18,2.36,0.53v-0.53c0-0.64-0.16-1.1-0.48-1.38
			c-0.32-0.29-0.81-0.43-1.47-0.43c-1.08,0-2.06,0.31-2.96,0.93l-0.7-1.85c1.08-0.73,2.38-1.09,3.89-1.09
			c0.52,0,0.98,0.04,1.37,0.13c0.4,0.08,0.8,0.25,1.23,0.5c0.42,0.25,0.75,0.64,0.98,1.17s0.35,1.19,0.35,1.99v6.41L141.35,22.42
			L141.35,22.42z M139.13,20.64c0.87,0,1.61-0.32,2.22-0.95V18.4c-0.57-0.27-1.23-0.41-1.99-0.41c-0.61,0-1.1,0.11-1.48,0.33
			c-0.38,0.22-0.56,0.56-0.56,1.01c0,0.4,0.16,0.72,0.47,0.95C138.09,20.53,138.54,20.64,139.13,20.64z"/>
		<path class="st1" d="M151.73,22.42v-5.71c0-1.54-0.62-2.32-1.85-2.32c-1.35,0-2.03,0.76-2.03,2.28v5.74h-2.28v-9.95h2.28v0.93
			c0.65-0.78,1.53-1.17,2.63-1.17c1.04,0,1.89,0.32,2.54,0.97c0.66,0.65,0.98,1.68,0.98,3.1v6.11h-2.27V22.42z"/>
		<path class="st1" d="M158.14,10.7c-0.26,0.27-0.58,0.4-0.95,0.4c-0.38,0-0.7-0.13-0.96-0.4c-0.27-0.27-0.4-0.59-0.4-0.96
			c0-0.38,0.13-0.69,0.4-0.95c0.27-0.26,0.59-0.39,0.96-0.39c0.38,0,0.69,0.13,0.95,0.39s0.39,0.58,0.39,0.95
			C158.53,10.12,158.4,10.44,158.14,10.7z M156.03,22.42v-9.95h2.28v9.95H156.03z"/>
		<path class="st1" d="M159.78,22.42v-1.83l5.22-6.1h-4.83v-2.03h7.65v1.75l-5.2,6.17h5.18v2.03L159.78,22.42L159.78,22.42z"/>
		<path class="st1" d="M169.15,22.42v-1.83l5.22-6.1h-4.83v-2.03h7.65v1.75l-5.2,6.17h5.18v2.03L169.15,22.42L169.15,22.42z"/>
		<path class="st1" d="M184.64,22.42v-0.8c-0.66,0.69-1.55,1.03-2.65,1.03c-1.06,0-1.93-0.29-2.6-0.87c-0.67-0.58-1-1.39-1-2.44
			c0-1.08,0.38-1.9,1.14-2.45c0.76-0.56,1.68-0.84,2.76-0.84c0.95,0,1.73,0.18,2.36,0.53v-0.53c0-0.64-0.16-1.1-0.48-1.38
			c-0.32-0.29-0.81-0.43-1.47-0.43c-1.08,0-2.06,0.31-2.96,0.93l-0.7-1.85c1.08-0.73,2.38-1.09,3.89-1.09
			c0.52,0,0.98,0.04,1.37,0.13c0.4,0.08,0.8,0.25,1.23,0.5c0.42,0.25,0.75,0.64,0.98,1.17s0.35,1.19,0.35,1.99v6.41L184.64,22.42
			L184.64,22.42z M182.42,20.64c0.87,0,1.61-0.32,2.22-0.95V18.4c-0.57-0.27-1.23-0.41-1.99-0.41c-0.61,0-1.1,0.11-1.48,0.33
			c-0.38,0.22-0.56,0.56-0.56,1.01c0,0.4,0.16,0.72,0.47,0.95S181.84,20.64,182.42,20.64z"/>
		<path class="st1" d="M188.24,22.42v-1.83l5.22-6.1h-4.83v-2.03h7.65v1.75l-5.2,6.17h5.18v2.03L188.24,22.42L188.24,22.42z"/>
		<path class="st1" d="M199.99,10.7c-0.26,0.27-0.58,0.4-0.95,0.4c-0.38,0-0.7-0.13-0.96-0.4c-0.27-0.27-0.4-0.59-0.4-0.96
			c0-0.38,0.13-0.69,0.4-0.95c0.27-0.26,0.59-0.39,0.96-0.39c0.38,0,0.69,0.13,0.95,0.39s0.39,0.58,0.39,0.95
			C200.38,10.12,200.25,10.44,199.99,10.7z M197.88,22.42v-9.95h2.28v9.95H197.88z"/>
		<path class="st1" d="M206.36,22.65c-1.4,0-2.51-0.46-3.33-1.38s-1.23-2.19-1.23-3.82c0-1.62,0.41-2.9,1.23-3.83
			c0.82-0.93,1.93-1.39,3.33-1.39s2.52,0.46,3.34,1.39c0.82,0.93,1.24,2.2,1.24,3.83c0,1.62-0.41,2.9-1.23,3.82
			C208.89,22.19,207.78,22.65,206.36,22.65z M206.36,20.47c0.71,0,1.28-0.27,1.68-0.8c0.41-0.53,0.61-1.27,0.61-2.22
			c0-0.95-0.2-1.69-0.61-2.24c-0.41-0.55-0.97-0.82-1.68-0.82c-0.69,0-1.24,0.28-1.66,0.83s-0.62,1.3-0.62,2.23s0.2,1.67,0.61,2.21
			C205.11,20.2,205.66,20.47,206.36,20.47z"/>
		<path class="st1" d="M218.75,22.42v-5.71c0-1.54-0.62-2.32-1.85-2.32c-1.35,0-2.03,0.76-2.03,2.28v5.74h-2.28v-9.95h2.28v0.93
			c0.65-0.78,1.53-1.17,2.63-1.17c1.04,0,1.89,0.32,2.54,0.97c0.66,0.65,0.98,1.68,0.98,3.1v6.11h-2.27V22.42z"/>
		<path class="st1" d="M227.21,22.65c-1.42,0-2.54-0.46-3.36-1.39s-1.24-2.2-1.24-3.83c0-1.61,0.42-2.88,1.25-3.81
			c0.83-0.93,1.95-1.39,3.35-1.39c1.27,0,2.31,0.4,3.13,1.19c0.81,0.79,1.22,1.95,1.22,3.49c0,0.53-0.03,1-0.08,1.4h-6.6
			c0.04,0.7,0.28,1.27,0.73,1.69c0.45,0.43,0.98,0.64,1.61,0.64c0.88,0,1.58-0.34,2.1-1.03l1.44,1.48
			C229.88,22.13,228.7,22.65,227.21,22.65z M224.89,16.42h4.4c-0.05-0.71-0.27-1.26-0.66-1.63s-0.86-0.56-1.42-0.56
			c-0.65,0-1.18,0.18-1.61,0.54C225.18,15.13,224.94,15.68,224.89,16.42z"/>
		<path class="st1" d="M104.82,41.89V28.26h2.34v13.63H104.82z"/>
		<path class="st1" d="M115.75,41.89v-5.71c0-1.54-0.62-2.32-1.85-2.32c-1.35,0-2.03,0.76-2.03,2.28v5.74h-2.28v-9.95h2.28v0.93
			c0.65-0.78,1.53-1.17,2.63-1.17c1.04,0,1.89,0.32,2.54,0.97c0.66,0.65,0.98,1.68,0.98,3.1v6.11h-2.27V41.89z"/>
		<path class="st1" d="M122.95,42.12c-1.55,0-2.32-0.85-2.32-2.55v-5.65h-1.48v-1.99h1.48v-3.02l2.28-1.09v4.11h2.3v1.99h-2.3v5.2
			c0,0.64,0.28,0.95,0.84,0.95c0.51,0,1.03-0.15,1.56-0.45l-0.27,2.04C124.46,41.97,123.77,42.12,122.95,42.12z"/>
		<path class="st1" d="M130.81,42.12c-1.42,0-2.54-0.46-3.36-1.39c-0.82-0.93-1.24-2.2-1.24-3.83c0-1.61,0.42-2.88,1.25-3.81
			c0.83-0.93,1.95-1.39,3.35-1.39c1.27,0,2.31,0.4,3.13,1.19c0.81,0.79,1.22,1.95,1.22,3.49c0,0.53-0.03,1-0.08,1.4h-6.6
			c0.04,0.7,0.28,1.27,0.73,1.69c0.45,0.43,0.98,0.64,1.61,0.64c0.88,0,1.58-0.34,2.1-1.03l1.44,1.48
			C133.48,41.6,132.3,42.12,130.81,42.12z M128.49,35.89h4.4c-0.05-0.71-0.27-1.26-0.66-1.63c-0.39-0.37-0.86-0.56-1.42-0.56
			c-0.65,0-1.18,0.18-1.61,0.54C128.78,34.6,128.54,35.15,128.49,35.89z"/>
		<path class="st1" d="M136.72,41.89v-9.95H139v1.03c0.4-0.84,1.08-1.27,2.04-1.27c0.7,0,1.32,0.23,1.85,0.68l-0.33,2.08
			c-0.49-0.35-1.06-0.53-1.69-0.53c-0.52,0-0.96,0.18-1.32,0.55c-0.36,0.36-0.55,0.97-0.55,1.83v5.57L136.72,41.89L136.72,41.89z"/>
		<path class="st1" d="M150.18,41.89v-5.71c0-1.54-0.62-2.32-1.85-2.32c-1.35,0-2.03,0.76-2.03,2.28v5.74h-2.28v-9.95h2.28v0.93
			c0.65-0.78,1.53-1.17,2.63-1.17c1.04,0,1.89,0.32,2.54,0.97c0.66,0.65,0.98,1.68,0.98,3.1v6.11h-2.27V41.89z"/>
		<path class="st1" d="M160.17,41.89v-0.8c-0.66,0.69-1.55,1.03-2.65,1.03c-1.06,0-1.93-0.29-2.6-0.87c-0.67-0.58-1-1.39-1-2.44
			c0-1.08,0.38-1.9,1.14-2.45c0.76-0.56,1.68-0.84,2.76-0.84c0.95,0,1.73,0.18,2.36,0.53v-0.53c0-0.64-0.16-1.1-0.48-1.38
			c-0.32-0.29-0.81-0.43-1.47-0.43c-1.08,0-2.06,0.31-2.96,0.93l-0.7-1.85c1.08-0.73,2.38-1.09,3.89-1.09
			c0.52,0,0.98,0.04,1.37,0.13c0.4,0.08,0.8,0.25,1.23,0.5c0.42,0.25,0.75,0.64,0.98,1.17s0.35,1.19,0.35,1.99v6.41h-2.22V41.89z
			 M157.95,40.12c0.87,0,1.61-0.32,2.22-0.95v-1.29c-0.57-0.27-1.23-0.41-1.99-0.41c-0.61,0-1.1,0.11-1.48,0.33
			c-0.38,0.22-0.56,0.56-0.56,1.01c0,0.4,0.16,0.72,0.47,0.95C156.92,40,157.37,40.12,157.95,40.12z"/>
		<path class="st1" d="M163.78,41.89v-1.83l5.22-6.1h-4.83v-2.03h7.65v1.75l-5.2,6.17h5.18v2.03h-8.02V41.89z"/>
		<path class="st1" d="M175.52,30.18c-0.26,0.27-0.58,0.4-0.95,0.4c-0.38,0-0.7-0.13-0.96-0.4c-0.27-0.27-0.4-0.59-0.4-0.96
			c0-0.38,0.13-0.69,0.4-0.95c0.27-0.26,0.59-0.39,0.96-0.39c0.38,0,0.69,0.13,0.95,0.39s0.39,0.58,0.39,0.95
			C175.91,29.59,175.78,29.91,175.52,30.18z M173.42,41.89v-9.95h2.28v9.95H173.42z"/>
		<path class="st1" d="M181.9,42.12c-1.4,0-2.51-0.46-3.33-1.38c-0.82-0.92-1.23-2.19-1.23-3.82c0-1.62,0.41-2.9,1.23-3.83
			c0.82-0.93,1.93-1.39,3.33-1.39s2.52,0.46,3.34,1.39c0.82,0.93,1.24,2.2,1.24,3.83c0,1.62-0.41,2.9-1.23,3.82
			C184.43,41.66,183.31,42.12,181.9,42.12z M181.9,39.94c0.71,0,1.28-0.27,1.68-0.8c0.41-0.53,0.61-1.27,0.61-2.22
			s-0.2-1.69-0.61-2.24c-0.41-0.55-0.97-0.82-1.68-0.82c-0.69,0-1.24,0.28-1.66,0.83c-0.42,0.55-0.62,1.3-0.62,2.23
			s0.2,1.67,0.61,2.21S181.19,39.94,181.9,39.94z"/>
		<path class="st1" d="M194.28,41.89v-5.71c0-1.54-0.62-2.32-1.85-2.32c-1.35,0-2.03,0.76-2.03,2.28v5.74h-2.28v-9.95h2.28v0.93
			c0.65-0.78,1.53-1.17,2.63-1.17c1.04,0,1.89,0.32,2.54,0.97c0.66,0.65,0.98,1.68,0.98,3.1v6.11h-2.27V41.89z"/>
		<path class="st1" d="M204.28,41.89v-0.8c-0.66,0.69-1.55,1.03-2.65,1.03c-1.06,0-1.93-0.29-2.6-0.87c-0.67-0.58-1-1.39-1-2.44
			c0-1.08,0.38-1.9,1.14-2.45c0.76-0.56,1.68-0.84,2.76-0.84c0.95,0,1.73,0.18,2.36,0.53v-0.53c0-0.64-0.16-1.1-0.48-1.38
			c-0.32-0.29-0.81-0.43-1.47-0.43c-1.08,0-2.06,0.31-2.96,0.93l-0.7-1.85c1.08-0.73,2.38-1.09,3.89-1.09
			c0.52,0,0.98,0.04,1.37,0.13c0.4,0.08,0.8,0.25,1.23,0.5c0.42,0.25,0.75,0.64,0.98,1.17s0.35,1.19,0.35,1.99v6.41h-2.22V41.89z
			 M202.06,40.12c0.87,0,1.61-0.32,2.22-0.95v-1.29c-0.57-0.27-1.23-0.41-1.99-0.41c-0.61,0-1.1,0.11-1.48,0.33
			c-0.38,0.22-0.56,0.56-0.56,1.01c0,0.4,0.16,0.72,0.47,0.95C201.03,40,201.48,40.12,202.06,40.12z"/>
		<path class="st1" d="M208.56,41.89V28.9l2.28-1.07v14.06H208.56z"/>
		<path class="st1" d="M217.14,42.12c-1.42,0-2.54-0.46-3.36-1.39s-1.24-2.2-1.24-3.83c0-1.61,0.42-2.88,1.25-3.81
			s1.95-1.39,3.35-1.39c1.27,0,2.31,0.4,3.13,1.19c0.81,0.79,1.22,1.95,1.22,3.49c0,0.53-0.03,1-0.08,1.4h-6.6
			c0.04,0.7,0.28,1.27,0.73,1.69c0.45,0.43,0.98,0.64,1.61,0.64c0.88,0,1.58-0.34,2.1-1.03l1.44,1.48
			C219.81,41.6,218.63,42.12,217.14,42.12z M214.82,35.89h4.4c-0.05-0.71-0.27-1.26-0.66-1.63c-0.39-0.37-0.86-0.56-1.42-0.56
			c-0.65,0-1.18,0.18-1.61,0.54C215.11,34.6,214.87,35.15,214.82,35.89z"/>
		<path class="st1" d="M108.17,61.6c-1.27,0-2.28-0.46-3.02-1.38c-0.74-0.92-1.11-2.2-1.11-3.84c0-1.6,0.38-2.86,1.15-3.8
			c0.77-0.93,1.76-1.4,2.98-1.4c0.96,0,1.71,0.31,2.24,0.93v-3.78l2.28-1.03v14.06h-2.28v-0.72
			C109.92,61.28,109.17,61.6,108.17,61.6z M108.52,59.42c0.84,0,1.47-0.32,1.89-0.95V54.3c-0.43-0.64-1.06-0.95-1.89-0.95
			c-0.7,0-1.24,0.26-1.63,0.79c-0.38,0.53-0.57,1.28-0.57,2.25c0,0.92,0.19,1.66,0.58,2.21C107.29,59.14,107.83,59.42,108.52,59.42z
			"/>
		<path class="st1" d="M118.94,61.6c-1.42,0-2.54-0.46-3.36-1.39s-1.24-2.2-1.24-3.83c0-1.61,0.42-2.88,1.25-3.81
			s1.95-1.39,3.35-1.39c1.27,0,2.31,0.4,3.13,1.19c0.81,0.79,1.22,1.95,1.22,3.49c0,0.53-0.03,1-0.08,1.4h-6.6
			c0.04,0.7,0.28,1.27,0.73,1.69c0.45,0.43,0.98,0.64,1.61,0.64c0.88,0,1.58-0.34,2.1-1.03l1.44,1.48
			C121.62,61.08,120.44,61.6,118.94,61.6z M116.63,55.37h4.4c-0.05-0.71-0.27-1.26-0.66-1.63c-0.39-0.37-0.86-0.56-1.42-0.56
			c-0.65,0-1.18,0.18-1.61,0.54C116.91,54.08,116.68,54.63,116.63,55.37z"/>
		<path class="st1" d="M124.9,61.36V48.37l2.28-1.07v14.06H124.9z"/>
		<path class="st1" d="M134.39,61.36V47.73h2.34v11.39h6.62v2.24H134.39z"/>
		<path class="st1" d="M150.56,61.36v-0.8c-0.66,0.69-1.55,1.03-2.65,1.03c-1.06,0-1.93-0.29-2.6-0.87c-0.67-0.58-1-1.39-1-2.44
			c0-1.08,0.38-1.9,1.14-2.45c0.76-0.56,1.68-0.84,2.76-0.84c0.95,0,1.73,0.18,2.36,0.53V55c0-0.64-0.16-1.1-0.48-1.38
			c-0.32-0.29-0.81-0.43-1.47-0.43c-1.08,0-2.06,0.31-2.96,0.93l-0.7-1.85c1.08-0.73,2.38-1.09,3.89-1.09
			c0.52,0,0.98,0.04,1.37,0.13c0.4,0.08,0.8,0.25,1.23,0.5c0.42,0.25,0.75,0.64,0.98,1.17s0.35,1.19,0.35,1.99v6.41h-2.22V61.36z
			 M148.34,59.59c0.87,0,1.61-0.32,2.22-0.95v-1.29c-0.57-0.27-1.23-0.41-1.99-0.41c-0.61,0-1.1,0.11-1.48,0.33
			c-0.38,0.22-0.56,0.56-0.56,1.01c0,0.4,0.16,0.72,0.47,0.95C147.31,59.48,147.76,59.59,148.34,59.59z"/>
		<path class="st1" d="M157.13,61.36l-3.64-9.95h2.32l2.2,6.21c0.16,0.52,0.25,0.82,0.27,0.9c0.08-0.34,0.17-0.64,0.27-0.9
			l2.16-6.21h2.32l-3.64,9.95H157.13z"/>
		<path class="st1" d="M167.93,61.6c-1.4,0-2.51-0.46-3.33-1.38c-0.82-0.92-1.23-2.19-1.23-3.82c0-1.62,0.41-2.9,1.23-3.83
			c0.82-0.93,1.93-1.39,3.33-1.39s2.52,0.46,3.34,1.39c0.82,0.93,1.24,2.2,1.24,3.83c0,1.62-0.41,2.9-1.23,3.82
			S169.34,61.6,167.93,61.6z M167.93,59.42c0.71,0,1.28-0.27,1.68-0.8c0.41-0.53,0.61-1.27,0.61-2.22s-0.2-1.69-0.61-2.24
			s-0.97-0.82-1.68-0.82c-0.69,0-1.24,0.28-1.66,0.83c-0.42,0.55-0.62,1.3-0.62,2.23s0.2,1.67,0.61,2.21
			C166.67,59.15,167.23,59.42,167.93,59.42z"/>
		<path class="st1" d="M174.16,61.36v-9.95h2.28v1.03c0.4-0.84,1.08-1.27,2.04-1.27c0.7,0,1.32,0.23,1.85,0.68L180,53.93
			c-0.49-0.35-1.06-0.53-1.69-0.53c-0.52,0-0.96,0.18-1.32,0.55c-0.36,0.36-0.55,0.97-0.55,1.83v5.57L174.16,61.36L174.16,61.36z"/>
		<path class="st1" d="M185.46,61.6c-1.4,0-2.51-0.46-3.33-1.38c-0.82-0.92-1.23-2.19-1.23-3.82c0-1.62,0.41-2.9,1.23-3.83
			c0.82-0.93,1.93-1.39,3.33-1.39s2.52,0.46,3.34,1.39c0.82,0.93,1.24,2.2,1.24,3.83c0,1.62-0.41,2.9-1.23,3.82
			C188,61.14,186.88,61.6,185.46,61.6z M185.46,59.42c0.71,0,1.28-0.27,1.68-0.8c0.41-0.53,0.61-1.27,0.61-2.22s-0.2-1.69-0.61-2.24
			s-0.97-0.82-1.68-0.82c-0.69,0-1.24,0.28-1.66,0.83c-0.42,0.55-0.62,1.3-0.62,2.23s0.2,1.67,0.61,2.21
			C184.21,59.15,184.76,59.42,185.46,59.42z"/>
	</g>
</g>
<g>
	<g>
		<path class="st1" d="M21.1,20.21c-0.37,0.64-0.51,0.93-0.51,0.93c-0.28,0.56-1,0.84-1.59,0.62l-1.08-0.41
			c-0.59-0.22-1.26,0.07-1.48,0.66l-0.82,2.15c-0.22,0.59,0.07,1.26,0.66,1.48l1.07,0.41c0.59,0.22,0.95,0.91,0.8,1.53l-0.47,2.35
			c-0.1,0.63-0.69,1.12-1.32,1.1l-1.15-0.04c-0.63-0.02-1.17,0.48-1.19,1.11l-0.08,2.29c-0.02,0.63,0.48,1.17,1.11,1.19l1.16,0.04
			c0.63,0.02,1.2,0.55,1.25,1.18l0.32,2.37c0.11,0.62-0.3,1.28-0.9,1.47l-1.12,0.34c-0.6,0.19-0.95,0.83-0.76,1.43l1.01,3.3
			l6.2-1.91c-2.84-6.93-2.55-15.06,1.48-22.05c4.04-6.99,10.93-11.3,18.36-12.31l-1.44-6.32L37.25,3.9c-0.62,0.14-1,0.76-0.86,1.38
			l0.26,1.14c0.14,0.62-0.23,1.3-0.82,1.51L33.64,8.8c-0.57,0.26-1.32,0.04-1.65-0.5l-0.61-0.99c-0.33-0.54-1.04-0.7-1.58-0.37
			l-1.95,1.21c-0.54,0.33-0.7,1.04-0.37,1.58l0.61,0.98c0.33,0.54,0.2,1.3-0.29,1.7L26,14c-0.46,0.44-1.23,0.47-1.72,0.07
			l-0.89-0.73c-0.49-0.4-1.22-0.32-1.62,0.17l-1.45,1.78c-0.4,0.49-0.32,1.22,0.17,1.62l0.89,0.73c0.49,0.4,0.6,1.16,0.26,1.68
			C21.63,19.32,21.47,19.57,21.1,20.21z"/>
	</g>
	<g>
		<path class="st1" d="M45,61.66c0.74,0,1.06-0.02,1.06-0.02c0.63-0.04,1.23,0.44,1.33,1.07l0.18,1.14c0.1,0.62,0.69,1.05,1.32,0.95
			l2.27-0.37c0.62-0.1,1.05-0.69,0.95-1.32l-0.18-1.14c-0.1-0.62,0.31-1.28,0.92-1.45l2.27-0.76c0.59-0.23,1.32,0.04,1.61,0.6
			l0.54,1.02c0.3,0.56,1,0.77,1.55,0.47l2.02-1.08c0.56-0.3,0.77-1,0.47-1.55l-0.55-1.02c-0.3-0.56-0.12-1.31,0.4-1.68l1.89-1.46
			c0.48-0.41,1.26-0.39,1.72,0.04l0.85,0.8c0.46,0.43,1.19,0.4,1.62-0.06l2.35-2.52l-4.76-4.41c-4.59,5.92-11.77,9.74-19.84,9.74
			s-15.25-3.82-19.84-9.74l-4.76,4.41l2.35,2.52c0.43,0.46,1.16,0.49,1.62,0.06l0.85-0.8c0.46-0.43,1.24-0.45,1.72-0.04l1.89,1.46
			c0.52,0.37,0.69,1.12,0.4,1.68l-0.55,1.02c-0.3,0.56-0.09,1.26,0.47,1.55l2.02,1.08c0.56,0.3,1.26,0.09,1.55-0.47l0.54-1.02
			c0.3-0.56,1.02-0.83,1.61-0.6l2.27,0.76c0.6,0.18,1.02,0.83,0.92,1.45l-0.18,1.14c-0.1,0.62,0.33,1.22,0.95,1.32l2.27,0.37
			c0.62,0.1,1.22-0.33,1.32-0.95l0.18-1.14c0.1-0.62,0.7-1.1,1.33-1.07C43.96,61.64,44.26,61.66,45,61.66z"/>
	</g>
	<g>
		<path class="st1" d="M68.94,20.23c-0.37-0.64-0.55-0.91-0.55-0.91c-0.35-0.53-0.23-1.29,0.26-1.68l0.89-0.73
			c0.49-0.4,0.56-1.13,0.17-1.62l-1.45-1.78c-0.4-0.49-1.13-0.56-1.62-0.17l-0.89,0.73c-0.49,0.4-1.26,0.37-1.72-0.07l-1.79-1.58
			c-0.49-0.4-0.62-1.16-0.29-1.7l0.61-0.98c0.33-0.54,0.17-1.25-0.37-1.58l-1.95-1.21c-0.54-0.33-1.25-0.17-1.58,0.37l-0.6,0.98
			c-0.33,0.54-1.08,0.76-1.65,0.5L54.2,7.89c-0.59-0.22-0.96-0.9-0.82-1.51l0.26-1.14C53.79,4.62,53.4,4,52.78,3.86l-3.36-0.78
			L47.98,9.4c7.42,1.01,14.32,5.32,18.36,12.31s4.32,15.12,1.48,22.05l6.19,1.91l1.01-3.3c0.19-0.6-0.16-1.25-0.76-1.43l-1.12-0.34
			c-0.6-0.19-1.01-0.84-0.9-1.47l0.32-2.37c0.06-0.63,0.62-1.16,1.25-1.18l1.16-0.04c0.63-0.02,1.13-0.55,1.11-1.19L76,32.06
			c-0.02-0.63-0.55-1.13-1.19-1.11l-1.15,0.04c-0.63,0.02-1.23-0.47-1.32-1.1l-0.47-2.35c-0.15-0.61,0.21-1.3,0.8-1.53l1.07-0.41
			c0.59-0.22,0.89-0.89,0.66-1.48l-0.81-2.15c-0.22-0.59-0.89-0.89-1.48-0.66l-1.08,0.41c-0.59,0.22-1.3-0.05-1.59-0.62
			C69.45,21.14,69.32,20.87,68.94,20.23z"/>
	</g>
	<g>
		<path class="st1" d="M9.12,19.68C9.1,19.72,9.1,19.73,9.1,19.73S9.1,19.72,9.12,19.68z"/>
	</g>
	<g>
		<path class="st1" d="M19,6.68l0.09,0.11c0.27-0.19,1.2-0.86,2.33-1.17c6.25-1.76,5.94-3.92,8.58-5.2l-0.08-0.13
			c-0.26,0.17-1.07,0.64-2.2,0.65C20.38,1.02,20.94,5.3,19,6.68z"/>
	</g>
	<g>
		<path class="st1" d="M11.71,14.81l0.14,0.09c1.49-1.65,2.92-1.96,3.16-2.03c5.82-1.72,7.85-5.57,9.42-6.66l-0.06-0.09
			c-2.15,1.53-4.71-0.02-9.06,4.63c-0.03,0.03-0.15-0.14-0.15-0.14c3.53-4.26,3.62-7.16,5.26-8.75l-0.09-0.08
			C10.02,7.93,14.55,11.29,11.71,14.81z"/>
	</g>
	<g>
		<path class="st1" d="M12.14,7.69c-9.71,9.62-3.66,12.08-5.19,16.87l0.1,0.04c0.87-2.03,3.13-2.92,3.18-2.94
			c4.11-1.9,5.41-6.69,7.05-8.14l-0.08-0.08c-2.01,2.18-5.33,0.96-8.01,6.35C9.18,19.8,9,19.7,9.01,19.69
			c2.18-4.7,1.16-8.96,3.23-11.88C12.2,7.75,12.17,7.71,12.14,7.69z"/>
	</g>
	<g>
		<path class="st1" d="M5.09,37.33l0.14,0.01c-0.04-0.55-0.18-2.84,2.11-4.96c4.61-4.27,3.83-8.06,5.72-10.99l-0.14-0.08
			c-1.47,2.5-6.84,5.24-7.06,9.09c0,0.01-0.21-0.02-0.2-0.03c0.78-5.51-2.13-9.19-0.54-12.68c-0.07-0.05-0.12-0.08-0.16-0.1
			C-1.19,30.26,3.92,30.08,5.09,37.33z"/>
	</g>
	<g>
		<path class="st1" d="M7.46,49.36l0.15-0.05c-1.27-2.86,0.86-6.77,0.95-6.96c2.8-5.43,1.86-10.34,2.5-12.06l-0.13-0.04
			c-1.49,3.73-5.65,5.75-5,12.02c0,0.01-0.2,0.01-0.2,0c-0.66-3.89-5.06-7.62-4.92-11.86c-0.02,0-0.05-0.01-0.07-0.01
			C-2,45.48,5.82,45.38,7.46,49.36z"/>
	</g>
	<g>
		<path class="st1" d="M13.73,60.52l0.1-0.08c-2.61-3.17-1.82-6.63-1.78-6.88c1.3-7.52-1.13-8.87-1.19-12.27h-0.13
			c-0.11,3.81-4.01,8.09-0.47,13.41l-0.16,0.1c-3.9-5.69-6.99-4.3-8.81-9.96l0,0c-0.06,0-0.13,0.03-0.16,0.05
			C3.87,61.46,11.24,56.44,13.73,60.52z"/>
	</g>
	<g>
		<path class="st1" d="M28.94,67.74l-0.03-0.15c-5.13,1.03-7.76,0.04-8.69-4.68c-1.31-6.63-5.82-9.18-6.34-11.83h-0.01
			c-0.08,0-0.11,0.01-0.13,0.02l0,0c0.97,4.68-1.31,7.46,4.33,13.07l-0.15,0.13C12.49,60,8.76,61.58,6.6,58.59
			c-0.04,0.04-0.08,0.07-0.09,0.1C13.24,69.86,20.46,70.47,28.94,67.74z"/>
	</g>
	<g>
		<path class="st1" d="M16.26,69.67l0.04-0.06c6.91,4.03,14.12-1.59,22.87-1.79c2.2-0.05,8.75,0.35,14.78,7.35l-1.6,0.46
			c-1.99-3.46-5.06-5.95-7.84-6.65c-7.96-1.99-8.11,5.43-16.95,5.54C21,74.6,16.51,69.93,16.26,69.67z"/>
	</g>
	<g>
		<path class="st1" d="M80.81,19.68c0.01,0.03,0.03,0.05,0.03,0.05S80.83,19.72,80.81,19.68z"/>
	</g>
	<g>
		<path class="st1" d="M80.81,19.68c0.01,0.03,0.03,0.05,0.03,0.05S80.83,19.72,80.81,19.68z"/>
	</g>
	<g>
		<path class="st1" d="M9.12,19.68c-0.01,0.03-0.03,0.05-0.03,0.05S9.1,19.72,9.12,19.68z"/>
	</g>
	<g>
		<path class="st1" d="M80.81,19.68c0.01,0.03,0.03,0.05,0.03,0.05S80.83,19.72,80.81,19.68z"/>
	</g>
	<g>
		<path class="st1" d="M70.94,6.68l-0.09,0.11c-0.27-0.19-1.2-0.86-2.33-1.17c-6.25-1.76-5.93-3.92-8.58-5.2l0.08-0.13
			c0.26,0.17,1.07,0.64,2.2,0.65C69.55,1.02,69,5.3,70.94,6.68z"/>
	</g>
	<g>
		<path class="st1" d="M78.22,14.81l-0.13,0.09c-1.49-1.65-2.92-1.96-3.16-2.03c-5.82-1.72-7.85-5.57-9.42-6.66l0.06-0.09
			c2.15,1.53,4.7-0.02,9.06,4.63c0.03,0.03,0.15-0.14,0.15-0.14c-3.53-4.26-3.62-7.16-5.26-8.75l0.09-0.08
			C79.91,7.93,75.39,11.29,78.22,14.81z"/>
	</g>
	<g>
		<path class="st1" d="M77.8,7.69c9.71,9.62,3.66,12.08,5.19,16.87l-0.1,0.04c-0.87-2.03-3.13-2.92-3.18-2.94
			c-4.11-1.9-5.4-6.69-7.05-8.14l0.08-0.08c2.01,2.18,5.33,0.96,8.01,6.35c0.01,0.02,0.18-0.09,0.18-0.09
			c-2.18-4.7-1.16-8.96-3.23-11.88C77.73,7.75,77.77,7.71,77.8,7.69z"/>
	</g>
	<g>
		<path class="st1" d="M84.85,37.33l-0.14,0.01c0.04-0.55,0.18-2.84-2.11-4.96c-4.61-4.27-3.83-8.06-5.72-10.99l0.14-0.08
			c1.47,2.5,6.84,5.24,7.06,9.09c0,0.01,0.21-0.02,0.2-0.03c-0.78-5.51,2.13-9.19,0.54-12.68c0.05-0.04,0.11-0.06,0.14-0.08
			C91.13,30.26,86.02,30.08,84.85,37.33z"/>
	</g>
	<g>
		<path class="st1" d="M82.48,49.36l-0.15-0.05c1.27-2.86-0.86-6.77-0.95-6.96c-2.8-5.43-1.86-10.34-2.5-12.06L79,30.25
			c1.49,3.73,5.65,5.75,5,12.02c0,0.01,0.2,0.01,0.2,0c0.66-3.89,5.06-7.62,4.92-11.86c0.02,0,0.05-0.01,0.07-0.01
			C91.94,45.48,84.12,45.38,82.48,49.36z"/>
	</g>
	<g>
		<path class="st1" d="M76.21,60.52l-0.1-0.08c2.61-3.17,1.82-6.63,1.78-6.88c-1.3-7.52,1.13-8.87,1.19-12.27h0.13
			c0.11,3.81,4.01,8.09,0.47,13.41l0.17,0.11c3.9-5.69,6.99-4.3,8.81-9.96l0,0c0.06,0,0.13,0.03,0.16,0.05
			C86.07,61.46,78.7,56.44,76.21,60.52z"/>
	</g>
	<g>
		<path class="st1" d="M60.99,67.74l0.03-0.15c5.13,1.03,7.76,0.04,8.69-4.68c1.31-6.63,5.82-9.18,6.34-11.83h0.01
			c0.08,0,0.12,0.01,0.13,0.02l0,0c-0.97,4.68,1.31,7.46-4.33,13.07l0.15,0.13c5.43-4.31,9.16-2.72,11.32-5.72
			c0.04,0.04,0.08,0.07,0.09,0.1C76.69,69.86,69.48,70.47,60.99,67.74z"/>
	</g>
	<g>
		<path class="st1" d="M73.68,69.67l-0.04-0.06c-6.91,4.03-14.12-1.59-22.87-1.79c-2.19-0.05-8.75,0.35-14.78,7.35l1.6,0.46
			c1.99-3.46,5.06-5.95,7.84-6.65c7.95-1.99,8.11,5.43,16.95,5.54C68.94,74.6,73.42,69.93,73.68,69.67z"/>
	</g>
	<g>
		<path class="st1" d="M9.12,19.68c-0.01,0.03-0.03,0.05-0.03,0.05S9.1,19.72,9.12,19.68z"/>
	</g>
	<g>
		<path class="st1" d="M9.12,19.68c-0.01,0.03-0.03,0.05-0.03,0.05S9.1,19.72,9.12,19.68z"/>
	</g>
	<g>
		<path class="st1" d="M80.81,19.68c0.01,0.03,0.03,0.05,0.03,0.05S80.83,19.72,80.81,19.68z"/>
	</g>
	<g>
		<path class="st1" d="M55.72,19.9H55.6c-3.23,0-6.33,2.08-7.88,5.54c-0.78,1.76-0.96,4.05-0.97,6.26c0,2.2,0.18,4.49,0.97,6.25
			c1.54,3.46,4.65,5.83,7.88,5.83h0.12c3.23,0,6.33-2.37,7.87-5.83c0.78-1.76,0.96-4.05,0.97-6.25c0-2.2-0.18-4.5-0.97-6.26
			C62.05,21.98,58.94,19.9,55.72,19.9z M60.68,31.83c-0.01,2.07-0.06,3.86-0.06,3.86c-0.13,1.69-0.16,3.39-0.94,4.55
			c-0.89,1.31-2.31,2-3.74,2l-0.06,0.02H55.7l-0.05-0.02c-1.43,0-2.85-0.69-3.74-2c-0.78-1.16-0.81-2.86-0.94-4.55
			c0,0-0.05-1.76-0.05-3.82v-0.09c0-2.07,0.05-3.86,0.05-3.86c0.13-1.69,0.16-3.39,0.94-4.55c0.89-1.31,2.31-2,3.74-2l0.05-0.02
			h0.18l0.05,0.02c1.43,0,2.85,0.68,3.74,2c0.79,1.16,0.81,2.86,0.94,4.55c0,0,0.05,1.76,0.06,3.82L60.68,31.83L60.68,31.83z"/>
	</g>
	<g>
		<path class="st1" d="M58.14,44.76c0,0-0.63,1.64-1.81,2.65c-0.65,0.55-1.6,0.7-2.36,0.79l-7.94,0.39h-1.75c0,0-1.33-0.07-1.4-1.31
			V19.46c0.07-1.24,1.4-1.31,1.4-1.31h1.75v-1.62H35.4v1.62h1.76c0,0,1.33,0.07,1.4,1.31v27.83c-0.07,1.24-1.4,1.31-1.4,1.31H35.4
			v1.62h10.62l11.5,0.04l1.41-5.13v-0.19L58.14,44.76z"/>
	</g>
	<g>
		<path class="st1" d="M33.18,22.96c0.06-1.03,1.17-1.09,1.17-1.09h1.46v-1.35h-8.86v1.35h1.46c0,0,1.11,0.06,1.17,1.09v17.79
			c-0.06,1.03-1.17,1.09-1.17,1.09h-1.46v1.35h8.86v-1.35h-1.46c0,0-1.11-0.06-1.17-1.09V22.96z"/>
	</g>
</g>
</svg>
