<svg xmlns="http://www.w3.org/2000/svg" id="Lockup" viewBox="0 0 882.58 250"><defs><style>.cls-1{fill:#1e2dbe;stroke-width:0}</style></defs><path d="M107.8 75.3c.2-3.43 3.92-3.62 3.92-3.62h4.9v-4.5H87.24v4.5h4.9s3.72.2 3.92 3.62v59.05c-.2 3.43-3.92 3.62-3.92 3.62h-4.9v4.5h29.38v-4.5h-4.9s-3.72-.2-3.92-3.62zm81.86-10.18h-.39c-10.67 0-21.05 6.85-26.15 18.41-2.64 5.88-3.23 13.42-3.23 20.76s.59 14.88 3.23 20.76c5.09 11.46 15.47 19.39 26.15 19.39h.39c10.67 0 21.05-7.83 26.15-19.39 2.64-5.88 3.23-13.42 3.23-20.76s-.59-14.88-3.23-20.76c-5.09-11.56-15.37-18.41-26.15-18.41m16.55 39.56c0 6.85-.2 12.83-.2 12.83-.39 5.58-.49 11.26-3.13 15.08-2.94 4.41-7.64 6.66-12.44 6.66l-.2.1h-.59l-.2-.1c-4.7 0-9.5-2.25-12.44-6.66-2.64-3.82-2.74-9.5-3.13-15.08 0 0-.2-5.88-.2-12.63v-.29c0-6.85.2-12.83.2-12.83.39-5.58.49-11.26 3.13-15.08 2.94-4.41 7.64-6.66 12.44-6.66l.2-.1h.59l.2.1c4.7 0 9.5 2.25 12.44 6.66 2.64 3.82 2.74 9.5 3.13 15.08 0 0 .2 5.88.2 12.63z" class="cls-1"/><path d="M173.02 161.18c-.98.1-8.23.69-9.3-2.84-.59-2.15-20.37-108.79-20.37-108.79h-10.09s-15.37 93.13-20.17 108.79c-1.18 3.43-7.93 2.94-8.32 2.84v4.41h23.5v-4.5c-2.74 0-7.44.78-6.95-2.84.98-6.17 4.6-28.1 4.6-28.1h16.75s2.45 18.8 4.6 28.1c.39 3.72-3.62 2.84-8.13 2.84v4.41h33.88v-4.31Zm-46.12-36.33 8.91-52.78 6.07 52.78zM69.51 66.1c-1.27 2.15-1.66 3.04-1.66 3.04-.98 1.86-3.33 2.84-5.29 2.06l-3.53-1.37c-1.96-.78-4.21.29-4.9 2.25l-2.74 7.15c-.78 1.96.29 4.21 2.25 4.9l3.53 1.37c1.96.78 3.13 3.04 2.64 5.09l-1.57 7.74c-.29 2.06-2.35 3.72-4.41 3.62l-3.82-.1c-2.06-.1-3.82 1.57-3.92 3.72l-.29 7.64c-.1 2.06 1.57 3.82 3.72 3.92l3.82.1c2.06.1 4.01 1.86 4.11 3.92l1.08 7.83c.39 2.06-.98 4.21-2.94 4.9l-3.72 1.18c-1.96.59-3.13 2.74-2.55 4.8l3.33 10.97 20.56-6.37c-9.4-23.01-8.52-49.94 4.9-73.15 13.42-23.31 36.33-37.6 61.01-40.93l-4.8-20.96-11.16 2.55a3.82 3.82 0 0 0-2.84 4.6l.88 3.82c.49 2.06-.78 4.31-2.74 4.99l-7.34 3.04c-1.86.88-4.41.1-5.48-1.66l-2.06-3.23c-1.08-1.76-3.43-2.35-5.29-1.18l-6.46 4.01c-1.76 1.08-2.35 3.43-1.18 5.29l2.06 3.23c1.08 1.76.69 4.31-.98 5.58l-5.97 5.29c-1.47 1.47-4.11 1.57-5.68.2l-2.94-2.45c-1.66-1.37-4.01-1.08-5.39.59l-4.8 5.88c-1.37 1.66-1.08 4.01.59 5.39l2.94 2.45c1.66 1.37 2.06 3.82.88 5.58 0-.2-.59.69-1.86 2.74Z" class="cls-1"/><path d="M148.93 203.68c2.45 0 3.53-.1 3.53-.1 2.06-.1 4.11 1.47 4.41 3.53l.59 3.82c.29 2.06 2.35 3.53 4.41 3.13l7.54-1.18c2.06-.29 3.53-2.25 3.13-4.41l-.59-3.72c-.29-2.06 1.08-4.21 3.04-4.8l7.54-2.55c1.96-.78 4.41.1 5.39 1.96l1.76 3.33c.98 1.86 3.33 2.55 5.19 1.57l6.76-3.62c1.86-.98 2.55-3.33 1.57-5.19l-1.86-3.43c-.98-1.86-.39-4.31 1.27-5.58l6.27-4.8c1.57-1.37 4.21-1.27 5.68.2l2.84 2.64c1.57 1.47 3.92 1.37 5.39-.2l7.83-8.32-15.77-14.59c-15.18 19.68-39.07 32.31-65.8 32.31s-50.63-12.63-65.8-32.31l-15.77 14.59 7.83 8.32c1.47 1.57 3.82 1.66 5.39.2l2.84-2.64c1.57-1.47 4.11-1.47 5.68-.1l6.27 4.8c1.66 1.18 2.35 3.72 1.27 5.58l-1.86 3.43c-.98 1.86-.29 4.21 1.57 5.19l6.76 3.62c1.86.98 4.21.29 5.19-1.57l1.76-3.33c.98-1.86 3.43-2.74 5.39-1.96l7.54 2.55c2.06.59 3.43 2.74 3.04 4.8l-.59 3.72c-.29 2.06 1.08 4.01 3.13 4.41l7.54 1.18c2.06.29 4.01-1.08 4.41-3.13l.59-3.82c.29-2.06 2.35-3.62 4.41-3.53-.2-.1.88 0 3.33 0ZM228.34 66.2c-1.27-2.15-1.86-3.04-1.86-3.04-1.18-1.76-.78-4.31.88-5.58l2.94-2.45c1.66-1.37 1.86-3.72.59-5.39l-4.8-5.88c-1.37-1.66-3.72-1.86-5.39-.59l-2.94 2.45c-1.66 1.37-4.21 1.18-5.68-.2l-5.97-5.29c-1.66-1.27-2.06-3.82-.98-5.58l2.06-3.23c1.08-1.76.59-4.11-1.18-5.29l-6.46-4.01c-1.76-1.08-4.11-.59-5.29 1.18l-2.06 3.23c-1.08 1.76-3.53 2.55-5.48 1.66l-7.34-3.04c-1.96-.69-3.23-2.94-2.74-4.99l.88-3.82c.49-2.06-.78-4.11-2.84-4.6l-11.16-2.55-4.7 21.15c24.68 3.33 47.49 17.63 60.91 40.83 13.42 23.21 14.3 50.14 4.9 73.15l20.56 6.37 3.33-10.97c.59-1.96-.49-4.11-2.55-4.8l-3.72-1.18c-1.96-.59-3.33-2.84-2.94-4.9l1.08-7.83c.2-2.06 2.06-3.82 4.11-3.92l3.82-.1c2.06-.1 3.72-1.86 3.72-3.92l-.29-7.64c-.1-2.06-1.86-3.72-3.92-3.72l-3.82.1c-2.06.1-4.11-1.57-4.41-3.62l-1.57-7.74c-.49-2.06.69-4.31 2.64-5.09l3.53-1.37a3.885 3.885 0 0 0 2.25-4.9l-2.74-7.15a3.885 3.885 0 0 0-4.9-2.25l-3.53 1.37c-1.96.78-4.31-.2-5.29-2.06 0 .2-.39-.69-1.66-2.84ZM29.85 64.43c-.1.1-.1.2-.1.2s0-.1.1-.2m32.71-43.18.29.39c.88-.59 4.01-2.84 7.74-3.92C91.35 11.84 90.27 4.7 99.09.49L98.8 0c-.88.59-3.53 2.15-7.34 2.15-24.29.29-22.42 14.49-28.89 19.1Z" class="cls-1"/><path d="m38.47 48.18.49.29c4.9-5.48 9.69-6.46 10.48-6.76 19.19-5.68 25.95-18.41 31.14-22.03l-.2-.29c-7.15 5.09-15.57-.1-30.06 15.37-.1.1-.49-.49-.49-.49 11.75-14.2 12.04-23.8 17.43-28.99l-.29-.29c-34.18 20.37-19.1 31.53-28.5 43.18Z" class="cls-1"/><path d="M39.84 24.58C7.62 56.5 27.7 64.63 22.61 80.59l.29.1c2.94-6.76 10.38-9.69 10.58-9.79 13.71-6.27 18.02-22.13 23.4-27.03l-.29-.29c-6.66 7.25-17.63 3.13-26.64 21.05 0 .1-.59-.29-.59-.29 7.25-15.57 3.82-29.77 10.77-39.46l-.29-.29Z" class="cls-1"/><path d="M16.44 122.89h.49c-.1-1.86-.59-9.4 6.95-16.45 15.28-14.2 12.73-26.73 19-36.53l-.49-.29c-4.9 8.42-22.72 17.53-23.4 30.26l-.69-.1c2.64-18.31-7.05-30.45-1.76-42.11-.2-.1-.39-.2-.49-.29-20.47 42.11-3.53 41.52.39 65.51" class="cls-1"/><path d="m24.27 162.85.49-.2c-4.21-9.5 2.84-22.42 3.13-23.11 9.3-18.02 6.17-34.37 8.32-40.05l-.49-.1c-4.99 12.34-18.7 19.1-16.55 39.86h-.69c-2.15-12.93-16.84-25.26-16.35-39.37h-.29c-8.91 50.14 17.04 49.75 22.42 62.97Z" class="cls-1"/><path d="m45.13 199.96.39-.29c-8.72-10.58-6.07-22.03-5.88-22.82 4.31-24.97-3.72-29.48-3.92-40.74h-.39c-.39 12.63-13.32 26.83-1.57 44.46l-.59.39c-13.02-18.9-23.31-14.3-29.38-33.1-.2 0-.39.1-.49.2 9.11 54.94 33.49 38.29 41.81 51.9Z" class="cls-1"/><path d="m95.56 223.85-.1-.49c-17.04 3.43-25.75.1-28.79-15.57-4.31-22.03-19.29-30.45-21.05-39.27-.29 0-.39 0-.39.1 3.23 15.57-4.31 24.77 14.39 43.38l-.49.39c-18.02-14.3-30.45-9.01-37.6-19-.1.1-.29.2-.29.29 22.23 37.21 46.22 39.27 74.32 30.16Z" class="cls-1"/><path d="m53.45 230.32.1-.2c22.91 13.42 46.91-5.29 75.89-5.97 7.25-.2 29.08 1.18 49.06 24.38l-5.29 1.47c-6.56-11.46-16.75-19.78-26.05-22.03-26.44-6.56-26.93 18.02-56.21 18.41-21.74.29-36.62-15.28-37.5-16.06M267.71 64.43c.1.1.1.2.1.2s0-.1-.1-.2" class="cls-1"/><path d="M267.71 64.43c.1.1.1.2.1.2s0-.1-.1-.2m-237.86 0c-.1.1-.1.2-.1.2s0-.1.1-.2" class="cls-1"/><path d="M267.71 64.43c.1.1.1.2.1.2s0-.1-.1-.2M235 21.25l-.29.39c-.88-.59-4.01-2.84-7.74-3.92-20.76-5.88-19.68-13.02-28.5-17.23l.29-.39c.88.59 3.53 2.15 7.34 2.15 24.29.2 22.42 14.39 28.89 19Z" class="cls-1"/><path d="m259.19 48.18-.49.29c-4.9-5.48-9.69-6.46-10.48-6.76-19.29-5.68-26.05-18.51-31.24-22.13l.2-.29c7.15 5.09 15.57-.1 30.06 15.37.1.1.49-.49.49-.49-11.75-14.2-12.04-23.8-17.43-28.99l.29-.29c34.18 20.47 19.19 31.63 28.59 43.28Z" class="cls-1"/><path d="M257.72 24.58c32.22 31.92 12.14 40.05 17.23 56.01l-.29.1c-2.94-6.76-10.38-9.69-10.58-9.79-13.61-6.27-17.92-22.23-23.4-27.03l.29-.29c6.66 7.25 17.72 3.13 26.64 21.05 0 .1.59-.29.59-.29-7.25-15.57-3.82-29.77-10.77-39.46l.29-.29Z" class="cls-1"/><path d="M281.13 122.89h-.49c.1-1.86.59-9.4-6.95-16.45-15.28-14.2-12.73-26.73-19-36.53l.49-.29c4.9 8.32 22.72 17.43 23.4 30.16l.69-.1c-2.64-18.31 7.05-30.45 1.76-42.11.2-.1.39-.2.49-.29 20.47 42.21 3.53 41.62-.39 65.61" class="cls-1"/><path d="m273.29 162.85-.49-.2c4.21-9.5-2.84-22.42-3.13-23.11-9.3-18.02-6.17-34.37-8.32-40.05l.49-.1c4.99 12.34 18.7 19.1 16.55 39.86h.69c2.15-12.93 16.84-25.26 16.35-39.37h.29c8.91 50.14-17.04 49.75-22.42 62.97Z" class="cls-1"/><path d="m252.43 199.96-.39-.29c8.72-10.58 6.07-22.03 5.88-22.82-4.31-24.97 3.72-29.48 3.92-40.74h.39c.39 12.63 13.32 26.83 1.57 44.46l.59.39c12.93-18.9 23.21-14.3 29.28-33 .2 0 .39.1.49.2-9.01 54.84-33.39 38.19-41.72 51.8Z" class="cls-1"/><path d="m202 223.85.1-.49c17.04 3.43 25.75.1 28.79-15.57 4.31-22.03 19.29-30.45 21.05-39.27.29 0 .39 0 .39.1-3.23 15.57 4.31 24.77-14.39 43.38l.49.39c18.02-14.3 30.45-9.01 37.6-19 .1.1.29.2.29.29-22.23 37.21-46.22 39.27-74.32 30.16Z" class="cls-1"/><path d="m244.11 230.32-.2-.2c-22.91 13.42-46.91-5.29-75.89-5.97-7.25-.2-29.08 1.18-49.06 24.38l5.29 1.47c6.56-11.46 16.75-19.78 26.05-22.03 26.44-6.56 26.93 18.02 56.21 18.41 21.84.29 36.72-15.28 37.6-16.06M29.85 64.43c-.1.1-.1.2-.1.2s0-.1.1-.2" class="cls-1"/><path d="M29.85 64.43c-.1.1-.1.2-.1.2s0-.1.1-.2m237.86 0c.1.1.1.2.1.2s0-.1-.1-.2m79.32 48.28V67.47h7.74v45.24zm35.64 0v-19c0-5.09-2.06-7.74-6.17-7.74-4.5 0-6.76 2.55-6.76 7.54v19.1h-7.54v-33h7.54v3.13c2.15-2.55 5.09-3.92 8.72-3.92 3.43 0 6.27 1.08 8.42 3.23s3.23 5.58 3.23 10.28v20.27h-7.44v.1Zm23.9.69c-5.09 0-7.74-2.84-7.74-8.42v-18.7h-4.9v-6.56h4.9V69.63l7.54-3.62v13.61h7.64v6.56h-7.54v17.23c0 2.15.88 3.13 2.74 3.13 1.66 0 3.43-.49 5.19-1.47l-.88 6.76c-1.96 1.08-4.21 1.57-6.95 1.57m26.04 0c-4.7 0-8.42-1.57-11.16-4.6s-4.11-7.34-4.11-12.73 1.37-9.6 4.11-12.63c2.74-3.04 6.46-4.6 11.16-4.6 4.21 0 7.64 1.27 10.38 3.92 2.74 2.64 4.01 6.46 4.01 11.56 0 1.76-.1 3.33-.29 4.7h-21.93c.1 2.35.98 4.21 2.45 5.58 1.47 1.47 3.23 2.15 5.29 2.15 2.94 0 5.29-1.18 6.95-3.43l4.8 4.9c-2.74 3.53-6.66 5.19-11.65 5.19Zm-7.64-20.66h14.59c-.2-2.35-.88-4.21-2.15-5.39-1.27-1.27-2.84-1.86-4.7-1.86-2.15 0-3.92.59-5.29 1.76-1.47 1.27-2.25 3.04-2.45 5.48Zm27.33 19.97v-33.1h7.54v3.43c1.37-2.84 3.62-4.21 6.76-4.21 2.35 0 4.41.78 6.17 2.25l-1.08 6.95c-1.66-1.18-3.53-1.76-5.58-1.76-1.76 0-3.23.59-4.41 1.76-1.18 1.18-1.76 3.23-1.76 6.07v18.51h-7.64zm44.65 0v-19c0-5.09-2.06-7.74-6.17-7.74-4.5 0-6.76 2.55-6.76 7.54v19.1h-7.54v-33h7.54v3.13c2.15-2.55 5.09-3.92 8.72-3.92 3.43 0 6.27 1.08 8.42 3.23s3.23 5.58 3.23 10.28v20.27h-7.44v.1Zm33.2 0v-2.64c-2.15 2.25-5.09 3.43-8.81 3.43-3.53 0-6.37-.98-8.62-2.84-2.25-1.96-3.33-4.6-3.33-8.13s1.27-6.27 3.82-8.13 5.58-2.74 9.11-2.74c3.13 0 5.78.59 7.83 1.76v-1.76c0-2.15-.49-3.62-1.57-4.6s-2.64-1.47-4.9-1.47c-3.62 0-6.85 1.08-9.79 3.13l-2.35-6.17c3.62-2.45 7.93-3.62 12.93-3.62 1.76 0 3.23.1 4.6.39 1.27.29 2.64.78 4.11 1.66 1.37.78 2.45 2.15 3.23 3.92s1.18 3.92 1.18 6.56v21.25zm-7.44-5.97c2.84 0 5.39-1.08 7.34-3.13V99.3c-1.86-.88-4.11-1.37-6.56-1.37-2.06 0-3.62.39-4.9 1.08s-1.86 1.86-1.86 3.33c0 1.37.49 2.35 1.57 3.13s2.55 1.27 4.41 1.27m31.04 6.66c-5.09 0-7.74-2.84-7.74-8.42v-18.7h-4.9v-6.56h4.9V69.63l7.54-3.62v13.61h7.64v6.56h-7.64v17.23c0 2.15.88 3.13 2.74 3.13 1.66 0 3.43-.49 5.19-1.47l-.88 6.76c-1.86 1.08-4.11 1.57-6.85 1.57m19.39-39.57c-.88.88-1.96 1.37-3.13 1.37-1.27 0-2.35-.49-3.23-1.37s-1.37-1.96-1.37-3.23.49-2.35 1.37-3.13c.88-.88 1.96-1.27 3.23-1.27s2.35.39 3.13 1.27c.88.88 1.27 1.96 1.27 3.13 0 1.27-.49 2.35-1.27 3.23m-7.05 38.88v-33.1h7.54v33h-7.54zm28.2.69c-4.7 0-8.32-1.57-11.07-4.6s-4.11-7.25-4.11-12.63 1.37-9.6 4.11-12.73c2.74-3.04 6.37-4.6 11.07-4.6s8.32 1.57 11.07 4.6 4.11 7.34 4.11 12.73-1.37 9.6-4.11 12.63c-2.74 3.13-6.37 4.6-11.07 4.6m0-7.15q3.525 0 5.58-2.64c1.37-1.76 2.06-4.21 2.06-7.34s-.69-5.58-2.06-7.44-3.23-2.74-5.58-2.74-4.11.88-5.48 2.74-2.06 4.31-2.06 7.44.69 5.58 2.06 7.34c1.27 1.66 3.13 2.64 5.48 2.64m41.03 6.46v-19c0-5.09-2.06-7.74-6.17-7.74-4.5 0-6.76 2.55-6.76 7.54v19.1h-7.54v-33h7.54v3.13c2.15-2.55 5.09-3.92 8.72-3.92 3.43 0 6.27 1.08 8.42 3.23s3.23 5.58 3.23 10.28v20.27h-7.44v.1Zm33.19 0v-2.64c-2.15 2.25-5.09 3.43-8.81 3.43-3.53 0-6.37-.98-8.62-2.84-2.25-1.96-3.33-4.6-3.33-8.13s1.27-6.27 3.82-8.13 5.58-2.74 9.11-2.74c3.13 0 5.78.59 7.83 1.76v-1.76c0-2.15-.49-3.62-1.57-4.6s-2.64-1.47-4.9-1.47c-3.62 0-6.85 1.08-9.79 3.13l-2.35-6.17c3.62-2.45 7.93-3.62 12.93-3.62 1.76 0 3.23.1 4.6.39 1.27.29 2.64.78 4.11 1.66 1.37.78 2.45 2.15 3.23 3.92s1.18 3.92 1.18 6.56v21.25zm-7.34-5.97c2.84 0 5.39-1.08 7.34-3.13V99.3c-1.86-.88-4.11-1.37-6.56-1.37-2.06 0-3.62.39-4.9 1.08s-1.86 1.86-1.86 3.33c0 1.37.49 2.35 1.57 3.13s2.45 1.27 4.41 1.27m21.54 5.97V69.53l7.54-3.53v46.71zm28.5.69c-4.7 0-8.42-1.57-11.16-4.6-2.74-3.04-4.11-7.34-4.11-12.73s1.37-9.6 4.11-12.63 6.46-4.6 11.16-4.6c4.21 0 7.64 1.27 10.38 3.92s4.01 6.46 4.01 11.56c0 1.76-.1 3.33-.29 4.7h-21.94c.1 2.35.98 4.21 2.45 5.58 1.47 1.47 3.23 2.15 5.29 2.15 2.94 0 5.29-1.18 6.95-3.43l4.8 4.9c-2.74 3.53-6.66 5.19-11.65 5.19Zm-7.74-20.66h14.59c-.2-2.35-.88-4.21-2.15-5.39-1.27-1.27-2.84-1.86-4.7-1.86-2.15 0-3.92.59-5.29 1.76-1.47 1.27-2.25 3.04-2.45 5.48Zm-326.57 84.6-3.53-9.89h-17.92l-3.53 9.89h-8.23l16.84-45.24h7.74l16.84 45.24h-8.23Zm-6.07-16.94-4.99-13.61c-.69-1.66-1.18-3.13-1.47-4.6-.39 1.27-.88 2.74-1.47 4.6l-4.99 13.61h12.93Zm18.8 16.94v-33h7.54v3.43c1.37-2.84 3.62-4.21 6.76-4.21 2.35 0 4.41.78 6.17 2.25l-1.08 6.95c-1.66-1.18-3.53-1.76-5.58-1.76-1.76 0-3.23.59-4.41 1.76s-1.76 3.23-1.76 6.07v18.51zm39.17.69c-3.13 0-5.58-1.08-7.34-3.33v2.55h-7.54v-43.28l7.54-3.43v16.06c1.86-2.15 4.31-3.23 7.44-3.23 4.11 0 7.44 1.57 9.89 4.7 2.55 3.13 3.82 7.34 3.82 12.63s-1.27 9.79-3.72 12.83-5.78 4.5-10.09 4.5m-.98-7.15c2.35 0 4.11-.88 5.29-2.64 1.27-1.76 1.86-4.21 1.86-7.44s-.59-5.78-1.86-7.54-3.04-2.55-5.29-2.55c-2.84 0-4.99 1.08-6.37 3.23v13.81c1.37 2.06 3.53 3.13 6.37 3.13m34.07 7.15c-4.7 0-8.42-1.57-11.16-4.6-2.74-3.04-4.11-7.34-4.11-12.73s1.37-9.6 4.11-12.63c2.74-3.04 6.46-4.6 11.16-4.6 4.21 0 7.64 1.27 10.38 3.92 2.74 2.64 4.01 6.46 4.01 11.56 0 1.76-.1 3.33-.29 4.7h-21.93c.1 2.35.98 4.21 2.45 5.58 1.47 1.47 3.23 2.15 5.29 2.15 2.94 0 5.29-1.18 6.95-3.43l4.8 4.9c-2.84 3.53-6.76 5.19-11.65 5.19Zm-7.74-20.66h14.59c-.2-2.35-.88-4.21-2.15-5.39-1.27-1.27-2.84-1.86-4.7-1.86-2.15 0-3.92.59-5.29 1.76-1.47 1.27-2.25 3.04-2.45 5.48Zm34.18-18.91c-.88.88-1.96 1.37-3.13 1.37-1.27 0-2.35-.49-3.23-1.37s-1.37-1.96-1.37-3.23.49-2.35 1.37-3.13c.88-.88 1.96-1.27 3.23-1.27s2.35.39 3.13 1.27c.88.88 1.27 1.96 1.27 3.13.1 1.27-.39 2.35-1.27 3.23m-6.95 38.88v-33h7.54v33zm24.29.69c-5.09 0-7.74-2.84-7.74-8.42v-18.7h-4.9v-6.56h4.9v-9.99l7.54-3.62v13.61h7.64v6.56h-7.64v17.23c0 2.15.88 3.13 2.74 3.13 1.66 0 3.43-.49 5.19-1.47l-.88 6.76c-1.76.98-4.11 1.47-6.85 1.47m23.99 0c-2.64 0-5.19-.49-7.54-1.57s-4.11-2.45-5.29-4.11l5.19-4.41c2.35 2.35 4.9 3.53 7.74 3.53 3.62 0 5.39-1.08 5.39-3.23 0-.69-.29-1.37-.98-1.96-.59-.59-1.27-1.08-1.96-1.37s-1.86-.78-3.43-1.47c-3.82-1.27-6.56-2.64-8.32-4.31-1.76-1.57-2.64-3.72-2.64-6.46s1.08-5.09 3.33-6.76c2.25-1.57 4.99-2.45 8.42-2.45 4.99 0 8.91 1.66 11.85 5.09l-5.19 4.31c-1.96-1.86-4.11-2.74-6.56-2.74-2.94 0-4.5.88-4.5 2.74 0 .88.59 1.66 1.66 2.35 1.08.69 2.74 1.27 4.8 1.96 3.62 1.18 6.27 2.64 8.13 4.31 1.86 1.66 2.74 3.92 2.74 6.85 0 3.13-1.18 5.58-3.43 7.25-2.45 1.66-5.48 2.45-9.4 2.45Zm31.53 0c-4.7 0-8.32-1.57-11.07-4.6q-4.11-4.56-4.11-12.63c0-8.07 1.37-9.6 4.11-12.73 2.74-3.04 6.37-4.6 11.07-4.6s8.32 1.57 11.07 4.6c2.74 3.04 4.11 7.34 4.11 12.73s-1.37 9.6-4.11 12.63c-2.64 3.13-6.37 4.6-11.07 4.6m0-7.15q3.525 0 5.58-2.64c2.055-2.64 2.06-4.21 2.06-7.34s-.69-5.58-2.06-7.44-3.23-2.74-5.58-2.74-4.11.88-5.48 2.74-2.06 4.31-2.06 7.44.69 5.58 2.06 7.34c1.37 1.66 3.23 2.64 5.48 2.64m20.76 6.46v-33h7.54v3.43c1.37-2.84 3.62-4.21 6.76-4.21 2.35 0 4.41.78 6.17 2.25l-1.08 6.95c-1.66-1.18-3.53-1.76-5.58-1.76-1.76 0-3.23.59-4.41 1.76s-1.76 3.23-1.76 6.07v18.51zm35.45 12.93-4.01-6.07c4.5-.29 7.64-.98 9.4-2.06s2.64-2.74 2.64-5.09v-1.86c-1.76 1.96-4.31 2.94-7.54 2.94-4.01 0-7.34-1.47-9.89-4.5s-3.82-7.25-3.82-12.83 1.27-9.6 3.82-12.63c2.55-3.04 5.88-4.6 9.89-4.6 3.13 0 5.58.88 7.44 2.74v-1.96h7.54v29.77c0 5.48-1.18 9.4-3.53 11.85-2.15 2.35-6.27 3.82-11.95 4.31Zm1.86-19.39c2.74 0 4.8-1.08 6.17-3.23v-13.71c-1.47-2.15-3.62-3.23-6.17-3.23-2.35 0-4.21.88-5.48 2.55-1.27 1.76-1.86 4.21-1.86 7.54 0 3.13.69 5.58 1.96 7.34s3.04 2.74 5.39 2.74Zm39.66 6.46v-2.64c-2.15 2.25-5.09 3.43-8.81 3.43-3.53 0-6.37-.98-8.62-2.84-2.25-1.96-3.33-4.6-3.33-8.13s1.27-6.27 3.82-8.13 5.58-2.74 9.11-2.74c3.13 0 5.78.59 7.83 1.76v-1.76c0-2.15-.49-3.62-1.57-4.6s-2.64-1.47-4.9-1.47c-3.62 0-6.85 1.08-9.79 3.13l-2.35-6.17c3.62-2.45 7.93-3.62 12.93-3.62 1.76 0 3.23.1 4.6.39 1.27.29 2.64.78 4.11 1.66 1.37.78 2.45 2.15 3.23 3.92s1.18 3.92 1.18 6.56v21.25zm-7.44-5.97c2.84 0 5.39-1.08 7.34-3.13v-4.31c-1.86-.88-4.11-1.37-6.56-1.37-2.06 0-3.62.39-4.9 1.08-1.27.69-1.86 1.86-1.86 3.33 0 1.37.49 2.35 1.57 3.13s2.55 1.27 4.41 1.27m41.91 5.97v-18.9c0-5.09-2.06-7.74-6.17-7.74-4.5 0-6.76 2.55-6.76 7.54v19.1h-7.54v-33h7.54v3.13c2.15-2.55 5.09-3.92 8.72-3.92 3.43 0 6.27 1.08 8.42 3.23s3.23 5.58 3.23 10.28v20.27h-7.44Zm21.25-38.88c-.88.88-1.96 1.37-3.13 1.37-1.27 0-2.35-.49-3.23-1.37s-1.37-1.96-1.37-3.23.49-2.35 1.37-3.13c.88-.88 1.96-1.27 3.23-1.27s2.35.39 3.13 1.27c.88.88 1.27 1.96 1.27 3.13 0 1.27-.39 2.35-1.27 3.23m-7.05 38.88v-33h7.54v33zm25.06.69c-2.64 0-5.19-.49-7.54-1.57s-4.11-2.45-5.29-4.11l5.19-4.41c2.35 2.35 4.9 3.53 7.74 3.53 3.62 0 5.39-1.08 5.39-3.23 0-.69-.29-1.37-.98-1.96-.59-.59-1.27-1.08-1.96-1.37s-1.86-.78-3.43-1.47c-3.82-1.27-6.56-2.64-8.32-4.31-1.76-1.57-2.64-3.72-2.64-6.46s1.08-5.09 3.33-6.76c2.25-1.57 4.99-2.45 8.42-2.45 4.99 0 8.91 1.66 11.85 5.09l-5.19 4.31c-1.96-1.86-4.11-2.74-6.56-2.74-2.94 0-4.5.88-4.5 2.74 0 .88.59 1.66 1.66 2.35 1.08.69 2.74 1.27 4.8 1.96 3.62 1.18 6.27 2.64 8.13 4.31 1.86 1.66 2.74 3.92 2.74 6.85 0 3.13-1.18 5.58-3.43 7.25-2.45 1.66-5.58 2.45-9.4 2.45Zm37.21-.69v-2.64c-2.15 2.25-5.09 3.43-8.81 3.43-3.53 0-6.37-.98-8.62-2.84-2.25-1.96-3.33-4.6-3.33-8.13s1.27-6.27 3.82-8.13 5.58-2.74 9.11-2.74c3.13 0 5.78.59 7.83 1.76v-1.76c0-2.15-.49-3.62-1.57-4.6s-2.64-1.47-4.9-1.47c-3.62 0-6.85 1.08-9.79 3.13l-2.35-6.17c3.62-2.45 7.93-3.62 12.93-3.62 1.76 0 3.23.1 4.6.39 1.27.29 2.64.78 4.11 1.66 1.37.78 2.45 2.15 3.23 3.92s1.18 3.92 1.18 6.56v21.25zm-7.34-5.97c2.84 0 5.39-1.08 7.34-3.13v-4.31c-1.86-.88-4.11-1.37-6.56-1.37-2.06 0-3.62.39-4.9 1.08-1.27.69-1.86 1.86-1.86 3.33 0 1.37.49 2.35 1.57 3.13s2.45 1.27 4.41 1.27m30.94 6.66c-5.09 0-7.74-2.84-7.74-8.42v-18.7h-4.9v-6.56h4.9v-9.99l7.54-3.62v13.61h7.64v6.56h-7.64v17.23c0 2.15.88 3.13 2.74 3.13 1.66 0 3.43-.49 5.19-1.47l-.88 6.76c-1.76.98-4.11 1.47-6.85 1.47m19.39-39.57c-.88.88-1.96 1.37-3.13 1.37-1.27 0-2.35-.49-3.23-1.37s-1.37-1.96-1.37-3.23.49-2.35 1.37-3.13c.88-.88 1.96-1.27 3.23-1.27s2.35.39 3.13 1.27c.88.88 1.27 1.96 1.27 3.13 0 1.27-.39 2.35-1.27 3.23m-6.95 38.88v-33h7.54v33zm28.1.69c-4.7 0-8.32-1.57-11.07-4.6q-4.11-4.56-4.11-12.63c0-8.07 1.37-9.6 4.11-12.73 2.74-3.04 6.37-4.6 11.07-4.6s8.32 1.57 11.07 4.6c2.74 3.04 4.11 7.34 4.11 12.73s-1.37 9.6-4.11 12.63c-2.64 3.13-6.37 4.6-11.07 4.6m0-7.15q3.525 0 5.58-2.64c2.055-2.64 2.06-4.21 2.06-7.34s-.69-5.58-2.06-7.44-3.23-2.74-5.58-2.74-4.11.88-5.48 2.74-2.06 4.31-2.06 7.44.69 5.58 2.06 7.34c1.27 1.66 3.13 2.64 5.48 2.64m41.13 6.46v-18.9c0-5.09-2.06-7.74-6.17-7.74-4.5 0-6.76 2.55-6.76 7.54v19.1h-7.54v-33h7.54v3.13c2.15-2.55 5.09-3.92 8.72-3.92 3.43 0 6.27 1.08 8.42 3.23s3.23 5.58 3.23 10.28v20.27h-7.44Z" class="cls-1"/></svg>