<?xml version="1.0" encoding="utf-8"?>
<!-- Generator: Adobe Illustrator 24.0.1, SVG Export Plug-In . SVG Version: 6.00 Build 0)  -->
<svg version="1.1" id="Calque_1" xmlns="http://www.w3.org/2000/svg" xmlns:xlink="http://www.w3.org/1999/xlink" x="0px" y="0px"
	 viewBox="0 0 216.6 74.8" style="enable-background:new 0 0 216.6 74.8;" xml:space="preserve">
<style type="text/css">
	.st0{display:none;}
	.st1{fill:#FFFFFF;}
</style>
<g id="Grid_Background" class="st0">
</g>
<g id="Lockup">
	<g>
		<path class="st1" d="M120.1,29v17h-1.9v-1h-12.3v1h-1.8V29H120.1z M118.2,43.4V30.7h-12.3v12.6L118.2,43.4L118.2,43.4z
			 M117.3,40.4v1.5H107v-1.5h4.2v-2.9h-3.4V36h3.4v-2.3h-3.9v-1.6h9.7v1.6h-4V36h3.6v1.5H113v2.9h2.7c-0.3-0.6-1.1-1.5-1.7-2.1
			l1.1-0.6c0.7,0.6,1.4,1.5,1.8,2l-1.2,0.7C115.7,40.4,117.3,40.4,117.3,40.4z"/>
		<path class="st1" d="M139.8,30.1c-0.6,1.6-1.4,3.3-2.4,4.5c0.8,0.9,1.7,1.6,2.8,2.2c-0.4,0.3-0.8,0.9-1.1,1.3
			c-0.9-0.5-1.6-1-2.3-1.7v1h-6.4v-0.8c-0.6,0.7-1.4,1.2-2.1,1.6c-0.2-0.3-0.6-0.9-0.9-1.2c0.2,0.7,0.3,1.4,0.3,2
			c0,1.1-0.2,2-0.7,2.4c-0.2,0.2-0.5,0.3-0.9,0.4c-0.3,0-0.6,0-1,0c0-0.4-0.1-1.1-0.3-1.5c0.2,0,0.5,0,0.7,0s0.3-0.1,0.4-0.2
			c0.2-0.2,0.3-0.7,0.3-1.3c0-1-0.2-2.4-1.2-3.9c0.4-1.3,0.8-3.1,1-4.4h-1.6V46H123V29h3.6l0.2-0.1l1.1,0.6
			c-0.2,1.1-0.6,2.3-0.9,3.5c1.3-1.2,2.3-2.9,2.9-4.8l1.4,0.3c-0.1,0.4-0.3,0.8-0.4,1.2h1.7l0.3-0.1l0.7,0.3
			c-0.1-0.4-0.2-0.7-0.3-1.1l1.4-0.3c0.4,1.8,1,3.5,1.9,4.8c0.5-0.7,0.9-1.6,1.2-2.5h-2.2v-1.3h2.9l0.3-0.1L139.8,30.1z M129.8,35.1
			c-0.4-0.4-0.9-0.9-1.5-1.3c-0.2,0.2-0.4,0.4-0.5,0.5c-0.2-0.2-0.6-0.5-0.9-0.8c-0.1,0.5-0.3,1-0.4,1.4c0.5,0.7,0.8,1.5,1,2.1
			C128.3,36.6,129.1,35.9,129.8,35.1z M131.1,41.6c-0.6,1.3-1.6,2.8-2.5,3.7c-0.3-0.3-1-0.7-1.4-0.9c0.9-0.8,1.8-2,2.3-3.2
			L131.1,41.6z M134.6,40.4v3.8c0,0.8-0.1,1.2-0.7,1.5c-0.6,0.2-1.4,0.2-2.6,0.2c-0.1-0.5-0.3-1.1-0.6-1.5c0.9,0,1.7,0,1.9,0
			s0.3-0.1,0.3-0.3v-3.8h-4.1v-1.5h10v1.5L134.6,40.4L134.6,40.4z M131,33.4c-0.4-0.3-1-0.8-1.5-1.1c-0.2,0.2-0.4,0.5-0.5,0.7
			c0.5,0.4,1.1,0.8,1.5,1.2C130.7,34,130.9,33.7,131,33.4z M130.3,31c-0.1,0.2-0.2,0.3-0.3,0.5c0.5,0.3,1.1,0.6,1.4,0.9
			c0.2-0.4,0.4-0.9,0.5-1.4L130.3,31L130.3,31z M136.5,36c-1.3-1.5-2.2-3.3-2.8-5.5c-0.5,2.2-1.5,4.1-2.7,5.5H136.5z M137.3,41.1
			c0.9,1,2,2.5,2.5,3.4l-1.4,0.8c-0.4-1-1.4-2.4-2.4-3.5L137.3,41.1z"/>
		<path class="st1" d="M156.9,37.2c0,0,0,0.5,0,0.8c-0.2,4.7-0.5,6.6-1.1,7.3c-0.4,0.5-0.9,0.7-1.6,0.7c-0.7,0.1-1.9,0.1-3.1,0
			c0-0.5-0.3-1.3-0.6-1.8c1.3,0.1,2.5,0.1,3,0.1c0.4,0,0.6,0,0.8-0.2c0.4-0.4,0.6-1.8,0.8-5.2h-4.9c-0.7,3.5-2.4,5.8-7.5,7.1
			c-0.2-0.5-0.7-1.2-1.1-1.6c4.4-1,6-2.8,6.6-5.5h-5v-1.7h5.3c0.1-0.8,0.1-1.7,0.2-2.7h2c0,1-0.1,1.9-0.2,2.7L156.9,37.2L156.9,37.2
			z M158.3,32.2v4.2h-1.8v-2.5h-12.7v2.5h-1.7v-4.2h2.9c-0.4-0.9-1.1-2.1-1.9-3l1.6-0.7c0.8,0.9,1.7,2.1,2.1,3l-1.4,0.7h8.3
			l-0.4-0.2c0.8-1,1.8-2.5,2.3-3.7l2,0.6c-0.8,1.1-1.6,2.3-2.4,3.2L158.3,32.2L158.3,32.2z M149.6,32.1c-0.2-0.9-0.8-2.3-1.4-3.3
			l1.6-0.5c0.7,1,1.3,2.3,1.5,3.2L149.6,32.1z"/>
		<path class="st1" d="M178,32.6c0,0,0,0.6,0,0.8c-0.2,8.1-0.3,10.8-0.8,11.7c-0.4,0.5-0.7,0.7-1.2,0.8s-1.2,0.1-1.9,0
			c0-0.5-0.2-1.1-0.4-1.6c0.7,0,1.3,0.1,1.6,0.1c0.2,0,0.4-0.1,0.6-0.3c0.4-0.5,0.5-2.9,0.7-9.8H175v0.5c0,3.7-0.4,8.3-3,11.4
			c-0.3-0.3-0.9-0.7-1.3-1c0.1-0.1,0.2-0.2,0.3-0.4c-2.2,0.2-4.4,0.5-6.1,0.7l-0.2-1.5c0.9-0.1,2-0.2,3.2-0.2v-1.4h-2.7v-1.3h2.7V40
			h-2.7v-5.7h2.7v-1.1H165v-1.3h2.9v-1c-0.9,0.1-1.8,0.2-2.6,0.2c-0.1-0.4-0.2-0.8-0.3-1.1c-0.3,0.8-0.6,1.7-0.9,2.5V46h-1.6V35.6
			c-0.4,0.8-0.9,1.5-1.4,2.1c-0.1-0.5-0.6-1.5-0.8-1.9c1.5-1.9,2.8-4.7,3.6-7.5l1.6,0.4c-0.1,0.3-0.2,0.6-0.3,1
			c2.2-0.2,4.8-0.5,6.4-0.9l0.9,1.3c-0.9,0.2-1.8,0.4-2.9,0.5v1.1h2.9v0.9h1.2v-4.3h1.6v4.3L178,32.6L178,32.6z M166.4,36.4h1.6
			v-1.1h-1.6V36.4z M166.4,38.6h1.6v-1.2h-1.6V38.6z M170.9,36.4v-1.1h-1.7v1.1H170.9z M170.9,38.6v-1.2h-1.7v1.2H170.9z
			 M173.5,34.2h-1.2v-1.1h-2.9v1.1h2.8v5.7h-2.8V41h2.8v1.3h-2.8v1.3c0.8-0.1,1.7-0.2,2.5-0.2c1.4-2.7,1.6-6,1.6-8.6L173.5,34.2
			L173.5,34.2z"/>
		<path class="st1" d="M196.2,40.1c-0.6,1.2-1.3,2.2-2.2,3.1c0.5,0.8,1,1.3,1.7,1.3c0.5,0,0.7-0.4,0.8-2c0.3,0.3,0.9,0.6,1.2,0.8
			c-0.3,2.2-0.8,2.8-2.1,2.8c-1.1,0-2-0.7-2.7-1.8c-0.9,0.7-2,1.3-3.1,1.8c-0.2-0.3-0.6-0.9-1-1.2c1.3-0.5,2.5-1.1,3.5-1.9
			c-0.4-1-0.7-2.1-1-3.4h-2.6c0,0.3-0.1,0.6-0.1,1c0.9,0.6,1.9,1.3,2.5,1.8l-0.9,1.2c-0.4-0.4-1.1-1-1.8-1.5c-0.4,1.6-1.2,3-2.5,4
			c-0.2-0.4-0.7-1-1.1-1.2c1.7-1.2,2.2-3.2,2.4-5.3h-1.3v-1l-0.7,0.9c-0.2-0.6-0.7-1.6-1.2-2.5v9h-1.6v-8.2
			c-0.5,1.8-1.2,3.5-1.9,4.6c-0.2-0.5-0.6-1.1-0.8-1.5c1-1.6,2-4.5,2.5-6.9h-2.1v-1.6h2.3v-4.1h1.6v4.1h1.9V34H184v0.8
			c0.5,0.7,1.6,2.5,2,3.2h5.1c-0.4-2.8-0.6-6.2-0.6-9.7h1.6c0,1.1,0,2.2,0,3.3l0.6-0.9c0.1,0.1,0.2,0.2,0.4,0.3
			c0.4-0.8,0.8-1.8,1.1-2.6l1.4,0.5c-0.5,1-1.1,2-1.6,2.8c0.2,0.2,0.5,0.5,0.7,0.7c0.4-0.7,0.8-1.4,1.1-2.1l1.3,0.6
			c-0.8,1.3-1.8,2.9-2.7,4.1l1.6-0.1c-0.1-0.3-0.3-0.7-0.4-1l1-0.4c0.5,0.9,1,2.1,1.1,2.8l-1.1,0.5c0-0.2-0.1-0.5-0.2-0.8
			c-0.7,0.1-1.3,0.1-2,0.2c0.6,0.4,1.4,0.9,1.8,1.3l-0.4,0.4h1.6v1.4h-4.6c0.2,0.8,0.4,1.6,0.6,2.3c0.6-0.7,1-1.4,1.4-2.1
			L196.2,40.1z M186,35.4c0.4-0.5,0.8-1.1,1.2-1.8c-0.5-0.6-1.3-1.3-2-1.9l0.7-1c0.1,0.1,0.2,0.2,0.4,0.3c0.4-0.8,0.8-1.9,1.1-2.6
			l1.4,0.5c-0.5,1-1.1,2-1.6,2.8c0.2,0.2,0.5,0.5,0.7,0.7c0.4-0.7,0.8-1.4,1.1-2.1l1.3,0.6c-0.8,1.4-1.9,3-2.8,4.3l1.5-0.1
			c-0.1-0.4-0.3-0.7-0.4-1.1l1-0.4c0.5,0.9,0.9,2.1,1,2.8l-1.1,0.5c0-0.2-0.1-0.4-0.1-0.6c-1.3,0.2-2.6,0.3-3.7,0.4l-0.2-1.4
			L186,35.4z M192.7,35.1c0.4-0.5,0.7-1,1.1-1.5c-0.5-0.6-1.2-1.3-1.9-1.8c0.1,2.3,0.2,4.4,0.5,6.2h2.2c-0.4-0.3-0.9-0.7-1.3-1
			l0.8-0.8l-1.7,0.2l-0.3-1.3L192.7,35.1z"/>
		<path class="st1" d="M201.5,35.3V46h-1.8V29h7.2v6.3H201.5z M201.5,30.3v1.3h3.7v-1.3H201.5z M205.3,34.1v-1.3h-3.7v1.3H205.3z
			 M215.8,43.9c0,0.9-0.2,1.4-0.7,1.7s-1.4,0.3-2.6,0.3c-0.1-0.4-0.2-1-0.4-1.5c-0.2,0.2-0.3,0.4-0.4,0.6c-1.8-0.5-3.1-1.4-3.9-2.7
			c-0.6,1-1.8,2-4.1,2.7c-0.2-0.3-0.7-0.9-1.1-1.2c2.5-0.7,3.5-1.6,3.9-2.6h-3.7V40h4v-1.3h-3.7v-1.3h1.8c-0.2-0.5-0.5-1-0.8-1.4
			l1.4-0.4c0.4,0.6,0.8,1.3,1,1.9h2.3c0.3-0.6,0.6-1.3,0.8-1.9l1.6,0.5c-0.3,0.5-0.6,1-0.9,1.4h2v1.3h-4V40h4.3v1.3h-4
			c0.8,1.2,2.2,2.1,4,2.5c-0.2,0.1-0.3,0.3-0.5,0.5c0.6,0,1.3,0,1.5,0s0.3-0.1,0.3-0.3v-8.6h-5.6V29h7.3L215.8,43.9L215.8,43.9z
			 M210.1,30.3v1.3h3.8v-1.3H210.1z M214,34.1v-1.3h-3.8v1.3H214z"/>
	</g>
</g>
<g id="Type_Cuts">
	<g>
		<g>
			<g>
				<path class="st1" d="M20.9,19.9c-0.4,0.6-0.5,0.9-0.5,0.9c-0.3,0.6-1,0.8-1.6,0.6L17.7,21c-0.6-0.2-1.2,0.1-1.5,0.7l-0.8,2.1
					c-0.2,0.6,0.1,1.2,0.7,1.5l1.1,0.4c0.6,0.2,0.9,0.9,0.8,1.5l-0.5,2.3c-0.1,0.6-0.7,1.1-1.3,1.1h-1.1c-0.6,0-1.2,0.5-1.2,1.1
					L13.8,34c0,0.6,0.5,1.2,1.1,1.2h1.2c0.6,0,1.2,0.5,1.2,1.2l0.3,2.3c0.1,0.6-0.3,1.3-0.9,1.5l-1.1,0.3c-0.6,0.2-0.9,0.8-0.8,1.4
					l1,3.3l6.2-1.9c-2.8-6.9-2.5-15,1.5-21.9S34.4,10.2,41.7,9.2l-1.4-6.3L37,3.7c-0.6,0.1-1,0.8-0.9,1.4l0.3,1.1
					c0.1,0.6-0.2,1.3-0.8,1.5l-2.2,0.9c-0.6,0.3-1.3,0-1.6-0.5l-0.6-1c-0.3-0.5-1-0.7-1.6-0.4l-1.9,1.2c-0.5,0.3-0.7,1-0.4,1.6
					l0.6,1c0.3,0.5,0.2,1.3-0.3,1.7l-1.8,1.6c-0.5,0.4-1.2,0.5-1.7,0.1l-0.9-0.7c-0.5-0.4-1.2-0.3-1.6,0.2L20.1,15
					c-0.4,0.5-0.3,1.2,0.2,1.6l0.9,0.7c0.5,0.4,0.6,1.1,0.3,1.7C21.4,19,21.2,19.2,20.9,19.9z"/>
			</g>
			<g>
				<path class="st1" d="M44.6,61.1c0.7,0,1,0,1,0c0.6,0,1.2,0.4,1.3,1.1l0.2,1.1c0.1,0.6,0.7,1.1,1.3,0.9l2.2-0.4
					c0.6-0.1,1-0.7,0.9-1.3l-0.2-1.1c-0.1-0.6,0.3-1.3,0.9-1.5l2.2-0.8c0.6-0.2,1.3,0,1.6,0.6l0.5,1c0.3,0.5,1,0.8,1.5,0.5l2-1.1
					c0.5-0.3,0.8-1,0.5-1.5l-0.5-1c-0.3-0.5-0.1-1.3,0.4-1.7l1.9-1.5c0.5-0.4,1.2-0.4,1.7,0l0.8,0.8c0.5,0.4,1.2,0.4,1.6-0.1
					l2.3-2.5L64,48.2c-4.6,5.9-11.7,9.7-19.7,9.7s-15.1-3.8-19.7-9.7l-4.7,4.4l2.3,2.5c0.4,0.5,1.1,0.5,1.6,0.1l0.9-0.8
					c0.5-0.4,1.2-0.5,1.7,0l1.9,1.5c0.5,0.4,0.7,1.1,0.4,1.7l-0.5,1c-0.3,0.5-0.1,1.2,0.5,1.5l2,1.1c0.5,0.3,1.2,0.1,1.5-0.5l0.5-1
					c0.3-0.5,1-0.8,1.6-0.6l2.2,0.8c0.6,0.2,1,0.8,0.9,1.5l-0.2,1.1c-0.1,0.6,0.3,1.2,0.9,1.3l2.2,0.4c0.6,0.1,1.2-0.3,1.3-0.9
					l0.2-1.1c0.1-0.6,0.7-1.1,1.3-1.1C43.6,61,43.9,61.1,44.6,61.1z"/>
			</g>
			<g>
				<path class="st1" d="M68.4,19.9C68,19.3,67.9,19,67.9,19c-0.3-0.5-0.2-1.3,0.3-1.7l0.9-0.7c0.5-0.4,0.6-1.1,0.2-1.6l-1.4-1.8
					c-0.4-0.5-1.1-0.6-1.6-0.2l-0.9,0.7c-0.5,0.4-1.2,0.4-1.7-0.1L61.9,12c-0.5-0.4-0.6-1.1-0.3-1.7l0.6-1c0.3-0.5,0.2-1.2-0.4-1.6
					l-1.9-1.2c-0.5-0.3-1.2-0.2-1.6,0.4l-0.6,1c-0.3,0.5-1.1,0.8-1.6,0.5l-2.2-0.9c-0.6-0.2-1-0.9-0.8-1.5l0.1-1
					c0.1-0.6-0.2-1.2-0.9-1.4L49,2.9l-1.4,6.3c7.4,1,14.2,5.3,18.2,12.2s4.3,15,1.5,21.9l6.2,1.9l1-3.3c0.2-0.6-0.2-1.2-0.8-1.4
					l-1.1-0.3c-0.6-0.2-1-0.8-0.9-1.5l0.3-2.3c0.1-0.6,0.6-1.2,1.2-1.2h1.2c0.6,0,1.1-0.5,1.1-1.2l-0.1-2.3c0-0.6-0.6-1.1-1.2-1.1
					H73c-0.6,0-1.2-0.5-1.3-1.1l-0.5-2.3c-0.2-0.6,0.2-1.3,0.8-1.5l1.1-0.4c0.6-0.2,0.9-0.9,0.7-1.5L73,21.7
					c-0.2-0.6-0.9-0.9-1.5-0.7l-1.1,0.4c-0.6,0.2-1.3,0-1.6-0.6C68.9,20.8,68.8,20.5,68.4,19.9z"/>
			</g>
			<g>
				<path class="st1" d="M9,19.4C9,19.4,8.9,19.4,9,19.4C8.9,19.4,9,19.4,9,19.4z"/>
			</g>
			<g>
				<path class="st1" d="M18.8,6.4l0.1,0.1c0.3-0.2,1.2-0.8,2.3-1.2c6.2-1.7,5.9-3.9,8.5-5.2L29.6,0c-0.3,0.2-1.1,0.6-2.2,0.6
					C20.2,0.8,20.7,5.1,18.8,6.4z"/>
			</g>
			<g>
				<path class="st1" d="M11.6,14.5l0.1,0.1c1.5-1.6,2.9-1.9,3.1-2c5.8-1.7,7.8-5.5,9.4-6.6l-0.1-0.1c-2.1,1.5-4.7,0-9,4.6L15,10.4
					c3.5-4.2,3.6-7.1,5.2-8.7l-0.1-0.1C9.9,7.7,14.4,11,11.6,14.5z"/>
			</g>
			<g>
				<path class="st1" d="M12,7.4c-9.6,9.6-3.6,12-5.2,16.8h0.1c0.9-2,3.1-2.9,3.2-2.9c4.1-1.9,5.4-6.6,7-8.1L17,13.1
					c-2,2.2-5.3,0.9-8,6.3l-0.2-0.1C11,14.6,9.9,10.4,12,7.5C12,7.5,12,7.5,12,7.4z"/>
			</g>
			<g>
				<path class="st1" d="M5,36.9L5,36.9c0.1-0.5-0.1-2.8,2.2-4.9c4.6-4.2,3.8-8,5.7-10.9L12.7,21c-1.5,2.5-6.8,5.2-7,9H5.5
					c0.8-5.5-2.1-9.1-0.5-12.6c-0.1,0-0.1-0.1-0.1-0.1C-1.3,29.9,3.8,29.7,5,36.9z"/>
			</g>
			<g>
				<path class="st1" d="M7.3,48.8h0.2c-1.3-2.8,0.8-6.7,1-6.9c2.8-5.4,1.9-10.3,2.5-12h-0.1c-1.5,3.7-5.6,5.7-5,11.9H5.7
					C5,37.9,0.6,34.2,0.7,30H0.6C-2.1,45,5.7,44.9,7.3,48.8z"/>
			</g>
			<g>
				<path class="st1" d="M13.6,59.9l0.1-0.1c-2.6-3.2-1.8-6.6-1.8-6.8c1.3-7.5-1.1-8.8-1.2-12.2h-0.1c-0.1,3.8-4,8-0.5,13.3
					l-0.2,0.1C6.1,48.6,3,50,1.2,44.4l0,0c-0.1,0-0.1,0-0.2,0C3.8,60.9,11.1,55.9,13.6,59.9z"/>
			</g>
			<g>
				<path class="st1" d="M28.7,67.1v-0.2c-5.1,1-7.7,0-8.6-4.7c-1.3-6.6-5.8-9.1-6.3-11.8l0,0c-0.1,0-0.1,0-0.1,0l0,0
					c1,4.7-1.3,7.4,4.3,13l-0.1,0.1C12.3,59.4,8.6,61,6.5,58l-0.1,0.1C13.1,69.2,20.2,69.8,28.7,67.1z"/>
			</g>
			<g>
				<path class="st1" d="M16.1,69L16.1,69c6.9,3.9,14.1-1.6,22.8-1.8c2.2-0.1,8.7,0.3,14.7,7.3L52,74.9c-2-3.4-5-5.9-7.8-6.6
					c-7.9-2-8.1,5.4-16.8,5.5C20.8,73.9,16.3,69.3,16.1,69z"/>
			</g>
			<g>
				<path class="st1" d="M80.2,19.4L80.2,19.4L80.2,19.4z"/>
			</g>
			<g>
				<path class="st1" d="M80.2,19.4L80.2,19.4L80.2,19.4z"/>
			</g>
			<g>
				<path class="st1" d="M9,19.4C9,19.4,8.9,19.4,9,19.4C8.9,19.4,9,19.4,9,19.4z"/>
			</g>
			<g>
				<path class="st1" d="M80.2,19.4L80.2,19.4L80.2,19.4z"/>
			</g>
			<g>
				<path class="st1" d="M70.4,6.4L70.4,6.4c-0.4,0-1.3-0.7-2.4-1c-6.2-1.7-5.9-3.9-8.5-5.2l0.1-0.1c0.3,0.2,1.1,0.6,2.2,0.6
					C69,0.8,68.5,5.1,70.4,6.4z"/>
			</g>
			<g>
				<path class="st1" d="M77.6,14.5l-0.1,0.1c-1.5-1.6-2.9-1.9-3.1-2C68.6,10.9,66.6,7.1,65,6l0.1-0.1c2.1,1.5,4.7,0,9,4.6l0.2-0.1
					c-3.5-4.2-3.6-7.1-5.2-8.7l0.1-0.1C79.3,7.7,74.8,11,77.6,14.5z"/>
			</g>
			<g>
				<path class="st1" d="M77.2,7.4c9.7,9.6,3.6,12,5.2,16.8h-0.1c-0.9-2-3.1-2.9-3.2-2.9c-4.1-1.9-5.4-6.6-7-8.1l0.1-0.1
					c2,2.2,5.3,0.9,8,6.3l0.2-0.1C78.2,14.6,79.2,10.4,77.2,7.4C77.1,7.5,77.2,7.5,77.2,7.4z"/>
			</g>
			<g>
				<path class="st1" d="M84.2,36.9L84.2,36.9c-0.1-0.5,0.1-2.8-2.2-4.9c-4.6-4.2-3.8-8-5.7-10.9l0.1-0.1c1.5,2.5,6.8,5.2,7,9h0.2
					c-0.8-5.5,2.1-9.1,0.5-12.6c0.1,0,0.1-0.1,0.1-0.1C90.4,29.9,85.4,29.7,84.2,36.9z"/>
			</g>
			<g>
				<path class="st1" d="M81.8,48.8h-0.2c1.3-2.8-0.8-6.7-0.9-6.9c-2.8-5.4-1.8-10.3-2.5-12h0.1c1.5,3.7,5.6,5.7,5,11.9h0.2
					c0.7-3.9,5-7.6,4.9-11.8h0.1C91.2,45,83.5,44.9,81.8,48.8z"/>
			</g>
			<g>
				<path class="st1" d="M75.6,59.9L75.6,59.9c2.5-3.2,1.7-6.7,1.7-6.9c-1.3-7.5,1.1-8.8,1.2-12.2h0.1c0.1,3.8,4,8,0.5,13.3l0.2,0.1
					c3.9-5.7,6.9-4.3,8.8-9.9l0,0c0.1,0,0.1,0,0.2,0C85.4,60.9,78.1,55.9,75.6,59.9z"/>
			</g>
			<g>
				<path class="st1" d="M60.5,67.1v-0.2c5.1,1,7.7,0,8.6-4.7c1.3-6.6,5.8-9.1,6.3-11.8l0,0c0.1,0,0.1,0,0.1,0l0,0
					c-1,4.7,1.3,7.4-4.3,13l0.2,0.1c5.4-4.3,9.1-2.7,11.2-5.7l0.1,0.1C76.1,69.2,68.9,69.8,60.5,67.1z"/>
			</g>
			<g>
				<path class="st1" d="M73.1,69L73.1,69c-6.9,4-14.1-1.6-22.8-1.8c-2.2-0.1-8.7,0.3-14.7,7.3l1.6,0.4c2-3.4,5-5.9,7.8-6.6
					c7.9-2,8.1,5.4,16.8,5.5C68.4,73.9,72.9,69.3,73.1,69z"/>
			</g>
			<g>
				<path class="st1" d="M9,19.4C9,19.4,8.9,19.4,9,19.4C8.9,19.4,9,19.4,9,19.4z"/>
			</g>
			<g>
				<path class="st1" d="M9,19.4C9,19.4,8.9,19.4,9,19.4C8.9,19.4,9,19.4,9,19.4z"/>
			</g>
			<g>
				<path class="st1" d="M80.2,19.4L80.2,19.4L80.2,19.4z"/>
			</g>
			<g>
				<path class="st1" d="M55.3,19.6L55.3,19.6c-3.3,0-6.4,2.1-7.9,5.5c-0.8,1.8-1,4-1,6.2s0.2,4.5,1,6.2c1.5,3.4,4.6,5.8,7.8,5.8
					h0.1c3.2,0,6.3-2.3,7.8-5.8c0.8-1.8,1-4,1-6.2s-0.2-4.5-1-6.2C61.6,21.6,58.5,19.6,55.3,19.6z M60.2,31.4c0,2.1-0.1,3.8-0.1,3.8
					c-0.1,1.7-0.2,3.4-0.9,4.5c-0.9,1.3-2.3,2-3.7,2h-0.1h-0.2l0,0c-1.4,0-2.8-0.7-3.7-2c-0.8-1.2-0.8-2.8-0.9-4.5c0,0,0-1.8,0-3.8
					v-0.1c0-2.1,0-3.8,0-3.8c0.1-1.7,0.2-3.4,0.9-4.5c0.9-1.3,2.3-2,3.7-2l0,0h0.2l0,0c1.4,0,2.8,0.7,3.7,2c0.8,1.1,0.8,2.8,0.9,4.5
					C60.1,27.5,60.2,29.3,60.2,31.4L60.2,31.4L60.2,31.4z"/>
			</g>
			<g>
				<path class="st1" d="M57.7,44.3c0,0-0.6,1.6-1.8,2.6c-0.6,0.5-1.6,0.7-2.3,0.8l-7.9,0.4H44c0,0-1.3-0.1-1.4-1.3V19.1
					c0.1-1.2,1.4-1.3,1.4-1.3h1.7v-1.6H35.1v1.6h1.7c0,0,1.3,0.1,1.4,1.3v27.6c-0.1,1.2-1.4,1.3-1.4,1.3h-1.7v1.6h10.5H57l1.4-5.1
					v-0.2H57.7z"/>
			</g>
			<g>
				<path class="st1" d="M32.9,22.6c0.1-1,1.2-1.1,1.2-1.1h1.5v-1.3h-8.8v1.3h1.5c0,0,1.1,0.1,1.2,1.1v17.7c-0.1,1-1.2,1.1-1.2,1.1
					h-1.5v1.3h8.8v-1.3H34c0,0-1.1-0.1-1.2-1.1V22.6H32.9z"/>
			</g>
		</g>
	</g>
</g>
</svg>
