<?xml version="1.0" encoding="utf-8"?>
<!-- Generator: Adobe Illustrator 24.0.1, SVG Export Plug-In . SVG Version: 6.00 Build 0)  -->
<svg version="1.1" id="Calque_1" xmlns="http://www.w3.org/2000/svg" xmlns:xlink="http://www.w3.org/1999/xlink" x="0px" y="0px"
	 viewBox="0 0 256.14 75.34" style="enable-background:new 0 0 256.14 75.34;" xml:space="preserve">
<style type="text/css">
	.st0{fill:#FFFFFF;}
</style>
<g id="Grid_Background">
</g>
<g id="Lockup">
	<g>
		<path class="st0" d="M104.7,33.79V20.15h2.34v13.63H104.7z"/>
		<path class="st0" d="M115.43,33.79v-5.71c0-1.55-0.62-2.32-1.85-2.32c-1.35,0-2.02,0.76-2.02,2.28v5.74h-2.28v-9.95h2.28v0.94
			c0.65-0.78,1.53-1.17,2.63-1.17c1.04,0,1.89,0.32,2.54,0.97c0.66,0.65,0.98,1.68,0.98,3.1v6.11L115.43,33.79L115.43,33.79z"/>
		<path class="st0" d="M122.44,34.02c-1.55,0-2.32-0.85-2.32-2.55v-5.65h-1.48v-1.99h1.48v-3.02l2.28-1.09v4.11h2.3v1.99h-2.3v5.2
			c0,0.64,0.28,0.95,0.84,0.95c0.51,0,1.03-0.15,1.56-0.45l-0.27,2.04C123.95,33.87,123.25,34.02,122.44,34.02z"/>
		<path class="st0" d="M130.1,34.02c-1.42,0-2.53-0.46-3.36-1.39c-0.82-0.93-1.24-2.2-1.24-3.83c0-1.61,0.42-2.88,1.25-3.81
			c0.83-0.93,1.95-1.39,3.35-1.39c1.27,0,2.31,0.4,3.12,1.19c0.81,0.79,1.22,1.95,1.22,3.48c0,0.53-0.03,1-0.08,1.4h-6.6
			c0.04,0.7,0.28,1.27,0.73,1.69c0.45,0.43,0.98,0.64,1.61,0.64c0.88,0,1.58-0.35,2.1-1.03l1.44,1.48
			C132.78,33.5,131.59,34.02,130.1,34.02z M127.78,27.79h4.4c-0.05-0.71-0.27-1.26-0.66-1.63s-0.86-0.55-1.42-0.55
			c-0.65,0-1.19,0.18-1.61,0.54C128.07,26.5,127.83,27.05,127.78,27.79z"/>
		<path class="st0" d="M135.82,33.79v-9.95h2.28v1.03c0.4-0.84,1.08-1.27,2.04-1.27c0.7,0,1.32,0.23,1.85,0.68l-0.33,2.08
			c-0.49-0.35-1.06-0.53-1.69-0.53c-0.52,0-0.96,0.18-1.32,0.55c-0.36,0.36-0.55,0.97-0.55,1.83v5.57H135.82z"/>
		<path class="st0" d="M149.08,33.79v-5.71c0-1.55-0.62-2.32-1.85-2.32c-1.35,0-2.02,0.76-2.02,2.28v5.74h-2.28v-9.95h2.28v0.94
			c0.65-0.78,1.53-1.17,2.63-1.17c1.04,0,1.89,0.32,2.54,0.97c0.66,0.65,0.98,1.68,0.98,3.1v6.11L149.08,33.79L149.08,33.79z"/>
		<path class="st0" d="M158.88,33.79v-0.8c-0.66,0.69-1.55,1.03-2.65,1.03c-1.07,0-1.93-0.29-2.6-0.87c-0.67-0.58-1-1.39-1-2.44
			c0-1.08,0.38-1.89,1.14-2.45c0.76-0.56,1.68-0.84,2.76-0.84c0.95,0,1.73,0.17,2.36,0.53v-0.53c0-0.64-0.16-1.1-0.48-1.38
			c-0.32-0.29-0.81-0.43-1.47-0.43c-1.08,0-2.07,0.31-2.96,0.94l-0.7-1.85c1.08-0.73,2.38-1.09,3.89-1.09
			c0.52,0,0.98,0.04,1.37,0.13c0.4,0.09,0.81,0.25,1.23,0.5c0.42,0.25,0.75,0.64,0.98,1.17c0.23,0.53,0.35,1.2,0.35,1.99v6.41
			L158.88,33.79L158.88,33.79z M156.66,32.02c0.87,0,1.61-0.32,2.22-0.95v-1.29c-0.57-0.27-1.23-0.41-1.99-0.41
			c-0.61,0-1.1,0.11-1.48,0.33c-0.38,0.22-0.56,0.56-0.56,1.01c0,0.4,0.16,0.72,0.47,0.95C155.63,31.89,156.08,32.02,156.66,32.02z"
			/>
		<path class="st0" d="M165.81,34.02c-1.55,0-2.32-0.85-2.32-2.55v-5.65h-1.48v-1.99h1.48v-3.02l2.28-1.09v4.11h2.3v1.99h-2.3v5.2
			c0,0.64,0.28,0.95,0.84,0.95c0.51,0,1.03-0.15,1.56-0.45l-0.27,2.04C167.32,33.87,166.62,34.02,165.81,34.02z"/>
		<path class="st0" d="M171.44,22.07c-0.26,0.27-0.58,0.4-0.95,0.4c-0.38,0-0.7-0.13-0.96-0.4c-0.27-0.27-0.4-0.59-0.4-0.96
			c0-0.38,0.13-0.69,0.4-0.95c0.27-0.26,0.59-0.39,0.96-0.39c0.38,0,0.69,0.13,0.95,0.39s0.39,0.58,0.39,0.95
			C171.83,21.48,171.7,21.81,171.44,22.07z M169.34,33.79v-9.95h2.28v9.95H169.34z"/>
		<path class="st0" d="M177.62,34.02c-1.4,0-2.51-0.46-3.33-1.38c-0.82-0.92-1.23-2.2-1.23-3.82s0.41-2.9,1.23-3.83
			c0.82-0.93,1.93-1.39,3.33-1.39s2.51,0.46,3.34,1.39c0.82,0.93,1.24,2.2,1.24,3.83s-0.41,2.89-1.23,3.82
			C180.15,33.56,179.04,34.02,177.62,34.02z M177.62,31.84c0.71,0,1.27-0.27,1.68-0.8c0.41-0.53,0.61-1.27,0.61-2.22
			s-0.2-1.69-0.61-2.24c-0.41-0.55-0.97-0.82-1.68-0.82c-0.69,0-1.24,0.28-1.66,0.83c-0.42,0.55-0.62,1.3-0.62,2.23
			s0.2,1.67,0.61,2.21C176.36,31.57,176.92,31.84,177.62,31.84z"/>
		<path class="st0" d="M189.81,33.79v-5.71c0-1.55-0.62-2.32-1.85-2.32c-1.35,0-2.02,0.76-2.02,2.28v5.74h-2.28v-9.95h2.28v0.94
			c0.65-0.78,1.53-1.17,2.63-1.17c1.04,0,1.89,0.32,2.54,0.97c0.66,0.65,0.98,1.68,0.98,3.1v6.11L189.81,33.79L189.81,33.79z"/>
		<path class="st0" d="M199.62,33.79v-0.8c-0.66,0.69-1.55,1.03-2.65,1.03c-1.07,0-1.93-0.29-2.6-0.87c-0.67-0.58-1-1.39-1-2.44
			c0-1.08,0.38-1.89,1.14-2.45c0.76-0.56,1.68-0.84,2.76-0.84c0.95,0,1.73,0.17,2.36,0.53v-0.53c0-0.64-0.16-1.1-0.48-1.38
			c-0.32-0.29-0.81-0.43-1.47-0.43c-1.08,0-2.07,0.31-2.96,0.94l-0.7-1.85c1.08-0.73,2.38-1.09,3.89-1.09
			c0.52,0,0.98,0.04,1.37,0.13c0.4,0.09,0.81,0.25,1.23,0.5c0.42,0.25,0.75,0.64,0.98,1.17c0.23,0.53,0.35,1.2,0.35,1.99v6.41
			L199.62,33.79L199.62,33.79z M197.39,32.02c0.87,0,1.61-0.32,2.22-0.95v-1.29c-0.57-0.27-1.23-0.41-1.99-0.41
			c-0.61,0-1.1,0.11-1.48,0.33s-0.56,0.56-0.56,1.01c0,0.4,0.16,0.72,0.47,0.95C196.36,31.89,196.81,32.02,197.39,32.02z"/>
		<path class="st0" d="M203.7,33.79V20.8l2.28-1.07v14.06H203.7z"/>
		<path class="st0" d="M212.08,34.02c-1.42,0-2.53-0.46-3.36-1.39c-0.82-0.93-1.24-2.2-1.24-3.83c0-1.61,0.42-2.88,1.25-3.81
			c0.83-0.93,1.95-1.39,3.35-1.39c1.27,0,2.31,0.4,3.12,1.19c0.81,0.79,1.22,1.95,1.22,3.48c0,0.53-0.03,1-0.08,1.4h-6.6
			c0.04,0.7,0.28,1.27,0.73,1.69c0.45,0.43,0.98,0.64,1.61,0.64c0.88,0,1.58-0.35,2.1-1.03l1.44,1.48
			C214.76,33.5,213.58,34.02,212.08,34.02z M209.77,27.79h4.4c-0.05-0.71-0.27-1.26-0.66-1.63c-0.39-0.37-0.86-0.55-1.42-0.55
			c-0.65,0-1.19,0.18-1.61,0.54C210.05,26.5,209.82,27.05,209.77,27.79z"/>
		<path class="st0" d="M113.67,53.26l-1.07-2.98h-5.39l-1.07,2.98h-2.47l5.08-13.63h2.32l5.06,13.63H113.67z M111.86,48.18
			l-1.5-4.09c-0.19-0.49-0.35-0.95-0.45-1.38c-0.1,0.38-0.25,0.84-0.45,1.38l-1.52,4.09H111.86z"/>
		<path class="st0" d="M117.34,53.26v-9.95h2.28v1.03c0.4-0.84,1.08-1.27,2.04-1.27c0.7,0,1.32,0.23,1.85,0.68l-0.33,2.08
			c-0.49-0.35-1.06-0.53-1.69-0.53c-0.52,0-0.96,0.18-1.32,0.55c-0.36,0.36-0.55,0.97-0.55,1.83v5.57H117.34z"/>
		<path class="st0" d="M128.92,53.49c-0.94,0-1.67-0.33-2.2-0.99v0.76h-2.28V40.23l2.28-1.03v4.85c0.56-0.65,1.3-0.97,2.24-0.97
			c1.23,0,2.23,0.47,2.99,1.4c0.76,0.94,1.14,2.2,1.14,3.8c0,1.66-0.37,2.95-1.11,3.86C131.24,53.04,130.22,53.49,128.92,53.49z
			 M128.65,51.31c0.7,0,1.24-0.27,1.61-0.81c0.37-0.54,0.55-1.28,0.55-2.23c0-0.99-0.19-1.74-0.56-2.26
			c-0.38-0.52-0.91-0.78-1.6-0.78c-0.86,0-1.5,0.32-1.93,0.97v4.15C127.14,50.99,127.78,51.31,128.65,51.31z"/>
		<path class="st0" d="M138.7,53.49c-1.42,0-2.53-0.46-3.36-1.39c-0.82-0.93-1.24-2.2-1.24-3.83c0-1.61,0.42-2.88,1.25-3.81
			c0.83-0.93,1.95-1.39,3.35-1.39c1.27,0,2.31,0.4,3.12,1.19c0.81,0.79,1.22,1.95,1.22,3.48c0,0.53-0.03,1-0.08,1.4h-6.6
			c0.04,0.7,0.28,1.27,0.73,1.69c0.45,0.43,0.98,0.64,1.61,0.64c0.88,0,1.58-0.35,2.1-1.03l1.44,1.48
			C141.38,52.97,140.19,53.49,138.7,53.49z M136.38,47.26h4.4c-0.05-0.71-0.27-1.26-0.66-1.63c-0.39-0.37-0.86-0.55-1.42-0.55
			c-0.65,0-1.19,0.18-1.61,0.54C136.67,45.97,136.44,46.52,136.38,47.26z"/>
		<path class="st0" d="M146.5,41.55c-0.26,0.27-0.58,0.4-0.95,0.4c-0.38,0-0.7-0.13-0.96-0.4s-0.4-0.59-0.4-0.96
			c0-0.38,0.13-0.69,0.4-0.95c0.27-0.26,0.59-0.39,0.96-0.39c0.38,0,0.69,0.13,0.95,0.39s0.39,0.58,0.39,0.95
			C146.89,40.96,146.76,41.28,146.5,41.55z M144.4,53.26v-9.95h2.28v9.95H144.4z"/>
		<path class="st0" d="M152.25,53.49c-1.27,0-2.28-0.46-3.02-1.38c-0.74-0.92-1.11-2.2-1.11-3.84c0-1.6,0.38-2.86,1.15-3.8
			c0.77-0.94,1.76-1.4,2.98-1.4c0.96,0,1.71,0.31,2.24,0.94v-3.78l2.28-1.03v14.06h-2.28v-0.72
			C153.99,53.18,153.25,53.49,152.25,53.49z M152.6,51.31c0.84,0,1.47-0.32,1.89-0.95v-4.17c-0.43-0.64-1.06-0.95-1.89-0.95
			c-0.7,0-1.24,0.26-1.63,0.79c-0.38,0.53-0.58,1.27-0.58,2.25c0,0.92,0.19,1.66,0.58,2.21C151.37,51.04,151.91,51.31,152.6,51.31z"
			/>
		<path class="st0" d="M161.87,53.49c-0.81,0-1.56-0.16-2.27-0.47c-0.71-0.31-1.24-0.73-1.61-1.25l1.56-1.32
			c0.7,0.7,1.47,1.05,2.32,1.05c1.08,0,1.62-0.32,1.62-0.97c0-0.22-0.09-0.42-0.28-0.6c-0.19-0.18-0.39-0.32-0.6-0.42
			s-0.56-0.24-1.04-0.44c-1.14-0.38-1.98-0.81-2.5-1.3c-0.53-0.49-0.79-1.13-0.79-1.94c0-0.87,0.33-1.55,1-2.04
			c0.67-0.49,1.52-0.73,2.54-0.73c1.5,0,2.69,0.51,3.56,1.54l-1.58,1.29c-0.58-0.56-1.25-0.84-1.99-0.84c-0.9,0-1.34,0.27-1.34,0.82
			c0,0.27,0.17,0.51,0.5,0.7s0.81,0.4,1.45,0.6c1.08,0.36,1.89,0.79,2.44,1.29c0.55,0.49,0.83,1.18,0.83,2.07
			c0,0.95-0.35,1.68-1.03,2.19C163.97,53.24,163.04,53.49,161.87,53.49z"/>
		<path class="st0" d="M171.19,53.49c-1.4,0-2.51-0.46-3.33-1.38c-0.82-0.92-1.23-2.2-1.23-3.82c0-1.62,0.41-2.9,1.23-3.83
			c0.82-0.93,1.93-1.39,3.33-1.39s2.51,0.46,3.34,1.39c0.82,0.93,1.24,2.2,1.24,3.83c0,1.62-0.41,2.89-1.23,3.82
			C173.72,53.03,172.6,53.49,171.19,53.49z M171.19,51.31c0.71,0,1.27-0.27,1.68-0.8c0.41-0.53,0.61-1.27,0.61-2.22
			c0-0.95-0.2-1.69-0.61-2.24c-0.41-0.55-0.97-0.82-1.68-0.82c-0.69,0-1.24,0.28-1.66,0.83c-0.42,0.55-0.62,1.3-0.62,2.23
			s0.2,1.67,0.61,2.21C169.93,51.04,170.48,51.31,171.19,51.31z"/>
		<path class="st0" d="M177.23,53.26v-9.95h2.28v1.03c0.4-0.84,1.08-1.27,2.04-1.27c0.7,0,1.32,0.23,1.85,0.68l-0.33,2.08
			c-0.49-0.35-1.06-0.53-1.69-0.53c-0.52,0-0.96,0.18-1.32,0.55c-0.36,0.36-0.55,0.97-0.55,1.83v5.57H177.23z"/>
		<path class="st0" d="M187.74,57.15l-1.21-1.83c1.36-0.09,2.31-0.3,2.83-0.63c0.53-0.33,0.79-0.84,0.79-1.53V52.6
			c-0.55,0.6-1.3,0.9-2.26,0.9c-1.22,0-2.21-0.45-2.97-1.35c-0.76-0.9-1.14-2.19-1.14-3.87c0-1.61,0.38-2.88,1.14-3.81
			c0.76-0.93,1.76-1.39,2.99-1.39c0.94,0,1.68,0.28,2.24,0.84v-0.6h2.28v8.96c0,1.65-0.35,2.84-1.06,3.58
			C190.66,56.59,189.45,57.03,187.74,57.15z M188.28,51.31c0.82,0,1.44-0.32,1.87-0.97v-4.13c-0.45-0.65-1.08-0.97-1.87-0.97
			c-0.71,0-1.26,0.26-1.65,0.78s-0.58,1.27-0.58,2.26c0,0.94,0.19,1.68,0.58,2.22C187.04,51.04,187.58,51.31,188.28,51.31z"/>
		<path class="st0" d="M200.03,53.26v-0.8c-0.66,0.69-1.55,1.03-2.65,1.03c-1.07,0-1.93-0.29-2.6-0.87c-0.67-0.58-1-1.39-1-2.44
			c0-1.08,0.38-1.89,1.14-2.45c0.76-0.56,1.68-0.84,2.76-0.84c0.95,0,1.73,0.17,2.36,0.53v-0.53c0-0.64-0.16-1.1-0.48-1.38
			c-0.32-0.29-0.81-0.43-1.47-0.43c-1.08,0-2.07,0.31-2.96,0.94l-0.7-1.85c1.08-0.73,2.38-1.09,3.89-1.09
			c0.52,0,0.98,0.04,1.37,0.13c0.4,0.09,0.81,0.25,1.23,0.5c0.42,0.25,0.75,0.64,0.98,1.17c0.23,0.53,0.35,1.2,0.35,1.99v6.41
			L200.03,53.26L200.03,53.26z M197.81,51.49c0.87,0,1.61-0.32,2.22-0.95v-1.29c-0.57-0.27-1.23-0.41-1.99-0.41
			c-0.61,0-1.1,0.11-1.48,0.33c-0.38,0.22-0.56,0.56-0.56,1.01c0,0.4,0.16,0.72,0.47,0.95S197.23,51.49,197.81,51.49z"/>
		<path class="st0" d="M210.22,53.26v-5.71c0-1.55-0.62-2.32-1.85-2.32c-1.35,0-2.02,0.76-2.02,2.28v5.74h-2.28v-9.95h2.28v0.94
			c0.65-0.78,1.53-1.17,2.63-1.17c1.04,0,1.89,0.32,2.54,0.97c0.66,0.65,0.98,1.68,0.98,3.1v6.11L210.22,53.26L210.22,53.26z"/>
		<path class="st0" d="M216.43,41.55c-0.26,0.27-0.58,0.4-0.95,0.4c-0.38,0-0.7-0.13-0.96-0.4c-0.27-0.27-0.4-0.59-0.4-0.96
			c0-0.38,0.13-0.69,0.4-0.95c0.27-0.26,0.59-0.39,0.96-0.39c0.38,0,0.69,0.13,0.95,0.39s0.39,0.58,0.39,0.95
			C216.82,40.96,216.69,41.28,216.43,41.55z M214.33,53.26v-9.95h2.28v9.95H214.33z"/>
		<path class="st0" d="M221.66,53.49c-0.81,0-1.56-0.16-2.27-0.47c-0.71-0.31-1.24-0.73-1.61-1.25l1.56-1.32
			c0.7,0.7,1.47,1.05,2.32,1.05c1.08,0,1.62-0.32,1.62-0.97c0-0.22-0.09-0.42-0.28-0.6c-0.19-0.18-0.39-0.32-0.6-0.42
			s-0.56-0.24-1.04-0.44c-1.14-0.38-1.98-0.81-2.5-1.3c-0.53-0.49-0.79-1.13-0.79-1.94c0-0.87,0.33-1.55,1-2.04
			c0.67-0.49,1.52-0.73,2.54-0.73c1.5,0,2.69,0.51,3.56,1.54l-1.58,1.29c-0.58-0.56-1.25-0.84-1.99-0.84c-0.9,0-1.34,0.27-1.34,0.82
			c0,0.27,0.17,0.51,0.5,0.7s0.81,0.4,1.45,0.6c1.08,0.36,1.89,0.79,2.44,1.29c0.55,0.49,0.83,1.18,0.83,2.07
			c0,0.95-0.35,1.68-1.03,2.19C223.76,53.24,222.83,53.49,221.66,53.49z"/>
		<path class="st0" d="M232.7,53.26v-0.8c-0.66,0.69-1.55,1.03-2.65,1.03c-1.07,0-1.93-0.29-2.6-0.87c-0.67-0.58-1-1.39-1-2.44
			c0-1.08,0.38-1.89,1.14-2.45c0.76-0.56,1.68-0.84,2.76-0.84c0.95,0,1.73,0.17,2.36,0.53v-0.53c0-0.64-0.16-1.1-0.48-1.38
			c-0.32-0.29-0.81-0.43-1.47-0.43c-1.08,0-2.07,0.31-2.96,0.94l-0.7-1.85c1.08-0.73,2.38-1.09,3.89-1.09
			c0.52,0,0.98,0.04,1.37,0.13c0.4,0.09,0.81,0.25,1.23,0.5c0.42,0.25,0.75,0.64,0.98,1.17c0.23,0.53,0.35,1.2,0.35,1.99v6.41
			L232.7,53.26L232.7,53.26z M230.48,51.49c0.87,0,1.61-0.32,2.22-0.95v-1.29c-0.57-0.27-1.23-0.41-1.99-0.41
			c-0.61,0-1.1,0.11-1.48,0.33c-0.38,0.22-0.56,0.56-0.56,1.01c0,0.4,0.16,0.72,0.47,0.95S229.89,51.49,230.48,51.49z"/>
		<path class="st0" d="M239.62,53.49c-1.55,0-2.32-0.85-2.32-2.55v-5.65h-1.48v-1.99h1.48v-3.02l2.28-1.09v4.11h2.3v1.99h-2.3v5.2
			c0,0.64,0.28,0.95,0.84,0.95c0.51,0,1.03-0.15,1.56-0.45l-0.27,2.04C241.13,53.35,240.44,53.49,239.62,53.49z"/>
		<path class="st0" d="M245.26,41.55c-0.26,0.27-0.58,0.4-0.95,0.4c-0.38,0-0.7-0.13-0.96-0.4s-0.4-0.59-0.4-0.96
			c0-0.38,0.13-0.69,0.4-0.95c0.27-0.26,0.59-0.39,0.96-0.39c0.38,0,0.69,0.13,0.95,0.39s0.39,0.58,0.39,0.95
			C245.65,40.96,245.52,41.28,245.26,41.55z M243.15,53.26v-9.95h2.28v9.95H243.15z"/>
		<path class="st0" d="M251.47,53.49c-1.42,0-2.53-0.46-3.36-1.39c-0.82-0.93-1.24-2.2-1.24-3.83c0-1.61,0.42-2.88,1.25-3.81
			c0.83-0.93,1.95-1.39,3.35-1.39c1.27,0,2.31,0.4,3.12,1.19c0.81,0.79,1.22,1.95,1.22,3.48c0,0.53-0.03,1-0.08,1.4h-6.6
			c0.04,0.7,0.28,1.27,0.73,1.69c0.45,0.43,0.98,0.64,1.61,0.64c0.88,0,1.58-0.35,2.1-1.03l1.44,1.48
			C254.15,52.97,252.97,53.49,251.47,53.49z M249.16,47.26h4.4c-0.05-0.71-0.27-1.26-0.66-1.63c-0.39-0.37-0.86-0.55-1.42-0.55
			c-0.65,0-1.19,0.18-1.61,0.54C249.45,45.97,249.21,46.52,249.16,47.26z"/>
	</g>
	<g>
		<g>
			<path class="st0" d="M21.08,20.07c-0.37,0.64-0.51,0.93-0.51,0.93c-0.28,0.56-1,0.84-1.59,0.62L17.9,21.2
				c-0.59-0.22-1.26,0.07-1.48,0.66l-0.82,2.15c-0.22,0.59,0.07,1.26,0.66,1.48l1.07,0.41c0.59,0.22,0.95,0.91,0.8,1.53l-0.47,2.35
				c-0.1,0.63-0.69,1.12-1.32,1.1l-1.15-0.04c-0.63-0.02-1.17,0.48-1.19,1.11l-0.08,2.29c-0.02,0.63,0.48,1.17,1.11,1.19l1.16,0.04
				c0.63,0.02,1.2,0.55,1.25,1.18l0.32,2.37c0.11,0.62-0.3,1.28-0.9,1.47l-1.12,0.34c-0.6,0.19-0.95,0.83-0.76,1.43l1.01,3.3
				l6.2-1.91c-2.84-6.93-2.55-15.06,1.48-22.05c4.04-6.99,10.93-11.3,18.36-12.31l-1.44-6.32l-3.36,0.78
				c-0.62,0.14-1,0.76-0.86,1.38l0.26,1.14c0.14,0.62-0.23,1.3-0.82,1.51l-2.21,0.91c-0.57,0.26-1.32,0.04-1.65-0.5l-0.61-0.99
				c-0.33-0.54-1.04-0.7-1.58-0.37l-1.95,1.21c-0.54,0.33-0.7,1.04-0.37,1.58l0.61,0.98c0.33,0.54,0.2,1.3-0.29,1.7l-1.79,1.58
				c-0.46,0.44-1.23,0.47-1.72,0.07l-0.89-0.73c-0.49-0.4-1.22-0.32-1.62,0.17l-1.45,1.78c-0.4,0.49-0.32,1.22,0.17,1.62l0.89,0.73
				c0.49,0.4,0.6,1.16,0.26,1.68C21.62,19.17,21.45,19.42,21.08,20.07z"/>
		</g>
		<g>
			<path class="st0" d="M44.99,61.51c0.74,0,1.06-0.02,1.06-0.02c0.63-0.04,1.23,0.44,1.33,1.07l0.18,1.14
				c0.1,0.62,0.69,1.05,1.32,0.95l2.27-0.37c0.62-0.1,1.05-0.69,0.95-1.32l-0.18-1.14c-0.1-0.62,0.31-1.28,0.92-1.45l2.27-0.76
				c0.59-0.23,1.32,0.04,1.61,0.6l0.54,1.02c0.3,0.56,1,0.77,1.55,0.47l2.02-1.08c0.56-0.3,0.77-1,0.47-1.55l-0.55-1.02
				c-0.3-0.56-0.12-1.31,0.4-1.68l1.89-1.46c0.48-0.41,1.26-0.39,1.72,0.04l0.85,0.8c0.46,0.43,1.19,0.4,1.62-0.06l2.35-2.52
				l-4.76-4.41c-4.59,5.92-11.77,9.74-19.84,9.74c-8.07,0-15.25-3.82-19.84-9.74l-4.76,4.41l2.35,2.52
				c0.43,0.46,1.16,0.49,1.62,0.06l0.85-0.8c0.46-0.43,1.24-0.45,1.72-0.04l1.89,1.46c0.52,0.37,0.69,1.12,0.4,1.68l-0.55,1.02
				c-0.3,0.56-0.09,1.26,0.47,1.55l2.02,1.08c0.56,0.3,1.26,0.09,1.55-0.47l0.54-1.02c0.3-0.56,1.02-0.83,1.61-0.6l2.27,0.76
				c0.6,0.18,1.02,0.83,0.92,1.45l-0.18,1.14c-0.1,0.62,0.33,1.22,0.95,1.32l2.27,0.37c0.62,0.1,1.22-0.33,1.32-0.95l0.18-1.14
				c0.1-0.62,0.7-1.1,1.33-1.07C43.95,61.49,44.25,61.51,44.99,61.51z"/>
		</g>
		<g>
			<path class="st0" d="M68.93,20.08c-0.37-0.64-0.55-0.91-0.55-0.91c-0.35-0.53-0.23-1.29,0.26-1.68l0.89-0.73
				c0.49-0.4,0.56-1.13,0.17-1.62l-1.45-1.78c-0.4-0.49-1.13-0.56-1.62-0.17l-0.89,0.73c-0.49,0.4-1.26,0.37-1.72-0.07l-1.79-1.58
				c-0.49-0.4-0.62-1.16-0.29-1.7l0.61-0.98c0.33-0.54,0.17-1.25-0.37-1.58L60.24,6.8c-0.54-0.33-1.25-0.17-1.58,0.37l-0.61,0.99
				c-0.33,0.54-1.08,0.76-1.65,0.5l-2.21-0.91c-0.59-0.22-0.96-0.9-0.82-1.51l0.26-1.14c0.14-0.62-0.24-1.24-0.86-1.38l-3.36-0.78
				l-1.44,6.32c7.42,1.01,14.32,5.32,18.36,12.31c4.04,6.99,4.32,15.12,1.48,22.05L74,45.54l1.01-3.3c0.19-0.6-0.16-1.25-0.76-1.43
				l-1.12-0.34c-0.6-0.19-1.01-0.84-0.9-1.47l0.32-2.37c0.06-0.63,0.62-1.16,1.25-1.18l1.16-0.04c0.63-0.02,1.13-0.55,1.11-1.19
				L76,31.94c-0.02-0.63-0.55-1.13-1.19-1.11l-1.15,0.04c-0.63,0.02-1.23-0.47-1.32-1.1l-0.47-2.35c-0.15-0.61,0.21-1.3,0.8-1.53
				l1.07-0.41c0.59-0.22,0.89-0.89,0.66-1.48l-0.81-2.15c-0.22-0.59-0.89-0.89-1.48-0.66l-1.08,0.41c-0.59,0.22-1.3-0.05-1.59-0.62
				C69.44,20.99,69.3,20.72,68.93,20.08z"/>
		</g>
		<g>
			<path class="st0" d="M9.11,19.54c-0.02,0.03-0.03,0.05-0.03,0.05S9.09,19.57,9.11,19.54z"/>
		</g>
		<g>
			<path class="st0" d="M18.98,6.53l0.09,0.11c0.27-0.19,1.2-0.86,2.33-1.17c6.25-1.76,5.94-3.92,8.58-5.2L29.9,0.13
				c-0.26,0.17-1.07,0.64-2.2,0.65C20.37,0.88,20.93,5.15,18.98,6.53z"/>
		</g>
		<g>
			<path class="st0" d="M11.7,14.67l0.14,0.09c1.49-1.65,2.92-1.96,3.16-2.03c5.82-1.72,7.85-5.57,9.42-6.66l-0.06-0.09
				c-2.15,1.53-4.71-0.02-9.06,4.63c-0.03,0.03-0.15-0.14-0.15-0.14c3.53-4.26,3.62-7.16,5.26-8.75l-0.09-0.08
				C10.01,7.78,14.53,11.14,11.7,14.67z"/>
		</g>
		<g>
			<path class="st0" d="M12.13,7.54c-9.71,9.62-3.66,12.08-5.19,16.87l0.1,0.04c0.87-2.03,3.13-2.92,3.18-2.94
				c4.11-1.9,5.41-6.69,7.05-8.14l-0.08-0.08c-2.01,2.18-5.33,0.96-8.01,6.35c-0.01,0.02-0.18-0.09-0.18-0.09
				c2.18-4.7,1.16-8.96,3.23-11.88C12.19,7.61,12.15,7.57,12.13,7.54z"/>
		</g>
		<g>
			<path class="st0" d="M5.07,37.18l0.14,0.01c-0.04-0.55-0.18-2.84,2.11-4.96c4.61-4.27,3.83-8.06,5.72-10.99l-0.14-0.08
				c-1.47,2.5-6.84,5.24-7.06,9.09c0,0.01-0.21-0.02-0.2-0.03c0.78-5.51-2.13-9.19-0.54-12.68c-0.05-0.04-0.11-0.06-0.14-0.08
				C-1.21,30.11,3.91,29.93,5.07,37.18z"/>
		</g>
		<g>
			<path class="st0" d="M7.45,49.21l0.15-0.05c-1.27-2.86,0.86-6.77,0.95-6.96c2.8-5.43,1.86-10.34,2.5-12.06l-0.13-0.04
				c-1.49,3.73-5.65,5.75-5,12.02c0,0.01-0.2,0.01-0.2,0c-0.66-3.89-5.06-7.62-4.92-11.86c-0.02,0-0.05-0.01-0.07-0.01
				C-2.02,45.33,5.81,45.23,7.45,49.21z"/>
		</g>
		<g>
			<path class="st0" d="M13.72,60.37l0.1-0.08c-2.61-3.17-1.82-6.63-1.78-6.88c1.3-7.52-1.13-8.87-1.19-12.27h-0.13
				c-0.11,3.81-4.01,8.09-0.47,13.41l-0.17,0.11c-3.9-5.69-6.99-4.3-8.81-9.96h0c-0.06,0-0.13,0.03-0.16,0.05
				C3.86,61.31,11.23,56.29,13.72,60.37z"/>
		</g>
		<g>
			<path class="st0" d="M28.93,67.6l-0.03-0.15c-5.13,1.03-7.76,0.04-8.69-4.68c-1.31-6.63-5.82-9.18-6.34-11.83c0,0-0.01,0-0.01,0
				c-0.08,0-0.11,0.01-0.13,0.02v0c0.97,4.68-1.31,7.46,4.33,13.07l-0.15,0.13c-5.43-4.31-9.16-2.72-11.32-5.72
				c-0.04,0.04-0.08,0.07-0.09,0.1C13.23,69.72,20.44,70.32,28.93,67.6z"/>
		</g>
		<g>
			<path class="st0" d="M16.24,69.52l0.04-0.06c6.91,4.03,14.12-1.59,22.87-1.79c2.2-0.05,8.75,0.35,14.78,7.35l-1.6,0.46
				c-1.99-3.46-5.06-5.95-7.84-6.65c-7.96-1.99-8.11,5.43-16.95,5.54C20.98,74.46,16.5,69.78,16.24,69.52z"/>
		</g>
		<g>
			<path class="st0" d="M80.8,19.54c0.01,0.03,0.03,0.05,0.03,0.05S80.82,19.57,80.8,19.54z"/>
		</g>
		<g>
			<path class="st0" d="M80.8,19.54c0.01,0.03,0.03,0.05,0.03,0.05S80.82,19.57,80.8,19.54z"/>
		</g>
		<g>
			<path class="st0" d="M9.11,19.54c-0.01,0.03-0.03,0.05-0.03,0.05S9.09,19.57,9.11,19.54z"/>
		</g>
		<g>
			<path class="st0" d="M80.8,19.54c0.01,0.03,0.03,0.05,0.03,0.05S80.82,19.57,80.8,19.54z"/>
		</g>
		<g>
			<path class="st0" d="M70.92,6.53l-0.09,0.11c-0.27-0.19-1.2-0.86-2.33-1.17c-6.25-1.76-5.93-3.92-8.58-5.2L60,0.13
				c0.26,0.17,1.07,0.64,2.2,0.65C69.54,0.88,68.98,5.15,70.92,6.53z"/>
		</g>
		<g>
			<path class="st0" d="M78.21,14.67l-0.13,0.09c-1.49-1.65-2.92-1.96-3.16-2.03C69.1,11,67.07,7.15,65.5,6.06l0.06-0.09
				c2.15,1.53,4.7-0.02,9.06,4.63c0.03,0.03,0.15-0.14,0.15-0.14c-3.53-4.26-3.62-7.16-5.26-8.75l0.09-0.08
				C79.9,7.78,75.37,11.14,78.21,14.67z"/>
		</g>
		<g>
			<path class="st0" d="M77.78,7.54c9.71,9.62,3.66,12.08,5.19,16.87l-0.1,0.04c-0.87-2.03-3.13-2.92-3.18-2.94
				c-4.11-1.9-5.4-6.69-7.05-8.14l0.08-0.08c2.01,2.18,5.33,0.96,8.01,6.35c0.01,0.02,0.18-0.09,0.18-0.09
				c-2.18-4.7-1.16-8.96-3.23-11.88C77.72,7.61,77.75,7.57,77.78,7.54z"/>
		</g>
		<g>
			<path class="st0" d="M84.84,37.18l-0.14,0.01c0.04-0.55,0.18-2.84-2.11-4.96c-4.61-4.27-3.83-8.06-5.72-10.99l0.14-0.08
				c1.47,2.5,6.84,5.24,7.06,9.09c0,0.01,0.21-0.02,0.2-0.03c-0.78-5.51,2.13-9.19,0.54-12.68c0.05-0.04,0.11-0.06,0.14-0.08
				C91.12,30.11,86,29.93,84.84,37.18z"/>
		</g>
		<g>
			<path class="st0" d="M82.46,49.21l-0.15-0.05c1.27-2.86-0.86-6.77-0.95-6.96c-2.8-5.43-1.86-10.34-2.5-12.06l0.13-0.04
				c1.49,3.73,5.65,5.75,5,12.02c0,0.01,0.2,0.01,0.2,0c0.66-3.89,5.06-7.62,4.92-11.86c0.02,0,0.05-0.01,0.07-0.01
				C91.93,45.33,84.1,45.23,82.46,49.21z"/>
		</g>
		<g>
			<path class="st0" d="M76.19,60.37l-0.1-0.08c2.61-3.17,1.82-6.63,1.78-6.88c-1.3-7.52,1.13-8.87,1.19-12.27h0.13
				c0.11,3.81,4.01,8.09,0.47,13.41l0.17,0.11c3.9-5.69,6.99-4.3,8.81-9.96h0c0.06,0,0.13,0.03,0.16,0.05
				C86.05,61.31,78.68,56.29,76.19,60.37z"/>
		</g>
		<g>
			<path class="st0" d="M60.98,67.6l0.03-0.15c5.13,1.03,7.76,0.04,8.69-4.68c1.31-6.63,5.82-9.18,6.34-11.83c0,0,0.01,0,0.01,0
				c0.08,0,0.12,0.01,0.13,0.02v0c-0.97,4.68,1.31,7.46-4.33,13.07L72,64.16c5.43-4.31,9.16-2.72,11.32-5.72
				c0.04,0.04,0.08,0.07,0.09,0.1C76.68,69.72,69.47,70.32,60.98,67.6z"/>
		</g>
		<g>
			<path class="st0" d="M73.67,69.52l-0.04-0.06c-6.91,4.03-14.12-1.59-22.87-1.79c-2.19-0.05-8.75,0.35-14.78,7.35l1.6,0.46
				c1.99-3.46,5.06-5.95,7.84-6.65c7.95-1.99,8.11,5.43,16.95,5.54C68.92,74.46,73.41,69.78,73.67,69.52z"/>
		</g>
		<g>
			<path class="st0" d="M9.11,19.54c-0.01,0.03-0.03,0.05-0.03,0.05S9.09,19.57,9.11,19.54z"/>
		</g>
		<g>
			<path class="st0" d="M9.11,19.54c-0.01,0.03-0.03,0.05-0.03,0.05S9.09,19.57,9.11,19.54z"/>
		</g>
		<g>
			<path class="st0" d="M80.8,19.54c0.01,0.03,0.03,0.05,0.03,0.05S80.82,19.57,80.8,19.54z"/>
		</g>
		<g>
			<path class="st0" d="M55.7,19.75h-0.12c-3.23,0-6.33,2.08-7.88,5.54c-0.78,1.76-0.96,4.05-0.97,6.26c0,2.2,0.18,4.49,0.97,6.25
				c1.54,3.46,4.65,5.83,7.88,5.83h0.12c3.23,0,6.33-2.37,7.87-5.83c0.78-1.76,0.96-4.05,0.97-6.25c0-2.2-0.18-4.5-0.97-6.26
				C62.03,21.83,58.93,19.75,55.7,19.75z M60.67,31.69c-0.01,2.07-0.06,3.86-0.06,3.86c-0.13,1.69-0.16,3.39-0.94,4.55
				c-0.89,1.31-2.31,2-3.74,2l-0.06,0.02h-0.18l-0.05-0.02c-1.43,0-2.85-0.69-3.74-2c-0.78-1.16-0.81-2.86-0.94-4.55
				c0,0-0.05-1.76-0.05-3.82v-0.09c0-2.07,0.05-3.86,0.05-3.86c0.13-1.69,0.16-3.39,0.94-4.55c0.89-1.31,2.31-2,3.74-2l0.05-0.02
				h0.18l0.05,0.02c1.43,0,2.85,0.68,3.74,2c0.79,1.16,0.81,2.86,0.94,4.55c0,0,0.05,1.76,0.06,3.82L60.67,31.69L60.67,31.69z"/>
		</g>
		<g>
			<path class="st0" d="M58.12,44.62c0,0-0.63,1.64-1.81,2.65c-0.65,0.55-1.6,0.7-2.36,0.79l-7.94,0.39h-1.75
				c0,0-1.33-0.07-1.4-1.31V19.31c0.07-1.24,1.4-1.31,1.4-1.31h1.75v-1.62H35.38V18h1.76c0,0,1.33,0.07,1.4,1.31v27.83
				c-0.07,1.24-1.4,1.31-1.4,1.31h-1.76v1.62h10.62l11.5,0.04l1.41-5.13V44.8L58.12,44.62z"/>
		</g>
		<g>
			<path class="st0" d="M33.16,22.81c0.06-1.03,1.17-1.09,1.17-1.09h1.46v-1.35h-8.86v1.35h1.46c0,0,1.11,0.06,1.17,1.09V40.6
				c-0.06,1.03-1.17,1.09-1.17,1.09h-1.46v1.35h8.86V41.7h-1.46c0,0-1.11-0.06-1.17-1.09V22.81z"/>
		</g>
	</g>
</g>
</svg>
