<?xml version="1.0" encoding="utf-8"?>
<!-- Generator: Adobe Illustrator 24.0.1, SVG Export Plug-In . SVG Version: 6.00 Build 0)  -->
<svg version="1.1" id="Calque_1" xmlns="http://www.w3.org/2000/svg" xmlns:xlink="http://www.w3.org/1999/xlink" x="0px" y="0px"
	 viewBox="0 0 216 75.3" style="enable-background:new 0 0 216 75.3;" xml:space="preserve">
<style type="text/css">
	.st0{display:none;}
	.st1{fill:#FFFFFF;}
</style>
<g id="Grid_Background" class="st0">
</g>
<g id="Lockup">
	<g>
		<path class="st1" d="M104.4,16.1c0-3.4,1.6-7.1,6-7.1c4.4,0,6,3.7,6,7.1s-1.6,7.1-6,7.1C106,23.1,104.4,19.4,104.4,16.1z
			 M114,16.1c0-2.2-0.9-4.8-3.6-4.8c-2.7,0-3.6,2.7-3.6,4.8c0,2.2,0.9,4.8,3.6,4.8C113,20.9,114,18.2,114,16.1z"/>
		<path class="st1" d="M118.6,12.9h2.3v1c0.4-0.8,1.1-1.3,2-1.3c0.7,0,1.3,0.2,1.8,0.7l-0.3,2.1c-0.4-0.3-0.9-0.5-1.7-0.5
			c-0.9,0-1.9,0.5-1.9,2.4v5.6h-2.3L118.6,12.9L118.6,12.9z"/>
		<path class="st1" d="M128.3,24.9c2.8-0.2,3.6-0.8,3.6-2.2v-0.6c-0.6,0.6-1.4,0.9-2.3,0.9c-2.3,0-4.1-1.8-4.1-5.2
			c0-3.2,1.7-5.2,4.1-5.2c1,0,1.8,0.4,2.2,0.8v-0.6h2.3v9c0,3.3-1.3,4.6-4.7,4.9L128.3,24.9z M131.9,20v-4.1c-0.4-0.5-1-1-1.9-1
			c-1.4,0-2.2,1.1-2.2,3c0,1.8,0.8,3,2.2,3C130.9,20.9,131.5,20.6,131.9,20z"/>
		<path class="st1" d="M142.4,22.1c-0.5,0.5-1.3,1-2.6,1c-2,0-3.6-1.1-3.6-3.3c0-2.3,1.9-3.3,3.9-3.3c0.9,0,1.7,0.2,2.4,0.5v-0.5
			c0-1.3-0.6-1.8-1.9-1.8c-1.2,0-2.1,0.4-3,0.9l-0.7-1.9c0.9-0.6,2.2-1.1,3.9-1.1c1.8,0,3.9,0.4,3.9,3.8v6.4h-2.2L142.4,22.1
			L142.4,22.1z M142.4,20.2v-1.3c-0.5-0.2-1.2-0.4-2-0.4c-1.1,0-2,0.4-2,1.3c0,0.8,0.6,1.3,1.8,1.3
			C141.1,21.1,141.9,20.7,142.4,20.2z"/>
		<path class="st1" d="M153.1,17.2c0-1.6-0.7-2.3-1.9-2.3c-1.2,0-2,0.6-2,2.3v5.7h-2.3v-9.9h2.3v0.9c0.6-0.8,1.5-1.2,2.6-1.2
			c1.9,0,3.5,1,3.5,4.1v6.1h-2.3L153.1,17.2L153.1,17.2z"/>
		<path class="st1" d="M157.6,10.2c0-0.7,0.6-1.3,1.4-1.3s1.3,0.6,1.3,1.3c0,0.8-0.6,1.4-1.3,1.4S157.6,11,157.6,10.2z M157.8,12.9
			h2.3v10h-2.3V12.9z"/>
		<path class="st1" d="M162.3,21.1l5.2-6.1h-4.8v-2h7.6v1.8l-5.2,6.2h5.2v2h-8L162.3,21.1L162.3,21.1z"/>
		<path class="st1" d="M178.2,22.1c-0.5,0.5-1.3,1-2.6,1c-2,0-3.6-1.1-3.6-3.3c0-2.3,1.9-3.3,3.9-3.3c0.9,0,1.7,0.2,2.4,0.5v-0.5
			c0-1.3-0.6-1.8-1.9-1.8c-1.2,0-2.1,0.4-3,0.9l-0.7-1.9c0.9-0.6,2.2-1.1,3.9-1.1c1.8,0,3.9,0.4,3.9,3.8v6.4h-2.2L178.2,22.1
			L178.2,22.1z M178.2,20.2v-1.3c-0.5-0.2-1.2-0.4-2-0.4c-1.1,0-2,0.4-2,1.3c0,0.8,0.6,1.3,1.8,1.3C177,21.1,177.7,20.7,178.2,20.2z
			"/>
		<path class="st1" d="M184.4,26.8l1-0.8c0.2,0.2,0.4,0.3,0.8,0.3c0.6,0,0.9-0.3,0.9-0.8c0-0.5-0.4-0.8-1-0.8
			c-0.3,0-0.6,0.1-0.8,0.2l-0.4-0.6l1.1-1.3c-2.3-0.3-3.7-2.2-3.7-5.1c0-3.2,1.7-5.2,4.4-5.2c1.9,0,3.4,0.8,3.9,2.7l-2.2,0.7
			c-0.3-0.8-0.9-1.3-1.7-1.3c-1.4,0-2.2,1.2-2.2,3s0.8,3,2.1,3c0.9,0,1.5-0.5,1.8-1.4l2.2,0.7c-0.5,1.8-1.7,2.8-3.5,3l-0.4,0.7
			c1.5,0,2.2,0.8,2.2,1.7c0,1.2-0.9,2.1-2.6,2.1C185.4,27.6,184.8,27.2,184.4,26.8z"/>
		<path class="st1" d="M198.3,22.1c-0.5,0.5-1.3,1-2.6,1c-2,0-3.6-1.1-3.6-3.3c0-2.3,1.9-3.3,3.9-3.3c0.9,0,1.7,0.2,2.4,0.5v-0.5
			c0-1.3-0.6-1.8-1.9-1.8c-1.2,0-2.1,0.4-3,0.9l-0.7-1.9c0.9-0.6,2.2-1.1,3.9-1.1c1.8,0,3.9,0.4,3.9,3.8v6.4h-2.2L198.3,22.1
			L198.3,22.1z M194.9,10.6c-0.5,0-0.9,0.2-0.9,0.8h-1.1c0-1.6,0.6-2.6,2.1-2.6c1.4,0,2.2,0.9,3.2,0.9c0.5,0,0.9-0.2,0.9-0.8h1.1
			c0,1.5-0.6,2.6-2.1,2.6C196.7,11.5,195.9,10.6,194.9,10.6z M198.3,20.2v-1.3c-0.5-0.2-1.2-0.4-2-0.4c-1.1,0-2,0.4-2,1.3
			c0,0.8,0.6,1.3,1.8,1.3C197,21.1,197.8,20.7,198.3,20.2z"/>
		<path class="st1" d="M202.3,17.9c0-3.2,1.8-5.2,4.6-5.2c2.8,0,4.6,2,4.6,5.2c0,3.3-1.8,5.2-4.6,5.2
			C204.1,23.1,202.3,21.2,202.3,17.9z M209.2,17.9c0-1.9-0.9-3.1-2.3-3.1c-1.4,0-2.3,1.2-2.3,3.1s0.9,3,2.3,3
			C208.3,20.9,209.2,19.8,209.2,17.9z"/>
		<path class="st1" d="M105,28.7h2.3v13.6H105V28.7z"/>
		<path class="st1" d="M116.3,36.7c0-1.6-0.7-2.3-1.8-2.3c-1.2,0-2,0.6-2,2.3v5.7h-2.3v-9.9h2.3v0.9c0.6-0.8,1.5-1.2,2.6-1.2
			c1.9,0,3.5,1,3.5,4.1v6.1h-2.3L116.3,36.7L116.3,36.7z"/>
		<path class="st1" d="M121.6,40v-5.7h-1.5v-2h1.5v-3l2.3-1.1v4.1h2.3v2h-2.3v5.2c0,0.6,0.2,1,0.8,1c0.5,0,1-0.2,1.6-0.5l-0.3,2
			c-0.6,0.3-1.3,0.5-2.1,0.5C122.3,42.6,121.6,41.6,121.6,40z"/>
		<path class="st1" d="M127.5,37.4c0-3.2,1.8-5.2,4.6-5.2c2.4,0,4.3,1.5,4.3,4.7c0,0.4,0,1-0.1,1.4h-6.6c0.1,1.5,1.1,2.3,2.3,2.3
			c0.9,0,1.6-0.3,2.1-1l1.4,1.5c-0.8,0.9-1.9,1.6-3.5,1.6C129.3,42.6,127.5,40.6,127.5,37.4z M134.2,36.4c-0.1-1.5-1.1-2.2-2.1-2.2
			c-1.2,0-2.2,0.6-2.3,2.2H134.2z"/>
		<path class="st1" d="M138.4,32.4h2.3v1c0.4-0.8,1.1-1.3,2-1.3c0.7,0,1.3,0.2,1.9,0.7l-0.3,2.1c-0.4-0.3-0.9-0.5-1.7-0.5
			c-0.9,0-1.9,0.5-1.9,2.4v5.6h-2.3V32.4L138.4,32.4z"/>
		<path class="st1" d="M152,36.7c0-1.6-0.7-2.3-1.9-2.3c-1.2,0-2,0.6-2,2.3v5.7h-2.3v-9.9h2.3v0.9c0.6-0.8,1.5-1.2,2.6-1.2
			c1.9,0,3.5,1,3.5,4.1v6.1H152L152,36.7L152,36.7z"/>
		<path class="st1" d="M162.4,41.6c-0.5,0.5-1.3,1-2.6,1c-2,0-3.6-1.1-3.6-3.3c0-2.3,1.9-3.3,3.9-3.3c0.9,0,1.7,0.2,2.4,0.5V36
			c0-1.3-0.6-1.8-1.9-1.8c-1.2,0-2.1,0.3-3,0.9l-0.7-1.8c0.9-0.6,2.2-1.1,3.9-1.1c1.8,0,3.9,0.4,3.9,3.8v6.4h-2.2L162.4,41.6
			L162.4,41.6z M162.4,39.6v-1.3c-0.5-0.2-1.2-0.4-2-0.4c-1.1,0-2,0.4-2,1.3c0,0.8,0.6,1.3,1.8,1.3
			C161.1,40.6,161.9,40.2,162.4,39.6z"/>
		<path class="st1" d="M166.5,37.4c0-3.2,1.7-5.2,4.4-5.2c1.9,0,3.4,0.8,3.9,2.7l-2.2,0.7c-0.3-0.8-0.9-1.3-1.7-1.3
			c-1.4,0-2.2,1.2-2.2,3s0.8,3,2.1,3c0.9,0,1.5-0.5,1.8-1.4l2.2,0.7c-0.6,2-1.9,3-4,3C168.2,42.6,166.5,40.7,166.5,37.4z"/>
		<path class="st1" d="M176.8,29.7c0-0.7,0.6-1.3,1.4-1.3s1.3,0.6,1.3,1.3c0,0.8-0.6,1.4-1.3,1.4S176.8,30.4,176.8,29.7z M177,32.4
			h2.3v10H177V32.4z"/>
		<path class="st1" d="M181.3,37.4c0-3.2,1.8-5.2,4.6-5.2c2.8,0,4.6,2,4.6,5.2c0,3.3-1.8,5.2-4.6,5.2
			C183.1,42.6,181.3,40.7,181.3,37.4z M188.2,37.4c0-1.9-0.9-3.1-2.3-3.1c-1.4,0-2.3,1.2-2.3,3.1s0.9,3,2.3,3
			C187.3,40.4,188.2,39.3,188.2,37.4z"/>
		<path class="st1" d="M198.6,36.7c0-1.6-0.7-2.3-1.9-2.3c-1.2,0-2,0.6-2,2.3v5.7h-2.3v-9.9h2.3v0.9c0.6-0.8,1.5-1.2,2.6-1.2
			c1.9,0,3.5,1,3.5,4.1v6.1h-2.3L198.6,36.7L198.6,36.7z"/>
		<path class="st1" d="M209,41.6c-0.5,0.5-1.3,1-2.6,1c-2,0-3.6-1.1-3.6-3.3c0-2.3,1.9-3.3,3.9-3.3c0.9,0,1.7,0.2,2.4,0.5V36
			c0-1.3-0.6-1.8-1.9-1.8c-1.2,0-2.1,0.3-3,0.9l-0.7-1.8c0.9-0.6,2.2-1.1,3.9-1.1c1.8,0,3.9,0.4,3.9,3.8v6.4H209L209,41.6L209,41.6z
			 M209,39.6v-1.3c-0.5-0.2-1.2-0.4-2-0.4c-1.1,0-2,0.4-2,1.3c0,0.8,0.6,1.3,1.8,1.3C207.8,40.6,208.5,40.2,209,39.6z"/>
		<path class="st1" d="M213.7,29.4l2.3-1.1v14.1h-2.3V29.4z"/>
		<path class="st1" d="M104.2,56.8c0-3.2,1.7-5.2,4.1-5.2c1.1,0,1.8,0.4,2.2,0.9v-3.8l2.3-1v14.1h-2.3v-0.7c-0.5,0.6-1.2,1-2.2,1
			C105.8,62.1,104.2,60.2,104.2,56.8z M110.6,58.9v-4.2c-0.3-0.4-0.9-1-1.9-1c-1.4,0-2.2,1.1-2.2,3c0,1.8,0.8,3,2.2,3
			C109.6,59.9,110.2,59.6,110.6,58.9z"/>
		<path class="st1" d="M114.9,56.9c0-3.2,1.8-5.2,4.6-5.2c2.8,0,4.6,2,4.6,5.2c0,3.3-1.8,5.2-4.6,5.2
			C116.7,62.1,114.9,60.1,114.9,56.9z M121.8,56.9c0-1.9-0.9-3.1-2.3-3.1c-1.4,0-2.3,1.2-2.3,3.1c0,1.9,0.9,3,2.3,3
			C120.9,59.9,121.8,58.8,121.8,56.9z"/>
		<path class="st1" d="M135.6,61.8h-2.3V50.4h-3.9v-2.2h10.1v2.2h-3.9L135.6,61.8L135.6,61.8z"/>
		<path class="st1" d="M140.7,51.9h2.3v1c0.4-0.8,1.1-1.3,2-1.3c0.7,0,1.3,0.2,1.9,0.7l-0.3,2.1c-0.4-0.3-0.9-0.5-1.7-0.5
			c-0.9,0-1.9,0.5-1.9,2.4v5.6h-2.3V51.9z"/>
		<path class="st1" d="M153.6,61c-0.5,0.5-1.3,1-2.6,1c-2,0-3.6-1.1-3.6-3.3c0-2.3,1.9-3.3,3.9-3.3c0.9,0,1.7,0.2,2.4,0.5v-0.5
			c0-1.3-0.6-1.8-1.9-1.8c-1.2,0-2.1,0.3-3,0.9l-0.7-1.8c0.9-0.6,2.2-1.1,3.9-1.1c1.8,0,3.9,0.4,3.9,3.8v6.4h-2.2L153.6,61L153.6,61
			z M153.6,59.1v-1.3c-0.5-0.2-1.2-0.4-2-0.4c-1.1,0-2,0.4-2,1.3c0,0.8,0.6,1.3,1.8,1.3C152.4,60.1,153.1,59.6,153.6,59.1z"/>
		<path class="st1" d="M160.5,61.1v0.8h-2.3v-13l2.3-1v4.8c0.5-0.6,1.2-1,2.2-1c2.4,0,4.1,2,4.1,5.2c0,3.4-1.6,5.2-4.2,5.2
			C161.6,62.1,160.9,61.7,160.5,61.1z M164.6,56.8c0-2-0.8-3-2.2-3c-0.9,0-1.6,0.5-1.9,1v4.2c0.4,0.6,1.1,1,1.9,1
			C163.8,59.9,164.6,58.7,164.6,56.8z"/>
		<path class="st1" d="M174.5,61c-0.5,0.5-1.3,1-2.6,1c-2,0-3.6-1.1-3.6-3.3c0-2.3,1.9-3.3,3.9-3.3c0.9,0,1.7,0.2,2.4,0.5v-0.5
			c0-1.3-0.6-1.8-1.9-1.8c-1.2,0-2.1,0.3-3,0.9l-0.7-1.8c0.9-0.6,2.2-1.1,3.9-1.1c1.8,0,3.9,0.4,3.9,3.8v6.4h-2.2L174.5,61L174.5,61
			z M174.5,59.1v-1.3c-0.5-0.2-1.2-0.4-2-0.4c-1.1,0-2,0.4-2,1.3c0,0.8,0.6,1.3,1.8,1.3C173.3,60.1,174,59.6,174.5,59.1z"/>
		<path class="st1" d="M179.2,48.8l2.3-1.1v14.1h-2.3V48.8z"/>
		<path class="st1" d="M184.1,48.8l2.3-1v5c0.6-0.8,1.5-1.2,2.6-1.2c1.9,0,3.5,1,3.5,4.1v6.1h-2.3v-5.7c0-1.6-0.7-2.3-1.9-2.3
			c-1.2,0-2,0.6-2,2.2v5.8h-2.3L184.1,48.8L184.1,48.8z"/>
		<path class="st1" d="M194.5,56.9c0-3.2,1.8-5.2,4.6-5.2c2.8,0,4.6,2,4.6,5.2c0,3.3-1.8,5.2-4.6,5.2
			C196.3,62.1,194.5,60.1,194.5,56.9z M201.3,56.9c0-1.9-0.9-3.1-2.3-3.1c-1.4,0-2.3,1.2-2.3,3.1c0,1.9,0.9,3,2.3,3
			C200.5,59.9,201.3,58.8,201.3,56.9z"/>
	</g>
	<g>
		<g>
			<path class="st1" d="M21.4,20c-0.4,0.6-0.5,0.9-0.5,0.9c-0.3,0.6-1,0.8-1.6,0.6l-1.1-0.4c-0.6-0.2-1.3,0.1-1.5,0.7L15.9,24
				c-0.2,0.6,0.1,1.3,0.7,1.5l1.1,0.4c0.6,0.2,1,0.9,0.8,1.5L18,29.7c-0.1,0.6-0.7,1.1-1.3,1.1l-1.1,0c-0.6,0-1.2,0.5-1.2,1.1
				l-0.1,2.3c0,0.6,0.5,1.2,1.1,1.2l1.2,0c0.6,0,1.2,0.5,1.2,1.2l0.3,2.4c0.1,0.6-0.3,1.3-0.9,1.5l-1.1,0.3
				c-0.6,0.2-0.9,0.8-0.8,1.4l1,3.3l6.2-1.9c-2.8-6.9-2.5-15.1,1.5-22c4-7,10.9-11.3,18.4-12.3l-1.4-6.3l-3.4,0.8
				c-0.6,0.1-1,0.8-0.9,1.4l0.3,1.1c0.1,0.6-0.2,1.3-0.8,1.5l-2.2,0.9c-0.6,0.3-1.3,0-1.7-0.5l-0.6-1c-0.3-0.5-1-0.7-1.6-0.4l-2,1.2
				c-0.5,0.3-0.7,1.1-0.4,1.6l0.6,1c0.3,0.5,0.2,1.3-0.3,1.7l-1.8,1.6c-0.5,0.4-1.2,0.5-1.7,0.1l-0.9-0.7c-0.5-0.4-1.2-0.3-1.6,0.2
				l-1.5,1.8c-0.4,0.5-0.3,1.2,0.2,1.6l0.9,0.7c0.5,0.4,0.6,1.2,0.3,1.7C21.9,19.1,21.8,19.4,21.4,20z"/>
		</g>
		<g>
			<path class="st1" d="M45.3,61.4c0.7,0,1.1,0,1.1,0c0.6,0,1.2,0.4,1.3,1.1l0.2,1.1c0.1,0.6,0.7,1.1,1.3,0.9l2.3-0.4
				c0.6-0.1,1-0.7,1-1.3l-0.2-1.1c-0.1-0.6,0.3-1.3,0.9-1.5l2.3-0.8c0.6-0.2,1.3,0,1.6,0.6l0.5,1c0.3,0.6,1,0.8,1.5,0.5l2-1.1
				c0.6-0.3,0.8-1,0.5-1.5l-0.5-1c-0.3-0.6-0.1-1.3,0.4-1.7l1.9-1.5c0.5-0.4,1.3-0.4,1.7,0l0.8,0.8c0.5,0.4,1.2,0.4,1.6-0.1l2.3-2.5
				l-4.8-4.4c-4.6,5.9-11.8,9.7-19.8,9.7s-15.2-3.8-19.8-9.7l-4.8,4.4l2.4,2.5c0.4,0.5,1.2,0.5,1.6,0.1l0.9-0.8
				c0.5-0.4,1.2-0.5,1.7,0l1.9,1.5c0.5,0.4,0.7,1.1,0.4,1.7L29,59c-0.3,0.6-0.1,1.3,0.5,1.5l2,1.1c0.6,0.3,1.3,0.1,1.6-0.5l0.5-1
				c0.3-0.6,1-0.8,1.6-0.6l2.3,0.8c0.6,0.2,1,0.8,0.9,1.5l-0.2,1.1c-0.1,0.6,0.3,1.2,1,1.3l2.3,0.4c0.6,0.1,1.2-0.3,1.3-1l0.2-1.1
				c0.1-0.6,0.7-1.1,1.3-1.1C44.3,61.4,44.6,61.4,45.3,61.4z"/>
		</g>
		<g>
			<path class="st1" d="M69.2,20c-0.4-0.6-0.6-0.9-0.6-0.9c-0.3-0.5-0.2-1.3,0.3-1.7l0.9-0.7c0.5-0.4,0.6-1.1,0.2-1.6l-1.4-1.8
				c-0.4-0.5-1.1-0.6-1.6-0.2l-0.9,0.7c-0.5,0.4-1.3,0.4-1.7-0.1l-1.8-1.6c-0.5-0.4-0.6-1.2-0.3-1.7l0.6-1C63.2,9,63,8.3,62.5,7.9
				l-2-1.2C60,6.4,59.3,6.6,59,7.1l-0.6,1c-0.3,0.5-1.1,0.8-1.7,0.5l-2.2-0.9c-0.6-0.2-1-0.9-0.8-1.5L53.9,5
				c0.1-0.6-0.2-1.2-0.9-1.4l-3.4-0.8l-1.4,6.3c7.4,1,14.3,5.3,18.4,12.3s4.3,15.1,1.5,22l6.2,1.9l1-3.3c0.2-0.6-0.2-1.2-0.8-1.4
				l-1.1-0.3c-0.6-0.2-1-0.8-0.9-1.5l0.3-2.4c0.1-0.6,0.6-1.2,1.2-1.2l1.2,0c0.6,0,1.1-0.5,1.1-1.2l-0.1-2.3c0-0.6-0.6-1.1-1.2-1.1
				l-1.2,0c-0.6,0-1.2-0.5-1.3-1.1l-0.5-2.4C72,26.7,72.4,26,73,25.8l1.1-0.4c0.6-0.2,0.9-0.9,0.7-1.5l-0.8-2.1
				c-0.2-0.6-0.9-0.9-1.5-0.7l-1.1,0.4c-0.6,0.2-1.3,0-1.6-0.6C69.8,20.9,69.6,20.7,69.2,20z"/>
		</g>
		<g>
			<path class="st1" d="M9.4,19.5C9.4,19.5,9.4,19.5,9.4,19.5C9.4,19.5,9.4,19.5,9.4,19.5z"/>
		</g>
		<g>
			<path class="st1" d="M19.3,6.5l0.1,0.1c0.3-0.2,1.2-0.9,2.3-1.2c6.2-1.8,5.9-3.9,8.6-5.2l-0.1-0.1C30,0.2,29.1,0.7,28,0.7
				C20.7,0.8,21.2,5.1,19.3,6.5z"/>
		</g>
		<g>
			<path class="st1" d="M12,14.6l0.1,0.1c1.5-1.6,2.9-2,3.2-2c5.8-1.7,7.8-5.6,9.4-6.7l-0.1-0.1c-2.1,1.5-4.7,0-9.1,4.6
				c0,0-0.1-0.1-0.1-0.1c3.5-4.3,3.6-7.2,5.3-8.8l-0.1-0.1C10.3,7.7,14.9,11.1,12,14.6z"/>
		</g>
		<g>
			<path class="st1" d="M12.4,7.5c-9.7,9.6-3.7,12.1-5.2,16.9l0.1,0c0.9-2,3.1-2.9,3.2-2.9c4.1-1.9,5.4-6.7,7.1-8.1l-0.1-0.1
				c-2,2.2-5.3,1-8,6.3c0,0-0.2-0.1-0.2-0.1c2.2-4.7,1.2-9,3.2-11.9C12.5,7.5,12.5,7.5,12.4,7.5z"/>
		</g>
		<g>
			<path class="st1" d="M5.4,37.1l0.1,0c0-0.5-0.2-2.8,2.1-5c4.6-4.3,3.8-8.1,5.7-11l-0.1-0.1c-1.5,2.5-6.8,5.2-7.1,9.1
				c0,0-0.2,0-0.2,0c0.8-5.5-2.1-9.2-0.5-12.7c-0.1,0-0.1-0.1-0.1-0.1C-0.9,30,4.2,29.9,5.4,37.1z"/>
		</g>
		<g>
			<path class="st1" d="M7.8,49.2l0.2,0c-1.3-2.9,0.9-6.8,0.9-7c2.8-5.4,1.9-10.3,2.5-12.1l-0.1,0c-1.5,3.7-5.7,5.7-5,12
				c0,0-0.2,0-0.2,0C5.4,38.2,1,34.4,1.1,30.2c0,0,0,0-0.1,0C-1.7,45.3,6.1,45.2,7.8,49.2z"/>
		</g>
		<g>
			<path class="st1" d="M14,60.3l0.1-0.1c-2.6-3.2-1.8-6.6-1.8-6.9c1.3-7.5-1.1-8.9-1.2-12.3H11c-0.1,3.8-4,8.1-0.5,13.4l-0.2,0.1
				c-3.9-5.7-7-4.3-8.8-10l0,0c-0.1,0-0.1,0-0.2,0C4.2,61.2,11.6,56.2,14,60.3z"/>
		</g>
		<g>
			<path class="st1" d="M29.2,67.5l0-0.2c-5.1,1-7.8,0-8.7-4.7c-1.3-6.6-5.8-9.2-6.3-11.8h0c-0.1,0-0.1,0-0.1,0l0,0
				c1,4.7-1.3,7.5,4.3,13.1l-0.1,0.1c-5.4-4.3-9.2-2.7-11.3-5.7c0,0-0.1,0.1-0.1,0.1C13.6,69.7,20.8,70.3,29.2,67.5z"/>
		</g>
		<g>
			<path class="st1" d="M16.6,69.5L16.6,69.5c7,4,14.2-1.6,22.9-1.8c2.2-0.1,8.8,0.3,14.8,7.3l-1.6,0.5c-2-3.5-5.1-5.9-7.8-6.7
				c-8-2-8.1,5.4-17,5.5C21.3,74.4,16.8,69.7,16.6,69.5z"/>
		</g>
		<g>
			<path class="st1" d="M81.1,19.5C81.1,19.5,81.2,19.5,81.1,19.5C81.2,19.5,81.1,19.5,81.1,19.5z"/>
		</g>
		<g>
			<path class="st1" d="M81.1,19.5C81.1,19.5,81.2,19.5,81.1,19.5C81.2,19.5,81.1,19.5,81.1,19.5z"/>
		</g>
		<g>
			<path class="st1" d="M9.4,19.5C9.4,19.5,9.4,19.5,9.4,19.5C9.4,19.5,9.4,19.5,9.4,19.5z"/>
		</g>
		<g>
			<path class="st1" d="M81.1,19.5C81.1,19.5,81.2,19.5,81.1,19.5C81.2,19.5,81.1,19.5,81.1,19.5z"/>
		</g>
		<g>
			<path class="st1" d="M71.2,6.5l-0.1,0.1c-0.3-0.2-1.2-0.9-2.3-1.2c-6.2-1.8-5.9-3.9-8.6-5.2l0.1-0.1c0.3,0.2,1.1,0.6,2.2,0.6
				C69.9,0.8,69.3,5.1,71.2,6.5z"/>
		</g>
		<g>
			<path class="st1" d="M78.5,14.6l-0.1,0.1c-1.5-1.6-2.9-2-3.2-2c-5.8-1.7-7.8-5.6-9.4-6.7l0.1-0.1c2.2,1.5,4.7,0,9.1,4.6
				c0,0,0.2-0.1,0.2-0.1c-3.5-4.3-3.6-7.2-5.3-8.8l0.1-0.1C80.2,7.7,75.7,11.1,78.5,14.6z"/>
		</g>
		<g>
			<path class="st1" d="M78.1,7.5c9.7,9.6,3.7,12.1,5.2,16.9l-0.1,0c-0.9-2-3.1-2.9-3.2-2.9c-4.1-1.9-5.4-6.7-7.1-8.1l0.1-0.1
				c2,2.2,5.3,1,8,6.3c0,0,0.2-0.1,0.2-0.1c-2.2-4.7-1.2-9-3.2-11.9C78,7.5,78.1,7.5,78.1,7.5z"/>
		</g>
		<g>
			<path class="st1" d="M85.2,37.1l-0.1,0c0-0.5,0.2-2.8-2.1-5c-4.6-4.3-3.8-8.1-5.7-11l0.1-0.1c1.5,2.5,6.8,5.2,7.1,9.1
				c0,0,0.2,0,0.2,0c-0.8-5.5,2.1-9.2,0.5-12.7c0.1,0,0.1-0.1,0.1-0.1C91.4,30,86.3,29.9,85.2,37.1z"/>
		</g>
		<g>
			<path class="st1" d="M82.8,49.2l-0.2,0c1.3-2.9-0.9-6.8-0.9-7c-2.8-5.4-1.9-10.3-2.5-12.1l0.1,0c1.5,3.7,5.7,5.7,5,12
				c0,0,0.2,0,0.2,0c0.7-3.9,5.1-7.6,4.9-11.9c0,0,0.1,0,0.1,0C92.2,45.3,84.4,45.2,82.8,49.2z"/>
		</g>
		<g>
			<path class="st1" d="M76.5,60.3L76.5,60.3c2.5-3.3,1.7-6.7,1.7-7c-1.3-7.5,1.1-8.9,1.2-12.3h0.1c0.1,3.8,4,8.1,0.5,13.4l0.2,0.1
				c3.9-5.7,7-4.3,8.8-10l0,0c0.1,0,0.1,0,0.2,0C86.4,61.2,79,56.2,76.5,60.3z"/>
		</g>
		<g>
			<path class="st1" d="M61.3,67.5l0-0.2c5.1,1,7.8,0,8.7-4.7c1.3-6.6,5.8-9.2,6.3-11.8h0c0.1,0,0.1,0,0.1,0l0,0
				c-1,4.7,1.3,7.5-4.3,13.1l0.2,0.1c5.4-4.3,9.2-2.7,11.3-5.7c0,0,0.1,0.1,0.1,0.1C77,69.7,69.8,70.3,61.3,67.5z"/>
		</g>
		<g>
			<path class="st1" d="M74,69.5L74,69.5c-7,4-14.2-1.6-22.9-1.8c-2.2-0.1-8.8,0.3-14.8,7.3l1.6,0.5c2-3.5,5.1-5.9,7.8-6.7
				c8-2,8.1,5.4,17,5.5C69.2,74.4,73.7,69.7,74,69.5z"/>
		</g>
		<g>
			<path class="st1" d="M9.4,19.5C9.4,19.5,9.4,19.5,9.4,19.5C9.4,19.5,9.4,19.5,9.4,19.5z"/>
		</g>
		<g>
			<path class="st1" d="M9.4,19.5C9.4,19.5,9.4,19.5,9.4,19.5C9.4,19.5,9.4,19.5,9.4,19.5z"/>
		</g>
		<g>
			<path class="st1" d="M81.1,19.5C81.1,19.5,81.2,19.5,81.1,19.5C81.2,19.5,81.1,19.5,81.1,19.5z"/>
		</g>
		<g>
			<g>
				<path class="st1" d="M47.8,19.4c0.1-1.3,1.4-1.4,1.4-1.4H51v-1.7H40.4V18h1.8c0,0,1.4,0.1,1.4,1.4v27.5
					c-0.1,1.3-1.4,1.3-1.4,1.3h-1.8V50H51v-1.7h-1.8c0,0-1.4-0.1-1.4-1.3L47.8,19.4L47.8,19.4z"/>
			</g>
		</g>
		<g>
			<path class="st1" d="M65.1,22v7.2h-1.3v-2c0,0,0.3-4.2-4.3-3.9v19c0,0,0.1,1.1,2.2,1v1.2h-8v-1.2c2.1,0.1,2.2-1,2.2-1v-19
				c-4.6-0.4-4.3,3.9-4.3,3.9v2h-1.3V22H65.1L65.1,22z"/>
		</g>
		<g>
			<path class="st1" d="M32.5,21.3h-0.1c-3.2,0-6.3,2.1-7.9,5.5c-0.8,1.8-1,4-1,6.3c0,2.2,0.2,4.5,1,6.2c1.5,3.5,4.6,5.8,7.9,5.8
				h0.1c3.2,0,6.3-2.4,7.9-5.8c0.8-1.8,1-4,1-6.2c0-2.2-0.2-4.5-1-6.3C38.9,23.3,35.8,21.3,32.5,21.3z M37.5,33.2
				c0,2.1-0.1,3.9-0.1,3.9c-0.1,1.7-0.2,3.4-0.9,4.5c-0.9,1.3-2.3,2-3.7,2l-0.1,0h-0.2l0,0c-1.4,0-2.9-0.7-3.7-2
				c-0.8-1.2-0.8-2.9-0.9-4.5c0,0,0-1.8,0-3.8v-0.1c0-2.1,0-3.9,0-3.9c0.1-1.7,0.2-3.4,0.9-4.5c0.9-1.3,2.3-2,3.7-2l0,0h0.2l0,0
				c1.4,0,2.8,0.7,3.7,2c0.8,1.2,0.8,2.9,0.9,4.5C37.4,29.3,37.5,31.1,37.5,33.2L37.5,33.2L37.5,33.2z"/>
		</g>
	</g>
</g>
</svg>
