<svg xmlns="http://www.w3.org/2000/svg" id="Calque_1" viewBox="0 0 720.17 250"><defs><style>.cls-1{fill:#fff;stroke-width:0}</style></defs><path id="Lockup" d="M400.74 96.8v56.74h-6.34v-3.34h-41.05v3.34h-6.01V96.8zm-6.34 48.06v-42.39h-41.05v42.06zm-3-10.01v5.01h-34.38v-5.01h14.02v-9.68h-11.35v-5.01h11.35v-7.68h-13.02v-5.34h32.38v5.34h-13.35v7.68h12.02v5.01h-12.02v9.68h9.01c-1-2-3.67-5.01-5.67-7.01l3.67-2c2.34 2 4.67 5.01 6.01 6.68l-4.01 2.34h5.34Zm75.1-34.38c-2 5.34-4.67 11.01-8.01 15.02 2.67 3 5.67 5.34 9.35 7.34-1.34 1-2.67 3-3.67 4.34-3-1.67-5.34-3.34-7.68-5.67v3.34h-21.36v-2.67c-2 2.34-4.67 4.01-7.01 5.34-.67-1-2-3-3-4.01.67 2.34 1 4.67 1 6.68 0 3.67-.67 6.68-2.34 8.01-.67.67-1.67 1-3 1.34h-3.34c0-1.34-.33-3.67-1-5.01h2.34c.67 0 1-.33 1.34-.67.67-.67 1-2.34 1-4.34 0-3.34-.67-8.01-4.01-13.02 1.34-4.34 2.67-10.35 3.34-14.69h-5.34v51.74h-4.67V96.8h12.02l.67-.33 3.67 2c-.67 3.67-2 7.68-3 11.68 4.34-4.01 7.68-9.68 9.68-16.02l4.67 1c-.33 1.34-1 2.67-1.34 4.01h5.67l1-.33 2.34 1c-.33-1.34-.67-2.34-1-3.67l4.67-1c1.34 6.01 3.34 11.68 6.34 16.02 1.67-2.34 3-5.34 4.01-8.34h-7.34v-4.34h9.68l1-.33 3.34 2.34Zm-33.38 16.69c-1.34-1.34-3-3-5.01-4.34l-1.67 1.67c-.67-.67-2-1.67-3-2.67-.33 1.67-1 3.34-1.34 4.67 1.67 2.34 2.67 5.01 3.34 7.01 2.67-1.34 5.34-3.67 7.68-6.34m4.34 21.7c-2 4.34-5.34 9.35-8.34 12.35-1-1-3.34-2.34-4.67-3 3-2.67 6.01-6.68 7.68-10.68l5.34 1.34Zm11.68-4.01v12.68c0 2.67-.33 4.01-2.34 5.01-2 .67-4.67.67-8.68.67-.33-1.67-1-3.67-2-5.01h6.34c.67 0 1-.33 1-1v-12.68h-13.68v-5.01h33.38v5.01zm-12.02-23.36c-1.34-1-3.34-2.67-5.01-3.67-.67.67-1.34 1.67-1.67 2.34 1.67 1.34 3.67 2.67 5.01 4.01.67-.67 1.34-1.67 1.67-2.67Zm-2.34-8.01c-.33.67-.67 1-1 1.67 1.67 1 3.67 2 4.67 3 .67-1.34 1.34-3 1.67-4.67zm20.69 16.69c-4.34-5.01-7.34-11.01-9.35-18.36-1.67 7.34-5.01 13.68-9.01 18.36zm2.67 17.02c3 3.34 6.68 8.34 8.34 11.35l-4.67 2.67c-1.34-3.34-4.67-8.01-8.01-11.68zm65.44-13.02v2.67c-.67 15.69-1.67 22.03-3.67 24.37-1.34 1.67-3 2.34-5.34 2.34-2.34.33-6.34.33-10.35 0 0-1.67-1-4.34-2-6.01 4.34.33 8.34.33 10.01.33 1.34 0 2 0 2.67-.67 1.34-1.34 2-6.01 2.67-17.36h-16.36c-2.34 11.68-8.01 19.36-25.03 23.7-.67-1.67-2.34-4.01-3.67-5.34 14.69-3.34 20.03-9.35 22.03-18.36h-16.69v-5.67h17.69c.33-2.67.33-5.67.67-9.01h6.68c0 3.34-.33 6.34-.67 9.01zm4.67-16.69v14.02h-6.01v-8.34h-42.39v8.34h-5.67v-14.02h9.68c-1.34-3-3.67-7.01-6.34-10.01l5.34-2.34c2.67 3 5.67 7.01 7.01 10.01l-4.67 2.34h27.7l-1.34-.67c2.67-3.34 6.01-8.34 7.68-12.35l6.68 2c-2.67 3.67-5.34 7.68-8.01 10.68l10.35.33Zm-29.04-.33c-.67-3-2.67-7.68-4.67-11.01l5.34-1.67c2.34 3.34 4.34 7.68 5.01 10.68l-5.67 2Zm94.79 1.66v2.67c-.67 27.04-1 36.05-2.67 39.05-1.34 1.67-2.34 2.34-4.01 2.67s-4.01.33-6.34 0c0-1.67-.67-3.67-1.34-5.34 2.34 0 4.34.33 5.34.33.67 0 1.34-.33 2-1 1.34-1.67 1.67-9.68 2.34-32.71h-5.34v1.67c0 12.35-1.34 27.7-10.01 38.05-1-1-3-2.34-4.34-3.34.33-.33.67-.67 1-1.34-7.34.67-14.69 1.67-20.36 2.34l-.67-5.01c3-.33 6.68-.67 10.68-.67v-4.67h-9.01v-4.34h9.01v-3.67h-9.01v-19.03h9.01v-3.67h-9.68v-4.34h9.68v-3.34c-3 .33-6.01.67-8.68.67-.33-1.34-.67-2.67-1-3.67-1 2.67-2 5.67-3 8.34v45.06h-5.34v-34.71c-1.34 2.67-3 5.01-4.67 7.01-.33-1.67-2-5.01-2.67-6.34 5.01-6.34 9.35-15.69 12.02-25.03l5.34 1.34c-.33 1-.67 2-1 3.34 7.34-.67 16.02-1.67 21.36-3l3 4.34c-3 .67-6.01 1.34-9.68 1.67v3.67h9.68v3h4.01V94.46h5.34v14.35zm-38.72 12.68h5.34v-3.67h-5.34zm0 7.34h5.34v-4.01h-5.34zm15.02-7.34v-3.67h-5.67v3.67zm0 7.34v-4.01h-5.67v4.01zm8.68-14.69h-4.01v-3.67h-9.68v3.67h9.35v19.03h-9.35v3.67h9.35v4.34h-9.35v4.34c2.67-.33 5.67-.67 8.34-.67 4.67-9.01 5.34-20.03 5.34-28.7v-2Zm75.77 19.71c-2 4.01-4.34 7.34-7.34 10.35 1.67 2.67 3.34 4.34 5.67 4.34 1.67 0 2.34-1.34 2.67-6.68 1 1 3 2 4.01 2.67-1 7.34-2.67 9.35-7.01 9.35-3.67 0-6.68-2.34-9.01-6.01-3 2.34-6.68 4.34-10.35 6.01-.67-1-2-3-3.34-4.01 4.34-1.67 8.34-3.67 11.68-6.34-1.34-3.34-2.34-7.01-3.34-11.35h-8.68c0 1-.33 2-.33 3.34 3 2 6.34 4.34 8.34 6.01l-3 4.01c-1.34-1.34-3.67-3.34-6.01-5.01-1.34 5.34-4.01 10.01-8.34 13.35-.67-1.34-2.34-3.34-3.67-4.01 5.67-4.01 7.34-10.68 8.01-17.69h-4.34v-3.34l-2.34 3c-.67-2-2.34-5.34-4.01-8.34v30.04h-5.34v-27.37c-1.67 6.01-4.01 11.68-6.34 15.35-.67-1.67-2-3.67-2.67-5.01 3.34-5.34 6.68-15.02 8.34-23.03H601v-5.34h7.68V94.46h5.34v13.68h6.34v5.34h-6.34v2.67c1.67 2.34 5.34 8.34 6.68 10.68h17.02c-1.34-9.35-2-20.69-2-32.38h5.34v11.01l2-3c.33.33.67.67 1.34 1 1.34-2.67 2.67-6.01 3.67-8.68l4.67 1.67c-1.67 3.34-3.67 6.68-5.34 9.35l2.34 2.34c1.34-2.34 2.67-4.67 3.67-7.01l4.34 2c-2.67 4.34-6.01 9.68-9.01 13.68l5.34-.33c-.33-1-1-2.34-1.34-3.34l3.34-1.34c1.67 3 3.34 7.01 3.67 9.35l-3.67 1.67c0-.67-.33-1.67-.67-2.67-2.34.33-4.34.33-6.68.67 2 1.34 4.67 3 6.01 4.34l-1.34 1.34h5.34v4.67h-15.35c.67 2.67 1.34 5.34 2 7.68 2-2.34 3.34-4.67 4.67-7.01l4.67 2Zm-34.05-15.69c1.34-1.67 2.67-3.67 4.01-6.01-1.67-2-4.34-4.34-6.68-6.34l2.34-3.34c.33.33.67.67 1.34 1 1.34-2.67 2.67-6.34 3.67-8.68l4.67 1.67c-1.67 3.34-3.67 6.68-5.34 9.35l2.34 2.34c1.34-2.34 2.67-4.67 3.67-7.01l4.34 2c-2.67 4.67-6.34 10.01-9.35 14.35l5.01-.33c-.33-1.34-1-2.34-1.34-3.67l3.34-1.34c1.67 3 3 7.01 3.34 9.35l-3.67 1.67c0-.67-.33-1.34-.33-2-4.34.67-8.68 1-12.35 1.34l-.67-4.67 1.67.33Zm22.36-1c1.34-1.67 2.34-3.34 3.67-5.01-1.67-2-4.01-4.34-6.34-6.01.33 7.68.67 14.69 1.67 20.69h7.34c-1.34-1-3-2.34-4.34-3.34l2.67-2.67-5.67.67-1-4.34h2Zm29.38.66v35.71h-6.01V96.79h24.03v21.03zm0-16.69v4.34h12.35v-4.34zm12.68 12.68v-4.34h-12.35v4.34zm35.05 32.71c0 3-.67 4.67-2.34 5.67s-4.67 1-8.68 1c-.33-1.34-.67-3.34-1.34-5.01-.67.67-1 1.34-1.34 2-6.01-1.67-10.35-4.67-13.02-9.01-2 3.34-6.01 6.68-13.68 9.01-.67-1-2.34-3-3.67-4.01 8.34-2.34 11.68-5.34 13.02-8.68h-12.35v-4.01h13.35v-4.34h-12.35v-4.34h6.01c-.67-1.67-1.67-3.34-2.67-4.67l4.67-1.34c1.34 2 2.67 4.34 3.34 6.34h7.68c1-2 2-4.34 2.67-6.34l5.34 1.67c-1 1.67-2 3.34-3 4.67h6.68v4.34h-13.35v4.01h14.35v4.34h-13.35c2.67 4.01 7.34 7.01 13.35 8.34-.67.33-1 1-1.67 1.67h5.01c.67 0 1-.33 1-1v-28.7h-18.69V96.77h24.37l.67 49.73Zm-19.03-45.39v4.34h12.68v-4.34zm13.02 12.68v-4.34h-12.68v4.34z" class="cls-1"/><g id="Type_Cuts"><path d="M69.64 66.42c-1.34 2-1.67 3-1.67 3-1 2-3.34 2.67-5.34 2l-3.67-1.34c-2-.67-4.01.33-5.01 2.34l-2.67 7.01c-.67 2 .33 4.01 2.34 5.01l3.67 1.34c2 .67 3 3 2.67 5.01l-1.67 7.68c-.33 2-2.34 3.67-4.34 3.67h-3.67c-2 0-4.01 1.67-4.01 3.67l-.33 7.68c0 2 1.67 4.01 3.67 4.01h4.01c2 0 4.01 1.67 4.01 4.01l1 7.68c.33 2-1 4.34-3 5.01l-3.67 1c-2 .67-3 2.67-2.67 4.67l3.34 11.01 20.69-6.34c-9.35-23.03-8.34-50.07 5.01-73.1s36.38-37.38 60.75-40.72l-4.67-21.03-11.01 2.67c-2 .33-3.34 2.67-3 4.67l1 3.67c.33 2-.67 4.34-2.67 5.01l-7.34 3c-2 1-4.34 0-5.34-1.67l-2-3.34c-1-1.67-3.34-2.34-5.34-1.34l-6.34 4.01c-1.67 1-2.34 3.34-1.34 5.34l2 3.34c1 1.67.67 4.34-1 5.67l-6.01 5.34c-1.67 1.34-4.01 1.67-5.67.33l-3-2.34c-1.67-1.34-4.01-1-5.34.67L67 50.06c-1.34 1.67-1 4.01.67 5.34l3 2.34c1.67 1.34 2 3.67 1 5.67-.33 0-1 .67-2 3Zm79.1 137.52h3.34c2 0 4.01 1.34 4.34 3.67l.67 3.67c.33 2 2.34 3.67 4.34 3l7.34-1.34c2-.33 3.34-2.34 3-4.34l-.67-3.67c-.33-2 1-4.34 3-5.01l7.34-2.67c2-.67 4.34 0 5.34 2l1.67 3.34c1 1.67 3.34 2.67 5.01 1.67l6.68-3.67c1.67-1 2.67-3.34 1.67-5.01l-1.67-3.34c-1-1.67-.33-4.34 1.34-5.67l6.34-5.01a4.5 4.5 0 0 1 5.67 0l2.67 2.67c1.67 1.34 4.01 1.34 5.34-.33l7.68-8.34-15.69-14.69c-15.35 19.69-39.05 32.38-65.75 32.38s-50.4-12.68-65.75-32.38L66.3 175.56l7.68 8.34c1.34 1.67 3.67 1.67 5.34.33l3-2.67c1.67-1.34 4.01-1.67 5.67 0l6.34 5.01c1.67 1.34 2.34 3.67 1.34 5.67L94 195.58c-1 1.67-.33 4.01 1.67 5.01l6.68 3.67c1.67 1 4.01.33 5.01-1.67l1.67-3.34c1-1.67 3.34-2.67 5.34-2l7.34 2.67c2 .67 3.34 2.67 3 5.01l-.67 3.67c-.33 2 1 4.01 3 4.34l7.34 1.34c2 .33 4.01-1 4.34-3l.67-3.67c.33-2 2.34-3.67 4.34-3.67 1.67-.33 2.67 0 5.01 0m79.44-137.52c-1.34-2-1.67-3-1.67-3-1-1.67-.67-4.34 1-5.67l3-2.34c1.67-1.34 2-3.67.67-5.34l-4.67-6.01c-1.34-1.67-3.67-2-5.34-.67l-3 2.34c-1.67 1.34-4.01 1.34-5.67-.33l-6.01-5.34c-1.67-1.34-2-3.67-1-5.67l2-3.34c1-1.67.67-4.01-1.34-5.34l-6.34-4.01c-1.67-1-4.01-.67-5.34 1.34l-2 3.34c-1 1.67-3.67 2.67-5.34 1.67l-7.34-3c-2-.67-3.34-3-2.67-5.01l.33-3.34c.33-2-.67-4.01-3-4.67l-11.01-2.34-4.67 21.03c24.7 3.34 47.4 17.69 60.75 40.72s14.35 50.07 5.01 73.1l20.69 6.34 3.34-11.01c.67-2-.67-4.01-2.67-4.67l-3.67-1c-2-.67-3.34-2.67-3-5.01l1-7.68c.33-2 2-4.01 4.01-4.01h4.01c2 0 3.67-1.67 3.67-4.01l-.33-7.68c0-2-2-3.67-4.01-3.67h-4.01c-2 0-4.01-1.67-4.34-3.67l-1.67-7.68c-.67-2 .67-4.34 2.67-5.01l3.67-1.34c2-.67 3-3 2.34-5.01l-2.67-7.01c-.67-2-3-3-5.01-2.34l-3.67 1.34c-2 .67-4.34 0-5.34-2 .33 0 0-1-1.34-3ZM62.63 21.36l.33.33c1-.67 4.01-2.67 7.68-4.01C91.33 12.01 90.33 4.66 99.01.32l-.33-.33c-1 .67-3.67 2-7.34 2-24.03.67-22.36 15.02-28.7 19.36Z" class="cls-1"/><path d="m38.6 48.4.33.33c5.01-5.34 9.68-6.34 10.35-6.68 19.36-5.67 26.03-18.36 31.38-22.03l-.33-.33c-7.01 5.01-15.69 0-30.04 15.35l-.33-.33c11.68-14.02 12.02-23.7 17.36-29.04l-.33-.33C32.94 25.7 47.96 36.72 38.62 48.4Z" class="cls-1"/><path d="M39.93 24.7C7.89 56.74 27.91 64.75 22.57 80.77h.33c3-6.68 10.35-9.68 10.68-9.68 13.68-6.34 18.02-22.03 23.36-27.04l-.33-.33c-6.68 7.34-17.69 3-26.7 21.03l-.67-.33c7.34-15.69 3.67-29.71 10.68-39.39v-.33Z" class="cls-1"/><path d="M16.57 123.16c.33-1.67-.33-9.35 7.34-16.36 15.35-14.02 12.68-26.7 19.03-36.38l-.67-.33c-5.01 8.34-22.7 17.36-23.36 30.04h-.67c2.67-18.36-7.01-30.37-1.67-42.06-.33 0-.33-.33-.33-.33-20.69 42.06-3.67 41.39.33 65.42" class="cls-1"/><path d="M24.24 162.88h.67c-4.34-9.35 2.67-22.36 3.34-23.03 9.35-18.02 6.34-34.38 8.34-40.05h-.33c-5.01 12.35-18.69 19.03-16.69 39.72h-.67c-2.34-13.02-17.02-25.37-16.69-39.39h-.33c-9.01 50.07 17.02 49.73 22.36 62.75" class="cls-1"/><path d="m45.27 199.93.33-.33c-8.68-10.68-6.01-22.03-6.01-22.7 4.34-25.03-3.67-29.37-4.01-40.72h-.33c-.33 12.68-13.35 26.7-1.67 44.39l-.67.33c-12.68-18.69-23.03-14.02-29.04-32.71H3.2c9.35 55.07 33.71 38.38 42.06 51.74Z" class="cls-1"/><path d="M95.67 223.97v-.67c-17.02 3.34-25.7 0-28.7-15.69-4.34-22.03-19.36-30.37-21.03-39.39h-.33c3.34 15.69-4.34 24.7 14.35 43.39l-.33.33c-18.69-13.68-31.04-8.34-38.05-18.36l-.33.33c22.36 37.05 46.06 39.05 74.43 30.04Z" class="cls-1"/><path d="M53.62 230.31c23.03 13.02 47.06-5.34 76.1-6.01 7.34-.33 29.04 1 49.07 24.37l-5.34 1.34c-6.68-11.35-16.69-19.69-26.03-22.03-26.37-6.68-27.04 18.02-56.07 18.36-22.03.33-37.05-15.02-37.72-16.02ZM234.86 21.36c-1.34 0-4.34-2.34-8.01-3.34C206.16 12.35 207.16 5 198.48.66l.33-.33c1 .67 3.67 2 7.34 2 24.03.33 22.36 14.69 28.7 19.03Z" class="cls-1"/><path d="m258.89 48.4-.33.33c-5.01-5.34-9.68-6.34-10.35-6.68-19.36-5.67-26.03-18.36-31.38-22.03l.33-.33c7.01 5.01 15.69 0 30.04 15.35l.67-.33c-11.68-14.02-12.02-23.7-17.36-29.04l.33-.33c33.71 20.36 18.69 31.38 28.04 43.06Z" class="cls-1"/><path d="M257.55 24.7c32.38 32.04 12.02 40.05 17.36 56.07h-.33c-3-6.68-10.35-9.68-10.68-9.68-13.68-6.34-18.02-22.03-23.36-27.04l.33-.33c6.68 7.34 17.69 3 26.7 21.03l.67-.33c-7.34-15.69-4.01-29.71-10.68-39.72-.33.33 0 .33 0 0Z" class="cls-1"/><path d="M280.92 123.16c-.33-1.67.33-9.35-7.34-16.36-15.35-14.02-12.68-26.7-19.03-36.38l.33-.33c5.01 8.34 22.7 17.36 23.36 30.04h.67c-2.67-18.36 7.01-30.37 1.67-42.06.33 0 .33-.33.33-.33 20.69 42.06 4.01 41.39 0 65.42Z" class="cls-1"/><path d="M272.91 162.88h-.67c4.34-9.35-2.67-22.36-3-23.03-9.35-18.02-6.01-34.38-8.34-40.05h.33c5.01 12.35 18.69 19.03 16.69 39.72h.67c2.34-13.02 16.69-25.37 16.36-39.39h.33c9.01 50.07-16.69 49.73-22.36 62.75Z" class="cls-1"/><path d="M252.21 199.93c8.34-10.68 5.67-22.36 5.67-23.03-4.34-25.03 3.67-29.37 4.01-40.72h.33c.33 12.68 13.35 26.7 1.67 44.39l.67.33c13.02-19.03 23.03-14.35 29.37-33.04h.67c-9.68 55.41-34.05 38.72-42.39 52.07" class="cls-1"/><path d="M201.81 223.97v-.67c17.02 3.34 25.7 0 28.7-15.69 4.34-22.03 19.36-30.37 21.03-39.39h.33c-3.34 15.69 4.34 24.7-14.35 43.39l.67.33c18.02-14.35 30.37-9.01 37.38-19.03l.33.33c-22.03 37.72-46.06 39.72-74.1 30.71Z" class="cls-1"/><path d="M243.87 230.31c-23.03 13.35-47.06-5.34-76.1-6.01-7.34-.33-29.04 1-49.07 24.37l5.34 1.34c6.68-11.35 16.69-19.69 26.03-22.03 26.37-6.68 27.04 18.02 56.07 18.36 22.03.33 37.05-15.02 37.72-16.02ZM184.46 65.42c-11.01 0-21.36 7.01-26.37 18.36-2.67 6.01-3.34 13.35-3.34 20.69s.67 15.02 3.34 20.69c5.01 11.35 15.35 19.36 26.03 19.36h.33c10.68 0 21.03-7.68 26.03-19.36 2.67-6.01 3.34-13.35 3.34-20.69s-.67-15.02-3.34-20.69c-5.01-11.68-15.35-18.36-26.03-18.36Zm16.36 39.39c0 7.01-.33 12.68-.33 12.68-.33 5.67-.67 11.35-3 15.02-3 4.34-7.68 6.68-12.35 6.68h-1c-4.67 0-9.35-2.34-12.35-6.68-2.67-4.01-2.67-9.35-3-15.02v-25.7c.33-5.67.67-11.35 3-15.02 3-4.34 7.68-6.68 12.35-6.68h.67c4.67 0 9.35 2.34 12.35 6.68 2.67 3.67 2.67 9.35 3 15.02.33 0 .67 6.01.67 13.02Z" class="cls-1"/><path d="M192.47 147.86s-2 5.34-6.01 8.68c-2 1.67-5.34 2.34-7.68 2.67l-26.37 1.34h-5.67s-4.34-.33-4.67-4.34V63.75c.33-4.01 4.67-4.34 4.67-4.34h5.67v-5.34h-35.38v5.34h5.67s4.34.33 4.67 4.34v92.12c-.33 4.01-4.67 4.34-4.67 4.34h-5.67v5.34h73.1l4.67-17.02v-.67h-2.34Z" class="cls-1"/><path d="M109.69 75.43c.33-3.34 4.01-3.67 4.01-3.67h5.01v-4.34H89.34v4.34h5.01s3.67.33 4.01 3.67v59.08c-.33 3.34-4.01 3.67-4.01 3.67h-5.01v4.34h29.37v-4.34h-5.34s-3.67-.33-4.01-3.67V75.43z" class="cls-1"/></g></svg>