<svg xmlns="http://www.w3.org/2000/svg" id="Calque_1" viewBox="0 0 767.84 250"><defs><style>.cls-1{fill:#fff;stroke-width:0}</style></defs><path id="Lockup" d="M365.2 74.2c-2.79 0-5.34-.46-7.63-1.36s-4.18-2.12-5.64-3.65c-1.49-1.53-2.72-3.32-3.75-5.34s-1.73-4.11-2.16-6.3-.63-4.41-.63-6.77.2-4.58.63-6.77 1.16-4.28 2.16-6.3 2.26-3.82 3.75-5.34 3.38-2.75 5.64-3.65c2.29-.9 4.81-1.36 7.63-1.36 3.48 0 6.57.66 9.22 2.02s4.71 3.19 6.21 5.51c1.49 2.29 2.59 4.78 3.32 7.47s1.1 5.48 1.1 8.4-.37 5.74-1.1 8.4c-.73 2.69-1.83 5.14-3.32 7.47-1.49 2.29-3.55 4.15-6.21 5.51-2.69 1.43-5.74 2.09-9.22 2.09Zm0-7.43c2.06 0 3.92-.5 5.51-1.49 1.59-1 2.82-2.29 3.72-3.92s1.53-3.32 1.96-5.11.63-3.62.63-5.48c0-1.99-.23-3.88-.63-5.64-.43-1.79-1.1-3.48-1.96-5.08-.9-1.59-2.12-2.85-3.68-3.82s-3.42-1.43-5.54-1.43c-2.75 0-5.08.86-6.9 2.62-1.86 1.76-3.12 3.75-3.85 6.04-.7 2.29-1.06 4.71-1.06 7.3 0 1.92.2 3.82.63 5.61.43 1.83 1.1 3.52 1.96 5.11.9 1.59 2.12 2.85 3.68 3.82 1.56 1 3.42 1.46 5.54 1.46Zm26.31 6.66V40.41h7.57v3.42c1.33-2.79 3.58-4.21 6.77-4.21 2.32 0 4.38.76 6.14 2.26l-1.1 6.94c-1.63-1.16-3.52-1.76-5.61-1.76-1.73 0-3.19.6-4.38 1.83-1.19 1.19-1.83 3.22-1.83 6.07v18.48h-7.57Zm35.54 12.91-4.02-6.07c4.51-.3 7.67-1 9.39-2.09 1.76-1.1 2.62-2.79 2.62-5.08v-1.86c-1.83 1.99-4.31 2.99-7.5 2.99-4.05 0-7.33-1.49-9.86-4.48s-3.78-7.27-3.78-12.84 1.26-9.56 3.78-12.64c2.52-3.09 5.84-4.61 9.92-4.61 3.09 0 5.57.93 7.43 2.79v-1.99h7.57v29.73c0 5.48-1.16 9.42-3.52 11.88-2.36 2.42-6.37 3.85-12.05 4.28Zm1.79-19.38c2.72 0 4.78-1.06 6.21-3.22v-13.7c-1.49-2.16-3.58-3.22-6.21-3.22-2.36 0-4.18.86-5.48 2.59-1.26 1.73-1.89 4.21-1.89 7.5 0 3.09.63 5.54 1.92 7.37 1.29 1.79 3.12 2.69 5.44 2.69Zm39.66 6.47v-2.65c-2.19 2.29-5.14 3.42-8.79 3.42s-6.4-.96-8.63-2.89c-2.22-1.92-3.32-4.61-3.32-8.1s1.26-6.3 3.78-8.13c2.52-1.86 5.57-2.79 9.16-2.79 3.15 0 5.74.6 7.83 1.76v-1.76c0-2.12-.53-3.65-1.59-4.58-1.06-.96-2.69-1.43-4.88-1.43-3.58 0-6.84 1.03-9.82 3.09l-2.32-6.14c3.58-2.42 7.9-3.62 12.91-3.62 1.73 0 3.25.13 4.55.43 1.33.27 2.65.83 4.08 1.66 1.39.83 2.49 2.12 3.25 3.88s1.16 3.95 1.16 6.6v21.27l-7.37-.03Zm-7.37-5.91c2.89 0 5.34-1.06 7.37-3.15v-4.28c-1.89-.9-4.08-1.36-6.6-1.36-2.02 0-3.65.37-4.91 1.1s-1.86 1.86-1.86 3.35c0 1.33.53 2.39 1.56 3.15 1 .83 2.49 1.19 4.45 1.19Zm41.81 5.91V54.48c0-5.11-2.06-7.7-6.14-7.7-4.48 0-6.74 2.52-6.74 7.57V73.4h-7.57V40.38h7.57v3.09c2.16-2.59 5.08-3.88 8.73-3.88 3.45 0 6.27 1.06 8.43 3.22 2.19 2.16 3.25 5.57 3.25 10.29v20.27h-7.53v.07Zm21.27-38.89c-.86.9-1.92 1.33-3.15 1.33s-2.32-.43-3.19-1.33c-.9-.9-1.33-1.96-1.33-3.19s.43-2.29 1.33-3.15 1.96-1.29 3.19-1.29 2.29.43 3.15 1.29 1.29 1.92 1.29 3.15-.43 2.32-1.29 3.19m-7 38.89V40.41h7.57v33.02zm12.45 0v-6.07l17.32-20.24h-16.03v-6.74h25.38v5.81l-17.26 20.47h17.19v6.74l-26.61.03Zm31.09 0v-6.07l17.32-20.24h-16.03v-6.74h25.38v5.81l-17.26 20.47h17.19v6.74l-26.61.03Zm51.4 0v-2.65c-2.19 2.29-5.14 3.42-8.79 3.42s-6.4-.96-8.63-2.89c-2.22-1.92-3.32-4.61-3.32-8.1s1.26-6.3 3.78-8.13c2.52-1.86 5.57-2.79 9.16-2.79 3.15 0 5.74.6 7.83 1.76v-1.76c0-2.12-.53-3.65-1.59-4.58-1.06-.96-2.69-1.43-4.88-1.43-3.58 0-6.84 1.03-9.82 3.09l-2.32-6.14c3.58-2.42 7.9-3.62 12.91-3.62 1.73 0 3.25.13 4.55.43 1.33.27 2.65.83 4.08 1.66 1.39.83 2.49 2.12 3.25 3.88s1.16 3.95 1.16 6.6v21.27l-7.37-.03Zm-7.37-5.91c2.89 0 5.34-1.06 7.37-3.15v-4.28c-1.89-.9-4.08-1.36-6.6-1.36-2.02 0-3.65.37-4.91 1.1s-1.86 1.86-1.86 3.35c0 1.33.53 2.39 1.56 3.15s2.52 1.19 4.45 1.19Zm19.31 5.91v-6.07l17.32-20.24h-16.03v-6.74h25.38v5.81L633.5 66.66h17.19v6.74l-26.61.03Zm38.99-38.89c-.86.9-1.92 1.33-3.15 1.33s-2.32-.43-3.19-1.33c-.9-.9-1.33-1.96-1.33-3.19s.43-2.29 1.33-3.15 1.96-1.29 3.19-1.29 2.29.43 3.15 1.29 1.29 1.92 1.29 3.15-.43 2.32-1.29 3.19m-7 38.89V40.41h7.57v33.02zm28.14.77c-4.65 0-8.33-1.53-11.05-4.58s-4.08-7.27-4.08-12.68 1.36-9.62 4.08-12.71 6.4-4.61 11.05-4.61 8.36 1.53 11.08 4.61c2.72 3.09 4.11 7.3 4.11 12.71s-1.36 9.62-4.08 12.68c-2.72 3.05-6.4 4.58-11.12 4.58Zm0-7.23c2.36 0 4.25-.9 5.57-2.65 1.36-1.76 2.02-4.21 2.02-7.37s-.66-5.61-2.02-7.43c-1.36-1.83-3.22-2.72-5.57-2.72s-4.11.93-5.51 2.75-2.06 4.31-2.06 7.4.66 5.54 2.02 7.33c1.39 1.79 3.22 2.69 5.54 2.69Zm41.11 6.46V54.48c0-5.11-2.06-7.7-6.14-7.7-4.48 0-6.74 2.52-6.74 7.57V73.4h-7.57V40.38h7.57v3.09c2.16-2.59 5.08-3.88 8.73-3.88 3.45 0 6.27 1.06 8.43 3.22 2.19 2.16 3.25 5.57 3.25 10.29v20.27h-7.53v.07Zm28.08.77c-4.71 0-8.43-1.53-11.15-4.61s-4.11-7.3-4.11-12.71 1.39-9.56 4.15-12.64c2.75-3.09 6.47-4.61 11.12-4.61 4.21 0 7.67 1.33 10.39 3.95 2.69 2.62 4.05 6.47 4.05 11.58 0 1.76-.1 3.32-.27 4.65h-21.9c.13 2.32.93 4.21 2.42 5.61 1.49 1.43 3.25 2.12 5.34 2.12 2.92 0 5.24-1.13 6.97-3.42l4.78 4.91c-2.92 3.45-6.84 5.18-11.78 5.18Zm-7.7-20.67h14.6c-.17-2.36-.9-4.18-2.19-5.41s-2.85-1.86-4.71-1.86c-2.16 0-3.92.6-5.34 1.79-1.39 1.19-2.19 3.02-2.36 5.48m-398.43 84.51V92.81h7.76v45.23zm36.27 0v-18.95c0-5.11-2.06-7.7-6.14-7.7-4.48 0-6.74 2.52-6.74 7.57v19.05h-7.57v-33.02h7.57v3.09c2.16-2.59 5.08-3.88 8.73-3.88 3.45 0 6.27 1.06 8.43 3.22 2.19 2.16 3.25 5.57 3.25 10.29v20.27h-7.53v.07Zm23.89.76c-5.14 0-7.7-2.82-7.7-8.46v-18.75h-4.91v-6.6h4.91V94.97l7.57-3.62v13.64h7.63v6.6h-7.63v17.26c0 2.12.93 3.15 2.79 3.15 1.69 0 3.42-.5 5.18-1.49l-.9 6.77c-1.92 1.03-4.21 1.53-6.94 1.53Zm26.08 0c-4.71 0-8.43-1.53-11.15-4.61-2.72-3.09-4.11-7.3-4.11-12.71s1.39-9.56 4.15-12.64c2.75-3.09 6.47-4.61 11.12-4.61 4.21 0 7.67 1.33 10.39 3.95 2.69 2.62 4.05 6.47 4.05 11.58 0 1.76-.1 3.32-.27 4.65h-21.9c.13 2.32.93 4.21 2.42 5.61 1.49 1.43 3.25 2.12 5.34 2.12 2.92 0 5.24-1.13 6.97-3.42l4.78 4.91c-2.92 3.45-6.84 5.18-11.78 5.18Zm-7.7-20.67h14.6c-.17-2.36-.9-4.18-2.19-5.41s-2.85-1.86-4.71-1.86c-2.16 0-3.92.6-5.34 1.79-1.39 1.19-2.19 3.02-2.36 5.48m27.32 19.91v-33.02h7.57v3.42c1.33-2.79 3.58-4.21 6.77-4.21 2.32 0 4.38.76 6.14 2.26l-1.1 6.9c-1.63-1.16-3.52-1.76-5.61-1.76-1.73 0-3.19.6-4.38 1.83-1.19 1.19-1.83 3.22-1.83 6.07v18.48l-7.57.03Zm44.66 0v-18.95c0-5.11-2.06-7.7-6.14-7.7-4.48 0-6.74 2.52-6.74 7.57v19.05h-7.57v-33.02h7.57v3.09c2.16-2.59 5.08-3.88 8.73-3.88 3.45 0 6.27 1.06 8.43 3.22 2.19 2.16 3.25 5.57 3.25 10.29v20.27h-7.53v.07Zm33.15 0v-2.65c-2.19 2.29-5.14 3.42-8.79 3.42s-6.4-.96-8.63-2.89c-2.22-1.92-3.32-4.61-3.32-8.1s1.26-6.3 3.78-8.13c2.52-1.86 5.57-2.79 9.16-2.79 3.15 0 5.74.6 7.83 1.76v-1.76c0-2.12-.53-3.65-1.59-4.58-1.06-.96-2.69-1.43-4.88-1.43-3.58 0-6.84 1.03-9.82 3.09l-2.32-6.14c3.58-2.42 7.9-3.62 12.91-3.62 1.73 0 3.25.13 4.55.43 1.33.27 2.65.83 4.08 1.66 1.39.83 2.49 2.12 3.25 3.88s1.16 3.95 1.16 6.6v21.27h-7.37v-.03Zm-7.37-5.87c2.89 0 5.34-1.06 7.37-3.15v-4.28c-1.89-.9-4.08-1.36-6.6-1.36-2.02 0-3.65.37-4.91 1.1s-1.86 1.86-1.86 3.35c0 1.33.53 2.39 1.56 3.15 1.03.8 2.52 1.19 4.45 1.19Zm19.35 5.87v-6.07l17.32-20.24h-16.03v-6.74h25.38v5.81l-17.26 20.47h17.19v6.74h-26.61v.03Zm38.96-38.86c-.86.9-1.92 1.33-3.15 1.33s-2.32-.43-3.19-1.33c-.9-.9-1.33-1.96-1.33-3.19s.43-2.29 1.33-3.15 1.96-1.29 3.19-1.29 2.29.43 3.15 1.29 1.29 1.92 1.29 3.15-.43 2.29-1.29 3.19m-6.97 38.86v-33.02h7.57v33.02zm28.14.76c-4.65 0-8.33-1.53-11.05-4.58s-4.08-7.27-4.08-12.68 1.36-9.62 4.08-12.71 6.4-4.61 11.05-4.61 8.36 1.53 11.08 4.61c2.72 3.09 4.11 7.3 4.11 12.71s-1.36 9.62-4.08 12.68c-2.72 3.05-6.44 4.58-11.12 4.58Zm0-7.23c2.36 0 4.25-.9 5.57-2.65 1.36-1.76 2.02-4.21 2.02-7.37s-.66-5.61-2.02-7.43c-1.36-1.83-3.22-2.72-5.57-2.72s-4.11.93-5.51 2.75c-1.39 1.83-2.06 4.31-2.06 7.4s.66 5.54 2.02 7.33 3.19 2.69 5.54 2.69Zm41.08 6.47v-18.95c0-5.11-2.06-7.7-6.14-7.7-4.48 0-6.74 2.52-6.74 7.57v19.05h-7.57v-33.02h7.57v3.09c2.16-2.59 5.08-3.88 8.73-3.88 3.45 0 6.27 1.06 8.43 3.22 2.19 2.16 3.25 5.57 3.25 10.29v20.27h-7.53v.07Zm33.18 0v-2.65c-2.19 2.29-5.14 3.42-8.79 3.42s-6.4-.96-8.63-2.89c-2.22-1.92-3.32-4.61-3.32-8.1s1.26-6.3 3.78-8.13c2.52-1.86 5.57-2.79 9.16-2.79 3.15 0 5.74.6 7.83 1.76v-1.76c0-2.12-.53-3.65-1.59-4.58-1.06-.96-2.69-1.43-4.88-1.43-3.58 0-6.84 1.03-9.82 3.09l-2.32-6.14c3.58-2.42 7.9-3.62 12.91-3.62 1.73 0 3.25.13 4.55.43 1.33.27 2.65.83 4.08 1.66 1.39.83 2.49 2.12 3.25 3.88s1.16 3.95 1.16 6.6v21.27h-7.37v-.03Zm-7.37-5.87c2.89 0 5.34-1.06 7.37-3.15v-4.28c-1.89-.9-4.08-1.36-6.6-1.36-2.02 0-3.65.37-4.91 1.1s-1.86 1.86-1.86 3.35c0 1.33.53 2.39 1.56 3.15 1.03.8 2.52 1.19 4.45 1.19Zm21.57 5.87v-43.1l7.57-3.55v46.66h-7.57Zm28.47.76c-4.71 0-8.43-1.53-11.15-4.61s-4.11-7.3-4.11-12.71 1.39-9.56 4.15-12.64 6.47-4.61 11.12-4.61c4.21 0 7.67 1.33 10.39 3.95 2.69 2.62 4.05 6.47 4.05 11.58 0 1.76-.1 3.32-.27 4.65h-21.9c.13 2.32.93 4.21 2.42 5.61 1.49 1.43 3.25 2.12 5.34 2.12 2.92 0 5.24-1.13 6.97-3.42l4.78 4.91c-2.92 3.45-6.84 5.18-11.78 5.18Zm-7.7-20.67h14.6c-.17-2.36-.9-4.18-2.19-5.41s-2.85-1.86-4.71-1.86c-2.16 0-3.92.6-5.34 1.79-1.39 1.19-2.19 3.02-2.36 5.48M358.4 203.44c-4.21 0-7.57-1.53-10.02-4.58-2.46-3.05-3.68-7.3-3.68-12.74s1.26-9.49 3.82-12.61c2.56-3.09 5.84-4.65 9.89-4.65 3.19 0 5.67 1.03 7.43 3.09v-12.54l7.57-3.42v46.66h-7.57v-2.39c-1.63 2.12-4.11 3.19-7.43 3.19Zm1.16-7.23c2.79 0 4.88-1.06 6.27-3.15v-13.84c-1.43-2.12-3.52-3.15-6.27-3.15-2.32 0-4.11.86-5.41 2.62q-1.89 2.64-1.89 7.47c0 3.05.63 5.51 1.92 7.33 1.29 1.79 3.09 2.72 5.38 2.72m34.58 7.23c-4.71 0-8.43-1.53-11.15-4.61s-4.11-7.3-4.11-12.71 1.39-9.56 4.15-12.64 6.47-4.61 11.12-4.61c4.21 0 7.67 1.33 10.39 3.95 2.69 2.62 4.05 6.47 4.05 11.58 0 1.76-.1 3.32-.27 4.65h-21.9c.13 2.32.93 4.21 2.42 5.61 1.49 1.43 3.25 2.12 5.34 2.12 2.92 0 5.24-1.13 6.97-3.42l4.78 4.91c-2.89 3.45-6.8 5.18-11.78 5.18Zm-7.67-20.67h14.6c-.17-2.36-.9-4.18-2.19-5.41s-2.85-1.86-4.71-1.86c-2.16 0-3.92.6-5.34 1.79-1.43 1.19-2.19 3.02-2.36 5.48m27.44 19.88v-43.1l7.57-3.55v46.66h-7.57Zm31.49 0v-45.23h7.76v37.8h21.97v7.43zm53.66 0V200c-2.19 2.29-5.14 3.42-8.79 3.42s-6.4-.96-8.63-2.89c-2.22-1.92-3.32-4.61-3.32-8.1s1.26-6.3 3.78-8.13c2.52-1.86 5.57-2.79 9.16-2.79 3.15 0 5.74.6 7.83 1.76v-1.73c0-2.12-.53-3.65-1.59-4.58-1.06-.96-2.69-1.43-4.88-1.43-3.58 0-6.84 1.03-9.82 3.09l-2.32-6.14c3.58-2.42 7.9-3.62 12.91-3.62 1.73 0 3.25.13 4.55.43 1.33.27 2.65.83 4.08 1.66 1.39.83 2.49 2.12 3.25 3.88s1.16 3.95 1.16 6.6v21.27h-7.37v-.07Zm-7.37-5.87c2.89 0 5.34-1.06 7.37-3.15v-4.28c-1.89-.9-4.08-1.36-6.6-1.36-2.02 0-3.65.37-4.91 1.1s-1.86 1.86-1.86 3.35c0 1.33.53 2.39 1.56 3.15 1.03.83 2.52 1.19 4.45 1.19Zm29.17 5.87-12.08-33.02h7.7l7.3 20.61c.53 1.73.83 2.72.9 2.99.27-1.13.56-2.12.9-2.99l7.17-20.61h7.7l-12.08 33.02h-7.5Zm35.84.79c-4.65 0-8.33-1.53-11.05-4.58s-4.08-7.27-4.08-12.68 1.36-9.62 4.08-12.71 6.4-4.61 11.05-4.61 8.36 1.53 11.08 4.61c2.72 3.09 4.11 7.3 4.11 12.71s-1.36 9.62-4.08 12.68c-2.72 3.05-6.44 4.58-11.12 4.58Zm0-7.23c2.36 0 4.25-.9 5.57-2.65 1.36-1.76 2.02-4.21 2.02-7.37s-.66-5.61-2.02-7.43-3.22-2.72-5.57-2.72-4.11.93-5.51 2.75c-1.39 1.83-2.06 4.31-2.06 7.4s.66 5.54 2.02 7.33 3.22 2.69 5.54 2.69Zm20.67 6.44v-33.02h7.57v3.42c1.33-2.79 3.58-4.21 6.77-4.21 2.32 0 4.38.76 6.14 2.26l-1.1 6.9c-1.63-1.16-3.52-1.76-5.61-1.76-1.73 0-3.19.6-4.38 1.83-1.19 1.19-1.83 3.22-1.83 6.07v18.48l-7.57.03Zm37.5.79c-4.65 0-8.33-1.53-11.05-4.58s-4.08-7.27-4.08-12.68 1.36-9.62 4.08-12.71 6.4-4.61 11.05-4.61 8.36 1.53 11.08 4.61c2.72 3.09 4.11 7.3 4.11 12.71s-1.36 9.62-4.08 12.68c-2.69 3.05-6.4 4.58-11.12 4.58Zm0-7.23c2.36 0 4.25-.9 5.57-2.65 1.36-1.76 2.02-4.21 2.02-7.37s-.66-5.61-2.02-7.43-3.22-2.72-5.57-2.72-4.11.93-5.51 2.75c-1.39 1.83-2.06 4.31-2.06 7.4s.66 5.54 2.02 7.33c1.39 1.79 3.22 2.69 5.54 2.69Z" class="cls-1"/><path d="M69.47 66.1c-1.23 2.12-1.69 3.09-1.69 3.09-.93 1.86-3.32 2.79-5.28 2.06l-3.58-1.36c-1.96-.73-4.18.23-4.91 2.19l-2.72 7.13c-.73 1.96.23 4.18 2.19 4.91l3.55 1.36c1.96.73 3.15 3.02 2.65 5.08l-1.56 7.8c-.33 2.09-2.29 3.72-4.38 3.65l-3.82-.13c-2.09-.07-3.88 1.59-3.95 3.68l-.27 7.6c-.07 2.09 1.59 3.88 3.68 3.95l3.85.13c2.09.07 3.98 1.83 4.15 3.92l1.06 7.86c.37 2.06-1 4.25-2.99 4.88l-3.72 1.13c-1.99.63-3.15 2.75-2.52 4.75l3.35 10.95 20.57-6.34c-9.42-23-8.46-49.97 4.91-73.17 13.41-23.19 36.27-37.5 60.92-40.85L134.18 9.4l-11.15 2.59c-2.06.46-3.32 2.52-2.85 4.58l.86 3.78c.46 2.06-.76 4.31-2.72 5.01l-7.27 2.89c-1.89.86-4.38.13-5.48-1.66l-2.02-3.29c-1.1-1.79-3.45-2.32-5.24-1.23l-6.47 4.02c-1.79 1.1-2.32 3.45-1.23 5.24l2.02 3.25c1.1 1.79.66 4.31-.96 5.64L85.7 45.5c-1.53 1.46-4.08 1.56-5.71.23l-2.95-2.42c-1.63-1.33-4.05-1.06-5.38.56l-4.81 5.91c-1.33 1.63-1.06 4.05.56 5.38l2.95 2.42c1.63 1.33 1.99 3.85.86 5.57-.03 0-.56.83-1.79 2.95Zm79.31 137.54c2.46 0 3.52-.07 3.52-.07 2.09-.13 4.08 1.46 4.41 3.55l.6 3.78c.33 2.06 2.29 3.48 4.38 3.15l7.53-1.23c2.06-.33 3.48-2.29 3.15-4.38l-.6-3.78c-.33-2.06 1.03-4.25 3.05-4.81l7.53-2.52c1.96-.76 4.38.13 5.34 1.99l1.79 3.38c1 1.86 3.32 2.56 5.14 1.56l6.7-3.58c1.86-1 2.56-3.32 1.56-5.14l-1.83-3.38c-1-1.86-.4-4.35 1.33-5.57l6.27-4.84c1.59-1.36 4.18-1.29 5.71.13l2.82 2.65c1.53 1.43 3.95 1.33 5.38-.2l7.8-8.36-15.8-14.63c-15.23 19.64-39.06 32.32-65.83 32.32s-50.6-12.68-65.83-32.32l-15.8 14.63 7.8 8.36c1.43 1.53 3.85 1.63 5.38.2l2.82-2.65c1.53-1.43 4.11-1.49 5.71-.13l6.27 4.84c1.73 1.23 2.29 3.72 1.33 5.57l-1.83 3.38c-1 1.86-.3 4.18 1.56 5.14l6.7 3.58c1.86 1 4.18.3 5.14-1.56l1.79-3.38c1-1.86 3.38-2.75 5.34-1.99l7.53 2.52c1.99.6 3.38 2.75 3.05 4.81l-.6 3.78c-.33 2.06 1.1 4.05 3.15 4.38l7.53 1.23c2.06.33 4.05-1.1 4.38-3.15l.6-3.78c.33-2.06 2.32-3.65 4.41-3.55.13 0 1.13.07 3.58.07Zm79.44-137.47c-1.23-2.12-1.83-3.02-1.83-3.02-1.16-1.76-.76-4.28.86-5.57l2.95-2.42c1.63-1.33 1.86-3.75.56-5.38l-4.81-5.91c-1.33-1.63-3.75-1.86-5.38-.56l-2.95 2.42c-1.63 1.33-4.18 1.23-5.71-.23l-5.94-5.24c-1.63-1.33-2.06-3.85-.96-5.64l2.02-3.25c1.1-1.79.56-4.15-1.23-5.24l-6.47-4.02c-1.79-1.1-4.15-.56-5.24 1.23l-1.99 3.25c-1.1 1.79-3.58 2.52-5.48 1.66l-7.33-3.02c-1.96-.73-3.19-2.99-2.72-5.01l.86-3.78c.5-2.06-.8-4.11-2.85-4.58l-11.15-2.59-4.78 20.97c24.62 3.35 47.52 17.65 60.92 40.85 13.41 23.19 14.34 50.17 4.91 73.17l20.54 6.34 3.35-10.95c.63-1.99-.53-4.15-2.52-4.75l-3.72-1.13c-1.99-.63-3.35-2.79-2.99-4.88l1.06-7.86c.2-2.09 2.06-3.85 4.15-3.92l3.85-.13a3.82 3.82 0 0 0 3.68-3.95l-.27-7.6a3.82 3.82 0 0 0-3.95-3.68l-3.82.13c-2.09.07-4.08-1.56-4.38-3.65l-1.56-7.8c-.5-2.02.7-4.31 2.65-5.08l3.55-1.36c1.96-.73 2.95-2.95 2.19-4.91l-2.69-7.13c-.73-1.96-2.95-2.95-4.91-2.19l-3.58 1.36c-1.96.73-4.31-.17-5.28-2.06.03.13-.4-.76-1.66-2.89Zm-198.5-1.83c-.07.13-.07.17-.07.17s0-.03.07-.17M62.51 21.2l.3.37c.9-.63 3.98-2.85 7.73-3.88C91.28 11.85 90.25 4.68 99.01.43L98.74 0c-.86.56-3.55 2.12-7.3 2.16-24.36.27-22.5 14.47-28.94 19.05Z" class="cls-1"/><path d="m38.32 48.18.46.3c4.94-5.48 9.69-6.5 10.49-6.74 19.31-5.71 26.05-18.48 31.26-22.1l-.2-.3c-7.13 5.08-15.63-.07-30.06 15.36-.1.1-.5-.46-.5-.46C61.48 20.1 61.78 10.48 67.22 5.2l-.3-.27c-34.21 20.41-19.18 31.56-28.6 43.24Z" class="cls-1"/><path d="M39.74 24.56C7.52 56.48 27.6 64.64 22.52 80.54l.33.13c2.89-6.74 10.39-9.69 10.55-9.76 13.64-6.3 17.95-22.2 23.39-27.01l-.27-.27c-6.67 7.23-17.69 3.19-26.58 21.07-.03.03-.63-.3-.6-.33 7.23-15.6 3.85-29.73 10.72-39.42-.13-.2-.23-.33-.33-.4Z" class="cls-1"/><path d="m16.35 122.91.46.03c-.13-1.83-.6-9.42 7-16.46 15.3-14.17 12.71-26.75 18.98-36.47l-.46-.27c-4.88 8.3-22.7 17.39-23.43 30.16 0 .03-.7-.07-.66-.1 2.59-18.28-7.07-30.5-1.79-42.08-.23-.17-.4-.27-.53-.33-20.41 42.04-3.45 41.45.43 65.5Z" class="cls-1"/><path d="m24.21 162.83.5-.17c-4.21-9.49 2.85-22.46 3.15-23.1 9.29-18.02 6.17-34.31 8.3-40.02l-.43-.13c-4.94 12.38-18.75 19.08-16.59 39.89 0 .03-.66.03-.66 0-2.19-12.91-16.79-25.29-16.33-39.35-.07 0-.17-.03-.23-.03-9.09 50.04 16.86 49.71 22.3 62.91Z" class="cls-1"/><path d="m45.02 199.86.33-.27c-8.66-10.52-6.04-22-5.91-22.83 4.31-24.95-3.75-29.43-3.95-40.72h-.43c-.37 12.64-13.31 26.84-1.56 44.5l-.53.33C20.03 161.99 9.78 166.6 3.74 147.82c-.2 0-.43.1-.53.17 9.09 54.98 33.55 38.33 41.81 51.86Z" class="cls-1"/><path d="m95.49 223.82-.1-.5c-17.02 3.42-25.75.13-28.84-15.53-4.35-22-19.31-30.46-21.04-39.26h-.03c-.27 0-.37.03-.43.07 3.22 15.53-4.35 24.75 14.37 43.37l-.5.43c-18.02-14.27-30.4-9.03-37.56-18.95-.13.13-.27.23-.3.33 22.33 37.07 46.29 39.09 74.43 30.03Z" class="cls-1"/><path d="m53.41 230.22.13-.2c22.93 13.37 46.85-5.28 75.89-5.94 7.3-.17 29.04 1.16 49.04 24.39l-5.31 1.53c-6.6-11.48-16.79-19.74-26.02-22.07-26.41-6.6-26.91 18.02-56.25 18.38-21.77.27-36.67-15.23-37.5-16.09Zm214.2-165.88c.03.1.1.17.1.17s-.03-.03-.1-.17" class="cls-1"/><path d="M267.61 64.34c.03.1.1.17.1.17s-.03-.03-.1-.17m-237.89 0c-.03.1-.1.17-.1.17s.03-.03.1-.17" class="cls-1"/><path d="M267.61 64.34c.03.1.1.17.1.17s-.03-.03-.1-.17M234.86 21.2l-.3.37c-.9-.63-3.98-2.85-7.73-3.88-20.74-5.84-19.68-13.01-28.47-17.26l.27-.43c.86.56 3.55 2.12 7.3 2.16 24.32.27 22.5 14.47 28.94 19.05Z" class="cls-1"/><path d="m259.02 48.18-.43.3c-4.94-5.48-9.69-6.5-10.49-6.74-19.31-5.71-26.05-18.48-31.26-22.1l.2-.3c7.13 5.08 15.6-.07 30.06 15.36.1.1.5-.46.5-.46-11.71-14.14-12.01-23.76-17.45-29.04l.3-.27c34.18 20.41 19.18 31.56 28.57 43.24Z" class="cls-1"/><path d="M257.62 24.56c32.22 31.92 12.14 40.08 17.22 55.98l-.33.13c-2.89-6.74-10.39-9.69-10.55-9.76-13.64-6.3-17.92-22.2-23.39-27.01l.27-.27c6.67 7.23 17.69 3.19 26.58 21.07.03.07.6-.3.6-.3-7.23-15.6-3.85-29.73-10.72-39.42.1-.23.23-.37.33-.43Z" class="cls-1"/><path d="m281.02 122.91-.46.03c.13-1.83.6-9.42-7-16.46-15.3-14.17-12.71-26.75-18.98-36.47l.46-.27c4.88 8.3 22.7 17.39 23.43 30.16 0 .03.7-.07.66-.1-2.59-18.28 7.07-30.5 1.79-42.08.17-.13.37-.2.46-.27 20.47 41.98 3.52 41.38-.36 65.44Z" class="cls-1"/><path d="m273.15 162.83-.5-.17c4.21-9.49-2.85-22.46-3.15-23.1-9.29-18.02-6.17-34.31-8.3-40.02l.4-.13c4.94 12.38 18.75 19.08 16.59 39.89 0 .03.66.03.66 0 2.19-12.91 16.79-25.29 16.33-39.35.07 0 .17-.03.23-.03 9.13 50.04-16.82 49.71-22.27 62.91Z" class="cls-1"/><path d="m252.35 199.86-.33-.27c8.66-10.52 6.04-22 5.91-22.83-4.31-24.95 3.75-29.43 3.95-40.72h.43c.37 12.64 13.31 26.84 1.56 44.5l.56.37c12.94-18.88 23.19-14.27 29.23-33.05.2 0 .43.1.53.17-9.13 54.95-33.58 38.29-41.84 51.83" class="cls-1"/><path d="m201.84 223.82.1-.5c17.02 3.42 25.75.13 28.84-15.53 4.35-22 19.31-30.46 21.04-39.26h.03c.27 0 .4.03.43.07-3.22 15.53 4.35 24.75-14.37 43.37l.5.43c18.02-14.3 30.4-9.03 37.56-18.98.13.13.27.23.3.33-22.33 37.1-46.26 39.12-74.43 30.06Z" class="cls-1"/><path d="m243.95 230.22-.13-.2c-22.93 13.37-46.85-5.28-75.89-5.94-7.27-.17-29.04 1.16-49.04 24.39l5.31 1.53c6.6-11.48 16.79-19.74 26.02-22.07 26.38-6.6 26.91 18.02 56.25 18.38 21.77.27 36.63-15.23 37.5-16.09ZM29.72 64.34c-.03.1-.1.17-.1.17s.03-.03.1-.17" class="cls-1"/><path d="M29.72 64.34c-.03.1-.1.17-.1.17s.03-.03.1-.17m237.89 0c.03.1.1.17.1.17s-.03-.03-.1-.17m-83.26.73h-.4c-10.72 0-21 6.9-26.15 18.38-2.59 5.84-3.19 13.44-3.22 20.77 0 7.3.6 14.9 3.22 20.74 5.11 11.48 15.43 19.35 26.15 19.35h.4c10.72 0 21-7.86 26.11-19.35 2.59-5.84 3.19-13.44 3.22-20.74 0-7.3-.6-14.93-3.22-20.77-5.11-11.48-15.43-18.38-26.11-18.38m16.46 39.59c-.03 6.87-.2 12.81-.2 12.81-.43 5.61-.53 11.25-3.12 15.1-2.95 4.35-7.67 6.64-12.41 6.64l-.2.07h-.6l-.17-.07c-4.75 0-9.46-2.29-12.41-6.64-2.59-3.85-2.69-9.49-3.12-15.1 0 0-.17-5.84-.17-12.68v-.3c0-6.87.17-12.81.17-12.81.43-5.61.53-11.25 3.12-15.1 2.95-4.35 7.67-6.64 12.41-6.64l.17-.07h.6l.17.07c4.75 0 9.46 2.26 12.41 6.64 2.62 3.85 2.69 9.49 3.12 15.1 0 0 .17 5.84.2 12.68z" class="cls-1"/><path d="M192.38 147.56s-2.09 5.44-6.01 8.79c-2.16 1.83-5.31 2.32-7.83 2.62l-26.35 1.29h-5.81s-4.41-.23-4.65-4.35v-92.3c.23-4.11 4.65-4.35 4.65-4.35h5.81v-5.38h-35.27v5.38h5.84s4.41.23 4.65 4.35v92.35c-.23 4.11-4.65 4.35-4.65 4.35h-5.84v5.38h35.24l38.16.13L195 148.8v-.63l-2.62-.6Z" class="cls-1"/><path d="M109.56 75.23c.2-3.42 3.88-3.62 3.88-3.62h4.84v-4.48h-29.4v4.48h4.84s3.68.2 3.88 3.62v59.03c-.2 3.42-3.88 3.62-3.88 3.62h-4.84v4.48h29.4v-4.48h-4.84s-3.68-.2-3.88-3.62z" class="cls-1"/></svg>