<svg xmlns="http://www.w3.org/2000/svg" id="Calque_1" viewBox="0 0 614.67 250"><defs><style>.cls-1{fill:#1e2dbe;stroke-width:0}</style></defs><path id="Lockup" d="M364.07 73.93h-8.26V34.77h-13.24V27.8h34.78v6.97h-13.24v39.16h-.03Zm47.16-17.59c0 5.81-1.49 10.32-4.51 13.47s-7.1 4.75-12.28 4.75c-3.19 0-6.04-.73-8.53-2.12-2.49-1.43-4.45-3.48-5.87-6.21-1.43-2.72-2.12-6.01-2.12-9.89 0-5.81 1.49-10.29 4.48-13.41s7.07-4.68 12.24-4.68c3.22 0 6.11.7 8.59 2.09s4.45 3.45 5.87 6.14c1.39 2.69 2.12 5.97 2.12 9.86Zm-12.68-31.03c1 1.46 2.12 2.95 3.35 4.45 1.26 1.49 2.42 2.89 3.48 4.15v.83H401c-1.06-.7-2.19-1.49-3.29-2.39-1.13-.9-2.26-1.86-3.35-2.85-1.13 1-2.26 1.92-3.35 2.85-1.13.9-2.22 1.69-3.29 2.39h-4.38v-.83c1.06-1.26 2.26-2.62 3.48-4.15 1.26-1.49 2.36-2.99 3.35-4.45h8.36Zm-12.34 31.03c0 3.72.66 6.57 1.96 8.59 1.33 2.02 3.45 3.02 6.37 3.02s4.98-1 6.34-3.02c1.33-2.02 1.99-4.88 1.99-8.59s-.66-6.54-1.99-8.53-3.45-2.99-6.4-2.99-5.04 1-6.34 2.99c-1.26 1.99-1.92 4.81-1.92 8.53Zm18.75-38.69c1.99 0 3.55.4 4.68 1.13 1.16.76 1.73 1.92 1.73 3.52 0 1.26-.37 2.22-1.06 2.92-.73.7-1.66 1.16-2.89 1.43l-.2 2.12h-3.48l-.33-3.82c1.39-.13 2.36-.37 2.95-.73.56-.37.86-.83.86-1.39 0-1.16-.9-1.76-2.72-1.76-.46 0-.93.03-1.33.07-.4.03-.73.1-.93.2v-3.48c.43-.13 1.33-.2 2.72-.2Zm43.03 56.91c-4.98 0-8.96-1.43-11.85-4.31-2.92-2.89-4.38-7.43-4.38-13.64 0-4.31.73-7.8 2.16-10.49s3.45-4.68 5.97-5.94c2.56-1.26 5.44-1.92 8.73-1.92 2.16 0 4.11.2 5.84.63s3.22.96 4.41 1.56l-2.39 6.4c-1.39-.53-2.72-.96-4.08-1.33-1.33-.37-2.59-.56-3.82-.56-5.67 0-8.53 3.85-8.53 11.55 0 3.75.73 6.57 2.16 8.46s3.52 2.85 6.24 2.85c1.92 0 3.68-.23 5.21-.73 1.53-.46 2.95-1.13 4.31-1.92v7.07c-1.33.83-2.79 1.39-4.31 1.76-1.53.4-3.45.56-5.67.56m23.66-49.74v11.71c0 1.39-.07 2.72-.17 4.05s-.2 2.29-.3 2.95h.53c1.13-1.76 2.59-3.09 4.38-3.95s3.82-1.29 6.01-1.29c3.98 0 7.07 1.03 9.29 3.05 2.26 2.06 3.35 5.31 3.35 9.79v22.83h-8.13v-21.2c0-2.62-.53-4.61-1.56-5.91-1.03-1.33-2.69-1.96-4.91-1.96-3.29 0-5.51 1.03-6.7 3.12-1.19 2.06-1.83 5.01-1.83 8.86v17.12h-8.13V24.82h8.16Zm74.73 8.73.46.73c-.43 2.26-1.1 4.31-1.96 6.21s-2.22 3.48-3.98 4.78-4.25 2.12-7.43 2.52v26.18h-6.4l-1.1-4.51h-.46c-1.13 1.83-2.65 3.12-4.61 3.95-1.96.8-4.02 1.23-6.17 1.23-3.98 0-7.07-1-9.26-3.02-2.22-2.02-3.32-5.28-3.32-9.76V39h8.13v21.27c0 2.62.53 4.58 1.56 5.87s2.69 1.92 4.91 1.92c3.29 0 5.51-1.03 6.77-3.12 1.23-2.06 1.83-5.01 1.83-8.86V38.96h8.13v3.75c1.76-.43 2.99-1.46 3.68-3.12.7-1.63 1.03-3.65 1.03-6.01h8.2v-.03Zm-17.32-9.13v.63c-.73.76-1.76 1.79-3.02 3.02-1.29 1.26-2.65 2.49-4.08 3.68s-2.65 2.19-3.68 2.99h-5.41v-.83c.7-.8 1.46-1.76 2.32-2.89.86-1.1 1.69-2.26 2.52-3.42.8-1.19 1.49-2.26 2.06-3.19h9.29Zm31.82 50.14c-4.98 0-8.96-1.43-11.85-4.31-2.92-2.89-4.38-7.43-4.38-13.64 0-4.31.73-7.8 2.16-10.49s3.45-4.68 5.97-5.94c2.56-1.26 5.44-1.92 8.73-1.92 2.16 0 4.11.2 5.84.63 1.76.43 3.22.96 4.41 1.56l-2.39 6.4c-1.39-.53-2.72-.96-4.08-1.33-1.33-.37-2.59-.56-3.82-.56-5.67 0-8.53 3.85-8.53 11.55 0 3.75.73 6.57 2.16 8.46s3.52 2.85 6.24 2.85c1.92 0 3.68-.23 5.21-.73 1.53-.46 2.95-1.13 4.31-1.92v7.07c-1.33.83-2.79 1.39-4.31 1.76-1.56.4-3.45.56-5.67.56m-213.33 63.98V92.42h8.26v39.16h19.25v6.97h-27.51Zm47.32-35.67c4.51 0 7.96 1 10.32 2.99s3.52 5.04 3.52 9.16v23.53h-5.74l-1.63-4.84h-.27c-1.49 1.89-3.12 3.29-4.78 4.18-1.66.9-3.98 1.33-6.87 1.33-3.15 0-5.74-.9-7.83-2.65-2.06-1.76-3.12-4.51-3.12-8.2s1.33-6.34 3.98-8.13 6.67-2.82 12.05-3.02l6.07-.2v-1.76c0-2.26-.53-3.85-1.63-4.78-1.06-.96-2.59-1.43-4.51-1.43-1.76 0-3.45.23-5.08.73s-3.22 1.1-4.81 1.83l-2.59-5.67c1.73-.9 3.68-1.63 5.91-2.19 2.29-.56 4.61-.86 7-.86Zm5.77 19.15-4.28.13c-3.58.13-6.04.73-7.43 1.83s-2.06 2.59-2.06 4.41c0 1.69.5 2.89 1.46 3.58.96.73 2.26 1.06 3.85 1.06 2.36 0 4.38-.66 6.01-2.02s2.46-3.38 2.46-6.04v-2.95Zm46.82-1.04c0 5.81-1.49 10.32-4.51 13.47s-7.1 4.75-12.28 4.75c-3.19 0-6.04-.73-8.53-2.12-2.49-1.43-4.45-3.48-5.87-6.21s-2.12-6.01-2.12-9.89c0-5.81 1.49-10.29 4.48-13.41q4.485-4.68 12.24-4.68c3.22 0 6.11.7 8.59 2.09s4.45 3.45 5.87 6.14c1.43 2.69 2.12 5.97 2.12 9.86Zm-24.99 0c0 3.72.66 6.57 1.96 8.59 1.33 2.02 3.45 3.02 6.37 3.02s4.98-1 6.34-3.02c1.33-2.02 1.99-4.88 1.99-8.59s-.66-6.54-1.99-8.53-3.45-2.99-6.4-2.99-5.04 1-6.34 2.99c-1.29 1.96-1.92 4.81-1.92 8.53Zm59.2 18.22c-4.05 0-7.33-1.46-9.86-4.38s-3.78-7.3-3.78-13.04 1.26-10.25 3.82-13.17 5.87-4.38 10.02-4.38c2.59 0 4.71.5 6.37 1.49 1.66 1 2.99 2.19 3.98 3.62h.4c-.03-.13-.1-.56-.2-1.29s-.17-1.59-.27-2.52a25 25 0 0 1-.13-2.65v-2.52h-11.45v-5.54h11.45v-5.38h8.13v5.38h4.91v5.51h-4.91v38.26h-6.4l-1.49-4.58h-.33c-1 1.46-2.29 2.69-3.92 3.72-1.59.96-3.72 1.49-6.34 1.49Zm2.46-6.6c3.02 0 5.14-.8 6.37-2.46 1.23-1.63 1.86-4.08 1.92-7.37v-.96c0-3.58-.6-6.3-1.79-8.2s-3.38-2.85-6.6-2.85c-2.49 0-4.38.96-5.67 2.92-1.29 1.92-1.92 4.68-1.92 8.2s.66 6.14 1.96 7.96c1.26 1.83 3.19 2.75 5.74 2.75Zm55.51-11.62c0 5.81-1.49 10.32-4.51 13.47s-7.1 4.75-12.28 4.75c-3.19 0-6.04-.73-8.53-2.12-2.49-1.43-4.45-3.48-5.87-6.21-1.43-2.72-2.12-6.01-2.12-9.89 0-5.81 1.49-10.29 4.48-13.41q4.485-4.68 12.24-4.68c3.22 0 6.11.7 8.59 2.09s4.45 3.45 5.87 6.14c1.43 2.69 2.12 5.97 2.12 9.86Zm-11.95-31.92c.56.96 1.33 2.02 2.29 3.19.96 1.19 1.99 2.36 3.02 3.48 1.06 1.16 1.96 2.09 2.75 2.89v.76h-5.51c-1.13-.7-2.36-1.53-3.65-2.49-1.33-.96-2.52-2.02-3.65-3.19a33 33 0 0 1-3.55 3.19c-1.26.96-2.42 1.79-3.55 2.49h-5.41v-.76c.76-.83 1.69-1.79 2.72-2.92s2.02-2.26 2.99-3.45 1.73-2.26 2.32-3.19h9.22Zm-13.04 31.92c0 3.72.66 6.57 1.96 8.59s3.45 3.02 6.37 3.02 4.98-1 6.34-3.02c1.33-2.02 1.99-4.88 1.99-8.59s-.66-6.54-1.99-8.53-3.45-2.99-6.4-2.99-5.04 1-6.34 2.99c-1.29 1.96-1.92 4.81-1.92 8.53Zm8.2 30.3c-1.19 0-2.26-.33-3.15-.96s-1.36-1.76-1.36-3.29.46-2.72 1.36-3.35 1.96-.96 3.15-.96 2.26.33 3.15.96 1.36 1.76 1.36 3.35-.46 2.65-1.36 3.29-1.96.96-3.15.96m41.58-48.41c3.92 0 7 1 9.19 3.02 2.22 2.02 3.32 5.31 3.32 9.82v22.83h-8.13v-21.2c0-2.62-.53-4.61-1.56-5.91-1.03-1.33-2.69-1.96-4.91-1.96-3.29 0-5.51 1.03-6.7 3.12-1.19 2.06-1.83 5.01-1.83 8.86v17.12h-8.13v-35.04h6.27l1.16 4.58h.46c1.13-1.83 2.65-3.12 4.61-3.98 1.96-.83 4.05-1.26 6.24-1.26Zm31.96 0c4.51 0 8 1.73 10.42 5.18h.33l.76-4.51h6.77v35.27c0 4.98-1.39 8.79-4.21 11.38-2.79 2.59-7.03 3.88-12.68 3.88-2.49 0-4.81-.17-6.9-.5-2.12-.33-4.11-.86-6.01-1.66v-6.7c1.99.86 4.11 1.53 6.37 1.99s4.61.73 7.07.73c2.62 0 4.65-.73 6.07-2.22 1.43-1.49 2.12-3.65 2.12-6.5v-.9c0-.63.03-1.39.07-2.26.03-.86.1-1.56.2-2.06h-.27c-1.19 1.83-2.69 3.12-4.41 3.98-1.76.83-3.72 1.26-5.91 1.26-4.28 0-7.6-1.59-10.02-4.78s-3.62-7.63-3.62-13.31 1.23-10.15 3.65-13.37c2.46-3.29 5.84-4.91 10.19-4.91Zm2.12 6.67c-5.08 0-7.63 3.88-7.63 11.71s2.59 11.51 7.76 11.51c2.85 0 4.94-.8 6.3-2.36 1.36-1.59 2.02-4.21 2.02-7.96v-1.23c0-4.15-.66-7.1-2.02-8.93-1.36-1.86-3.48-2.75-6.44-2.75Zm-209.75 70.48c0 5.34-1 9.92-3.02 13.8-1.99 3.85-5.04 6.6-9.16 8.23l11.12 12.08h-10.98l-8.59-10.35h-1.1c-4.94 0-9.03-1-12.21-2.99-3.19-1.99-5.57-4.75-7.13-8.33-1.59-3.58-2.36-7.76-2.36-12.54s.8-8.89 2.36-12.44c1.59-3.55 3.98-6.3 7.17-8.26 3.22-1.96 7.3-2.95 12.24-2.95s8.93 1 12.11 2.95c3.22 1.96 5.61 4.71 7.17 8.26 1.63 3.62 2.39 7.8 2.39 12.54Zm-34.68 0c0 5.21 1.06 9.29 3.12 12.28 2.09 2.99 5.38 4.45 9.86 4.45s7.93-1.49 9.95-4.45c2.02-2.99 3.02-7.07 3.02-12.28s-1-9.29-3.02-12.28-5.34-4.45-9.89-4.45-7.83 1.49-9.92 4.45c-2.09 2.99-3.12 7.1-3.12 12.28m72.41-11.88v35.01h-6.4l-1.1-4.51h-.4c-1.13 1.83-2.69 3.12-4.65 3.95-1.99.8-4.08 1.23-6.27 1.23-3.92 0-7-1-9.19-3.02-2.22-2.02-3.32-5.28-3.32-9.76v-22.9h8.13v21.27c0 2.62.53 4.58 1.56 5.87s2.69 1.92 4.91 1.92c3.29 0 5.51-1.03 6.77-3.12 1.23-2.06 1.83-5.01 1.83-8.86v-17.09h8.13Zm39.35 17.45c0 5.81-1.49 10.32-4.51 13.47s-7.1 4.75-12.28 4.75c-3.19 0-6.04-.73-8.53-2.12-2.49-1.43-4.45-3.48-5.87-6.21s-2.12-6.01-2.12-9.89c0-5.81 1.49-10.29 4.48-13.41q4.485-4.68 12.24-4.68c3.22 0 6.11.7 8.59 2.09 2.49 1.39 4.45 3.45 5.87 6.14s2.12 5.97 2.12 9.86Zm-5.81-21.6h-4.38c-1.06-.7-2.19-1.49-3.29-2.39-1.13-.9-2.26-1.86-3.35-2.85-1.13 1-2.26 1.92-3.35 2.85-1.13.9-2.22 1.69-3.29 2.39h-4.38v-.83c1.06-1.26 2.26-2.62 3.48-4.15 1.26-1.49 2.36-2.99 3.35-4.45h8.4c1 1.46 2.12 2.95 3.35 4.45 1.26 1.49 2.42 2.89 3.48 4.15l-.03.83Zm-19.21 21.6c0 3.72.66 6.57 1.96 8.59s3.45 3.02 6.37 3.02 4.98-1 6.34-3.02c1.33-2.02 1.99-4.88 1.99-8.59s-.66-6.54-1.99-8.53-3.45-2.99-6.4-2.99-5.04 1-6.34 2.99c-1.26 1.99-1.92 4.81-1.92 8.53Zm16.49-28.57c.8-.96 1.56-1.89 2.19-2.85s1.33-2.12 1.99-3.48h6.9v.63c-.96 1.26-2.02 2.42-3.25 3.52s-2.46 2.09-3.65 3.02h-4.21l.03-.83Zm28.94 46.79c-4.98 0-8.96-1.43-11.85-4.31-2.92-2.89-4.38-7.43-4.38-13.64 0-4.31.73-7.8 2.16-10.49s3.45-4.68 5.97-5.94c2.56-1.26 5.44-1.92 8.73-1.92 2.16 0 4.11.2 5.84.63 1.76.43 3.22.96 4.41 1.56l-2.39 6.4c-1.39-.53-2.72-.96-4.08-1.33-1.33-.37-2.59-.56-3.82-.56-5.67 0-8.53 3.85-8.53 11.55 0 3.75.73 6.57 2.16 8.46s3.52 2.85 6.24 2.85c1.92 0 3.68-.23 5.21-.73 1.53-.46 2.95-1.13 4.31-1.92v7.03c-1.33.83-2.79 1.39-4.31 1.76-1.56.43-3.45.6-5.67.6m45.99-6.54c1 0 1.96-.1 2.95-.3.96-.2 1.86-.43 2.69-.66v6.07c-.86.43-1.99.76-3.35 1.03-1.39.27-2.82.4-4.31.4-2.02 0-3.85-.33-5.48-.96s-2.89-1.79-3.85-3.42-1.43-3.95-1.43-6.9v-18.22h-4.71v-3.55l5.18-2.85 2.59-7.43h5.11v7.7h9.95v6.14h-9.95v18.15c0 1.63.43 2.85 1.33 3.65.86.8 1.96 1.16 3.29 1.16Zm24.33-29.76c4.68 0 8.4 1.39 11.15 4.21 2.72 2.79 4.11 6.7 4.11 11.68v4.15H548.7c.1 3.19.96 5.64 2.65 7.4s4.02 2.62 6.97 2.62c2.26 0 4.28-.23 6.07-.66 1.83-.46 3.65-1.1 5.57-1.96v6.54c-1.73.83-3.52 1.43-5.38 1.83s-4.08.56-6.67.56c-3.45 0-6.47-.66-9.13-1.96-2.62-1.33-4.68-3.29-6.17-5.94s-2.22-5.97-2.22-9.99c0-6.01 1.49-10.55 4.41-13.7 2.95-3.22 6.87-4.78 11.75-4.78Zm10.98-3.52h-4.38c-1.06-.7-2.19-1.49-3.29-2.39-1.13-.9-2.26-1.86-3.35-2.85-1.13 1-2.26 1.92-3.35 2.85-1.13.9-2.22 1.69-3.29 2.39h-4.38v-.83c1.06-1.26 2.26-2.62 3.48-4.15 1.26-1.49 2.36-2.99 3.35-4.45h8.4c1 1.46 2.12 2.95 3.35 4.45 1.26 1.49 2.42 2.89 3.48 4.15l-.03.83Zm-10.98 9.52c-2.19 0-3.98.7-5.34 2.09s-2.16 3.48-2.36 6.24h15.07c-.03-2.42-.66-4.41-1.83-5.97-1.19-1.56-3.05-2.36-5.54-2.36m8.26-16.49c.83-.96 1.56-1.89 2.19-2.85s1.33-2.12 1.99-3.48h6.9v.63c-.96 1.26-2.02 2.42-3.25 3.52s-2.46 2.09-3.65 3.02h-4.21l.03-.83Z" class="cls-1"/><g id="Type_Cuts"><path d="M69.47 66.1c-1.23 2.12-1.69 3.09-1.69 3.09-.93 1.86-3.32 2.79-5.28 2.06l-3.58-1.36c-1.96-.73-4.18.23-4.91 2.19l-2.72 7.13c-.73 1.96.23 4.18 2.19 4.91l3.55 1.36c1.96.73 3.15 3.02 2.65 5.08l-1.56 7.8c-.33 2.09-2.29 3.72-4.38 3.65l-3.82-.13c-2.09-.07-3.88 1.59-3.95 3.68l-.27 7.6c-.07 2.09 1.59 3.88 3.68 3.95l3.85.13c2.09.07 3.98 1.83 4.15 3.92l1.06 7.86c.37 2.06-1 4.25-2.99 4.88l-3.65 1.06c-1.99.63-3.15 2.75-2.52 4.75l3.35 10.95 20.57-6.34c-9.42-23-8.46-49.97 4.91-73.17 13.41-23.19 36.27-37.5 60.92-40.85l-4.78-20.97-11.15 2.59c-2.06.46-3.32 2.52-2.85 4.58l.86 3.78c.46 2.06-.76 4.31-2.72 5.01l-7.33 3.02c-1.89.86-4.38.13-5.48-1.66l-2.02-3.29c-1.1-1.79-3.45-2.32-5.24-1.23l-6.47 4.02c-1.79 1.1-2.32 3.45-1.23 5.24l2.02 3.25c1.1 1.79.66 4.31-.96 5.64l-5.94 5.24c-1.53 1.46-4.08 1.56-5.71.23l-2.95-2.42c-1.63-1.33-4.05-1.06-5.38.56l-4.81 5.91c-1.33 1.63-1.06 4.05.56 5.38l2.95 2.42c1.63 1.33 1.99 3.85.86 5.57-.03-.03-.6.8-1.83 2.92Zm79.35 137.54c2.46 0 3.52-.07 3.52-.07 2.09-.13 4.08 1.46 4.41 3.55l.6 3.78c.33 2.06 2.29 3.48 4.38 3.15l7.53-1.23c2.06-.33 3.48-2.29 3.15-4.38l-.6-3.78c-.33-2.06 1.03-4.25 3.05-4.81l7.53-2.52c1.96-.76 4.38.13 5.34 1.99l1.79 3.38c1 1.86 3.32 2.56 5.14 1.56l6.7-3.58c1.86-1 2.56-3.32 1.56-5.14l-1.83-3.38c-1-1.86-.4-4.35 1.33-5.57l6.27-4.84c1.59-1.36 4.18-1.29 5.71.13l2.82 2.65c1.53 1.43 3.95 1.33 5.38-.2l7.8-8.36-15.8-14.63c-15.23 19.64-39.06 32.32-65.83 32.32s-50.6-12.68-65.83-32.32l-15.8 14.63 7.8 8.36c1.43 1.53 3.85 1.63 5.38.2l2.82-2.65c1.53-1.43 4.11-1.49 5.71-.13l6.27 4.84c1.73 1.23 2.29 3.72 1.33 5.57l-1.83 3.38c-1 1.86-.3 4.18 1.56 5.14l6.7 3.58c1.86 1 4.18.3 5.14-1.56l1.79-3.38c1-1.86 3.38-2.75 5.34-1.99l7.53 2.52c1.99.6 3.38 2.75 3.05 4.81l-.6 3.78c-.33 2.06 1.1 4.05 3.15 4.38l7.53 1.23c2.06.33 4.05-1.1 4.38-3.15l.6-3.78c.33-2.06 2.32-3.65 4.41-3.55.1 0 1.13.07 3.58.07Zm79.44-137.47c-1.23-2.12-1.83-3.02-1.83-3.02-1.16-1.76-.76-4.28.86-5.57l2.95-2.42c1.63-1.33 1.86-3.75.56-5.38l-4.81-5.91c-1.33-1.63-3.75-1.86-5.38-.56l-2.95 2.42c-1.63 1.33-4.18 1.23-5.71-.23l-5.94-5.24c-1.63-1.33-2.06-3.85-.96-5.64l2.02-3.25c1.1-1.79.56-4.15-1.23-5.24l-6.47-4.02c-1.79-1.1-4.15-.56-5.24 1.23l-2.02 3.29c-1.1 1.76-3.58 2.49-5.48 1.63l-7.33-3.02c-1.96-.73-3.19-2.99-2.72-5.01l.86-3.78c.46-2.06-.8-4.11-2.85-4.58l-11.15-2.59-4.78 20.97c24.62 3.35 47.52 17.65 60.92 40.85 13.41 23.19 14.34 50.17 4.91 73.17l20.54 6.34 3.35-10.95c.63-1.99-.53-4.15-2.52-4.75l-3.72-1.13c-1.99-.63-3.35-2.79-2.99-4.88l1.06-7.86c.2-2.09 2.06-3.85 4.15-3.92l3.85-.13a3.82 3.82 0 0 0 3.68-3.95l-.27-7.6a3.82 3.82 0 0 0-3.95-3.68l-3.82.13c-2.09.07-4.08-1.56-4.38-3.65l-1.56-7.8c-.5-2.02.7-4.31 2.65-5.08l3.55-1.36c1.96-.73 2.95-2.95 2.19-4.91l-2.69-7.13c-.73-1.96-2.95-2.95-4.91-2.19l-3.58 1.36c-1.96.73-4.31-.17-5.28-2.06.03.13-.4-.76-1.63-2.89Zm-198.51-1.8c-.07.1-.1.17-.1.17s.03-.07.1-.17M62.51 21.2l.3.37c.9-.63 3.98-2.85 7.73-3.88C91.28 11.85 90.25 4.68 99.01.43L98.74 0c-.86.56-3.55 2.12-7.3 2.16-24.36.3-22.5 14.47-28.94 19.05Z" class="cls-1"/><path d="m38.35 48.18.46.3c4.94-5.48 9.69-6.5 10.49-6.74 19.31-5.71 26.05-18.48 31.26-22.1l-.2-.3c-7.13 5.08-15.63-.07-30.06 15.36-.1.1-.5-.46-.5-.46C61.51 20.1 61.81 10.48 67.25 5.2l-.3-.27c-34.21 20.41-19.21 31.56-28.6 43.24Z" class="cls-1"/><path d="M39.74 24.56C7.52 56.48 27.6 64.64 22.55 80.51l.33.13c2.89-6.74 10.39-9.69 10.55-9.76 13.64-6.3 17.95-22.2 23.39-27.01l-.27-.27c-6.67 7.23-17.69 3.19-26.58 21.07-.07.07-.63-.27-.63-.3 7.23-15.6 3.85-29.73 10.72-39.42-.1-.17-.23-.3-.33-.4Z" class="cls-1"/><path d="m16.35 122.91.46.03c-.13-1.83-.6-9.42 7-16.46 15.3-14.17 12.71-26.75 18.98-36.47l-.46-.27c-4.88 8.3-22.7 17.39-23.43 30.16 0 .03-.7-.07-.66-.1 2.59-18.28-7.07-30.5-1.79-42.08-.17-.13-.37-.2-.46-.27-20.47 41.98-3.52 41.38.37 65.44Z" class="cls-1"/><path d="m24.21 162.83.5-.17c-4.21-9.49 2.85-22.46 3.15-23.1 9.29-18.02 6.17-34.31 8.3-40.02l-.43-.13c-4.94 12.38-18.75 19.08-16.59 39.89 0 .03-.66.03-.66 0-2.19-12.91-16.79-25.29-16.33-39.35-.07 0-.17-.03-.23-.03-9.09 50.04 16.86 49.71 22.3 62.91Z" class="cls-1"/><path d="m45.02 199.86.33-.27c-8.66-10.52-6.04-22-5.91-22.83 4.31-24.95-3.75-29.43-3.95-40.72h-.43c-.37 12.64-13.31 26.84-1.56 44.5l-.56.37C20 162.03 9.75 166.64 3.71 147.86c-.2 0-.43.1-.53.17 9.13 54.95 33.58 38.29 41.84 51.83" class="cls-1"/><path d="m95.49 223.85-.1-.5c-17.02 3.42-25.75.13-28.84-15.53-4.35-22-19.31-30.46-21.04-39.26h-.03c-.27 0-.37.03-.43.07 3.22 15.53-4.35 24.75 14.37 43.37l-.5.43c-18.02-14.3-30.4-9.03-37.56-18.98-.13.13-.27.23-.3.33 22.33 37.07 46.29 39.09 74.43 30.06Z" class="cls-1"/><path d="m53.41 230.22.13-.2c22.93 13.37 46.85-5.28 75.89-5.94 7.3-.17 29.04 1.16 49.04 24.39l-5.31 1.53c-6.6-11.48-16.79-19.74-26.02-22.07-26.41-6.6-26.91 18.02-56.25 18.38-21.77.3-36.63-15.23-37.5-16.09ZM267.64 64.37c.03.1.1.17.1.17s-.07-.07-.1-.17" class="cls-1"/><path d="M267.64 64.37c.03.1.1.17.1.17s-.07-.07-.1-.17m-237.89 0c-.03.1-.1.17-.1.17s.03-.07.1-.17" class="cls-1"/><path d="M267.64 64.37c.03.1.1.17.1.17s-.07-.07-.1-.17M234.86 21.2l-.3.37c-.9-.63-3.98-2.85-7.73-3.88-20.74-5.84-19.68-13.01-28.47-17.26l.27-.43c.86.56 3.55 2.12 7.3 2.16 24.36.3 22.5 14.47 28.94 19.05Z" class="cls-1"/><path d="m259.05 48.18-.43.3c-4.94-5.48-9.69-6.5-10.49-6.74-19.31-5.71-26.05-18.48-31.26-22.1l.2-.3c7.13 5.08 15.6-.07 30.06 15.36.1.1.5-.46.5-.46-11.71-14.14-12.01-23.76-17.45-29.04l.3-.27c34.15 20.41 19.15 31.56 28.57 43.24Z" class="cls-1"/><path d="M257.62 24.56c32.22 31.92 12.14 40.08 17.22 55.98l-.33.13c-2.89-6.74-10.39-9.69-10.55-9.76-13.64-6.3-17.92-22.2-23.39-27.01l.27-.27c6.67 7.23 17.69 3.19 26.58 21.07.03.07.6-.3.6-.3-7.23-15.6-3.85-29.73-10.72-39.42.1-.2.23-.33.33-.43Z" class="cls-1"/><path d="m281.02 122.91-.46.03c.13-1.83.6-9.42-7-16.46-15.3-14.17-12.71-26.75-18.98-36.47l.46-.27c4.88 8.3 22.7 17.39 23.43 30.16 0 .03.7-.07.66-.1-2.59-18.28 7.07-30.5 1.79-42.08.17-.13.37-.2.46-.27 20.47 41.98 3.52 41.38-.36 65.44Z" class="cls-1"/><path d="m273.15 162.83-.5-.17c4.21-9.49-2.85-22.46-3.15-23.1-9.29-18.02-6.17-34.31-8.3-40.02l.43-.13c4.94 12.38 18.75 19.08 16.59 39.89 0 .03.66.03.66 0 2.19-12.91 16.79-25.29 16.33-39.35.07 0 .17-.03.23-.03 9.09 50.04-16.86 49.71-22.3 62.91Z" class="cls-1"/><path d="m252.35 199.86-.33-.27c8.66-10.52 6.04-22 5.91-22.83-4.31-24.95 3.75-29.43 3.95-40.72h.43c.37 12.64 13.31 26.84 1.56 44.5l.56.37c12.94-18.88 23.19-14.27 29.23-33.05.2 0 .43.1.53.17-9.13 54.95-33.58 38.29-41.84 51.83" class="cls-1"/><path d="m201.87 223.85.1-.5c17.02 3.42 25.75.13 28.84-15.53 4.35-22 19.31-30.46 21.04-39.26h.03c.27 0 .4.03.43.07-3.22 15.53 4.35 24.75-14.37 43.37l.5.43c18.02-14.3 30.4-9.03 37.56-18.98.13.13.27.23.3.33-22.33 37.07-46.29 39.09-74.43 30.06Z" class="cls-1"/><path d="m243.95 230.22-.13-.2c-22.93 13.37-46.85-5.28-75.89-5.94-7.27-.17-29.04 1.16-49.04 24.39l5.31 1.53c6.6-11.48 16.79-19.74 26.02-22.07 26.38-6.6 26.91 18.02 56.25 18.38 21.77.3 36.67-15.23 37.5-16.09ZM29.75 64.37c-.03.1-.1.17-.1.17s.03-.07.1-.17" class="cls-1"/><path d="M29.75 64.37c-.03.1-.1.17-.1.17s.03-.07.1-.17m237.89 0c.03.1.1.17.1.17s-.07-.07-.1-.17m-83.29.7h-.4c-10.72 0-21 6.9-26.15 18.38-2.59 5.84-3.19 13.44-3.22 20.77 0 7.3.6 14.9 3.22 20.74 5.11 11.48 15.43 19.35 26.15 19.35h.4c10.72 0 21-7.86 26.11-19.35 2.59-5.84 3.19-13.44 3.22-20.74 0-7.3-.6-14.93-3.22-20.77-5.11-11.48-15.4-18.38-26.11-18.38m16.46 39.62c-.03 6.87-.2 12.81-.2 12.81-.43 5.61-.53 11.25-3.12 15.1-2.95 4.35-7.67 6.64-12.41 6.64l-.2.07h-.6l-.17-.07c-4.75 0-9.46-2.29-12.41-6.64-2.59-3.85-2.69-9.49-3.12-15.1 0 0-.17-5.84-.17-12.68v-.3c0-6.87.17-12.81.17-12.81.43-5.61.53-11.25 3.12-15.1 2.95-4.35 7.67-6.64 12.41-6.64l.17-.07h.6l.17.07c4.75 0 9.46 2.26 12.41 6.64 2.62 3.85 2.69 9.49 3.12 15.1 0 0 .17 5.84.2 12.68z" class="cls-1"/><path d="M192.38 147.6s-2.09 5.44-6.01 8.79c-2.16 1.83-5.31 2.32-7.83 2.62l-26.35 1.29h-5.81s-4.41-.23-4.65-4.35V63.61c.23-4.11 4.65-4.35 4.65-4.35h5.81v-5.38h-35.27v5.38h5.84s4.41.23 4.65 4.35v92.35c-.23 4.11-4.65 4.35-4.65 4.35h-5.84v5.38h35.24l38.16.13L195 148.8v-.63l-2.62-.56Z" class="cls-1"/><path d="M109.56 75.23c.2-3.42 3.88-3.62 3.88-3.62h4.84v-4.48h-29.4v4.48h4.84s3.68.2 3.88 3.62v59.03c-.2 3.42-3.88 3.62-3.88 3.62h-4.84v4.48h29.4v-4.48h-4.84s-3.68-.2-3.88-3.62z" class="cls-1"/></g></svg>