<svg xmlns="http://www.w3.org/2000/svg" id="Layer_1" viewBox="0 0 536.95 250"><defs><style>.cls-1{fill:#fff;stroke-width:0}</style></defs><g id="Lockup"><path d="M308.72 65.93c-1.3 2.2-1.7 3-1.7 3-1 1.9-3.3 2.8-5.3 2.1l-3.5-1.4c-2-.8-4.2.3-4.9 2.3l-2.7 7.2c-.8 2 .3 4.2 2.3 4.9l3.5 1.4c2 .8 3.1 3 2.6 5.1l-1.6 7.7c-.3 2.1-2.4 3.7-4.4 3.6l-3.8-.1c-2.1-.1-3.8 1.6-3.9 3.7l-.3 7.6c-.1 2.1 1.6 3.8 3.7 3.9l3.8.1c2.1.1 4 1.9 4.1 3.9l1.1 7.8c.4 2.1-1 4.2-2.9 4.9l-3.7 1.2c-2 .6-3.1 2.7-2.5 4.8l3.3 11 20.61-6.4c-9.4-23.01-8.5-50.02 4.9-73.23 13.41-23.21 36.31-37.52 60.92-40.92l-4.8-21.01-11.2 2.5c-2.1.5-3.3 2.5-2.8 4.6l.9 3.8c.5 2.1-.8 4.3-2.7 5l-7.3 3c-1.9.9-4.4.1-5.5-1.7l-2.1-3.2c-1.1-1.8-3.4-2.4-5.3-1.2l-6.5 4c-1.8 1.1-2.4 3.4-1.2 5.3l2.1 3.2c1.1 1.8.7 4.3-1 5.6l-6 5.3c-1.5 1.5-4.1 1.6-5.7.2l-2.9-2.4c-1.7-1.4-4-1.1-5.4.6l-4.8 5.9c-1.4 1.7-1.1 4 .6 5.4l2.9 2.4c1.7 1.4 2.1 3.8.9 5.6-.1 0-.6.9-1.8 2.9Zm79.44 137.75c2.4 0 3.5-.1 3.5-.1 2.1-.1 4.1 1.5 4.4 3.5l.6 3.8c.3 2.1 2.3 3.5 4.4 3.1l7.5-1.2c2.1-.3 3.5-2.3 3.1-4.4l-.6-3.7c-.3-2.1 1.1-4.2 3-4.8l7.5-2.5c2-.8 4.4.1 5.4 2l1.8 3.3c1 1.9 3.3 2.5 5.2 1.6l6.8-3.6c1.9-1 2.5-3.3 1.6-5.2l-1.9-3.4c-1-1.9-.4-4.3 1.3-5.6l6.3-4.8c1.6-1.4 4.2-1.3 5.7.2l2.8 2.6c1.6 1.5 3.9 1.4 5.4-.2l7.8-8.3-15.81-14.61c-15.21 19.71-39.12 32.31-65.83 32.31s-50.62-12.61-65.83-32.31l-15.71 14.51 7.8 8.3c1.5 1.6 3.8 1.7 5.4.2l2.8-2.6c1.6-1.5 4.1-1.5 5.7-.1l6.3 4.8c1.7 1.2 2.4 3.7 1.3 5.6l-1.9 3.4c-1 1.9-.3 4.2 1.6 5.2l6.8 3.6c1.9 1 4.2.3 5.2-1.6l1.8-3.3c1-1.9 3.4-2.7 5.4-2l7.5 2.5c2.1.6 3.4 2.7 3 4.8l-.6 3.7c-.3 2.1 1.1 4 3.1 4.4l7.5 1.2c2.1.3 4-1.1 4.4-3.1l.6-3.8c.3-2.1 2.4-3.6 4.4-3.5-.1 0 .9.1 3.4.1Zm79.53-137.65c-1.3-2.2-1.8-3-1.8-3-1.2-1.8-.8-4.3.9-5.6l2.9-2.4c1.7-1.4 1.9-3.7.6-5.4l-4.8-5.9c-1.4-1.7-3.7-1.9-5.4-.6l-2.9 2.4c-1.7 1.4-4.2 1.2-5.7-.2l-6-5.3c-1.7-1.3-2.1-3.8-1-5.6l2.1-3.2c1.1-1.8.6-4.1-1.2-5.3l-6.5-4c-1.8-1.1-4.1-.6-5.3 1.2l-2.1 3.2c-1.1 1.8-3.5 2.5-5.5 1.7l-7.3-3c-2-.7-3.2-2.9-2.7-5l.9-3.8c.5-2.1-.8-4.1-2.8-4.6l-11.2-2.5-4.9 21.11c24.71 3.3 47.52 17.61 60.92 40.92 13.41 23.21 14.31 50.22 4.9 73.23l20.61 6.4 3.3-11c.6-2-.5-4.1-2.5-4.8l-3.7-1.2c-2-.6-3.3-2.8-2.9-4.9l1.1-7.8c.2-2.1 2.1-3.8 4.1-3.9l3.8-.1c2.1-.1 3.7-1.9 3.7-3.9l-.3-7.6c-.1-2.1-1.9-3.7-3.9-3.7l-3.8.1c-2.1.1-4.1-1.6-4.4-3.6l-1.6-7.7c-.5-2.1.7-4.3 2.6-5.1l3.5-1.4c2-.8 2.9-2.9 2.3-4.9l-2.7-7.2c-.8-2-2.9-2.9-4.9-2.3l-3.5 1.4c-2 .8-4.3-.2-5.3-2.1 0 .1-.5-.8-1.6-3Zm-198.78-1.7c-.1.1-.1.2-.1.2s.1-.1.1-.2m32.81-43.22.3.4c.9-.6 4-2.8 7.7-3.9C330.53 11.71 329.43 4.6 338.23.4l-.3-.4c-.9.6-3.5 2.2-7.3 2.2-24.31.1-22.41 14.31-28.91 18.91" class="cls-1"/><path d="m277.51 48.02.5.3c4.9-5.5 9.7-6.5 10.5-6.8 19.31-5.7 26.11-18.51 31.21-22.11l-.2-.3c-7.2 5.1-15.61-.1-30.11 15.41-.1.1-.5-.5-.5-.5 11.8-14.21 12-23.81 17.41-29.01l-.3-.3c-34.11 20.51-19.11 31.61-28.51 43.32Z" class="cls-1"/><path d="M279.01 24.41c-32.21 31.91-12.2 40.12-17.21 56.02l.3.1c2.9-6.8 10.4-9.7 10.6-9.8 13.61-6.3 17.91-22.21 23.41-27.01l-.3-.3c-6.7 7.2-17.61 3.1-26.61 21.11 0 .1-.6-.3-.6-.3 7.2-15.61 3.8-29.71 10.8-39.52-.2-.1-.3-.2-.4-.3Z" class="cls-1"/><path d="M255.6 122.75h.5c-.1-1.9-.6-9.4 7-16.51 15.31-14.21 12.71-26.71 19.01-36.51l-.5-.3c-4.9 8.3-22.71 17.41-23.41 30.21l-.7-.1c2.6-18.31-7.1-30.51-1.8-42.12-.2-.1-.4-.2-.5-.3-20.51 42.22-3.6 41.62.4 65.63" class="cls-1"/><path d="m263.41 162.77.5-.2c-4.2-9.5 2.8-22.41 3.1-23.11 9.3-18.01 6.2-34.41 8.3-40.12l-.5-.1c-5 12.3-18.71 19.11-16.61 39.92h-.6c-2.2-12.91-16.81-25.31-16.41-39.42h-.3c-8.9 50.22 17.11 49.82 22.51 63.03Z" class="cls-1"/><path d="m284.31 199.78.4-.3c-8.7-10.6-6.1-22.01-5.9-22.81 4.3-25.01-3.7-29.51-3.9-40.82h-.4c-.4 12.61-13.31 26.81-1.6 44.52l-.6.4c-12.91-18.91-23.21-14.31-29.31-33.01-.2 0-.4.1-.5.2 9 55.02 33.41 38.32 41.82 51.82Z" class="cls-1"/><path d="m334.73 223.79-.1-.5c-17.01 3.4-25.81.2-28.81-15.51-4.3-22.01-19.31-30.51-21.11-39.32-.3 0-.4 0-.4.1 3.2 15.61-4.3 24.81 14.41 43.42l-.5.4c-18.01-14.31-30.51-9-37.62-19.01-.1.1-.3.2-.3.3 22.31 37.21 46.32 39.32 74.43 30.11Z" class="cls-1"/><path d="m292.62 230.29.1-.2c22.91 13.31 46.92-5.3 75.93-6 7.2-.2 29.11 1.2 49.12 24.41l-5.3 1.5c-6.6-11.5-16.81-19.81-26.11-22.01-26.41-6.6-26.91 18.01-56.22 18.41-21.71.3-36.61-15.31-37.52-16.11M507 64.33c.1.1.1.2.1.2s0-.1-.1-.2" class="cls-1"/><path d="M507 64.33c.1.1.1.2.1.2s0-.1-.1-.2m-238.09 0c-.1.1-.1.2-.1.2s.1-.1.1-.2" class="cls-1"/><path d="M507 64.33c.1.1.1.2.1.2s0-.1-.1-.2m-32.81-43.22-.3.4c-.9-.6-4-2.8-7.7-3.9C445.38 11.71 446.48 4.6 437.68.4l.3-.4c.9.6 3.5 2.2 7.3 2.2 24.41.1 22.61 14.31 28.91 18.91" class="cls-1"/><path d="m498.4 48.02-.5.3c-4.9-5.5-9.7-6.5-10.5-6.8-19.31-5.7-26.11-18.51-31.21-22.11l.2-.3c7.2 5.1 15.61-.1 30.11 15.41.1.1.5-.5.5-.5-11.8-14.21-12-23.81-17.41-29.01l.3-.3C504 25.22 489 36.32 498.4 48.03Z" class="cls-1"/><path d="M497 24.41c32.21 31.91 12.1 40.12 17.21 56.02l-.3.1c-2.9-6.8-10.4-9.7-10.6-9.8-13.61-6.3-17.91-22.21-23.41-27.01l.3-.3c6.7 7.2 17.71 3.1 26.61 21.11 0 .1.6-.3.6-.3-7.2-15.61-3.8-29.71-10.8-39.52.3-.1.3-.2.4-.3Z" class="cls-1"/><path d="M520.51 122.75h-.5c.1-1.9.6-9.4-7-16.51C497.7 92.03 500.3 79.53 494 69.73l.5-.3c4.9 8.3 22.71 17.41 23.41 30.21l.7-.1c-2.6-18.31 7.1-30.51 1.8-42.12.2-.1.4-.2.5-.3 20.41 42.22 3.4 41.62-.4 65.63" class="cls-1"/><path d="m512.51 162.77-.5-.2c4.2-9.5-2.8-22.41-3.1-23.11-9.3-18.01-6.2-34.41-8.3-40.12l.5-.1c5 12.3 18.71 19.11 16.61 39.92h.7c2.2-12.91 16.81-25.31 16.41-39.42h.3c8.9 50.22-17.11 49.82-22.61 63.03Z" class="cls-1"/><path d="m491.8 199.78-.4-.3c8.7-10.6 6.1-22.01 5.9-22.81-4.3-25.01 3.7-29.51 3.9-40.82h.4c.4 12.61 13.31 26.81 1.6 44.52l.6.4c12.91-18.91 23.21-14.31 29.31-33.01.2 0 .4.1.5.2-9.1 55.02-33.61 38.32-41.82 51.82Z" class="cls-1"/><path d="m441.18 223.79.1-.5c17.01 3.4 25.81.1 28.81-15.61 4.3-22.01 19.31-30.51 21.11-39.32.3 0 .4 0 .4.1-3.2 15.61 4.3 24.81-14.41 43.42l.5.4c18.01-14.31 30.51-9 37.62-19.01.1.1.3.2.3.3-22.21 37.31-46.22 39.42-74.43 30.21Z" class="cls-1"/><path d="m483.29 230.29-.1-.2c-22.91 13.31-46.92-5.3-75.93-6-7.2-.2-29.11 1.2-49.12 24.41l5.3 1.5c6.6-11.5 16.81-19.81 26.11-22.01 26.41-6.6 26.91 18.01 56.22 18.41 21.91.3 36.71-15.31 37.51-16.11ZM268.91 64.33c-.1.1-.1.2-.1.2s.1-.1.1-.2" class="cls-1"/><path d="M268.91 64.33c-.1.1-.1.2-.1.2s.1-.1.1-.2m238.09 0c.1.1.1.2.1.2s0-.1-.1-.2m-64.82 34.11c-3-3.9-6-7-8.9-9.1-3.5-2.6-7.2-3.9-10.7-3.9-4.9 0-9.2 2.2-12.81 6.4-2.2 2.5-4.1 6-5.9 10.3l3.9 2.4c2-2.3 3.6-3.8 5-4.7 1.8-1.2 3.5-1.8 5.4-1.8 2.9 0 6 1.2 8.8 3.4.9.7 3.1 2.8 6.7 6.6-10.2 1.1-17.71 2.3-22.81 3.8-6.4 1.9-11.1 4.8-14.11 8.7-3 3.9-4.6 9.6-4.6 16.81 0 1.5 1.1 5.9 3.1 13.21q.6 2.25 1.5 5.1c-3.2-.3-6.2-.7-8.9-1.1-9.8-1.6-17.31-4.3-22.51-8l19.01-.8-.5-10.6c-.3-6.2-3.5-21.61-15.21-32.01 5.5-4.6 12.91-9 22.21-13.41 5.3-2.4 13.81-6 25.81-10.7l3.6-13.41c-6.6 1.6-12.81 3.6-18.91 6-5.5 2.2-11 4.8-16.81 7.9-7.1-1.1-13.31-2.9-18.91-5.6-6.6-3.1-9.9-6.5-9.9-10 0-3.2 2.8-6 8.6-8.2 4.7-1.9 10.9-3.2 18.51-4.2 5.9-.8 11.7-1.1 17.21-1.1-4.2-3.3-7.7-5.7-10.6-7.2-4.2-2.2-8.1-3.2-11.9-3.2-8.3 0-15.41 3.3-21.31 10.1-5.1 5.9-7.6 11.9-7.6 17.91 0 6.8 2.4 12.3 7.1 16.81 2.2 2 5.9 4.4 11.5 7.2-2.4 2.4-4.4 4.4-6 6.1-6-3.3-13.41-5.4-22.81-5.4l-1.1 13.61c6.2-.2 11.7.7 16.31 2.4-1 1.8-1.8 3.5-2.5 5.4-2.2 5.7-3.2 12-3.2 19.21v.4l-9.5.4c-3.1.1-5.6-.1-7.4-.6-2.2-.6-3.7-1.8-4.6-3.4l-2.5.1c-.8 1.6-1.3 2.9-1.5 4.2-.3 1.3-.2 6-.1 7.4.1 1.9 1.9 3.3 5.3 4.5s7.3 1.7 11.6 1.5l11.3-.5c2 5.1 5 9.3 9.2 12.81 6.1 5 14.81 8.3 26.21 10 4.1.6 9.4 1.1 15.81 1.3 1.4 4.7 2.8 9.4 4.3 14.11.8-2.8 1.4-5.2 1.7-7s.5-3.7.5-6v-1.1h5.5l21.71-14.41v-.8c-2.6.1-5.4.1-8 .2s-5.4.1-8.1.1c-5.2 0-9.9-.1-14.31-.3-.9-3-1.9-6-2.7-8.9-1.3-4.3-2-8.3-2-12.1 0-4.2 4.5-7.3 13.51-9.6 7.2-1.8 15.41-2.6 24.91-2.6h9.9v-15.01c-2.9-4.6-5-7.8-6.5-9.6Zm-86.63 28.71c0-5.3 1.8-10.5 5.2-15.31 10.8 6.2 16.01 16.01 16.21 20.61l-20.81.9c-.4-2-.6-4.1-.6-6.2M24.41 30.41q1.65 0 2.7-1.2c1.05-1.2 1.2-1.7 1.2-2.7s-.4-2.1-1.2-2.8q-1.2-1.2-2.7-1.2c-1.5 0-2.1.4-2.8 1.2-.8.8-1.2 1.8-1.2 2.8q0 1.65 1.2 2.7c.6.8 1.6 1.2 2.8 1.2m10.3.1q1.65 0 2.7-1.2c1.05-1.2 1.2-1.8 1.2-2.8 0-1.1-.4-2.1-1.2-2.8-.8-.8-1.7-1.3-2.7-1.3s-2.1.4-2.8 1.3c-.8.8-1.2 1.8-1.2 2.8s.4 2.1 1.2 2.8c.6.8 1.6 1.2 2.8 1.2m111.85 16.11c1.1 0 2.1-.4 2.9-1.3.8-.8 1.3-1.8 1.3-2.9s-.4-2.2-1.3-3c-.9-.9-1.8-1.3-2.9-1.3-1.2 0-2.2.4-2.9 1.3-.8.9-1.3 1.9-1.3 3s.4 2.1 1.3 2.9c.8.8 1.8 1.3 2.9 1.3" class="cls-1"/><path d="M188.48 55.42c-1.1-2.2-2.5-3.9-4.4-5.3s-3.9-2.1-6.3-2.1c-1.5 0-2.8.3-4.2.9s-2.7 1.6-4.1 3c-1.4 1.5-2.6 3.5-3.9 6.2-1 2.1-1.9 3.6-2.6 4.8-.8 1.2-1.6 2.1-2.4 2.5-.8.5-1.7.8-2.7.8-2.4 0-4.2-.2-5.5-.6s-2.1-1-2.4-1.7c-.4-.7-.7-1.6-.7-2.4 0-1.1.1-2.4.4-3.8.3-1.5.5-2.6.7-3.7l-7.2-1.3c-.5 2.9-.9 5.3-1.4 7.1-.4 1.8-.9 3.1-1.5 4.1-.6.9-1.4 1.6-2.4 1.9s-2.4.5-4 .5c-2 0-3.7-.1-5.3-.4-.6-.1-1.2-.2-1.7-.4 1.3-2 2-4.1 2-6.5s-.5-4.6-1.6-6.5c-1.1-2-2.5-3.4-4.4-4.5-2-1.1-4.2-1.6-6.9-1.6-2.9 0-5.9.7-8.7 2.2s-5.6 3.3-8.1 5.7l-1-27.61-7.5 3.4 1.1 32.51c-.9 1.2-1.8 2.4-2.5 3.6h-3.2c-1 0-2-.2-2.8-.6-.9-.4-1.8-1.1-2.5-2.2-.8-1.1-1.7-2.6-2.5-4.8-1.8-4-3.5-6.9-5.3-8.4-1.8-1.6-3.8-2.4-6.2-2.4-1.3 0-2.6.3-4.2 1-1.5.7-2.9 1.8-4.5 3.3s-2.9 3.7-4.4 6.4c-1.1 2-1.9 3.4-2.4 4.6q-.9 1.65-1.8 2.4c-.6.5-1.5.7-2.6.7-1.5 0-2.7-.2-3.8-.5s-1.9-1-2.4-1.9c-.6-1-.9-2.4-1-4.3l-.8-22.31h-7.7l.3 4.9c-3.3.7-6.3 1.8-8.9 3.2s-4.7 3.2-6.3 5.3-2.3 4.5-2.3 7.2c0 2.2.5 4 1.7 5.6 1.1 1.5 2.5 2.6 4.4 3.5s3.9 1.4 6.3 1.5c2.4.2 4.8 0 7.4-.6 1.1 2.2 2.6 3.7 4.8 4.7 2.2.9 4.8 1.4 7.9 1.4 1.8 0 3.2-.2 4.5-.5s2.4-.9 3.3-1.8c1-.9 2-2.2 2.8-3.8 1.8 2.4 3.9 4.2 6.2 5.3s4.4 1.7 6.2 1.7c1.7 0 3.1-.4 4.4-1.2s2.3-1.8 3-2.9c1 1.1 2.3 2 3.7 2.4 1.5.5 3.1.8 5 .8h11.4c3.6 0 6.8-.1 9.5-.3 2.6-.2 5.1-.5 7.1-.8 2.1-.4 3.9-.9 5.6-1.5.5-.2.9-.4 1.4-.6.7.4 1.5.8 2.3 1.1 1.7.7 3.4 1.2 5.4 1.5 2 .4 3.8.5 5.6.5 2.6 0 4.9-.3 7-.9 2-.6 3.7-1.9 5.2-3.9.7 1.8 2 2.9 3.8 3.7 1.8.7 4.4 1.1 7.9 1.1 2.3 0 4.2-.3 5.8-.8s3-1.7 4.3-3.3c2.5 1.7 4.8 2.6 6.9 3.1s3.8.7 5.3.7c2 0 3.7-.5 5.3-1.4s2.8-2.3 3.8-3.9c1-1.8 1.5-3.8 1.5-6.2-.6-2.2-1.2-4.4-2.2-6.6Zm-161.46 5.3c-1.7-.1-3-.5-4.1-1.1s-1.7-1.5-1.7-2.5c0-1.6.9-3 2.7-4.4s4.3-2.4 7.5-2.7l.6 10.5c-1.7.3-3.3.4-5 .2m44.62 5.3c-.6.8-1.5 1.3-2.5 1.3-1.6 0-3.2-.6-4.9-1.7s-3-2.5-4.1-4.3c1.1-2.2 2.2-3.6 3.1-4.5s2-1.3 2.7-1.3c.9 0 1.7.4 2.4 1.1s1.4 1.7 1.9 2.7c.5 1.1 1 2.2 1.4 3.1.6 1.6.6 2.7 0 3.6m47.72-2.9c-1.4 1.1-3.6 1.9-6.7 2.4-3.1.6-7.2.9-12.51.9h-2c1.5-1.9 3-3.7 4.9-5.6s3.8-3.4 6-4.7 4.2-1.9 6.4-1.9 3.6.6 4.5 1.7c1 1.2 1.5 2.3 1.5 3.4 0 1.5-.7 2.7-2.1 3.8Zm59.22 2.9c-.9 0-2-.2-3.3-.5-1.3-.4-2.7-1-4.3-1.8 1.3-2.6 2.4-4.7 3.2-6 .9-1.3 2-2 3.2-2 1 0 1.9.4 2.6 1.1.8.7 1.5 1.7 2 2.6.5 1.1.8 2.1.8 3.1.1 2.3-1.4 3.5-4.2 3.5" class="cls-1"/><path d="M113.75 40.42c1.1 0 2.1-.4 2.9-1.3.8-.8 1.3-1.8 1.3-2.9 0-1.2-.4-2.2-1.3-3-.8-.9-1.8-1.3-2.9-1.3-1.2 0-2.2.4-2.9 1.3-.8.9-1.3 1.9-1.3 3s.4 2.1 1.3 2.9c.8.8 1.7 1.3 2.9 1.3m58.12 63.92-7.5 3.4 1.1 28.01c.1 2.2 0 3.9-.1 5-.2 1.2-.7 2-1.7 2.4-.9.4-2.4.7-4.6.7-3.7 0-7.2-.4-10.3-1.3 3.7-3.6 5.6-7.4 5.6-11.7 0-2.4-1-4.5-2.8-6.2s-4.8-2.5-8.6-2.5c-2 0-3.8.3-5.7.9s-3.5 1.4-5 2.3a15 15 0 0 0-3.5 2.9c-.9 1.1-1.4 2-1.4 2.8 0 .4.1.9.3 1.6s.4 1.5.7 2.2.5 1.2.8 1.4c1.1.8 2.2 1.8 3.3 2.8 1.1 1.1 2.2 2.2 3 3.2-1.6.5-3.3.9-5.2 1.1-1.9.3-3.8.4-6 .4q-1.5 0-2.7-.6c-.9-.4-1.8-1.1-2.5-2.2-.8-1.1-1.7-2.6-2.5-4.8-1.8-4-3.5-6.9-5.3-8.4-1.8-1.6-3.8-2.4-6.2-2.4-1.3 0-2.6.3-4.2 1-1.5.7-2.9 1.8-4.5 3.3-1.6 1.6-2.9 3.7-4.4 6.4-1.1 2-1.9 3.4-2.4 4.6q-.9 1.65-1.8 2.4c-.6.5-1.5.7-2.6.7H48.46c-2.4 0-4.2-.5-5.5-1.6s-1.9-3.2-2-6.6l-1.1-31.41-7.5 3.4 1.3 34.11c.1 3.6-.2 6.7-1 9.2s-2.3 4.4-4.4 5.7c-2.2 1.3-5.1 2-9 2q-3.3 0-6-1.2c-2.7-1.2-3.1-1.9-4.2-3.4s-1.6-3.2-1.6-5.3c0-1.4.2-2.7.6-4.2s.9-3.1 1.7-5.1l-6.7-2.1c-1.3 2.8-2.1 5.3-2.4 7.4-.4 2.2-.6 3.9-.6 5.5 0 3.5.9 6.5 2.6 8.8 1.8 2.4 4.1 4.1 7 5.4 2.9 1.2 6.1 1.8 9.5 1.8 6.7 0 11.8-1.5 15.31-4.3s5.8-7.2 6.6-12.71c.9.8 2 1.5 3.1 1.9 1.2.4 2.4.6 3.8.6h36.41c1.8 0 3.2-.2 4.5-.5s2.4-.9 3.3-1.8c1-.9 2-2.2 2.8-3.8 1.8 2.4 3.9 4.2 6.2 5.3 2.4 1.1 4.4 1.7 6.2 1.7 1.7 0 3.1-.4 4.4-1.2s2.3-1.8 3-2.9c1 1.1 2.3 2 3.7 2.4s3.1.8 4.8.8h.3c3.4 0 6.7-.4 9.6-1.1 3-.7 5.8-1.6 8.1-2.7 4.6 2.5 10.3 3.8 17.01 3.8 3.3 0 6.1-.4 8-1.1 2-.7 3.5-1.8 4.5-3 1-1.4 1.7-2.9 1.9-4.9.3-2 .4-4.1.3-6.5l-1.1-31.81Zm-62.12 39.32c-.6.8-1.5 1.3-2.5 1.3-1.6 0-3.2-.6-4.9-1.7s-3-2.5-4.1-4.3c1.1-2.2 2.2-3.6 3.1-4.5 1-.9 2-1.3 2.7-1.3.9 0 1.7.4 2.4 1.1s1.4 1.7 1.9 2.7c.5 1.1 1 2.2 1.4 3.1.6 1.6.6 2.7 0 3.6m32.61-4.4c-1.3-1.5-2.6-2.9-4.1-4.3s-2.8-2.5-4.1-3.6c1.1-.7 2.3-1.3 3.7-1.6 1.5-.4 2.7-.6 3.8-.6 2 0 3.3.4 4 1.1.8.7 1.2 1.6 1.2 2.4 0 2.4-1.5 4.5-4.5 6.6m46.22-34.92-7.61 3.5 1.3 43.52h7.51zM25.81 185.57q1.65 0 2.7-1.2 1.2-1.2 1.2-2.7c0-1.5-.4-2.1-1.2-2.8q-1.2-1.2-2.7-1.2c-1.1 0-2.1.4-2.8 1.2-.8.8-1.2 1.8-1.2 2.8q0 1.65 1.2 2.7c.8.8 1.7 1.2 2.8 1.2m10.3.1q1.65 0 2.7-1.2c.8-.8 1.2-1.8 1.2-2.8 0-1.1-.4-2.1-1.2-2.8s-1.7-1.3-2.7-1.3-2.1.4-2.8 1.3c-.8.8-1.2 1.8-1.2 2.8 0 1.1.4 2.1 1.2 2.8.8.8 1.7 1.2 2.8 1.2m28.92 49.42c-1.1 0-2.1.4-2.8 1.2-.8.8-1.2 1.8-1.2 2.8 0 1.1.4 2.1 1.2 2.8.8.8 1.8 1.2 2.8 1.2q1.65 0 2.7-1.2c.8-.8 1.2-1.8 1.2-2.8 0-1.1-.4-2.1-1.2-2.8q-1.05-1.2-2.7-1.2m-10.31 0c-1.1 0-2.1.4-2.8 1.2-.8.8-1.2 1.8-1.2 2.8 0 1.1.4 2.1 1.2 2.8.8.8 1.8 1.2 2.8 1.2s2-.4 2.7-1.2c.8-.8 1.2-1.8 1.2-2.8 0-1.1-.4-2.1-1.2-2.8q-1.05-1.2-2.7-1.2m61.63-25.21c-1-1.7-2.3-2.9-3.7-4-1.5-1-3.2-1.6-5.2-1.6-1.8 0-3.4.5-4.9 1.4s-2.8 2.1-3.9 3.6-2 3.2-2.6 5c-.6 1.9-1 3.7-1 5.7 0 3.2 1 5.5 3 7s4.6 2.2 7.8 2.2c.9 0 1.7-.1 2.4-.2.8-.1 1.5-.3 2.2-.6-1.3 2.5-3.3 4.2-6.2 5.3-2.8 1-6.4 1.8-10.6 2.4l1.6 7.6c7.6-.6 13.61-2.7 17.81-6.6s6.4-9.1 6.4-16.01c0-2-.3-3.9-.8-5.9-.6-1.8-1.4-3.6-2.3-5.3Zm-9.2 12c-1.7 0-2.8-.3-3.6-.9q-1.2-.9-1.2-2.4c0-.9.2-1.9.6-2.7.4-1 .9-1.8 1.6-2.4s1.5-1 2.3-1c1.1 0 1.9.5 2.6 1.4s1.3 2 1.7 3.3c.4 1.4.6 2.7.6 4.1-1.5.3-3 .6-4.6.6m64.72-39.91-7.5 3.5 1.1 28.01c.1 2.2 0 3.9-.1 5-.2 1.2-.7 2-1.7 2.4-.9.4-2.4.7-4.6.7h-.1c-.9 0-1.8-.1-2.6-.4s-1.7-.8-2.4-1.7c-.7-.8-1.3-2-1.8-3.5-.6-2.4-1.7-5.2-3.3-8.5-1.7-3.4-3.7-7-6.5-10.8l-6.5 4.3c.9 1.3 1.8 2.6 2.7 4.2 1 1.5 1.9 2.9 2.7 4.5q1.35 2.25 2.1 4.2c.75 1.95.8 2.4.8 3.4 0 1.3-.6 2.3-1.7 3.1-1.1.9-3.1 1.3-6.2 1.3-1.5 0-3-.2-4.6-.6s-2.9-1-4.2-1.6l-2.9 6.8c1.7 1.1 3.6 1.8 6 2.4 2.3.5 4.5.8 6.6.8 3 0 5.6-.4 7.6-1.3 2-.8 3.5-1.9 4.6-3 1 1.5 2.3 2.5 3.7 3.2 1.5.7 3.2 1 5.2 1 3.3 0 6.1-.4 8-1.1 2-.7 3.5-1.8 4.5-3 1-1.4 1.7-2.9 1.9-4.9.3-2 .4-4.1.3-6.5zm-85.24 0-7.5 3.4 1.1 28.01c.1 2.2 0 3.9-.1 5-.2 1.2-.7 2-1.7 2.4-.9.4-2.4.7-4.6.7-2.5 0-4.5-.2-5.8-.6s-2.2-1-2.5-1.7-.7-1.6-.7-2.4c0-1.1.1-2.4.4-3.8.3-1.5.5-2.6.7-3.7l-7.2-1.3c-.5 2.9-1 5.3-1.5 7.1s-1.1 3.1-1.8 4.1c-.7.9-1.7 1.6-2.7 1.9-1.1.3-2.6.6-4.4.6-1.5 0-2.7-.2-3.8-.5s-1.9-1-2.4-1.9c-.6-1-.9-2.4-1-4.3l-1.1-22.41h-7.6l.3 4.9c-3.3.7-6.3 1.8-8.9 3.2s-4.7 3.2-6.3 5.3-2.3 4.5-2.3 7.2c0 2.2.5 4 1.7 5.6 1.1 1.5 2.5 2.6 4.4 3.5s3.9 1.4 6.3 1.5c2.4.2 4.8 0 7.4-.6 1.1 2.2 2.6 3.7 4.8 4.7 2.2.9 4.8 1.4 7.9 1.4 2.7 0 5.3-.3 7.6-.9 2.4-.6 4.2-2 5.9-4 .8 1.8 2.2 3 4 3.8 2 .8 4.6 1.2 8 1.2 3.3 0 6.1-.4 8-1.1s3.5-1.8 4.5-3c1-1.4 1.7-2.9 1.9-4.9.3-2 .4-4.1.3-6.5l-1.3-31.91Zm-58.12 34.01c-1.7-.1-3-.5-4.1-1.1s-1.7-1.5-1.7-2.5c0-1.6.9-3 2.7-4.4s4.3-2.4 7.5-2.7l.5 10.6c-1.6.2-3.2.3-4.9.1m160.07-34.01-7.61 3.4 1.3 43.52h7.51z" class="cls-1"/></g></svg>