<svg
  xmlns="http://www.w3.org/2000/svg"
  xml:space="preserve"
  id="Calque_1"
  x="0"
  y="0"
  style="enable-background: new 0 0 703.3 250"
  version="1.1"
  viewBox="0 0 703.3 250"
>
  <style>
    .st0 {
      fill: #fff;
    }
  </style>
  <g id="Lockup">
    <path
      d="M365.1 74.5c-2.8 0-5.4-.5-7.6-1.4-2.3-.9-4.2-2.2-5.7-3.6-1.5-1.6-2.7-3.3-3.7-5.3-1-2.1-1.8-4.1-2.2-6.3-.4-2.2-.7-4.4-.7-6.8 0-2.4.2-4.6.7-6.8.4-2.2 1.2-4.3 2.2-6.3 1-2.1 2.3-3.8 3.7-5.3 1.5-1.6 3.3-2.7 5.7-3.6 2.4-.9 4.8-1.4 7.6-1.4 3.5 0 6.6.7 9.2 2.1 2.6 1.4 4.7 3.2 6.2 5.5 1.5 2.4 2.6 4.8 3.3 7.4.7 2.6 1.1 5.5 1.1 8.4 0 2.9-.4 5.8-1.1 8.4-.7 2.6-1.9 5.2-3.3 7.4-1.5 2.4-3.5 4.1-6.2 5.5-2.6 1.5-5.7 2.1-9.2 2.1zm0-7.4c2.1 0 3.9-.5 5.5-1.5s2.8-2.3 3.7-3.9c.9-1.6 1.6-3.3 2-5.1s.7-3.6.7-5.5c0-2-.2-3.8-.7-5.7-.4-1.8-1.1-3.5-2-5.1s-2.2-2.8-3.7-3.8c-1.6-1-3.4-1.5-5.5-1.5-2.7 0-5.1.9-7 2.6-1.9 1.8-3.1 3.7-3.8 6.1-.7 2.3-1.1 4.7-1.1 7.3 0 2 .2 3.8.7 5.6.4 1.8 1.1 3.5 2 5.1s2.2 2.8 3.7 3.8c1.5 1.2 3.4 1.6 5.5 1.6zM391.5 73.8v-33h7.5v3.4c1.4-2.8 3.6-4.2 6.8-4.2 2.4 0 4.4.8 6.2 2.3l-1.1 7c-1.7-1.2-3.5-1.8-5.6-1.8-1.8 0-3.2.6-4.4 1.8-1.2 1.2-1.8 3.2-1.8 6.1v18.5c0-.1-7.6-.1-7.6-.1zM427 86.7l-4-6.1c4.5-.3 7.6-1 9.4-2.1 1.8-1.1 2.6-2.7 2.6-5.1v-1.9c-1.8 2-4.3 2.9-7.5 2.9-4 0-7.3-1.5-9.9-4.5-2.5-3-3.8-7.2-3.8-12.8 0-5.4 1.3-9.6 3.8-12.6s5.9-4.6 9.9-4.6c3.1 0 5.6.9 7.4 2.7v-2h7.5v29.8c0 5.5-1.2 9.4-3.5 11.9-2.2 2.5-6.2 4-11.9 4.4zm1.8-19.4c2.7 0 4.8-1.1 6.2-3.2V50.5c-1.5-2.2-3.6-3.2-6.2-3.2-2.4 0-4.2.9-5.5 2.5-1.3 1.8-1.9 4.2-1.9 7.5 0 3.1.7 5.6 2 7.3s3 2.7 5.4 2.7zM468.5 73.8v-2.6c-2.2 2.3-5.1 3.4-8.8 3.4-3.5 0-6.4-1-8.6-2.8-2.3-2-3.3-4.6-3.3-8.1 0-3.6 1.3-6.3 3.8-8.1s5.6-2.7 9.1-2.7c3.1 0 5.8.6 7.8 1.8v-1.8c0-2.2-.5-3.6-1.6-4.6-1.1-1-2.6-1.5-4.9-1.5-3.6 0-6.9 1.1-9.8 3.1l-2.4-6.2c3.6-2.4 7.9-3.6 12.9-3.6 1.8 0 3.2.1 4.6.4 1.3.3 2.6.8 4.1 1.7 1.4.8 2.4 2.2 3.2 3.9.8 1.8 1.2 3.9 1.2 6.6V74h-7.3zm-7.4-5.9c2.8 0 5.4-1.1 7.3-3.1v-4.3c-1.9-.9-4.1-1.4-6.6-1.4-2.1 0-3.6.4-4.9 1.1s-1.9 1.9-1.9 3.3.5 2.4 1.6 3.1c1.2.8 2.6 1.3 4.5 1.3zM503 73.8V54.9c0-5.1-2.1-7.7-6.2-7.7-4.5 0-6.8 2.5-6.8 7.5v19.1h-7.5v-33h7.5v3.1c2.2-2.5 5.1-3.9 8.7-3.9 3.4 0 6.3 1.1 8.4 3.2 2.2 2.2 3.2 5.6 3.2 10.3v20.3H503zM524.2 34.9c-.9.9-2 1.4-3.1 1.4-1.3 0-2.4-.5-3.2-1.4-.9-.9-1.4-2-1.4-3.2s.5-2.4 1.4-3.1c.9-.9 2-1.3 3.2-1.3s2.4.4 3.1 1.3c.9.9 1.3 2 1.3 3.1 0 1.3-.4 2.3-1.3 3.2zm-6.9 38.9v-33h7.5v33h-7.5zM529.7 73.8v-6.1L547 47.5h-16v-6.8h25.4v5.8l-17.2 20.6h17.2v6.8l-26.7-.1zM581.1 73.8v-2.6c-2.2 2.3-5.1 3.4-8.8 3.4-3.5 0-6.4-1-8.6-2.8-2.3-2-3.3-4.6-3.3-8.1 0-3.6 1.3-6.3 3.8-8.1 2.5-1.9 5.6-2.7 9.1-2.7 3.1 0 5.8.6 7.8 1.8v-1.8c0-2.2-.5-3.6-1.6-4.6-1.1-1-2.6-1.5-4.9-1.5-3.6 0-6.9 1.1-9.8 3.1l-2.4-6.2c3.6-2.4 7.9-3.6 12.9-3.6 1.8 0 3.2.1 4.6.4 1.3.3 2.6.8 4.1 1.7 1.4.8 2.4 2.2 3.2 3.9.8 1.8 1.2 3.9 1.2 6.6V74h-7.3zm-7.3-5.9c2.8 0 5.4-1.1 7.3-3.1v-4.3c-1.9-.9-4.1-1.4-6.6-1.4-2.1 0-3.6.4-4.9 1.1s-1.9 1.9-1.9 3.3.5 2.4 1.6 3.1c1.2.8 2.5 1.3 4.5 1.3zM608.4 74.5c-4.5 0-8.1-1.6-10.8-4.6-2.6-3-4-7.2-4-12.6s1.4-9.6 4-12.7c2.6-3 6.3-4.6 10.8-4.6 6.9 0 11.2 3 13.1 9.1l-7.2 2.4c-1.1-2.8-2.9-4.3-5.7-4.3-2.3 0-4.1.9-5.4 2.7-1.3 1.8-2 4.3-2 7.3s.6 5.5 1.9 7.2c1.3 1.8 2.9 2.6 5.1 2.6 3 0 5.1-1.6 6-4.8l7.2 2.2c-1.7 6.9-6.1 10.1-13 10.1zM633.5 34.9c-.9.9-2 1.4-3.1 1.4-1.3 0-2.4-.5-3.2-1.4-.9-.9-1.4-2-1.4-3.2s.5-2.4 1.4-3.1c.9-.9 2-1.3 3.2-1.3s2.4.4 3.1 1.3c.9.9 1.3 2 1.3 3.1 0 1.3-.4 2.3-1.3 3.2zm-6.9 38.9v-33h7.5v33h-7.5zM654.7 74.5c-4.7 0-8.3-1.6-11.1-4.6s-4.1-7.2-4.1-12.6 1.4-9.6 4.1-12.7c2.7-3 6.4-4.6 11.1-4.6 4.7 0 8.3 1.6 11.1 4.6 2.7 3 4.1 7.3 4.1 12.7s-1.4 9.6-4.1 12.6c-2.7 3.2-6.4 4.6-11.1 4.6zm-8.3-38 9.2-10.1h9.8l-11.5 10.1h-7.5zm8.3 30.8c2.4 0 4.2-.9 5.6-2.6 1.4-1.8 2.1-4.2 2.1-7.3s-.7-5.6-2.1-7.4c-1.4-1.9-3.2-2.7-5.6-2.7-2.3 0-4.1.9-5.5 2.7-1.4 1.9-2.1 4.3-2.1 7.4s.7 5.6 2.1 7.3c1.4 1.7 3.1 2.6 5.5 2.6zM695.8 73.8V54.9c0-5.1-2.1-7.7-6.2-7.7-4.5 0-6.8 2.5-6.8 7.5v19.1h-7.5v-33h7.5v3.1c2.2-2.5 5.1-3.9 8.7-3.9 3.4 0 6.3 1.1 8.4 3.2 2.2 2.2 3.2 5.6 3.2 10.3v20.3h-7.3zM347.2 138.4V93.2h7.7v45.3h-7.7zM382.9 138.4v-18.9c0-5.1-2.1-7.7-6.2-7.7-4.5 0-6.8 2.5-6.8 7.5v19.1h-7.5v-33h7.5v3.1c2.2-2.5 5.1-3.9 8.7-3.9 3.4 0 6.3 1.1 8.4 3.2 2.2 2.2 3.2 5.6 3.2 10.3v20.3h-7.3zM406.8 139.2c-5.1 0-7.7-2.8-7.7-8.4v-18.7h-4.9v-6.6h4.9v-10l7.5-3.6v13.6h7.6v6.6h-7.6v17.2c0 2.2.9 3.1 2.7 3.1 1.7 0 3.4-.5 5.2-1.5l-.9 6.8c-1.8 1-4.1 1.5-6.8 1.5zM432.8 139.2c-4.7 0-8.4-1.6-11.2-4.6-2.7-3-4.1-7.3-4.1-12.7s1.4-9.6 4.1-12.6c2.7-3 6.5-4.6 11.2-4.6 4.2 0 7.6 1.3 10.4 3.9 2.7 2.6 4 6.5 4 11.6 0 1.8-.1 3.3-.3 4.7H425c.1 2.4 1 4.2 2.4 5.6 1.5 1.5 3.2 2.2 5.3 2.2 2.9 0 5.3-1.2 7-3.4l4.8 4.9c-2.8 3.3-6.7 5-11.7 5zm-7.6-20.7h14.6c-.2-2.4-.9-4.2-2.2-5.4-1.3-1.3-2.8-1.9-4.7-1.9-2.2 0-3.9.6-5.3 1.8-1.5 1.2-2.3 3.1-2.4 5.5zM452.5 138.4v-33h7.5v3.4c1.4-2.8 3.6-4.2 6.8-4.2 2.4 0 4.4.8 6.2 2.3l-1.1 7c-1.7-1.2-3.5-1.8-5.6-1.8-1.8 0-3.2.6-4.4 1.8s-1.8 3.2-1.8 6.1v18.5h-7.6zM497.2 138.4v-18.9c0-5.1-2.1-7.7-6.2-7.7-4.5 0-6.8 2.5-6.8 7.5v19.1h-7.5v-33h7.5v3.1c2.2-2.5 5.1-3.9 8.7-3.9 3.4 0 6.3 1.1 8.4 3.2 2.2 2.2 3.2 5.6 3.2 10.3v20.3h-7.3zM530.3 138.4v-2.6c-2.2 2.3-5.1 3.4-8.8 3.4-3.5 0-6.4-1-8.6-2.8-2.3-2-3.3-4.6-3.3-8.1 0-3.6 1.3-6.3 3.8-8.1 2.5-1.9 5.6-2.7 9.1-2.7 3.1 0 5.8.6 7.8 1.8v-1.8c0-2.2-.5-3.6-1.6-4.6-1.1-1-2.6-1.5-4.9-1.5-3.6 0-6.9 1.1-9.8 3.1l-2.4-6.2c3.6-2.4 7.9-3.6 12.9-3.6 1.8 0 3.2.1 4.6.4 1.3.3 2.6.8 4.1 1.7 1.4.8 2.4 2.2 3.2 3.9s1.2 3.9 1.2 6.6v21.3h-7.3zm-7.4-5.9c2.8 0 5.4-1.1 7.3-3.1v-4.3c-1.9-.9-4.1-1.4-6.6-1.4-2.1 0-3.6.4-4.9 1.1-1.3.7-1.9 1.9-1.9 3.3s.5 2.4 1.6 3.1 2.6 1.3 4.5 1.3zM557.5 139.2c-4.5 0-8.1-1.6-10.8-4.6-2.6-3-4-7.2-4-12.6 0-5.4 1.4-9.6 4-12.7 2.6-3 6.3-4.6 10.8-4.6 6.9 0 11.2 3 13.1 9.1l-7.2 2.4c-1.1-2.8-2.9-4.3-5.7-4.3-2.3 0-4.1.9-5.4 2.7-1.3 1.8-2 4.3-2 7.3s.6 5.5 1.9 7.2c1.3 1.8 2.9 2.6 5.1 2.6 3 0 5.1-1.6 6-4.8l7.2 2.2c-1.6 6.9-6 10.1-13 10.1zM582.8 99.5c-.9.9-2 1.4-3.1 1.4-1.3 0-2.4-.5-3.2-1.4-.9-.9-1.4-2-1.4-3.2s.5-2.4 1.4-3.1c.9-.9 2-1.3 3.2-1.3s2.4.4 3.1 1.3c.9.9 1.3 2 1.3 3.1 0 1.4-.5 2.3-1.3 3.2zm-7.1 38.9v-33h7.5v33h-7.5zM604 139.2c-4.7 0-8.3-1.6-11.1-4.6-2.7-3-4.1-7.2-4.1-12.6 0-5.4 1.4-9.6 4.1-12.7 2.7-3 6.4-4.6 11.1-4.6 4.7 0 8.3 1.6 11.1 4.6 2.7 3 4.1 7.3 4.1 12.7 0 5.4-1.4 9.6-4.1 12.6-2.8 3.1-6.4 4.6-11.1 4.6zm0-7.2c2.4 0 4.2-.9 5.6-2.6 1.4-1.8 2.1-4.2 2.1-7.3 0-3.1-.7-5.6-2.1-7.4-1.4-1.8-3.2-2.7-5.6-2.7-2.3 0-4.1.9-5.5 2.7s-2.1 4.3-2.1 7.4c0 3.1.7 5.6 2.1 7.3 1.2 1.7 3.1 2.6 5.5 2.6zM645.1 138.4v-18.9c0-5.1-2.1-7.7-6.2-7.7-4.5 0-6.8 2.5-6.8 7.5v19.1h-7.5v-33h7.5v3.1c2.2-2.5 5.1-3.9 8.7-3.9 3.4 0 6.3 1.1 8.4 3.2 2.2 2.2 3.2 5.6 3.2 10.3v20.3h-7.3zM678.2 138.4v-2.6c-2.2 2.3-5.1 3.4-8.8 3.4-3.5 0-6.4-1-8.6-2.8-2.3-2-3.3-4.6-3.3-8.1 0-3.6 1.3-6.3 3.8-8.1 2.5-1.9 5.6-2.7 9.1-2.7 3.1 0 5.8.6 7.8 1.8v-1.8c0-2.2-.5-3.6-1.6-4.6-1.1-1-2.6-1.5-4.9-1.5-3.6 0-6.9 1.1-9.8 3.1l-2.4-6.2c3.6-2.4 7.9-3.6 12.9-3.6 1.8 0 3.2.1 4.6.4 1.3.3 2.6.8 4.1 1.7 1.4.8 2.4 2.2 3.2 3.9s1.2 3.9 1.2 6.6v21.3h-7.3zm-7.3-5.9c2.8 0 5.4-1.1 7.3-3.1v-4.3c-1.9-.9-4.1-1.4-6.6-1.4-2.1 0-3.6.4-4.9 1.1-1.3.7-1.9 1.9-1.9 3.3s.5 2.4 1.6 3.1c1.1.9 2.5 1.3 4.5 1.3zM692.4 138.4V95.3l7.5-3.5v46.7l-7.5-.1zM358.4 203.9c-4.2 0-7.5-1.6-10-4.6s-3.7-7.3-3.7-12.7c0-5.3 1.3-9.5 3.8-12.6 2.5-3.1 5.9-4.7 9.9-4.7 3.2 0 5.7 1.1 7.4 3.1v-12.5l7.5-3.4v46.7h-7.5v-2.4c-1.7 2.1-4.2 3.1-7.4 3.1zm1-7.3c2.8 0 4.9-1.1 6.3-3.1v-13.8c-1.5-2.2-3.5-3.1-6.3-3.1-2.4 0-4.1.9-5.4 2.6-1.3 1.8-1.9 4.2-1.9 7.4 0 3 .7 5.5 2 7.3 1.3 1.8 3.1 2.7 5.3 2.7zM394.1 203.9c-4.7 0-8.4-1.6-11.2-4.6-2.7-3-4.1-7.3-4.1-12.7 0-5.4 1.4-9.6 4.1-12.6 2.7-3 6.5-4.6 11.2-4.6 4.2 0 7.6 1.3 10.4 3.9 2.7 2.6 4 6.5 4 11.6 0 1.8-.1 3.3-.3 4.7h-21.9c.1 2.4 1 4.2 2.4 5.6 1.5 1.5 3.2 2.2 5.3 2.2 2.9 0 5.3-1.2 7-3.4l4.8 4.9c-2.9 3.3-6.8 5-11.7 5zm-7.7-20.7H401c-.2-2.4-.9-4.2-2.2-5.4-1.3-1.3-2.8-1.9-4.7-1.9-2.2 0-3.9.6-5.3 1.8-1.4 1.2-2.2 3-2.4 5.5zM413.9 203.1V160l7.5-3.5v46.7l-7.5-.1zM463.1 165.3v37.8h-7.7v-37.8h-12.8v-7.4H476v7.4h-12.9zM475.7 203.1v-33h7.5v3.4c1.4-2.8 3.6-4.2 6.8-4.2 2.4 0 4.4.8 6.2 2.3l-1.1 7c-1.7-1.2-3.5-1.8-5.6-1.8-1.8 0-3.2.6-4.4 1.8-1.2 1.2-1.8 3.2-1.8 6.1v18.5h-7.6zM518.6 203.1v-2.6c-2.2 2.3-5.1 3.4-8.8 3.4-3.5 0-6.4-1-8.6-2.8-2.3-2-3.3-4.6-3.3-8.1 0-3.6 1.3-6.3 3.8-8.1 2.5-1.9 5.6-2.7 9.1-2.7 3.1 0 5.8.6 7.8 1.8v-2c0-2.2-.5-3.6-1.6-4.6-1.1-1-2.6-1.5-4.9-1.5-3.6 0-6.9 1.1-9.8 3.1l-2.4-6.2c3.6-2.4 7.9-3.6 12.9-3.6 1.8 0 3.2.1 4.6.4 1.3.3 2.6.8 4.1 1.7 1.4.8 2.4 2.2 3.2 3.9s1.2 3.9 1.2 6.6v21.3h-7.3zm-7.4-5.9c2.8 0 5.4-1.1 7.3-3.1v-4.3c-1.9-.9-4.1-1.4-6.6-1.4-2.1 0-3.6.4-4.9 1.1-1.3.7-1.9 1.9-1.9 3.3s.5 2.4 1.6 3.1c1.2.8 2.6 1.3 4.5 1.3zM547.5 203.9c-3.1 0-5.6-1.1-7.3-3.3v2.5h-7.5v-43.3l7.5-3.4v16.1c1.9-2.2 4.3-3.2 7.4-3.2 4.1 0 7.4 1.6 9.9 4.7s3.8 7.3 3.8 12.6c0 5.5-1.3 9.8-3.7 12.8-2.4 3-5.8 4.5-10.1 4.5zm-.9-7.3c2.4 0 4.1-.9 5.3-2.6 1.3-1.8 1.9-4.2 1.9-7.4s-.6-5.8-1.9-7.5c-1.3-1.8-3-2.5-5.3-2.5-2.8 0-5 1.1-6.4 3.2v13.8c1.4 2 3.5 3 6.4 3zM585.8 203.1v-2.6c-2.2 2.3-5.1 3.4-8.8 3.4-3.5 0-6.4-1-8.6-2.8-2.3-2-3.3-4.6-3.3-8.1 0-3.6 1.3-6.3 3.8-8.1 2.5-1.9 5.6-2.7 9.1-2.7 3.1 0 5.8.6 7.8 1.8v-2c0-2.2-.5-3.6-1.6-4.6s-2.6-1.5-4.9-1.5c-3.6 0-6.9 1.1-9.8 3.1l-2.4-6.2c3.6-2.4 7.9-3.6 12.9-3.6 1.8 0 3.2.1 4.6.4 1.3.3 2.6.8 4.1 1.7 1.4.8 2.4 2.2 3.2 3.9s1.2 3.9 1.2 6.6v21.3h-7.3zm-7.4-5.9c2.8 0 5.4-1.1 7.3-3.1v-4.3c-1.9-.9-4.1-1.4-6.6-1.4-2.1 0-3.6.4-4.9 1.1-1.3.7-1.9 1.9-1.9 3.3s.5 2.4 1.6 3.1c1.2.8 2.6 1.3 4.5 1.3z"
      class="st0"
    />
    <path
      d="m594.5 217-3.7-5.8c3.4-.7 5.9-1.7 7.2-2.7s2-2.6 2-4.8v-33.6h7.5v31.3c0 4.8-1.1 8.2-3.1 10.5-2.5 2.4-5.7 4.1-9.9 5.1zm12.3-52.8c-.9.9-2 1.4-3.1 1.4-1.3 0-2.4-.5-3.2-1.4-.9-.9-1.4-2-1.4-3.2s.5-2.4 1.4-3.1c.9-.9 2-1.3 3.2-1.3s2.4.4 3.1 1.3c.9.9 1.3 2 1.3 3.1.1 1.3-.4 2.3-1.3 3.2zM628 203.9c-4.7 0-8.3-1.6-11.1-4.6s-4.1-7.2-4.1-12.6c0-5.4 1.4-9.6 4.1-12.7 2.7-3 6.4-4.6 11.1-4.6 4.7 0 8.3 1.6 11.1 4.6 2.7 3 4.1 7.3 4.1 12.7 0 5.4-1.4 9.6-4.1 12.6-2.7 3.1-6.4 4.6-11.1 4.6zm0-7.3c2.4 0 4.2-.9 5.6-2.6 1.4-1.8 2.1-4.2 2.1-7.3 0-3.1-.7-5.6-2.1-7.4-1.4-1.9-3.2-2.7-5.6-2.7-2.3 0-4.1.9-5.5 2.7s-2.1 4.3-2.1 7.4c0 3.1.7 5.6 2.1 7.3 1.3 1.7 3.2 2.6 5.5 2.6zM69.6 66.1c-1.3 2.2-1.7 3-1.7 3-1 1.9-3.3 2.8-5.3 2.1l-3.5-1.4c-2-.8-4.2.3-4.9 2.3l-2.7 7.2c-.8 2 .3 4.2 2.3 4.9l3.5 1.4c2 .8 3.1 3 2.6 5.1l-1.6 7.7c-.3 2.1-2.4 3.7-4.4 3.6l-3.8-.1c-2.1-.1-3.8 1.6-3.9 3.7l-.3 7.6c-.1 2.1 1.6 3.8 3.7 3.9l3.8.1c2.1.1 4 1.9 4.1 3.9l1.1 7.8c.4 2.1-1 4.2-2.9 4.9L52 135c-2 .6-3.1 2.7-2.5 4.8l3.3 11 20.6-6.4c-9.4-23-8.5-50 4.9-73.2s36.3-37.5 60.9-40.9l-4.7-21.2-11.2 2.5c-2.1.5-3.3 2.5-2.8 4.6l.9 3.8c.5 2.1-.8 4.3-2.7 5l-7.3 3c-1.9.9-4.4.1-5.5-1.7l-2.1-3.2c-1.1-1.8-3.4-2.4-5.3-1.2l-6.5 4c-1.8 1.1-2.4 3.4-1.2 5.3l2.1 3.2c1.1 1.8.7 4.3-1 5.6l-6 5.3c-1.5 1.5-4.1 1.6-5.7.2l-2.9-2.4c-1.7-1.4-4-1.1-5.4.6L67 49.9c-1.4 1.7-1.1 4 .6 5.4l2.9 2.4c1.7 1.4 2.1 3.8.9 5.6-.1-.1-.6.7-1.8 2.8zM149 203.8c2.4 0 3.5-.1 3.5-.1 2.1-.1 4.1 1.5 4.4 3.5l.6 3.8c.3 2.1 2.3 3.5 4.4 3.1l7.5-1.2c2.1-.3 3.5-2.4 3.1-4.4l-.6-3.7c-.3-2.1 1.1-4.2 3-4.8l7.5-2.5c2-.8 4.4.1 5.4 2l1.8 3.3c1 1.9 3.3 2.5 5.2 1.6l6.8-3.6c1.9-1 2.5-3.3 1.6-5.2l-1.9-3.4c-1-1.9-.4-4.3 1.3-5.6l6.3-4.8c1.6-1.4 4.2-1.3 5.7.1l2.8 2.6c1.6 1.5 3.9 1.4 5.4-.2l7.8-8.3-15.8-14.6c-15.2 19.7-39.1 32.3-65.8 32.3-26.8 0-50.6-12.6-65.8-32.3L67.4 176l7.8 8.3c1.5 1.6 3.8 1.7 5.4.2l2.8-2.6c1.6-1.5 4.1-1.5 5.7-.1l6.3 4.8c1.7 1.2 2.4 3.7 1.3 5.6l-1.9 3.4c-1 1.9-.3 4.2 1.6 5.2l6.8 3.6c1.9 1 4.2.3 5.2-1.6l1.8-3.3c1-1.9 3.4-2.7 5.4-2l7.5 2.5c2.1.6 3.4 2.7 3 4.8l-.6 3.7c-.3 2.1 1.1 4 3.1 4.4l7.5 1.2c2.1.3 4-1.1 4.4-3.1l.6-3.8c.3-2.1 2.4-3.6 4.4-3.5 0 0 1 .1 3.5.1zM228.5 66.2c-1.3-2.2-1.8-3-1.8-3-1.2-1.8-.8-4.3.9-5.6l2.9-2.4c1.7-1.4 1.9-3.7.6-5.4l-4.8-5.9c-1.4-1.7-3.7-1.9-5.4-.6l-2.9 2.4c-1.7 1.4-4.2 1.2-5.7-.2l-6-5.3c-1.7-1.3-2.1-3.8-1-5.6l2.1-3.2c1.1-1.8.6-4.1-1.2-5.3l-6.5-4c-1.8-1.1-4.1-.6-5.3 1.2l-2.1 3.2c-1.1 1.8-3.5 2.5-5.5 1.7l-7.3-3c-2-.7-3.2-2.9-2.7-5l.9-3.8c.5-2.1-.8-4.1-2.8-4.6l-11.3-2.4-4.8 21c24.7 3.3 47.5 17.6 60.9 40.9 13.4 23.2 14.3 50.2 4.9 73.2l20.6 6.4 3.3-11c.6-2-.5-4.1-2.5-4.8l-3.7-1.2c-2-.6-3.3-2.8-2.9-4.9l1.1-7.8c.2-2.1 2.1-3.8 4.1-3.9l3.8-.1c2.1-.1 3.7-1.9 3.7-3.9l-.3-7.6c-.1-2.1-1.9-3.7-3.9-3.7l-3.8.1c-2.1.1-4.1-1.6-4.4-3.6l-1.6-7.7c-.5-2.1.7-4.3 2.6-5.1l3.5-1.4c2-.8 2.9-2.9 2.3-4.9l-2.7-7.2c-.8-2-2.9-2.9-4.9-2.3l-3.5 1.4c-2 .8-4.3-.2-5.3-2.1 0 .1-.5-.9-1.6-3zM29.8 64.4c-.1.1-.1.2-.1.2s.1-.1.1-.2zM62.6 21.2l.3.4c.9-.6 4-2.8 7.7-3.9C91.4 11.8 90.3 4.7 99.1.5l-.2-.5c-.9.6-3.5 2.2-7.3 2.2-24.4.2-22.5 14.5-29 19z"
      class="st0"
    />
    <path
      d="m38.4 48.2.5.3c4.9-5.5 9.7-6.5 10.5-6.8C68.7 36 75.5 23.2 80.6 19.6l-.2-.3c-7.2 5.1-15.6-.1-30.1 15.4-.1.1-.5-.5-.5-.5 11.8-14.1 12-23.7 17.4-29l-.2-.3C32.8 25.4 47.8 36.5 38.4 48.2z"
      class="st0"
    />
    <path
      d="M39.9 24.6C7.7 56.5 27.6 64.7 22.6 80.5l.3.1c2.9-6.8 10.4-9.7 10.6-9.8 13.6-6.3 17.9-22.2 23.4-27l-.3-.2C50 50.8 39 46.7 30 64.7c0 .1-.6-.3-.6-.3 7.2-15.6 3.8-29.7 10.8-39.5-.1-.1-.2-.3-.3-.3z"
      class="st0"
    />
    <path
      d="M16.5 122.9h.5c-.1-1.9-.6-9.4 7-16.5 15.3-14.2 12.7-26.7 19-36.5l-.5-.3C37.5 78 19.7 87.1 19 99.8l-.7-.1c2.6-18.3-7.1-30.5-1.8-42.1-.2-.1-.4-.2-.5-.3-20.4 42.2-3.4 41.6.5 65.6z"
      class="st0"
    />
    <path
      d="m24.3 162.9.5-.2c-4.2-9.5 2.8-22.4 3.1-23.1 9.3-18 6.2-34.4 8.3-40.1l-.5-.1c-5 12.3-18.7 19.1-16.6 39.9h-.7c-2-12.9-16.7-25.3-16.2-39.4h-.3c-9 50.1 17 49.8 22.4 63z"
      class="st0"
    />
    <path
      d="m45.2 199.9.4-.3c-8.7-10.6-6.1-22-5.9-22.8 4.3-25-3.7-29.5-3.9-40.8h-.4c-.4 12.6-13.3 26.8-1.6 44.5l-.6.4C20.3 162 10 166.6 3.9 147.9c-.2 0-.4.1-.5.2 9 55 33.5 38.3 41.8 51.8z"
      class="st0"
    />
    <path
      d="m95.6 223.9-.1-.5c-17 3.4-25.8.1-28.8-15.6-4.3-22-19.3-30.5-21.1-39.3-.3 0-.4 0-.4.1 3.2 15.6-4.3 24.8 14.4 43.4l-.5.4c-18-14.3-30.5-9-37.6-19-.1.1-.3.2-.3.3C43.5 231 67.5 233 95.6 223.9z"
      class="st0"
    />
    <path
      d="m53.5 230.3.1-.2c22.9 13.3 46.9-5.3 75.9-6 7.2-.2 29.1 1.2 49.1 24.4l-5.3 1.5c-6.6-11.5-16.8-19.8-26.1-22-26.4-6.6-26.9 18-56.2 18.4-21.7.4-36.6-15.2-37.5-16.1zM267.8 64.4c.1.1.1.2.1.2s0-.1-.1-.2z"
      class="st0"
    />
    <path
      d="M267.8 64.4c.1.1.1.2.1.2s0-.1-.1-.2zM29.8 64.4c-.1.1-.1.2-.1.2s.1-.1.1-.2z"
      class="st0"
    />
    <path
      d="M267.8 64.4c.1.1.1.2.1.2s0-.1-.1-.2zM235 21.2l-.3.4c-.9-.6-4-2.8-7.7-3.9-20.8-5.9-19.7-13-28.5-17.2l.3-.4c.9.6 3.5 2.2 7.3 2.2 24.4.1 22.6 14.4 28.9 18.9z"
      class="st0"
    />
    <path
      d="m259.2 48.2-.4.3c-4.9-5.5-9.7-6.5-10.5-6.8-19.3-5.7-26.1-18.5-31.2-22.1l.2-.3c7.2 5.1 15.6-.1 30.1 15.4.1.1.5-.5.5-.5-11.8-14.2-12-23.8-17.4-29l.3-.3c34.1 20.5 19 31.6 28.4 43.3z"
      class="st0"
    />
    <path
      d="M257.9 24.6c32.2 31.9 12.1 40.1 17.2 56l-.3.1c-2.9-6.8-10.4-9.7-10.6-9.8-13.6-6.3-17.9-22.2-23.4-27l.3-.3c6.7 7.2 17.6 3.1 26.6 21.1 0 .1.6-.3.6-.3-7.2-15.6-3.8-29.7-10.8-39.5.2-.1.3-.3.4-.3z"
      class="st0"
    />
    <path
      d="M281.3 122.9h-.5c.1-1.9.6-9.4-7-16.5-15.3-14.2-12.7-26.7-19-36.5l.5-.3c4.9 8.3 22.7 17.4 23.4 30.2l.7-.1c-2.6-18.3 7.1-30.5 1.8-42.1.2-.1.4-.2.5-.3 20.4 42.2 3.4 41.6-.4 65.6z"
      class="st0"
    />
    <path
      d="m273.3 162.9-.5-.2c4.2-9.5-2.8-22.4-3.1-23.1-9.3-18-6.2-34.4-8.3-40.1l.5-.1c5 12.3 18.7 19.1 16.6 39.9h.7c2.2-12.9 16.8-25.3 16.4-39.4h.3c8.9 50.1-17.1 49.8-22.6 63z"
      class="st0"
    />
    <path
      d="m252.6 199.9-.4-.3c8.7-10.6 6.1-22 5.9-22.8-4.3-25 3.7-29.5 3.9-40.8h.4c.4 12.6 13.3 26.8 1.6 44.5l.6.4c12.9-18.9 23.2-14.3 29.3-33 .2 0 .4.1.5.2-9.1 55-33.6 38.3-41.8 51.8z"
      class="st0"
    />
    <path
      d="m202 223.9.1-.5c17 3.4 25.8.1 28.8-15.6 4.3-22 19.3-30.5 21.1-39.3.3 0 .4 0 .4.1-3.2 15.6 4.3 24.8-14.4 43.4l.5.4c18-14.3 30.5-9 37.6-19 .1.1.3.2.3.3-22.2 37.3-46.2 39.3-74.4 30.2z"
      class="st0"
    />
    <path
      d="m244.1 230.3-.1-.2c-22.9 13.3-46.9-5.3-75.9-6-7.2-.2-29.1 1.2-49.1 24.4l5.3 1.5c6.6-11.5 16.8-19.8 26.1-22 26.4-6.6 26.9 18 56.2 18.4 21.9.4 36.8-15.2 37.5-16.1zM29.8 64.4c-.1.1-.1.2-.1.2s.1-.1.1-.2z"
      class="st0"
    />
    <path
      d="M29.8 64.4c-.1.1-.1.2-.1.2s.1-.1.1-.2zM267.8 64.4c.1.1.1.2.1.2s0-.1-.1-.2zM157.1 64.2c.3-4.2 4.8-4.5 4.8-4.5h6v-5.5h-35.2v5.5h6s4.5.3 4.8 4.5v91.5c-.3 4.2-4.8 4.5-4.8 4.5h-6v5.5h35.2v-5.5h-6s-4.5-.3-4.8-4.5V64.2z"
      class="st0"
    />
    <path
      d="M214.5 72.7v23.8H210V90s1.1-14.1-14.3-12.8v63.1s.4 3.7 7.3 3.2v4h-26.5v-4c7.1.4 7.3-3.2 7.3-3.2V77.2C168.7 75.9 169.7 90 169.7 90v6.5h-4.4V72.7h49.2zM106.6 70.3h-.4c-10.7 0-21.1 6.9-26.2 18.4-2.6 5.9-3.2 13.4-3.2 20.8 0 7.3.6 14.9 3.2 20.8 5.1 11.5 15.5 19.4 26.2 19.4h.4c10.7 0 21.1-7.8 26.2-19.4 2.6-5.9 3.2-13.4 3.2-20.8 0-7.3-.6-14.9-3.2-20.8-5.2-11.4-15.5-18.4-26.2-18.4zm16.5 39.7c0 6.9-.2 12.8-.2 12.8-.4 5.6-.5 11.3-3.1 15.1-2.9 4.4-7.6 6.7-12.4 6.7l-.2.1h-.6l-.2-.1c-4.7 0-9.5-2.3-12.4-6.7-2.6-3.8-2.7-9.5-3.1-15.1 0 0-.2-5.9-.2-12.6v-.3c0-6.9.2-12.8.2-12.8.4-5.6.5-11.3 3.1-15.1 2.9-4.4 7.6-6.7 12.4-6.7l.2-.1h.6l.2.1c4.7 0 9.5 2.3 12.4 6.7 2.6 3.8 2.7 9.5 3.1 15.1 0 0 .2 5.9.2 12.6v.3z"
      class="st0"
    />
  </g>
</svg>
