<svg xmlns="http://www.w3.org/2000/svg" id="Calque_1" viewBox="0 0 848.24 250"><defs><style>.cls-1{fill:#fff;stroke-width:0}</style></defs><g id="Lockup"><path d="M346.88 111.68V66.42h7.76v45.22h-7.76v.03Zm35.6 0V92.74c0-5.14-2.06-7.7-6.14-7.7-4.48 0-6.7 2.52-6.7 7.56v19.04h-7.56V78.63h7.56v3.12c2.16-2.59 5.08-3.88 8.73-3.88 3.45 0 6.27 1.06 8.43 3.22 2.19 2.16 3.25 5.57 3.25 10.29v20.27l-7.56.03Zm23.26.76c-5.14 0-7.7-2.82-7.7-8.46V85.23h-4.91v-6.6h4.91V68.61l7.56-3.62v13.64h7.63v6.6h-7.63v17.25c0 2.12.93 3.15 2.79 3.15 1.69 0 3.42-.5 5.18-1.49l-.9 6.77c-1.92 1.03-4.25 1.53-6.93 1.53m25.42 0c-4.71 0-8.39-1.53-11.15-4.61-2.72-3.09-4.11-7.3-4.11-12.71s1.39-9.56 4.15-12.64 6.47-4.61 11.11-4.61c4.21 0 7.66 1.33 10.35 3.95s4.05 6.47 4.05 11.55c0 1.76-.1 3.32-.27 4.64h-21.9c.13 2.32.93 4.21 2.42 5.61 1.49 1.43 3.25 2.12 5.34 2.12 2.92 0 5.24-1.16 6.97-3.42l4.78 4.91c-2.85 3.48-6.8 5.21-11.75 5.21Zm-7.7-20.67h14.6c-.17-2.36-.9-4.18-2.19-5.41s-2.85-1.82-4.71-1.82c-2.16 0-3.95.6-5.34 1.79-1.39 1.16-2.19 2.99-2.36 5.44m26.67 19.91V78.67h7.56v3.42c1.33-2.79 3.58-4.21 6.77-4.21 2.32 0 4.38.76 6.14 2.26l-1.09 6.9c-1.63-1.16-3.52-1.76-5.61-1.76-1.73 0-3.19.6-4.38 1.82-1.19 1.19-1.82 3.22-1.82 6.07v18.48h-7.56v.03Zm44 0V92.74c0-5.14-2.06-7.7-6.14-7.7-4.48 0-6.7 2.52-6.7 7.56v19.04h-7.56V78.63h7.56v3.12c2.16-2.59 5.08-3.88 8.73-3.88 3.45 0 6.27 1.06 8.43 3.22 2.19 2.16 3.25 5.57 3.25 10.29v20.27l-7.56.03Zm32.51 0v-2.65c-2.19 2.29-5.14 3.42-8.79 3.42s-6.4-.96-8.63-2.89c-2.22-1.92-3.32-4.61-3.32-8.1s1.26-6.27 3.78-8.13 5.57-2.79 9.16-2.79c3.15 0 5.74.56 7.83 1.76v-1.76c0-2.12-.53-3.65-1.59-4.58-1.06-.96-2.69-1.43-4.88-1.43-3.58 0-6.87 1.03-9.82 3.12l-2.32-6.14c3.58-2.42 7.9-3.62 12.91-3.62 1.73 0 3.25.13 4.55.43 1.33.3 2.69.83 4.08 1.66s2.49 2.12 3.25 3.88 1.16 3.98 1.16 6.6v21.27l-7.37-.07Zm-7.37-5.87c2.89 0 5.34-1.06 7.37-3.15v-4.28c-1.89-.9-4.08-1.36-6.6-1.36-2.02 0-3.65.36-4.91 1.09s-1.86 1.86-1.86 3.35c0 1.33.53 2.39 1.56 3.15s2.52 1.19 4.45 1.19Zm30.37 6.63c-5.14 0-7.7-2.82-7.7-8.46V85.23h-4.91v-6.6h4.91V68.61l7.56-3.62v13.64h7.63v6.6h-7.63v17.25c0 2.12.93 3.15 2.79 3.15 1.69 0 3.42-.5 5.18-1.49l-.9 6.77c-1.92 1.03-4.25 1.53-6.93 1.53m18.68-39.65c-.86.9-1.92 1.33-3.15 1.33s-2.32-.43-3.19-1.33c-.9-.9-1.33-1.96-1.33-3.19s.43-2.29 1.33-3.15 1.96-1.29 3.19-1.29 2.29.43 3.15 1.29 1.29 1.92 1.29 3.15-.43 2.32-1.29 3.19m-6.97 38.89V78.67h7.56v33.01zm27.47.76c-4.64 0-8.33-1.53-11.05-4.58s-4.08-7.3-4.08-12.67 1.36-9.62 4.08-12.71 6.4-4.61 11.05-4.61 8.33 1.53 11.08 4.61c2.72 3.09 4.11 7.3 4.11 12.71s-1.36 9.59-4.08 12.67c-2.72 3.05-6.4 4.58-11.11 4.58m0-7.23c2.36 0 4.21-.9 5.57-2.65 1.36-1.76 2.02-4.21 2.02-7.37s-.66-5.61-2.02-7.43-3.22-2.72-5.57-2.72-4.11.93-5.51 2.75-2.06 4.31-2.06 7.4.66 5.54 2.02 7.33 3.22 2.69 5.54 2.69Zm40.44 6.47V92.74c0-5.14-2.06-7.7-6.14-7.7-4.48 0-6.7 2.52-6.7 7.56v19.04h-7.56V78.63h7.56v3.12c2.16-2.59 5.08-3.88 8.73-3.88 3.45 0 6.27 1.06 8.43 3.22 2.19 2.16 3.25 5.57 3.25 10.29v20.27l-7.56.03Zm32.55 0v-2.65c-2.19 2.29-5.14 3.42-8.79 3.42s-6.4-.96-8.63-2.89c-2.22-1.92-3.32-4.61-3.32-8.1s1.26-6.27 3.78-8.13 5.57-2.79 9.16-2.79c3.15 0 5.74.56 7.83 1.76v-1.76c0-2.12-.53-3.65-1.59-4.58-1.06-.96-2.69-1.43-4.88-1.43-3.58 0-6.87 1.03-9.82 3.12l-2.32-6.14c3.58-2.42 7.9-3.62 12.91-3.62 1.73 0 3.25.13 4.55.43 1.33.3 2.69.83 4.08 1.66s2.49 2.12 3.25 3.88 1.16 3.98 1.16 6.6v21.27l-7.37-.07Zm-7.4-5.87c2.89 0 5.34-1.06 7.37-3.15v-4.28c-1.89-.9-4.08-1.36-6.6-1.36-2.02 0-3.65.36-4.91 1.09s-1.86 1.86-1.86 3.35c0 1.33.53 2.39 1.56 3.15s2.52 1.19 4.45 1.19Zm20.94 5.87v-43.1l7.56-3.55v46.65zm27.8.76c-4.71 0-8.39-1.53-11.15-4.61-2.72-3.09-4.11-7.3-4.11-12.71s1.39-9.56 4.15-12.64 6.47-4.61 11.11-4.61c4.21 0 7.66 1.33 10.35 3.95s4.05 6.47 4.05 11.55c0 1.76-.1 3.32-.27 4.64h-21.9c.13 2.32.93 4.21 2.42 5.61 1.49 1.43 3.25 2.12 5.34 2.12 2.92 0 5.24-1.16 6.97-3.42l4.78 4.91c-2.85 3.48-6.77 5.21-11.75 5.21Zm-7.66-20.67h14.6c-.17-2.36-.9-4.18-2.19-5.41s-2.85-1.82-4.71-1.82c-2.16 0-3.95.6-5.34 1.79-1.43 1.16-2.19 2.99-2.36 5.44m-318.85 84.51-3.55-9.89h-17.88l-3.55 9.89h-8.2l16.85-45.22h7.7l16.79 45.22zm-6.01-16.85-4.98-13.57c-.63-1.63-1.16-3.15-1.49-4.58-.33 1.26-.83 2.79-1.49 4.58l-5.04 13.57h13.01Zm18.19 16.85v-33.01h7.56v3.42c1.33-2.79 3.58-4.21 6.77-4.21 2.32 0 4.38.76 6.14 2.26l-1.09 6.9c-1.63-1.16-3.52-1.76-5.61-1.76-1.73 0-3.19.6-4.38 1.82-1.19 1.19-1.82 3.22-1.82 6.07v18.48h-7.56v.03Zm38.42.76c-3.12 0-5.54-1.09-7.3-3.28v2.52h-7.56v-43.23l7.56-3.42v16.09c1.86-2.16 4.31-3.22 7.43-3.22 4.08 0 7.4 1.56 9.92 4.64 2.52 3.12 3.78 7.3 3.78 12.61s-1.23 9.79-3.68 12.81c-2.46 2.99-5.84 4.48-10.15 4.48m-.9-7.23c2.32 0 4.11-.9 5.34-2.69s1.82-4.25 1.82-7.4-.63-5.77-1.86-7.5c-1.26-1.73-3.02-2.59-5.31-2.59-2.85 0-4.98 1.06-6.4 3.22v13.77c1.39 2.12 3.52 3.19 6.4 3.19Zm33.35 7.23c-4.71 0-8.39-1.53-11.15-4.61-2.72-3.09-4.11-7.3-4.11-12.71s1.39-9.56 4.15-12.64 6.47-4.61 11.11-4.61c4.21 0 7.66 1.33 10.35 3.95s4.05 6.47 4.05 11.55c0 1.76-.1 3.32-.27 4.64h-21.9c.13 2.32.93 4.21 2.42 5.61 1.49 1.43 3.25 2.12 5.34 2.12 2.92 0 5.24-1.16 6.97-3.42l4.78 4.91c-2.85 3.48-6.8 5.21-11.75 5.21Zm-7.7-20.67h14.6c-.17-2.36-.9-4.18-2.19-5.41s-2.85-1.82-4.71-1.82c-2.16 0-3.95.6-5.34 1.79-1.39 1.16-2.16 2.99-2.36 5.44m33.58-18.94c-.86.9-1.92 1.33-3.15 1.33s-2.32-.43-3.19-1.33-1.33-1.96-1.33-3.19.43-2.29 1.33-3.15 1.96-1.29 3.19-1.29 2.29.43 3.15 1.29 1.29 1.92 1.29 3.15-.43 2.29-1.29 3.19m-6.97 38.85v-33.01h7.56v33.01zm26.05.76c-4.21 0-7.56-1.53-10.02-4.58s-3.68-7.3-3.68-12.74 1.26-9.49 3.82-12.61c2.55-3.12 5.84-4.64 9.89-4.64 3.19 0 5.67 1.03 7.43 3.12v-12.54l7.56-3.42v46.65h-7.56v-2.39c-1.66 2.12-4.11 3.15-7.43 3.15Zm1.16-7.23c2.79 0 4.88-1.06 6.27-3.15v-13.84c-1.43-2.12-3.52-3.15-6.27-3.15-2.32 0-4.11.86-5.41 2.62-1.26 1.76-1.92 4.21-1.92 7.47 0 3.05.63 5.51 1.92 7.33 1.33 1.82 3.12 2.72 5.41 2.72m30.75 7.23c-2.69 0-5.18-.53-7.53-1.56s-4.11-2.42-5.34-4.15l5.18-4.38c2.32 2.32 4.88 3.48 7.7 3.48 3.58 0 5.37-1.06 5.37-3.22 0-.73-.3-1.39-.93-1.99s-1.29-1.06-1.99-1.39-1.86-.8-3.45-1.46c-3.78-1.26-6.57-2.69-8.29-4.31-1.76-1.63-2.62-3.75-2.62-6.44 0-2.89 1.09-5.14 3.32-6.77s5.04-2.42 8.43-2.42c4.98 0 8.93 1.69 11.81 5.11l-5.24 4.28c-1.92-1.86-4.15-2.79-6.6-2.79-2.99 0-4.45.9-4.45 2.72 0 .9.56 1.69 1.66 2.32s2.69 1.33 4.81 1.99c3.58 1.19 6.27 2.62 8.1 4.28 1.82 1.63 2.75 3.92 2.75 6.87 0 3.15-1.16 5.57-3.42 7.27-2.29 1.73-5.37 2.55-9.26 2.55Zm30.93 0c-4.64 0-8.33-1.53-11.05-4.58s-4.08-7.3-4.08-12.67 1.36-9.62 4.08-12.71 6.4-4.61 11.05-4.61 8.33 1.53 11.08 4.61c2.72 3.09 4.11 7.3 4.11 12.71s-1.36 9.59-4.08 12.67c-2.72 3.05-6.44 4.58-11.11 4.58m0-7.23c2.36 0 4.21-.9 5.57-2.65 1.36-1.76 2.02-4.21 2.02-7.37s-.66-5.61-2.02-7.43-3.22-2.72-5.57-2.72-4.11.93-5.51 2.75c-1.39 1.82-2.06 4.31-2.06 7.4s.66 5.54 2.02 7.33 3.19 2.69 5.54 2.69Zm20.04 6.47v-33.01h7.56v3.42c1.33-2.79 3.58-4.21 6.77-4.21 2.32 0 4.38.76 6.14 2.26l-1.09 6.9c-1.63-1.16-3.52-1.76-5.61-1.76-1.73 0-3.19.6-4.38 1.82-1.19 1.19-1.82 3.22-1.82 6.07v18.48h-7.56v.03Zm34.87 12.9-4.01-6.07c4.51-.3 7.66-1 9.39-2.09 1.76-1.09 2.62-2.79 2.62-5.08v-1.86c-1.82 1.99-4.31 2.99-7.5 2.99-4.05 0-7.33-1.49-9.85-4.48q-3.78-4.485-3.78-12.84c0-8.355 1.26-9.56 3.78-12.64 2.52-3.09 5.84-4.61 9.92-4.61 3.12 0 5.57.93 7.43 2.79v-1.99h7.56v29.73c0 5.47-1.16 9.42-3.52 11.88-2.36 2.42-6.37 3.88-12.04 4.28Zm1.79-19.38c2.72 0 4.78-1.06 6.2-3.22v-13.7c-1.49-2.16-3.58-3.22-6.2-3.22-2.36 0-4.18.86-5.47 2.59s-1.92 4.21-1.92 7.5.63 5.57 1.92 7.37c1.36 1.79 3.15 2.69 5.47 2.69Zm38.98 6.48v-2.65c-2.19 2.29-5.14 3.42-8.79 3.42s-6.4-.96-8.63-2.89c-2.22-1.92-3.32-4.61-3.32-8.1s1.26-6.27 3.78-8.13 5.57-2.79 9.16-2.79c3.15 0 5.74.56 7.83 1.76v-1.76c0-2.12-.53-3.65-1.59-4.58-1.06-.96-2.69-1.43-4.88-1.43-3.58 0-6.87 1.03-9.82 3.12l-2.32-6.14c3.58-2.42 7.9-3.62 12.91-3.62 1.73 0 3.25.13 4.55.43 1.33.3 2.69.83 4.08 1.66s2.49 2.12 3.25 3.88 1.16 3.98 1.16 6.6v21.27l-7.37-.07Zm-7.37-5.87c2.89 0 5.34-1.06 7.37-3.15v-4.28c-1.89-.9-4.08-1.36-6.6-1.36-2.02 0-3.65.36-4.91 1.09s-1.86 1.86-1.86 3.35c0 1.33.53 2.39 1.56 3.15s2.52 1.19 4.45 1.19Zm41.18 5.87v-18.94c0-5.14-2.06-7.7-6.14-7.7-4.48 0-6.7 2.52-6.7 7.56v19.04h-7.56v-33.01h7.56v3.12c2.16-2.59 5.08-3.88 8.73-3.88 3.45 0 6.27 1.06 8.43 3.22 2.19 2.16 3.25 5.57 3.25 10.29v20.27l-7.56.03Zm20.61-38.85c-.86.9-1.92 1.33-3.15 1.33s-2.32-.43-3.19-1.33c-.9-.9-1.33-1.96-1.33-3.19s.43-2.29 1.33-3.15 1.96-1.29 3.19-1.29 2.29.43 3.15 1.29 1.29 1.92 1.29 3.15-.43 2.29-1.29 3.19m-6.97 38.85v-33.01h7.56v33.01zm24.32.76c-2.69 0-5.18-.53-7.53-1.56s-4.11-2.42-5.34-4.15l5.18-4.38c2.32 2.32 4.88 3.48 7.7 3.48 3.58 0 5.37-1.06 5.37-3.22 0-.73-.3-1.39-.93-1.99s-1.29-1.06-1.99-1.39-1.86-.8-3.45-1.46c-3.78-1.26-6.57-2.69-8.29-4.31-1.76-1.63-2.62-3.75-2.62-6.44 0-2.89 1.09-5.14 3.32-6.77s5.04-2.42 8.43-2.42c4.98 0 8.93 1.69 11.81 5.11l-5.24 4.28c-1.92-1.86-4.15-2.79-6.6-2.79-2.99 0-4.45.9-4.45 2.72 0 .9.56 1.69 1.66 2.32s2.69 1.33 4.81 1.99c3.58 1.19 6.27 2.62 8.1 4.28 1.82 1.63 2.75 3.92 2.75 6.87 0 3.15-1.16 5.57-3.42 7.27-2.29 1.73-5.37 2.55-9.26 2.55Zm36.63-.76v-2.65c-2.19 2.29-5.14 3.42-8.79 3.42s-6.4-.96-8.63-2.89c-2.22-1.92-3.32-4.61-3.32-8.1s1.26-6.27 3.78-8.13 5.57-2.79 9.16-2.79c3.15 0 5.74.56 7.83 1.76v-1.76c0-2.12-.53-3.65-1.59-4.58-1.06-.96-2.69-1.43-4.88-1.43-3.58 0-6.87 1.03-9.82 3.12l-2.32-6.14c3.58-2.42 7.9-3.62 12.91-3.62 1.73 0 3.25.13 4.55.43 1.33.3 2.69.83 4.08 1.66s2.49 2.12 3.25 3.88 1.16 3.98 1.16 6.6v21.27l-7.37-.07Zm-7.37-5.87c2.89 0 5.34-1.06 7.37-3.15v-4.28c-1.89-.9-4.08-1.36-6.6-1.36-2.02 0-3.65.36-4.91 1.09s-1.86 1.86-1.86 3.35c0 1.33.53 2.39 1.56 3.15s2.49 1.19 4.45 1.19Zm30.33 6.63c-5.14 0-7.7-2.82-7.7-8.46v-18.75h-4.91v-6.6h4.91v-10.02l7.56-3.62v13.64h7.63v6.6h-7.63v17.25c0 2.12.93 3.15 2.79 3.15 1.69 0 3.42-.5 5.18-1.49l-.9 6.77c-1.92 1.06-4.21 1.53-6.93 1.53m18.71-39.61c-.86.9-1.92 1.33-3.15 1.33s-2.32-.43-3.19-1.33-1.33-1.96-1.33-3.19.43-2.29 1.33-3.15 1.96-1.29 3.19-1.29 2.29.43 3.15 1.29 1.29 1.92 1.29 3.15-.43 2.29-1.29 3.19m-7 38.85v-33.01h7.56v33.01zm27.6.76c-4.71 0-8.39-1.53-11.15-4.61-2.72-3.09-4.11-7.3-4.11-12.71s1.39-9.56 4.15-12.64 6.47-4.61 11.11-4.61c4.21 0 7.66 1.33 10.35 3.95s4.05 6.47 4.05 11.55c0 1.76-.1 3.32-.27 4.64h-21.9c.13 2.32.93 4.21 2.42 5.61 1.49 1.43 3.25 2.12 5.34 2.12 2.92 0 5.24-1.16 6.97-3.42l4.78 4.91c-2.85 3.48-6.77 5.21-11.75 5.21Zm-7.66-20.67h14.6c-.17-2.36-.9-4.18-2.19-5.41s-2.85-1.82-4.71-1.82c-2.16 0-3.95.6-5.34 1.79-1.39 1.16-2.19 2.99-2.36 5.44M69.44 66.16c-1.23 2.12-1.69 3.09-1.69 3.09-.93 1.86-3.32 2.79-5.28 2.06l-3.58-1.39c-1.96-.73-4.18.23-4.91 2.19l-2.72 7.13c-.73 1.96.23 4.18 2.19 4.91L57 85.51c1.96.73 3.15 3.02 2.65 5.08l-1.56 7.8c-.33 2.09-2.29 3.72-4.38 3.65l-3.82-.13c-2.09-.07-3.88 1.59-3.95 3.68l-.27 7.6c-.07 2.09 1.59 3.88 3.68 3.95l3.85.13c2.09.07 3.98 1.82 4.15 3.92l1.06 7.86c.36 2.06-1 4.25-2.99 4.88l-3.72 1.13c-1.99.63-3.15 2.75-2.52 4.74l3.35 10.95 20.57-6.34c-9.42-22.99-8.46-49.97 4.91-73.16 13.4-23.19 36.26-37.49 60.92-40.84l-4.78-20.97L123 12.03c-2.06.46-3.32 2.52-2.85 4.58l.86 3.78c.46 2.06-.76 4.31-2.72 5.01l-7.33 3.02c-1.89.86-4.38.13-5.47-1.66l-2.02-3.28c-1.09-1.79-3.45-2.32-5.24-1.23l-6.47 4.01c-1.79 1.09-2.32 3.45-1.23 5.24l2.02 3.25c1.09 1.79.66 4.31-.96 5.64l-5.94 5.24c-1.53 1.46-4.08 1.56-5.71.23l-2.95-2.42c-1.63-1.33-4.05-1.06-5.37.56l-4.81 5.91c-1.33 1.63-1.06 4.05.56 5.37l2.95 2.42c1.63 1.33 1.99 3.85.86 5.57.03-.1-.53.73-1.76 2.89Zm79.33 137.49c2.46 0 3.52-.07 3.52-.07 2.09-.13 4.08 1.46 4.41 3.55l.6 3.78c.33 2.06 2.29 3.48 4.38 3.15l7.53-1.23c2.06-.33 3.48-2.29 3.15-4.38l-.6-3.78c-.33-2.06 1.03-4.25 3.05-4.81l7.53-2.52c1.96-.76 4.38.13 5.34 1.99l1.79 3.38c1 1.86 3.32 2.55 5.14 1.56l6.7-3.58c1.86-1 2.55-3.32 1.56-5.14l-1.82-3.38c-1-1.86-.4-4.35 1.33-5.57l6.27-4.84c1.59-1.36 4.18-1.29 5.71.13l2.82 2.65c1.53 1.43 3.95 1.33 5.37-.2l7.8-8.36-15.79-14.63c-15.23 19.64-39.05 32.32-65.83 32.32S98.13 181 82.9 161.35l-15.79 14.63 7.8 8.36c1.43 1.53 3.85 1.63 5.37.2l2.82-2.65c1.53-1.43 4.11-1.49 5.71-.13l6.27 4.84c1.73 1.23 2.29 3.72 1.33 5.57l-1.82 3.38c-1 1.86-.3 4.18 1.56 5.14l6.7 3.58c1.86 1 4.18.3 5.14-1.56l1.79-3.38c1-1.86 3.38-2.75 5.34-1.99l7.53 2.52c1.99.6 3.38 2.75 3.05 4.81l-.6 3.78c-.33 2.06 1.09 4.05 3.15 4.38l7.53 1.23c2.06.33 4.05-1.09 4.38-3.15l.6-3.78c.33-2.06 2.32-3.65 4.41-3.55.13 0 1.13.07 3.58.07ZM228.2 66.19c-1.23-2.12-1.82-3.02-1.82-3.02-1.16-1.76-.76-4.28.86-5.57l2.95-2.42c1.63-1.33 1.86-3.75.56-5.37l-4.81-5.91c-1.33-1.63-3.75-1.86-5.37-.56l-2.95 2.42c-1.63 1.33-4.18 1.23-5.71-.23l-5.94-5.24c-1.63-1.33-2.06-3.85-.96-5.64l2.02-3.25c1.09-1.79.56-4.15-1.23-5.24l-6.44-4.01c-1.79-1.09-4.15-.56-5.24 1.23l-2.02 3.28c-1.09 1.79-3.58 2.52-5.47 1.66l-7.33-3.02c-1.96-.73-3.19-2.99-2.72-5.01l.86-3.78c.46-2.06-.8-4.11-2.85-4.58l-11.15-2.59-4.78 20.97c24.62 3.35 47.51 17.65 60.92 40.84 13.4 23.19 14.33 50.17 4.91 73.16l20.54 6.37 3.35-10.95c.63-1.99-.53-4.15-2.52-4.74l-3.72-1.13c-1.99-.63-3.35-2.79-2.99-4.88l1.06-7.86c.2-2.09 2.06-3.85 4.15-3.92l3.85-.13a3.815 3.815 0 0 0 3.68-3.95l-.23-7.56a3.815 3.815 0 0 0-3.95-3.68l-3.82.13c-2.09.07-4.08-1.56-4.38-3.65l-1.56-7.8c-.5-2.02.7-4.31 2.65-5.08l3.55-1.36c1.96-.73 2.95-2.95 2.19-4.91l-2.69-7.13c-.73-1.96-2.95-2.95-4.91-2.19l-3.58 1.36c-1.96.73-4.31-.17-5.28-2.06 0 .03-.46-.86-1.69-2.99ZM29.73 64.4c-.07.1-.1.17-.1.17s.03-.07.1-.17m32.75-43.17.3.36c.9-.63 3.98-2.85 7.73-3.88C91.25 11.87 90.22 4.7 98.98.46L98.71 0c-.86.56-3.55 2.12-7.3 2.16-24.32.33-22.46 14.5-28.93 19.08Z" class="cls-1"/><path d="m38.32 48.24.46.3c4.94-5.47 9.69-6.5 10.48-6.74 19.31-5.71 26.05-18.48 31.25-22.1l-.2-.3c-7.13 5.08-15.63-.07-30.06 15.36-.1.1-.5-.46-.5-.46C61.46 20.17 61.76 10.54 67.2 5.27L66.9 5C32.69 25.37 47.69 36.52 38.3 48.23Z" class="cls-1"/><path d="M39.75 24.59C7.53 56.51 27.61 64.67 22.53 80.56l.33.13c2.89-6.74 10.38-9.69 10.55-9.75 13.64-6.3 17.95-22.2 23.39-27.01l-.27-.27c-6.67 7.23-17.68 3.19-26.58 21.07-.03.07-.6-.3-.6-.3 7.23-15.59 3.85-29.73 10.72-39.42-.13-.2-.27-.33-.33-.43Z" class="cls-1"/><path d="m16.32 122.93.46.03c-.13-1.82-.6-9.42 7-16.46 15.3-14.17 12.71-26.74 18.98-36.46l-.46-.27c-4.88 8.29-22.69 17.39-23.42 30.16 0 .03-.7-.07-.66-.1 2.59-18.28-7.07-30.49-1.79-42.07-.17-.13-.36-.2-.46-.27-20.47 41.97-3.48 41.37.36 65.43Z" class="cls-1"/><path d="m24.22 162.84.5-.17c-4.21-9.49 2.85-22.46 3.15-23.09 9.29-18.02 6.17-34.31 8.29-40.01l-.43-.13c-4.94 12.38-18.75 19.08-16.59 39.88 0 .03-.66.03-.66 0-2.19-12.91-16.79-25.28-16.32-39.35-.07 0-.17-.03-.23-.03-9.12 50.03 16.85 49.7 22.3 62.91Z" class="cls-1"/><path d="m45.02 199.87.33-.27c-8.66-10.52-6.04-22-5.91-22.83 4.31-24.95-3.75-29.43-3.95-40.71h-.43c-.36 12.64-13.3 26.84-1.56 44.49l-.56.36C20 162.03 9.75 166.64 3.71 147.86c-.2 0-.43.1-.53.17 9.12 54.94 33.58 38.29 41.84 51.82Z" class="cls-1"/><path d="m95.49 223.86-.1-.5c-17.02 3.42-25.75.13-28.83-15.53-4.35-22-19.31-30.46-21.04-39.25h-.03c-.27 0-.36.03-.43.07 3.22 15.53-4.35 24.75 14.37 43.36l-.5.43c-18.02-14.3-30.39-9.02-37.56-18.98-.13.13-.27.23-.3.33 22.33 37.09 46.25 39.08 74.42 30.06Z" class="cls-1"/><path d="m53.38 230.23.13-.2c22.93 13.37 46.85-5.28 75.88-5.94 7.3-.17 29.03 1.16 49.04 24.39l-5.31 1.53c-6.6-11.48-16.79-19.74-26.01-22.06-26.41-6.6-26.91 18.02-56.24 18.38-21.77.3-36.63-15.23-37.49-16.09ZM267.59 64.4c.03.1.1.17.1.17s-.03-.07-.1-.17" class="cls-1"/><path d="M267.59 64.4c.03.1.1.17.1.17s-.03-.07-.1-.17m-237.86 0c-.03.1-.1.17-.1.17s.03-.07.1-.17" class="cls-1"/><path d="M267.59 64.4c.03.1.1.17.1.17s-.03-.07-.1-.17M234.8 21.23l-.3.36c-.9-.63-3.98-2.85-7.73-3.88C206.03 11.87 207.1 4.7 198.3.46l.27-.46c.86.56 3.55 2.12 7.3 2.16 24.35.33 22.5 14.5 28.93 19.08Z" class="cls-1"/><path d="m258.99 48.24-.43.3c-4.94-5.47-9.69-6.5-10.48-6.74-19.31-5.74-26.05-18.51-31.25-22.13l.2-.3c7.13 5.08 15.59-.07 30.06 15.36.1.1.5-.46.5-.46-11.71-14.13-12.01-23.76-17.45-29.03l.3-.27c34.17 20.4 19.14 31.55 28.57 43.26Z" class="cls-1"/><path d="M257.57 24.59c32.22 31.92 12.14 40.08 17.22 55.97l-.33.13c-2.89-6.74-10.38-9.69-10.55-9.75-13.64-6.3-17.92-22.2-23.39-27.01l.27-.27c6.67 7.23 17.68 3.19 26.58 21.07.03.07.6-.3.6-.3-7.23-15.59-3.85-29.73-10.72-39.42.13-.2.23-.33.33-.43Z" class="cls-1"/><path d="m280.99 122.93-.46.03c.13-1.82.6-9.42-7-16.46-15.3-14.17-12.71-26.74-18.98-36.46l.46-.27c4.88 8.29 22.69 17.39 23.42 30.16 0 .03.7-.07.66-.1-2.59-18.28 7.07-30.49 1.79-42.07.17-.13.36-.2.46-.27 20.47 41.97 3.48 41.37-.36 65.43Z" class="cls-1"/><path d="m273.09 162.84-.5-.17c4.21-9.49-2.85-22.46-3.15-23.09-9.29-18.02-6.17-34.31-8.29-40.01l.43-.13c4.94 12.38 18.75 19.08 16.59 39.88 0 .03.66.03.66 0 2.19-12.91 16.79-25.28 16.32-39.35.07 0 .17-.03.23-.03 9.12 50.03-16.85 49.7-22.3 62.91Z" class="cls-1"/><path d="m252.29 199.87-.33-.27c8.66-10.52 6.04-22 5.91-22.83-4.31-24.95 3.75-29.43 3.95-40.71h.43c.36 12.64 13.3 26.84 1.56 44.49l.56.36c12.94-18.88 23.19-14.27 29.23-33.05.2 0 .43.1.53.17-9.12 54.94-33.58 38.29-41.84 51.82Z" class="cls-1"/><path d="m201.83 223.86.1-.5c17.02 3.42 25.75.13 28.83-15.53 4.35-22 19.31-30.46 21.04-39.25h.03c.27 0 .4.03.43.07-3.22 15.53 4.35 24.75-14.37 43.36l.5.43c18.02-14.3 30.39-9.02 37.56-18.98.13.13.27.23.3.33-22.33 37.09-46.25 39.08-74.42 30.06Z" class="cls-1"/><path d="m243.93 230.23-.13-.2c-22.93 13.37-46.85-5.28-75.88-5.94-7.27-.17-29.03 1.16-49.04 24.39l5.31 1.53c6.6-11.48 16.79-19.74 26.01-22.06 26.38-6.6 26.91 18.02 56.24 18.38 21.73.3 36.63-15.23 37.49-16.09ZM29.73 64.4c-.03.1-.1.17-.1.17s.03-.07.1-.17" class="cls-1"/><path d="M29.73 64.4c-.03.1-.1.17-.1.17s.03-.07.1-.17m237.86 0c.03.1.1.17.1.17s-.03-.07-.1-.17m-83.28.7h-.4c-10.72 0-21 6.9-26.14 18.38-2.59 5.84-3.19 13.44-3.22 20.77 0 7.3.6 14.9 3.22 20.74 5.11 11.48 15.43 19.34 26.14 19.34h.4c10.72 0 21-7.86 26.11-19.34 2.59-5.84 3.19-13.44 3.22-20.74 0-7.3-.6-14.93-3.22-20.77C205.31 72 195.03 65.1 184.31 65.1m16.49 39.62c-.03 6.87-.2 12.81-.2 12.81-.43 5.61-.53 11.25-3.12 15.1-2.95 4.35-7.66 6.64-12.41 6.64l-.2.07h-.6l-.17-.07c-4.74 0-9.46-2.29-12.41-6.64-2.59-3.85-2.69-9.49-3.12-15.1 0 0-.17-5.84-.17-12.67v-.3c0-6.87.17-12.81.17-12.81.43-5.61.53-11.25 3.12-15.1 2.95-4.35 7.66-6.64 12.41-6.64l.17-.07h.6l.17.07c4.74 0 9.46 2.26 12.41 6.64 2.62 3.85 2.69 9.49 3.12 15.1 0 0 .17 5.84.2 12.67z" class="cls-1"/><path d="M192.34 147.61s-2.09 5.44-6.01 8.79c-2.16 1.82-5.31 2.32-7.83 2.62l-26.34 1.29h-5.81s-4.41-.23-4.64-4.35V63.64c.23-4.11 4.64-4.35 4.64-4.35h5.81v-5.37h-35.27v5.37h5.84s4.41.23 4.64 4.35v92.34c-.23 4.11-4.64 4.35-4.64 4.35h-5.84v5.37h35.24l38.16.13 4.68-17.02v-.6l-2.62-.6Z" class="cls-1"/><path d="M109.52 75.25c.2-3.42 3.88-3.62 3.88-3.62h4.84v-4.48h-29.4v4.48h4.84s3.68.2 3.88 3.62v59.02c-.2 3.42-3.88 3.62-3.88 3.62h-4.84v4.48h29.4v-4.45h-4.84s-3.68-.2-3.88-3.62V75.24Z" class="cls-1"/></g></svg>