<svg xmlns="http://www.w3.org/2000/svg" xml:space="preserve" id="Calque_1" x="0" y="0" version="1.1" viewBox="0 0 2858.9 1000"><style>.st0{fill:#fff}</style><g id="Lockup"><path d="M1378.8 212.2c0-45.1 21.2-94.2 79.6-94.2s79.6 49.1 79.6 94.2-21.2 94.2-79.6 94.2c-58.4-1.4-79.6-50.4-79.6-94.2m127.3 0c0-29.2-11.9-63.7-47.8-63.7s-47.8 35.8-47.8 63.7 11.9 63.7 47.8 63.7c34.5 0 47.8-35.8 47.8-63.7m61.1-42.4h30.5V183c5.3-10.6 14.6-17.2 26.5-17.2 9.3 0 17.2 2.6 23.9 9.3l-4 27.8c-5.3-4-11.9-6.6-22.6-6.6-11.9 0-25.2 6.6-25.2 31.8v74.3h-30.5zm128.6 159.1c37.1-2.6 47.8-10.6 47.8-29.2v-8c-8 8-18.6 11.9-30.5 11.9-30.5 0-54.4-23.9-54.4-69 0-42.4 22.6-69 54.4-69 13.3 0 23.9 5.3 29.2 10.6v-8h30.5v119.4c0 43.8-17.2 61-62.3 65zm47.8-65v-54.4c-5.3-6.6-13.3-13.3-25.2-13.3-18.6 0-29.2 14.6-29.2 39.8 0 23.9 10.6 39.8 29.2 39.8 11.9.1 19.8-3.9 25.2-11.9m139.2 27.9c-6.6 6.6-17.2 13.3-34.5 13.3-26.5 0-47.8-14.6-47.8-43.8s25.2-43.8 51.7-43.8c11.9 0 22.6 2.6 31.8 6.6v-6.6c0-17.2-8-23.9-25.2-23.9-15.9 0-27.8 5.3-39.8 11.9l-9.3-25.2c11.9-8 29.2-14.6 51.7-14.6 23.9 0 51.7 5.3 51.7 50.4V301h-29.2zm0-25.2v-17.2c-6.6-2.6-15.9-5.3-26.5-5.3-14.6 0-26.5 5.3-26.5 17.2 0 10.6 8 17.2 23.9 17.2 11.9 0 22.5-5.3 29.1-11.9m141.9-39.8c0-21.2-9.3-30.5-25.2-30.5s-26.5 8-26.5 30.5v75.6h-30.5V171.1h30.5V183c8-10.6 19.9-15.9 34.5-15.9 25.2 0 46.4 13.3 46.4 54.4v80.9h-30.5zm59.7-92.8c0-9.3 8-17.2 18.6-17.2s17.2 8 17.2 17.2c0 10.6-8 18.6-17.2 18.6s-18.6-8-18.6-18.6m2.6 35.8h30.5v132.6H2087zm59.7 108.7 69-80.9H2152v-26.5h100.8V195l-69 82.2h69v26.5h-106.1zm210.9 13.3c-6.6 6.6-17.2 13.3-34.5 13.3-26.5 0-47.8-14.6-47.8-43.8s25.2-43.8 51.7-43.8c11.9 0 22.6 2.6 31.8 6.6v-6.6c0-17.2-8-23.9-25.2-23.9-15.9 0-27.8 5.3-39.8 11.9l-9.3-25.2c11.9-8 29.2-14.6 51.7-14.6 23.9 0 51.7 5.3 51.7 50.4V301h-29.2zm0-25.2v-17.2c-6.6-2.6-15.9-5.3-26.5-5.3-14.6 0-26.5 5.3-26.5 17.2 0 10.6 8 17.2 23.9 17.2 13.2 0 22.5-5.3 29.1-11.9m82.2 87.5 13.3-10.6c2.6 2.6 5.3 4 10.6 4 8 0 11.9-4 11.9-10.6s-5.3-10.6-13.3-10.6c-4 0-8 1.3-10.6 2.6l-5.3-8 14.6-17.2c-30.5-4-49.1-29.2-49.1-67.6 0-42.4 22.6-69 58.4-69 25.2 0 45.1 10.6 51.7 35.8l-29.2 9.3c-4-10.6-11.9-17.2-22.6-17.2-18.6 0-29.2 15.9-29.2 39.8s10.6 39.8 27.8 39.8c11.9 0 19.9-6.6 23.9-18.6l29.2 9.3c-6.6 23.9-22.6 37.1-46.4 39.8l-5.3 9.3c19.9 0 29.2 10.6 29.2 22.6 0 15.9-11.9 27.8-34.5 27.8-11.8 0-19.8-5.4-25.1-10.7m184.4-62.3c-6.6 6.6-17.2 13.3-34.5 13.3-26.5 0-47.8-14.6-47.8-43.8s25.2-43.8 51.7-43.8c11.9 0 22.6 2.6 31.8 6.6v-6.6c0-17.2-8-23.9-25.2-23.9-15.9 0-27.8 5.3-39.8 11.9l-9.3-25.2c11.9-8 29.2-14.6 51.7-14.6 23.9 0 51.7 5.3 51.7 50.4V301h-29.2zm-45.1-152.6c-6.6 0-11.9 2.6-11.9 10.6h-14.6c0-21.2 8-34.5 27.8-34.5 18.6 0 29.2 11.9 42.4 11.9 6.6 0 11.9-2.6 11.9-10.6h14.6c0 19.9-8 34.5-27.8 34.5-18.5.1-29.1-11.9-42.4-11.9m45.1 127.4v-17.2c-6.6-2.6-15.9-5.3-26.5-5.3-14.6 0-26.5 5.3-26.5 17.2 0 10.6 8 17.2 23.9 17.2 11.8 0 22.5-5.3 29.1-11.9m53-30.5c0-42.4 23.9-69 61-69s61 26.5 61 69-23.9 69-61 69-61-25.3-61-69m91.6 0c0-25.2-11.9-41.1-30.5-41.1s-30.5 15.9-30.5 41.1 11.9 39.8 30.5 39.8 30.5-14.6 30.5-39.8m-1382 143.2h30.5v180.4h-30.5zm149.8 106.1c0-21.2-9.3-30.5-23.9-30.5-15.9 0-26.5 8-26.5 30.5V561h-30.5V429.7h30.5v11.9c8-10.6 19.9-15.9 34.5-15.9 25.2 0 46.4 13.3 46.4 54.4V561h-30.5zm70.3 43.8v-75.6H1587V427h19.9v-39.8l30.5-14.6V427h30.5v26.5h-30.5v69c0 8 2.6 13.3 10.6 13.3 6.6 0 13.3-2.6 21.2-6.6l-4 26.5c-8 4-17.2 6.6-27.8 6.6-21.2 1.3-30.4-11.9-30.5-33.1m78.3-34.5c0-42.4 23.9-69 61-69 31.8 0 57 19.9 57 62.3 0 5.3 0 13.3-1.3 18.6h-87.5c1.3 19.9 14.6 30.5 30.5 30.5 11.9 0 21.2-4 27.8-13.3l18.6 19.9c-10.6 11.9-25.2 21.2-46.4 21.2-35.8-1.3-59.7-27.8-59.7-70.2m88.8-13.3c-1.3-19.9-14.6-29.2-27.8-29.2-15.9 0-29.2 8-30.5 29.2zm55.8-53h30.5v13.3c5.3-10.6 14.6-17.2 26.5-17.2 9.3 0 17.2 2.6 25.2 9.3l-4 27.8c-5.3-4-11.9-6.6-22.6-6.6-11.9 0-25.2 6.6-25.2 31.8V561h-30.5V428.4zm180.3 57c0-21.2-9.3-30.5-25.2-30.5s-26.5 8-26.5 30.5V561h-30.5V429.7h30.5v11.9c8-10.6 19.9-15.9 34.5-15.9 25.2 0 46.4 13.3 46.4 54.4V561h-29.2zm137.9 65c-6.6 6.6-17.2 13.3-34.5 13.3-26.5 0-47.8-14.6-47.8-43.8s25.2-43.8 51.7-43.8c11.9 0 22.6 2.6 31.8 6.6v-6.6c0-17.2-8-23.9-25.2-23.9-15.9 0-27.8 4-39.8 11.9l-9.3-23.9c11.9-8 29.2-14.6 51.7-14.6 23.9 0 51.7 5.3 51.7 50.4v85h-29.2zm0-26.5v-17.2c-6.6-2.6-15.9-5.3-26.5-5.3-14.6 0-26.5 5.3-26.5 17.2 0 10.6 8 17.2 23.9 17.2 11.9 1.3 22.5-4 29.1-11.9m54.4-29.2c0-42.4 22.6-69 58.4-69 25.2 0 45.1 10.6 51.7 35.8l-29.2 9.3c-4-10.6-11.9-17.2-22.6-17.2-18.6 0-29.2 15.9-29.2 39.8s10.6 39.8 27.8 39.8c11.9 0 19.9-6.6 23.9-18.6l29.2 9.3c-8 26.5-25.2 39.8-53 39.8-34.4 0-57-25.2-57-69M2339 392.6c0-9.3 8-17.2 18.6-17.2s17.2 8 17.2 17.2c0 10.6-8 18.6-17.2 18.6s-18.6-9.4-18.6-18.6m2.7 35.8h30.5V561h-30.5zm57 66.3c0-42.4 23.9-69 61-69s61 26.5 61 69-23.9 69-61 69-61-25.3-61-69m91.5 0c0-25.2-11.9-41.1-30.5-41.1s-30.5 15.9-30.5 41.1 11.9 39.8 30.5 39.8 30.5-14.6 30.5-39.8m138-9.3c0-21.2-9.3-30.5-25.2-30.5s-26.5 8-26.5 30.5V561H2546V429.7h30.5v11.9c8-10.6 19.9-15.9 34.5-15.9 25.2 0 46.4 13.3 46.4 54.4V561h-30.5zm137.9 65c-6.6 6.6-17.2 13.3-34.5 13.3-26.5 0-47.8-14.6-47.8-43.8s25.2-43.8 51.7-43.8c11.9 0 22.6 2.6 31.8 6.6v-6.6c0-17.2-8-23.9-25.2-23.9-15.9 0-27.8 4-39.8 11.9l-9.3-23.9c11.9-8 29.2-14.6 51.7-14.6 23.9 0 51.7 5.3 51.7 50.4v85H2766zm0-26.5v-17.2c-6.6-2.6-15.9-5.3-26.5-5.3-14.6 0-26.5 5.3-26.5 17.2 0 10.6 8 17.2 23.9 17.2 13.2 1.3 22.5-4 29.1-11.9m62.3-135.3 30.5-14.6v187h-30.5zM1376.2 752c0-42.4 22.6-69 54.4-69 14.6 0 23.9 5.3 29.2 11.9v-50.4l30.5-13.3v187h-30.5V809c-6.6 8-15.9 13.3-29.2 13.3-33.2 0-54.4-25.2-54.4-70.3m84.8 27.8v-55.7c-4-5.3-11.9-13.3-25.2-13.3-18.6 0-29.2 14.6-29.2 39.8 0 23.9 10.6 39.8 29.2 39.8 12 2.7 19.9-1.3 25.2-10.6m57.1-26.5c0-42.4 23.9-69 61-69s61 26.5 61 69-23.9 69-61 69-61-26.5-61-69m91.5 0c0-25.2-11.9-41.1-30.5-41.1s-30.5 15.9-30.5 41.1 11.9 39.8 30.5 39.8 30.5-14.6 30.5-39.8m183 65h-30.5V667.1h-51.7V638h134v29.2h-51.7v151.1zm67.6-131.3h30.5v13.3c5.3-10.6 14.6-17.2 26.5-17.2 9.3 0 17.2 2.6 25.2 9.3l-4 27.8c-5.3-4-11.9-6.6-22.6-6.6-11.9 0-25.2 6.6-25.2 31.8v74.3h-30.5V687zm171.1 120.7c-6.6 6.6-17.2 13.3-34.5 13.3-26.5 0-47.8-14.6-47.8-43.8s25.2-43.8 51.7-43.8c11.9 0 22.6 2.6 31.8 6.6v-6.6c0-17.2-8-23.9-25.2-23.9-15.9 0-27.8 4-39.8 11.9l-9.3-23.9c11.9-8 29.2-14.6 51.7-14.6 23.9 0 51.7 5.3 51.7 50.4v84.9h-29.2zm0-25.2v-17.2c-6.6-2.6-15.9-5.3-26.5-5.3-14.6 0-26.5 5.3-26.5 17.2 0 10.6 8 17.2 23.9 17.2 13.2 1.3 22.5-5.3 29.1-11.9m91.5 26.5v10.6h-30.5V647.2l30.5-13.3v63.7c6.6-8 15.9-13.3 29.2-13.3 31.8 0 54.4 26.5 54.4 69 0 45.1-21.2 69-55.7 69-13.3-.1-22.6-5.4-27.9-13.3m54.4-57c0-26.5-10.6-39.8-29.2-39.8-11.9 0-21.2 6.6-25.2 13.3v55.7c5.3 8 14.6 13.3 25.2 13.3 18.6-1.4 29.2-17.3 29.2-42.5m131.3 55.7c-6.6 6.6-17.2 13.3-34.5 13.3-26.5 0-47.8-14.6-47.8-43.8s25.2-43.8 51.7-43.8c11.9 0 22.6 2.6 31.8 6.6v-6.6c0-17.2-8-23.9-25.2-23.9-15.9 0-27.8 4-39.8 11.9l-9.3-23.9c11.9-8 29.2-14.6 51.7-14.6 23.9 0 51.7 5.3 51.7 50.4v84.9h-29.2zm0-25.2v-17.2c-6.6-2.6-15.9-5.3-26.5-5.3-14.6 0-26.5 5.3-26.5 17.2 0 10.6 8 17.2 23.9 17.2 13.2 1.3 22.5-5.3 29.1-11.9m62.3-136.6 30.5-14.6v187h-30.5zm65 0 30.5-13.3v66.3c8-10.6 19.9-15.9 34.5-15.9 25.2 0 46.4 13.3 46.4 54.4v80.9h-30.5v-75.6c0-21.2-9.3-30.5-25.2-30.5s-26.5 8-26.5 29.2v76.9h-30.5zm138 107.4c0-42.4 23.9-69 61-69s61 26.5 61 69-23.9 69-61 69-61-26.5-61-69m90.2 0c0-25.2-11.9-41.1-30.5-41.1s-30.5 15.9-30.5 41.1 11.9 39.8 30.5 39.8c19.8 0 30.5-14.6 30.5-39.8M278 263.9c-5.3 8-6.6 11.9-6.6 11.9-4 8-13.3 10.6-21.2 8l-14.6-5.3c-8-2.6-17.2 1.3-19.9 9.3L205.1 317c-2.6 8 1.3 17.2 9.3 19.9l14.6 5.3c8 2.6 13.3 11.9 10.6 19.9l-6.6 30.5c-1.3 8-9.3 14.6-17.2 14.6h-14.6c-8 0-15.9 6.6-15.9 14.6l-1.3 30.5c0 8 6.6 15.9 14.6 15.9h15.9c8 0 15.9 6.6 15.9 15.9l4 31.8c1.3 8-4 17.2-11.9 19.9l-14.6 4c-8 2.6-11.9 10.6-10.6 18.6l13.3 43.8 82.2-25.2c-37.1-91.5-33.2-200.3 19.9-291.8 53-92.8 144.6-149.9 244-163.1L538 38.4 492.9 49c-8 1.3-13.3 10.6-11.9 18.6l4 14.6c1.3 8-2.6 17.2-10.6 19.9L445.2 114c-8 4-17.2 0-22.6-6.6l-8-13.3c-4-6.6-13.3-9.3-21.2-5.3l-26.5 15.9c-6.6 4-9.3 14.6-5.3 21.2l8 13.3c4 6.6 2.6 17.2-4 22.6L341.7 183c-6.6 5.3-15.9 6.6-22.6 1.3l-11.9-9.3c-6.6-5.3-15.9-4-21.2 2.6l-19.9 23.9c-5.3 6.6-4 15.9 2.6 21.2l11.9 9.3c6.6 5.3 8 15.9 4 22.6 0-2.6-1.3 1.4-6.6 9.3M595 813h14.6c8 0 15.9 5.3 17.2 14.6l2.6 14.6c1.3 8 9.3 14.6 17.2 11.9l30.5-5.3c8-1.3 13.3-9.3 13.3-17.2l-2.6-14.6c-1.3-8 4-17.2 11.9-19.9l30.5-10.6c8-2.6 17.2 0 21.2 8l6.6 13.3c4 8 13.3 10.6 19.9 6.6l26.5-14.6c8-4 10.6-13.3 6.6-19.9l-6.6-13.3c-4-8-1.3-17.2 5.3-22.6l25.2-19.9c6.6-5.3 17.2-5.3 22.6 0l10.6 10.6c6.6 5.3 15.9 5.3 21.2-1.3l30.5-33.2-63.7-58.4c-61 78.2-156.5 128.6-262.6 128.6S391.9 720 330.9 641.8l-63.7 58.4 31.8 33.2c5.3 6.6 15.9 6.6 21.2 1.3l11.9-10.6c6.6-5.3 15.9-6.6 22.6 0l25.2 19.9c6.6 5.3 9.3 14.6 5.3 22.6l-6.6 14.6c-4 8-1.3 17.2 6.6 19.9l26.5 14.6c8 4 17.2 1.3 21.2-6.6l6.6-13.3c4-8 13.3-10.6 21.2-8l30.5 10.6c8 2.6 13.3 10.6 11.9 19.9l-2.6 14.6c-1.3 8 4 15.9 13.3 17.2l30.5 5.3c8 1.3 15.9-4 17.2-13.3l2.6-14.6c1.3-8 9.3-14.6 17.2-14.6h13.3zm317-549.1c-5.3-8-8-11.9-8-11.9-4-6.6-2.6-17.2 4-22.6l11.9-9.3c6.6-5.3 8-14.6 2.6-21.2L904 175c-5.3-6.6-14.6-8-21.2-2.6l-11.9 9.3c-6.6 5.3-17.2 5.3-22.6-1.3l-23.9-21.2c-6.6-5.3-8-15.9-4-22.6l8-13.3c4-5.3 1.3-14.6-5.3-19.9l-26.5-15.9c-6.6-4-15.9-1.3-19.9 5.3l-8 13.3c-4 6.6-14.6 10.6-22.6 6.6L717 100.8c-8-2.6-13.3-11.9-10.6-19.9L709 65c1.3-8-2.6-15.9-11.9-18.6L652 35.8l-18.6 83.6c98.2 13.3 189.6 70.3 244 163.1s57 200.3 19.9 291.8l82.2 25.2 13.3-43.8c2.6-8-2.6-15.9-10.6-18.6l-14.6-4c-8-2.6-13.3-10.6-11.9-19.9l4-31.8c1.3-8 8-15.9 15.9-15.9h15.9c8 0 14.6-6.6 14.6-15.9l-1.3-30.5c0-8-8-14.6-15.9-14.6H973c-8 0-15.9-6.6-17.2-14.6l-6.6-31.8c0-5.3 5.3-14.6 13.3-17.2l14.6-5.3c8-2.6 11.9-11.9 9.3-19.9l-10.6-27.8c-2.6-8-11.9-11.9-19.9-9.3l-14.6 5.3c-8 2.6-17.2 0-21.2-8-.1 0-2.8-2.7-8.1-12m-661.8-179 1.3 1.3c4-2.6 15.9-11.9 30.5-15.9 82.2-23.9 78.2-51.7 114-69L394.7 0c-2.6 1.3-14.6 8-29.2 8-96.7 1.3-90.1 58.3-115.3 76.9" class="st0"/><path d="m153.4 192.3 1.3 1.3c19.9-21.2 38.5-26.5 42.4-26.5 76.9-22.6 103.4-74.3 124.7-88.8l-1.3-1.3c-27.8 19.9-62.3 0-120.7 61l-1.3-1.3c46.4-57 47.8-95.5 70.3-116.7l-1.3-1.3c-136.7 82.1-75.7 127.2-114.1 173.6" class="st0"/><path d="M158.6 98.2C30 225.5 109.6 258.6 89.7 322.3H91c11.9-26.5 41.1-38.5 42.4-38.5 54.4-25.2 71.6-88.8 94.2-107.4l-1.3-1.3c-26.5 29.2-70.3 13.3-106.1 83.6l-2.6-1.3c29.1-62.4 15.8-119.5 42.4-158 0-.8-.5-1.3-1.4-1.2" class="st0"/><path d="M65.8 490.7h1.3c0-6.6-2.6-37.1 27.8-66.3 61-57 50.4-107.4 75.6-145.9l-1.3-1.3c-19.9 33.2-90.2 69-94.2 120.7h-2.6c10.6-73-27.8-122-6.6-168.4-1.3 0-1.3-1.3-1.3-1.3-82.3 168.4-14.6 167 1.3 262.5" class="st0"/><path d="M97.6 651.2h2.6c-17.2-38.5 11.9-90.2 11.9-92.8 37.1-71.6 25.2-136.6 33.2-160.5H144C124.2 447 68.4 473.5 77.7 557h-2.6C65.8 505.3 7.4 454.9 8.8 399.2H7.4c-35.8 200.3 67.7 198.9 90.2 252" class="st0"/><path d="m179.9 798.4 1.3-1.3c-34.5-42.4-23.9-87.5-23.9-91.5 17.2-99.5-14.6-118-15.9-163.1h-1.3c-1.3 50.4-53 107.4-6.6 177.7l-2.6 1.3c-51.7-75.6-92.8-57-116.7-132.6h-2.6C49.9 810.3 148 744 179.9 798.4" class="st0"/><path d="M381.5 893.9v-2.6c-67.6 13.3-103.4 0-115.4-62.3-17.2-87.5-76.9-122-83.6-156.5h-1.3c13.3 62.3-17.2 99.5 57 173.8l-1.3 1.3c-71.6-57-122-35.8-149.9-75.6l-1.3 1.3c88.9 149.8 184.4 157.8 295.8 120.6" class="st0"/><path d="M214.4 920.4c92.8 53 188.3-21.2 303.7-23.9 29.2-1.3 116.7 4 196.3 96.8l-21.2 6.6c-26.5-46.4-67.6-78.2-103.4-88.8-106.1-26.5-107.4 71.6-225.5 73-87.6 1.3-147.3-61-149.9-63.7M938.5 84.9l-1.3 1.3c-4-2.6-15.9-11.9-30.5-15.9-82.2-23.9-78.2-51.7-114-69L794 0c4 2.6 14.6 8 29.2 8 98 1.3 90.1 58.3 115.3 76.9" class="st0"/><path d="m1035.3 192.3-1.3 1.3c-19.9-21.2-38.5-26.5-42.4-26.5-76.9-22.6-103.4-74.3-124.7-88.8l1.3-1.3c29.2 19.9 62.3 0 120.7 61l2.6-1.3c-46.4-57-47.8-95.5-70.3-116.7l1.3-1.3c135.3 82.1 75.7 127.2 112.8 173.6" class="st0"/><path d="M1030 98.2c128.6 127.3 49.1 160.5 69 224.1h-1.3c-11.9-26.5-41.1-38.5-42.4-38.5-54.4-25.2-71.6-88.8-94.2-107.4l1.3-1.3c26.5 29.2 70.3 13.3 106.1 83.6l2.6-1.3c-29.2-62.3-15.9-119.4-42.4-157.8 0-1.5 1.3-1.5 1.3-1.4" class="st0"/><path d="M1124.2 490.7h-1.3c0-6.6 2.6-37.1-27.8-66.3-61-57-50.4-107.4-75.6-145.9l1.3-1.3c19.9 33.2 90.2 69 94.2 120.7h2.6c-10.6-73 27.8-122 6.6-168.4 1.3 0 1.3-1.3 1.3-1.3 80.9 168.4 13.3 167-1.3 262.5" class="st0"/><path d="M1092.4 651.2h-2.6c17.2-38.5-11.9-90.2-11.9-92.8-37.1-71.6-25.2-136.6-33.2-160.5h1.3c19.9 49.1 75.6 75.6 66.3 159.2h2.6c9.3-51.7 67.6-100.8 65-157.8h1.3c35.8 200.2-67.6 198.8-88.8 251.9" class="st0"/><path d="M1008.8 798.4c33.2-43.8 22.6-88.8 22.6-92.8-17.2-99.5 14.6-118 15.9-163.1h1.3c1.3 50.4 53 107.4 6.6 177.7l2.6 1.3c51.7-75.6 92.8-57 116.7-132.6h2.6c-37 221.4-135.1 155.1-168.3 209.5" class="st0"/><path d="M807.2 893.9v-2.6c67.6 13.3 103.4 0 115.4-62.3 17.2-87.5 76.9-122 83.6-156.5h1.3c-13.3 62.3 17.2 99.5-57 173.8l2.6 1.3c71.6-57 122-35.8 149.9-75.6l1.3 1.3c-88.9 149.8-184.4 157.8-297.1 120.6" class="st0"/><path d="M975.6 920.4c-92.8 53-188.3-21.2-303.7-23.9-29.2-1.3-116.7 4-196.3 96.8l21.2 6.6c26.5-46.4 67.6-78.2 103.4-88.8 106.1-26.5 107.4 71.6 225.5 73 86.3 1.3 146-61 149.9-63.7M628.2 256c1.3-17.2 18.6-18.6 18.6-18.6h23.9v-22.6H530v22.6h23.9s18.6 1.3 18.6 18.6v364.7c-1.3 17.2-18.6 17.2-18.6 17.2H530v23.9h140.6v-22.6h-23.9s-18.6-1.3-18.6-17.2V256z" class="st0"/><path d="M857.6 290.4v95.5h-17.2v-26.5s4-55.7-57-51.7v252s1.3 14.6 29.2 13.3v15.9H706.4V573c27.8 1.3 29.2-13.3 29.2-13.3v-252c-61-5.3-57 51.7-57 51.7v26.5h-17.2v-95.5zm-432.4-9.2h-1.3c-42.4 0-83.6 27.8-104.8 73-10.6 23.9-13.3 53-13.3 83.6s2.6 59.7 13.3 82.2c19.9 46.4 61 76.9 104.8 76.9h1.3c42.4 0 83.6-31.8 104.8-76.9 10.6-23.9 13.3-53 13.3-82.2s-2.6-59.7-13.3-83.6c-19.9-46.5-61-73-104.8-73M491.6 439c0 27.8-1.3 51.7-1.3 51.7-1.3 22.6-2.6 45.1-11.9 59.7-11.9 17.2-30.5 26.5-49.1 26.5h-4c-18.6 0-38.5-9.3-49.1-26.5-10.6-15.9-10.6-38.5-11.9-59.7V387.3c1.3-22.6 2.6-45.1 11.9-59.7 11.9-17.2 30.5-26.5 49.1-26.5h2.6c18.6 0 37.1 9.3 49.1 26.5 10.6 15.9 10.6 38.5 11.9 59.7 1.3 0 2.7 23.9 2.7 51.7" class="st0"/></g></svg>