<?xml version="1.0" encoding="utf-8"?>
<!-- Generator: Adobe Illustrator 24.0.1, SVG Export Plug-In . SVG Version: 6.00 Build 0)  -->
<svg version="1.1" id="Calque_1" xmlns="http://www.w3.org/2000/svg" xmlns:xlink="http://www.w3.org/1999/xlink" x="0px" y="0px"
	 viewBox="0 0 205.28 75.34" style="enable-background:new 0 0 205.28 75.34;" xml:space="preserve">
<style type="text/css">
	.st0{display:none;}
	.st1{fill:#FFFFFF;}
</style>
<g id="Grid_Background" class="st0">
</g>
<g id="Lockup">
	<g>
		<g>
			<g>
				<path class="st1" d="M21.28,19.85c-0.37,0.64-0.51,0.93-0.51,0.93c-0.28,0.56-1,0.84-1.59,0.62l-1.08-0.41
					c-0.59-0.22-1.26,0.07-1.48,0.66l-0.82,2.15c-0.22,0.59,0.07,1.26,0.66,1.48l1.07,0.41c0.59,0.22,0.95,0.91,0.8,1.53l-0.47,2.35
					c-0.1,0.63-0.69,1.12-1.32,1.1l-1.15-0.04c-0.63-0.02-1.17,0.48-1.19,1.11l-0.08,2.29c-0.02,0.63,0.48,1.17,1.11,1.19l1.16,0.04
					c0.63,0.02,1.2,0.55,1.25,1.18l0.32,2.37c0.11,0.62-0.3,1.28-0.9,1.47l-1.12,0.34c-0.6,0.19-0.95,0.83-0.76,1.43l1.01,3.3
					l6.2-1.91c-2.84-6.93-2.55-15.06,1.48-22.05c4.04-6.99,10.93-11.3,18.36-12.31l-1.44-6.32l-3.36,0.78
					c-0.62,0.14-1,0.76-0.86,1.38l0.26,1.14c0.14,0.62-0.23,1.3-0.82,1.51l-2.21,0.91c-0.57,0.26-1.32,0.04-1.65-0.5l-0.61-0.99
					c-0.33-0.54-1.04-0.7-1.58-0.37l-1.95,1.21c-0.54,0.33-0.7,1.04-0.37,1.58l0.61,0.98c0.33,0.54,0.2,1.3-0.29,1.7l-1.79,1.58
					c-0.46,0.44-1.23,0.47-1.72,0.07l-0.89-0.73c-0.49-0.4-1.22-0.32-1.62,0.17l-1.45,1.78c-0.4,0.49-0.32,1.22,0.17,1.62l0.89,0.73
					c0.49,0.4,0.6,1.16,0.26,1.68C21.82,18.96,21.65,19.21,21.28,19.85z"/>
			</g>
			<g>
				<path class="st1" d="M45.19,61.3c0.74,0,1.06-0.02,1.06-0.02c0.63-0.04,1.23,0.44,1.33,1.07l0.18,1.14
					c0.1,0.62,0.69,1.05,1.32,0.95l2.27-0.37c0.62-0.1,1.05-0.69,0.95-1.32l-0.18-1.14c-0.1-0.62,0.31-1.28,0.92-1.45l2.27-0.76
					c0.59-0.23,1.32,0.04,1.61,0.6l0.54,1.02c0.3,0.56,1,0.77,1.55,0.47l2.02-1.08c0.56-0.3,0.77-1,0.47-1.55l-0.55-1.02
					c-0.3-0.56-0.12-1.31,0.4-1.68l1.89-1.46c0.48-0.41,1.26-0.39,1.72,0.04l0.85,0.8c0.46,0.43,1.19,0.4,1.62-0.06l2.35-2.52
					l-4.76-4.41c-4.59,5.92-11.77,9.74-19.84,9.74c-8.07,0-15.25-3.82-19.84-9.74l-4.76,4.41l2.35,2.52
					c0.43,0.46,1.16,0.49,1.62,0.06l0.85-0.8c0.46-0.43,1.24-0.45,1.72-0.04l1.89,1.46c0.52,0.37,0.69,1.12,0.4,1.68l-0.55,1.02
					c-0.3,0.56-0.09,1.26,0.47,1.55l2.02,1.08c0.56,0.3,1.26,0.09,1.55-0.47l0.54-1.02c0.3-0.56,1.02-0.83,1.61-0.6l2.27,0.76
					c0.6,0.18,1.02,0.83,0.92,1.45l-0.18,1.14c-0.1,0.62,0.33,1.22,0.95,1.32l2.27,0.37c0.62,0.1,1.22-0.33,1.32-0.95l0.18-1.14
					c0.1-0.62,0.7-1.1,1.33-1.07C44.15,61.28,44.45,61.3,45.19,61.3z"/>
			</g>
			<g>
				<path class="st1" d="M69.13,19.87c-0.37-0.64-0.55-0.91-0.55-0.91c-0.35-0.53-0.23-1.29,0.26-1.68l0.89-0.73
					c0.49-0.4,0.56-1.13,0.17-1.62l-1.45-1.78c-0.4-0.49-1.13-0.56-1.62-0.17l-0.89,0.73c-0.49,0.4-1.26,0.37-1.72-0.07l-1.79-1.58
					c-0.49-0.4-0.62-1.16-0.29-1.7l0.61-0.98c0.33-0.54,0.17-1.25-0.37-1.58l-1.95-1.21c-0.54-0.33-1.25-0.17-1.58,0.37l-0.61,0.99
					c-0.33,0.54-1.08,0.76-1.65,0.5l-2.21-0.91c-0.59-0.22-0.96-0.9-0.82-1.51l0.26-1.14c0.14-0.62-0.24-1.24-0.86-1.38l-3.36-0.78
					l-1.44,6.32c7.42,1.01,14.32,5.32,18.36,12.31c4.04,6.99,4.32,15.12,1.48,22.05l6.19,1.91l1.01-3.3
					c0.19-0.6-0.16-1.25-0.76-1.43l-1.12-0.34c-0.6-0.19-1.01-0.84-0.9-1.47l0.32-2.37c0.06-0.63,0.62-1.16,1.25-1.18l1.16-0.04
					c0.63-0.02,1.13-0.55,1.11-1.19l-0.08-2.29c-0.02-0.63-0.55-1.13-1.19-1.11l-1.15,0.04c-0.63,0.02-1.23-0.47-1.32-1.1
					l-0.47-2.35c-0.15-0.61,0.21-1.3,0.8-1.53l1.07-0.41c0.59-0.22,0.89-0.89,0.66-1.48l-0.81-2.15c-0.22-0.59-0.89-0.89-1.48-0.66
					l-1.08,0.41c-0.59,0.22-1.3-0.05-1.59-0.62C69.64,20.78,69.5,20.51,69.13,19.87z"/>
			</g>
			<g>
				<path class="st1" d="M9.31,19.33c-0.02,0.03-0.03,0.05-0.03,0.05S9.29,19.36,9.31,19.33z"/>
			</g>
			<g>
				<path class="st1" d="M19.18,6.32l0.09,0.11c0.27-0.19,1.2-0.86,2.33-1.17c6.25-1.76,5.94-3.92,8.58-5.2L30.1-0.08
					c-0.26,0.17-1.07,0.64-2.2,0.65C20.57,0.67,21.13,4.94,19.18,6.32z"/>
			</g>
			<g>
				<path class="st1" d="M11.9,14.45l0.14,0.09c1.49-1.65,2.92-1.96,3.16-2.03c5.82-1.72,7.85-5.57,9.42-6.66l-0.06-0.09
					c-2.15,1.53-4.71-0.02-9.06,4.63c-0.03,0.03-0.15-0.14-0.15-0.14c3.53-4.26,3.62-7.16,5.26-8.75l-0.09-0.08
					C10.21,7.57,14.73,10.93,11.9,14.45z"/>
			</g>
			<g>
				<path class="st1" d="M12.33,7.33c-9.71,9.62-3.66,12.08-5.19,16.87l0.1,0.04c0.87-2.03,3.13-2.92,3.18-2.94
					c4.11-1.9,5.41-6.69,7.05-8.14l-0.08-0.08c-2.01,2.18-5.33,0.96-8.01,6.35c-0.01,0.02-0.18-0.09-0.18-0.09
					c2.18-4.7,1.16-8.96,3.23-11.88C12.39,7.4,12.35,7.36,12.33,7.33z"/>
			</g>
			<g>
				<path class="st1" d="M5.27,36.97l0.14,0.01c-0.04-0.55-0.18-2.84,2.11-4.96c4.61-4.27,3.83-8.06,5.72-10.99l-0.14-0.08
					c-1.47,2.5-6.84,5.24-7.06,9.09c0,0.01-0.21-0.02-0.2-0.03c0.78-5.51-2.13-9.19-0.54-12.68c-0.05-0.04-0.11-0.06-0.14-0.08
					C-1.01,29.9,4.11,29.72,5.27,36.97z"/>
			</g>
			<g>
				<path class="st1" d="M7.65,49l0.15-0.05c-1.27-2.86,0.86-6.77,0.95-6.96c2.8-5.43,1.86-10.34,2.5-12.06l-0.13-0.04
					c-1.49,3.73-5.65,5.75-5,12.02c0,0.01-0.2,0.01-0.2,0C5.26,38.02,0.85,34.29,1,30.05c-0.02,0-0.05-0.01-0.07-0.01
					C-1.82,45.12,6.01,45.02,7.65,49z"/>
			</g>
			<g>
				<path class="st1" d="M13.92,60.16l0.1-0.08c-2.61-3.17-1.82-6.63-1.78-6.88c1.3-7.52-1.13-8.87-1.19-12.27h-0.13
					c-0.11,3.81-4.01,8.09-0.47,13.41l-0.17,0.11c-3.9-5.69-6.99-4.3-8.81-9.96h0c-0.06,0-0.13,0.03-0.16,0.05
					C4.06,61.1,11.43,56.08,13.92,60.16z"/>
			</g>
			<g>
				<path class="st1" d="M29.13,67.39l-0.03-0.15c-5.13,1.03-7.76,0.04-8.69-4.68c-1.31-6.63-5.82-9.18-6.34-11.83
					c0,0-0.01,0-0.01,0c-0.08,0-0.11,0.01-0.13,0.02v0c0.97,4.68-1.31,7.46,4.33,13.07l-0.15,0.13c-5.43-4.31-9.16-2.72-11.32-5.72
					c-0.04,0.04-0.08,0.07-0.09,0.1C13.43,69.5,20.64,70.11,29.13,67.39z"/>
			</g>
			<g>
				<path class="st1" d="M16.44,69.31l0.04-0.06c6.91,4.03,14.12-1.59,22.87-1.79c2.2-0.05,8.75,0.35,14.78,7.35l-1.6,0.46
					c-1.99-3.46-5.06-5.95-7.84-6.65c-7.96-1.99-8.11,5.43-16.95,5.54C21.18,74.25,16.7,69.57,16.44,69.31z"/>
			</g>
			<g>
				<path class="st1" d="M81,19.33c0.01,0.03,0.03,0.05,0.03,0.05S81.02,19.36,81,19.33z"/>
			</g>
			<g>
				<path class="st1" d="M81,19.33c0.01,0.03,0.03,0.05,0.03,0.05S81.02,19.36,81,19.33z"/>
			</g>
			<g>
				<path class="st1" d="M9.31,19.33c-0.01,0.03-0.03,0.05-0.03,0.05S9.29,19.36,9.31,19.33z"/>
			</g>
			<g>
				<path class="st1" d="M81,19.33c0.01,0.03,0.03,0.05,0.03,0.05S81.02,19.36,81,19.33z"/>
			</g>
			<g>
				<path class="st1" d="M71.12,6.32l-0.09,0.11c-0.27-0.19-1.2-0.86-2.33-1.17c-6.25-1.76-5.93-3.92-8.58-5.2l0.08-0.13
					c0.26,0.17,1.07,0.64,2.2,0.65C69.74,0.67,69.18,4.94,71.12,6.32z"/>
			</g>
			<g>
				<path class="st1" d="M78.41,14.45l-0.13,0.09c-1.49-1.65-2.92-1.96-3.16-2.03c-5.82-1.72-7.85-5.57-9.42-6.66l0.06-0.09
					c2.15,1.53,4.7-0.02,9.06,4.63c0.03,0.03,0.15-0.14,0.15-0.14c-3.53-4.26-3.62-7.16-5.26-8.75l0.09-0.08
					C80.1,7.57,75.57,10.93,78.41,14.45z"/>
			</g>
			<g>
				<path class="st1" d="M77.98,7.33c9.71,9.62,3.66,12.08,5.19,16.87l-0.1,0.04c-0.87-2.03-3.13-2.92-3.18-2.94
					c-4.11-1.9-5.4-6.69-7.05-8.14l0.08-0.08c2.01,2.18,5.33,0.96,8.01,6.35c0.01,0.02,0.18-0.09,0.18-0.09
					c-2.18-4.7-1.16-8.96-3.23-11.88C77.92,7.4,77.96,7.36,77.98,7.33z"/>
			</g>
			<g>
				<path class="st1" d="M85.04,36.97l-0.14,0.01c0.04-0.55,0.18-2.84-2.11-4.96c-4.61-4.27-3.83-8.06-5.72-10.99l0.14-0.08
					c1.47,2.5,6.84,5.24,7.06,9.09c0,0.01,0.21-0.02,0.2-0.03c-0.78-5.51,2.13-9.19,0.54-12.68c0.05-0.04,0.11-0.06,0.14-0.08
					C91.32,29.9,86.2,29.72,85.04,36.97z"/>
			</g>
			<g>
				<path class="st1" d="M82.66,49l-0.15-0.05c1.27-2.86-0.86-6.77-0.95-6.96c-2.8-5.43-1.86-10.34-2.5-12.06l0.13-0.04
					c1.49,3.73,5.65,5.75,5,12.02c0,0.01,0.2,0.01,0.2,0c0.66-3.89,5.06-7.62,4.92-11.86c0.02,0,0.05-0.01,0.07-0.01
					C92.13,45.12,84.3,45.02,82.66,49z"/>
			</g>
			<g>
				<path class="st1" d="M76.39,60.16l-0.1-0.08c2.61-3.17,1.82-6.63,1.78-6.88c-1.3-7.52,1.13-8.87,1.19-12.27h0.13
					c0.11,3.81,4.01,8.09,0.47,13.41l0.17,0.11c3.9-5.69,6.99-4.3,8.81-9.96h0c0.06,0,0.13,0.03,0.16,0.05
					C86.25,61.1,78.88,56.08,76.39,60.16z"/>
			</g>
			<g>
				<path class="st1" d="M61.18,67.39l0.03-0.15c5.13,1.03,7.76,0.04,8.69-4.68c1.31-6.63,5.82-9.18,6.34-11.83c0,0,0.01,0,0.01,0
					c0.08,0,0.12,0.01,0.13,0.02v0c-0.97,4.68,1.31,7.46-4.33,13.07l0.15,0.13c5.43-4.31,9.16-2.72,11.32-5.72
					c0.04,0.04,0.08,0.07,0.09,0.1C76.88,69.5,69.67,70.11,61.18,67.39z"/>
			</g>
			<g>
				<path class="st1" d="M73.87,69.31l-0.04-0.06c-6.91,4.03-14.12-1.59-22.87-1.79c-2.19-0.05-8.75,0.35-14.78,7.35l1.6,0.46
					c1.99-3.46,5.06-5.95,7.84-6.65c7.95-1.99,8.11,5.43,16.95,5.54C69.12,74.25,73.61,69.57,73.87,69.31z"/>
			</g>
			<g>
				<path class="st1" d="M9.31,19.33c-0.01,0.03-0.03,0.05-0.03,0.05S9.29,19.36,9.31,19.33z"/>
			</g>
			<g>
				<path class="st1" d="M9.31,19.33c-0.01,0.03-0.03,0.05-0.03,0.05S9.29,19.36,9.31,19.33z"/>
			</g>
			<g>
				<path class="st1" d="M81,19.33c0.01,0.03,0.03,0.05,0.03,0.05S81.02,19.36,81,19.33z"/>
			</g>
			<g>
				<path class="st1" d="M55.9,19.54h-0.12c-3.23,0-6.33,2.08-7.88,5.54c-0.78,1.76-0.96,4.05-0.97,6.26c0,2.2,0.18,4.49,0.97,6.25
					c1.54,3.46,4.65,5.83,7.88,5.83h0.12c3.23,0,6.33-2.37,7.87-5.83c0.78-1.76,0.96-4.05,0.97-6.25c0-2.2-0.18-4.5-0.97-6.26
					C62.23,21.62,59.13,19.54,55.9,19.54z M60.87,31.48c-0.01,2.07-0.06,3.86-0.06,3.86c-0.13,1.69-0.16,3.39-0.94,4.55
					c-0.89,1.31-2.31,2-3.74,2l-0.06,0.02h-0.18l-0.05-0.02c-1.43,0-2.85-0.69-3.74-2c-0.78-1.16-0.81-2.86-0.94-4.55
					c0,0-0.05-1.76-0.05-3.82v-0.09c0-2.07,0.05-3.86,0.05-3.86c0.13-1.69,0.16-3.39,0.94-4.55c0.89-1.31,2.31-2,3.74-2l0.05-0.02
					h0.18l0.05,0.02c1.43,0,2.85,0.68,3.74,2c0.79,1.16,0.81,2.86,0.94,4.55c0,0,0.05,1.76,0.06,3.82L60.87,31.48L60.87,31.48z"/>
			</g>
			<g>
				<path class="st1" d="M58.32,44.41c0,0-0.63,1.64-1.81,2.65c-0.65,0.55-1.6,0.7-2.36,0.79l-7.94,0.39h-1.75
					c0,0-1.33-0.07-1.4-1.31V19.1c0.07-1.24,1.4-1.31,1.4-1.31h1.75v-1.62H35.58v1.62h1.76c0,0,1.33,0.07,1.4,1.31v27.83
					c-0.07,1.24-1.4,1.31-1.4,1.31h-1.76v1.62h10.62l11.5,0.04l1.41-5.13v-0.19L58.32,44.41z"/>
			</g>
			<g>
				<path class="st1" d="M33.37,22.6c0.06-1.03,1.17-1.09,1.17-1.09H36v-1.35h-8.86v1.35h1.46c0,0,1.11,0.06,1.17,1.09v17.79
					c-0.06,1.03-1.17,1.09-1.17,1.09h-1.46v1.35H36v-1.35h-1.46c0,0-1.11-0.06-1.17-1.09V22.6z"/>
			</g>
		</g>
	</g>
	<g>
		<path class="st1" d="M105.04,17.52V9.08h2.34v8.43c0,2.49,1.21,3.19,2.98,3.19c1.75,0,2.98-0.7,2.98-3.19V9.08h2.34v8.43
			c0,4.03-2.43,5.43-5.32,5.43C107.55,22.95,105.04,21.61,105.04,17.52z"/>
		<path class="st1" d="M118.39,9.73l2.28-1.07v14.06h-2.28V9.73z"/>
		<path class="st1" d="M129.36,21.76c-0.62,0.8-1.5,1.19-2.61,1.19c-1.89,0-3.54-1.05-3.54-4.09v-6.1h2.28v5.69
			c0,1.63,0.7,2.32,1.87,2.32c1.21,0,2.01-0.62,2.01-2.28v-5.72h2.28v9.95h-2.28L129.36,21.76L129.36,21.76z"/>
		<path class="st1" d="M133.49,21.24l1.56-1.32c0.41,0.41,1.23,1.05,2.32,1.05c0.94,0,1.62-0.25,1.62-0.97c0-0.7-0.8-1.01-1.93-1.46
			c-2.16-0.72-3.29-1.56-3.29-3.23c0-1.79,1.58-2.76,3.54-2.76c1.71,0,2.88,0.74,3.56,1.54l-1.58,1.29
			c-0.49-0.47-1.07-0.84-1.99-0.84c-0.82,0-1.34,0.29-1.34,0.82c0,0.6,0.9,0.95,1.95,1.3c1.93,0.64,3.27,1.46,3.27,3.35
			c0,1.93-1.52,2.96-3.82,2.96C135.76,22.95,134.23,22.29,133.49,21.24z"/>
		<path class="st1" d="M143.32,9.73l2.28-1.07v14.06h-2.28V9.73z"/>
		<path class="st1" d="M153.9,21.92c-0.49,0.51-1.32,1.03-2.65,1.03c-2.04,0-3.6-1.13-3.6-3.31c0-2.3,1.93-3.29,3.89-3.29
			c0.94,0,1.73,0.17,2.36,0.53v-0.53c0-1.3-0.64-1.81-1.95-1.81c-1.21,0-2.12,0.35-2.96,0.94l-0.7-1.85c0.9-0.6,2.22-1.09,3.89-1.09
			c1.75,0,3.93,0.43,3.93,3.78v6.41h-2.22V21.92z M153.9,19.99V18.7c-0.53-0.25-1.25-0.41-1.99-0.41c-1.13,0-2.04,0.39-2.04,1.34
			c0,0.78,0.62,1.3,1.81,1.3C152.65,20.94,153.39,20.52,153.9,19.99z"/>
		<path class="st1" d="M158.45,12.76h2.28v1.03c0.39-0.82,1.05-1.27,2.04-1.27c0.74,0,1.34,0.25,1.85,0.68l-0.33,2.08
			c-0.41-0.29-0.94-0.53-1.69-0.53c-0.88,0-1.87,0.49-1.87,2.38v5.57h-2.28V12.76z"/>
		<path class="st1" d="M171.38,21.92c-0.49,0.51-1.32,1.03-2.65,1.03c-2.04,0-3.6-1.13-3.6-3.31c0-2.3,1.93-3.29,3.89-3.29
			c0.94,0,1.73,0.17,2.36,0.53v-0.53c0-1.3-0.64-1.81-1.95-1.81c-1.21,0-2.12,0.35-2.96,0.94l-0.7-1.85c0.9-0.6,2.22-1.09,3.89-1.09
			c1.75,0,3.93,0.43,3.93,3.78v6.41h-2.22V21.92z M171.38,19.99V18.7c-0.53-0.25-1.25-0.41-1.99-0.41c-1.13,0-2.04,0.39-2.04,1.34
			c0,0.78,0.62,1.3,1.81,1.3C170.14,20.94,170.88,20.52,171.38,19.99z"/>
		<path class="st1" d="M175.94,12.76h2.28v1.03c0.39-0.82,1.05-1.27,2.04-1.27c0.74,0,1.34,0.25,1.85,0.68l-0.33,2.08
			c-0.41-0.29-0.94-0.53-1.69-0.53c-0.88,0-1.87,0.49-1.87,2.38v5.57h-2.28V12.76z"/>
		<path class="st1" d="M188.87,21.92c-0.49,0.51-1.32,1.03-2.65,1.03c-2.04,0-3.6-1.13-3.6-3.31c0-2.3,1.93-3.29,3.89-3.29
			c0.94,0,1.73,0.17,2.36,0.53v-0.53c0-1.3-0.64-1.81-1.95-1.81c-1.21,0-2.12,0.35-2.96,0.94l-0.7-1.85c0.9-0.6,2.22-1.09,3.89-1.09
			c1.75,0,3.93,0.43,3.93,3.78v6.41h-2.22V21.92z M188.87,19.99V18.7c-0.53-0.25-1.25-0.41-1.99-0.41c-1.13,0-2.04,0.39-2.04,1.34
			c0,0.78,0.62,1.3,1.81,1.3C187.63,20.94,188.37,20.52,188.87,19.99z"/>
		<path class="st1" d="M192.75,21.24l1.56-1.32c0.41,0.41,1.23,1.05,2.32,1.05c0.94,0,1.62-0.25,1.62-0.97c0-0.7-0.8-1.01-1.93-1.46
			c-2.16-0.72-3.29-1.56-3.29-3.23c0-1.79,1.58-2.76,3.54-2.76c1.71,0,2.88,0.74,3.56,1.54l-1.58,1.29
			c-0.49-0.47-1.07-0.84-1.99-0.84c-0.82,0-1.34,0.29-1.34,0.82c0,0.6,0.9,0.95,1.95,1.3c1.93,0.64,3.27,1.46,3.27,3.35
			c0,1.93-1.52,2.96-3.82,2.96C195.03,22.95,193.49,22.29,192.75,21.24z"/>
		<path class="st1" d="M202.5,12.76h2.28v9.95h-2.28V12.76z"/>
		<path class="st1" d="M108.13,46.07l1.03-0.76c0.16,0.19,0.41,0.33,0.78,0.33c0.6,0,0.95-0.33,0.95-0.82c0-0.47-0.39-0.8-0.99-0.8
			c-0.31,0-0.58,0.08-0.82,0.23l-0.45-0.56l1.05-1.3c-3.74-0.37-5.04-3.82-5.04-7.01c0-3.13,1.5-7.05,5.71-7.05
			c2.59,0,4.17,1.46,4.75,2.9l-2.1,0.95c-0.68-1.03-1.36-1.62-2.65-1.62c-2.51,0-3.29,2.67-3.29,4.81c0,2.26,0.99,4.79,3.29,4.79
			c1.23,0,1.99-0.72,2.61-1.75l2.16,0.82c-0.74,1.73-2.07,2.92-4.11,3.15l-0.47,0.74c1.52,0,2.18,0.78,2.18,1.71
			c0,1.21-0.95,2.07-2.55,2.07C109.16,46.9,108.52,46.55,108.13,46.07z"/>
		<path class="st1" d="M122.78,41.39c-0.49,0.51-1.32,1.03-2.65,1.03c-2.04,0-3.6-1.13-3.6-3.31c0-2.3,1.93-3.29,3.89-3.29
			c0.94,0,1.73,0.17,2.36,0.53v-0.53c0-1.3-0.64-1.81-1.95-1.81c-1.21,0-2.12,0.35-2.96,0.94l-0.7-1.85c0.9-0.6,2.22-1.09,3.89-1.09
			c1.75,0,3.93,0.43,3.93,3.78v6.41h-2.22V41.39z M122.78,39.46v-1.29c-0.53-0.25-1.25-0.41-1.99-0.41c-1.13,0-2.04,0.39-2.04,1.34
			c0,0.78,0.62,1.3,1.81,1.3C121.53,40.42,122.27,39.99,122.78,39.46z"/>
		<path class="st1" d="M127.43,29.2l2.28-1.07v14.06h-2.28V29.2z"/>
		<path class="st1" d="M132.36,32.24h2.28v9.95h-2.28V32.24z"/>
		<path class="st1" d="M138.08,46.07l1.03-0.76c0.16,0.19,0.41,0.33,0.78,0.33c0.6,0,0.95-0.33,0.95-0.82c0-0.47-0.39-0.8-0.99-0.8
			c-0.31,0-0.58,0.08-0.82,0.23l-0.45-0.56l1.07-1.3c-1.3-0.19-2.53-0.78-3.15-1.68l1.56-1.32c0.41,0.41,1.23,1.05,2.32,1.05
			c0.94,0,1.62-0.25,1.62-0.97c0-0.78-1.03-1.09-2.28-1.6c-1.73-0.64-2.94-1.34-2.94-3.1c0-1.79,1.58-2.76,3.54-2.76
			c1.71,0,2.88,0.74,3.56,1.54l-1.58,1.29c-0.49-0.47-1.07-0.84-1.99-0.84c-0.82,0-1.34,0.29-1.34,0.82c0,0.64,1.05,0.99,2.2,1.4
			c1.56,0.56,3.02,1.29,3.02,3.25c0,1.77-1.29,2.76-3.25,2.94l-0.45,0.72c1.52,0,2.18,0.78,2.18,1.71c0,1.21-0.95,2.07-2.55,2.07
			C139.1,46.9,138.47,46.55,138.08,46.07z"/>
		<path class="st1" d="M157.93,36.48c0-1.56-0.53-2.32-1.69-2.32c-1.15,0-1.87,0.76-1.87,2.36v5.67h-2.28v-5.71
			c0-1.56-0.53-2.32-1.69-2.32c-1.13,0-1.87,0.76-1.87,2.36v5.67h-2.28v-9.95h2.28v0.91c0.56-0.76,1.4-1.15,2.43-1.15
			c1.19,0,2.08,0.45,2.61,1.4c0.66-0.97,1.71-1.4,3-1.4c2.07,0,3.64,1.03,3.64,3.84v6.35h-2.28L157.93,36.48L157.93,36.48z"/>
		<path class="st1" d="M168.31,41.39c-0.49,0.51-1.32,1.03-2.65,1.03c-2.04,0-3.6-1.13-3.6-3.31c0-2.3,1.93-3.29,3.89-3.29
			c0.94,0,1.73,0.17,2.36,0.53v-0.53c0-1.3-0.64-1.81-1.95-1.81c-1.21,0-2.12,0.35-2.96,0.94l-0.7-1.85c0.9-0.6,2.22-1.09,3.89-1.09
			c1.75,0,3.93,0.43,3.93,3.78v6.41h-2.22V41.39z M168.31,39.46v-1.29c-0.53-0.25-1.25-0.41-1.99-0.41c-1.13,0-2.04,0.39-2.04,1.34
			c0,0.78,0.62,1.3,1.81,1.3C167.06,40.42,167.8,39.99,168.31,39.46z"/>
		<path class="st1" d="M104.65,58.68c0-3.37,1.6-7.05,5.98-7.05c4.4,0,5.98,3.68,5.98,7.05c0,3.37-1.58,7.05-5.98,7.05
			C106.24,65.73,104.65,62.05,104.65,58.68z M114.19,58.68c0-2.24-0.91-4.81-3.56-4.81c-2.65,0-3.56,2.71-3.56,4.81
			c0,2.22,0.91,4.81,3.56,4.81C113.25,63.49,114.19,60.77,114.19,58.68z M107.49,49.08c0-0.74,0.58-1.32,1.32-1.32
			s1.32,0.58,1.32,1.32s-0.58,1.32-1.32,1.32S107.49,49.82,107.49,49.08z M111.09,49.08c0-0.74,0.58-1.32,1.32-1.32
			c0.74,0,1.32,0.58,1.32,1.32s-0.58,1.32-1.32,1.32C111.68,50.41,111.09,49.82,111.09,49.08z"/>
		<path class="st1" d="M118.84,55.55h2.28v1.03c0.39-0.82,1.05-1.27,2.04-1.27c0.74,0,1.34,0.25,1.85,0.68l-0.33,2.08
			c-0.41-0.29-0.94-0.53-1.69-0.53c-0.88,0-1.87,0.49-1.87,2.38v5.57h-2.28L118.84,55.55L118.84,55.55z"/>
		<path class="st1" d="M128.5,67.56c2.8-0.19,3.62-0.82,3.62-2.16v-0.56c-0.58,0.64-1.36,0.9-2.26,0.9c-2.34,0-4.11-1.75-4.11-5.22
			c0-3.25,1.69-5.2,4.13-5.2c1.03,0,1.77,0.37,2.24,0.84v-0.6h2.28v8.96c0,3.29-1.27,4.64-4.69,4.89L128.5,67.56z M132.12,62.58
			v-4.13c-0.35-0.51-0.99-0.97-1.87-0.97c-1.42,0-2.22,1.07-2.22,3.04c0,1.83,0.8,3.04,2.22,3.04
			C131.07,63.55,131.71,63.2,132.12,62.58z"/>
		<path class="st1" d="M142.99,64.54c-0.62,0.8-1.5,1.19-2.61,1.19c-1.89,0-3.54-1.05-3.54-4.09v-6.1h2.28v5.69
			c0,1.63,0.7,2.32,1.87,2.32c1.21,0,2.01-0.62,2.01-2.28v-5.72h2.28v9.95h-2.28L142.99,64.54L142.99,64.54z M137.87,52.77
			c0-0.74,0.58-1.32,1.32-1.32s1.32,0.58,1.32,1.32c0,0.74-0.58,1.32-1.32,1.32S137.87,53.5,137.87,52.77z M141.47,52.77
			c0-0.74,0.58-1.32,1.32-1.32s1.32,0.58,1.32,1.32c0,0.74-0.58,1.32-1.32,1.32S141.47,53.5,141.47,52.77z"/>
		<path class="st1" d="M148.41,63.18v-5.65h-1.48v-1.99h1.48v-3.02l2.28-1.09v4.11h2.3v1.99h-2.3v5.2c0,0.56,0.23,0.95,0.84,0.95
			c0.51,0,1.03-0.16,1.56-0.45l-0.27,2.04c-0.56,0.29-1.27,0.45-2.08,0.45C149.09,65.73,148.41,64.76,148.41,63.18z"/>
		<path class="st1" d="M160.98,64.54c-0.62,0.8-1.5,1.19-2.61,1.19c-1.89,0-3.54-1.05-3.54-4.09v-6.1h2.28v5.69
			c0,1.63,0.7,2.32,1.87,2.32c1.21,0,2.01-0.62,2.01-2.28v-5.72h2.28v9.95h-2.28L160.98,64.54L160.98,64.54z M155.86,52.77
			c0-0.74,0.58-1.32,1.32-1.32s1.32,0.58,1.32,1.32c0,0.74-0.58,1.32-1.32,1.32S155.86,53.5,155.86,52.77z M159.46,52.77
			c0-0.74,0.58-1.32,1.32-1.32s1.32,0.58,1.32,1.32c0,0.74-0.58,1.32-1.32,1.32S159.46,53.5,159.46,52.77z"/>
	</g>
</g>
</svg>
