<svg xmlns="http://www.w3.org/2000/svg" id="Layer_1" viewBox="0 0 536.86 250"><defs><style>.cls-1{fill:#1e2dbe;stroke-width:0}</style></defs><g id="Lockup"><path d="M308.7 66.12c-1.27 2.16-1.67 3.04-1.67 3.04-.98 1.86-3.33 2.84-5.29 2.06l-3.53-1.37c-1.96-.78-4.21.29-4.9 2.25l-2.74 7.15c-.78 1.96.29 4.21 2.25 4.9l3.53 1.37c1.96.78 3.13 3.04 2.64 5.09l-1.57 7.74c-.29 2.06-2.35 3.72-4.41 3.62l-3.82-.1c-2.06-.1-3.82 1.57-3.92 3.72l-.29 7.64c-.1 2.06 1.57 3.82 3.72 3.92l3.82.1c2.06.1 4.02 1.86 4.11 3.92l1.08 7.84c.39 2.06-.98 4.21-2.94 4.9l-3.72 1.18c-1.96.59-3.13 2.74-2.55 4.8l3.33 10.97 20.57-6.37c-9.4-23.02-8.52-49.96 4.9-73.18s36.34-37.52 60.93-40.85l-4.8-20.96-11.17 2.55a3.82 3.82 0 0 0-2.84 4.6l.88 3.82c.49 2.06-.78 4.31-2.74 5l-7.35 3.04c-1.86.88-4.41.1-5.49-1.67l-2.06-3.23c-1.08-1.76-3.43-2.35-5.29-1.18l-6.47 4.02c-1.76 1.08-2.35 3.43-1.18 5.29l2.06 3.23c1.08 1.76.69 4.31-.98 5.58l-5.98 5.29c-1.47 1.47-4.11 1.57-5.68.2l-2.94-2.45c-1.67-1.37-4.02-1.08-5.39.59l-4.8 5.88c-1.37 1.67-1.08 4.02.59 5.39l2.94 2.45c1.67 1.37 2.06 3.82.88 5.58.1-.29-.49.49-1.76 2.64zm79.46 137.55c2.45 0 3.53-.1 3.53-.1 2.06-.1 4.11 1.47 4.41 3.53l.59 3.82c.29 2.06 2.25 3.53 4.41 3.13l7.54-1.18c2.06-.29 3.53-2.25 3.13-4.41l-.59-3.72c-.29-2.06 1.08-4.21 3.04-4.8l7.54-2.55c1.96-.78 4.41.1 5.39 1.96l1.76 3.33c.98 1.86 3.33 2.55 5.19 1.57l6.76-3.62c1.86-.98 2.55-3.33 1.57-5.19l-1.86-3.43c-.98-1.86-.39-4.31 1.27-5.58l6.27-4.8c1.57-1.37 4.21-1.27 5.68.2l2.84 2.64c1.57 1.47 3.92 1.37 5.39-.2l7.84-8.33-15.77-14.6c-15.18 19.69-39.09 32.33-65.83 32.33s-50.65-12.64-65.83-32.33l-15.77 14.6 7.84 8.33c1.47 1.57 3.82 1.67 5.39.2l2.84-2.64c1.57-1.47 4.11-1.47 5.68-.1l6.27 4.8c1.67 1.18 2.35 3.72 1.27 5.58l-1.86 3.43c-.98 1.86-.29 4.21 1.57 5.19l6.76 3.62c1.86.98 4.21.29 5.19-1.57l1.76-3.33c.98-1.86 3.43-2.74 5.39-1.96l7.54 2.55c2.06.59 3.43 2.74 3.04 4.8l-.59 3.72c-.29 2.06 1.08 4.02 3.13 4.41l7.54 1.18c2.06.29 4.02-1.08 4.41-3.13l.59-3.82c.29-2.06 2.35-3.62 4.41-3.53zm79.45-137.55c-1.27-2.16-1.76-3.04-1.76-3.04-1.18-1.76-.78-4.31.88-5.58l2.94-2.45c1.67-1.37 1.86-3.72.59-5.39l-4.8-5.88c-1.37-1.67-3.72-1.86-5.39-.59l-2.94 2.45c-1.67 1.37-4.21 1.18-5.68-.2l-5.98-5.29c-1.67-1.27-2.06-3.82-.98-5.58l2.06-3.23c1.08-1.76.59-4.11-1.18-5.29l-6.47-4.02c-1.76-1.08-4.11-.59-5.29 1.18l-2.06 3.23c-1.08 1.76-3.53 2.55-5.49 1.67l-7.35-3.04c-1.96-.69-3.23-2.94-2.74-5l.88-3.82c.49-2.06-.78-4.11-2.84-4.6L402.74 9.3l-4.8 20.96c24.69 3.33 47.51 17.63 60.93 40.85s14.3 50.16 4.9 73.18l20.57 6.37 3.33-10.97c.59-1.96-.49-4.11-2.55-4.8l-3.72-1.18c-1.96-.59-3.33-2.84-2.94-4.9l1.08-7.84c.2-2.06 2.06-3.82 4.11-3.92l3.82-.1c2.06-.1 3.72-1.86 3.72-3.92l-.29-7.64c-.1-2.06-1.86-3.72-3.92-3.72l-3.82.1c-2.06.1-4.11-1.57-4.41-3.62l-1.57-7.74c-.49-2.06.69-4.31 2.64-5.09l3.53-1.37a3.885 3.885 0 0 0 2.25-4.9l-2.74-7.15a3.885 3.885 0 0 0-4.9-2.25l-3.53 1.37c-1.96.78-4.31-.2-5.29-2.06.1.2-.29-.69-1.57-2.84zm-198.58-1.76c-.1.1-.1.2-.1.2s0-.1.1-.2m32.72-43.2.29.39c.88-.59 4.02-2.84 7.74-3.92C330.55 11.75 329.47 4.6 338.29.39L338 0c-.88.59-3.53 2.16-7.35 2.16-24.29.29-22.43 14.4-28.9 19" class="cls-1"/><path d="m277.55 48.2.49.29c4.9-5.49 9.7-6.47 10.48-6.76 19.3-5.68 26.06-18.51 31.25-22.14l-.2-.29c-7.15 5.09-15.58-.1-30.07 15.38-.1.1-.49-.49-.49-.49 11.76-14.2 12.05-23.8 17.44-29l-.29-.29c-34.19 20.47-19.1 31.64-28.6 43.3Z" class="cls-1"/><path d="M279.02 24.49c-32.23 31.94-12.15 40.07-17.24 56.03l.29.1c2.94-6.76 10.38-9.7 10.58-9.8 13.62-6.27 17.93-22.24 23.41-27.04l-.29-.29c-6.66 7.25-17.63 3.13-26.65 21.06 0 .1-.59-.29-.59-.29 7.25-15.58 3.82-29.68 10.78-39.48-.1 0-.2-.2-.29-.29" class="cls-1"/><path d="M255.61 122.94h.49c-.1-1.86-.59-9.4 6.96-16.46 15.28-14.2 12.74-26.74 19-36.54l-.49-.29c-4.9 8.33-22.73 17.44-23.41 30.17l-.69-.1c2.64-18.32-7.05-30.47-1.76-42.12-.2-.1-.39-.2-.49-.29-20.47 42.12-3.53 41.54.39 65.63" class="cls-1"/><path d="m263.44 162.92.49-.2c-4.21-9.5 2.84-22.43 3.13-23.12 9.31-18.03 6.17-34.38 8.33-40.07l-.49-.1c-5 12.34-18.71 19.1-16.56 39.87h-.69c-2.16-12.93-16.85-25.27-16.36-39.38H241c-8.91 50.06 17.05 49.76 22.43 62.99h.01Z" class="cls-1"/><path d="m284.31 199.95.39-.29c-8.72-10.58-6.07-22.04-5.88-22.83 4.31-24.98-3.72-29.49-3.92-40.75h-.49c-.39 12.64-13.32 26.84-1.57 44.47l-.59.39c-12.93-18.91-23.22-14.3-29.29-33.01-.2 0-.39.1-.49.2 9.11 54.96 33.5 38.3 41.83 51.82z" class="cls-1"/><path d="m334.76 223.95-.1-.49c-17.05 3.43-25.76.1-28.8-15.58-4.31-22.04-19.3-30.47-21.06-39.28-.29 0-.39 0-.39.1 3.23 15.58-4.31 24.78 14.4 43.4l-.49.39c-18.03-14.3-30.47-9.01-37.62-19-.1.1-.29.2-.29.29 22.24 37.23 46.24 39.18 74.35 30.17" class="cls-1"/><path d="m292.64 230.32.1-.2c22.92 13.32 46.92-5.29 75.92-5.98 7.25-.2 29.09 1.18 49.08 24.39l-5.29 1.47c-6.56-11.46-16.75-19.79-26.06-22.04-26.45-6.56-26.94 18.03-56.23 18.42-21.75.29-36.64-15.18-37.52-16.07ZM506.99 64.36c.1.1.1.2.1.2s0-.1-.1-.2" class="cls-1"/><path d="M506.99 64.36c.1.1.1.2.1.2s0-.1-.1-.2m-237.96 0c-.1.1-.1.2-.1.2s0-.1.1-.2" class="cls-1"/><path d="M506.99 64.36c.1.1.1.2.1.2s0-.1-.1-.2m-32.72-43.2-.29.39c-.88-.59-4.02-2.84-7.74-3.92C445.47 11.75 446.55 4.6 437.73.39l.29-.39c.88.59 3.53 2.16 7.35 2.16 24.29.29 22.43 14.4 28.9 19" class="cls-1"/><path d="m498.47 48.2-.49.29c-4.9-5.49-9.7-6.47-10.48-6.76-19.3-5.68-26.06-18.51-31.25-22.14l.2-.29c7.15 5.09 15.58-.1 30.07 15.38.1.1.49-.49.49-.49-11.76-14.2-12.05-23.8-17.44-29l.29-.29c34.19 20.47 19.2 31.64 28.6 43.3Z" class="cls-1"/><path d="M497 24.49c32.23 31.94 12.15 40.07 17.24 56.03l-.29.1c-2.94-6.76-10.38-9.7-10.58-9.8-13.62-6.27-17.93-22.24-23.41-27.04l.29-.29c6.66 7.25 17.73 3.13 26.65 21.06 0 .1.59-.29.59-.29-7.25-15.58-3.82-29.68-10.78-39.48.1 0 .2-.2.29-.29" class="cls-1"/><path d="M520.41 122.94h-.49c.1-1.86.59-9.4-6.96-16.46-15.28-14.2-12.74-26.74-19-36.54l.49-.29c4.9 8.33 22.73 17.44 23.41 30.17l.69-.1c-2.64-18.32 7.05-30.47 1.76-42.12.2-.1.39-.2.49-.29 20.47 42.12 3.53 41.54-.39 65.63" class="cls-1"/><path d="m512.57 162.92-.49-.2c4.21-9.5-2.84-22.43-3.13-23.12-9.31-18.03-6.17-34.38-8.33-40.07l.49-.1c5 12.34 18.71 19.1 16.56 39.87h.69c2.16-12.93 16.85-25.27 16.36-39.38h.29c8.91 50.06-17.05 49.76-22.43 62.99h-.01Z" class="cls-1"/><path d="m491.71 199.95-.39-.29c8.72-10.58 6.07-22.04 5.88-22.83-4.31-24.98 3.72-29.49 3.92-40.75h.39c.39 12.64 13.32 26.84 1.57 44.47l.59.39c12.93-18.91 23.22-14.3 29.29-33.01.2 0 .39.1.49.2-9.01 54.96-33.41 38.3-41.73 51.82z" class="cls-1"/><path d="m441.26 223.95.1-.49c17.05 3.43 25.76.1 28.8-15.58 4.31-22.04 19.3-30.47 21.06-39.28.29 0 .39 0 .39.1-3.23 15.58 4.31 24.78-14.4 43.4l.49.39c18.03-14.3 30.47-9.01 37.62-19 .1.1.29.2.29.29-22.24 37.23-46.24 39.18-74.35 30.17" class="cls-1"/><path d="m483.38 230.32-.1-.2c-22.92 13.32-46.92-5.29-75.92-5.98-7.25-.2-29.09 1.18-49.08 24.39l5.29 1.47c6.56-11.46 16.75-19.79 26.06-22.04 26.45-6.56 26.94 18.03 56.23 18.42 21.75.29 36.64-15.18 37.52-16.07ZM269.03 64.36c-.1.1-.1.2-.1.2s0-.1.1-.2" class="cls-1"/><path d="M269.03 64.36c-.1.1-.1.2-.1.2s0-.1.1-.2m237.96 0c.1.1.1.2.1.2s0-.1-.1-.2m-64.85 34.09c-3.04-3.92-5.98-6.96-8.91-9.11-3.53-2.64-7.15-3.92-10.68-3.92-4.9 0-9.21 2.16-12.83 6.37-2.16 2.55-4.11 5.98-5.88 10.29l3.92 2.45c1.96-2.25 3.62-3.82 5-4.7 1.76-1.18 3.53-1.76 5.39-1.76 2.94 0 5.98 1.18 8.82 3.43.88.69 3.13 2.84 6.66 6.56-10.19 1.08-17.73 2.25-22.83 3.82-6.37 1.86-11.07 4.8-14.11 8.72s-4.6 9.6-4.6 16.85c0 1.47 1.08 5.88 3.13 13.22.39 1.47.88 3.23 1.47 5.09-3.23-.29-6.17-.69-8.91-1.08-9.8-1.57-17.34-4.31-22.53-8.03l19-.78-.49-10.58c-.29-6.17-3.53-21.55-15.18-32.03 5.49-4.6 12.93-9.01 22.24-13.42 5.29-2.45 13.81-5.98 25.76-10.68l3.82-13.32c-6.56 1.57-12.83 3.62-18.91 5.98-5.49 2.16-10.97 4.8-16.75 7.93-7.05-1.08-13.32-2.94-18.91-5.58-6.56-3.13-9.89-6.47-9.89-9.99 0-3.23 2.84-5.98 8.62-8.23 4.7-1.86 10.87-3.23 18.51-4.21 5.88-.78 11.66-1.08 17.24-1.08-4.21-3.33-7.74-5.68-10.58-7.15-4.21-2.16-8.13-3.23-11.85-3.23-8.33 0-15.38 3.33-21.26 10.09-5.09 5.88-7.64 11.85-7.64 17.93 0 6.76 2.35 12.34 7.05 16.75 2.16 1.96 5.88 4.41 11.46 7.15-2.45 2.35-4.41 4.41-5.98 6.07-5.98-3.33-13.42-5.39-22.83-5.39l-1.08 13.62c6.17-.2 11.66.69 16.26 2.35-.98 1.76-1.76 3.53-2.55 5.39-2.16 5.68-3.23 12.05-3.23 19.2v.39l-9.5.39c-3.13.1-5.58-.1-7.45-.59-2.16-.59-3.72-1.76-4.6-3.43l-2.55.1c-.78 1.57-1.27 2.94-1.47 4.21-.29 1.27-.2 5.98-.1 7.45.1 1.86 1.86 3.33 5.29 4.51s7.35 1.67 11.56 1.47l11.27-.49c1.96 5.09 5 9.31 9.21 12.83q9.105 7.5 26.16 9.99c4.11.59 9.4 1.08 15.77 1.27 1.37 4.7 2.84 9.4 4.31 14.11.78-2.84 1.37-5.19 1.67-6.96.29-1.76.49-3.72.49-5.98v-1.08h5.49l21.75-14.4v-.78c-2.64.1-5.39.1-8.03.2s-5.39.1-8.13.1c-5.19 0-9.89-.1-14.3-.29-.88-3.04-1.86-5.98-2.74-8.91-1.27-4.31-1.96-8.33-1.96-12.15 0-4.21 4.51-7.35 13.52-9.6 7.15-1.76 15.38-2.64 24.88-2.64h10.19v-14.99c-2.94-4.6-5.19-7.84-6.66-9.7v-.02zm-86.6 28.7c0-5.29 1.76-10.48 5.19-15.28 10.78 6.17 15.97 15.97 16.16 20.57l-20.77.88c-.29-1.96-.59-3.92-.59-6.17ZM24.5 30.47c1.08 0 1.96-.39 2.74-1.18s1.18-1.67 1.18-2.74-.39-2.06-1.18-2.84c-.78-.78-1.67-1.18-2.74-1.18s-2.06.39-2.84 1.18-1.18 1.76-1.18 2.84.39 1.96 1.18 2.74c.78.78 1.67 1.18 2.84 1.18m10.29.09c1.08 0 1.96-.39 2.74-1.18s1.18-1.76 1.18-2.84-.39-2.06-1.18-2.84c-.78-.78-1.67-1.27-2.74-1.27s-2.06.39-2.84 1.27c-.78.78-1.18 1.76-1.18 2.84s.39 2.06 1.18 2.84c.78.78 1.67 1.18 2.84 1.18m111.88 16.17c1.08 0 2.06-.39 2.94-1.27.78-.78 1.27-1.76 1.27-2.94s-.39-2.16-1.27-3.04-1.76-1.27-2.94-1.27-2.16.39-2.94 1.27-1.27 1.86-1.27 3.04c0 1.08.39 2.06 1.27 2.94.78.88 1.76 1.27 2.94 1.27" class="cls-1"/><path d="M188.5 55.54c-1.08-2.16-2.55-3.92-4.41-5.29s-3.92-2.06-6.27-2.06c-1.47 0-2.84.29-4.21.88s-2.74 1.57-4.11 3.04-2.64 3.53-3.92 6.17c-.98 2.06-1.86 3.62-2.64 4.8s-1.57 2.06-2.35 2.55-1.67.78-2.74.78c-2.45 0-4.21-.2-5.49-.59s-2.06-.98-2.45-1.67-.69-1.57-.69-2.45c0-1.08.1-2.35.39-3.82s.49-2.64.69-3.72l-7.15-1.27c-.49 2.94-.88 5.29-1.37 7.05q-.585 2.64-1.47 4.11c-.59.88-1.37 1.57-2.35 1.86s-2.35.49-4.02.49c-1.96 0-3.72-.1-5.29-.39-.59-.1-1.18-.2-1.67-.39 1.27-1.96 1.96-4.11 1.96-6.47s-.49-4.6-1.57-6.47a11.53 11.53 0 0 0-4.41-4.51c-1.96-1.08-4.21-1.57-6.86-1.57-2.94 0-5.88.69-8.72 2.16s-5.58 3.33-8.13 5.68l-.98-27.63-7.54 3.43 1.08 32.52c-.88 1.18-1.76 2.35-2.55 3.62h-3.23c-.98 0-1.96-.2-2.84-.59s-1.76-1.08-2.55-2.16c-.78-1.08-1.67-2.64-2.55-4.8-1.76-4.02-3.53-6.86-5.29-8.42s-3.82-2.35-6.17-2.35c-1.27 0-2.64.29-4.21.98-1.47.69-2.94 1.76-4.51 3.33s-2.94 3.72-4.41 6.37a146 146 0 0 0-2.45 4.6c-.59 1.08-1.18 1.86-1.76 2.35s-1.47.69-2.64.69c-1.47 0-2.74-.2-3.82-.49s-1.86-.98-2.35-1.86c-.59-.98-.88-2.35-.98-4.31l-1.08-22.34h-7.74l.29 4.9c-3.33.69-6.27 1.76-8.91 3.23s-4.7 3.23-6.27 5.29-2.25 4.51-2.25 7.15c0 2.16.49 4.02 1.67 5.58 1.08 1.47 2.55 2.64 4.41 3.53s3.92 1.37 6.27 1.47c2.35.2 4.8 0 7.45-.59 1.08 2.16 2.64 3.72 4.8 4.7 2.16.88 4.8 1.37 7.93 1.37 1.76 0 3.23-.2 4.51-.49s2.35-.88 3.33-1.76 1.96-2.16 2.84-3.82c1.76 2.45 3.92 4.21 6.17 5.29s4.41 1.67 6.17 1.67 3.13-.39 4.41-1.18a9.7 9.7 0 0 0 3.04-2.94c.98 1.08 2.25 1.96 3.72 2.45s3.13.78 5 .78h11.36c3.62 0 6.76-.1 9.5-.29 2.64-.2 5.09-.49 7.05-.78q3.09-.585 5.58-1.47c.49-.2.88-.39 1.37-.59.69.39 1.47.78 2.25 1.08 1.67.69 3.43 1.18 5.39 1.47 1.96.39 3.82.49 5.58.49 2.64 0 4.9-.29 6.96-.88 1.96-.59 3.72-1.86 5.19-3.92.69 1.76 1.96 2.94 3.82 3.72 1.76.69 4.41 1.08 7.93 1.08 2.25 0 4.21-.29 5.78-.78s3.04-1.67 4.31-3.33c2.55 1.67 4.8 2.64 6.86 3.13s3.82.69 5.29.69c1.96 0 3.72-.49 5.29-1.37s2.84-2.25 3.82-3.92c.98-1.76 1.47-3.82 1.47-6.17.1-2.25-.49-4.51-1.57-6.66v.03zM27.15 60.93c-1.67-.1-3.04-.49-4.11-1.08-1.08-.59-1.67-1.47-1.67-2.55 0-1.57.88-3.04 2.74-4.41 1.76-1.37 4.31-2.35 7.54-2.74l.49 10.58c-1.67.2-3.33.29-5 .2Zm44.57 5.19c-.59.78-1.47 1.27-2.55 1.27-1.57 0-3.23-.59-4.9-1.67s-3.04-2.55-4.11-4.31c1.08-2.16 2.16-3.62 3.13-4.51s1.96-1.27 2.74-1.27c.88 0 1.67.39 2.35 1.08.69.69 1.37 1.67 1.86 2.74.49 1.08.98 2.16 1.37 3.13.69 1.57.69 2.74.1 3.53h.01Zm47.81-2.94c-1.37 1.08-3.62 1.86-6.66 2.35-3.13.59-7.25.88-12.54.88h-1.96c1.47-1.86 3.04-3.72 4.9-5.58s3.82-3.43 5.98-4.7 4.21-1.86 6.37-1.86 3.62.59 4.51 1.67c.98 1.18 1.47 2.25 1.47 3.43 0 1.57-.69 2.84-2.06 3.82h-.01Zm59.07 2.94c-.88 0-1.96-.2-3.33-.49-1.27-.39-2.74-.98-4.31-1.76 1.27-2.64 2.35-4.7 3.23-5.98.88-1.27 1.96-1.96 3.23-1.96.98 0 1.86.39 2.64 1.08s1.47 1.67 1.96 2.64c.49 1.08.78 2.06.78 3.13.1 2.25-1.37 3.33-4.21 3.33h.01Z" class="cls-1"/><path d="M113.85 40.46c1.08 0 2.06-.39 2.94-1.27.78-.78 1.27-1.76 1.27-2.94s-.39-2.16-1.27-3.04c-.78-.88-1.76-1.27-2.94-1.27s-2.16.39-2.94 1.27-1.27 1.86-1.27 3.04c0 1.08.39 2.06 1.27 2.94.78.88 1.76 1.27 2.94 1.27m58.1 63.97-7.54 3.43 1.08 28.02c.1 2.16 0 3.92-.1 5-.2 1.18-.69 1.96-1.67 2.35-.88.39-2.45.69-4.6.69-3.72 0-7.15-.39-10.29-1.27 3.72-3.62 5.58-7.45 5.58-11.66 0-2.45-.98-4.51-2.84-6.17s-4.8-2.55-8.62-2.55c-1.96 0-3.82.29-5.68.88s-3.53 1.37-5 2.25-2.64 1.86-3.53 2.94c-.88 1.08-1.37 1.96-1.37 2.84 0 .39.1.88.29 1.57.2.69.39 1.47.69 2.16s.49 1.18.78 1.37c1.08.78 2.16 1.76 3.33 2.84 1.08 1.08 2.16 2.16 3.04 3.23-1.57.49-3.33.88-5.19 1.08-1.86.29-3.82.39-5.98.39-.98 0-1.86-.2-2.74-.59s-1.76-1.08-2.55-2.16c-.78-1.08-1.67-2.64-2.55-4.8-1.76-4.02-3.53-6.86-5.29-8.42s-3.82-2.35-6.17-2.35c-1.27 0-2.64.29-4.21.98-1.47.69-2.94 1.76-4.51 3.33s-2.94 3.72-4.41 6.37a146 146 0 0 0-2.45 4.6c-.59 1.08-1.18 1.86-1.76 2.35-.59.49-1.47.69-2.64.69H48.51c-2.45 0-4.21-.49-5.49-1.57s-1.86-3.23-1.96-6.56l-1.08-31.45-7.54 3.43 1.27 34.09c.1 3.62-.2 6.66-.98 9.21s-2.25 4.41-4.41 5.68-5.09 1.96-9.01 1.96c-2.16 0-4.21-.39-5.98-1.18-1.76-.78-3.13-1.86-4.21-3.43-1.08-1.47-1.57-3.23-1.57-5.29 0-1.37.2-2.74.59-4.21s.88-3.13 1.67-5.09l-6.76-2.35C1.78 139.9.99 142.35.6 144.51S.01 148.43.01 150q0 5.295 2.64 8.82c1.76 2.35 4.11 4.11 6.96 5.39 2.94 1.18 6.07 1.76 9.5 1.76 6.66 0 11.76-1.47 15.28-4.31s5.78-7.15 6.56-12.74c.88.78 1.96 1.47 3.13 1.86s2.45.59 3.82.59h36.44c1.76 0 3.23-.2 4.51-.49s2.35-.88 3.33-1.76 1.96-2.16 2.84-3.82c1.76 2.45 3.92 4.21 6.17 5.29s4.41 1.67 6.17 1.67 3.13-.39 4.41-1.18 2.25-1.76 3.04-2.94c.98 1.08 2.25 1.96 3.72 2.45s3.13.78 4.8.78h.29c3.43 0 6.66-.39 9.6-1.08 3.04-.69 5.78-1.57 8.13-2.74 4.6 2.55 10.29 3.82 17.05 3.82 3.33 0 6.07-.39 8.03-1.08s3.53-1.76 4.51-3.04c.98-1.37 1.67-2.94 1.86-4.9.29-1.96.39-4.11.29-6.47l-1.18-31.45zm-62.11 39.28c-.59.78-1.47 1.27-2.55 1.27-1.57 0-3.23-.59-4.9-1.67s-3.04-2.55-4.11-4.31c1.08-2.16 2.16-3.62 3.13-4.51.98-.88 1.96-1.27 2.74-1.27.88 0 1.67.39 2.35 1.08.69.69 1.37 1.67 1.86 2.74s.98 2.16 1.37 3.13c.69 1.57.69 2.74.1 3.53h.01Zm32.62-4.31c-1.27-1.47-2.64-2.94-4.11-4.31s-2.84-2.55-4.11-3.62c1.08-.69 2.25-1.27 3.72-1.57 1.47-.39 2.74-.59 3.82-.59 1.96 0 3.33.39 4.02 1.08.78.69 1.18 1.57 1.18 2.35 0 2.35-1.47 4.6-4.51 6.66zm46.14-34.87-7.54 3.42 1.27 43.41h7.54zM25.97 185.65c1.08 0 1.96-.39 2.74-1.18s1.18-1.67 1.18-2.74-.39-2.06-1.18-2.84c-.78-.78-1.67-1.18-2.74-1.18s-2.06.39-2.84 1.18c-.78.78-1.18 1.76-1.18 2.84s.39 1.96 1.18 2.74a3.93 3.93 0 0 0 2.84 1.18m10.29.1c1.08 0 1.96-.39 2.74-1.18s1.18-1.76 1.18-2.84-.39-2.06-1.18-2.84c-.78-.78-1.67-1.27-2.74-1.27s-2.06.39-2.84 1.27c-.78.78-1.18 1.76-1.18 2.84s.39 2.06 1.18 2.84a3.93 3.93 0 0 0 2.84 1.18m28.9 49.37c-1.08 0-2.06.39-2.84 1.18s-1.18 1.76-1.18 2.84.39 2.06 1.18 2.84 1.76 1.18 2.84 1.18 1.96-.39 2.74-1.18 1.18-1.76 1.18-2.84-.39-2.06-1.18-2.84c-.78-.78-1.67-1.18-2.74-1.18m-10.29 0c-1.08 0-2.06.39-2.84 1.18-.78.78-1.18 1.76-1.18 2.84s.39 2.06 1.18 2.84 1.76 1.18 2.84 1.18 1.96-.39 2.74-1.18 1.18-1.76 1.18-2.84-.39-2.06-1.18-2.84c-.69-.78-1.67-1.18-2.74-1.18m61.52-25.08c-.98-1.67-2.25-2.94-3.72-4.02a9.27 9.27 0 0 0-5.19-1.57c-1.76 0-3.43.49-4.9 1.37s-2.84 2.06-3.92 3.62c-1.08 1.47-1.96 3.23-2.64 5-.59 1.86-.98 3.72-.98 5.68 0 3.23.98 5.49 3.04 6.96 1.96 1.47 4.6 2.16 7.84 2.16.88 0 1.67-.1 2.45-.2s1.47-.29 2.16-.59c-1.27 2.55-3.33 4.21-6.17 5.29-2.84.98-6.37 1.76-10.58 2.35l1.57 7.64c7.64-.59 13.62-2.74 17.83-6.56s6.37-9.11 6.37-15.97c0-1.96-.29-3.92-.78-5.88-.59-1.86-1.27-3.72-2.35-5.29h-.03Zm-9.11 11.85c-1.67 0-2.84-.29-3.62-.88s-1.18-1.37-1.18-2.45c0-.88.2-1.86.59-2.74.39-.98.88-1.76 1.57-2.35s1.47-.98 2.25-.98c1.08 0 1.86.49 2.64 1.37.69.88 1.27 1.96 1.67 3.33.39 1.37.59 2.74.59 4.11-1.37.39-2.94.59-4.51.59m64.67-39.87-7.54 3.53 1.08 28.02c.1 2.16 0 3.92-.1 5-.2 1.18-.69 1.96-1.67 2.35-.88.39-2.45.69-4.6.69h-.1c-.88 0-1.76-.1-2.64-.39s-1.67-.78-2.45-1.67c-.69-.78-1.27-1.96-1.76-3.53-.59-2.35-1.67-5.19-3.33-8.52-1.67-3.43-3.72-6.96-6.47-10.78l-6.47 4.31c.88 1.27 1.76 2.64 2.74 4.21a68 68 0 0 1 2.74 4.51c.88 1.47 1.57 2.94 2.06 4.21s.78 2.45.78 3.43c0 1.27-.59 2.25-1.67 3.13s-3.13 1.27-6.17 1.27c-1.47 0-3.04-.2-4.6-.59-1.57-.39-2.94-.98-4.21-1.57l-2.94 6.76c1.67 1.08 3.62 1.76 5.98 2.35 2.25.49 4.51.78 6.56.78 3.04 0 5.58-.39 7.64-1.27 1.96-.78 3.53-1.86 4.6-3.04.98 1.47 2.25 2.55 3.72 3.23s3.23.98 5.19.98c3.33 0 6.07-.39 8.03-1.08s3.53-1.76 4.51-3.04c.98-1.37 1.67-2.94 1.86-4.9.29-1.96.39-4.11.29-6.47l-1.08-31.94zm-85.24 0-7.54 3.43 1.08 28.02c.1 2.16 0 3.92-.1 5-.2 1.18-.69 1.96-1.67 2.35-.88.39-2.45.69-4.6.69-2.55 0-4.51-.2-5.78-.59s-2.16-.98-2.55-1.67-.69-1.57-.69-2.45c0-1.08.1-2.35.39-3.82s.49-2.64.69-3.72l-7.15-1.27q-.735 4.41-1.47 7.05c-.735 2.64-1.08 3.13-1.76 4.11-.69.88-1.67 1.57-2.74 1.86s-2.64.49-4.41.49c-1.47 0-2.74-.2-3.82-.49s-1.86-.98-2.35-1.86c-.59-.98-.88-2.35-.98-4.31l-.98-22.14h-7.74l.29 4.9c-3.33.69-6.27 1.76-8.91 3.23s-4.7 3.23-6.27 5.29-2.25 4.51-2.25 7.15c0 2.16.49 4.02 1.67 5.58 1.08 1.47 2.55 2.64 4.41 3.53 1.86.88 3.92 1.37 6.27 1.47 2.35.2 4.8 0 7.45-.59 1.08 2.16 2.64 3.72 4.8 4.7 2.16.88 4.8 1.37 7.93 1.37 2.74 0 5.29-.29 7.64-.88s4.21-1.96 5.88-4.02c.78 1.76 2.16 3.04 4.02 3.82 1.96.78 4.6 1.18 8.03 1.18 3.33 0 6.07-.39 8.03-1.08s3.53-1.76 4.51-3.04c.98-1.37 1.67-2.94 1.86-4.9.29-1.96.39-4.11.29-6.47L86.72 182v.02zm-58.09 34.09c-1.67-.1-3.04-.49-4.11-1.08-1.08-.59-1.67-1.47-1.67-2.55 0-1.57.88-3.04 2.74-4.41 1.76-1.37 4.31-2.35 7.54-2.74l.49 10.58c-1.67.2-3.33.29-5 .2Zm159.98-34.09-7.54 3.53 1.27 43.4h7.54z" class="cls-1"/></g></svg>