<svg xmlns="http://www.w3.org/2000/svg" viewBox="0 0 1113.61 325.97">
  <g fill="#fff">
    <path
      d="M404.95 104.7V58.5h7.92v46.2h-7.92zM441.33 104.7V85.36c0-5.24-2.09-7.85-6.27-7.85-4.58 0-6.86 2.57-6.86 7.72v19.47h-7.72V70.97h7.72v3.17c2.2-2.64 5.17-3.96 8.91-3.96 3.52 0 6.39 1.1 8.61 3.3 2.22 2.2 3.33 5.7 3.33 10.49v20.72h-7.72zM465.73 105.5c-5.24 0-7.85-2.88-7.85-8.65V77.71h-5.02v-6.73h5.02V60.75l7.72-3.7v13.93h7.79v6.73h-7.79v17.62c0 2.16.95 3.23 2.84 3.23 1.72 0 3.48-.51 5.28-1.52l-.92 6.93c-1.94 1.01-4.29 1.52-7.06 1.52zM492.36 105.5c-4.8 0-8.59-1.57-11.38-4.72-2.79-3.15-4.19-7.47-4.19-12.97s1.41-9.76 4.22-12.9c2.81-3.15 6.6-4.72 11.35-4.72 4.31 0 7.84 1.34 10.59 4.03 2.75 2.68 4.12 6.62 4.12 11.81 0 1.8-.09 3.39-.26 4.75h-22.37c.13 2.38.96 4.29 2.47 5.74 1.52 1.45 3.33 2.18 5.45 2.18 2.99 0 5.37-1.17 7.13-3.5l4.88 5.02c-2.95 3.52-6.95 5.28-12.01 5.28zm-7.85-21.12h14.92c-.18-2.42-.92-4.26-2.24-5.51-1.32-1.25-2.93-1.88-4.82-1.88-2.2 0-4.02.61-5.45 1.82-1.43 1.21-2.23 3.07-2.41 5.58zM512.41 104.7V70.97h7.72v3.5c1.36-2.86 3.67-4.29 6.93-4.29 2.38 0 4.47.77 6.27 2.31l-1.12 7.06c-1.67-1.19-3.59-1.78-5.74-1.78-1.76 0-3.26.62-4.49 1.85-1.23 1.23-1.85 3.3-1.85 6.2v18.88h-7.72zM558.01 104.7V85.36c0-5.24-2.09-7.85-6.27-7.85-4.58 0-6.86 2.57-6.86 7.72v19.47h-7.72V70.97h7.72v3.17c2.2-2.64 5.17-3.96 8.91-3.96 3.52 0 6.39 1.1 8.61 3.3 2.22 2.2 3.33 5.7 3.33 10.49v20.72h-7.72zM591.89 104.7v-2.71c-2.24 2.33-5.24 3.5-8.98 3.5s-6.54-.98-8.81-2.94c-2.27-1.96-3.4-4.72-3.4-8.28s1.29-6.42 3.86-8.32c2.57-1.89 5.69-2.84 9.34-2.84 3.21 0 5.87.59 7.99 1.78v-1.78c0-2.16-.54-3.72-1.62-4.69-1.08-.97-2.74-1.45-4.98-1.45-3.65 0-7 1.06-10.03 3.17l-2.38-6.27c3.65-2.46 8.05-3.7 13.2-3.7 1.76 0 3.31.14 4.65.43 1.34.29 2.73.85 4.16 1.68 1.43.84 2.54 2.16 3.33 3.96.79 1.8 1.19 4.05 1.19 6.73v21.71h-7.52zm-7.52-6.01c2.95 0 5.46-1.08 7.52-3.23V91.1c-1.94-.92-4.18-1.39-6.73-1.39-2.07 0-3.74.37-5.02 1.12-1.28.75-1.91 1.89-1.91 3.43 0 1.36.53 2.44 1.58 3.23s2.57 1.19 4.55 1.19zM616.01 105.5c-5.24 0-7.85-2.88-7.85-8.65V77.71h-5.02v-6.73h5.02V60.75l7.72-3.7v13.93h7.79v6.73h-7.79v17.62c0 2.16.95 3.23 2.84 3.23 1.72 0 3.48-.51 5.28-1.52l-.92 6.93c-1.94 1.01-4.29 1.52-7.06 1.52zM635.77 65.01c-.88.9-1.96 1.35-3.23 1.35s-2.37-.45-3.27-1.35c-.9-.9-1.35-1.99-1.35-3.27s.45-2.35 1.35-3.23c.9-.88 1.99-1.32 3.27-1.32s2.35.44 3.23 1.32c.88.88 1.32 1.96 1.32 3.23s-.44 2.37-1.32 3.27zm-7.13 39.7V70.98h7.72v33.73h-7.72zM657.37 105.5c-4.75 0-8.51-1.56-11.29-4.69-2.77-3.12-4.16-7.44-4.16-12.94s1.39-9.82 4.16-12.97c2.77-3.15 6.53-4.72 11.29-4.72s8.52 1.57 11.32 4.72c2.79 3.15 4.19 7.47 4.19 12.97s-1.39 9.81-4.16 12.94c-2.77 3.12-6.56 4.69-11.35 4.69zm0-7.39c2.42 0 4.32-.9 5.71-2.71 1.39-1.8 2.08-4.31 2.08-7.52s-.69-5.74-2.08-7.59-3.29-2.77-5.71-2.77-4.2.94-5.61 2.8c-1.41 1.87-2.11 4.39-2.11 7.56s.69 5.67 2.08 7.49c1.39 1.83 3.27 2.74 5.64 2.74zM699.36 104.7V85.36c0-5.24-2.09-7.85-6.27-7.85-4.58 0-6.86 2.57-6.86 7.72v19.47h-7.72V70.97h7.72v3.17c2.2-2.64 5.17-3.96 8.91-3.96 3.52 0 6.39 1.1 8.61 3.3 2.22 2.2 3.33 5.7 3.33 10.49v20.72h-7.72zM733.24 104.7v-2.71c-2.24 2.33-5.24 3.5-8.98 3.5s-6.54-.98-8.81-2.94c-2.27-1.96-3.4-4.72-3.4-8.28s1.29-6.42 3.86-8.32c2.57-1.89 5.69-2.84 9.34-2.84 3.21 0 5.87.59 7.99 1.78v-1.78c0-2.16-.54-3.72-1.62-4.69-1.08-.97-2.74-1.45-4.98-1.45-3.65 0-7 1.06-10.03 3.17l-2.38-6.27c3.65-2.46 8.05-3.7 13.2-3.7 1.76 0 3.31.14 4.65.43 1.34.29 2.73.85 4.16 1.68 1.43.84 2.54 2.16 3.33 3.96.79 1.8 1.19 4.05 1.19 6.73v21.71h-7.52zm-7.52-6.01c2.95 0 5.46-1.08 7.52-3.23V91.1c-1.94-.92-4.18-1.39-6.73-1.39-2.07 0-3.74.37-5.02 1.12-1.28.75-1.91 1.89-1.91 3.43 0 1.36.53 2.44 1.58 3.23s2.57 1.19 4.55 1.19zM747.74 104.7V60.68l7.72-3.63v47.65h-7.72zM404.62 170.7v-46.2h7.92v38.61h22.44v7.59h-30.36zM459.45 170.7v-2.71c-2.24 2.33-5.24 3.5-8.98 3.5s-6.54-.98-8.81-2.94c-2.27-1.96-3.4-4.72-3.4-8.28s1.29-6.42 3.86-8.32c2.57-1.89 5.69-2.84 9.34-2.84 3.21 0 5.87.59 7.99 1.78v-1.78c0-2.16-.54-3.72-1.62-4.69-1.08-.97-2.74-1.45-4.98-1.45-3.65 0-7 1.06-10.03 3.17l-2.38-6.27c3.65-2.46 8.05-3.7 13.2-3.7 1.76 0 3.31.14 4.65.43 1.34.29 2.73.85 4.16 1.68 1.43.84 2.54 2.16 3.33 3.96.79 1.8 1.19 4.05 1.19 6.73v21.71h-7.52zm-7.52-6.01c2.95 0 5.46-1.08 7.52-3.23v-4.36c-1.94-.92-4.18-1.39-6.73-1.39-2.07 0-3.74.37-5.02 1.12-1.28.75-1.91 1.89-1.91 3.43 0 1.36.53 2.44 1.58 3.23s2.57 1.19 4.55 1.19zM488.98 171.5c-3.17 0-5.65-1.12-7.46-3.37v2.57h-7.72v-44.15l7.72-3.5v16.43c1.89-2.2 4.42-3.3 7.59-3.3 4.18 0 7.56 1.58 10.13 4.75 2.57 3.17 3.86 7.46 3.86 12.87s-1.25 9.99-3.76 13.07-5.96 4.62-10.36 4.62zm-.92-7.39c2.38 0 4.19-.91 5.45-2.74 1.25-1.83 1.88-4.34 1.88-7.56s-.64-5.9-1.91-7.66c-1.28-1.76-3.08-2.64-5.41-2.64-2.9 0-5.08 1.1-6.53 3.3v14.06c1.41 2.16 3.59 3.23 6.53 3.23zM522.64 171.5c-4.75 0-8.51-1.56-11.29-4.69-2.77-3.12-4.16-7.44-4.16-12.94s1.39-9.82 4.16-12.97c2.77-3.15 6.53-4.72 11.29-4.72s8.52 1.57 11.32 4.72c2.79 3.15 4.19 7.47 4.19 12.97s-1.39 9.81-4.16 12.94c-2.77 3.12-6.56 4.69-11.35 4.69zm0-7.39c2.42 0 4.32-.9 5.71-2.71 1.39-1.8 2.08-4.31 2.08-7.52s-.69-5.74-2.08-7.59-3.29-2.77-5.71-2.77-4.2.94-5.61 2.8c-1.41 1.87-2.11 4.39-2.11 7.56s.69 5.67 2.08 7.49c1.39 1.83 3.27 2.74 5.64 2.74zM564.24 170.7v-3.23c-2.11 2.68-5.06 4.03-8.84 4.03-3.52 0-6.4-1.11-8.65-3.33-2.24-2.22-3.37-5.73-3.37-10.53v-20.66h7.72v19.27c0 5.24 2.11 7.85 6.34 7.85 4.53 0 6.8-2.57 6.8-7.72v-19.4h7.72v33.73h-7.72zM579.15 170.7v-33.73h7.72v3.5c1.36-2.86 3.67-4.29 6.93-4.29 2.38 0 4.47.77 6.27 2.31l-1.12 7.06c-1.67-1.19-3.59-1.78-5.74-1.78-1.76 0-3.26.62-4.49 1.85-1.23 1.23-1.85 3.3-1.85 6.2v18.88h-7.72zM423.23 237.5c-2.86 0-5.46-.46-7.79-1.39-2.33-.92-4.26-2.17-5.77-3.73-1.52-1.56-2.79-3.38-3.83-5.44a25.446 25.446 0 0 1-2.21-6.44c-.44-2.22-.66-4.52-.66-6.9s.22-4.67.66-6.9c.44-2.22 1.18-4.37 2.21-6.44 1.03-2.07 2.31-3.88 3.83-5.44 1.52-1.56 3.44-2.81 5.77-3.73s4.93-1.39 7.79-1.39c3.56 0 6.7.69 9.41 2.08 2.71 1.39 4.82 3.26 6.34 5.61 1.52 2.35 2.65 4.9 3.4 7.62.75 2.73 1.12 5.59 1.12 8.58s-.38 5.85-1.12 8.58a27.21 27.21 0 0 1-3.4 7.62c-1.52 2.35-3.63 4.22-6.34 5.61-2.71 1.39-5.84 2.08-9.41 2.08zm0-7.59c2.11 0 3.98-.51 5.61-1.52 1.63-1.01 2.89-2.34 3.79-3.99.9-1.65 1.57-3.39 2.01-5.21.44-1.83.66-3.68.66-5.58 0-2.02-.22-3.95-.66-5.77-.44-1.83-1.11-3.55-2.01-5.18a10.25 10.25 0 0 0-3.76-3.89c-1.61-.97-3.49-1.45-5.64-1.45-2.82 0-5.17.89-7.06 2.67-1.89 1.78-3.2 3.84-3.93 6.17s-1.09 4.82-1.09 7.46c0 1.98.22 3.89.66 5.74a20.4 20.4 0 0 0 2.01 5.21c.9 1.63 2.16 2.93 3.76 3.89 1.61.97 3.49 1.45 5.64 1.45zM450.13 236.7v-33.73h7.72v3.5c1.36-2.86 3.67-4.29 6.93-4.29 2.38 0 4.47.77 6.27 2.31l-1.12 7.06c-1.67-1.19-3.59-1.78-5.74-1.78-1.76 0-3.26.62-4.49 1.85-1.23 1.23-1.85 3.3-1.85 6.2v18.88h-7.72zM486.41 249.91l-4.09-6.2c4.62-.31 7.82-1.02 9.6-2.15s2.67-2.85 2.67-5.18v-1.91c-1.85 2.02-4.4 3.04-7.66 3.04-4.14 0-7.49-1.53-10.06-4.59-2.57-3.06-3.86-7.43-3.86-13.1s1.29-9.76 3.86-12.9c2.57-3.15 5.95-4.72 10.13-4.72 3.17 0 5.7.95 7.59 2.84v-2.05h7.72v30.36c0 5.59-1.2 9.64-3.6 12.14-2.4 2.51-6.5 3.98-12.31 4.42zm1.85-19.8c2.77 0 4.88-1.1 6.34-3.3v-13.99c-1.54-2.2-3.65-3.3-6.34-3.3-2.42 0-4.28.88-5.58 2.64-1.3 1.76-1.95 4.31-1.95 7.66 0 3.17.66 5.68 1.98 7.52s3.17 2.77 5.54 2.77zM528.74 236.7v-2.71c-2.24 2.33-5.24 3.5-8.98 3.5s-6.54-.98-8.81-2.94c-2.27-1.96-3.4-4.72-3.4-8.28s1.29-6.42 3.86-8.32c2.57-1.89 5.69-2.84 9.34-2.84 3.21 0 5.87.59 7.99 1.78v-1.78c0-2.16-.54-3.72-1.62-4.69-1.08-.97-2.74-1.45-4.98-1.45-3.65 0-7 1.06-10.03 3.17l-2.38-6.27c3.65-2.46 8.05-3.7 13.2-3.7 1.76 0 3.31.14 4.65.43 1.34.29 2.73.85 4.16 1.68 1.43.84 2.54 2.16 3.33 3.96.79 1.8 1.19 4.05 1.19 6.73v21.71h-7.52zm-7.52-6.01c2.95 0 5.46-1.08 7.52-3.23v-4.36c-1.94-.92-4.18-1.39-6.73-1.39-2.07 0-3.74.37-5.02 1.12-1.28.75-1.91 1.89-1.91 3.43 0 1.36.53 2.44 1.58 3.23s2.57 1.19 4.55 1.19zM563.94 236.7v-19.34c0-5.24-2.09-7.85-6.27-7.85-4.58 0-6.86 2.57-6.86 7.72v19.47h-7.72v-33.73h7.72v3.17c2.2-2.64 5.17-3.96 8.91-3.96 3.52 0 6.39 1.1 8.61 3.3 2.22 2.2 3.33 5.7 3.33 10.49v20.72h-7.72zM585.64 197.01c-.88.9-1.96 1.35-3.23 1.35s-2.37-.45-3.27-1.35c-.9-.9-1.35-1.99-1.35-3.27s.45-2.35 1.35-3.23c.9-.88 1.99-1.32 3.27-1.32s2.35.44 3.23 1.32c.88.88 1.32 1.96 1.32 3.23s-.44 2.37-1.32 3.27zm-7.13 39.7v-33.73h7.72v33.73h-7.72zM591.22 236.7v-6.2l17.69-20.66h-16.37v-6.86h25.94v5.94l-17.62 20.92h17.56v6.86h-27.19zM643.73 236.7v-2.71c-2.24 2.33-5.24 3.5-8.98 3.5s-6.54-.98-8.81-2.94c-2.27-1.96-3.4-4.72-3.4-8.28s1.29-6.42 3.86-8.32c2.57-1.89 5.69-2.84 9.34-2.84 3.21 0 5.87.59 7.99 1.78v-1.78c0-2.16-.54-3.72-1.62-4.69-1.08-.97-2.74-1.45-4.98-1.45-3.65 0-7 1.06-10.03 3.17l-2.38-6.27c3.65-2.46 8.05-3.7 13.2-3.7 1.76 0 3.31.14 4.65.43 1.34.29 2.73.85 4.16 1.68 1.43.84 2.54 2.16 3.33 3.96.79 1.8 1.19 4.05 1.19 6.73v21.71h-7.52zm-7.52-6.01c2.95 0 5.46-1.08 7.52-3.23v-4.36c-1.94-.92-4.18-1.39-6.73-1.39-2.07 0-3.74.37-5.02 1.12-1.28.75-1.91 1.89-1.91 3.43 0 1.36.53 2.44 1.58 3.23s2.57 1.19 4.55 1.19zM667.86 237.5c-5.24 0-7.85-2.88-7.85-8.65v-19.14h-5.02v-6.73h5.02v-10.23l7.72-3.7v13.93h7.79v6.73h-7.79v17.62c0 2.16.95 3.23 2.84 3.23 1.72 0 3.48-.51 5.28-1.52l-.92 6.93c-1.94 1.01-4.29 1.52-7.06 1.52zM687.62 197.01c-.88.9-1.96 1.35-3.23 1.35s-2.37-.45-3.27-1.35c-.9-.9-1.35-1.99-1.35-3.27s.45-2.35 1.35-3.23c.9-.88 1.99-1.32 3.27-1.32s2.35.44 3.23 1.32c.88.88 1.32 1.96 1.32 3.23s-.44 2.37-1.32 3.27zm-7.13 39.7v-33.73h7.72v33.73h-7.72zM709.22 237.5c-4.75 0-8.51-1.56-11.29-4.69-2.77-3.12-4.16-7.44-4.16-12.94s1.39-9.82 4.16-12.97c2.77-3.15 6.53-4.72 11.29-4.72s8.52 1.57 11.32 4.72c2.79 3.15 4.19 7.47 4.19 12.97s-1.39 9.81-4.16 12.94c-2.77 3.12-6.56 4.69-11.35 4.69zm0-7.39c2.42 0 4.32-.9 5.71-2.71 1.39-1.8 2.08-4.31 2.08-7.52s-.69-5.74-2.08-7.59-3.29-2.77-5.71-2.77-4.2.94-5.61 2.8c-1.41 1.87-2.11 4.39-2.11 7.56s.69 5.67 2.08 7.49c1.39 1.83 3.27 2.74 5.64 2.74zM751.21 236.7v-19.34c0-5.24-2.09-7.85-6.27-7.85-4.58 0-6.86 2.57-6.86 7.72v19.47h-7.72v-33.73h7.72v3.17c2.2-2.64 5.17-3.96 8.91-3.96 3.52 0 6.39 1.1 8.61 3.3 2.22 2.2 3.33 5.7 3.33 10.49v20.72h-7.72z"
    />
  </g>
  <g fill="#fff">
    <path
      d="M121.57 96.87c-1.26 2.18-1.74 3.14-1.74 3.14-.96 1.91-3.38 2.86-5.38 2.09l-3.65-1.39c-2-.76-4.26.25-5.02 2.25l-2.77 7.27c-.76 2 .25 4.26 2.25 5.02l3.64 1.39c2 .76 3.22 3.09 2.71 5.17l-1.6 7.95c-.33 2.12-2.35 3.79-4.49 3.72l-3.9-.13a3.903 3.903 0 0 0-4.02 3.76l-.26 7.77a3.903 3.903 0 0 0 3.76 4.02l3.93.13c2.14.07 4.05 1.87 4.25 4.01l1.08 8.02c.37 2.11-1 4.35-3.04 4.97l-3.78 1.16a3.896 3.896 0 0 0-2.58 4.86l3.41 11.18 21-6.49c-9.62-23.5-8.65-51.04 5.03-74.74 13.68-23.69 37.05-38.3 62.22-41.72l-4.87-21.43-11.38 2.63c-2.09.48-3.4 2.58-2.92 4.67l.89 3.86c.48 2.09-.77 4.39-2.79 5.12l-7.48 3.08c-1.94.89-4.46.14-5.59-1.68l-2.08-3.34a3.9 3.9 0 0 0-5.36-1.25l-6.6 4.11a3.9 3.9 0 0 0-1.25 5.36l2.06 3.32c1.13 1.82.69 4.4-.97 5.75l-6.08 5.35c-1.55 1.48-4.17 1.58-5.83.23l-3.02-2.46a3.911 3.911 0 0 0-5.48.56l-4.91 6.03a3.911 3.911 0 0 0 .56 5.48l3.03 2.47c1.66 1.35 2.05 3.92.88 5.71 0 0-.57.85-1.82 3.03zM202.6 237.33c2.52 0 3.59-.06 3.59-.06 2.14-.13 4.17 1.5 4.51 3.62l.62 3.85c.34 2.11 2.35 3.57 4.46 3.22l7.68-1.24a3.904 3.904 0 0 0 3.22-4.46l-.62-3.85c-.34-2.11 1.06-4.33 3.12-4.93l7.68-2.59c2-.77 4.46.14 5.46 2.03l1.84 3.45a3.905 3.905 0 0 0 5.27 1.6l6.86-3.66a3.905 3.905 0 0 0 1.6-5.27l-1.85-3.47c-1.01-1.89-.4-4.45 1.34-5.68l6.4-4.94c1.64-1.38 4.26-1.31 5.83.15l2.89 2.7a3.907 3.907 0 0 0 5.5-.19l7.97-8.54-16.12-14.94c-15.54 20.08-39.88 33.02-67.24 33.01-27.36 0-51.7-12.94-67.24-33.02l-16.12 14.93 7.97 8.54c1.46 1.57 3.93 1.65 5.5.19l2.89-2.7c1.57-1.46 4.19-1.53 5.83-.15l6.4 4.94c1.75 1.24 2.35 3.79 1.34 5.68l-1.85 3.47a3.905 3.905 0 0 0 1.6 5.27l6.86 3.66c1.89 1.01 4.26.29 5.27-1.6l1.84-3.45c1.01-1.89 3.47-2.8 5.46-2.03l7.68 2.59c2.05.6 3.46 2.82 3.12 4.93l-.62 3.85a3.904 3.904 0 0 0 3.22 4.46l7.68 1.24c2.11.34 4.12-1.11 4.46-3.22l.62-3.85c.34-2.11 2.37-3.74 4.51-3.61 0 0 1.02.06 3.54.06zM283.73 96.93c-1.26-2.18-1.85-3.08-1.85-3.08-1.18-1.79-.78-4.36.88-5.71l3.03-2.47c1.66-1.35 1.91-3.82.56-5.48l-4.91-6.03c-1.35-1.66-3.82-1.91-5.48-.56l-3.02 2.46c-1.66 1.35-4.28 1.25-5.83-.23l-6.08-5.36c-1.67-1.34-2.1-3.93-.97-5.75l2.07-3.32a3.9 3.9 0 0 0-1.25-5.36l-6.6-4.11a3.9 3.9 0 0 0-5.36 1.25l-2.08 3.34c-1.13 1.82-3.65 2.57-5.59 1.68l-7.48-3.08c-2.01-.73-3.27-3.04-2.78-5.12l.89-3.86c.48-2.09-.83-4.19-2.92-4.67l-11.38-2.63-4.87 21.43c25.16 3.42 48.53 18.03 62.21 41.73 13.68 23.69 14.65 51.24 5.02 74.74l20.99 6.49 3.41-11.17c.63-2.05-.53-4.23-2.58-4.86l-3.78-1.16c-2.05-.63-3.42-2.86-3.04-4.97l1.08-8.02c.2-2.13 2.11-3.93 4.25-4.01l3.93-.13a3.903 3.903 0 0 0 3.76-4.02l-.26-7.77a3.903 3.903 0 0 0-4.02-3.76l-3.91.13c-2.14.07-4.16-1.6-4.49-3.72l-1.6-7.95c-.51-2.08.71-4.4 2.72-5.17l3.64-1.39c2-.76 3.02-3.02 2.25-5.02l-2.76-7.27c-.76-2-3.02-3.02-5.02-2.25l-3.65 1.39c-2 .76-4.42-.18-5.38-2.1 0 0-.46-.92-1.71-3.1zM80.99 95.09c-.06.11-.09.17-.09.17s.03-.06.09-.17zM114.46 51l.29.36c.92-.64 4.06-2.9 7.91-3.98 21.17-5.95 20.12-13.27 29.07-17.62l-.27-.44c-.89.56-3.64 2.16-7.46 2.21-24.84.31-22.95 14.8-29.53 19.47z"
    />
    <path
      d="M89.77 78.57l.46.29c5.04-5.59 9.89-6.64 10.7-6.88 19.71-5.83 26.59-18.87 31.92-22.58l-.2-.3c-7.28 5.17-15.95-.07-30.7 15.69-.09.09-.5-.47-.5-.47 11.96-14.45 12.27-24.27 17.81-29.64l-.29-.27C84.06 55.22 99.38 66.62 89.78 78.55z"
    />
    <path
      d="M91.22 54.42c-32.91 32.6-12.42 40.94-17.58 57.16l.33.14c2.96-6.88 10.6-9.89 10.79-9.98 13.94-6.43 18.32-22.66 23.89-27.6l-.28-.26c-6.8 7.39-18.05 3.24-27.16 21.53-.03.06-.62-.29-.61-.31 7.39-15.93 3.93-30.35 10.95-40.27-.12-.18-.24-.32-.33-.41z"
    />
    <path
      d="M67.31 154.87l.49.02c-.12-1.85-.62-9.64 7.14-16.81 15.63-14.46 12.97-27.33 19.38-37.27l-.48-.27c-4.98 8.48-23.17 17.75-23.94 30.79 0 .02-.7-.06-.69-.1 2.66-18.69-7.21-31.13-1.83-42.97-.18-.12-.36-.22-.48-.27-20.87 42.92-3.53 42.32.42 66.87z"
    />
    <path
      d="M75.36 195.66l.51-.18c-4.32-9.7 2.9-22.95 3.23-23.59 9.49-18.41 6.32-35.06 8.48-40.87l-.45-.13c-5.06 12.63-19.14 19.5-16.95 40.73 0 .04-.68.04-.69 0-2.22-13.17-17.15-25.81-16.67-40.19-.08-.01-.17-.02-.25-.02-9.3 51.07 17.22 50.73 22.78 64.24z"
    />
    <path
      d="M96.61 233.47l.35-.28c-8.85-10.76-6.16-22.48-6.02-23.33 4.41-25.48-3.83-30.06-4.02-41.6h-.43c-.37 12.9-13.58 27.41-1.59 45.45l-.58.37c-13.21-19.28-23.69-14.56-29.86-33.74-.19 0-.43.09-.55.16 9.29 56.15 34.26 39.16 42.71 52.98z"
    />
    <path
      d="M148.16 257.97l-.11-.52c-17.4 3.49-26.29.15-29.44-15.85-4.43-22.46-19.71-31.12-21.49-40.1h-.03c-.26 0-.38.04-.43.07 3.28 15.86-4.45 25.3 14.68 44.29l-.52.45c-18.41-14.6-31.05-9.22-38.37-19.37-.15.12-.27.25-.31.33 22.82 37.88 47.28 39.94 76.03 30.71z"
    />
    <path
      d="M105.17 264.49l.14-.2c23.41 13.65 47.87-5.38 77.51-6.06 7.44-.17 29.67 1.17 50.08 24.9l-5.42 1.55c-6.75-11.72-17.15-20.18-26.58-22.54-26.97-6.74-27.49 18.4-57.44 18.79-22.22.29-37.43-15.55-38.3-16.44zM323.96 95.09c.05.11.09.17.09.17s-.03-.06-.09-.17z"
    />
    <path
      d="M323.96 95.09c.05.11.09.17.09.17s-.03-.06-.09-.17zM80.99 95.09c-.05.11-.09.17-.09.17s.03-.06.09-.17z"
    />
    <path
      d="M323.96 95.09c.05.11.09.17.09.17s-.03-.06-.09-.17zM290.49 51l-.3.36c-.92-.64-4.06-2.9-7.91-3.98-21.17-5.95-20.11-13.27-29.07-17.62l.27-.44c.89.56 3.64 2.16 7.46 2.21 24.84.31 22.95 14.8 29.53 19.47z"
    />
    <path
      d="M315.18 78.57l-.45.29c-5.04-5.59-9.89-6.64-10.7-6.88-19.71-5.83-26.59-18.87-31.92-22.58l.2-.3c7.28 5.17 15.94-.07 30.7 15.69.09.09.5-.47.5-.47-11.96-14.45-12.27-24.27-17.81-29.64l.29-.27c34.91 20.81 19.59 32.21 29.19 44.14z"
    />
    <path
      d="M313.73 54.42c32.91 32.6 12.42 40.94 17.58 57.16l-.33.14c-2.96-6.88-10.6-9.89-10.79-9.98-13.94-6.43-18.31-22.66-23.89-27.6l.28-.26c6.81 7.39 18.05 3.24 27.16 21.53.03.06.62-.29.61-.31-7.39-15.93-3.93-30.35-10.95-40.27.12-.18.24-.32.33-.41z"
    />
    <path
      d="M337.64 154.87l-.49.02c.12-1.85.62-9.64-7.14-16.81-15.63-14.46-12.97-27.33-19.38-37.27l.48-.27c4.98 8.48 23.17 17.75 23.93 30.79 0 .02.7-.06.69-.1-2.66-18.69 7.21-31.13 1.83-42.97.18-.12.36-.22.48-.27 20.87 42.92 3.53 42.32-.42 66.87z"
    />
    <path
      d="M329.59 195.66l-.51-.18c4.32-9.7-2.9-22.95-3.23-23.59-9.49-18.41-6.32-35.06-8.48-40.87l.45-.13c5.06 12.63 19.14 19.5 16.95 40.73 0 .04.68.04.69 0 2.22-13.17 17.15-25.81 16.67-40.19.08-.01.17-.02.25-.02 9.3 51.07-17.22 50.73-22.79 64.24z"
    />
    <path
      d="M308.34 233.47l-.35-.28c8.85-10.76 6.16-22.48 6.02-23.33-4.41-25.48 3.84-30.06 4.02-41.6h.43c.37 12.9 13.58 27.41 1.59 45.45l.58.37c13.21-19.28 23.69-14.56 29.86-33.74.19 0 .43.09.55.16-9.29 56.15-34.27 39.16-42.71 52.98z"
    />
    <path
      d="M256.79 257.97l.11-.52c17.4 3.49 26.29.15 29.44-15.85 4.43-22.46 19.71-31.12 21.49-40.1h.03c.26 0 .39.04.43.07-3.28 15.86 4.45 25.3-14.68 44.29l.52.45c18.41-14.6 31.06-9.22 38.37-19.37.15.12.27.25.31.33-22.82 37.88-47.27 39.94-76.03 30.71z"
    />
    <path
      d="M299.78 264.49l-.14-.2c-23.41 13.65-47.87-5.38-77.51-6.06-7.43-.17-29.67 1.17-50.08 24.9l5.42 1.55c6.75-11.72 17.15-20.18 26.58-22.54 26.96-6.74 27.49 18.4 57.44 18.79 22.22.29 37.43-15.55 38.3-16.44zM80.99 95.09c-.05.11-.09.17-.09.17s.03-.06.09-.17z"
    />
    <path
      d="M80.99 95.09c-.05.11-.09.17-.09.17s.03-.06.09-.17zM323.96 95.09c.05.11.09.17.09.17s-.03-.06-.09-.17zM238.9 95.82h-.41c-10.94 0-21.46 7.05-26.69 18.77-2.66 5.97-3.27 13.73-3.28 21.21 0 7.47.62 15.23 3.28 21.19 5.22 11.73 15.75 19.75 26.69 19.75h.41c10.94 0 21.46-8.02 26.68-19.75 2.66-5.96 3.27-13.73 3.28-21.19-.01-7.47-.62-15.24-3.28-21.21-5.22-11.72-15.75-18.77-26.68-18.77zm16.83 40.45c-.02 7.02-.19 13.07-.19 13.07-.44 5.74-.53 11.5-3.19 15.42-3.02 4.45-7.84 6.78-12.68 6.78l-.19.07h-.62l-.18-.07c-4.84 0-9.66-2.33-12.69-6.78-2.66-3.92-2.75-9.68-3.19-15.42 0 0-.17-5.98-.18-12.95v-.32c.01-7.02.18-13.07.18-13.07.44-5.74.53-11.49 3.19-15.42 3.02-4.45 7.84-6.78 12.68-6.78l.18-.06h.62l.18.06c4.84 0 9.67 2.32 12.68 6.78 2.67 3.93 2.76 9.68 3.2 15.42 0 0 .17 5.98.19 12.95v.32z"
    />
    <path
      d="M247.1 180.09s-2.14 5.57-6.13 8.99c-2.19 1.88-5.43 2.38-8.01 2.67l-26.92 1.33h-5.94s-4.51-.25-4.76-4.45v-94.3c.25-4.19 4.76-4.45 4.76-4.45h5.94v-5.49h-36v5.49h5.95s4.51.25 4.75 4.45v94.31c-.25 4.19-4.75 4.45-4.75 4.45h-5.95v5.5h36l38.98.15 4.79-17.39v-.63l-2.71-.63z"
    />
    <path
      d="M162.52 106.18c.21-3.5 3.97-3.71 3.97-3.71h4.96v-4.58h-30.04v4.58h4.96s3.76.21 3.97 3.71v60.3c-.21 3.5-3.97 3.71-3.97 3.71h-4.96v4.59h30.04v-4.59h-4.96s-3.77-.21-3.97-3.71v-60.3z"
    />
  </g>
  <path fill="#fff" d="M807.92 58.5h3.96v191.4h-3.96z" />
  <g fill="#fff">
    <path
      d="M862.91 107.23v-46.2h15.58c4 0 7.41.66 10.23 1.96 2.82 1.31 5.1 3.07 6.85 5.28 1.75 2.21 3.02 4.69 3.83 7.42.8 2.74 1.2 5.55 1.2 8.43 0 2.64-.38 5.31-1.14 8.02s-2 5.2-3.71 7.47c-1.72 2.28-4.01 4.11-6.88 5.51-2.87 1.4-6.42 2.1-10.64 2.1h-15.31zm8.55-8.12h7.66c2.35 0 4.33-.45 5.94-1.34 1.61-.89 2.9-2.07 3.88-3.53s1.69-3.08 2.15-4.85c.45-1.77.68-3.53.68-5.26 0-1.85-.23-3.66-.69-5.45s-1.18-3.4-2.14-4.85c-.97-1.45-2.2-2.61-3.7-3.46-1.5-.86-3.29-1.29-5.38-1.29h-8.38v30.03zM913.63 69.28c-1.32 0-2.46-.48-3.42-1.44s-1.44-2.1-1.44-3.42.47-2.45 1.42-3.38c.95-.93 2.09-1.4 3.43-1.4s2.54.46 3.46 1.39 1.39 2.06 1.39 3.4-.47 2.49-1.4 3.43c-.93.95-2.08 1.42-3.45 1.42zm-4.12 37.95V73.5h8.25v33.73h-8.25zM940.03 121.28l-4.55-6.9c3.21-.24 5.7-.61 7.47-1.09 1.77-.48 3.01-1.18 3.71-2.08.7-.9 1.06-2.08 1.06-3.53v-2.44c-1.72 1.85-4.14 2.77-7.26 2.77-2.93 0-5.45-.71-7.56-2.13-2.11-1.42-3.73-3.45-4.87-6.1s-1.7-5.8-1.7-9.46.59-6.67 1.77-9.31c1.18-2.64 2.83-4.69 4.95-6.14s4.62-2.18 7.47-2.18c1.5 0 2.87.23 4.11.69s2.27 1.13 3.09 2.01v-1.91h8.22v30.69c0 2.99-.28 5.52-.83 7.59s-1.45 3.76-2.69 5.08c-1.24 1.32-2.88 2.33-4.9 3.02-2.02.69-4.52 1.16-7.49 1.4zm1.78-21.15c1.17 0 2.26-.27 3.28-.81s1.9-1.27 2.62-2.19v-13.6c-.62-.86-1.46-1.57-2.54-2.13-1.08-.56-2.17-.84-3.27-.84-2.38 0-4.19.83-5.43 2.49-1.24 1.66-1.86 4.09-1.86 7.28 0 2.07.28 3.83.84 5.3.56 1.46 1.38 2.58 2.46 3.35s2.38 1.16 3.89 1.16zM970.42 69.28c-1.32 0-2.46-.48-3.42-1.44s-1.44-2.1-1.44-3.42.47-2.45 1.42-3.38c.95-.93 2.09-1.4 3.43-1.4s2.54.46 3.46 1.39 1.39 2.06 1.39 3.4-.47 2.49-1.4 3.43c-.93.95-2.08 1.42-3.45 1.42zm-4.12 37.95V73.5h8.25v33.73h-8.25zM994.74 108.02c-2.68 0-4.7-.74-6.04-2.21-1.34-1.47-2.01-3.67-2.01-6.6V80.73h-4.92V73.5h4.92v-10l8.18-3.93V73.5h7.66v7.23h-7.66v17c0 1.06.21 1.84.64 2.34.43.51 1.11.76 2.03.76 1.63 0 3.41-.51 5.35-1.52l-.96 7.19c-1.01.51-2.11.88-3.3 1.14-1.19.25-2.49.38-3.89.38zM1020.45 108.02c-3.67 0-6.58-1-8.73-2.99-2.15-1.99-3.22-4.69-3.22-8.1 0-2.2.56-4.13 1.67-5.79 1.11-1.66 2.66-2.95 4.65-3.86s4.32-1.37 6.98-1.37c1.47 0 2.9.14 4.27.41s2.58.67 3.61 1.17v-2.11c0-1.89-.53-3.32-1.6-4.27-1.07-.96-2.63-1.44-4.7-1.44-1.65 0-3.34.3-5.08.89s-3.5 1.47-5.28 2.64l-2.48-6.5c1.94-1.28 4.09-2.26 6.47-2.95s4.77-1.04 7.19-1.04c4.53 0 7.92 1.07 10.16 3.22 2.24 2.15 3.37 5.34 3.37 9.59v21.71h-8.05v-2.71c-1.14 1.14-2.5 2.01-4.08 2.61-1.57.59-3.29.89-5.16.89zm1.91-6.96c1.36 0 2.68-.27 3.94-.81 1.26-.54 2.39-1.3 3.38-2.29v-3.99c-.95-.46-2-.82-3.15-1.07-1.15-.25-2.3-.38-3.45-.38-2.05 0-3.66.39-4.83 1.17-1.18.78-1.77 1.87-1.77 3.25 0 1.3.52 2.31 1.55 3.04s2.47 1.09 4.32 1.09zM1047.57 107.23V63.3l8.25-3.73v47.65h-8.25zM862.91 173.23v-46.2h15.58c4 0 7.41.66 10.23 1.96 2.82 1.31 5.1 3.07 6.85 5.28 1.75 2.21 3.02 4.69 3.83 7.42.8 2.74 1.2 5.55 1.2 8.43 0 2.64-.38 5.31-1.14 8.02s-2 5.2-3.71 7.47c-1.72 2.28-4.01 4.11-6.88 5.51-2.87 1.4-6.42 2.1-10.64 2.1h-15.31zm8.55-8.12h7.66c2.35 0 4.33-.45 5.94-1.34 1.61-.89 2.9-2.07 3.88-3.53s1.69-3.08 2.15-4.85c.45-1.77.68-3.53.68-5.26 0-1.85-.23-3.66-.69-5.45s-1.18-3.4-2.14-4.85c-.97-1.45-2.2-2.61-3.7-3.46-1.5-.86-3.29-1.29-5.38-1.29h-8.38v30.03zM922.34 174.02c-3.23 0-6.02-.73-8.37-2.18-2.34-1.45-4.15-3.5-5.41-6.15-1.27-2.65-1.9-5.77-1.9-9.36s.64-6.76 1.93-9.4c1.29-2.64 3.1-4.67 5.44-6.09 2.34-1.42 5.11-2.13 8.3-2.13 2.73 0 5.2.57 7.42 1.72s3.99 2.9 5.31 5.26c1.32 2.37 1.98 5.37 1.98 9.03 0 .57-.02 1.27-.05 2.09-.03.83-.09 1.66-.18 2.49H914.8c.09 1.54.45 2.89 1.07 4.04.63 1.16 1.49 2.05 2.59 2.69 1.1.64 2.4.96 3.89.96 1.61 0 3-.27 4.19-.81 1.19-.54 2.31-1.4 3.37-2.59l4.75 4.92c-1.45 1.65-3.2 2.98-5.25 3.99s-4.41 1.52-7.09 1.52zm-7.49-21.15h14.22c-.11-1.47-.44-2.74-.99-3.81-.55-1.07-1.32-1.89-2.31-2.46-.99-.57-2.19-.86-3.6-.86-1.94 0-3.59.59-4.95 1.78-1.36 1.19-2.16 2.97-2.38 5.35zM955.6 174.02c-2.64 0-5.16-.56-7.57-1.68s-4.32-2.63-5.73-4.52l5.41-4.55c1.12 1.19 2.42 2.13 3.89 2.82s2.88 1.04 4.22 1.04c1.67 0 2.96-.28 3.86-.84.9-.56 1.35-1.35 1.35-2.36 0-.66-.21-1.25-.64-1.77s-1.18-1.04-2.26-1.58-2.6-1.16-4.55-1.86c-3.78-1.39-6.47-2.89-8.05-4.5s-2.38-3.67-2.38-6.15c0-2.77 1.12-5.02 3.37-6.75 2.24-1.73 5.17-2.59 8.78-2.59 2.46 0 4.74.46 6.81 1.39s3.87 2.28 5.36 4.06l-5.38 4.46c-1.98-2-4.29-3-6.93-3-1.34 0-2.42.25-3.23.74-.81.5-1.22 1.16-1.22 2s.48 1.54 1.44 2.18c.96.64 2.74 1.39 5.36 2.24 2.6.81 4.7 1.74 6.32 2.77 1.62 1.04 2.81 2.23 3.56 3.6s1.14 2.94 1.14 4.72c0 3.17-1.15 5.65-3.45 7.46-2.3 1.8-5.46 2.71-9.49 2.71zM981.28 135.28c-1.32 0-2.46-.48-3.42-1.44s-1.44-2.1-1.44-3.42.47-2.45 1.42-3.38c.95-.93 2.09-1.4 3.43-1.4s2.54.46 3.46 1.39 1.39 2.06 1.39 3.4-.47 2.49-1.4 3.43c-.93.95-2.08 1.42-3.45 1.42zm-4.12 37.95V139.5h8.25v33.73h-8.25zM1007.68 187.28l-4.55-6.9c3.21-.24 5.7-.61 7.47-1.09 1.77-.48 3.01-1.18 3.71-2.08.7-.9 1.06-2.08 1.06-3.53v-2.44c-1.72 1.85-4.14 2.77-7.26 2.77-2.93 0-5.45-.71-7.56-2.13-2.11-1.42-3.73-3.45-4.87-6.1s-1.7-5.8-1.7-9.46.59-6.67 1.77-9.31c1.18-2.64 2.83-4.69 4.95-6.14s4.62-2.18 7.47-2.18c1.5 0 2.87.23 4.11.69s2.27 1.13 3.09 2.01v-1.91h8.22v30.69c0 2.99-.28 5.52-.83 7.59s-1.45 3.76-2.69 5.08c-1.24 1.32-2.88 2.33-4.9 3.02-2.02.69-4.52 1.16-7.49 1.4zm1.78-21.15c1.17 0 2.26-.27 3.28-.81s1.9-1.27 2.62-2.19v-13.6c-.62-.86-1.46-1.57-2.54-2.13-1.08-.56-2.17-.84-3.27-.84-2.38 0-4.19.83-5.43 2.49-1.24 1.66-1.86 4.09-1.86 7.28 0 2.07.28 3.83.84 5.3.56 1.46 1.38 2.58 2.46 3.35s2.38 1.16 3.89 1.16zM1033.95 173.23V139.5h8.25v3.23c1.08-1.34 2.37-2.35 3.88-3.02 1.51-.67 3.23-1.01 5.17-1.01 3.76 0 6.67 1.16 8.71 3.48s3.07 5.66 3.07 10.01v21.02h-8.22v-18.48c0-2.84-.49-4.91-1.47-6.22s-2.5-1.96-4.57-1.96c-2.24 0-3.9.66-4.97 1.96-1.07 1.31-1.6 3.34-1.6 6.09v18.61h-8.25zM877.96 240.02c-2.88 0-5.5-.51-7.85-1.52a17.345 17.345 0 0 1-6.06-4.31c-1.68-1.86-2.94-4.05-3.78-6.58l7.75-2.87c.99 2.11 2.37 3.84 4.14 5.2 1.77 1.35 3.77 2.03 5.99 2.03 2.35 0 4.23-.5 5.63-1.49 1.4-.99 2.1-2.43 2.1-4.32 0-1.3-.41-2.38-1.24-3.25-.83-.87-1.94-1.62-3.33-2.24-1.4-.63-2.98-1.24-4.74-1.83a86.45 86.45 0 0 1-5.11-1.91c-1.72-.7-3.29-1.57-4.72-2.59a11.705 11.705 0 0 1-3.45-3.88c-.87-1.56-1.3-3.48-1.3-5.74s.61-4.34 1.82-6.24c1.21-1.89 2.96-3.4 5.26-4.54 2.3-1.13 5.09-1.7 8.37-1.7 2.68 0 5.07.46 7.14 1.37s3.8 2.15 5.16 3.71c1.36 1.56 2.31 3.33 2.84 5.31l-7.66 2.54c-.62-1.39-1.56-2.55-2.82-3.48-1.27-.94-2.98-1.4-5.13-1.4-2.02 0-3.6.4-4.72 1.19s-1.68 1.91-1.68 3.37c0 .99.38 1.83 1.14 2.52.76.69 1.78 1.31 3.07 1.86s2.74 1.11 4.37 1.68c1.83.62 3.65 1.32 5.46 2.1s3.46 1.73 4.95 2.85c1.48 1.12 2.68 2.51 3.58 4.17.9 1.66 1.35 3.69 1.35 6.09 0 2.95-.73 5.46-2.19 7.52-1.46 2.07-3.44 3.65-5.92 4.74-2.49 1.09-5.29 1.63-8.42 1.63zM904.65 252.03l5.12-13.4-12.64-33.13h8.48l7.36 19.73c.2.46.38.97.56 1.52.18.55.34 1.1.5 1.65.13-.55.29-1.09.48-1.63.19-.54.38-1.05.58-1.54l7.36-19.73h8.48l-17.75 46.53h-8.51zM947.68 240.02c-2.64 0-5.16-.56-7.57-1.68s-4.32-2.63-5.73-4.52l5.41-4.55c1.12 1.19 2.42 2.13 3.89 2.82s2.88 1.04 4.22 1.04c1.67 0 2.96-.28 3.86-.84.9-.56 1.35-1.35 1.35-2.36 0-.66-.21-1.25-.64-1.77s-1.18-1.04-2.26-1.58-2.6-1.16-4.55-1.86c-3.78-1.39-6.47-2.89-8.05-4.5s-2.38-3.67-2.38-6.15c0-2.77 1.12-5.02 3.37-6.75 2.24-1.73 5.17-2.59 8.78-2.59 2.46 0 4.74.46 6.81 1.39s3.87 2.28 5.36 4.06l-5.38 4.46c-1.98-2-4.29-3-6.93-3-1.34 0-2.42.25-3.23.74-.81.5-1.22 1.16-1.22 2s.48 1.54 1.44 2.18c.96.64 2.74 1.39 5.36 2.24 2.6.81 4.7 1.74 6.32 2.77 1.62 1.04 2.81 2.23 3.56 3.6s1.14 2.94 1.14 4.72c0 3.17-1.15 5.65-3.45 7.46-2.3 1.8-5.46 2.71-9.49 2.71zM978.01 240.02c-2.68 0-4.7-.74-6.04-2.21-1.34-1.47-2.01-3.67-2.01-6.6v-18.48h-4.92v-7.23h4.92v-10l8.18-3.93v13.93h7.66v7.23h-7.66v17c0 1.06.21 1.84.64 2.34.43.51 1.11.76 2.03.76 1.63 0 3.41-.51 5.35-1.52l-.96 7.19c-1.01.51-2.11.88-3.3 1.14-1.19.25-2.49.38-3.89.38zM1007.64 240.02c-3.23 0-6.02-.73-8.37-2.18-2.34-1.45-4.15-3.5-5.41-6.15-1.27-2.65-1.9-5.77-1.9-9.36s.64-6.76 1.93-9.4c1.29-2.64 3.1-4.67 5.44-6.09 2.34-1.42 5.11-2.13 8.3-2.13 2.73 0 5.2.57 7.42 1.72s3.99 2.9 5.31 5.26c1.32 2.37 1.98 5.37 1.98 9.03 0 .57-.02 1.27-.05 2.09-.03.83-.09 1.66-.18 2.49h-22.01c.09 1.54.45 2.89 1.07 4.04.63 1.16 1.49 2.05 2.59 2.69 1.1.64 2.4.96 3.89.96 1.61 0 3-.27 4.19-.81 1.19-.54 2.31-1.4 3.37-2.59l4.75 4.92c-1.45 1.65-3.2 2.98-5.25 3.99s-4.41 1.52-7.09 1.52zm-7.49-21.15h14.22c-.11-1.47-.44-2.74-.99-3.81-.55-1.07-1.32-1.89-2.31-2.46-.99-.57-2.19-.86-3.6-.86-1.94 0-3.59.59-4.95 1.78-1.36 1.19-2.16 2.97-2.38 5.35zM1030.74 239.23V205.5h8.25v3.13c1.08-1.36 2.29-2.36 3.65-2.99 1.35-.63 2.89-.94 4.6-.94 2 0 3.72.41 5.15 1.22 1.43.81 2.54 2 3.33 3.56 1.12-1.54 2.56-2.72 4.32-3.55 1.76-.83 3.75-1.24 5.97-1.24 4.14 0 7.26 1.11 9.37 3.33 2.11 2.22 3.17 5.52 3.17 9.9v21.29h-8.22v-18.45c0-2.82-.46-4.89-1.39-6.22-.92-1.33-2.35-2-4.29-2-1.32 0-2.42.3-3.28.89-.87.59-1.52 1.49-1.96 2.69-.44 1.2-.66 2.71-.66 4.54v18.55h-8.22v-18.45c0-2.84-.45-4.92-1.35-6.24-.9-1.32-2.33-1.98-4.29-1.98s-3.49.65-4.46 1.95-1.45 3.31-1.45 6.04v18.68h-8.25z"
    />
  </g>
</svg>
