<svg xmlns="http://www.w3.org/2000/svg" id="Lockup" viewBox="0 0 465.53 250"><defs><style>.cls-1{fill:#1e2dbe;stroke-width:0}</style></defs><path d="M398.89 22.25V78.8h-6.37v-3.14h-40.96v3.14h-6.08V22.25zm-6.37 47.92V27.83h-40.96v42.34zm-3.04-10v5h-34.5v-5h14.01v-9.6h-11.47v-5.1h11.47v-7.84h-13.13v-5.29h32.24v5.29h-13.52v7.84h12.05v5.1h-12.05v9.6h8.92c-1.18-1.96-3.63-4.9-5.78-7.06l3.82-2.06c2.16 1.96 4.8 4.9 5.98 6.76l-3.92 2.35h5.88Zm50.27-7.35c-1.86 7.35-5.19 15.09-8.53 20.09-1.08-.88-3.53-2.45-4.7-3.14 3.43-4.51 6.17-11.47 7.84-18.13zm-6.37-28.81h28.03v5.59h-28.03zm24.89 27.24c2.94 6.37 5.98 14.5 6.96 19.7l-5.39 2.06c-.88-5.19-3.72-13.62-6.57-20.09zm-57.72 51.36v5.58h-13.72v5.1h-6.17v-5.1H363.8v5.1h-6.27v-5.1h-13.52v-5.58h13.52v-5.49h6.27v5.49h16.86v-5.49h6.17v5.49zm-55.47 13.13h54v11.07h-6.17v-5.78h-41.95v6.47h-5.88zm21.07 91.83c-.1 1.47-.2 3.72-.1 4.9-17.15 3.43-19.6 4.12-21.07 4.9-.29-1.08-1.08-3.72-1.76-5.19 1.47-.29 3.04-1.76 5.1-4.12 1.27-1.27 3.72-4.21 6.37-8.04-7.64.98-9.21 1.37-10.19 1.76-.29-1.08-1.27-3.92-1.86-5.39 1.27-.29 2.35-1.76 3.92-3.92 1.47-2.06 6.27-10.29 8.92-17.93l5.39 2.55c-2.94 6.47-6.76 13.13-10.58 18.52l8.04-.69c1.47-2.16 2.84-4.51 4.12-6.76l4.7 2.94c-4.12 6.66-8.82 13.33-13.82 18.72l12.84-2.25Zm-.2 16.95c-7.55 2.06-15.58 4.12-21.66 5.68l-1.08-5.68c5.49-1.18 13.92-3.14 22.15-5zm35.77 2.84v5.39h-36.95v-5.39h6.17v-49.39h25.48v49.39h5.29Zm-25.19-44v10.78h13.82v-10.78zm0 27.34h13.82v-11.17h-13.82zm0 16.66h13.82v-11.37h-13.82zm53.52-19.5c-.2 1.57-.2 4.02-.1 5.19-17.05 3.33-19.5 4.02-21.17 4.9-.2-1.18-1.08-3.82-1.76-5.29 1.57-.29 3.04-1.86 5-4.12 1.18-1.27 3.53-4.12 6.08-7.74-7.15.88-8.72 1.27-9.7 1.76-.29-1.27-1.27-4.12-1.96-5.68 1.27-.29 2.35-1.76 3.82-3.92 1.47-2.06 6.17-10.39 8.62-18.03l5.78 2.65c-2.74 6.57-6.57 13.43-10.49 18.82l7.45-.69c1.47-2.16 2.84-4.7 4.12-6.96l4.9 2.94c-3.82 6.57-8.43 13.03-13.23 18.42zm.2 17.44c-7.84 1.96-15.88 3.92-22.15 5.59l-1.08-5.98c5.59-1.08 14.31-2.94 22.64-4.9zm12.74-9.8c-2.25 7.15-6.08 14.11-10.19 18.52-1.27-.98-3.82-2.74-5.39-3.53 4.12-3.92 7.45-10.09 9.31-16.37l6.27 1.37Zm19.01-7.15h-29.6v-29.3H462zm-6.17-23.52h-17.44v17.84h17.44zm.98 29.11c3.53 5.49 7.25 12.74 8.72 17.44l-5.98 2.35c-1.37-4.7-4.9-12.05-8.33-17.64l5.59-2.16ZM69.6 66.05c-1.27 2.16-1.67 3.04-1.67 3.04-.98 1.86-3.33 2.84-5.29 2.06l-3.53-1.37c-1.96-.78-4.21.29-4.9 2.25l-2.84 7.15c-.78 1.96.29 4.21 2.25 4.9l3.53 1.37c1.96.78 3.14 3.04 2.65 5.1l-1.57 7.74c-.29 2.06-2.35 3.72-4.41 3.63l-3.82-.1c-2.06-.1-3.82 1.57-3.92 3.72l-.29 7.64c-.1 2.06 1.57 3.82 3.72 3.92l3.82.1c2.06.1 4.02 1.86 4.12 3.92l1.08 7.84c.39 2.06-.98 4.21-2.94 4.9l-3.72 1.18c-1.96.59-3.14 2.74-2.55 4.8l3.33 10.98 20.58-6.37c-9.41-23.03-8.53-49.98 4.9-73.21s36.36-37.53 60.96-40.87l-4.7-21.17-11.17 2.55a3.825 3.825 0 0 0-2.84 4.61l.88 3.82c.49 2.06-.78 4.31-2.74 5l-7.35 3.04c-1.86.88-4.41.1-5.49-1.67l-2.06-3.23c-1.08-1.76-3.43-2.35-5.29-1.18l-6.47 4.02c-1.76 1.08-2.35 3.43-1.18 5.29l2.06 3.23c1.08 1.76.69 4.31-.98 5.59l-5.98 5.29c-1.47 1.47-4.12 1.57-5.68.2l-2.94-2.45c-1.67-1.37-4.02-1.08-5.39.59l-4.8 5.88c-1.37 1.67-1.08 4.02.59 5.39l2.94 2.45c1.67 1.37 2.06 3.82.88 5.59 0-.1-.59.69-1.76 2.84Zm79.38 137.69c2.45 0 3.53-.1 3.53-.1 2.06-.1 4.12 1.47 4.41 3.53l.59 3.82c.29 2.06 2.25 3.53 4.41 3.14l7.55-1.18c2.06-.29 3.53-2.25 3.14-4.41l-.59-3.72c-.29-2.06 1.08-4.21 3.04-4.8l7.55-2.55c1.96-.78 4.41.1 5.39 1.96l1.76 3.33c.98 1.86 3.33 2.55 5.19 1.57l6.76-3.63c1.86-.98 2.55-3.33 1.57-5.19l-1.86-3.43c-.98-1.86-.39-4.31 1.27-5.59l6.27-4.8c1.57-1.37 4.21-1.27 5.68.1l2.84 2.65c1.57 1.47 3.92 1.37 5.39-.2l7.84-8.33-15.78-14.6c-15.19 19.7-39.1 32.34-65.86 32.34s-50.67-12.64-65.86-32.34l-15.78 14.6 7.84 8.33c1.47 1.57 3.82 1.67 5.39.2l2.84-2.65c1.57-1.47 4.12-1.47 5.68-.1l6.27 4.8c1.67 1.18 2.35 3.72 1.27 5.59l-1.86 3.43c-.98 1.86-.29 4.21 1.57 5.19l6.76 3.63c1.86.98 4.21.29 5.19-1.57l1.76-3.33c.98-1.86 3.43-2.74 5.39-1.96l7.55 2.55c2.06.59 3.43 2.74 3.04 4.8l-.59 3.72c-.29 2.06 1.08 4.02 3.14 4.41l7.55 1.18c2.06.29 4.02-1.08 4.41-3.14l.59-3.82c.29-2.06 2.35-3.63 4.41-3.53-.1 0 .88.1 3.33.1Zm79.48-137.59c-1.27-2.16-1.76-3.04-1.76-3.04-1.18-1.76-.78-4.31.88-5.59l2.94-2.45c1.67-1.37 1.86-3.72.59-5.39l-4.8-5.88c-1.37-1.67-3.72-1.86-5.39-.59l-2.94 2.45c-1.67 1.37-4.21 1.18-5.68-.2l-5.98-5.29c-1.67-1.27-2.06-3.82-.98-5.59l2.06-3.23a3.91 3.91 0 0 0-1.18-5.29l-6.47-4.02a3.91 3.91 0 0 0-5.29 1.18l-2.06 3.23c-1.08 1.76-3.53 2.55-5.49 1.67l-7.35-3.04c-1.96-.69-3.23-2.94-2.74-5l.88-3.82c.49-2.06-.78-4.12-2.84-4.61L163.69 9.1l-4.8 21.07c24.7 3.33 47.53 17.64 60.96 40.87s14.31 50.18 4.9 73.21l20.58 6.37 3.33-10.98c.59-1.96-.49-4.12-2.55-4.8l-3.72-1.18c-1.96-.59-3.33-2.84-2.94-4.9l1.08-7.84c.2-2.06 2.06-3.82 4.12-3.92l3.82-.1c2.06-.1 3.72-1.86 3.72-3.92l-.29-7.64c-.1-2.06-1.86-3.72-3.92-3.72l-3.82.1c-2.06.1-4.12-1.57-4.41-3.63l-1.57-7.74c-.49-2.06.69-4.31 2.65-5.1l3.53-1.37a3.885 3.885 0 0 0 2.25-4.9l-2.74-7.15a3.885 3.885 0 0 0-4.9-2.25l-3.53 1.37c-1.96.78-4.31-.2-5.29-2.06 0 .29-.39-.59-1.67-2.74ZM29.81 64.29l-.1.2zm32.83-43.12.29.39c.88-.59 4.02-2.84 7.74-3.92C91.45 11.76 90.37 4.61 99.19.39L98.9 0c-.88.59-3.53 2.16-7.35 2.16-24.3.2-22.54 14.41-28.91 19.01" class="cls-1"/><path d="m38.44 48.12.49.29c4.9-5.49 9.7-6.47 10.49-6.76 19.31-5.68 26.07-18.52 31.26-22.15l-.2-.2c-7.15 5-15.68-.1-30.09 15.39-.1.1-.49-.49-.49-.49C61.56 19.99 61.86 10.39 67.34 5.09l-.29-.29c-34.2 20.48-19.21 31.65-28.62 43.32Z" class="cls-1"/><path d="M39.81 24.5C7.57 56.45 27.66 64.58 22.56 80.46l.29.1c2.94-6.76 10.39-9.7 10.58-9.8 13.72-6.17 18.03-22.15 23.52-26.95l-.29-.29C50 50.77 39.02 46.66 30 64.59c0 .1-.59-.29-.59-.29 7.25-15.58 3.82-29.79 10.78-39.49-.2-.1-.29-.2-.39-.29Z" class="cls-1"/><path d="M16.39 122.89h.49c-.1-1.86-.59-9.41 6.96-16.46 15.29-14.21 12.74-26.75 19.01-36.55l-.49-.29c-4.9 8.33-22.74 17.44-23.42 30.18l-.69-.1c2.65-18.33-7.06-30.48-1.76-42.14-.2-.1-.39-.2-.49-.29-20.48 42.24-3.43 41.65.39 65.66Z" class="cls-1"/><path d="m24.33 162.88.49-.2c-4.21-9.51 2.84-22.44 3.14-23.13 9.31-18.03 6.17-34.4 8.33-40.08l-.49-.1c-5 12.35-18.72 19.11-16.56 39.89h-.69c-2.16-12.94-16.86-25.28-16.37-39.4h-.29c-9.02 50.08 16.95 49.78 22.44 63.01Z" class="cls-1"/><path d="m45.1 199.92.39-.29c-8.72-10.58-6.08-22.05-5.88-22.83 4.31-24.99-3.72-29.5-3.92-40.77h-.39c-.39 12.64-13.33 26.85-1.57 44.49l-.59.39C20.2 162 9.91 166.6 3.84 147.88c-.2 0-.39.1-.49.2 9.02 54.98 33.52 38.32 41.75 51.84" class="cls-1"/><path d="m95.67 223.93-.1-.49c-17.05 3.43-25.77.1-28.81-15.58-4.31-22.05-19.31-30.48-21.07-39.3-.29 0-.39 0-.39.1 3.23 15.58-4.31 24.79 14.41 43.41l-.49.39c-18.03-14.31-30.48-9.02-37.63-19.01-.1.1-.29.2-.29.29 22.15 37.24 46.16 39.3 74.38 30.18Z" class="cls-1"/><path d="m53.53 230.3.1-.2c22.93 13.43 46.94-5.29 75.95-5.98 7.25-.2 29.11 1.18 49.1 24.4l-5.29 1.47c-6.57-11.47-16.76-19.8-26.07-22.05-26.46-6.57-26.95 18.03-56.25 18.42-21.85.39-36.75-15.19-37.53-16.07ZM267.96 64.29c.1.1.1.2.1.2s-.1 0-.1-.2" class="cls-1"/><path d="M267.96 64.29c.1.1.1.2.1.2s-.1 0-.1-.2m-238.15 0-.1.2z" class="cls-1"/><path d="M267.96 64.29c.1.1.1.2.1.2s-.1 0-.1-.2m-32.83-43.12-.29.39c-.88-.59-4.02-2.84-7.74-3.92-20.78-5.88-19.7-13.03-28.52-17.25l.29-.39c.88.59 3.53 2.16 7.35 2.16 24.3.2 22.44 14.41 28.91 19.01" class="cls-1"/><path d="m259.33 48.12-.49.29c-4.9-5.49-9.7-6.47-10.49-6.76-19.31-5.68-26.07-18.52-31.26-22.15l.2-.29c7.15 5.1 15.58-.1 30.09 15.39.1.1.49-.49.49-.49C236.11 19.9 235.82 10.3 230.43 5.1l.29-.29c34.2 20.48 19.21 31.65 28.62 43.32Z" class="cls-1"/><path d="M257.86 24.5c32.24 31.95 12.15 40.08 17.25 56.06l-.29.1c-2.94-6.76-10.39-9.7-10.58-9.8-13.62-6.27-17.93-22.25-23.42-27.05l.29-.29c6.66 7.25 17.74 3.14 26.66 21.07 0 .1.59-.29.59-.29-7.25-15.58-3.82-29.79-10.78-39.49l.29-.29Z" class="cls-1"/><path d="M281.28 122.89h-.49c.1-1.86.59-9.41-6.96-16.46-15.29-14.21-12.74-26.75-19.01-36.55l.49-.29c4.9 8.33 22.74 17.44 23.42 30.18l.69-.1c-2.65-18.33 7.06-30.48 1.76-42.14.2-.1.39-.2.49-.29 20.48 42.24 3.53 41.65-.39 65.66Z" class="cls-1"/><path d="m273.44 162.88-.49-.2c4.21-9.51-2.84-22.44-3.14-23.13-9.31-18.03-6.17-34.4-8.33-40.08l.49-.1c5 12.35 18.72 19.11 16.56 39.89h.69c2.16-12.94 16.86-25.28 16.37-39.4h.29c9.02 50.08-16.95 49.78-22.44 63.01Z" class="cls-1"/><path d="m252.57 199.92-.39-.29c8.72-10.58 6.08-22.05 5.88-22.83-4.31-24.99 3.72-29.5 3.92-40.77h.39c.39 12.64 13.33 26.85 1.57 44.49l.59.39c12.94-18.91 23.23-14.31 29.3-33.03.2 0 .39.1.49.2-8.92 54.98-33.42 38.32-41.75 51.84" class="cls-1"/><path d="m202.1 223.93.1-.49c17.05 3.43 25.77.1 28.81-15.58 4.31-22.05 19.31-30.48 21.07-39.3.29 0 .39 0 .39.1-3.23 15.58 4.31 24.79-14.41 43.41l.49.39c18.03-14.31 30.48-9.02 37.63-19.01.1.1.29.2.29.29-22.25 37.24-46.26 39.3-74.38 30.18Z" class="cls-1"/><path d="m244.24 230.3-.1-.2c-22.93 13.43-46.94-5.29-75.95-5.98-7.25-.2-29.11 1.18-49.1 24.4l5.29 1.47c6.57-11.47 16.76-19.8 26.07-22.05 26.46-6.57 26.95 18.03 56.25 18.42 21.76.39 36.65-15.19 37.53-16.07ZM29.81 64.29l-.1.2zm0 0-.1.2zm238.15 0c.1.1.1.2.1.2s-.1 0-.1-.2m-122.7-18.23v35.87h-4.02v-2.06h-25.97v2.06h-3.82V46.06zm-4.02 30.38V49.59h-25.97v26.85zm-1.96-6.27v3.14h-21.85v-3.14h8.92v-6.08h-7.25v-3.23h7.25v-5h-8.33v-3.33h20.48v3.33h-8.62v5h7.64v3.23h-7.64v6.08h5.68c-.78-1.27-2.25-3.14-3.63-4.51l2.45-1.27c1.37 1.27 3.04 3.14 3.82 4.31l-2.55 1.47zm32.64-4.71c-1.18 4.7-3.23 9.6-5.39 12.74-.69-.59-2.25-1.57-3.04-2.06 2.16-2.84 3.92-7.25 5-11.56zm-4.02-18.22h17.74v3.53H167.9zm15.78 17.24c1.86 4.02 3.82 9.21 4.41 12.45l-3.43 1.27c-.59-3.23-2.35-8.62-4.21-12.74zm-37.34 30.58v3.53h-8.72v3.33h-3.92v-3.33h-10.69v3.33h-3.92v-3.33h-8.62v-3.53h8.62v-3.43h3.92v3.43h10.69v-3.43h3.92v3.43zm-35.18 8.43h34.3v6.96h-3.92v-3.63h-26.66v4.12h-3.72zm13.32 56.25c-.1.98-.1 2.35 0 3.14-10.88 2.16-12.45 2.55-13.33 3.14-.2-.69-.69-2.35-1.08-3.23.88-.2 1.96-1.18 3.23-2.65.78-.78 2.35-2.65 4.02-5.1-4.8.59-5.78.88-6.47 1.18-.2-.69-.78-2.45-1.18-3.43.78-.2 1.47-1.08 2.45-2.45.98-1.27 4.02-6.57 5.68-11.37l3.43 1.57c-1.86 4.12-4.31 8.33-6.76 11.76l5.1-.49c.88-1.37 1.76-2.84 2.55-4.31l2.94 1.86c-2.55 4.21-5.59 8.43-8.72 11.86l8.13-1.47Zm-.1 10.78c-4.8 1.27-9.9 2.65-13.72 3.63l-.69-3.63c3.53-.78 8.82-1.96 14.01-3.23l.39 3.23Zm22.74 1.76v3.43H123.6v-3.43h3.92v-31.36h16.17v31.36zm-15.97-27.93v6.86h8.82v-6.86zm0 17.35h8.82v-7.06h-8.82zm0 10.58h8.82v-7.25h-8.82zm34.1-12.34c-.1.98-.1 2.55 0 3.33-10.88 2.06-12.35 2.55-13.43 3.14-.1-.78-.69-2.45-1.18-3.33.98-.2 1.96-1.18 3.23-2.65.78-.78 2.25-2.55 3.82-4.9-4.51.59-5.59.78-6.17 1.08-.2-.78-.78-2.65-1.27-3.63.78-.2 1.47-1.08 2.45-2.55.98-1.27 3.92-6.57 5.49-11.47l3.63 1.67c-1.76 4.12-4.21 8.53-6.66 11.96l4.7-.49c.88-1.37 1.76-2.94 2.55-4.41l3.14 1.86c-2.45 4.12-5.39 8.33-8.33 11.66l8.04-1.27Zm.1 11.07c-5 1.27-10.09 2.55-14.11 3.53l-.69-3.82a360 360 0 0 0 14.41-3.14zm8.13-6.27c-1.47 4.51-3.82 8.92-6.47 11.76-.78-.59-2.45-1.76-3.43-2.25 2.65-2.45 4.7-6.37 5.88-10.39zm12.05-4.51h-18.82v-18.62h18.82zm-3.92-14.9h-11.07v11.27h11.07zm.59 18.42c2.25 3.53 4.61 8.04 5.59 11.07l-3.82 1.47c-.88-2.94-3.14-7.64-5.29-11.17l3.53-1.37ZM429.76 24.21l-4.31-2.25-.88.29h-15.78v56.64l5.78-2.55v-48.7h7.84c-1.27 4.31-2.94 9.6-4.61 13.92 4.31 4.8 5.39 9.11 5.39 12.45 0 1.96-.29 3.53-1.27 4.21-.49.39-1.27.49-1.96.49-.98.1-2.06.1-3.53-.1.98 1.47 1.47 3.82 1.57 5.19 1.57.1 3.23.1 4.51-.1 1.47-.2 2.65-.59 3.72-1.27 1.96-1.47 2.84-4.21 2.84-7.94 0-3.92-1.08-8.43-5.49-13.72 1.86-4.9 4.21-11.27 6.17-16.56Zm30.28 121.52h-23.13v-35.48h22.54l-2.84-6.17h-48.32v6.17h21.86v35.48h-25.29v5.98h57.92zm-294.49-98.4-2.74-1.47-.59.2h-10v35.97l3.63-1.57V49.49h5c-.78 2.74-1.86 6.08-2.94 8.82 2.74 3.04 3.43 5.78 3.43 7.94 0 1.27-.2 2.25-.78 2.65-.29.29-.78.29-1.27.29-.59.1-1.27 0-2.25 0 .59.98.98 2.45.98 3.33.98 0 2.06 0 2.84-.1a6.1 6.1 0 0 0 2.35-.78c1.27-.88 1.76-2.65 1.76-5.1s-.69-5.39-3.53-8.72c1.47-3.14 2.94-7.15 4.12-10.49Z" class="cls-1"/><path d="M166.13 56.94v3.53h8.33v16.86c0 .49-.2.69-.69.69h-4.31l1.67 3.92c2.55 0 4.31-.1 5.59-.78 1.27-.59 1.67-1.76 1.67-3.82V60.48h9.51v-3.53h-21.76ZM430.54 39.3v5.59h13.23v26.66c0 .88-.29 1.08-1.08 1.08-.78.1-3.72.1-6.66 0l2.16 6.17c4.21 0 7.15-.2 9.11-1.18 2.06-.98 2.65-2.84 2.65-5.98V44.89h14.99V39.3zm-302.33 73.2c.2-1.37.29-2.84.39-4.51h-4.02c-.1 1.67-.2 3.14-.39 4.51h-10.58v3.53h9.9c-1.47 4.9-4.7 8.04-13.52 9.8l2.16 3.33c10.29-2.35 14.01-6.66 15.48-13.13h11.17c-.39 5.68-.88 8.04-1.57 8.82-.49.39-.88.39-1.76.39-.98 0-3.53 0-6.08-.2l1.76 3.72c2.35.1 4.7.1 5.98 0 1.57-.1 2.55-.39 3.53-1.37 1.18-1.27 1.76-4.8 2.16-13.33.1-.49.1-1.57.1-1.57h-14.7Zm57.82 10h-14.6V99.96h14.21l-1.77-3.92H153.3v3.92h13.81v22.54h-16.07v3.82h36.75zm185.91 7.45c.29-2.16.49-4.51.69-7.06h-6.37c-.1 2.55-.29 4.9-.59 7.06h-16.66v5.59h15.58c-2.25 7.74-7.55 12.64-21.46 15.48l3.53 5.29c16.17-3.72 21.95-10.49 24.4-20.68h17.64c-.69 8.92-1.37 12.74-2.55 13.82-.69.59-1.47.69-2.74.69-1.47 0-5.49 0-9.41-.39l2.06 5.88c3.92.2 7.84.2 9.9 0 2.45-.2 4.02-.69 5.49-2.16 1.86-2.06 2.74-7.64 3.43-20.97.1-.88.2-2.55.2-2.55h-23.13Z" class="cls-1"/></svg>