<?xml version="1.0" encoding="utf-8"?>
<!-- Generator: Adobe Illustrator 24.0.1, SVG Export Plug-In . SVG Version: 6.00 Build 0)  -->
<svg version="1.1" id="Calque_1" xmlns="http://www.w3.org/2000/svg" xmlns:xlink="http://www.w3.org/1999/xlink" x="0px" y="0px"
	 viewBox="0 0 717.9 255.2" style="enable-background:new 0 0 717.9 255.2;" xml:space="preserve">
<style type="text/css">
	.st0{fill:#1E2DBE;}
</style>
<g id="Grid_Background">
</g>
<g id="Lockup">
	<g>
		<g>
			<path class="st0" d="M372.7,76.1c-2.9,0-5.5-0.5-7.8-1.4s-4.3-2.2-5.8-3.7c-1.5-1.6-2.8-3.4-3.8-5.4c-1-2.1-1.8-4.2-2.2-6.4
				c-0.4-2.2-0.7-4.5-0.7-6.9s0.2-4.7,0.7-6.9c0.4-2.2,1.2-4.4,2.2-6.4c1-2.1,2.3-3.9,3.8-5.4c1.5-1.6,3.4-2.8,5.8-3.7
				s4.9-1.4,7.8-1.4c3.6,0,6.7,0.7,9.4,2.1c2.7,1.4,4.8,3.3,6.3,5.6c1.5,2.4,2.7,4.9,3.4,7.6c0.7,2.7,1.1,5.6,1.1,8.6
				s-0.4,5.9-1.1,8.6s-1.9,5.3-3.4,7.6c-1.5,2.4-3.6,4.2-6.3,5.6C379.4,75.4,376.2,76.1,372.7,76.1z M372.7,68.5
				c2.1,0,4-0.5,5.6-1.5s2.9-2.3,3.8-4c0.9-1.6,1.6-3.4,2-5.2s0.7-3.7,0.7-5.6c0-2-0.2-3.9-0.7-5.8c-0.4-1.8-1.1-3.6-2-5.2
				c-0.9-1.6-2.2-2.9-3.8-3.9c-1.6-1-3.5-1.5-5.6-1.5c-2.8,0-5.2,0.9-7.1,2.7s-3.2,3.8-3.9,6.2c-0.7,2.3-1.1,4.8-1.1,7.5
				c0,2,0.2,3.9,0.7,5.7c0.4,1.8,1.1,3.6,2,5.2s2.2,2.9,3.8,3.9C368.6,68.1,370.5,68.5,372.7,68.5z"/>
			<path class="st0" d="M399.6,75.3V41.6h7.7v3.5c1.4-2.9,3.7-4.3,6.9-4.3c2.4,0,4.5,0.8,6.3,2.3l-1.1,7.1c-1.7-1.2-3.6-1.8-5.7-1.8
				c-1.8,0-3.3,0.6-4.5,1.8s-1.8,3.3-1.8,6.2v18.9C407.4,75.3,399.6,75.3,399.6,75.3z"/>
			<path class="st0" d="M435.9,88.5l-4.1-6.2c4.6-0.3,7.8-1,9.6-2.1s2.7-2.8,2.7-5.2v-1.9c-1.8,2-4.4,3-7.7,3
				c-4.1,0-7.5-1.5-10.1-4.6s-3.9-7.4-3.9-13.1c0-5.5,1.3-9.8,3.9-12.9c2.6-3.1,6-4.7,10.1-4.7c3.2,0,5.7,0.9,7.6,2.8v-2h7.7V72
				c0,5.6-1.2,9.6-3.6,12.1C445.8,86.6,441.7,88.1,435.9,88.5z M437.7,68.7c2.8,0,4.9-1.1,6.3-3.3V51.5c-1.5-2.2-3.7-3.3-6.3-3.3
				c-2.4,0-4.3,0.9-5.6,2.6c-1.3,1.8-1.9,4.3-1.9,7.7c0,3.2,0.7,5.7,2,7.5S435.3,68.7,437.7,68.7z"/>
			<path class="st0" d="M478.2,75.3v-2.7c-2.2,2.3-5.2,3.5-9,3.5c-3.6,0-6.5-1-8.8-2.9c-2.3-2-3.4-4.7-3.4-8.3
				c0-3.7,1.3-6.4,3.9-8.3s5.7-2.8,9.3-2.8c3.2,0,5.9,0.6,8,1.8v-1.8c0-2.2-0.5-3.7-1.6-4.7s-2.7-1.5-5-1.5c-3.7,0-7,1.1-10,3.2
				l-2.4-6.3c3.7-2.5,8.1-3.7,13.2-3.7c1.8,0,3.3,0.1,4.7,0.4c1.3,0.3,2.7,0.8,4.2,1.7c1.4,0.8,2.5,2.2,3.3,4s1.2,4,1.2,6.7v21.7
				H478.2z M470.7,69.3c2.9,0,5.5-1.1,7.5-3.2v-4.4c-1.9-0.9-4.2-1.4-6.7-1.4c-2.1,0-3.7,0.4-5,1.1s-1.9,1.9-1.9,3.4
				c0,1.4,0.5,2.4,1.6,3.2S468.7,69.3,470.7,69.3z"/>
			<path class="st0" d="M513.4,75.3V56c0-5.2-2.1-7.9-6.3-7.9c-4.6,0-6.9,2.6-6.9,7.7v19.5h-7.7V41.6h7.7v3.2c2.2-2.6,5.2-4,8.9-4
				c3.5,0,6.4,1.1,8.6,3.3c2.2,2.2,3.3,5.7,3.3,10.5v20.7H513.4z"/>
			<path class="st0" d="M535.1,35.6c-0.9,0.9-2,1.4-3.2,1.4c-1.3,0-2.4-0.5-3.3-1.4c-0.9-0.9-1.4-2-1.4-3.3s0.5-2.4,1.4-3.2
				c0.9-0.9,2-1.3,3.3-1.3s2.4,0.4,3.2,1.3c0.9,0.9,1.3,2,1.3,3.2C536.4,33.7,536,34.7,535.1,35.6z M528,75.3V41.6h7.7v33.7H528z"/>
			<path class="st0" d="M540.7,75.3v-6.2l17.7-20.6H542v-6.9h25.9v5.9l-17.6,21h17.6v6.9L540.7,75.3L540.7,75.3z"/>
			<path class="st0" d="M593.2,75.3v-2.7c-2.2,2.3-5.2,3.5-9,3.5c-3.6,0-6.5-1-8.8-2.9c-2.3-2-3.4-4.7-3.4-8.3
				c0-3.7,1.3-6.4,3.9-8.3c2.6-1.9,5.7-2.8,9.3-2.8c3.2,0,5.9,0.6,8,1.8v-1.8c0-2.2-0.5-3.7-1.6-4.7s-2.7-1.5-5-1.5
				c-3.7,0-7,1.1-10,3.2l-2.4-6.3c3.7-2.5,8.1-3.7,13.2-3.7c1.8,0,3.3,0.1,4.7,0.4c1.3,0.3,2.7,0.8,4.2,1.7c1.4,0.8,2.5,2.2,3.3,4
				s1.2,4,1.2,6.7v21.7H593.2z M585.7,69.3c2.9,0,5.5-1.1,7.5-3.2v-4.4c-1.9-0.9-4.2-1.4-6.7-1.4c-2.1,0-3.7,0.4-5,1.1
				s-1.9,1.9-1.9,3.4c0,1.4,0.5,2.4,1.6,3.2S583.7,69.3,585.7,69.3z"/>
			<path class="st0" d="M621,76.1c-4.6,0-8.3-1.6-11-4.7s-4.1-7.4-4.1-12.9s1.4-9.8,4.1-13c2.7-3.1,6.4-4.7,11-4.7
				c7,0,11.4,3.1,13.4,9.3l-7.3,2.4c-1.1-2.9-3-4.4-5.8-4.4c-2.3,0-4.2,0.9-5.5,2.8c-1.3,1.8-2,4.4-2,7.5s0.6,5.6,1.9,7.4
				c1.3,1.8,3,2.7,5.2,2.7c3.1,0,5.2-1.6,6.1-4.9l7.4,2.2C632.6,72.8,628.1,76.1,621,76.1z"/>
			<path class="st0" d="M646.7,35.6c-0.9,0.9-2,1.4-3.2,1.4c-1.3,0-2.4-0.5-3.3-1.4c-0.9-0.9-1.4-2-1.4-3.3s0.5-2.4,1.4-3.2
				c0.9-0.9,2-1.3,3.3-1.3s2.4,0.4,3.2,1.3c0.9,0.9,1.3,2,1.3,3.2C648,33.7,647.6,34.7,646.7,35.6z M639.6,75.3V41.6h7.7v33.7H639.6
				z"/>
			<path class="st0" d="M668.3,76.1c-4.8,0-8.5-1.6-11.3-4.7s-4.2-7.4-4.2-12.9s1.4-9.8,4.2-13c2.8-3.1,6.5-4.7,11.3-4.7
				s8.5,1.6,11.3,4.7c2.8,3.1,4.2,7.5,4.2,13s-1.4,9.8-4.2,12.9C676.9,74.6,673.1,76.1,668.3,76.1z M659.8,37.3l9.4-10.3h10
				l-11.7,10.3H659.8z M668.3,68.7c2.4,0,4.3-0.9,5.7-2.7c1.4-1.8,2.1-4.3,2.1-7.5s-0.7-5.7-2.1-7.6s-3.3-2.8-5.7-2.8
				c-2.3,0-4.2,0.9-5.6,2.8c-1.4,1.9-2.1,4.4-2.1,7.6s0.7,5.7,2.1,7.5S665.9,68.7,668.3,68.7z"/>
			<path class="st0" d="M710.3,75.3V56c0-5.2-2.1-7.9-6.3-7.9c-4.6,0-6.9,2.6-6.9,7.7v19.5h-7.7V41.6h7.7v3.2c2.2-2.6,5.2-4,8.9-4
				c3.5,0,6.4,1.1,8.6,3.3c2.2,2.2,3.3,5.7,3.3,10.5v20.7H710.3z"/>
			<path class="st0" d="M354.4,141.3V95.1h7.9v46.2H354.4z"/>
			<path class="st0" d="M390.8,141.3V122c0-5.2-2.1-7.9-6.3-7.9c-4.6,0-6.9,2.6-6.9,7.7v19.5h-7.7v-33.7h7.7v3.2
				c2.2-2.6,5.2-4,8.9-4c3.5,0,6.4,1.1,8.6,3.3c2.2,2.2,3.3,5.7,3.3,10.5v20.7L390.8,141.3L390.8,141.3z"/>
			<path class="st0" d="M415.2,142.1c-5.2,0-7.9-2.9-7.9-8.6v-19.1h-5v-6.7h5V97.5l7.7-3.7v13.9h7.8v6.7H415V132
				c0,2.2,0.9,3.2,2.8,3.2c1.7,0,3.5-0.5,5.3-1.5l-0.9,6.9C420.3,141.6,418,142.1,415.2,142.1z"/>
			<path class="st0" d="M441.8,142.1c-4.8,0-8.6-1.6-11.4-4.7c-2.8-3.1-4.2-7.5-4.2-13c0-5.5,1.4-9.8,4.2-12.9
				c2.8-3.1,6.6-4.7,11.4-4.7c4.3,0,7.8,1.3,10.6,4c2.8,2.7,4.1,6.6,4.1,11.8c0,1.8-0.1,3.4-0.3,4.8h-22.4c0.1,2.4,1,4.3,2.5,5.7
				c1.5,1.5,3.3,2.2,5.4,2.2c3,0,5.4-1.2,7.1-3.5l4.9,5C450.9,140.4,446.9,142.1,441.8,142.1z M434,121h14.9
				c-0.2-2.4-0.9-4.3-2.2-5.5c-1.3-1.3-2.9-1.9-4.8-1.9c-2.2,0-4,0.6-5.4,1.8C434.9,116.6,434.1,118.5,434,121z"/>
			<path class="st0" d="M461.9,141.3v-33.7h7.7v3.5c1.4-2.9,3.7-4.3,6.9-4.3c2.4,0,4.5,0.8,6.3,2.3l-1.1,7.1
				c-1.7-1.2-3.6-1.8-5.7-1.8c-1.8,0-3.3,0.6-4.5,1.8c-1.2,1.2-1.8,3.3-1.8,6.2v18.9H461.9z"/>
			<path class="st0" d="M507.5,141.3V122c0-5.2-2.1-7.9-6.3-7.9c-4.6,0-6.9,2.6-6.9,7.7v19.5h-7.7v-33.7h7.7v3.2
				c2.2-2.6,5.2-4,8.9-4c3.5,0,6.4,1.1,8.6,3.3c2.2,2.2,3.3,5.7,3.3,10.5v20.7L507.5,141.3L507.5,141.3z"/>
			<path class="st0" d="M541.3,141.3v-2.7c-2.2,2.3-5.2,3.5-9,3.5c-3.6,0-6.5-1-8.8-2.9c-2.3-2-3.4-4.7-3.4-8.3
				c0-3.7,1.3-6.4,3.9-8.3c2.6-1.9,5.7-2.8,9.3-2.8c3.2,0,5.9,0.6,8,1.8v-1.8c0-2.2-0.5-3.7-1.6-4.7s-2.7-1.5-5-1.5
				c-3.7,0-7,1.1-10,3.2l-2.4-6.3c3.7-2.5,8.1-3.7,13.2-3.7c1.8,0,3.3,0.1,4.7,0.4c1.3,0.3,2.7,0.8,4.2,1.7c1.4,0.8,2.5,2.2,3.3,4
				s1.2,4,1.2,6.7v21.7H541.3z M533.8,135.3c2.9,0,5.5-1.1,7.5-3.2v-4.4c-1.9-0.9-4.2-1.4-6.7-1.4c-2.1,0-3.7,0.4-5,1.1
				c-1.3,0.7-1.9,1.9-1.9,3.4c0,1.4,0.5,2.4,1.6,3.2S531.8,135.3,533.8,135.3z"/>
			<path class="st0" d="M569.1,142.1c-4.6,0-8.3-1.6-11-4.7c-2.7-3.1-4.1-7.4-4.1-12.9c0-5.5,1.4-9.8,4.1-13c2.7-3.1,6.4-4.7,11-4.7
				c7,0,11.4,3.1,13.4,9.3l-7.3,2.4c-1.1-2.9-3-4.4-5.8-4.4c-2.3,0-4.2,0.9-5.5,2.8c-1.3,1.8-2,4.4-2,7.5s0.6,5.6,1.9,7.4
				c1.3,1.8,3,2.7,5.2,2.7c3.1,0,5.2-1.6,6.1-4.9l7.4,2.2C580.7,138.8,576.2,142.1,569.1,142.1z"/>
			<path class="st0" d="M594.9,101.6c-0.9,0.9-2,1.4-3.2,1.4c-1.3,0-2.4-0.5-3.3-1.4c-0.9-0.9-1.4-2-1.4-3.3s0.5-2.4,1.4-3.2
				c0.9-0.9,2-1.3,3.3-1.3s2.4,0.4,3.2,1.3c0.9,0.9,1.3,2,1.3,3.2C596.2,99.7,595.7,100.7,594.9,101.6z M587.7,141.3v-33.7h7.7v33.7
				H587.7z"/>
			<path class="st0" d="M616.5,142.1c-4.8,0-8.5-1.6-11.3-4.7c-2.8-3.1-4.2-7.4-4.2-12.9c0-5.5,1.4-9.8,4.2-13
				c2.8-3.1,6.5-4.7,11.3-4.7s8.5,1.6,11.3,4.7s4.2,7.5,4.2,13s-1.4,9.8-4.2,12.9C625,140.6,621.3,142.1,616.5,142.1z M616.5,134.7
				c2.4,0,4.3-0.9,5.7-2.7s2.1-4.3,2.1-7.5s-0.7-5.7-2.1-7.6c-1.4-1.8-3.3-2.8-5.7-2.8c-2.3,0-4.2,0.9-5.6,2.8
				c-1.4,1.9-2.1,4.4-2.1,7.6s0.7,5.7,2.1,7.5C612.2,133.8,614.1,134.7,616.5,134.7z"/>
			<path class="st0" d="M658.5,141.3V122c0-5.2-2.1-7.9-6.3-7.9c-4.6,0-6.9,2.6-6.9,7.7v19.5h-7.7v-33.7h7.7v3.2
				c2.2-2.6,5.2-4,8.9-4c3.5,0,6.4,1.1,8.6,3.3c2.2,2.2,3.3,5.7,3.3,10.5v20.7L658.5,141.3L658.5,141.3z"/>
			<path class="st0" d="M692.3,141.3v-2.7c-2.2,2.3-5.2,3.5-9,3.5c-3.6,0-6.5-1-8.8-2.9c-2.3-2-3.4-4.7-3.4-8.3
				c0-3.7,1.3-6.4,3.9-8.3c2.6-1.9,5.7-2.8,9.3-2.8c3.2,0,5.9,0.6,8,1.8v-1.8c0-2.2-0.5-3.7-1.6-4.7s-2.7-1.5-5-1.5
				c-3.7,0-7,1.1-10,3.2l-2.4-6.3c3.7-2.5,8.1-3.7,13.2-3.7c1.8,0,3.3,0.1,4.7,0.4c1.3,0.3,2.7,0.8,4.2,1.7c1.4,0.8,2.5,2.2,3.3,4
				s1.2,4,1.2,6.7v21.7H692.3z M684.8,135.3c2.9,0,5.5-1.1,7.5-3.2v-4.4c-1.9-0.9-4.2-1.4-6.7-1.4c-2.1,0-3.7,0.4-5,1.1
				c-1.3,0.7-1.9,1.9-1.9,3.4c0,1.4,0.5,2.4,1.6,3.2S682.8,135.3,684.8,135.3z"/>
			<path class="st0" d="M706.8,141.3v-44l7.7-3.6v47.7h-7.7V141.3z"/>
			<path class="st0" d="M365.8,208.1c-4.3,0-7.7-1.6-10.2-4.7c-2.5-3.1-3.8-7.5-3.8-13c0-5.4,1.3-9.7,3.9-12.9s6-4.8,10.1-4.8
				c3.3,0,5.8,1.1,7.6,3.2v-12.8l7.7-3.5v47.7h-7.7v-2.4C371.7,207.1,369.1,208.1,365.8,208.1z M366.9,200.7c2.9,0,5-1.1,6.4-3.2
				v-14.1c-1.5-2.2-3.6-3.2-6.4-3.2c-2.4,0-4.2,0.9-5.5,2.7s-1.9,4.3-1.9,7.6c0,3.1,0.7,5.6,2,7.5
				C362.8,199.8,364.6,200.7,366.9,200.7z"/>
			<path class="st0" d="M402.3,208.1c-4.8,0-8.6-1.6-11.4-4.7c-2.8-3.1-4.2-7.5-4.2-13s1.4-9.8,4.2-12.9c2.8-3.1,6.6-4.7,11.4-4.7
				c4.3,0,7.8,1.3,10.6,4c2.8,2.7,4.1,6.6,4.1,11.8c0,1.8-0.1,3.4-0.3,4.8h-22.4c0.1,2.4,1,4.3,2.5,5.7c1.5,1.5,3.3,2.2,5.4,2.2
				c3,0,5.4-1.2,7.1-3.5l4.9,5C411.3,206.4,407.3,208.1,402.3,208.1z M394.4,187h14.9c-0.2-2.4-0.9-4.3-2.2-5.5
				c-1.3-1.3-2.9-1.9-4.8-1.9c-2.2,0-4,0.6-5.4,1.8C395.4,182.6,394.6,184.5,394.4,187z"/>
			<path class="st0" d="M422.5,207.3v-44l7.7-3.6v47.7L422.5,207.3L422.5,207.3z"/>
			<path class="st0" d="M472.7,168.7v38.6h-7.9v-38.6h-13.1v-7.6h34.2v7.6L472.7,168.7L472.7,168.7z"/>
			<path class="st0" d="M485.6,207.3v-33.7h7.7v3.5c1.4-2.9,3.7-4.3,6.9-4.3c2.4,0,4.5,0.8,6.3,2.3l-1.1,7.1
				c-1.7-1.2-3.6-1.8-5.7-1.8c-1.8,0-3.3,0.6-4.5,1.8s-1.8,3.3-1.8,6.2v18.9H485.6z"/>
			<path class="st0" d="M529.4,207.3v-2.7c-2.2,2.3-5.2,3.5-9,3.5c-3.6,0-6.5-1-8.8-2.9c-2.3-2-3.4-4.7-3.4-8.3
				c0-3.7,1.3-6.4,3.9-8.3c2.6-1.9,5.7-2.8,9.3-2.8c3.2,0,5.9,0.6,8,1.8v-1.8c0-2.2-0.5-3.7-1.6-4.7s-2.7-1.5-5-1.5
				c-3.7,0-7,1.1-10,3.2l-2.4-6.3c3.7-2.5,8.1-3.7,13.2-3.7c1.8,0,3.3,0.1,4.7,0.4c1.3,0.3,2.7,0.8,4.2,1.7c1.4,0.8,2.5,2.2,3.3,4
				s1.2,4,1.2,6.7v21.7L529.4,207.3L529.4,207.3z M521.8,201.3c2.9,0,5.5-1.1,7.5-3.2v-4.4c-1.9-0.9-4.2-1.4-6.7-1.4
				c-2.1,0-3.7,0.4-5,1.1c-1.3,0.7-1.9,1.9-1.9,3.4c0,1.4,0.5,2.4,1.6,3.2S519.9,201.3,521.8,201.3z"/>
			<path class="st0" d="M558.9,208.1c-3.2,0-5.7-1.1-7.5-3.4v2.6h-7.7v-44.2l7.7-3.5V176c1.9-2.2,4.4-3.3,7.6-3.3
				c4.2,0,7.6,1.6,10.1,4.8c2.6,3.2,3.9,7.5,3.9,12.9c0,5.6-1.3,10-3.8,13.1S563.3,208.1,558.9,208.1z M558,200.7
				c2.4,0,4.2-0.9,5.4-2.7c1.3-1.8,1.9-4.3,1.9-7.6s-0.6-5.9-1.9-7.7c-1.3-1.8-3.1-2.6-5.4-2.6c-2.9,0-5.1,1.1-6.5,3.3v14.1
				C552.8,199.7,555,200.7,558,200.7z"/>
			<path class="st0" d="M598,207.3v-2.7c-2.2,2.3-5.2,3.5-9,3.5c-3.6,0-6.5-1-8.8-2.9c-2.3-2-3.4-4.7-3.4-8.3c0-3.7,1.3-6.4,3.9-8.3
				c2.6-1.9,5.7-2.8,9.3-2.8c3.2,0,5.9,0.6,8,1.8v-1.8c0-2.2-0.5-3.7-1.6-4.7s-2.7-1.5-5-1.5c-3.7,0-7,1.1-10,3.2l-2.4-6.3
				c3.7-2.5,8.1-3.7,13.2-3.7c1.8,0,3.3,0.1,4.7,0.4c1.3,0.3,2.7,0.8,4.2,1.7c1.4,0.8,2.5,2.2,3.3,4s1.2,4,1.2,6.7v21.7L598,207.3
				L598,207.3z M590.4,201.3c2.9,0,5.5-1.1,7.5-3.2v-4.4c-1.9-0.9-4.2-1.4-6.7-1.4c-2.1,0-3.7,0.4-5,1.1c-1.3,0.7-1.9,1.9-1.9,3.4
				c0,1.4,0.5,2.4,1.6,3.2S588.5,201.3,590.4,201.3z"/>
			<path class="st0" d="M606.8,221.5l-3.8-5.9c3.5-0.7,6-1.7,7.3-2.8s2-2.7,2-4.9v-34.3h7.7v32c0,4.9-1.1,8.4-3.2,10.7
				C614.4,218.8,611.1,220.5,606.8,221.5z M619.4,167.6c-0.9,0.9-2,1.4-3.2,1.4c-1.3,0-2.4-0.5-3.3-1.4c-0.9-0.9-1.4-2-1.4-3.3
				s0.5-2.4,1.4-3.2c0.9-0.9,2-1.3,3.3-1.3s2.4,0.4,3.2,1.3c0.9,0.9,1.3,2,1.3,3.2C620.8,165.7,620.3,166.7,619.4,167.6z"/>
			<path class="st0" d="M641,208.1c-4.8,0-8.5-1.6-11.3-4.7c-2.8-3.1-4.2-7.4-4.2-12.9s1.4-9.8,4.2-13c2.8-3.1,6.5-4.7,11.3-4.7
				s8.5,1.6,11.3,4.7c2.8,3.1,4.2,7.5,4.2,13s-1.4,9.8-4.2,12.9C649.6,206.6,645.8,208.1,641,208.1z M641,200.7
				c2.4,0,4.3-0.9,5.7-2.7s2.1-4.3,2.1-7.5s-0.7-5.7-2.1-7.6s-3.3-2.8-5.7-2.8c-2.3,0-4.2,0.9-5.6,2.8c-1.4,1.9-2.1,4.4-2.1,7.6
				s0.7,5.7,2.1,7.5S638.7,200.7,641,200.7z"/>
		</g>
		<g>
			<g>
				<path class="st0" d="M71,67.5c-1.3,2.2-1.7,3.1-1.7,3.1c-1,1.9-3.4,2.9-5.4,2.1l-3.6-1.4c-2-0.8-4.3,0.3-5,2.3l-2.8,7.3
					c-0.8,2,0.3,4.3,2.3,5l3.6,1.4c2,0.8,3.2,3.1,2.7,5.2l-1.6,7.9c-0.3,2.1-2.4,3.8-4.5,3.7l-3.9-0.1c-2.1-0.1-3.9,1.6-4,3.8
					l-0.3,7.8c-0.1,2.1,1.6,3.9,3.8,4l3.9,0.1c2.1,0.1,4.1,1.9,4.2,4l1.1,8c0.4,2.1-1,4.3-3,5l-3.8,1.2c-2,0.6-3.2,2.8-2.6,4.9
					l3.4,11.2l21-6.5c-9.6-23.5-8.7-51,5-74.7s37.1-38.3,62.2-41.7l-4.8-21.6l-11.4,2.6c-2.1,0.5-3.4,2.6-2.9,4.7l0.9,3.9
					c0.5,2.1-0.8,4.4-2.8,5.1l-7.5,3.1c-1.9,0.9-4.5,0.1-5.6-1.7l-2.1-3.3c-1.1-1.8-3.5-2.4-5.4-1.2l-6.6,4.1
					c-1.8,1.1-2.4,3.5-1.2,5.4l2.1,3.3c1.1,1.8,0.7,4.4-1,5.7l-6.1,5.4c-1.5,1.5-4.2,1.6-5.8,0.2l-3-2.5c-1.7-1.4-4.1-1.1-5.5,0.6
					l-4.9,6C67,52.6,67.3,55,69,56.4l3,2.5c1.7,1.4,2.1,3.9,0.9,5.7C72.8,64.5,72.3,65.3,71,67.5z"/>
			</g>
			<g>
				<path class="st0" d="M152.1,208c2.5,0,3.6-0.1,3.6-0.1c2.1-0.1,4.2,1.5,4.5,3.6l0.6,3.9c0.3,2.1,2.3,3.6,4.5,3.2l7.7-1.2
					c2.1-0.3,3.6-2.4,3.2-4.5l-0.6-3.8c-0.3-2.1,1.1-4.3,3.1-4.9l7.7-2.6c2-0.8,4.5,0.1,5.5,2l1.8,3.4c1,1.9,3.4,2.6,5.3,1.6
					l6.9-3.7c1.9-1,2.6-3.4,1.6-5.3l-1.9-3.5c-1-1.9-0.4-4.4,1.3-5.7l6.4-4.9c1.6-1.4,4.3-1.3,5.8,0.1l2.9,2.7
					c1.6,1.5,4,1.4,5.5-0.2l8-8.5l-16.1-14.9c-15.5,20.1-39.9,33-67.2,33c-27.4,0-51.7-12.9-67.2-33l-16.1,14.9l8,8.5
					c1.5,1.6,3.9,1.7,5.5,0.2l2.9-2.7c1.6-1.5,4.2-1.5,5.8-0.1l6.4,4.9c1.7,1.2,2.4,3.8,1.3,5.7l-1.9,3.5c-1,1.9-0.3,4.3,1.6,5.3
					l6.9,3.7c1.9,1,4.3,0.3,5.3-1.6l1.8-3.4c1-1.9,3.5-2.8,5.5-2l7.7,2.6c2.1,0.6,3.5,2.8,3.1,4.9l-0.6,3.8
					c-0.3,2.1,1.1,4.1,3.2,4.5l7.7,1.2c2.1,0.3,4.1-1.1,4.5-3.2l0.6-3.9c0.3-2.1,2.4-3.7,4.5-3.6C148.5,207.9,149.5,208,152.1,208z"
					/>
			</g>
			<g>
				<path class="st0" d="M233.2,67.6c-1.3-2.2-1.8-3.1-1.8-3.1c-1.2-1.8-0.8-4.4,0.9-5.7l3-2.5c1.7-1.4,1.9-3.8,0.6-5.5l-4.9-6
					c-1.4-1.7-3.8-1.9-5.5-0.6l-3,2.5c-1.7,1.4-4.3,1.2-5.8-0.2l-6.1-5.4c-1.7-1.3-2.1-3.9-1-5.7l2.1-3.3c1.1-1.8,0.6-4.2-1.2-5.4
					l-6.6-4.1c-1.8-1.1-4.2-0.6-5.4,1.2l-2.1,3.3c-1.1,1.8-3.6,2.6-5.6,1.7l-7.5-3.1c-2-0.7-3.3-3-2.8-5.1l0.9-3.9
					c0.5-2.1-0.8-4.2-2.9-4.7L167,9.5l-4.9,21.4c25.2,3.4,48.5,18,62.2,41.7s14.6,51.2,5,74.7l21,6.5l3.4-11.2
					c0.6-2-0.5-4.2-2.6-4.9l-3.8-1.2c-2-0.6-3.4-2.9-3-5l1.1-8c0.2-2.1,2.1-3.9,4.2-4l3.9-0.1c2.1-0.1,3.8-1.9,3.8-4l-0.3-7.8
					c-0.1-2.1-1.9-3.8-4-3.8l-3.9,0.1c-2.1,0.1-4.2-1.6-4.5-3.7l-1.6-7.9c-0.5-2.1,0.7-4.4,2.7-5.2l3.6-1.4c2-0.8,3-3,2.3-5
					l-2.8-7.3c-0.8-2-3-3-5-2.3l-3.6,1.4c-2,0.8-4.4-0.2-5.4-2.1C234.9,70.7,234.4,69.7,233.2,67.6z"/>
			</g>
			<g>
				<path class="st0" d="M30.4,65.7c-0.1,0.1-0.1,0.2-0.1,0.2S30.4,65.8,30.4,65.7z"/>
			</g>
			<g>
				<path class="st0" d="M63.9,21.6l0.3,0.4c0.9-0.6,4.1-2.9,7.9-4c21.2-6,20.1-13.3,29.1-17.6L100.9,0c-0.9,0.6-3.6,2.2-7.5,2.2
					C68.6,2.5,70.5,17,63.9,21.6z"/>
			</g>
			<g>
				<path class="st0" d="M39.2,49.2l0.5,0.3c5-5.6,9.9-6.6,10.7-6.9C70.1,36.8,77,23.7,82.3,20l-0.2-0.3
					c-7.3,5.2-15.9-0.1-30.7,15.7c-0.1,0.1-0.5-0.5-0.5-0.5c12-14.4,12.3-24.2,17.8-29.6L68.4,5C33.5,25.9,48.8,37.3,39.2,49.2z"/>
			</g>
			<g>
				<path class="st0" d="M40.7,25.1C7.8,57.7,28.2,66,23.1,82.2l0.3,0.1c3-6.9,10.6-9.9,10.8-10c13.9-6.4,18.3-22.7,23.9-27.6
					l-0.3-0.2c-6.8,7.4-18,3.2-27.2,21.5c0,0.1-0.6-0.3-0.6-0.3c7.4-15.9,3.9-30.3,11-40.3C40.9,25.3,40.8,25.1,40.7,25.1z"/>
			</g>
			<g>
				<path class="st0" d="M16.8,125.5h0.5c-0.1-1.9-0.6-9.6,7.1-16.8c15.6-14.5,13-27.3,19.4-37.3l-0.5-0.3
					c-5,8.5-23.2,17.8-23.9,30.8l-0.7-0.1c2.7-18.7-7.2-31.1-1.8-43c-0.2-0.1-0.4-0.2-0.5-0.3C-4.5,101.6,12.8,101,16.8,125.5z"/>
			</g>
			<g>
				<path class="st0" d="M24.8,166.3l0.5-0.2c-4.3-9.7,2.9-22.9,3.2-23.6c9.5-18.4,6.3-35.1,8.5-40.9l-0.5-0.1
					c-5.1,12.6-19.1,19.5-16.9,40.7h-0.7C16.7,129,1.7,116.4,2.2,102c-0.1,0-0.2,0-0.3,0C-7.3,153.1,19.3,152.8,24.8,166.3z"/>
			</g>
			<g>
				<path class="st0" d="M46.1,204.1l0.4-0.3c-8.9-10.8-6.2-22.5-6-23.3c4.4-25.5-3.8-30.1-4-41.6h-0.4
					c-0.4,12.9-13.6,27.4-1.6,45.4l-0.6,0.4C20.7,165.4,10.2,170.1,4,151l0,0c-0.2,0-0.4,0.1-0.5,0.2
					C12.6,207.3,37.6,190.3,46.1,204.1z"/>
			</g>
			<g>
				<path class="st0" d="M97.6,228.6l-0.1-0.5c-17.4,3.5-26.3,0.1-29.4-15.9c-4.4-22.5-19.7-31.1-21.5-40.1l0,0
					c-0.3,0-0.4,0-0.4,0.1l0,0c3.3,15.9-4.4,25.3,14.7,44.3l-0.5,0.4C42,202.3,29.3,207.7,22,197.5c-0.1,0.1-0.3,0.2-0.3,0.3
					C44.4,235.8,68.9,237.8,97.6,228.6z"/>
			</g>
			<g>
				<path class="st0" d="M54.6,235.1l0.1-0.2c23.4,13.6,47.9-5.4,77.5-6.1c7.4-0.2,29.7,1.2,50.1,24.9l-5.4,1.5
					c-6.7-11.7-17.1-20.2-26.6-22.5c-27-6.7-27.5,18.4-57.4,18.8C70.7,251.9,55.5,236,54.6,235.1z"/>
			</g>
			<g>
				<path class="st0" d="M273.4,65.7c0.1,0.1,0.1,0.2,0.1,0.2S273.5,65.8,273.4,65.7z"/>
			</g>
			<g>
				<path class="st0" d="M273.4,65.7c0.1,0.1,0.1,0.2,0.1,0.2S273.5,65.8,273.4,65.7z"/>
			</g>
			<g>
				<path class="st0" d="M30.4,65.7c-0.1,0.1-0.1,0.2-0.1,0.2S30.4,65.8,30.4,65.7z"/>
			</g>
			<g>
				<path class="st0" d="M273.4,65.7c0.1,0.1,0.1,0.2,0.1,0.2S273.5,65.8,273.4,65.7z"/>
			</g>
			<g>
				<path class="st0" d="M239.9,21.6l-0.3,0.4c-0.9-0.6-4.1-2.9-7.9-4c-21.2-6-20.1-13.3-29.1-17.6l0.3-0.4c0.9,0.6,3.6,2.2,7.5,2.2
					C235.3,2.5,233.4,17,239.9,21.6z"/>
			</g>
			<g>
				<path class="st0" d="M264.6,49.2l-0.4,0.3c-5-5.6-9.9-6.6-10.7-6.9c-19.7-5.8-26.6-18.9-31.9-22.6l0.2-0.3
					c7.3,5.2,15.9-0.1,30.7,15.7c0.1,0.1,0.5-0.5,0.5-0.5c-12-14.5-12.3-24.3-17.8-29.6l0.3-0.3C270.4,25.9,255,37.3,264.6,49.2z"/>
			</g>
			<g>
				<path class="st0" d="M263.2,25.1c32.9,32.6,12.4,40.9,17.6,57.2l-0.3,0.1c-3-6.9-10.6-9.9-10.8-10
					c-13.9-6.4-18.3-22.7-23.9-27.6l0.3-0.3c6.8,7.4,18,3.2,27.2,21.5c0,0.1,0.6-0.3,0.6-0.3c-7.4-15.9-3.9-30.3-11-40.3
					C263,25.3,263.1,25.1,263.2,25.1z"/>
			</g>
			<g>
				<path class="st0" d="M287.1,125.5h-0.5c0.1-1.9,0.6-9.6-7.1-16.8c-15.6-14.5-13-27.3-19.4-37.3l0.5-0.3
					c5,8.5,23.2,17.8,23.9,30.8l0.7-0.1c-2.7-18.7,7.2-31.1,1.8-43c0.2-0.1,0.4-0.2,0.5-0.3C308.4,101.6,291,101,287.1,125.5z"/>
			</g>
			<g>
				<path class="st0" d="M279,166.3l-0.5-0.2c4.3-9.7-2.9-22.9-3.2-23.6c-9.5-18.4-6.3-35.1-8.5-40.9l0.5-0.1
					c5.1,12.6,19.1,19.5,16.9,40.7h0.7c2.2-13.2,17.2-25.8,16.7-40.2c0.1,0,0.2,0,0.3,0C311.1,153.1,284.6,152.8,279,166.3z"/>
			</g>
			<g>
				<path class="st0" d="M257.8,204.1l-0.4-0.3c8.9-10.8,6.2-22.5,6-23.3c-4.4-25.5,3.8-30.1,4-41.6h0.4
					c0.4,12.9,13.6,27.4,1.6,45.4l0.6,0.4c13.2-19.3,23.7-14.6,29.9-33.7l0,0c0.2,0,0.4,0.1,0.5,0.2
					C291.2,207.3,266.2,190.3,257.8,204.1z"/>
			</g>
			<g>
				<path class="st0" d="M206.2,228.6l0.1-0.5c17.4,3.5,26.3,0.1,29.4-15.9c4.4-22.5,19.7-31.1,21.5-40.1l0,0c0.3,0,0.4,0,0.4,0.1
					l0,0c-3.3,15.9,4.4,25.3-14.7,44.3l0.5,0.4c18.4-14.6,31.1-9.2,38.4-19.4c0.1,0.1,0.3,0.2,0.3,0.3
					C259.5,235.8,235,237.8,206.2,228.6z"/>
			</g>
			<g>
				<path class="st0" d="M249.2,235.1l-0.1-0.2c-23.4,13.6-47.9-5.4-77.5-6.1c-7.4-0.2-29.7,1.2-50.1,24.9l5.4,1.5
					c6.7-11.7,17.1-20.2,26.6-22.5c27-6.7,27.5,18.4,57.4,18.8C233.2,251.9,248.4,236,249.2,235.1z"/>
			</g>
			<g>
				<path class="st0" d="M30.4,65.7c-0.1,0.1-0.1,0.2-0.1,0.2S30.4,65.8,30.4,65.7z"/>
			</g>
			<g>
				<path class="st0" d="M30.4,65.7c-0.1,0.1-0.1,0.2-0.1,0.2S30.4,65.8,30.4,65.7z"/>
			</g>
			<g>
				<path class="st0" d="M273.4,65.7c0.1,0.1,0.1,0.2,0.1,0.2S273.5,65.8,273.4,65.7z"/>
			</g>
			<g>
				<g>
					<path class="st0" d="M160.4,65.5c0.3-4.3,4.9-4.6,4.9-4.6h6.1v-5.6h-35.9v5.6h6.1c0,0,4.6,0.3,4.9,4.6v93.4
						c-0.3,4.3-4.9,4.6-4.9,4.6h-6.1v5.6h35.9v-5.6h-6.1c0,0-4.6-0.3-4.9-4.6V65.5L160.4,65.5z"/>
				</g>
			</g>
			<g>
				<path class="st0" d="M218.9,74.2v24.3h-4.5v-6.6c0,0,1.1-14.4-14.6-13.1v64.4c0,0,0.4,3.8,7.5,3.3v4.1h-27.1v-4.1
					c7.2,0.4,7.5-3.3,7.5-3.3V78.8c-15.5-1.3-14.5,13.1-14.5,13.1v6.6h-4.5V74.2H218.9z"/>
			</g>
			<g>
				<path class="st0" d="M108.8,71.8h-0.4c-10.9,0-21.5,7-26.7,18.8c-2.7,6-3.3,13.7-3.3,21.2S79,127,81.7,133
					c5.2,11.7,15.8,19.8,26.7,19.8h0.4c10.9,0,21.5-8,26.7-19.8c2.7-6,3.3-13.7,3.3-21.2s-0.6-15.2-3.3-21.2
					C130.2,78.9,119.7,71.8,108.8,71.8z M125.6,112.3c0,7-0.2,13.1-0.2,13.1c-0.4,5.7-0.5,11.5-3.2,15.4c-3,4.5-7.8,6.8-12.7,6.8
					l-0.2,0.1h-0.6l-0.2-0.1c-4.8,0-9.7-2.3-12.7-6.8c-2.7-3.9-2.8-9.7-3.2-15.4c0,0-0.2-6-0.2-12.9v-0.3c0-7,0.2-13.1,0.2-13.1
					c0.4-5.7,0.5-11.5,3.2-15.4c3-4.5,7.8-6.8,12.7-6.8l0.2-0.1h0.6l0.2,0.1c4.8,0,9.7,2.3,12.7,6.8c2.7,3.9,2.8,9.7,3.2,15.4
					c0,0,0.2,6,0.2,12.9V112.3z"/>
			</g>
		</g>
	</g>
</g>
</svg>
