<svg xmlns="http://www.w3.org/2000/svg" id="Layer_1" viewBox="0 0 465.34 250"><defs><style>.cls-1{fill:#fff;stroke-width:0}</style></defs><g id="Lockup"><path d="M398.73 22.34v56.52h-6.37v-3.13h-40.95v3.13h-6.07V22.34zm-6.37 47.81V27.92h-40.95v42.32h40.95v-.1Zm-3.04-9.89v5h-34.48v-5h14.01v-9.6h-11.46v-5.09h11.46v-7.84h-13.13v-5.29h32.23v5.29h-13.52v7.84h12.05v5.09h-12.05v9.6h8.91c-1.18-1.96-3.62-4.9-5.78-7.05l3.82-2.06c2.16 1.96 4.8 4.9 5.98 6.76l-3.92 2.35zm50.26-7.46c-1.86 7.35-5.19 15.09-8.52 20.08-1.08-.88-3.53-2.45-4.7-3.13 3.43-4.51 6.17-11.46 7.84-18.12l5.39 1.18Zm-6.37-28.7h28.02v5.58h-28.02zm24.88 27.23c2.94 6.37 5.98 14.5 6.96 19.69l-5.39 2.06c-.88-5.19-3.72-13.62-6.56-20.08l5-1.67Zm-57.7 51.33v5.49h-13.81v5.19h-6.07v-5.19h-16.85v5.19h-6.27v-5.19h-13.52v-5.49h13.52v-5.48h6.27v5.48h16.85v-5.48h6.07v5.48zm-55.44 13.13h53.98v11.07h-6.18v-5.78h-41.92v6.47h-5.88zm21.06 91.79c-.1 1.47-.2 3.72-.1 4.9-17.14 3.43-19.59 4.11-21.06 4.9-.29-1.08-1.08-3.72-1.76-5.19 1.47-.29 3.04-1.76 5.09-4.11 1.27-1.27 3.72-4.21 6.37-8.03-7.64.98-9.21 1.37-10.19 1.76-.29-1.08-1.27-3.92-1.86-5.39 1.27-.29 2.35-1.76 3.92-3.92 1.47-2.06 6.27-10.29 8.91-17.93l5.39 2.55c-2.94 6.47-6.76 13.13-10.58 18.51l8.03-.69c1.47-2.16 2.84-4.51 4.11-6.76l4.7 2.94c-4.11 6.66-8.82 13.32-13.81 18.71l12.83-2.25Zm-.2 16.95c-7.54 2.06-15.58 4.11-21.65 5.68l-1.08-5.68c5.49-1.18 13.91-3.13 22.14-5zm35.76 2.84v5.39h-36.93v-5.39h6.17V178h25.47v49.37zm-25.18-43.99v10.78h13.81v-10.78zm0 27.33h13.81v-11.17h-13.81zm0 16.65h13.81V216h-13.81zm53.49-19.58c-.2 1.57-.2 4.02-.1 5.19-17.05 3.33-19.49 4.02-21.16 4.9-.2-1.18-1.08-3.82-1.76-5.29 1.57-.29 3.04-1.86 5-4.11 1.18-1.27 3.53-4.11 6.07-7.74-7.15.88-8.72 1.27-9.7 1.76-.29-1.27-1.27-4.11-1.96-5.68 1.27-.29 2.35-1.76 3.82-3.92 1.47-2.06 6.17-10.38 8.62-18.03l5.78 2.64c-2.74 6.56-6.56 13.42-10.48 18.81l7.45-.69c1.47-2.16 2.84-4.7 4.11-6.96l4.9 2.94c-3.82 6.56-8.42 13.03-13.22 18.42l12.64-2.25Zm.1 17.54c-7.84 1.96-15.87 3.92-22.14 5.58l-1.08-5.98c5.58-1.08 14.3-2.94 22.63-4.9l.59 5.29Zm12.83-9.8c-2.25 7.15-6.07 14.11-10.19 18.51-1.27-.98-3.82-2.74-5.39-3.53 4.11-3.92 7.45-10.09 9.31-16.36l6.27 1.37Zm19-7.15h-29.58v-29.29h29.58zm-6.17-23.51H438.2v17.83h17.44zm.98 29.09c3.53 5.49 7.25 12.74 8.72 17.44l-5.98 2.35c-1.37-4.7-4.9-12.05-8.33-17.63l5.58-2.16ZM69.58 66.12c-1.27 2.16-1.67 3.04-1.67 3.04-.98 1.86-3.33 2.84-5.29 2.06l-3.53-1.37c-1.96-.78-4.21.29-4.9 2.25l-2.74 7.15c-.78 1.96.29 4.21 2.25 4.9l3.53 1.37c1.96.78 3.13 3.04 2.64 5.09l-1.57 7.74c-.29 2.06-2.35 3.72-4.41 3.62l-3.82-.1c-2.06-.1-3.82 1.57-3.92 3.72l-.29 7.64c-.1 2.06 1.57 3.82 3.72 3.92l3.82.1c2.06.1 4.02 1.86 4.11 3.92l1.08 7.84c.39 2.06-.98 4.21-2.94 4.9l-3.72 1.18c-1.96.59-3.13 2.74-2.55 4.8l3.33 10.97 20.57-6.37c-9.4-23.02-8.52-49.96 4.9-73.18 13.42-23.41 36.25-37.72 60.93-41.05l-4.8-20.96-11.17 2.55a3.82 3.82 0 0 0-2.84 4.6l.88 3.82c.49 2.06-.78 4.31-2.74 5l-7.35 3.04c-1.86.88-4.41.1-5.49-1.67l-2.06-3.23c-1.08-1.76-3.43-2.35-5.29-1.18l-6.47 4.02c-1.76 1.08-2.35 3.43-1.18 5.29l2.06 3.23c1.08 1.76.69 4.31-.98 5.58l-5.98 5.29c-1.47 1.47-4.11 1.57-5.68.2l-2.94-2.45c-1.67-1.37-4.02-1.08-5.39.59l-4.8 5.88c-1.37 1.67-1.08 4.02.59 5.39l2.94 2.45c1.67 1.37 2.06 3.82.88 5.58 0-.1-.59.69-1.76 2.84Zm79.35 137.64c2.45 0 3.53-.1 3.53-.1 2.06-.1 4.11 1.47 4.41 3.53l.59 3.82c.29 2.06 2.25 3.53 4.41 3.13l7.54-1.18c2.06-.29 3.53-2.25 3.13-4.41l-.59-3.72c-.29-2.06 1.08-4.21 3.04-4.8l7.54-2.55c1.96-.78 4.41.1 5.39 1.96l1.76 3.33c.98 1.86 3.33 2.55 5.19 1.57l6.76-3.62c1.86-.98 2.55-3.33 1.57-5.19l-1.86-3.43c-.98-1.86-.39-4.31 1.27-5.58l6.27-4.8c1.57-1.37 4.21-1.27 5.68.1l2.84 2.64c1.57 1.47 3.92 1.37 5.39-.2l7.84-8.33-15.77-14.6c-15.18 19.69-39.09 32.33-65.83 32.33s-50.65-12.64-65.83-32.33l-15.77 14.6 7.84 8.33c1.47 1.57 3.82 1.67 5.39.2l2.84-2.64c1.57-1.47 4.11-1.47 5.68-.1l6.27 4.8c1.67 1.18 2.35 3.72 1.27 5.58l-1.86 3.43c-.98 1.86-.29 4.21 1.57 5.19l6.76 3.62c1.86.98 4.21.29 5.19-1.57l1.76-3.33c.98-1.86 3.43-2.74 5.39-1.96l7.54 2.55c2.06.59 3.43 2.74 3.04 4.8l-.59 3.72c-.29 2.06 1.08 4.02 3.13 4.41l7.54 1.18c2.06.29 4.02-1.08 4.41-3.13l.59-3.82c.29-2.06 2.35-3.62 4.41-3.53-.1 0 .88.1 3.33.1m79.44-137.54c-1.27-2.16-1.76-3.04-1.76-3.04-1.18-1.76-.78-4.31.88-5.58l2.94-2.45c1.67-1.37 1.86-3.72.59-5.39l-4.8-5.88c-1.37-1.67-3.72-1.86-5.39-.59l-2.94 2.45c-1.67 1.37-4.21 1.18-5.68-.2l-5.98-5.29c-1.67-1.27-2.06-3.82-.98-5.58l2.06-3.23c1.08-1.76.59-4.11-1.18-5.29l-6.47-4.02c-1.76-1.08-4.11-.59-5.29 1.18l-2.06 3.23c-1.08 1.76-3.53 2.55-5.49 1.67l-7.35-3.04c-1.96-.69-3.23-2.94-2.74-5l.88-3.82c.49-2.06-.78-4.11-2.84-4.6L163.6 9.2l-4.8 20.96c24.69 3.33 47.51 17.63 60.93 40.85s14.3 50.16 4.9 73.18l20.57 6.37 3.33-10.97c.59-1.96-.49-4.11-2.55-4.8l-3.72-1.18c-1.96-.59-3.33-2.84-2.94-4.9l1.08-7.84c.2-2.06 2.06-3.82 4.11-3.92l3.82-.1c2.06-.1 3.72-1.86 3.72-3.92l-.29-7.64c-.1-2.06-1.86-3.72-3.92-3.72l-3.82.1c-2.06.1-4.11-1.57-4.41-3.62l-1.57-7.74c-.49-2.06.69-4.31 2.64-5.09l3.53-1.37a3.885 3.885 0 0 0 2.25-4.9l-2.74-7.15a3.885 3.885 0 0 0-4.9-2.25l-3.53 1.37c-1.96.78-4.31-.2-5.29-2.06 0 .39-.39-.59-1.67-2.64ZM29.8 64.36c-.1.1-.1.2-.1.2s0-.1.1-.2m32.72-43.2.29.39c.88-.59 4.02-2.84 7.74-3.92C91.32 11.75 90.24 4.6 99.06.39L98.77 0c-.88.59-3.53 2.16-7.35 2.16-24.29.29-22.43 14.5-28.9 19" class="cls-1"/><path d="m38.42 48.2.49.29c4.9-5.49 9.7-6.47 10.48-6.76 19.3-5.68 26.06-18.51 31.25-22.14l-.2-.29c-7.15 5.09-15.58-.1-30.07 15.38-.1.1-.49-.49-.49-.49 11.76-14.2 12.05-23.8 17.44-29l-.29-.29c-34.29 20.47-19.2 31.64-28.61 43.3" class="cls-1"/><path d="M39.8 24.59C7.57 56.53 27.65 64.66 22.56 80.53l.29.1c2.94-6.76 10.38-9.7 10.58-9.8 13.71-6.17 18.03-22.14 23.41-26.94l-.29-.29c-6.66 7.25-17.63 3.13-26.65 21.06 0 .1-.59-.29-.59-.29 7.25-15.58 3.82-29.78 10.78-39.48-.1-.1-.2-.29-.29-.29Z" class="cls-1"/><path d="M16.38 122.94h.49c-.1-1.86-.59-9.4 6.96-16.46 15.28-14.2 12.74-26.74 19-36.54l-.49-.29c-4.9 8.33-22.73 17.44-23.41 30.17l-.69-.1c2.64-18.32-7.05-30.47-1.76-42.12-.2-.1-.39-.2-.49-.29-20.47 42.22-3.43 41.63.39 65.63" class="cls-1"/><path d="m24.32 162.91.49-.2c-4.21-9.5 2.84-22.43 3.13-23.12 9.31-18.03 6.17-34.38 8.33-40.07l-.49-.1c-4.9 12.44-18.71 19.1-16.56 39.97h-.69c-2.16-12.93-16.85-25.27-16.36-39.38h-.29c-9.01 49.96 16.95 49.67 22.43 62.89Z" class="cls-1"/><path d="m45.09 199.94.39-.29c-8.72-10.58-6.07-22.04-5.88-22.83 4.31-24.98-3.72-29.49-3.92-40.75h-.39c-.49 12.64-13.42 26.84-1.67 44.47l-.59.39c-12.93-18.91-23.22-14.3-29.29-33.01-.2 0-.39.1-.49.2 9.11 54.96 33.6 38.3 41.83 51.82Z" class="cls-1"/><path d="m95.54 223.94-.1-.49c-17.05 3.43-25.76.1-28.8-15.58-4.31-22.04-19.3-30.47-21.06-39.28-.29 0-.39 0-.39.1 3.23 15.58-4.31 24.78 14.4 43.4l-.49.39c-18.03-14.3-30.47-9.01-37.62-19-.1.1-.29.2-.29.29 22.24 37.23 46.24 39.18 74.35 30.17" class="cls-1"/><path d="m53.51 230.31.1-.2c22.92 13.42 46.92-5.29 75.92-5.98 7.25-.2 29.09 1.18 49.08 24.39l-5.29 1.47c-6.56-11.46-16.75-19.79-26.06-22.04-26.45-6.56-26.94 18.03-56.23 18.42-21.85.29-36.74-15.18-37.52-16.07ZM267.75 64.36c.1.1.1.2.1.2s0-.1-.1-.2" class="cls-1"/><path d="M267.75 64.36c.1.1.1.2.1.2s0-.1-.1-.2m-237.95 0c-.1.1-.1.2-.1.2s0-.1.1-.2" class="cls-1"/><path d="M267.75 64.36c.1.1.1.2.1.2s0-.1-.1-.2m-32.72-43.2-.29.39c-.88-.59-4.02-2.84-7.74-3.92C206.23 11.75 207.31 4.6 198.49.39l.29-.39c.88.59 3.53 2.16 7.35 2.16 24.29.29 22.43 14.5 28.9 19" class="cls-1"/><path d="m259.23 48.2-.49.29c-4.9-5.49-9.7-6.47-10.48-6.76-19.3-5.68-26.06-18.51-31.25-22.14l.2-.29c7.15 5.09 15.58-.1 30.07 15.38.1.1.49-.49.49-.49-11.76-14.2-12.05-23.8-17.44-29l.29-.29c34.19 20.47 19.2 31.64 28.61 43.3" class="cls-1"/><path d="M257.76 24.59c32.23 31.94 12.15 40.07 17.24 56.03l-.29.1c-2.94-6.76-10.38-9.7-10.58-9.8-13.62-6.27-17.93-22.24-23.41-27.04l.29-.29c6.66 7.25 17.73 3.13 26.65 21.06 0 .1.59-.29.59-.29-7.25-15.58-3.82-29.78-10.78-39.48.1-.1.2-.29.29-.29" class="cls-1"/><path d="M281.17 122.94h-.49c.1-1.86.59-9.4-6.96-16.46-15.28-14.2-12.74-26.74-19-36.54l.49-.29c4.9 8.33 22.73 17.44 23.41 30.17l.69-.1c-2.64-18.32 7.05-30.47 1.76-42.12.2-.1.39-.2.49-.29 20.47 42.22 3.53 41.63-.39 65.63" class="cls-1"/><path d="m273.34 162.91-.49-.2c4.21-9.5-2.84-22.43-3.13-23.12-9.31-18.03-6.17-34.38-8.33-40.07l.49-.1c5 12.34 18.71 19.1 16.56 39.87h.69c2.16-12.93 16.85-25.27 16.36-39.38h.29c9.01 50.06-17.05 49.76-22.43 62.99Z" class="cls-1"/><path d="m252.47 199.94-.39-.29c8.72-10.58 6.07-22.04 5.88-22.83-4.31-24.98 3.72-29.49 3.92-40.75h.39c.39 12.64 13.32 26.84 1.57 44.47l.59.39c12.93-18.91 23.22-14.3 29.29-33.01.2 0 .39.1.49.2-9.01 54.96-33.41 38.3-41.73 51.82Z" class="cls-1"/><path d="m202.02 223.94.1-.49c17.05 3.43 25.76.1 28.8-15.58 4.31-22.04 19.3-30.47 21.06-39.28.29 0 .39 0 .39.1-3.23 15.58 4.31 24.78-14.4 43.4l.49.39c18.03-14.3 30.47-9.01 37.62-19 .1.1.29.2.29.29-22.24 37.23-46.24 39.18-74.35 30.17" class="cls-1"/><path d="m244.14 230.31-.1-.2c-22.92 13.42-46.92-5.29-75.92-5.98-7.25-.2-29.09 1.18-49.08 24.39l5.29 1.47c6.56-11.46 16.75-19.79 26.06-22.04 26.45-6.56 26.94 18.03 56.23 18.42 21.75.29 36.64-15.18 37.52-16.07ZM29.8 64.36c-.1.1-.1.2-.1.2s0-.1.1-.2" class="cls-1"/><path d="M29.8 64.36c-.1.1-.1.2-.1.2s0-.1.1-.2m237.95 0c.1.1.1.2.1.2s0-.1-.1-.2M145.2 46.14v35.85h-4.02v-2.06h-26.06v2.06h-3.82V46.14h33.89Zm-4.02 30.37V49.67h-26.06v26.84zm-1.96-6.27v3.13h-21.85v-3.13h8.91v-6.07h-7.25v-3.23h7.25v-5h-8.33v-3.33h20.47v3.33h-8.62v5h7.64v3.23h-7.64v6.07h5.68c-.78-1.27-2.25-3.13-3.62-4.51l2.45-1.27c1.37 1.27 3.04 3.13 3.82 4.31l-2.55 1.47h3.62Zm32.63-4.7c-1.18 4.7-3.23 9.6-5.39 12.74-.69-.59-2.25-1.57-3.04-2.06 2.16-2.84 3.92-7.25 5-11.56zm-4.02-18.22h17.73v3.53h-17.73zm15.77 17.24c1.86 4.02 3.82 9.21 4.41 12.44l-3.43 1.27c-.59-3.23-2.35-8.62-4.21-12.74l3.23-.98Zm-37.32 30.56v3.53h-8.72v3.23h-3.92v-3.23h-10.67v3.23h-3.92v-3.23h-8.62v-3.53h8.62v-3.43h3.92v3.43h10.67v-3.43h3.92v3.43zm-35.17 8.43h34.19v6.95h-3.82v-3.62h-26.65v4.01h-3.72zm13.32 56.23c-.1.98-.1 2.35 0 3.13-10.87 2.16-12.44 2.55-13.32 3.13-.2-.69-.69-2.35-1.08-3.23.88-.2 1.96-1.18 3.23-2.64.78-.78 2.35-2.64 4.02-5.09-4.8.59-5.78.88-6.47 1.18-.2-.69-.78-2.45-1.18-3.43.78-.2 1.47-1.08 2.45-2.45.98-1.27 4.02-6.56 5.68-11.36l3.43 1.57c-1.86 4.11-4.31 8.33-6.76 11.76l5.09-.49c.88-1.37 1.76-2.84 2.55-4.31l2.94 1.86c-2.55 4.21-5.58 8.42-8.72 11.85l8.13-1.47Zm-.1 10.78c-4.8 1.27-9.89 2.64-13.71 3.62l-.69-3.62c3.53-.78 8.82-1.96 14.01-3.23zm22.73 1.76v3.43h-23.41v-3.43h3.92v-31.35h16.16v31.35zm-15.97-27.92v6.86h8.82v-6.86zm0 17.34h8.82v-7.05h-8.82zm0 10.58h8.82v-7.25h-8.82zm34.1-12.45c-.1.98-.1 2.55 0 3.33-10.87 2.06-12.34 2.55-13.42 3.13-.1-.78-.69-2.45-1.18-3.33.98-.2 1.96-1.18 3.23-2.64.78-.78 2.25-2.55 3.82-4.9-4.51.59-5.58.78-6.17 1.08-.2-.78-.78-2.64-1.27-3.62.78-.2 1.47-1.08 2.45-2.55.98-1.27 3.92-6.56 5.49-11.46l3.62 1.67c-1.76 4.11-4.21 8.52-6.66 11.95l4.7-.49c.88-1.37 1.76-2.94 2.55-4.41l3.13 1.86c-2.45 4.11-5.39 8.33-8.33 11.66l8.03-1.27Zm.1 11.17c-5 1.27-10.09 2.55-14.11 3.53l-.69-3.82c3.53-.69 9.11-1.86 14.4-3.13l.39 3.43Zm8.13-6.27c-1.47 4.51-3.82 8.91-6.47 11.76-.78-.59-2.45-1.76-3.43-2.25 2.64-2.45 4.7-6.37 5.88-10.38l4.02.88Zm12.05-4.51h-18.81v-18.61h18.81zm-3.92-14.99h-11.07v11.36h11.07zm.59 18.51c2.25 3.53 4.6 8.03 5.58 11.07l-3.82 1.47c-.88-2.94-3.13-7.64-5.29-11.17zM429.59 24.29l-4.31-2.25-.88.29h-15.77v56.62l5.78-2.55V27.72h7.84c-1.27 4.31-2.94 9.6-4.6 13.91 4.31 4.8 5.39 9.11 5.39 12.44 0 1.96-.29 3.53-1.27 4.21-.49.39-1.27.49-1.96.49-.98.1-2.06.1-3.53-.1.98 1.47 1.47 3.82 1.57 5.19 1.57.1 3.23.1 4.51-.1 1.47-.2 2.64-.59 3.72-1.27 1.96-1.47 2.84-4.21 2.84-7.93 0-3.92-1.08-8.42-5.49-13.71 1.86-4.9 4.21-11.27 6.17-16.56Zm30.27 121.48h-23.12v-35.46h22.53l-2.84-6.18h-48.3v6.18h21.85v35.46H404.7v5.97h57.9zM165.48 47.41l-2.74-1.47-.59.2h-9.99v35.95l3.62-1.57V49.56h5c-.78 2.74-1.86 6.07-2.94 8.82 2.74 3.04 3.43 5.78 3.43 7.93 0 1.27-.2 2.25-.78 2.64-.29.29-.78.29-1.27.29-.59.1-1.27 0-2.25 0 .59.98.98 2.45.98 3.33.98 0 2.06 0 2.84-.1a6.1 6.1 0 0 0 2.35-.78c1.27-.88 1.76-2.64 1.76-5.09s-.69-5.39-3.53-8.72c1.37-3.13 2.84-7.15 4.11-10.48Z" class="cls-1"/><path d="M165.97 56.92v3.53h8.33V77.3c0 .49-.2.69-.69.69h-4.31l1.67 3.92c2.55 0 4.31-.1 5.58-.78 1.27-.59 1.67-1.76 1.67-3.82V60.56h9.5v-3.53h-21.75v-.1Zm264.4-17.54v5.58h13.22v26.65c0 .88-.29 1.08-1.08 1.08-.78.1-3.72.1-6.66 0l2.16 6.17c4.21 0 7.15-.2 9.11-1.18 2.06-.98 2.64-2.84 2.64-5.98V44.96h14.99v-5.58zm-302.21 73.08c.2-1.37.29-2.84.39-4.51h-4.02c-.1 1.67-.2 3.13-.39 4.51h-10.58v3.53h9.89c-1.47 4.9-4.7 8.03-13.52 9.8l2.16 3.33c10.29-2.35 14.01-6.66 15.48-13.13h11.17c-.39 5.68-.88 8.03-1.57 8.82-.49.39-.88.39-1.76.39-.98 0-3.53 0-6.07-.2l1.76 3.72c2.35.1 4.7.1 5.98 0 1.57-.1 2.55-.39 3.53-1.37 1.18-1.27 1.76-4.8 2.16-13.32.1-.49.1-1.57.1-1.57h-14.69Zm57.79 10.09h-14.59v-22.53h14.2l-1.76-3.92h-30.66v3.92h13.91v22.53h-16.07v3.72h36.74zM371.79 130c.29-2.16.49-4.51.69-7.05h-6.37c-.1 2.55-.29 4.9-.59 7.05h-16.65v5.58h15.58c-2.25 7.74-7.54 12.64-21.45 15.48l3.53 5.29c16.16-3.72 21.94-10.48 24.39-20.67h17.63c-.69 8.91-1.37 12.74-2.55 13.81-.69.59-1.47.69-2.74.69-1.47 0-5.49 0-9.4-.39l2.06 5.88c3.92.2 7.84.2 9.89 0 2.45-.2 4.02-.69 5.49-2.16 1.86-2.06 2.74-7.64 3.43-20.96.1-.88.2-2.55.2-2.55h-23.12Z" class="cls-1"/></g></svg>