<svg xmlns="http://www.w3.org/2000/svg" xml:space="preserve" id="Lockup" x="0" y="0" version="1.1" viewBox="0 0 729.8 250"><style>.st0{fill:#1e2dbe}</style><path d="M69.5 66.1c-1.2 2.1-1.7 3.1-1.7 3.1-1 1.9-3.2 2.8-5.3 2l-3.6-1.4c-2-.7-4.1.2-4.9 2.2l-2.7 7.1c-.7 2 .3 4.1 2.2 4.9l3.6 1.4c2 .8 3.1 3 2.6 5.1l-1.6 7.8c-.4 2.1-2.2 3.7-4.4 3.6l-3.8-.2c-2.1-.1-3.8 1.6-3.9 3.7l-.3 7.6c-.1 2.1 1.6 3.8 3.7 3.9l3.8.1c2.2.1 3.9 1.8 4.2 3.9l1 7.8c.4 2.1-.9 4.2-2.9 4.9l-3.7 1.1c-2 .6-3.1 2.7-2.5 4.8l3.3 10.9 20.6-6.4c-17.4-42.5 3-91.1 45.6-108.5 6.5-2.7 13.3-4.5 20.2-5.4l-4.8-21-11.1 2.6c-2 .5-3.3 2.5-2.9 4.6l.9 3.8c.4 2.1-.7 4.2-2.7 5l-7.3 3c-2 .9-4.3.2-5.5-1.6l-2-3.3c-1.1-1.8-3.5-2.3-5.2-1.2l-6.5 4c-1.8 1.1-2.3 3.5-1.2 5.2l2 3.2c1.1 1.9.7 4.2-1 5.6l-6 5.2c-1.6 1.5-4 1.5-5.7.2l-3-2.1c-1.6-1.3-4-1.1-5.4.5l-4.8 5.9c-1.3 1.6-1.1 4 .5 5.4l2.9 2.4c1.6 1.4 2 3.8.9 5.6.1 0-.4.9-1.6 3m79.3 137.5c2.5 0 3.5-.1 3.5-.1 2.1-.1 4 1.4 4.4 3.5l.6 3.8c.3 2.1 2.3 3.5 4.4 3.2l7.5-1.2c2.1-.3 3.5-2.3 3.2-4.4l-.6-3.8c-.3-2.1 1-4.2 3.1-4.8l7.5-2.5c2-.7 4.3.1 5.3 2l1.8 3.4c1 1.9 3.3 2.5 5.2 1.6l6.7-3.6c1.9-1 2.6-3.3 1.6-5.1l-1.8-3.4c-1-1.9-.4-4.3 1.3-5.6l6.3-4.8c1.7-1.3 4.1-1.3 5.7.1l2.8 2.6c1.5 1.4 3.9 1.3 5.4-.2l7.8-8.4-15.8-14.6c-28.1 36.4-80.4 43-116.7 14.9-5.6-4.3-10.6-9.3-14.9-14.9l-15.8 14.6 7.8 8.4c1.4 1.5 3.9 1.6 5.4.2l2.8-2.6c1.6-1.4 4-1.5 5.7-.1l6.3 4.8c1.7 1.3 2.3 3.6 1.3 5.6l-1.8 3.4c-1 1.9-.3 4.2 1.6 5.2l6.7 3.6c1.9 1 4.2.3 5.1-1.6l1.8-3.4c1.1-1.9 3.3-2.7 5.4-2l7.5 2.5c2.1.7 3.3 2.7 3 4.8l-.6 3.8c-.3 2.1 1.1 4 3.2 4.4l7.5 1.2c2.1.3 4-1.1 4.4-3.2l.6-3.8c.4-2.1 2.3-3.6 4.4-3.5zm79.4-137.4c-1.2-2.1-1.8-3-1.8-3-1.1-1.8-.8-4.2.9-5.6l2.9-2.4c1.6-1.3 1.9-3.7.5-5.4l-4.8-5.9c-1.3-1.6-3.7-1.9-5.4-.5l-2.9 2.4c-1.7 1.3-4.1 1.2-5.7-.2l-6-5.2c-1.7-1.4-2.1-3.8-1-5.6l2-3.3c1.1-1.8.6-4.1-1.2-5.2l-6.5-4c-1.8-1.1-4.1-.6-5.3 1.2l-2 3.3c-1.2 1.8-3.5 2.5-5.5 1.6l-7.3-3c-2-.8-3.2-2.9-2.7-5l.9-3.8c.5-2.1-.8-4.1-2.9-4.6l-11.1-2.6-4.8 21C204 36.6 236 78.5 229.8 124c-.9 7-2.8 13.8-5.5 20.4l20.6 6.4 3.3-10.9c.6-2-.5-4.1-2.5-4.8L242 134c-2-.7-3.3-2.8-2.9-4.9l1-7.8c.3-2.1 2-3.8 4.2-3.9l3.8-.1c2.1-.1 3.7-1.8 3.7-3.9l-.2-7.6c-.1-2.1-1.8-3.7-3.9-3.7l-3.8.1c-2.2 0-4-1.5-4.4-3.6l-1.7-7.8c-.5-2.1.7-4.2 2.7-5.1l3.6-1.3c2-.8 2.9-2.9 2.2-4.9l-2.7-7.1c-.8-2-2.9-2.9-4.9-2.2l-3.6 1.4c-2 .7-4.3-.2-5.3-2.1.1-.2-.4-1.2-1.6-3.3M29.7 64.4l-.1.2zm32.8-43.2.3.4c2.3-1.7 5-3 7.7-3.9C91.2 11.9 90.2 4.7 99 .4l-.3-.4c-2.2 1.4-4.7 2.1-7.3 2.2-24.3.3-22.5 14.4-28.9 19" class="st0"/><path d="m38.3 48.2.5.3c4.9-5.5 9.7-6.5 10.5-6.7 19.3-5.7 26-18.5 31.2-22.1l-.2-.3c-7.1 5.1-15.7-.1-30.1 15.4-.1.1-.5-.5-.5-.5 11.7-14.1 12-23.7 17.4-29l-.2-.3C32.7 25.4 47.7 36.5 38.3 48.2" class="st0"/><path d="M39.7 24.6c-32.2 31.9-12.2 40-17.2 56l.3.1c2.9-6.7 10.4-9.7 10.6-9.8 13.7-6.3 18-22.2 23.4-27l-.3-.3c-6.7 7.2-17.6 3.2-26.6 21.1 0 .1-.6-.3-.6-.3 7.2-15.6 3.8-29.7 10.8-39.4-.1-.2-.2-.3-.4-.4" class="st0"/><path d="M16.3 122.9h.5c-.1-1.8-.6-9.4 7-16.5 15.3-14.1 12.7-26.7 19-36.5l-.5-.3C37.4 78 19.6 87.1 18.9 99.9c-.2 0-.5 0-.7-.1 2.6-18.3-7.1-30.5-1.8-42.1-.1-.1-.3-.2-.5-.3-20.4 42.1-3.4 41.5.4 65.5" class="st0"/><path d="m24.2 162.8.5-.2c-4.2-9.5 2.8-22.5 3.2-23.1 9.3-18 6.2-34.3 8.3-40l-.4-.1c-5 12.4-18.7 19.1-16.6 39.9h-.7C16.3 126.4 1.7 114 2.2 100h-.3c-9.1 49.9 16.9 49.6 22.3 62.8" class="st0"/><path d="m45 199.8.3-.3c-5.3-6.4-7.4-14.7-5.9-22.8 4.3-24.9-3.8-29.4-3.9-40.7h-.4c-.4 12.6-13.3 26.8-1.6 44.5l-.6.4c-13-18.9-23.2-14.3-29.3-33-.2 0-.4.1-.5.1 9.2 55 33.7 38.3 41.9 51.8" class="st0"/><path d="m95.5 223.8-.1-.5c-17 3.4-25.7.1-28.8-15.5-4.3-22-19.3-30.5-21-39.3-.1 0-.3 0-.4.1 3.2 15.5-4.4 24.8 14.4 43.3l-.5.4c-18-14.3-30.3-9-37.6-19l-.3.3c22.2 37.3 46.1 39.3 74.3 30.2" class="st0"/><path d="m53.4 230.2.1-.2c22.9 13.4 46.9-5.3 75.9-5.9 7.3-.2 29 1.1 49 24.4l-5.3 1.5c-6.6-11.5-16.8-19.8-26-22.1-26.4-6.6-26.9 18-56.2 18.4-21.8.3-36.6-15.2-37.5-16.1M267.6 64.4l.1.2zm0 0 .1.2zm-237.9 0-.1.2zm237.9 0 .1.2zm-32.8-43.2-.3.4c-2.3-1.7-5-3-7.7-3.9-20.7-5.8-19.7-13-28.4-17.2l.3-.4c2.2 1.4 4.7 2.1 7.3 2.2 24.2.2 22.4 14.3 28.8 18.9" class="st0"/><path d="m259 48.2-.4.3c-4.9-5.5-9.7-6.5-10.5-6.7-19.3-5.7-26-18.5-31.2-22.1l.2-.3c7.1 5.1 15.6-.1 30.1 15.4.1.1.5-.5.5-.5-11.7-14.1-12-23.7-17.4-29l.3-.3c34 20.4 19 31.5 28.4 43.2" class="st0"/><path d="M257.6 24.6c32.2 31.9 12.2 40 17.2 56l-.3.1c-2.9-6.7-10.4-9.7-10.6-9.8-13.6-6.3-17.9-22.2-23.4-27l.3-.3c6.7 7.2 17.6 3.2 26.6 21.1 0 .1.6-.3.6-.3-7.2-15.6-3.8-29.7-10.8-39.4.1-.2.2-.3.4-.4" class="st0"/><path d="M281 122.9h-.5c.1-1.8.6-9.4-7-16.5-15.3-14.1-12.7-26.7-19-36.5l.5-.3c4.9 8.3 22.7 17.4 23.4 30.1.2 0 .5 0 .7-.1-2.6-18.3 7.1-30.5 1.8-42.1.1-.1.3-.2.5-.3 20.4 42.3 3.5 41.7-.4 65.7" class="st0"/><path d="m273.1 162.8-.5-.2c4.2-9.5-2.8-22.5-3.2-23.1-9.3-18-6.2-34.3-8.3-40l.4-.1c5 12.4 18.7 19.1 16.6 39.9h.7c2.2-12.9 16.8-25.3 16.3-39.3h.2c9.2 49.9-16.8 49.6-22.2 62.8" class="st0"/><path d="m252.3 199.8-.3-.3c5.3-6.4 7.4-14.7 5.9-22.8-4.3-24.9 3.7-29.4 3.9-40.7h.4c.4 12.6 13.3 26.8 1.6 44.5l.6.4c12.9-18.9 23.2-14.3 29.2-33 .2 0 .4.1.5.1-9.1 55-33.5 38.3-41.8 51.8" class="st0"/><path d="m201.8 223.8.1-.5c17 3.4 25.7.1 28.8-15.5 4.3-22 19.3-30.5 21-39.3.1 0 .3 0 .4.1-3.2 15.5 4.4 24.8-14.4 43.3l.5.4c18-14.3 30.4-9 37.6-19l.3.3c-22.2 37.3-46.1 39.3-74.3 30.2" class="st0"/><path d="m243.9 230.2-.2-.2c-22.9 13.4-46.9-5.3-75.9-5.9-7.3-.2-29 1.1-49 24.4l5.3 1.5c6.6-11.5 16.8-19.8 26-22.1 26.4-6.6 26.9 18 56.2 18.4 21.9.3 36.8-15.2 37.6-16.1M29.7 64.4l-.1.2zm0 0-.1.2zm237.9 0 .1.2zm-83.3.7h-.4c-10.7 0-21 6.9-26.1 18.4-2.6 5.9-3.2 13.5-3.2 20.8s.6 14.9 3.2 20.7c5.1 11.5 15.4 19.3 26.1 19.3h.4c10.7 0 21-7.8 26.1-19.3 2.6-5.9 3.2-13.4 3.2-20.7s-.6-14.9-3.2-20.8C205.3 72 195 65.1 184.3 65.1m16.5 39.6c0 6.9-.2 12.8-.2 12.8-.4 5.6-.5 11.3-3.1 15.1-2.8 4.1-7.4 6.6-12.4 6.6l-.2.1h-.6l-.2-.1c-5 0-9.6-2.5-12.4-6.6-2.6-3.8-2.7-9.5-3.1-15.1 0 0-.2-5.9-.2-12.7v-.3c0-6.9.2-12.8.2-12.8.4-5.6.5-11.3 3.1-15.1 2.8-4.1 7.4-6.6 12.4-6.6l.2-.1h.6l.2.1c5 0 9.6 2.5 12.4 6.6 2.6 3.8 2.7 9.5 3.1 15.1 0 0 .2 5.9.2 12.7z" class="st0"/><path d="M192.3 147.6s-2.1 5.5-6 8.8c-2.1 1.8-5.3 2.3-7.8 2.6l-26.4 1.3h-5.8s-4.4-.3-4.6-4.4V63.6c.2-4.1 4.6-4.3 4.6-4.3h5.8v-5.4h-35.2v5.4h5.9s4.4.2 4.7 4.3V156c-.2 4.1-4.7 4.4-4.7 4.4h-5.9v5.4h35.2l38.2.1 4.7-17v-.6z" class="st0"/><path d="M109.5 75.2c.2-3.4 3.9-3.6 3.9-3.6h4.9v-4.5H89v4.5h4.9s3.7.2 3.9 3.6v59c-.2 3.4-3.9 3.6-3.9 3.6H89v4.5h29.4v-4.5h-4.9s-3.7-.2-3.9-3.6v-59zm256.6-1.4-12.4-37.1h-.3c.1.8.2 2 .2 3.6.1 1.5.1 3.2.2 5s.1 3.5.1 5v23.4h-7.3V28.6H358l11.9 35.5h.3l12.4-35.5h11.3v45.2h-7.7V49.9c0-1.4 0-3 .1-4.7s.1-3.3.2-4.9.1-2.7.2-3.6h-.3l-12.9 37zm41.4-47.6c1.1 0 2.2.3 3.1.9 1 .8 1.5 2 1.3 3.3.1 1.3-.4 2.5-1.3 3.3-.9.7-2 1-3.1 1s-2.2-.3-3.1-1c-1-.8-1.4-2-1.3-3.3-.1-1.2.3-2.5 1.3-3.3.9-.6 2-.9 3.1-.9m4 13.3v34.3h-8V39.5zm54.9 0L453.2 56l14.4 17.8H459l-13.7-17.4v17.4h-7.5V56.4l-13.7 17.4h-8.7L429.8 56l-13.2-16.5h8.4l12.8 16.6V39.5h7.5v16.6l12.9-16.6zm13.1 0v13.6h15.1V39.5h8v34.3h-8V59.2h-15.1v14.6h-8V39.5zm45.8-.7c4.4 0 7.8 1 10.1 2.9 2.3 2 3.5 5 3.5 9v23h-5.6l-1.6-4.7h-.3c-1.3 1.7-2.9 3.1-4.7 4.1-2.1 1-4.4 1.4-6.7 1.3-2.8.1-5.5-.8-7.7-2.6-2-1.7-3-4.4-3-8s1.3-6.2 3.9-8 6.5-2.8 11.8-2.9l6-.2V51c0-2.2-.5-3.8-1.6-4.7-1.3-1-2.8-1.5-4.4-1.4-1.7 0-3.4.2-5 .7s-3.2 1.1-4.7 1.8l-2.5-5.6c1.8-.9 3.8-1.7 5.8-2.2 2.1-.5 4.4-.8 6.7-.8m5.7 18.8-4.2.1c-3.5.1-5.9.7-7.3 1.8-1.3 1-2.1 2.6-2 4.3-.1 1.3.4 2.6 1.4 3.5 1.1.7 2.4 1.1 3.8 1 2.1.1 4.2-.6 5.9-2 1.7-1.5 2.6-3.6 2.4-5.9zm34.7-18.8c3.8-.1 7.3 1.5 9.7 4.5s3.7 7.4 3.7 13.3-1.2 10.3-3.8 13.3c-2.4 3-6 4.6-9.8 4.5-2.1.1-4.3-.4-6.1-1.4-1.4-.8-2.7-1.9-3.7-3.2h-.5c.1.8.2 1.7.4 2.6.1.9.2 1.8.2 2.7V89h-8V39.5h6.5l1.1 4.6h.4c1-1.5 2.3-2.7 3.8-3.7 1.7-1.1 3.9-1.7 6.1-1.6m-2.3 6.5c-2.8 0-4.8.9-6 2.5s-1.8 4.2-1.8 7.7v1c0 3.7.6 6.5 1.7 8.4 1.1 2 3.2 2.9 6.2 2.9 2.3.1 4.4-1.1 5.6-3.1q1.8-3 1.8-8.4c0-3.5-.6-6.3-1.8-8.2-1.3-1.9-3.4-3-5.7-2.8m53.2 11.3c0 5.7-1.5 10.1-4.4 13.2-3 3.1-7 4.7-12 4.6-2.9 0-5.8-.7-8.4-2.1-2.5-1.4-4.5-3.5-5.8-6.1-1.5-3-2.2-6.3-2.1-9.7 0-5.7 1.5-10.1 4.4-13.1 2.9-3.1 6.9-4.6 12-4.6 2.9-.1 5.8.7 8.4 2.1 2.5 1.4 4.5 3.5 5.8 6 1.5 3 2.3 6.3 2.1 9.7m-24.4 0c0 3.6.7 6.4 2 8.4s3.4 2.9 6.2 2.9c2.9 0 4.9-1 6.2-2.9 1.3-2 2-4.8 2-8.4s-.7-6.4-2-8.4c-1.3-1.9-3.4-2.9-6.3-2.9s-4.9 1-6.2 2.9c-1.3 2-2 4.7-1.9 8.4m60.3-17.1v28.3h5V86h-7.4V73.8h-23.4V86h-7.3V67.7h2.8c2.6-4 4.6-8.4 5.7-13 1.3-5 2.1-10.1 2.5-15.3zm-7.9 6h-7.3c-.4 4-1.2 7.9-2.3 11.8-1 3.6-2.4 7.1-4.4 10.4h13.9zm25.8-6v13.6h15.1V39.5h8v34.3h-8V59.2h-15.1v14.6h-8V39.5zm45.8-.7c4.4 0 7.8 1 10.1 2.9s3.4 4.9 3.4 9v23h-5.6l-1.6-4.7h-.3c-1.3 1.7-2.9 3.1-4.7 4.1-2.1 1-4.4 1.4-6.7 1.3-2.8.1-5.5-.8-7.7-2.6-2-1.7-3-4.4-3-8s1.3-6.2 3.9-8 6.5-2.8 11.8-2.9l6-.2V51c0-2.2-.5-3.8-1.6-4.7-1.3-1-2.8-1.5-4.4-1.4-1.7 0-3.4.2-5 .7s-3.2 1.1-4.7 1.8l-2.5-5.6c1.8-.9 3.8-1.7 5.8-2.2 2.2-.5 4.5-.8 6.8-.8m5.6 18.8-4.2.1c-3.5.1-5.9.7-7.3 1.8-1.3 1-2.1 2.6-2 4.3-.1 1.3.4 2.6 1.4 3.5 1.1.7 2.4 1.1 3.8 1 2.1.1 4.2-.6 5.9-2 1.7-1.5 2.5-3.7 2.4-5.9zm-345.2 63.6c0 5.7-1.5 10.1-4.4 13.2-3 3.1-7 4.7-12 4.6-2.9 0-5.8-.7-8.4-2.1-2.5-1.4-4.5-3.5-5.8-6.1-1.5-3-2.2-6.3-2.1-9.7 0-5.7 1.5-10.1 4.4-13.1 2.9-3.1 6.9-4.6 12-4.6 2.9-.1 5.8.7 8.4 2.1 2.5 1.4 4.5 3.5 5.8 6 1.5 3 2.2 6.3 2.1 9.7m-24.5 0c0 3.6.7 6.4 2 8.4s3.4 2.9 6.2 2.9c2.9 0 4.9-1 6.2-2.9s2-4.8 2-8.4-.7-6.4-2-8.4c-1.3-1.9-3.4-2.9-6.3-2.9s-4.9 1-6.2 2.9c-1.2 2-1.9 4.7-1.9 8.4m49.5-17.8c3.8-.1 7.3 1.5 9.7 4.5s3.7 7.4 3.7 13.3-1.2 10.3-3.8 13.3c-2.4 3-6 4.6-9.8 4.5-2.1.1-4.3-.4-6.1-1.4-1.4-.8-2.7-1.9-3.7-3.2h-.6c.1.8.2 1.7.3 2.6s.2 1.8.2 2.7v13.9h-8v-49.5h6.5l1.1 4.6h.4c1-1.5 2.3-2.7 3.8-3.7 2-1.2 4.1-1.7 6.3-1.6m-2.3 6.5c-2.8 0-4.8.9-6 2.5s-1.8 4.2-1.8 7.7v1c0 3.7.6 6.5 1.7 8.4 1.1 2 3.2 2.9 6.2 2.9 2.3.1 4.4-1.1 5.5-3.1 1.3-2.6 2-5.5 1.8-8.4 0-3.5-.6-6.3-1.8-8.2-1.1-1.9-3.3-3-5.6-2.8m45.3-5.8v6.1h-14.7v28.2h-8v-34.3zm19-.7c4.4 0 7.8 1 10.1 2.9 2.3 2 3.5 5 3.4 9v23.1h-5.6l-1.6-4.8h-.3c-1.3 1.7-2.9 3.1-4.7 4.1-2.1 1-4.4 1.4-6.7 1.3-2.8.1-5.5-.8-7.7-2.6-2-1.7-3-4.4-3-8s1.3-6.2 3.9-8 6.5-2.8 11.8-2.9l6-.2v-1.7c0-2.2-.5-3.8-1.6-4.7-1.3-1-2.8-1.5-4.4-1.4-1.7 0-3.4.2-5 .7s-3.2 1.1-4.7 1.8l-2.5-5.6c1.8-.9 3.8-1.7 5.8-2.2 2.2-.5 4.5-.8 6.8-.8m5.6 18.8-4.2.1c-3.5.1-5.9.7-7.3 1.8-1.3 1-2.1 2.6-2 4.3-.1 1.3.4 2.7 1.4 3.5 1.1.7 2.4 1.1 3.8 1 2.1.1 4.2-.6 5.9-2 1.7-1.5 2.6-3.7 2.4-5.9zm24.6-18.1v13.6H509v-13.6h8v34.3h-8v-14.6h-15.1v14.6h-8v-34.3zm36.1-13.3c1.1 0 2.2.3 3.1.9 1 .8 1.5 2 1.3 3.3.1 1.3-.4 2.5-1.3 3.3-1.9 1.3-4.4 1.3-6.2 0-.9-.8-1.4-2-1.3-3.3-.1-1.2.3-2.5 1.3-3.3.9-.6 2-.9 3.1-.9m4 13.3v34.3h-8v-34.3zm20.2-.7c2.3 0 4.7.3 6.9 1 1.9.6 3.5 1.6 4.9 3 1.2 1.4 1.9 3.2 1.8 5 .1 1.8-.6 3.6-1.8 4.9-1.4 1.3-3.1 2.2-4.9 2.7v.4q2.1.45 3.9 1.5c1.1.6 2.1 1.5 2.8 2.5.8 1.3 1.1 2.7 1 4.2 0 1.9-.6 3.7-1.7 5.2-1.4 1.7-3.2 3.1-5.3 3.8-2.9 1-6 1.5-9.1 1.4-2.4 0-4.9-.2-7.3-.6-1.9-.3-3.7-.8-5.4-1.6V130c1.7.8 3.4 1.4 5.2 1.8 2.2.6 4.4.8 6.6.8 2.2.1 4.4-.3 6.5-1 1.6-.5 2.7-1.9 2.7-3.6 0-3.2-3.3-4.8-9.8-4.8h-4v-5.8h3.6c2.4.1 4.9-.2 7.2-.9 1.5-.4 2.6-1.8 2.6-3.3.1-1.2-.6-2.4-1.8-2.9-1.7-.8-3.6-1.1-5.5-1-1.8 0-3.5.2-5.2.6-1.8.4-3.5.9-5.2 1.6l-2.4-5.7c2-.8 4.1-1.4 6.2-1.8q3.75-.6 7.5-.6m34.7 0c4.4 0 7.8 1 10.1 2.9 2.3 2 3.5 5 3.5 9v23.1h-5.6l-1.6-4.8h-.2c-1.3 1.7-2.9 3.1-4.7 4.1-2.1 1-4.4 1.4-6.7 1.3-2.8.1-5.5-.8-7.7-2.6-2-1.7-3-4.4-3-8s1.3-6.2 3.9-8 6.5-2.8 11.8-2.9l6-.2v-1.8c0-2.2-.5-3.8-1.6-4.7-1.3-1-2.8-1.5-4.4-1.4-1.7 0-3.4.2-5 .7s-3.2 1.1-4.7 1.8l-2.5-5.6c1.8-.9 3.8-1.7 5.8-2.2 2.1-.4 4.4-.7 6.6-.7m5.7 18.8-4.2.1c-3.5.1-5.9.7-7.3 1.8-1.3 1-2.1 2.6-2 4.3-.1 1.3.4 2.7 1.5 3.5 1.1.7 2.4 1.1 3.8 1 2.1.1 4.2-.6 5.9-2 1.7-1.5 2.6-3.7 2.4-5.9zm52.7 28.4h-7.4v-12.2H611v-34.3h8v28.1h15.2v-28.1h8v28.3h4.9zm8.9-59.8c1.1 0 2.2.3 3.1.9 1 .8 1.5 2 1.3 3.3.1 1.2-.4 2.5-1.3 3.3-.9.7-2 1-3.1 1s-2.2-.3-3.1-1c-.9-.8-1.4-2-1.3-3.3-.1-1.2.3-2.5 1.3-3.3.9-.6 2-.9 3.1-.9m4 13.3v34.3h-8v-34.3zm13 34.3h-8.8l9.4-13.9c-1.3-.4-2.4-1.1-3.5-1.9q-1.65-1.35-2.7-3.3c-.7-1.5-1-3.2-1-4.9-.2-3 1.2-5.9 3.6-7.8q3.6-2.7 9.6-2.7h15.8v34.3h-8v-13.1h-6.4zm1.2-23.8c-.1 1.5.6 2.9 1.9 3.7 1.5.9 3.3 1.4 5 1.3h6.3V110H680c-2 0-3.5.4-4.4 1.3-.8.8-1.3 2-1.3 3.3m-298 54.1V203h-8v-28.1h-14.4V203h-8v-34.3zm27-.7c3.8-.1 7.3 1.5 9.7 4.5s3.7 7.4 3.7 13.3-1.3 10.3-3.8 13.3c-2.4 3-6 4.6-9.8 4.5-2.1.1-4.3-.4-6.1-1.4-1.4-.8-2.7-1.9-3.7-3.2h-.5c.1.8.2 1.7.4 2.6.1.9.2 1.8.2 2.7v13.9h-8v-49.5h6.5l1.1 4.6h.4c1-1.5 2.3-2.7 3.8-3.7 1.7-1.1 3.9-1.7 6.1-1.6m-2.3 6.5c-2.8 0-4.8.9-6 2.5-1.2 1.7-1.8 4.2-1.8 7.7v1c0 3.7.6 6.5 1.7 8.4 1.1 2 3.2 2.9 6.2 2.9 2.3.1 4.4-1.1 5.5-3.1q1.8-3 1.8-8.4c0-3.5-.6-6.3-1.8-8.2-1.1-1.9-3.3-3-5.6-2.8m36.3-6.5c4.4 0 7.8 1 10.1 2.9 2.3 2 3.5 5 3.5 9V203h-5.6l-1.6-4.7h-.2c-1.3 1.7-2.9 3.1-4.7 4.1-2.1 1-4.4 1.4-6.7 1.3-2.8.1-5.5-.8-7.7-2.6-2-1.7-3-4.4-3-8s1.3-6.2 3.9-8 6.5-2.8 11.8-2.9l6-.2v-1.8c0-2.2-.5-3.8-1.6-4.7-1.3-1-2.8-1.5-4.4-1.4-1.7 0-3.4.2-5 .7s-3.2 1.1-4.7 1.8l-2.5-5.6c1.8-.9 3.8-1.7 5.8-2.2 2.1-.5 4.4-.8 6.6-.8m5.7 18.8-4.2.1c-3.5.1-5.9.7-7.3 1.8-1.3 1-2.1 2.6-2 4.3-.1 1.3.4 2.6 1.4 3.5 1.1.7 2.4 1.1 3.8 1 2.1.1 4.2-.6 5.9-2 1.7-1.5 2.6-3.7 2.4-5.9zm52.7 28.4h-7.4V203h-28.8v-34.3h8v28.1h15.2v-28.1h8V197h4.9zm8.9-59.8c1.1 0 2.2.3 3.1.9 1 .8 1.5 2 1.3 3.3.1 1.3-.4 2.5-1.3 3.3-1.9 1.3-4.4 1.3-6.2 0-.9-.8-1.4-2-1.3-3.3-.1-1.2.4-2.5 1.3-3.3.9-.6 2-.9 3.1-.9m4 13.3V203h-8v-34.3z" class="st0"/></svg>