<svg
  xmlns="http://www.w3.org/2000/svg"
  xml:space="preserve"
  id="Lockup"
  x="0"
  y="0"
  style="enable-background: new 0 0 723.4 250"
  version="1.1"
  viewBox="0 0 723.4 250"
>
  <style>
    .st0 {
      fill: #fff;
    }
  </style>
  <path
    d="M364.9 74.6c-2.8 0-5.4-.5-7.6-1.4-2.3-.9-4.2-2.2-5.7-3.6-1.5-1.6-2.7-3.3-3.7-5.3-1-2.1-1.8-4.1-2.2-6.3-.4-2.2-.7-4.4-.7-6.8s.2-4.6.7-6.8c.4-2.2 1.2-4.3 2.2-6.3 1-2.1 2.3-3.8 3.7-5.3 1.5-1.6 3.3-2.7 5.7-3.6 2.4-.9 4.8-1.4 7.6-1.4 3.5 0 6.6.7 9.2 2.1 2.6 1.4 4.7 3.2 6.2 5.5 1.5 2.4 2.6 4.8 3.3 7.4.7 2.6 1.1 5.5 1.1 8.4 0 2.9-.4 5.8-1.1 8.4s-1.9 5.2-3.3 7.4c-1.5 2.4-3.5 4.1-6.2 5.5-2.6 1.4-5.6 2.1-9.2 2.1zm0-7.4c2.1 0 3.9-.5 5.5-1.5s2.8-2.3 3.7-3.9c.9-1.6 1.6-3.3 2-5.1.4-1.8.7-3.6.7-5.5 0-2-.2-3.8-.7-5.7-.4-1.8-1.1-3.5-2-5.1-.9-1.6-2.2-2.8-3.7-3.8s-3.4-1.5-5.5-1.5c-2.7 0-5.1.9-7 2.6-1.9 1.8-3.1 3.7-3.8 6.1-.7 2.3-1.1 4.7-1.1 7.3 0 2 .2 3.8.7 5.6.4 1.8 1.1 3.5 2 5.1.9 1.6 2.2 2.8 3.7 3.8 1.6 1.1 3.5 1.6 5.5 1.6zM391.3 73.8v-33h7.5v3.4c1.4-2.8 3.6-4.2 6.8-4.2 2.4 0 4.4.8 6.2 2.3l-1.1 7c-1.7-1.2-3.5-1.8-5.6-1.8-1.8 0-3.2.6-4.4 1.8-1.2 1.2-1.8 3.2-1.8 6.1v18.5h-7.6zM426.8 86.8l-4-6.1c4.5-.3 7.6-1 9.4-2.1 1.8-1.1 2.6-2.7 2.6-5.1v-1.9c-1.8 2-4.3 2.9-7.5 2.9-4 0-7.3-1.5-9.9-4.5s-3.8-7.2-3.8-12.8c0-5.4 1.3-9.6 3.8-12.6s5.9-4.6 9.9-4.6c3.1 0 5.6.9 7.4 2.7v-2h7.5v29.7c0 5.5-1.2 9.4-3.5 11.8-2.2 2.7-6.2 4.1-11.9 4.6zm1.8-19.4c2.7 0 4.8-1.1 6.2-3.2V50.4c-1.5-2.2-3.6-3.2-6.2-3.2-2.4 0-4.2.9-5.5 2.5-1.3 1.8-1.9 4.2-1.9 7.5 0 3.1.7 5.6 2 7.3 1.3 1.9 3.1 2.9 5.4 2.9zM468.3 73.8v-2.6c-2.2 2.3-5.1 3.4-8.8 3.4-3.5 0-6.4-1-8.6-2.8-2.3-2-3.3-4.6-3.3-8.1 0-3.6 1.3-6.3 3.8-8.1 2.5-1.9 5.6-2.7 9.1-2.7 3.1 0 5.8.6 7.8 1.8v-1.8c0-2.2-.5-3.6-1.6-4.6s-2.6-1.5-4.9-1.5c-3.6 0-6.9 1.1-9.8 3.1l-2.4-6.2c3.6-2.4 7.9-3.6 12.9-3.6 1.8 0 3.2.1 4.6.4 1.3.3 2.6.8 4.1 1.7 1.4.8 2.4 2.2 3.2 3.9.8 1.8 1.2 3.9 1.2 6.6v21.2c.1-.1-7.3-.1-7.3-.1zm-7.4-5.8c2.8 0 5.4-1.1 7.3-3.1v-4.3c-1.9-.9-4.1-1.4-6.6-1.4-2.1 0-3.6.4-4.9 1.1-1.3.7-1.9 1.9-1.9 3.3s.5 2.4 1.6 3.1c1.2.8 2.6 1.3 4.5 1.3zM502.7 73.8v-19c0-5.1-2.1-7.7-6.2-7.7-4.5 0-6.8 2.5-6.8 7.5v19.1h-7.5V40.8h7.5V44c2.2-2.5 5.1-3.9 8.7-3.9 3.4 0 6.3 1.1 8.4 3.2 2.2 2.2 3.2 5.6 3.2 10.3v20.3h-7.3zM524 35c-.9.9-2 1.4-3.1 1.4-1.3 0-2.4-.5-3.2-1.4-.9-.9-1.4-2-1.4-3.2 0-1.3.5-2.4 1.4-3.1.9-.9 2-1.3 3.2-1.3s2.4.4 3.1 1.3c.9.9 1.3 2 1.3 3.1 0 1.2-.4 2.3-1.3 3.2zm-7 38.8v-33h7.5v33H517zM542 74.6c-2.6 0-5.2-.5-7.5-1.6s-4.1-2.4-5.3-4.1l5.2-4.4c2.4 2.4 4.9 3.5 7.7 3.5 3.6 0 5.4-1.1 5.4-3.2 0-.7-.3-1.4-1-2-.6-.6-1.3-1.1-2-1.4s-1.9-.8-3.4-1.5c-3.8-1.3-6.6-2.6-8.3-4.3-1.8-1.6-2.6-3.7-2.6-6.5s1.1-5.1 3.3-6.8c2.3-1.6 5-2.4 8.4-2.4 5 0 8.9 1.7 11.8 5.1l-5.2 4.3c-2-1.9-4.1-2.7-6.6-2.7-2.9 0-4.5.9-4.5 2.7 0 .9.6 1.7 1.7 2.4s2.7 1.3 4.8 2c3.6 1.2 6.3 2.6 8.1 4.3 1.9 1.7 2.7 3.9 2.7 6.9 0 3.1-1.2 5.6-3.4 7.2-2.4 1.6-5.4 2.5-9.3 2.5zM579.3 73.8v-2.6c-2.2 2.3-5.1 3.4-8.8 3.4-3.5 0-6.4-1-8.6-2.8-2.3-2-3.3-4.6-3.3-8.1 0-3.6 1.3-6.3 3.8-8.1 2.5-1.9 5.6-2.7 9.1-2.7 3.1 0 5.8.6 7.8 1.8v-1.8c0-2.2-.5-3.6-1.6-4.6s-2.6-1.5-4.9-1.5c-3.6 0-6.9 1.1-9.8 3.1l-2.4-6.2c3.6-2.4 7.9-3.6 12.9-3.6 1.8 0 3.2.1 4.6.4 1.3.3 2.6.8 4.1 1.7 1.4.8 2.4 2.2 3.2 3.9.8 1.8 1.2 3.9 1.2 6.6v21.2c.1-.1-7.3-.1-7.3-.1zm-7.4-5.8c2.8 0 5.4-1.1 7.3-3.1v-4.3c-1.9-.9-4.1-1.4-6.6-1.4-2.1 0-3.6.4-4.9 1.1-1.3.7-1.9 1.9-1.9 3.3s.5 2.4 1.6 3.1c1.1.8 2.6 1.3 4.5 1.3zM602.9 74.6c-5.1 0-7.7-2.8-7.7-8.4V47.4h-4.9v-6.6h4.9V30.7l7.5-3.6v13.6h7.6v6.6h-7.6v17.3c0 2.2.9 3.1 2.7 3.1 1.7 0 3.4-.5 5.2-1.5l-.9 6.8c-1.8 1.1-4.1 1.6-6.8 1.6zM622.2 35c-.9.9-2 1.4-3.1 1.4-1.3 0-2.4-.5-3.2-1.4-.9-.9-1.4-2-1.4-3.2 0-1.3.5-2.4 1.4-3.1.9-.9 2-1.3 3.2-1.3s2.4.4 3.1 1.3c.9.9 1.3 2 1.3 3.1.1 1.2-.4 2.3-1.3 3.2zm-7 38.8v-33h7.5v33h-7.5zM643.3 74.6c-4.7 0-8.3-1.6-11.1-4.6s-4.1-7.2-4.1-12.6 1.4-9.6 4.1-12.7c2.7-3 6.4-4.6 11.1-4.6 4.7 0 8.3 1.6 11.1 4.6 2.7 3 4.1 7.3 4.1 12.7s-1.4 9.6-4.1 12.6c-2.6 3.1-6.4 4.6-11.1 4.6zm0-7.2c2.4 0 4.2-.9 5.6-2.6 1.4-1.8 2.1-4.2 2.1-7.3 0-3.1-.7-5.6-2.1-7.4-1.4-1.9-3.2-2.7-5.6-2.7-2.3 0-4.1.9-5.5 2.7-1.4 1.9-2.1 4.3-2.1 7.4 0 3.1.7 5.6 2.1 7.3 1.4 1.7 3.3 2.6 5.5 2.6zM684.5 73.8v-19c0-5.1-2.1-7.7-6.2-7.7-4.5 0-6.8 2.5-6.8 7.5v19.1H664V40.8h7.5V44c2.2-2.5 5.1-3.9 8.7-3.9 3.4 0 6.3 1.1 8.4 3.2 2.2 2.2 3.2 5.6 3.2 10.3v20.3h-7.3zM353.1 99.6c-.9.9-2 1.4-3.1 1.4-1.3 0-2.4-.5-3.2-1.4-.9-.9-1.4-2-1.4-3.2 0-1.3.5-2.4 1.4-3.1.9-.9 2-1.3 3.2-1.3 1.3 0 2.4.4 3.1 1.3.9.9 1.3 2 1.3 3.1.1 1.2-.4 2.3-1.3 3.2zm-7 38.9v-33h7.5v33h-7.5zM380.6 138.5v-19c0-5.1-2.1-7.7-6.2-7.7-4.5 0-6.8 2.5-6.8 7.5v19.1h-7.5v-33h7.5v3.1c2.2-2.5 5.1-3.9 8.7-3.9 3.4 0 6.3 1.1 8.4 3.2 2.2 2.2 3.2 5.6 3.2 10.3v20.3l-7.3.1zM404.5 139.2c-5.1 0-7.7-2.8-7.7-8.4v-18.7h-4.9v-6.6h4.9V95.4l7.5-3.6v13.6h7.6v6.6h-7.6v17.3c0 2.2.9 3.1 2.7 3.1 1.7 0 3.4-.5 5.2-1.5l-.9 6.8c-1.8 1.1-4.1 1.5-6.8 1.5zM430.6 139.2c-4.7 0-8.4-1.6-11.2-4.6-2.7-3-4.1-7.3-4.1-12.7 0-5.4 1.4-9.6 4.1-12.6 2.7-3 6.5-4.6 11.2-4.6 4.2 0 7.6 1.3 10.4 3.9 2.7 2.6 4 6.5 4 11.6 0 1.8-.1 3.3-.3 4.7h-21.9c.1 2.4 1 4.2 2.4 5.6 1.5 1.5 3.2 2.2 5.3 2.2 2.9 0 5.3-1.2 7-3.4l4.8 4.9c-2.8 3.3-6.7 5-11.7 5zm-7.8-20.6h14.6c-.2-2.4-.9-4.2-2.2-5.4-1.3-1.3-2.8-1.9-4.7-1.9-2.2 0-3.9.6-5.3 1.8-1.4 1.2-2.2 2.9-2.4 5.5zM450.1 138.5v-33h7.5v3.4c1.4-2.8 3.6-4.2 6.8-4.2 2.4 0 4.4.8 6.2 2.3l-1.1 7c-1.7-1.2-3.5-1.8-5.6-1.8-1.8 0-3.2.6-4.4 1.8-1.2 1.2-1.8 3.2-1.8 6.1v18.5h-7.6zM494.9 138.5v-19c0-5.1-2.1-7.7-6.2-7.7-4.5 0-6.8 2.5-6.8 7.5v19.1h-7.5v-33h7.5v3.1c2.2-2.5 5.1-3.9 8.7-3.9 3.4 0 6.3 1.1 8.4 3.2 2.2 2.2 3.2 5.6 3.2 10.3v20.3l-7.3.1zM528 138.5v-2.6c-2.2 2.3-5.1 3.4-8.8 3.4-3.5 0-6.4-1-8.6-2.8-2.3-2-3.3-4.6-3.3-8.1 0-3.6 1.3-6.3 3.8-8.1 2.5-1.9 5.6-2.7 9.1-2.7 3.1 0 5.8.6 7.8 1.8v-1.8c0-2.2-.5-3.6-1.6-4.6s-2.6-1.5-4.9-1.5c-3.6 0-6.9 1.1-9.8 3.1l-2.4-6.2c3.6-2.4 7.9-3.6 12.9-3.6 1.8 0 3.2.1 4.6.4 1.3.3 2.6.8 4.1 1.7 1.4.8 2.4 2.2 3.2 3.9s1.2 3.9 1.2 6.6v21.2H528zm-7.4-5.9c2.8 0 5.4-1.1 7.3-3.1v-4.3c-1.9-.9-4.1-1.4-6.6-1.4-2.1 0-3.6.4-4.9 1.1-1.3.7-1.9 1.9-1.9 3.3s.5 2.4 1.6 3.1c1.2.8 2.6 1.3 4.5 1.3zM551.7 139.2c-5.1 0-7.7-2.8-7.7-8.4v-18.7h-4.9v-6.6h4.9V95.4l7.5-3.6v13.6h7.6v6.6h-7.6v17.3c0 2.2.9 3.1 2.7 3.1 1.7 0 3.4-.5 5.2-1.5l-.9 6.8c-1.8 1.1-4.2 1.5-6.8 1.5zM571 99.6c-.9.9-2 1.4-3.1 1.4-1.3 0-2.4-.5-3.2-1.4-.9-.9-1.4-2-1.4-3.2 0-1.3.5-2.4 1.4-3.1.9-.9 2-1.3 3.2-1.3 1.3 0 2.4.4 3.1 1.3.9.9 1.3 2 1.3 3.1 0 1.2-.4 2.3-1.3 3.2zm-7 38.9v-33h7.5v33H564zM592.1 139.2c-4.7 0-8.3-1.6-11.1-4.6-2.7-3-4.1-7.2-4.1-12.6 0-5.4 1.4-9.6 4.1-12.7 2.7-3 6.4-4.6 11.1-4.6 4.7 0 8.3 1.6 11.1 4.6 2.7 3 4.1 7.3 4.1 12.7 0 5.4-1.4 9.6-4.1 12.6-2.6 3.1-6.4 4.6-11.1 4.6zm0-7.2c2.4 0 4.2-.9 5.6-2.6 1.4-1.8 2.1-4.2 2.1-7.3s-.7-5.6-2.1-7.4-3.2-2.7-5.6-2.7c-2.3 0-4.1.9-5.5 2.7-1.4 1.9-2.1 4.3-2.1 7.4s.7 5.6 2.1 7.3c1.4 1.7 3.2 2.6 5.5 2.6zM633.3 138.5v-19c0-5.1-2.1-7.7-6.2-7.7-4.5 0-6.8 2.5-6.8 7.5v19.1h-7.5v-33h7.5v3.1c2.2-2.5 5.1-3.9 8.7-3.9 3.4 0 6.3 1.1 8.4 3.2 2.2 2.2 3.2 5.6 3.2 10.3v20.3l-7.3.1zM666.5 138.5v-2.6c-2.2 2.3-5.1 3.4-8.8 3.4-3.5 0-6.4-1-8.6-2.8-2.3-2-3.3-4.6-3.3-8.1 0-3.6 1.3-6.3 3.8-8.1 2.5-1.9 5.6-2.7 9.1-2.7 3.1 0 5.8.6 7.8 1.8v-1.8c0-2.2-.5-3.6-1.6-4.6s-2.6-1.5-4.9-1.5c-3.6 0-6.9 1.1-9.8 3.1l-2.4-6.2c3.6-2.4 7.9-3.6 12.9-3.6 1.8 0 3.2.1 4.6.4 1.3.3 2.6.8 4.1 1.7 1.4.8 2.4 2.2 3.2 3.9s1.2 3.9 1.2 6.6v21.2h-7.3zm-7.4-5.9c2.8 0 5.4-1.1 7.3-3.1v-4.3c-1.9-.9-4.1-1.4-6.6-1.4-2.1 0-3.6.4-4.9 1.1-1.3.7-1.9 1.9-1.9 3.3s.5 2.4 1.6 3.1c1.2.8 2.6 1.3 4.5 1.3zM680.7 138.5V95.4l7.5-3.5v46.7l-7.5-.1zM709.1 139.2c-4.7 0-8.4-1.6-11.2-4.6-2.7-3-4.1-7.3-4.1-12.7 0-5.4 1.4-9.6 4.1-12.6 2.7-3 6.5-4.6 11.2-4.6 4.2 0 7.6 1.3 10.4 3.9 2.7 2.6 4 6.5 4 11.6 0 1.8-.1 3.3-.3 4.7h-21.9c.1 2.4 1 4.2 2.4 5.6 1.5 1.5 3.2 2.2 5.3 2.2 2.9 0 5.3-1.2 7-3.4l4.8 4.9c-2.8 3.3-6.8 5-11.7 5zm-7.7-20.6H716c-.2-2.4-.9-4.2-2.2-5.4-1.3-1.3-2.8-1.9-4.7-1.9-2.2 0-3.9.6-5.3 1.8-1.4 1.2-2.2 2.9-2.4 5.5zM358.2 203.9c-4.2 0-7.5-1.6-10-4.6-2.4-3-3.7-7.3-3.7-12.7 0-5.3 1.3-9.5 3.8-12.6 2.5-3.1 5.9-4.7 9.9-4.7 3.2 0 5.7 1.1 7.4 3.1v-12.5l7.5-3.4v46.7h-7.5v-2.4c-1.6 2-4.1 3.1-7.4 3.1zm1.2-7.3c2.8 0 4.9-1.1 6.3-3.1v-13.8c-1.5-2.2-3.5-3.1-6.3-3.1-2.4 0-4.1.9-5.4 2.6-1.3 1.8-1.9 4.2-1.9 7.4 0 3 .7 5.5 2 7.3 1.2 1.9 2.9 2.7 5.3 2.7zM400.4 203.1V200c-2.1 2.6-5 3.9-8.6 3.9-3.4 0-6.3-1.1-8.4-3.2s-3.3-5.6-3.3-10.3v-20.3h7.5V189c0 5.1 2.1 7.7 6.2 7.7 4.4 0 6.7-2.5 6.7-7.5v-19h7.5v33l-7.6-.1zM449.3 165.3v37.8h-7.7v-37.8h-12.8v-7.4h33.5v7.4h-13zM461.9 203.1v-33h7.5v3.4c1.4-2.8 3.6-4.2 6.8-4.2 2.4 0 4.4.8 6.2 2.3l-1.1 7c-1.7-1.2-3.5-1.8-5.6-1.8-1.8 0-3.2.6-4.4 1.8-1.2 1.2-1.8 3.2-1.8 6.1v18.5h-7.6zM504.8 203.1v-2.6c-2.2 2.3-5.1 3.4-8.8 3.4-3.5 0-6.4-1-8.6-2.8-2.3-2-3.3-4.6-3.3-8.1 0-3.6 1.3-6.3 3.8-8.1 2.5-1.9 5.6-2.7 9.1-2.7 3.1 0 5.8.6 7.8 1.8v-2c0-2.2-.5-3.6-1.6-4.6-1.1-1-2.6-1.5-4.9-1.5-3.6 0-6.9 1.1-9.8 3.1l-2.4-6.2c3.6-2.4 7.9-3.6 12.9-3.6 1.8 0 3.2.1 4.6.4 1.3.3 2.6.8 4.1 1.7 1.4.8 2.4 2.2 3.2 3.9.8 1.8 1.2 3.9 1.2 6.6V203l-7.3.1zm-7.5-5.9c2.8 0 5.4-1.1 7.3-3.1v-4.3c-1.9-.9-4.1-1.4-6.6-1.4-2.1 0-3.6.4-4.9 1.1-1.3.7-1.9 1.9-1.9 3.3s.5 2.4 1.6 3.1c1.2.8 2.7 1.3 4.5 1.3zM526.5 203.1l-12-33h7.7l7.3 20.7c.5 1.8.8 2.7.9 2.9.3-1.1.6-2.2.9-2.9l7.1-20.7h7.7l-12 33h-7.6zM568.4 203.1v-2.6c-2.2 2.3-5.1 3.4-8.8 3.4-3.5 0-6.4-1-8.6-2.8-2.3-2-3.3-4.6-3.3-8.1 0-3.6 1.3-6.3 3.8-8.1 2.5-1.9 5.6-2.7 9.1-2.7 3.1 0 5.8.6 7.8 1.8v-2c0-2.2-.5-3.6-1.6-4.6-1.1-1-2.6-1.5-4.9-1.5-3.6 0-6.9 1.1-9.8 3.1l-2.4-6.2c3.6-2.4 7.9-3.6 12.9-3.6 1.8 0 3.2.1 4.6.4 1.3.3 2.6.8 4.1 1.7 1.4.8 2.4 2.2 3.2 3.9.8 1.8 1.2 3.9 1.2 6.6V203l-7.3.1zm-7.3-5.9c2.8 0 5.4-1.1 7.3-3.1v-4.3c-1.9-.9-4.1-1.4-6.6-1.4-2.1 0-3.6.4-4.9 1.1-1.3.7-1.9 1.9-1.9 3.3s.5 2.4 1.6 3.1c1.2.8 2.5 1.3 4.5 1.3zM589.4 164.2c-.9.9-2 1.4-3.1 1.4-1.3 0-2.4-.5-3.2-1.4-.9-.9-1.4-2-1.4-3.2s.5-2.4 1.4-3.1c.9-.9 2-1.3 3.2-1.3s2.4.4 3.1 1.3c.9.9 1.3 2 1.3 3.1 0 1.3-.4 2.3-1.3 3.2zm-7 38.9v-33h7.5v33h-7.5zM597.2 203.1V160l7.5-3.5v46.7l-7.5-.1zM69.6 66.2c-1.3 2.2-1.7 3-1.7 3-1 1.9-3.3 2.8-5.3 2.1l-3.5-1.4c-2-.8-4.2.3-4.9 2.3l-2.7 7.1c-.8 2 .3 4.2 2.3 4.9l3.5 1.4c2 .8 3.1 3 2.6 5.1l-1.6 7.7c-.3 2.1-2.4 3.7-4.4 3.6l-3.9-.2c-2.1-.1-3.8 1.6-3.9 3.7l-.3 7.6c-.1 2.1 1.6 3.8 3.7 3.9l3.8.1c2.1.1 4 1.9 4.1 3.9l1.1 7.8c.4 2.1-1 4.2-2.9 4.9l-3.7 1.2c-2 .6-3.1 2.7-2.5 4.8l3.3 11 20.6-6.4c-9.4-23-8.5-49.9 4.9-73.1 13.4-23.3 36.3-37.6 61-40.9l-4.8-21-11.2 2.5c-2.1.5-3.3 2.5-2.8 4.6l.9 3.8c.5 2.1-.8 4.3-2.7 5l-7.3 3c-1.9.9-4.4.1-5.5-1.7l-2.1-3.2c-1.1-1.8-3.4-2.4-5.3-1.2l-6.5 4c-1.8 1.1-2.4 3.4-1.2 5.3l2.1 3.2c1.1 1.8.7 4.3-1 5.6l-6 5.3c-1.5 1.5-4.1 1.6-5.7.2l-2.9-2.4c-1.7-1.4-4-1.1-5.4.6l-4.8 6c-1.4 1.7-1.1 4 .6 5.4l2.9 2.4c1.7 1.4 2.1 3.8.9 5.6 0-.1-.6.7-1.8 2.9zM148.9 203.7c2.4 0 3.5-.1 3.5-.1 2.1-.1 4.1 1.5 4.4 3.5l.6 3.8c.3 2.1 2.3 3.5 4.4 3.1l7.5-1.2c2.1-.3 3.5-2.4 3.1-4.4l-.6-3.7c-.3-2.1 1.1-4.2 3-4.8l7.5-2.5c2-.8 4.4.1 5.4 2l1.8 3.3c1 1.9 3.3 2.5 5.2 1.6l6.8-3.6c1.9-1 2.5-3.3 1.6-5.2l-1.9-3.4c-1-1.9-.4-4.3 1.3-5.6l6.3-4.8c1.6-1.4 4.2-1.3 5.7.1l2.8 2.6c1.6 1.5 3.9 1.4 5.4-.2l7.8-8.3-15.8-14.6c-15.2 19.7-39.1 32.3-65.8 32.3-26.8 0-50.6-12.6-65.8-32.3l-15.8 14.6 7.8 8.3c1.5 1.6 3.8 1.7 5.4.2l2.8-2.6c1.6-1.5 4.1-1.5 5.7-.1l6.3 4.8c1.7 1.2 2.4 3.7 1.3 5.6l-1.9 3.4c-1 1.9-.3 4.2 1.6 5.2l6.8 3.6c1.9 1 4.2.3 5.2-1.6l1.8-3.3c1-1.9 3.4-2.7 5.4-2l7.5 2.5c2.1.6 3.4 2.7 3 4.8l-.6 3.7c-.3 2.1 1.1 4 3.1 4.4l7.5 1.2c2.1.3 4-1.1 4.4-3.1l.6-3.8c.3-2.1 2.4-3.6 4.4-3.5 0 0 1.1.1 3.5.1zM228.3 66.2c-1.3-2.2-1.8-3-1.8-3-1.2-1.8-.8-4.3.9-5.6l2.9-2.4c1.7-1.4 1.9-3.7.6-5.4l-4.8-5.9c-1.4-1.7-3.7-1.9-5.4-.6l-2.9 2.4c-1.7 1.4-4.2 1.2-5.7-.2l-6-5.3c-1.7-1.3-2.1-3.8-1-5.6l2.1-3.2c1.1-1.8.6-4.1-1.2-5.3l-6.5-4c-1.8-1.1-4.1-.6-5.3 1.2l-2.1 3.2c-1.1 1.8-3.5 2.5-5.5 1.7l-7.3-3c-2-.7-3.2-2.9-2.7-5l.9-3.8c.5-2.1-.8-4.1-2.8-4.6l-11.2-2.5-4.8 21.2c24.7 3.3 47.5 17.6 60.9 40.8s14.3 50.1 4.9 73.1l20.6 6.4 3.3-11c.6-2-.5-4.1-2.5-4.8l-3.7-1.2c-2-.6-3.3-2.8-2.9-4.9l1.1-7.8c.2-2.1 2.1-3.8 4.1-3.9l3.8-.1c2.1-.1 3.7-1.9 3.7-3.9l-.3-7.6c-.1-2.1-1.9-3.7-3.9-3.7l-3.8.1c-2.1.1-4.1-1.6-4.4-3.6l-1.6-7.7c-.5-2.1.7-4.3 2.6-5.1l3.5-1.4c2-.8 2.9-2.9 2.3-4.9l-2.7-7.1c-.8-2-2.9-2.9-4.9-2.3l-3.5 1.4c-2 .8-4.3-.2-5.3-2.1 0 0-.4-.8-1.7-3zM29.9 64.4c-.1.1-.1.2-.1.2s0-.1.1-.2zM62.6 21.2l.3.4c.9-.6 4-2.8 7.7-3.9C91.4 11.8 90.3 4.7 99.1.5l-.3-.5c-.9.6-3.5 2.2-7.3 2.2-24.3.2-22.5 14.4-28.9 19z"
    class="st0"
  />
  <path
    d="m38.5 48.2.5.3c4.9-5.5 9.7-6.5 10.5-6.8 19.2-5.7 25.9-18.4 31.1-22l-.2-.3c-7.1 5.1-15.6-.1-30.1 15.4-.1.1-.5-.5-.5-.5 11.8-14.2 12-23.8 17.4-29L67 5C32.8 25.4 47.9 36.5 38.5 48.2z"
    class="st0"
  />
  <path
    d="M39.8 24.6c-32.2 31.9-12.1 40.1-17.2 56l.3.1c2.9-6.8 10.4-9.7 10.6-9.8 13.7-6.3 18-22.1 23.4-27l-.3-.3c-6.7 7.2-17.6 3.1-26.6 21 0 .1-.6-.3-.6-.3 7.2-15.6 3.8-29.7 10.8-39.5-.2 0-.3-.1-.4-.2z"
    class="st0"
  />
  <path
    d="M16.4 122.9h.5c-.1-1.9-.6-9.4 7-16.5 15.3-14.2 12.7-26.7 19-36.5l-.5-.3C37.5 78 19.7 87.2 19 99.9l-.7-.1c2.6-18.3-7.1-30.5-1.8-42.1-.2-.1-.4-.2-.5-.3-20.4 42.1-3.5 41.5.4 65.5z"
    class="st0"
  />
  <path
    d="m24.3 162.8.5-.2c-4.2-9.5 2.8-22.4 3.1-23.1 9.3-18 6.2-34.4 8.3-40.1l-.5-.1c-5 12.3-18.7 19.1-16.5 39.9h-.7C16.3 126.3 1.7 114 2.1 99.9h-.3c-8.9 50.1 17.1 49.7 22.5 62.9z"
    class="st0"
  />
  <path
    d="m45.1 200 .4-.3c-8.7-10.6-6.1-22-5.9-22.8 4.3-25-3.7-29.5-3.9-40.7h-.4c-.4 12.6-13.3 26.8-1.6 44.5l-.6.4c-13-18.9-23.3-14.3-29.4-33.1-.2 0-.4.1-.5.2 9.2 54.8 33.6 38.1 41.9 51.8z"
    class="st0"
  />
  <path
    d="m95.6 223.9-.1-.5c-17 3.4-25.8.1-28.8-15.6-4.3-22-19.3-30.5-21.1-39.3-.3 0-.4 0-.4.1 3.2 15.6-4.3 24.8 14.4 43.4l-.5.4c-18-14.3-30.5-9-37.6-19-.1.1-.3.2-.3.3 22.3 37.2 46.3 39.3 74.4 30.2z"
    class="st0"
  />
  <path
    d="m53.5 230.3.1-.2c22.9 13.3 46.9-5.3 75.9-6 7.2-.2 29.1 1.2 49.1 24.4l-5.3 1.5c-6.6-11.5-16.7-19.8-26-22-26.4-6.6-26.9 18-56.2 18.4-21.9.3-36.8-15.3-37.6-16.1zM267.7 64.4c.1.1.1.2.1.2s0-.1-.1-.2z"
    class="st0"
  />
  <path
    d="M267.7 64.4c.1.1.1.2.1.2s0-.1-.1-.2zM29.9 64.4c-.1.1-.1.2-.1.2s0-.1.1-.2z"
    class="st0"
  />
  <path
    d="M267.7 64.4c.1.1.1.2.1.2s0-.1-.1-.2zM235 21.2l-.3.4c-.9-.6-4-2.8-7.7-3.9-20.8-5.9-19.7-13-28.5-17.2l.3-.4c.9.6 3.5 2.2 7.3 2.2 24.3.1 22.4 14.3 28.9 18.9z"
    class="st0"
  />
  <path
    d="m259.2 48.2-.5.3c-4.9-5.5-9.7-6.5-10.5-6.8-19.3-5.7-26-18.5-31.2-22.1l.2-.3c7.1 5.1 15.6-.1 30.1 15.4.1.1.5-.5.5-.5-11.8-14.2-12-23.8-17.4-29l.3-.3c34.1 20.5 19.1 31.6 28.5 43.3z"
    class="st0"
  />
  <path
    d="M257.7 24.6c32.2 31.9 12.1 40.1 17.2 56l-.3.1c-2.9-6.8-10.4-9.7-10.6-9.8-13.6-6.3-17.9-22.2-23.4-27l.3-.3c6.7 7.2 17.6 3.1 26.6 21.1 0 .1.6-.3.6-.3-7.2-15.6-3.8-29.7-10.8-39.5.2-.1.3-.2.4-.3z"
    class="st0"
  />
  <path
    d="M281.1 122.9h-.5c.1-1.9.6-9.4-7-16.5-15.3-14.2-12.7-26.7-19-36.5l.5-.3c4.9 8.3 22.7 17.4 23.4 30.2l.7-.1c-2.6-18.3 7.1-30.5 1.8-42.1.2-.1.4-.2.5-.3 20.5 42.2 3.5 41.6-.4 65.6z"
    class="st0"
  />
  <path
    d="m273.3 162.8-.5-.2c4.2-9.5-2.8-22.4-3.1-23.1-9.3-18-6.2-34.4-8.3-40.1l.5-.1c5 12.3 18.7 19.1 16.5 39.9h.7c2.2-12.9 16.8-25.3 16.4-39.4h.3c8.9 50.2-17.1 49.8-22.5 63z"
    class="st0"
  />
  <path
    d="m252.4 200-.4-.3c8.7-10.6 6.1-22 5.9-22.8-4.3-25 3.7-29.5 3.9-40.7h.4c.4 12.6 13.3 26.8 1.6 44.5l.6.4c12.9-18.9 23.2-14.3 29.3-33 .2 0 .4.1.5.2-9.1 54.7-33.4 38-41.8 51.7z"
    class="st0"
  />
  <path
    d="m202 223.9.1-.5c17 3.4 25.8.1 28.8-15.6 4.3-22 19.3-30.5 21.1-39.3.3 0 .4 0 .4.1-3.2 15.6 4.3 24.8-14.4 43.4l.5.4c18-14.3 30.5-9 37.6-19 .1.1.3.2.3.3-22.3 37.2-46.3 39.3-74.4 30.2z"
    class="st0"
  />
  <path
    d="m244.1 230.3-.2-.2c-22.9 13.3-46.9-5.3-75.9-6-7.2-.2-29.1 1.2-49.1 24.4l5.3 1.5c6.6-11.5 16.7-19.8 26-22 26.4-6.6 26.9 18 56.2 18.4 21.9.3 36.8-15.3 37.7-16.1zM29.9 64.4c-.1.1-.1.2-.1.2s0-.1.1-.2z"
    class="st0"
  />
  <path
    d="M29.9 64.4c-.1.1-.1.2-.1.2s0-.1.1-.2zM267.7 64.4c.1.1.1.2.1.2s0-.1-.1-.2zM157.1 64.1c.3-4.2 4.8-4.5 4.8-4.5h6v-5.5h-35.2v5.5h6s4.5.3 4.8 4.5v91.5c-.3 4.2-4.8 4.5-4.8 4.5h-6v5.5h35.2v-5.5h-6s-4.5-.3-4.8-4.5V64.1z"
    class="st0"
  />
  <path
    d="M214.4 72.8v23.8H210v-6.5s1.1-14.1-14.3-12.8v63.1s.4 3.7 7.3 3.2v4h-26.5v-4c7.1.4 7.3-3.2 7.3-3.2V77.2C168.6 76 169.6 90 169.6 90v6.5h-4.4V72.8h49.2zM106.5 70.3h-.4C95.4 70.3 85 77.2 80 88.7c-2.6 5.9-3.2 13.4-3.2 20.8 0 7.3.6 14.9 3.2 20.8 5.1 11.5 15.5 19.4 26.1 19.4h.4c10.7 0 21.1-7.8 26.1-19.4 2.6-5.9 3.2-13.4 3.2-20.8 0-7.3-.6-14.9-3.2-20.8-5-11.4-15.3-18.4-26.1-18.4zM123 110c0 6.9-.2 12.8-.2 12.8-.4 5.6-.5 11.3-3.1 15.1-2.9 4.4-7.6 6.7-12.4 6.7l-.2.1h-.6l-.2-.1c-4.7 0-9.5-2.3-12.4-6.7-2.6-3.8-2.7-9.5-3.1-15.1 0 0-.2-5.9-.2-12.6v-.3c0-6.9.2-12.8.2-12.8.4-5.6.5-11.3 3.1-15.1 2.9-4.4 7.6-6.7 12.4-6.7l.2-.1h.6l.2.1c4.7 0 9.5 2.3 12.4 6.7 2.6 3.8 2.7 9.5 3.1 15.1 0 0 .2 5.9.2 12.6v.3z"
    class="st0"
  />
</svg>
