<?xml version="1.0" encoding="utf-8"?>
<!-- Generator: Adobe Illustrator 24.0.1, SVG Export Plug-In . SVG Version: 6.00 Build 0)  -->
<svg version="1.1" id="Calque_1" xmlns="http://www.w3.org/2000/svg" xmlns:xlink="http://www.w3.org/1999/xlink" x="0px" y="0px"
	 viewBox="0 0 185.46 75.34" style="enable-background:new 0 0 185.46 75.34;" xml:space="preserve">
<style type="text/css">
	.st0{display:none;}
	.st1{fill:#1E2DBE;}
</style>
<g id="Grid_Background" class="st0">
</g>
<g id="Lockup">
	<g>
		<path class="st1" d="M109.7,22.51h-2.49v-11.8h-3.99v-2.1h10.48v2.1h-3.99v11.8H109.7z"/>
		<path class="st1" d="M123.91,17.21c0,1.75-0.45,3.11-1.36,4.06c-0.91,0.95-2.14,1.43-3.7,1.43c-0.96,0-1.82-0.22-2.57-0.64
			c-0.75-0.43-1.34-1.05-1.77-1.87c-0.43-0.82-0.64-1.81-0.64-2.98c0-1.75,0.45-3.1,1.35-4.04s2.13-1.41,3.69-1.41
			c0.97,0,1.84,0.21,2.59,0.63s1.34,1.04,1.77,1.85C123.69,15.05,123.91,16.04,123.91,17.21z M120.09,7.86
			c0.3,0.44,0.64,0.89,1.01,1.34c0.38,0.45,0.73,0.87,1.05,1.25v0.25h-1.32c-0.32-0.21-0.66-0.45-0.99-0.72
			c-0.34-0.27-0.68-0.56-1.01-0.86c-0.34,0.3-0.68,0.58-1.01,0.86c-0.34,0.27-0.67,0.51-0.99,0.72h-1.32v-0.25
			c0.32-0.38,0.68-0.79,1.05-1.25c0.38-0.45,0.71-0.9,1.01-1.34C117.57,7.86,120.09,7.86,120.09,7.86z M116.37,17.21
			c0,1.12,0.2,1.98,0.59,2.59c0.4,0.61,1.04,0.91,1.92,0.91c0.87,0,1.5-0.3,1.91-0.91c0.4-0.61,0.6-1.47,0.6-2.59
			s-0.2-1.97-0.6-2.57c-0.4-0.6-1.04-0.9-1.93-0.9s-1.52,0.3-1.91,0.9C116.57,15.24,116.37,16.09,116.37,17.21z M122.02,5.55
			c0.6,0,1.07,0.12,1.41,0.34c0.35,0.23,0.52,0.58,0.52,1.06c0,0.38-0.11,0.67-0.32,0.88c-0.22,0.21-0.5,0.35-0.87,0.43L122.7,8.9
			h-1.05l-0.1-1.15c0.42-0.04,0.71-0.11,0.89-0.22c0.17-0.11,0.26-0.25,0.26-0.42c0-0.35-0.27-0.53-0.82-0.53
			c-0.14,0-0.28,0.01-0.4,0.02c-0.12,0.01-0.22,0.03-0.28,0.06V5.61C121.33,5.57,121.6,5.55,122.02,5.55z"/>
		<path class="st1" d="M134.99,22.7c-1.5,0-2.7-0.43-3.57-1.3c-0.88-0.87-1.32-2.24-1.32-4.11c0-1.3,0.22-2.35,0.65-3.16
			s1.04-1.41,1.8-1.79c0.77-0.38,1.64-0.58,2.63-0.58c0.65,0,1.24,0.06,1.76,0.19s0.97,0.29,1.33,0.47l-0.72,1.93
			c-0.42-0.16-0.82-0.29-1.23-0.4c-0.4-0.11-0.78-0.17-1.15-0.17c-1.71,0-2.57,1.16-2.57,3.48c0,1.13,0.22,1.98,0.65,2.55
			s1.06,0.86,1.88,0.86c0.58,0,1.11-0.07,1.57-0.22c0.46-0.14,0.89-0.34,1.3-0.58V22c-0.4,0.25-0.84,0.42-1.3,0.53
			C136.24,22.65,135.66,22.7,134.99,22.7z"/>
		<path class="st1" d="M142.12,7.71v3.53c0,0.42-0.02,0.82-0.05,1.22c-0.03,0.4-0.06,0.69-0.09,0.89h0.16
			c0.34-0.53,0.78-0.93,1.32-1.19s1.15-0.39,1.81-0.39c1.2,0,2.13,0.31,2.8,0.92c0.68,0.62,1.01,1.6,1.01,2.95v6.88h-2.45v-6.39
			c0-0.79-0.16-1.39-0.47-1.78c-0.31-0.4-0.81-0.59-1.48-0.59c-0.99,0-1.66,0.31-2.02,0.94c-0.36,0.62-0.55,1.51-0.55,2.67v5.16
			h-2.45V7.71H142.12L142.12,7.71z"/>
		<path class="st1" d="M164.64,10.34l0.14,0.22c-0.13,0.68-0.33,1.3-0.59,1.87s-0.67,1.05-1.2,1.44s-1.28,0.64-2.24,0.76v7.89h-1.93
			l-0.33-1.36h-0.14c-0.34,0.55-0.8,0.94-1.39,1.19c-0.59,0.24-1.21,0.37-1.86,0.37c-1.2,0-2.13-0.3-2.79-0.91
			c-0.67-0.61-1-1.59-1-2.94v-6.89h2.45v6.41c0,0.79,0.16,1.38,0.47,1.77c0.31,0.39,0.81,0.58,1.48,0.58c0.99,0,1.66-0.31,2.04-0.94
			c0.37-0.62,0.55-1.51,0.55-2.67v-5.16h2.45v1.13c0.53-0.13,0.9-0.44,1.11-0.94c0.21-0.49,0.31-1.1,0.31-1.81h2.47V10.34z
			 M159.42,7.59v0.19c-0.22,0.23-0.53,0.54-0.91,0.91c-0.39,0.38-0.8,0.75-1.23,1.11s-0.8,0.66-1.11,0.9h-1.63v-0.25
			c0.21-0.24,0.44-0.53,0.7-0.87c0.26-0.33,0.51-0.68,0.76-1.03c0.24-0.36,0.45-0.68,0.62-0.96H159.42L159.42,7.59z"/>
		<path class="st1" d="M169.01,22.7c-1.5,0-2.7-0.43-3.57-1.3c-0.88-0.87-1.32-2.24-1.32-4.11c0-1.3,0.22-2.35,0.65-3.16
			c0.43-0.81,1.04-1.41,1.8-1.79c0.77-0.38,1.64-0.58,2.63-0.58c0.65,0,1.24,0.06,1.76,0.19c0.53,0.13,0.97,0.29,1.33,0.47
			l-0.72,1.93c-0.42-0.16-0.82-0.29-1.23-0.4c-0.4-0.11-0.78-0.17-1.15-0.17c-1.71,0-2.57,1.16-2.57,3.48
			c0,1.13,0.22,1.98,0.65,2.55s1.06,0.86,1.88,0.86c0.58,0,1.11-0.07,1.57-0.22c0.46-0.14,0.89-0.34,1.3-0.58V22
			c-0.4,0.25-0.84,0.42-1.3,0.53C170.25,22.65,169.68,22.7,169.01,22.7z"/>
		<path class="st1" d="M104.72,41.98v-13.9h2.49v11.8h5.8v2.1H104.72z"/>
		<path class="st1" d="M118.98,31.23c1.36,0,2.4,0.3,3.11,0.9c0.71,0.6,1.06,1.52,1.06,2.76v7.09h-1.73l-0.49-1.46h-0.08
			c-0.45,0.57-0.94,0.99-1.44,1.26c-0.5,0.27-1.2,0.4-2.07,0.4c-0.95,0-1.73-0.27-2.36-0.8c-0.62-0.53-0.94-1.36-0.94-2.47
			c0-1.09,0.4-1.91,1.2-2.45s2.01-0.85,3.63-0.91l1.83-0.06v-0.53c0-0.68-0.16-1.16-0.49-1.44c-0.32-0.29-0.78-0.43-1.36-0.43
			c-0.53,0-1.04,0.07-1.53,0.22s-0.97,0.33-1.45,0.55l-0.78-1.71c0.52-0.27,1.11-0.49,1.78-0.66
			C117.56,31.32,118.26,31.23,118.98,31.23z M120.72,37l-1.29,0.04c-1.08,0.04-1.82,0.22-2.24,0.55c-0.42,0.33-0.62,0.78-0.62,1.33
			c0,0.51,0.15,0.87,0.44,1.08c0.29,0.22,0.68,0.32,1.16,0.32c0.71,0,1.32-0.2,1.81-0.61s0.74-1.02,0.74-1.82V37L120.72,37z"/>
		<path class="st1" d="M134.83,36.69c0,1.75-0.45,3.11-1.36,4.06s-2.14,1.43-3.7,1.43c-0.96,0-1.82-0.22-2.57-0.64
			c-0.75-0.43-1.34-1.05-1.77-1.87s-0.64-1.81-0.64-2.98c0-1.75,0.45-3.1,1.35-4.04c0.9-0.94,2.13-1.41,3.69-1.41
			c0.97,0,1.84,0.21,2.59,0.63c0.75,0.42,1.34,1.04,1.77,1.85C134.62,34.53,134.83,35.52,134.83,36.69z M127.3,36.69
			c0,1.12,0.2,1.98,0.59,2.59c0.4,0.61,1.04,0.91,1.92,0.91c0.87,0,1.5-0.3,1.91-0.91c0.4-0.61,0.6-1.47,0.6-2.59
			s-0.2-1.97-0.6-2.57c-0.4-0.6-1.04-0.9-1.93-0.9c-0.88,0-1.52,0.3-1.91,0.9C127.49,34.71,127.3,35.57,127.3,36.69z"/>
		<path class="st1" d="M145.14,42.18c-1.22,0-2.21-0.44-2.97-1.32s-1.14-2.2-1.14-3.93c0-1.76,0.38-3.09,1.15-3.97
			c0.77-0.88,1.77-1.32,3.02-1.32c0.78,0,1.42,0.15,1.92,0.45s0.9,0.66,1.2,1.09h0.12c-0.01-0.04-0.03-0.17-0.06-0.39
			s-0.05-0.48-0.08-0.76c-0.03-0.29-0.04-0.55-0.04-0.8v-0.76h-3.45V28.8h3.45v-1.62h2.45v1.62h1.48v1.66h-1.48v11.53h-1.93
			l-0.45-1.38h-0.1c-0.3,0.44-0.69,0.81-1.18,1.12C146.57,42.02,145.93,42.18,145.14,42.18z M145.88,40.19
			c0.91,0,1.55-0.24,1.92-0.74c0.37-0.49,0.56-1.23,0.58-2.22v-0.29c0-1.08-0.18-1.9-0.54-2.47s-1.02-0.86-1.99-0.86
			c-0.75,0-1.32,0.29-1.71,0.88c-0.39,0.58-0.58,1.41-0.58,2.47c0,1.05,0.2,1.85,0.59,2.4C144.53,39.91,145.11,40.19,145.88,40.19z"
			/>
		<path class="st1" d="M162.61,36.69c0,1.75-0.45,3.11-1.36,4.06s-2.14,1.43-3.7,1.43c-0.96,0-1.82-0.22-2.57-0.64
			c-0.75-0.43-1.34-1.05-1.77-1.87c-0.43-0.82-0.64-1.81-0.64-2.98c0-1.75,0.45-3.1,1.35-4.04c0.9-0.94,2.13-1.41,3.69-1.41
			c0.97,0,1.84,0.21,2.59,0.63c0.75,0.42,1.34,1.04,1.77,1.85C162.4,34.53,162.61,35.52,162.61,36.69z M159.01,27.07
			c0.17,0.29,0.4,0.61,0.69,0.96c0.29,0.36,0.6,0.71,0.91,1.05c0.32,0.35,0.59,0.63,0.83,0.87v0.23h-1.66
			c-0.34-0.21-0.71-0.46-1.1-0.75c-0.4-0.29-0.76-0.61-1.1-0.96c-0.34,0.35-0.69,0.67-1.07,0.96c-0.38,0.29-0.73,0.54-1.07,0.75
			h-1.63v-0.23c0.23-0.25,0.51-0.54,0.82-0.88c0.31-0.34,0.61-0.68,0.9-1.04s0.52-0.68,0.7-0.96H159.01z M155.08,36.69
			c0,1.12,0.2,1.98,0.59,2.59s1.04,0.91,1.92,0.91c0.87,0,1.5-0.3,1.91-0.91c0.4-0.61,0.6-1.47,0.6-2.59s-0.2-1.97-0.6-2.57
			c-0.4-0.6-1.04-0.9-1.93-0.9s-1.52,0.3-1.91,0.9C155.27,34.71,155.08,35.57,155.08,36.69z M157.55,45.82
			c-0.36,0-0.68-0.1-0.95-0.29s-0.41-0.53-0.41-0.99c0-0.48,0.14-0.82,0.41-1.01s0.59-0.29,0.95-0.29s0.68,0.1,0.95,0.29
			s0.41,0.53,0.41,1.01c0,0.47-0.14,0.8-0.41,0.99S157.91,45.82,157.55,45.82z"/>
		<path class="st1" d="M170.08,31.23c1.18,0,2.11,0.3,2.77,0.91c0.67,0.61,1,1.6,1,2.96v6.88h-2.45v-6.39
			c0-0.79-0.16-1.39-0.47-1.78c-0.31-0.4-0.81-0.59-1.48-0.59c-0.99,0-1.66,0.31-2.02,0.94c-0.36,0.62-0.55,1.51-0.55,2.67v5.16
			h-2.45V31.43h1.89l0.35,1.38h0.14c0.34-0.55,0.8-0.94,1.39-1.2C168.79,31.36,169.42,31.23,170.08,31.23z"/>
		<path class="st1" d="M179.71,31.23c1.36,0,2.41,0.52,3.14,1.56h0.1l0.23-1.36h2.04v10.63c0,1.5-0.42,2.65-1.27,3.43
			c-0.84,0.78-2.12,1.17-3.82,1.17c-0.75,0-1.45-0.05-2.08-0.15c-0.64-0.1-1.24-0.26-1.81-0.5v-2.02c0.6,0.26,1.24,0.46,1.92,0.6
			s1.39,0.22,2.13,0.22c0.79,0,1.4-0.22,1.83-0.67c0.43-0.45,0.64-1.1,0.64-1.96v-0.27c0-0.19,0.01-0.42,0.02-0.68
			c0.01-0.26,0.03-0.47,0.06-0.62h-0.08c-0.36,0.55-0.81,0.94-1.33,1.2c-0.53,0.25-1.12,0.38-1.78,0.38c-1.29,0-2.29-0.48-3.02-1.44
			c-0.73-0.96-1.09-2.3-1.09-4.01s0.37-3.06,1.1-4.03C177.38,31.72,178.4,31.23,179.71,31.23z M180.35,33.24
			c-1.53,0-2.3,1.17-2.3,3.53c0,2.31,0.78,3.47,2.34,3.47c0.86,0,1.49-0.24,1.9-0.71c0.41-0.48,0.61-1.27,0.61-2.4v-0.37
			c0-1.25-0.2-2.14-0.61-2.69C181.88,33.51,181.24,33.24,180.35,33.24z"/>
		<path class="st1" d="M117.14,54.48c0,1.61-0.3,2.99-0.91,4.16c-0.6,1.16-1.52,1.99-2.76,2.48l3.35,3.64h-3.31l-2.59-3.12h-0.33
			c-1.49,0-2.72-0.3-3.68-0.9c-0.96-0.6-1.68-1.43-2.15-2.51c-0.48-1.08-0.71-2.34-0.71-3.78c0-1.43,0.24-2.68,0.71-3.75
			c0.48-1.07,1.2-1.9,2.16-2.49c0.97-0.59,2.2-0.89,3.69-0.89c1.47,0,2.69,0.3,3.65,0.89c0.97,0.59,1.69,1.42,2.16,2.49
			C116.91,51.79,117.14,53.05,117.14,54.48z M106.69,54.48c0,1.57,0.32,2.8,0.94,3.7c0.63,0.9,1.62,1.34,2.97,1.34
			c1.39,0,2.39-0.45,3-1.34c0.61-0.9,0.91-2.13,0.91-3.7s-0.3-2.8-0.91-3.7s-1.61-1.34-2.98-1.34c-1.36,0-2.36,0.45-2.99,1.34
			C107,51.68,106.69,52.92,106.69,54.48z"/>
		<path class="st1" d="M128.51,50.9v10.55h-1.93l-0.33-1.36h-0.12c-0.34,0.55-0.81,0.94-1.4,1.19c-0.6,0.24-1.23,0.37-1.89,0.37
			c-1.18,0-2.11-0.3-2.77-0.91c-0.67-0.61-1-1.59-1-2.94v-6.9h2.45v6.41c0,0.79,0.16,1.38,0.47,1.77s0.81,0.58,1.48,0.58
			c0.99,0,1.66-0.31,2.04-0.94c0.37-0.62,0.55-1.51,0.55-2.67V50.9H128.51L128.51,50.9z"/>
		<path class="st1" d="M140.37,56.16c0,1.75-0.45,3.11-1.36,4.06s-2.14,1.43-3.7,1.43c-0.96,0-1.82-0.22-2.57-0.64
			c-0.75-0.43-1.34-1.05-1.77-1.87s-0.64-1.81-0.64-2.98c0-1.75,0.45-3.1,1.35-4.04c0.9-0.94,2.13-1.41,3.69-1.41
			c0.97,0,1.84,0.21,2.59,0.63c0.75,0.42,1.34,1.04,1.77,1.85S140.37,54.99,140.37,56.16z M138.62,49.65h-1.32
			c-0.32-0.21-0.66-0.45-0.99-0.72c-0.34-0.27-0.68-0.56-1.01-0.86c-0.34,0.3-0.68,0.58-1.01,0.86c-0.34,0.27-0.67,0.51-0.99,0.72
			h-1.32V49.4c0.32-0.38,0.68-0.79,1.05-1.25c0.38-0.45,0.71-0.9,1.01-1.34h2.53c0.3,0.44,0.64,0.89,1.01,1.34
			c0.38,0.45,0.73,0.87,1.05,1.25L138.62,49.65L138.62,49.65z M132.83,56.16c0,1.12,0.2,1.98,0.59,2.59s1.04,0.91,1.92,0.91
			c0.87,0,1.5-0.3,1.91-0.91c0.4-0.61,0.6-1.47,0.6-2.59s-0.2-1.97-0.6-2.57c-0.4-0.6-1.04-0.9-1.93-0.9s-1.52,0.3-1.91,0.9
			C133.03,54.19,132.83,55.04,132.83,56.16z M137.8,47.55c0.24-0.29,0.47-0.57,0.66-0.86s0.4-0.64,0.6-1.05h2.08v0.19
			c-0.29,0.38-0.61,0.73-0.98,1.06s-0.74,0.63-1.1,0.91h-1.27L137.8,47.55L137.8,47.55z"/>
		<path class="st1" d="M146.52,61.65c-1.5,0-2.7-0.43-3.57-1.3c-0.88-0.87-1.32-2.24-1.32-4.11c0-1.3,0.22-2.35,0.65-3.16
			s1.04-1.41,1.8-1.79c0.77-0.38,1.64-0.58,2.63-0.58c0.65,0,1.24,0.06,1.76,0.19c0.53,0.13,0.97,0.29,1.33,0.47l-0.72,1.93
			c-0.42-0.16-0.82-0.29-1.23-0.4c-0.4-0.11-0.78-0.17-1.15-0.17c-1.71,0-2.57,1.16-2.57,3.48c0,1.13,0.22,1.98,0.65,2.55
			s1.06,0.86,1.88,0.86c0.58,0,1.11-0.07,1.57-0.22c0.46-0.14,0.89-0.34,1.3-0.58v2.12c-0.4,0.25-0.84,0.42-1.3,0.53
			C147.76,61.6,147.19,61.65,146.52,61.65z"/>
		<path class="st1" d="M160.38,59.68c0.3,0,0.59-0.03,0.89-0.09c0.29-0.06,0.56-0.13,0.81-0.2v1.83c-0.26,0.13-0.6,0.23-1.01,0.31
			c-0.42,0.08-0.85,0.12-1.3,0.12c-0.61,0-1.16-0.1-1.65-0.29s-0.87-0.54-1.16-1.03c-0.29-0.49-0.43-1.19-0.43-2.08v-5.49h-1.42
			v-1.07l1.56-0.86l0.78-2.24h1.54v2.32h3v1.85h-3v5.47c0,0.49,0.13,0.86,0.4,1.1C159.65,59.57,159.98,59.68,160.38,59.68z"/>
		<path class="st1" d="M167.71,50.71c1.41,0,2.53,0.42,3.36,1.27c0.82,0.84,1.24,2.02,1.24,3.52v1.25h-6.97
			c0.03,0.96,0.29,1.7,0.8,2.23c0.51,0.53,1.21,0.79,2.1,0.79c0.68,0,1.29-0.07,1.83-0.2c0.55-0.14,1.1-0.33,1.68-0.59v1.97
			c-0.52,0.25-1.06,0.43-1.62,0.55s-1.23,0.17-2.01,0.17c-1.04,0-1.95-0.2-2.75-0.59c-0.79-0.4-1.41-0.99-1.86-1.79
			s-0.67-1.8-0.67-3.01c0-1.81,0.45-3.18,1.33-4.13C165.06,51.18,166.24,50.71,167.71,50.71z M171.02,49.65h-1.32
			c-0.32-0.21-0.66-0.45-0.99-0.72c-0.34-0.27-0.68-0.56-1.01-0.86c-0.34,0.3-0.68,0.58-1.01,0.86c-0.34,0.27-0.67,0.51-0.99,0.72
			h-1.32V49.4c0.32-0.38,0.68-0.79,1.05-1.25c0.38-0.45,0.71-0.9,1.01-1.34h2.53c0.3,0.44,0.64,0.89,1.01,1.34
			c0.38,0.45,0.73,0.87,1.05,1.25L171.02,49.65L171.02,49.65z M167.71,52.52c-0.66,0-1.2,0.21-1.61,0.63
			c-0.41,0.42-0.65,1.05-0.71,1.88h4.54c-0.01-0.73-0.2-1.33-0.55-1.8C169.02,52.76,168.46,52.52,167.71,52.52z M170.2,47.55
			c0.25-0.29,0.47-0.57,0.66-0.86s0.4-0.64,0.6-1.05h2.08v0.19c-0.29,0.38-0.61,0.73-0.98,1.06s-0.74,0.63-1.1,0.91h-1.27
			L170.2,47.55L170.2,47.55z"/>
	</g>
</g>
<g id="Type_Cuts">
	<g>
		<g>
			<g>
				<path class="st1" d="M20.92,20.15c-0.37,0.64-0.51,0.93-0.51,0.93c-0.28,0.56-1,0.84-1.59,0.62l-1.08-0.41
					c-0.59-0.22-1.26,0.07-1.48,0.66l-0.82,2.15c-0.22,0.59,0.07,1.26,0.66,1.48l1.07,0.41c0.59,0.22,0.95,0.91,0.8,1.53l-0.47,2.35
					c-0.1,0.63-0.69,1.12-1.32,1.1l-1.15-0.04c-0.63-0.02-1.17,0.48-1.19,1.11l-0.08,2.29c-0.02,0.63,0.48,1.17,1.11,1.19l1.16,0.04
					c0.63,0.02,1.2,0.55,1.25,1.18l0.32,2.37c0.11,0.62-0.3,1.28-0.9,1.47l-1.1,0.32c-0.6,0.19-0.95,0.83-0.76,1.43l1.01,3.3
					l6.2-1.91c-2.84-6.93-2.55-15.06,1.48-22.05c4.04-6.99,10.93-11.3,18.36-12.31l-1.44-6.32l-3.36,0.78
					c-0.62,0.14-1,0.76-0.86,1.38l0.26,1.14c0.14,0.62-0.23,1.3-0.82,1.51l-2.21,0.91c-0.57,0.26-1.32,0.04-1.65-0.5L31.2,7.27
					c-0.33-0.54-1.04-0.7-1.58-0.37l-1.95,1.21c-0.54,0.33-0.7,1.04-0.37,1.58l0.61,0.98c0.33,0.54,0.2,1.3-0.29,1.7l-1.79,1.58
					c-0.46,0.44-1.23,0.47-1.72,0.07l-0.89-0.73c-0.49-0.4-1.22-0.32-1.62,0.17l-1.45,1.78c-0.4,0.49-0.32,1.22,0.17,1.62l0.89,0.73
					c0.49,0.4,0.6,1.16,0.26,1.68C21.46,19.26,21.29,19.51,20.92,20.15z"/>
			</g>
			<g>
				<path class="st1" d="M44.83,61.6c0.74,0,1.06-0.02,1.06-0.02c0.63-0.04,1.23,0.44,1.33,1.07l0.18,1.14
					c0.1,0.62,0.69,1.05,1.32,0.95l2.27-0.37c0.62-0.1,1.05-0.69,0.95-1.32l-0.18-1.14c-0.1-0.62,0.31-1.28,0.92-1.45l2.27-0.76
					c0.59-0.23,1.32,0.04,1.61,0.6l0.54,1.02c0.3,0.56,1,0.77,1.55,0.47l2.02-1.08c0.56-0.3,0.77-1,0.47-1.55l-0.55-1.02
					c-0.3-0.56-0.12-1.31,0.4-1.68L62.88,55c0.48-0.41,1.26-0.39,1.72,0.04l0.85,0.8c0.46,0.43,1.19,0.4,1.62-0.06l2.35-2.52
					l-4.76-4.41c-4.59,5.92-11.77,9.74-19.84,9.74s-15.25-3.82-19.84-9.74l-4.76,4.41l2.35,2.52c0.43,0.46,1.16,0.49,1.62,0.06
					l0.85-0.8c0.46-0.43,1.24-0.45,1.72-0.04l1.89,1.46c0.52,0.37,0.69,1.12,0.4,1.68l-0.55,1.02c-0.3,0.56-0.09,1.26,0.47,1.55
					l2.02,1.08c0.56,0.3,1.26,0.09,1.55-0.47l0.54-1.02c0.3-0.56,1.02-0.83,1.61-0.6l2.27,0.76c0.6,0.18,1.02,0.83,0.92,1.45
					l-0.18,1.14c-0.1,0.62,0.33,1.22,0.95,1.32l2.27,0.37c0.62,0.1,1.22-0.33,1.32-0.95l0.18-1.14c0.1-0.62,0.7-1.1,1.33-1.07
					C43.78,61.58,44.09,61.6,44.83,61.6z"/>
			</g>
			<g>
				<path class="st1" d="M68.77,20.17c-0.37-0.64-0.55-0.91-0.55-0.91c-0.35-0.53-0.23-1.29,0.26-1.68l0.89-0.73
					c0.49-0.4,0.56-1.13,0.17-1.62l-1.45-1.78c-0.4-0.49-1.13-0.56-1.62-0.17l-0.89,0.73c-0.49,0.4-1.26,0.37-1.72-0.07l-1.79-1.58
					c-0.49-0.4-0.62-1.16-0.29-1.7l0.61-0.98c0.33-0.54,0.17-1.25-0.37-1.58l-1.95-1.21c-0.54-0.33-1.25-0.17-1.58,0.37l-0.61,0.99
					C57.55,8.78,56.8,9,56.23,8.74l-2.21-0.91c-0.59-0.22-0.96-0.9-0.82-1.51l0.26-1.14c0.14-0.62-0.24-1.24-0.86-1.38l-3.36-0.78
					L47.8,9.34c7.42,1.01,14.32,5.32,18.36,12.31s4.32,15.12,1.48,22.05l6.19,1.91l1.01-3.3c0.19-0.6-0.16-1.25-0.76-1.43
					l-1.12-0.34c-0.6-0.19-1.01-0.84-0.9-1.47l0.32-2.37c0.06-0.63,0.62-1.16,1.25-1.18l1.16-0.04c0.63-0.02,1.13-0.55,1.11-1.19
					L75.82,32c-0.02-0.63-0.55-1.13-1.19-1.11l-1.15,0.04c-0.63,0.02-1.23-0.47-1.32-1.1l-0.47-2.35c-0.15-0.61,0.21-1.3,0.8-1.53
					l1.07-0.41c0.59-0.22,0.89-0.89,0.66-1.48l-0.81-2.15c-0.22-0.59-0.89-0.89-1.48-0.66l-1.08,0.41c-0.59,0.22-1.3-0.05-1.59-0.62
					C69.27,21.08,69.14,20.81,68.77,20.17z"/>
			</g>
			<g>
				<path class="st1" d="M8.95,19.63c-0.02,0.03-0.03,0.05-0.03,0.05S8.93,19.66,8.95,19.63z"/>
			</g>
			<g>
				<path class="st1" d="M18.82,6.62l0.09,0.11c0.27-0.19,1.2-0.86,2.33-1.17c6.25-1.76,5.94-3.92,8.58-5.2l-0.08-0.13
					c-0.26,0.17-1.07,0.64-2.2,0.65C20.2,0.97,20.76,5.24,18.82,6.62z"/>
			</g>
			<g>
				<path class="st1" d="M11.54,14.75l0.14,0.09c1.49-1.65,2.92-1.96,3.16-2.03c5.82-1.72,7.85-5.57,9.42-6.66L24.2,6.06
					c-2.15,1.53-4.71-0.02-9.06,4.63c-0.03,0.03-0.15-0.14-0.15-0.14c3.53-4.26,3.62-7.16,5.26-8.75l-0.09-0.08
					C9.85,7.87,14.37,11.23,11.54,14.75z"/>
			</g>
			<g>
				<path class="st1" d="M11.96,7.63C2.25,17.25,8.3,19.71,6.78,24.49l0.1,0.04c0.87-2.03,3.13-2.92,3.18-2.94
					c4.11-1.9,5.41-6.69,7.05-8.14l-0.08-0.08c-2.01,2.18-5.33,0.96-8.01,6.35C9,19.74,8.83,19.64,8.83,19.63
					c2.18-4.7,1.16-8.96,3.23-11.88C12.03,7.7,11.99,7.66,11.96,7.63z"/>
			</g>
			<g>
				<path class="st1" d="M4.91,37.27l0.14,0.01c-0.04-0.55-0.18-2.84,2.11-4.96c4.61-4.27,3.83-8.06,5.72-10.99l-0.14-0.08
					c-1.47,2.5-6.84,5.24-7.06,9.09c0,0.01-0.21-0.02-0.2-0.03c0.78-5.51-2.13-9.19-0.54-12.68c-0.05-0.04-0.11-0.06-0.14-0.08
					C-1.37,30.2,3.74,30.02,4.91,37.27z"/>
			</g>
			<g>
				<path class="st1" d="M7.28,49.3l0.15-0.05c-1.27-2.86,0.86-6.77,0.95-6.96c2.8-5.43,1.86-10.34,2.5-12.06l-0.13-0.04
					c-1.49,3.73-5.65,5.75-5,12.02c0,0.01-0.2,0.01-0.2,0c-0.66-3.89-5.06-7.62-4.92-11.86c-0.02,0-0.05-0.01-0.07-0.01
					C-2.18,45.42,5.64,45.32,7.28,49.3z"/>
			</g>
			<g>
				<path class="st1" d="M13.55,60.46l0.1-0.08c-2.61-3.17-1.82-6.63-1.78-6.88c1.3-7.52-1.13-8.87-1.19-12.27h-0.13
					c-0.11,3.81-4.01,8.09-0.47,13.41l-0.17,0.11c-3.9-5.69-6.99-4.3-8.81-9.96l0,0c-0.06,0-0.13,0.03-0.16,0.05
					C3.69,61.4,11.06,56.38,13.55,60.46z"/>
			</g>
			<g>
				<path class="st1" d="M28.76,67.69l-0.03-0.15c-5.13,1.03-7.76,0.04-8.69-4.68c-1.31-6.63-5.82-9.18-6.34-11.83h-0.01
					c-0.08,0-0.11,0.01-0.13,0.02l0,0c0.97,4.68-1.31,7.46,4.33,13.07l-0.15,0.13c-5.43-4.31-9.16-2.72-11.32-5.72
					c-0.04,0.04-0.08,0.07-0.09,0.1C13.06,69.8,20.28,70.41,28.76,67.69z"/>
			</g>
			<g>
				<path class="st1" d="M16.08,69.61l0.04-0.06c6.91,4.03,14.12-1.59,22.87-1.79c2.2-0.05,8.75,0.35,14.78,7.35l-1.6,0.46
					c-1.99-3.46-5.06-5.95-7.84-6.65c-7.96-1.99-8.11,5.43-16.95,5.54C20.82,74.55,16.34,69.87,16.08,69.61z"/>
			</g>
			<g>
				<path class="st1" d="M80.64,19.63c0.01,0.03,0.03,0.05,0.03,0.05S80.65,19.66,80.64,19.63z"/>
			</g>
			<g>
				<path class="st1" d="M80.64,19.63c0.01,0.03,0.03,0.05,0.03,0.05S80.65,19.66,80.64,19.63z"/>
			</g>
			<g>
				<path class="st1" d="M8.95,19.63c-0.01,0.03-0.03,0.05-0.03,0.05S8.93,19.66,8.95,19.63z"/>
			</g>
			<g>
				<path class="st1" d="M80.64,19.63c0.01,0.03,0.03,0.05,0.03,0.05S80.65,19.66,80.64,19.63z"/>
			</g>
			<g>
				<path class="st1" d="M70.76,6.62l-0.09,0.11c-0.27-0.19-1.2-0.86-2.33-1.17c-6.25-1.76-5.93-3.92-8.58-5.2l0.08-0.13
					c0.26,0.17,1.07,0.64,2.2,0.65C69.38,0.97,68.82,5.24,70.76,6.62z"/>
			</g>
			<g>
				<path class="st1" d="M78.05,14.75l-0.13,0.09c-1.49-1.65-2.92-1.96-3.16-2.03c-5.82-1.72-7.85-5.57-9.42-6.66l0.06-0.09
					c2.15,1.53,4.7-0.02,9.06,4.63c0.03,0.03,0.15-0.14,0.15-0.14c-3.53-4.26-3.62-7.16-5.26-8.75l0.09-0.08
					C79.73,7.87,75.21,11.23,78.05,14.75z"/>
			</g>
			<g>
				<path class="st1" d="M77.62,7.63c9.71,9.62,3.66,12.08,5.19,16.87l-0.1,0.04c-0.87-2.03-3.13-2.92-3.18-2.94
					c-4.11-1.9-5.4-6.69-7.05-8.14l0.08-0.08c2.01,2.18,5.33,0.96,8.01,6.35c0.01,0.02,0.18-0.09,0.18-0.09
					c-2.18-4.7-1.16-8.96-3.23-11.88C77.55,7.7,77.59,7.66,77.62,7.63z"/>
			</g>
			<g>
				<path class="st1" d="M84.67,37.27l-0.14,0.01c0.04-0.55,0.18-2.84-2.11-4.96c-4.61-4.27-3.83-8.06-5.72-10.99l0.14-0.08
					c1.47,2.5,6.84,5.24,7.06,9.09c0,0.01,0.21-0.02,0.2-0.03c-0.78-5.51,2.13-9.19,0.54-12.68c0.05-0.04,0.11-0.06,0.14-0.08
					C90.95,30.2,85.84,30.02,84.67,37.27z"/>
			</g>
			<g>
				<path class="st1" d="M82.3,49.3l-0.15-0.05c1.27-2.86-0.86-6.77-0.95-6.96c-2.8-5.43-1.86-10.34-2.5-12.06l0.13-0.04
					c1.49,3.73,5.65,5.75,5,12.02c0,0.01,0.2,0.01,0.2,0c0.66-3.89,5.06-7.62,4.92-11.86c0.02,0,0.05-0.01,0.07-0.01
					C91.76,45.42,83.94,45.32,82.3,49.3z"/>
			</g>
			<g>
				<path class="st1" d="M76.03,60.46l-0.1-0.08c2.61-3.17,1.82-6.63,1.78-6.88c-1.3-7.52,1.13-8.87,1.19-12.27h0.13
					c0.11,3.81,4.01,8.09,0.47,13.41l0.17,0.11c3.9-5.69,6.99-4.3,8.81-9.96l0,0c0.06,0,0.13,0.03,0.16,0.05
					C85.89,61.4,78.52,56.38,76.03,60.46z"/>
			</g>
			<g>
				<path class="st1" d="M60.82,67.69l0.03-0.15c5.13,1.03,7.76,0.04,8.69-4.68c1.31-6.63,5.82-9.18,6.34-11.83h0.01
					c0.08,0,0.12,0.01,0.13,0.02l0,0c-0.97,4.68,1.31,7.46-4.33,13.07l0.15,0.13c5.43-4.31,9.16-2.72,11.32-5.72
					c0.04,0.04,0.08,0.07,0.09,0.1C76.52,69.8,69.3,70.41,60.82,67.69z"/>
			</g>
			<g>
				<path class="st1" d="M73.5,69.61l-0.04-0.06c-6.91,4.03-14.12-1.59-22.87-1.79c-2.19-0.05-8.75,0.35-14.78,7.35l1.6,0.46
					c1.99-3.46,5.06-5.95,7.84-6.65c7.95-1.99,8.11,5.43,16.95,5.54C68.76,74.55,73.25,69.87,73.5,69.61z"/>
			</g>
			<g>
				<path class="st1" d="M8.95,19.63c-0.01,0.03-0.03,0.05-0.03,0.05S8.93,19.66,8.95,19.63z"/>
			</g>
			<g>
				<path class="st1" d="M8.95,19.63c-0.01,0.03-0.03,0.05-0.03,0.05S8.93,19.66,8.95,19.63z"/>
			</g>
			<g>
				<path class="st1" d="M80.64,19.63c0.01,0.03,0.03,0.05,0.03,0.05S80.65,19.66,80.64,19.63z"/>
			</g>
			<g>
				<path class="st1" d="M55.54,19.84h-0.12c-3.23,0-6.33,2.08-7.88,5.54c-0.78,1.76-0.96,4.05-0.97,6.26c0,2.2,0.18,4.49,0.97,6.25
					c1.54,3.46,4.65,5.83,7.88,5.83h0.12c3.23,0,6.33-2.37,7.87-5.83c0.78-1.76,0.96-4.05,0.97-6.25c0-2.2-0.18-4.5-0.97-6.26
					C61.87,21.92,58.77,19.84,55.54,19.84z M60.5,31.78c-0.01,2.07-0.06,3.86-0.06,3.86c-0.13,1.69-0.16,3.39-0.94,4.55
					c-0.89,1.31-2.31,2-3.74,2l-0.06,0.02h-0.18l-0.05-0.02c-1.43,0-2.85-0.69-3.74-2c-0.78-1.16-0.81-2.86-0.94-4.55
					c0,0-0.05-1.76-0.05-3.82v-0.09c0-2.07,0.05-3.86,0.05-3.86c0.13-1.69,0.16-3.39,0.94-4.55c0.89-1.31,2.31-2,3.74-2l0.05-0.02
					h0.18l0.05,0.02c1.43,0,2.85,0.68,3.74,2c0.79,1.16,0.81,2.86,0.94,4.55c0,0,0.05,1.76,0.06,3.82L60.5,31.78L60.5,31.78z"/>
			</g>
			<g>
				<path class="st1" d="M57.96,44.71c0,0-0.63,1.64-1.81,2.65c-0.65,0.55-1.6,0.7-2.36,0.79l-7.94,0.39H44.1
					c0,0-1.33-0.07-1.4-1.31V19.4c0.07-1.24,1.4-1.31,1.4-1.31h1.75v-1.62H35.22v1.62h1.76c0,0,1.33,0.07,1.4,1.31v27.83
					c-0.07,1.24-1.4,1.31-1.4,1.31h-1.76v1.62h10.62l11.5,0.04l1.41-5.13v-0.19L57.96,44.71z"/>
			</g>
			<g>
				<path class="st1" d="M33,22.9c0.06-1.03,1.17-1.09,1.17-1.09h1.46v-1.35h-8.86v1.35h1.46c0,0,1.11,0.06,1.17,1.09v17.79
					c-0.06,1.03-1.17,1.09-1.17,1.09h-1.46v1.35h8.86v-1.35h-1.46c0,0-1.11-0.06-1.17-1.09V22.9z"/>
			</g>
		</g>
	</g>
</g>
</svg>
