<svg xmlns="http://www.w3.org/2000/svg" id="Layer_1" viewBox="0 0 848.29 250"><defs><style>.cls-1{fill:#1e2dbe;stroke-width:0}</style></defs><g id="Lockup"><path d="M346.86 111.67V66.44h7.74v45.23zm35.63 0V92.73c0-5.12-2.06-7.68-6.15-7.68-4.49 0-6.71 2.53-6.71 7.54v19.08h-7.54v-33h7.54v3.09c2.16-2.59 5.05-3.89 8.71-3.89 3.46 0 6.25 1.06 8.44 3.22 2.16 2.16 3.26 5.58 3.26 10.27v20.27h-7.54v.03Zm23.24.77c-5.12 0-7.68-2.83-7.68-8.48V85.21h-4.92v-6.58h4.92v-10l7.54-3.62v13.63h7.61v6.58h-7.61v17.25c0 2.13.93 3.16 2.79 3.16 1.7 0 3.39-.5 5.18-1.5l-.9 6.78c-1.93 1.03-4.22 1.53-6.95 1.53Zm25.42 0c-4.69 0-8.41-1.53-11.13-4.62s-4.09-7.31-4.09-12.7 1.36-9.54 4.12-12.63 6.45-4.62 11.1-4.62c4.22 0 7.68 1.33 10.37 3.96s4.05 6.48 4.05 11.57c0 1.76-.1 3.32-.27 4.65h-21.9c.13 2.33.93 4.19 2.43 5.62s3.26 2.13 5.32 2.13c2.92 0 5.25-1.13 6.98-3.42l4.79 4.92c-2.89 3.42-6.81 5.15-11.77 5.15Zm-7.68-20.67h14.59c-.17-2.36-.9-4.15-2.19-5.38s-2.86-1.83-4.72-1.83c-2.16 0-3.92.6-5.32 1.76s-2.19 2.99-2.36 5.45m26.66 19.9v-33h7.54v3.42c1.33-2.79 3.59-4.19 6.78-4.19 2.33 0 4.39.76 6.15 2.26l-1.1 6.91c-1.63-1.16-3.52-1.73-5.62-1.73-1.73 0-3.19.6-4.39 1.79s-1.79 3.22-1.79 6.08v18.48h-7.58v-.03Zm44 0V92.73c0-5.12-2.06-7.68-6.15-7.68-4.49 0-6.71 2.53-6.71 7.54v19.08h-7.54v-33h7.54v3.09c2.16-2.59 5.05-3.89 8.71-3.89 3.46 0 6.25 1.06 8.44 3.22 2.16 2.16 3.26 5.58 3.26 10.27v20.27h-7.54v.03Zm32.54 0v-2.66c-2.19 2.29-5.12 3.42-8.77 3.42s-6.41-.96-8.64-2.89-3.32-4.62-3.32-8.11 1.26-6.28 3.79-8.14 5.58-2.79 9.14-2.79c3.16 0 5.75.6 7.81 1.73V90.5c0-2.09-.53-3.66-1.6-4.59-1.06-.93-2.69-1.43-4.89-1.43-3.59 0-6.85 1.03-9.8 3.09l-2.33-6.15c3.59-2.43 7.88-3.62 12.93-3.62 1.73 0 3.26.13 4.55.43 1.33.27 2.66.83 4.05 1.66s2.49 2.13 3.26 3.89 1.16 3.96 1.16 6.58v21.27h-7.35v.03Zm-7.38-5.88c2.89 0 5.35-1.06 7.38-3.16v-4.29c-1.89-.9-4.09-1.36-6.58-1.36-2.03 0-3.66.37-4.92 1.1s-1.86 1.86-1.86 3.36c0 1.33.53 2.39 1.56 3.16 1 .8 2.49 1.2 4.42 1.2Zm30.35 6.65c-5.12 0-7.68-2.83-7.68-8.48V85.21h-4.92v-6.58h4.92v-10l7.54-3.62v13.63h7.61v6.58h-7.61v17.25c0 2.13.93 3.16 2.79 3.16 1.7 0 3.39-.5 5.18-1.5l-.9 6.78c-1.93 1.03-4.22 1.53-6.95 1.53Zm18.67-39.65c-.86.9-1.93 1.33-3.16 1.33s-2.33-.43-3.19-1.33c-.9-.9-1.33-1.96-1.33-3.19s.43-2.29 1.33-3.16c.9-.86 1.96-1.3 3.19-1.3s2.29.43 3.16 1.3 1.3 1.93 1.3 3.16-.43 2.33-1.3 3.19m-6.98 38.89v-33h7.54v33zm27.49.76c-4.65 0-8.34-1.53-11.03-4.59-2.73-3.06-4.05-7.28-4.05-12.66s1.36-9.61 4.05-12.7c2.73-3.09 6.38-4.62 11.03-4.62s8.34 1.53 11.07 4.62 4.09 7.31 4.09 12.7-1.36 9.61-4.05 12.66c-2.69 3.06-6.38 4.59-11.1 4.59Zm0-7.25c2.36 0 4.22-.9 5.58-2.66s2.03-4.22 2.03-7.38-.66-5.62-2.03-7.44-3.22-2.73-5.58-2.73-4.12.93-5.48 2.76-2.06 4.29-2.06 7.41.66 5.55 2.03 7.35c1.36 1.83 3.19 2.69 5.52 2.69Zm40.48 6.48V92.73c0-5.12-2.06-7.68-6.15-7.68-4.49 0-6.71 2.53-6.71 7.54v19.08h-7.54v-33h7.54v3.09c2.16-2.59 5.05-3.89 8.71-3.89 3.46 0 6.25 1.06 8.44 3.22 2.16 2.16 3.26 5.58 3.26 10.27v20.27h-7.54v.03Zm32.51 0v-2.66c-2.19 2.29-5.12 3.42-8.77 3.42s-6.41-.96-8.64-2.89-3.32-4.62-3.32-8.11 1.26-6.28 3.79-8.14 5.58-2.79 9.14-2.79c3.16 0 5.75.6 7.81 1.73V90.5c0-2.09-.53-3.66-1.6-4.59-1.06-.93-2.69-1.43-4.89-1.43-3.59 0-6.85 1.03-9.8 3.09l-2.33-6.15c3.59-2.43 7.88-3.62 12.93-3.62 1.73 0 3.26.13 4.55.43 1.33.27 2.66.83 4.05 1.66s2.49 2.13 3.26 3.89 1.16 3.96 1.16 6.58v21.27h-7.35v.03Zm-7.35-5.88c2.89 0 5.35-1.06 7.38-3.16v-4.29c-1.89-.9-4.09-1.36-6.58-1.36-2.03 0-3.66.37-4.92 1.1s-1.86 1.86-1.86 3.36c0 1.33.53 2.39 1.56 3.16 1 .8 2.46 1.2 4.42 1.2Zm20.91 5.88V68.56l7.54-3.56v46.66h-7.54Zm27.82.77c-4.69 0-8.41-1.53-11.13-4.62s-4.09-7.31-4.09-12.7 1.36-9.54 4.12-12.63 6.45-4.62 11.1-4.62c4.22 0 7.68 1.33 10.37 3.96s4.05 6.48 4.05 11.57c0 1.76-.1 3.32-.27 4.65h-21.9c.13 2.33.93 4.19 2.43 5.62s3.26 2.13 5.32 2.13c2.92 0 5.25-1.13 6.98-3.42l4.79 4.92c-2.89 3.42-6.81 5.15-11.77 5.15Zm-7.68-20.67h14.59c-.17-2.36-.9-4.15-2.19-5.38s-2.86-1.83-4.72-1.83c-2.16 0-3.92.6-5.32 1.76-1.43 1.16-2.19 2.99-2.36 5.45m-318.87 84.51-3.56-9.87H355.2l-3.56 9.87h-8.21l16.85-45.23h7.68l16.78 45.23h-8.11Zm-5.98-16.85-4.99-13.56q-.945-2.445-1.5-4.59-.495 1.89-1.5 4.59l-5.05 13.56h13.03Zm18.15 16.85v-33h7.54v3.42c1.33-2.79 3.59-4.19 6.78-4.19 2.33 0 4.39.76 6.15 2.26l-1.1 6.91c-1.63-1.16-3.52-1.73-5.62-1.73-1.73 0-3.19.6-4.39 1.79s-1.79 3.22-1.79 6.08v18.48h-7.58v-.03Zm38.45.77c-3.09 0-5.55-1.1-7.31-3.29v2.53h-7.54v-43.24l7.54-3.42v16.09c1.86-2.16 4.32-3.22 7.44-3.22 4.09 0 7.41 1.56 9.9 4.65 2.53 3.09 3.79 7.31 3.79 12.6s-1.23 9.77-3.69 12.8c-2.46 3.02-5.82 4.52-10.14 4.52Zm-.9-7.21c2.33 0 4.09-.9 5.32-2.69s1.83-4.25 1.83-7.41-.63-5.78-1.86-7.51c-1.26-1.73-3.02-2.59-5.28-2.59-2.86 0-4.99 1.06-6.38 3.22v13.76c1.36 2.16 3.49 3.22 6.38 3.22Zm33.34 7.21c-4.69 0-8.41-1.53-11.13-4.62s-4.09-7.31-4.09-12.7 1.36-9.54 4.12-12.63 6.45-4.62 11.1-4.62c4.22 0 7.68 1.33 10.37 3.96s4.05 6.48 4.05 11.57c0 1.76-.1 3.32-.27 4.65h-21.9c.13 2.33.93 4.19 2.43 5.62s3.26 2.13 5.32 2.13c2.92 0 5.25-1.13 6.98-3.42l4.79 4.92c-2.89 3.46-6.81 5.15-11.77 5.15Zm-7.68-20.67h14.59c-.17-2.36-.9-4.15-2.19-5.38s-2.86-1.83-4.72-1.83c-2.16 0-3.92.6-5.32 1.76-1.43 1.2-2.19 2.99-2.36 5.45m33.54-18.95c-.86.9-1.93 1.33-3.16 1.33s-2.33-.43-3.19-1.33c-.9-.9-1.33-1.96-1.33-3.19s.43-2.29 1.33-3.16c.9-.86 1.96-1.3 3.19-1.3s2.29.43 3.16 1.3 1.3 1.93 1.3 3.16-.43 2.29-1.3 3.19m-6.98 38.85v-33h7.54v33zm26.05.77c-4.22 0-7.54-1.53-10-4.59s-3.69-7.31-3.69-12.73 1.26-9.51 3.82-12.6c2.53-3.09 5.85-4.65 9.87-4.65 3.19 0 5.65 1.03 7.44 3.09v-12.53l7.54-3.42v46.66h-7.54v-2.39c-1.63 2.13-4.12 3.16-7.44 3.16m1.16-7.21c2.79 0 4.89-1.06 6.28-3.16v-13.83c-1.43-2.09-3.52-3.16-6.28-3.16-2.33 0-4.12.86-5.38 2.63-1.26 1.73-1.89 4.22-1.89 7.48 0 3.06.63 5.52 1.93 7.35 1.3 1.76 3.09 2.69 5.35 2.69Zm30.78 7.21c-2.66 0-5.18-.53-7.54-1.56s-4.12-2.43-5.32-4.12l5.18-4.39c2.33 2.33 4.89 3.49 7.68 3.49 3.59 0 5.35-1.06 5.35-3.22 0-.73-.3-1.4-.93-1.99s-1.3-1.06-1.99-1.4-1.86-.8-3.46-1.46c-3.79-1.26-6.55-2.69-8.31-4.29-1.76-1.63-2.63-3.76-2.63-6.41 0-2.89 1.1-5.15 3.32-6.75 2.23-1.63 5.02-2.43 8.44-2.43 4.99 0 8.94 1.7 11.83 5.12l-5.22 4.25c-1.93-1.86-4.12-2.79-6.58-2.79-2.96 0-4.45.9-4.45 2.73 0 .9.57 1.7 1.66 2.33 1.1.63 2.69 1.33 4.82 1.99 3.59 1.2 6.28 2.63 8.11 4.25 1.83 1.63 2.76 3.92 2.76 6.85 0 3.16-1.13 5.58-3.42 7.28-2.33 1.7-5.42 2.53-9.31 2.53Zm30.91 0c-4.65 0-8.34-1.53-11.03-4.59-2.73-3.06-4.05-7.28-4.05-12.66s1.36-9.61 4.05-12.7c2.73-3.09 6.38-4.62 11.03-4.62s8.34 1.53 11.07 4.62 4.09 7.31 4.09 12.7-1.36 9.61-4.05 12.66-6.41 4.59-11.1 4.59Zm0-7.21c2.36 0 4.22-.9 5.58-2.66s2.03-4.22 2.03-7.38-.66-5.62-2.03-7.44-3.22-2.73-5.58-2.73-4.12.93-5.48 2.76-2.06 4.29-2.06 7.41.66 5.55 2.03 7.35c1.36 1.79 3.19 2.69 5.52 2.69Zm20.05 6.44v-33h7.54v3.42c1.33-2.79 3.59-4.19 6.78-4.19 2.33 0 4.39.76 6.15 2.26l-1.1 6.91c-1.63-1.16-3.52-1.73-5.62-1.73-1.73 0-3.19.6-4.39 1.79s-1.79 3.22-1.79 6.08v18.48h-7.58v-.03Zm34.86 12.93-4.02-6.08c4.52-.3 7.64-1 9.41-2.09s2.63-2.79 2.63-5.09v-1.86c-1.79 1.99-4.32 2.96-7.51 2.96-4.05 0-7.35-1.5-9.84-4.49-2.53-2.99-3.79-7.28-3.79-12.83s1.26-9.54 3.79-12.63 5.82-4.62 9.9-4.62c3.09 0 5.58.93 7.44 2.79v-1.99h7.54v29.71c0 5.48-1.16 9.44-3.52 11.9-2.33 2.46-6.35 3.89-12.03 4.32m1.83-19.38c2.73 0 4.79-1.06 6.22-3.22v-13.69c-1.5-2.16-3.59-3.22-6.22-3.22-2.36 0-4.19.86-5.45 2.59s-1.89 4.22-1.89 7.51c0 3.09.63 5.55 1.93 7.38 1.26 1.73 3.09 2.66 5.42 2.66Zm38.98 6.45v-2.66c-2.19 2.29-5.12 3.42-8.77 3.42s-6.41-.96-8.64-2.89-3.32-4.62-3.32-8.11 1.26-6.28 3.79-8.14 5.58-2.79 9.14-2.79c3.16 0 5.75.6 7.81 1.73v-1.73c0-2.09-.53-3.66-1.6-4.59-1.06-.93-2.69-1.43-4.89-1.43-3.59 0-6.85 1.03-9.8 3.09l-2.33-6.15c3.59-2.43 7.88-3.62 12.93-3.62 1.73 0 3.26.13 4.55.43 1.33.27 2.66.83 4.05 1.66s2.49 2.13 3.26 3.89 1.16 3.96 1.16 6.58v21.27h-7.35v.03Zm-7.38-5.88c2.89 0 5.35-1.06 7.38-3.16v-4.25c-1.89-.9-4.09-1.36-6.58-1.36-2.03 0-3.66.37-4.92 1.1s-1.86 1.86-1.86 3.36c0 1.33.53 2.39 1.56 3.16 1 .76 2.49 1.16 4.42 1.16Zm41.18 5.88v-18.94c0-5.12-2.06-7.68-6.15-7.68-4.49 0-6.71 2.53-6.71 7.54v19.08h-7.54v-33h7.54v3.09c2.16-2.59 5.05-3.89 8.71-3.89 3.46 0 6.25 1.06 8.44 3.22 2.16 2.16 3.26 5.58 3.26 10.27v20.27h-7.54v.03Zm20.61-38.85c-.86.9-1.93 1.33-3.16 1.33s-2.33-.43-3.19-1.33c-.9-.9-1.33-1.96-1.33-3.19s.43-2.29 1.33-3.16c.9-.86 1.96-1.3 3.19-1.3s2.29.43 3.16 1.3 1.3 1.93 1.3 3.16-.43 2.29-1.3 3.19m-6.98 38.85v-33h7.54v33zm24.33.77c-2.66 0-5.18-.53-7.54-1.56s-4.12-2.43-5.32-4.12l5.18-4.39c2.33 2.33 4.89 3.49 7.68 3.49 3.59 0 5.35-1.06 5.35-3.22 0-.73-.3-1.4-.93-1.99s-1.3-1.06-1.99-1.4-1.86-.8-3.46-1.46c-3.79-1.26-6.55-2.69-8.31-4.29-1.73-1.63-2.63-3.76-2.63-6.41 0-2.89 1.1-5.15 3.32-6.75 2.23-1.63 5.02-2.43 8.44-2.43 4.99 0 8.94 1.7 11.83 5.12l-5.22 4.25c-1.93-1.86-4.12-2.79-6.58-2.79-2.96 0-4.45.9-4.45 2.73 0 .9.57 1.7 1.66 2.33 1.1.63 2.69 1.33 4.82 1.99 3.59 1.2 6.28 2.63 8.11 4.25 1.83 1.63 2.76 3.92 2.76 6.85 0 3.16-1.13 5.58-3.42 7.28-2.36 1.7-5.42 2.53-9.31 2.53Zm36.63-.77v-2.66c-2.19 2.29-5.12 3.42-8.77 3.42s-6.41-.96-8.64-2.89-3.32-4.62-3.32-8.11 1.26-6.28 3.79-8.14 5.58-2.79 9.14-2.79c3.16 0 5.75.6 7.81 1.73v-1.73c0-2.09-.53-3.66-1.6-4.59-1.06-.93-2.69-1.43-4.89-1.43-3.59 0-6.85 1.03-9.8 3.09l-2.33-6.15c3.59-2.43 7.88-3.62 12.93-3.62 1.73 0 3.26.13 4.55.43 1.33.27 2.66.83 4.05 1.66s2.49 2.13 3.26 3.89 1.16 3.96 1.16 6.58v21.27h-7.35v.03Zm-7.38-5.88c2.89 0 5.35-1.06 7.38-3.16v-4.25c-1.89-.9-4.09-1.36-6.58-1.36-2.03 0-3.66.37-4.92 1.1s-1.86 1.86-1.86 3.36c0 1.33.53 2.39 1.56 3.16 1 .76 2.49 1.16 4.42 1.16Zm30.34 6.65c-5.12 0-7.68-2.83-7.68-8.48v-18.71h-4.92v-6.58h4.92v-10.04l7.54-3.62v13.63h7.61v6.61h-7.61v17.25c0 2.13.93 3.16 2.79 3.16 1.7 0 3.39-.5 5.18-1.5l-.9 6.78c-1.93 1-4.22 1.5-6.95 1.5Zm18.71-39.62c-.86.9-1.93 1.33-3.16 1.33s-2.33-.43-3.19-1.33c-.9-.9-1.33-1.96-1.33-3.19s.43-2.29 1.33-3.16c.9-.86 1.96-1.3 3.19-1.3s2.29.43 3.16 1.3 1.3 1.93 1.3 3.16-.43 2.29-1.3 3.19m-6.98 38.85v-33h7.54v33zm27.59.77c-4.69 0-8.41-1.53-11.13-4.62s-4.09-7.31-4.09-12.7 1.36-9.54 4.12-12.63 6.45-4.62 11.1-4.62c4.22 0 7.68 1.33 10.37 3.96s4.05 6.48 4.05 11.57c0 1.76-.1 3.32-.27 4.65h-21.9c.13 2.33.93 4.19 2.43 5.62s3.26 2.13 5.32 2.13c2.92 0 5.25-1.13 6.98-3.42l4.79 4.92c-2.89 3.46-6.81 5.15-11.77 5.15Zm-7.68-20.67h14.59c-.17-2.36-.9-4.15-2.19-5.38s-2.86-1.83-4.72-1.83c-2.16 0-3.92.6-5.32 1.76-1.4 1.2-2.19 2.99-2.36 5.45M69.44 66.14c-1.23 2.13-1.7 3.09-1.7 3.09-.93 1.86-3.32 2.79-5.28 2.06l-3.56-1.36c-1.96-.73-4.19.23-4.92 2.19l-2.69 7.11c-.73 1.96.23 4.19 2.19 4.92l3.56 1.36c1.96.73 3.16 3.02 2.66 5.05l-1.56 7.78c-.33 2.06-2.29 3.72-4.39 3.62l-3.82-.13c-2.09-.07-3.86 1.6-3.92 3.69l-.27 7.61c-.07 2.09 1.6 3.86 3.69 3.92l3.86.13c2.09.07 3.96 1.83 4.15 3.92l1.06 7.84c.37 2.06-.96 4.25-2.99 4.85l-3.69 1.13c-1.99.6-3.16 2.76-2.53 4.75l3.32 10.93 20.54-6.35c-9.41-23-8.48-49.99 4.92-73.19 13.39-23.2 36.26-37.49 60.92-40.85L134.17 9.3l-11.13 2.59c-2.03.47-3.32 2.53-2.86 4.55l.86 3.76c.47 2.03-.76 4.29-2.73 5.02L111 28.24c-1.89.86-4.35.13-5.48-1.63l-2.03-3.26c-1.1-1.79-3.46-2.33-5.25-1.23l-6.45 4.02c-1.79 1.1-2.33 3.46-1.23 5.25l2.03 3.26c1.1 1.79.66 4.32-.96 5.62l-5.95 5.25c-1.53 1.46-4.09 1.56-5.72.23L77 43.32c-1.63-1.33-4.02-1.06-5.35.53l-4.82 5.92c-1.33 1.63-1.06 4.02.53 5.35l2.96 2.43c1.63 1.33 2.03 3.86.86 5.58 0 0-.53.83-1.76 2.96Zm79.34 137.53c2.46 0 3.52-.07 3.52-.07 2.09-.13 4.09 1.46 4.42 3.56l.6 3.76c.33 2.06 2.29 3.49 4.35 3.16l7.51-1.2c2.06-.33 3.49-2.29 3.16-4.35l-.6-3.82c-.33-2.06 1.03-4.25 3.06-4.82l7.51-2.53c1.96-.76 4.35.13 5.35 1.99l1.79 3.39c1 1.86 3.32 2.56 5.15 1.56l6.71-3.59c1.86-1 2.56-3.29 1.56-5.15l-1.83-3.39c-1-1.86-.4-4.35 1.33-5.55l6.28-4.85c1.6-1.36 4.19-1.3 5.72.13l2.83 2.63c1.53 1.43 3.96 1.33 5.38-.2l7.81-8.38-15.79-14.62c-15.22 19.68-39.05 32.34-65.84 32.31-26.79 0-50.62-12.66-65.84-32.34l-15.79 14.62 7.81 8.38c1.43 1.53 3.86 1.63 5.38.2l2.83-2.63c1.53-1.43 4.09-1.5 5.72-.13l6.28 4.85c1.7 1.2 2.29 3.72 1.33 5.55l-1.83 3.39c-1 1.86-.27 4.15 1.56 5.15l6.71 3.59c1.86 1 4.15.27 5.15-1.56l1.79-3.39c1-1.86 3.39-2.76 5.35-1.99l7.51 2.53c2.03.6 3.39 2.76 3.06 4.82l-.6 3.76c-.33 2.06 1.1 4.02 3.16 4.35l7.51 1.23c2.06.33 4.02-1.1 4.35-3.16l.6-3.76c.33-2.06 2.33-3.66 4.42-3.52.03.03 1.03.1 3.52.1Zm79.4-137.46c-1.23-2.13-1.79-3.02-1.79-3.02-1.16-1.76-.76-4.25.86-5.58l2.96-2.43a3.796 3.796 0 0 0 .53-5.35l-4.82-5.92a3.796 3.796 0 0 0-5.35-.53l-2.96 2.43c-1.63 1.33-4.19 1.23-5.72-.23l-5.95-5.25c-1.63-1.33-2.06-3.86-.96-5.62l2.03-3.26c1.1-1.79.57-4.15-1.23-5.25l-6.45-4.02c-1.79-1.1-4.15-.57-5.25 1.23l-2.03 3.26c-1.1 1.79-3.56 2.53-5.48 1.63l-7.31-3.02c-1.96-.7-3.19-2.96-2.73-5.02l.86-3.79c.47-2.03-.83-4.09-2.86-4.55L163.4 9.33l-4.79 20.97c24.63 3.36 47.53 17.65 60.92 40.85s14.32 50.15 4.92 73.19l20.54 6.35 3.32-10.93c.6-1.99-.53-4.15-2.53-4.75l-3.69-1.13c-1.99-.6-3.36-2.79-2.99-4.85l1.06-7.84c.2-2.09 2.06-3.86 4.15-3.92l3.86-.13c2.09-.07 3.76-1.83 3.69-3.92l-.27-7.61c-.07-2.09-1.83-3.76-3.92-3.69l-3.82.13c-2.09.07-4.09-1.56-4.39-3.62l-1.56-7.78c-.5-2.03.7-4.32 2.66-5.05l3.56-1.36c1.96-.73 2.96-2.96 2.19-4.92l-2.69-7.11c-.73-1.96-2.96-2.96-4.92-2.19l-3.56 1.36c-1.96.73-4.32-.17-5.28-2.06 0-.03-.47-.93-1.7-3.06ZM29.69 64.38c-.07.1-.1.17-.1.17s.07-.03.1-.17m32.78-43.14.3.37c.9-.63 3.99-2.83 7.74-3.89C91.25 11.9 90.22 4.72 98.96.47l-.27-.43c-.86.53-3.56 2.13-7.31 2.16-24.33.27-22.47 14.46-28.92 19.04Z" class="cls-1"/><path d="m38.3 48.23.43.3c4.92-5.48 9.67-6.48 10.47-6.75 19.31-5.72 26.02-18.48 31.24-22.1l-.2-.3c-7.11 5.05-15.62-.07-30.05 15.35-.1.1-.5-.47-.5-.47 11.7-14.16 12-23.76 17.45-29.01l-.3-.27C32.67 25.39 47.7 36.52 38.29 48.22Z" class="cls-1"/><path d="M39.7 24.59C7.49 56.5 27.54 64.67 22.48 80.56l.33.13c2.89-6.75 10.37-9.67 10.57-9.77 13.66-6.28 17.95-22.17 23.4-27.02l-.27-.27c-6.65 7.25-17.68 3.19-26.59 21.07-.03.07-.6-.3-.6-.3 7.25-15.59 3.86-29.71 10.74-39.42-.13-.17-.27-.33-.37-.4Z" class="cls-1"/><path d="m16.3 122.91.47.03c-.13-1.83-.6-9.44 6.98-16.45C39.04 92.33 36.45 79.74 42.73 70l-.47-.27c-4.89 8.31-22.7 17.38-23.43 30.14 0 0-.66-.07-.66-.1 2.59-18.28-7.08-30.48-1.79-42.08-.17-.1-.33-.2-.47-.23-20.44 42.01-3.46 41.41.4 65.44Z" class="cls-1"/><path d="m24.18 162.86.5-.17c-4.22-9.51 2.86-22.47 3.19-23.1 9.31-18.01 6.18-34.33 8.31-40.02l-.43-.13C30.8 111.8 17 118.52 19.17 139.32c0 .03-.66.03-.66 0-2.16-12.9-16.78-25.26-16.32-39.35-.07 0-.17-.03-.23-.03-9.17 50.02 16.82 49.69 22.23 62.92Z" class="cls-1"/><path d="m44.98 199.88.33-.27c-8.67-10.54-6.05-22-5.88-22.83 4.32-24.93-3.76-29.45-3.96-40.71h-.43c-.37 12.63-13.29 26.82-1.56 44.5l-.57.37c-12.93-18.88-23.2-14.26-29.25-33.04-.2 0-.43.1-.53.17 9.14 54.91 33.6 38.29 41.84 51.81Z" class="cls-1"/><path d="m95.47 223.84-.1-.5c-17.02 3.42-25.72.13-28.82-15.52-4.35-22-19.31-30.48-21.04-39.25h-.03c-.27 0-.37.03-.43.07 3.22 15.52-4.35 24.76 14.39 43.34l-.5.43c-18.01-14.29-30.41-9.04-37.56-18.94-.13.13-.27.23-.3.33 22.27 37.09 46.23 39.09 74.38 30.05Z" class="cls-1"/><path d="m53.36 230.22.13-.2c22.9 13.36 46.86-5.25 75.88-5.92 7.28-.17 29.05 1.16 49.02 24.36l-5.32 1.53c-6.61-11.47-16.78-19.78-26.02-22.07-26.39-6.61-26.92 18.01-56.24 18.38-21.7.3-36.59-15.19-37.46-16.09Zm214.2-165.84c.07.1.1.17.1.17s-.03-.03-.1-.17" class="cls-1"/><path d="M267.56 64.38c.07.1.1.17.1.17s-.03-.03-.1-.17m-237.87 0c-.07.1-.1.17-.1.17s.07-.03.1-.17" class="cls-1"/><path d="M267.56 64.38c.07.1.1.17.1.17s-.03-.03-.1-.17m-32.73-43.14-.3.33c-.9-.63-3.99-2.83-7.74-3.89-20.74-5.82-19.71-13-28.45-17.25l.27-.43c.86.53 3.56 2.13 7.31 2.16 24.3.3 22.47 14.49 28.92 19.08Z" class="cls-1"/><path d="m258.99 48.23-.43.3c-4.92-5.48-9.67-6.48-10.47-6.75-19.31-5.72-26.02-18.48-31.24-22.1l.2-.3c7.11 5.05 15.62-.07 30.05 15.35.1.1.5-.47.5-.47-11.7-14.16-12-23.76-17.45-29.01l.3-.27c34.13 20.41 19.14 31.54 28.55 43.24Z" class="cls-1"/><path d="M257.56 24.59c32.21 31.91 12.16 40.08 17.22 55.97l-.33.13c-2.89-6.75-10.37-9.67-10.57-9.77-13.66-6.28-17.91-22.17-23.4-27.02l.27-.27c6.65 7.25 17.68 3.19 26.59 21.07.03.07.6-.3.6-.3-7.25-15.59-3.86-29.71-10.74-39.42.17-.17.27-.33.37-.4Z" class="cls-1"/><path d="m280.96 122.91-.47.03c.13-1.83.6-9.44-6.98-16.45-15.29-14.16-12.7-26.75-18.98-36.49l.47-.27c4.89 8.31 22.7 17.38 23.43 30.14 0 0 .7-.07.66-.1-2.59-18.28 7.08-30.48 1.79-42.08.17-.13.37-.2.47-.27 20.44 42.04 3.49 41.45-.4 65.47Z" class="cls-1"/><path d="m273.08 162.86-.5-.17c4.22-9.51-2.83-22.47-3.16-23.1-9.31-18.01-6.18-34.33-8.31-40.02l.43-.13c4.95 12.36 18.75 19.08 16.58 39.88 0 .03.66.03.66 0 2.16-12.9 16.78-25.26 16.32-39.35.07 0 .17-.03.23-.03 9.14 50.02-16.82 49.69-22.27 62.92Z" class="cls-1"/><path d="m252.28 199.88-.33-.27c8.67-10.54 6.05-22 5.88-22.83-4.32-24.93 3.76-29.45 3.96-40.71h.43c.37 12.63 13.29 26.82 1.56 44.5l.57.37c12.93-18.88 23.2-14.26 29.25-33.04.2 0 .43.1.53.17-9.11 54.91-33.57 38.29-41.84 51.81Z" class="cls-1"/><path d="m201.82 223.84.1-.5c17.02 3.42 25.72.13 28.82-15.52 4.35-22 19.31-30.48 21.04-39.25h.03c.27 0 .37.03.43.07-3.22 15.52 4.35 24.76-14.39 43.34l.5.43c18.01-14.29 30.41-9.04 37.56-18.94.13.13.27.23.3.33-22.3 37.09-46.23 39.09-74.38 30.05Z" class="cls-1"/><path d="m243.9 230.22-.13-.2c-22.93 13.36-46.86-5.25-75.88-5.92-7.28-.17-29.05 1.16-49.02 24.36l5.32 1.53c6.61-11.47 16.78-19.78 26.02-22.07 26.39-6.61 26.92 18.01 56.24 18.38 21.74.3 36.63-15.19 37.46-16.09ZM29.69 64.38c-.07.1-.1.17-.1.17s.07-.03.1-.17" class="cls-1"/><path d="M29.69 64.38c-.07.1-.1.17-.1.17s.07-.03.1-.17m237.87 0c.07.1.1.17.1.17s-.03-.03-.1-.17m-83.25.73h-.4c-10.7 0-21.01 6.91-26.12 18.38-2.59 5.85-3.19 13.46-3.19 20.77s.6 14.92 3.19 20.74c5.12 11.5 15.42 19.34 26.12 19.34h.4c10.7 0 21.01-7.84 26.12-19.34 2.59-5.85 3.19-13.43 3.22-20.74 0-7.31-.6-14.92-3.22-20.77-5.12-11.5-15.42-18.38-26.12-18.38m16.48 39.58c-.03 6.88-.2 12.8-.2 12.8-.43 5.62-.53 11.27-3.12 15.09-2.96 4.35-7.68 6.65-12.4 6.65l-.2.07h-.6l-.17-.07c-4.75 0-9.47-2.29-12.43-6.65-2.59-3.82-2.69-9.47-3.12-15.09 0 0-.17-5.85-.17-12.66v-.3c0-6.88.17-12.8.17-12.8.43-5.62.53-11.27 3.12-15.09 2.96-4.35 7.68-6.65 12.4-6.65l.17-.07h.6l.17.07c4.75 0 9.47 2.26 12.43 6.65 2.63 3.86 2.69 9.47 3.12 15.09 0 0 .17 5.85.2 12.66v.3z" class="cls-1"/><path d="M192.32 147.6s-2.09 5.45-6.02 8.81c-2.13 1.83-5.32 2.33-7.84 2.63l-26.36 1.3h-5.82s-4.42-.27-4.65-4.35V63.65c.23-4.12 4.65-4.35 4.65-4.35h5.82v-5.38h-35.23v5.38h5.82s4.42.23 4.65 4.35v92.33c-.23 4.12-4.65 4.35-4.65 4.35h-5.82v5.38h35.23l38.15.13 4.69-17.02v-.6l-2.63-.63Z" class="cls-1"/><path d="M109.53 75.25c.2-3.42 3.89-3.62 3.89-3.62h4.85v-4.49H88.86v4.49h4.85s3.69.2 3.89 3.62v59.03c-.2 3.42-3.89 3.62-3.89 3.62h-4.85v4.49h29.41v-4.49h-4.85s-3.69-.2-3.89-3.62z" class="cls-1"/></g></svg>