<svg xmlns="http://www.w3.org/2000/svg" xml:space="preserve" id="Layer_1" x="0" y="0" version="1.1" viewBox="0 0 3445 1000"><style>.st0{fill:#fff}</style><g id="Lockup"><path d="M634.7 185.8h-1.2c-29 0-54.1 39.2-68.2 118-6.7 37.6-8.2 86.6-8.2 133.7s1.6 96 8.2 133.3c14.1 78.8 39.6 124.3 68.2 124.3h1.2c29 0 54.1-45.5 68.2-124.3 6.7-37.6 8.2-86.2 8.2-133.3s-1.6-96-8.2-133.7c-14.5-78.8-39.6-118-68.2-118m32.5 254.8c0 48.2-.4 89.4-.4 89.4-.8 39.2-1.2 78.8-6.3 105.4-5.9 30.6-14.9 46.2-24.3 46.2l-.4.4h-1.2l-.4-.4c-9.4 0-18.4-16.1-24.3-46.2-5.1-26.6-5.1-66.2-6.3-105.4 0 0-.4-40.8-.4-88.6V439c0-48.2.4-89.4.4-89.4.8-39.2 1.2-78.8 6.3-105.4 5.9-30.6 14.9-46.2 24.3-46.2l.4-.4h1.2l.4.4c9.4 0 18.4 16.1 24.3 46.2 5.1 26.6 5.1 66.2 6.3 105.4.3 25.1.4 54.6.4 88.6zM278.3 264.2c-5.1 8.6-6.7 12.2-6.7 12.2-3.9 7.4-13.3 11.4-21.2 8.2l-14.1-5.5c-7.8-3.1-16.8 1.2-19.6 9l-11 28.6c-3.1 7.8 1.2 16.8 9 19.6l14.1 5.5c7.8 3.1 12.6 12.2 10.6 20.4l-6.3 31c-1.2 8.2-9.4 14.9-17.6 14.5l-15.3-.4c-8.2-.4-15.3 6.3-15.7 14.9l-1.2 30.6c-.4 8.2 6.3 15.3 14.9 15.7l15.3.4c8.2.4 16.1 7.4 16.5 15.7l4.3 31.4c1.6 8.2-3.9 16.8-11.8 19.6l-14.9 4.7c-7.8 2.4-12.6 11-10.2 19.2l13.3 43.9 82.3-25.5C255.4 485.8 258.9 378 312.6 285S458 134.9 556.4 121.5l-19.2-83.9-44.7 10.2c-8.2 2-13.3 10.2-11.4 18.4l3.5 15.3c2 8.2-3.1 17.2-11 20l-29.4 12.2c-7.4 3.5-17.6.4-22-6.7L414 94.1c-4.3-7-13.7-9.4-21.2-4.7l-25.9 16.1c-7 4.3-9.4 13.7-4.7 21.2l8.2 12.9c4.3 7 2.8 17.2-3.9 22.4l-23.4 21c-5.9 5.9-16.5 6.3-22.7.8l-11.8-9.8c-6.7-5.5-16.1-4.3-21.6 2.4l-19.2 23.5c-5.5 6.7-4.3 16.1 2.4 21.6l11.8 9.8c6.7 5.5 8.2 15.3 3.5 22.4.4-1.2-2 1.9-7.2 10.5" class="st0"/><path d="M596.3 815c9.8 0 14.1-.4 14.1-.4 8.2-.4 16.5 5.9 17.6 14.1l2.4 15.3c1.2 8.2 9 14.1 17.6 12.6l30.2-4.7c8.2-1.2 14.1-9 12.6-17.6l-2.4-14.9c-1.2-8.2 4.3-16.8 12.2-19.2l30.2-10.2c7.8-3.1 17.6.4 21.6 7.8l7 13.3c3.9 7.4 13.3 10.2 20.8 6.3l27-14.5c7.4-3.9 10.2-13.3 6.3-20.8l-7.4-13.7c-3.9-7.4-1.6-17.2 5.1-22.4l25.1-19.2c6.3-5.5 16.8-5.1 22.7.4l11.4 10.6c6.3 5.9 15.7 5.5 21.6-.8l31.4-33.3-63.1-58.4c-60.8 78.8-156.4 129.4-263.5 129.4s-202.7-50.6-263.5-129.4l-63.1 58.4 31.4 33.3c5.9 6.3 15.3 6.7 21.6.8l11.4-10.6c6.3-5.9 16.5-5.9 22.7-.4l25.1 19.2c6.7 4.7 9.4 14.9 5.1 22.4l-7.4 13.7c-3.9 7.4-1.2 16.8 6.3 20.8l27 14.5c7.4 3.9 16.8 1.2 20.8-6.3l7-13.3c3.9-7.4 13.7-11 21.6-7.8l30.2 10.2c8.2 2.4 13.7 11 12.2 19.2l-2.4 15.3c-1.2 8.2 4.3 16.1 12.6 17.6l30.2 4.7c8.2 1.2 16.1-4.3 17.6-12.6l2.4-15.3c1.2-8.2 9.4-14.5 17.6-14.1-1.1-.4 2.8 0 13.1 0m317.9-550.4c-5.1-8.6-7-12.2-7-12.2-4.7-7-3.1-17.2 3.5-22.4l11.8-9.8c6.7-5.5 7.4-14.9 2.4-21.6l-19.2-23.5c-5.5-6.7-14.9-7.4-21.6-2.4l-11.8 9.8c-6.7 5.5-16.8 4.7-22.7-.8l-23.9-21.2c-6.7-5.1-8.2-15.3-3.9-22.4l8.2-12.9c4.3-7 2.4-16.5-4.7-21.2l-25.9-16.1c-7-4.3-16.5-2.4-21.2 4.7l-8.2 12.9c-4.3 7-14.1 10.2-22 6.7L718.6 100c-7.8-2.8-12.9-11.8-11-20l3.5-15.3c2-8.2-3.1-16.5-11.4-18.4L655 36.1 635.8 120c98.8 13.3 190.1 70.6 243.8 163.5s57.2 200.7 19.6 292.9l82.3 25.5 13.3-43.9c2.4-7.8-2-16.5-10.2-19.2l-14.9-4.7c-7.8-2.4-13.3-11.4-11.8-19.6l4.3-31.4c.8-8.2 8.2-15.3 16.5-15.7l15.3-.4c8.2-.4 14.9-7.4 14.9-15.7l-1.2-30.6c-.4-8.2-7.4-14.9-15.7-14.9l-15.3.4c-8.2.4-16.5-6.3-17.6-14.5l-6.3-31c-2-8.2 2.8-17.2 10.6-20.4l14.1-5.5c7.8-3.1 11.8-11.8 9-19.6l-11-28.6c-3.1-7.8-11.8-11.8-19.6-9l-14.1 5.5c-7.8 3.1-17.2-.8-21.2-8.2.3 1.8-1.6-1.7-6.4-10.3m-795-7.4c-.4.4-.4.8-.4.8s.4 0 .4-.8M250.5 84.7l1.2 1.6c3.5-2.4 16.1-11.4 31-15.7 83.1-23.5 78.8-52.1 114.1-69L395.5 0c-3.5 2.4-14.1 8.6-29.4 8.6-97.2.8-89.7 57.7-115.6 76.1" class="st0"/><path d="m153.7 192.5 2 1.2c19.6-22 38.8-25.9 42-27 77.2-22.7 104.3-74.1 125-88.6l-.8-1.2c-28.6 20.4-62.3-.4-120.4 61.6-.4.4-2-2-2-2 47-56.8 48.2-95.2 69.8-116l-1.2-1.2c-136.8 81.9-76.8 126.5-114.4 173.2" class="st0"/><path d="M159.5 98c-129 127.8-48.6 160.3-69 223.8l1.2.4c11.8-27 41.6-38.8 42.3-39.2 54.9-24.7 71.7-88.6 93.7-107.8l-1.2-1.2c-26.6 29-70.6 12.6-106.6 84.3 0 .4-2.4-1.2-2.4-1.2 29-62.3 15.3-119.2 43.1-158z" class="st0"/><path d="M65.9 491.6h2c-.4-7.4-2.4-37.6 27.8-65.8 61.2-56.8 51-107 76-146.2l-2-1.2c-19.6 33.3-91 69.8-93.7 120.7l-2.8-.4c10.6-73.3-28.2-121.9-7-168.6-.8-.4-1.6-.8-2-1.2-81.8 169-14 166.7 1.7 262.7" class="st0"/><path d="m97.2 651.5 2-.8c-16.8-38 11.4-89.8 12.6-92.5 37.2-72.1 24.7-137.6 33.3-160.3l-2-.4c-20 49.4-74.9 76.4-66.2 159.6h-2.8C65.5 505.3 6.7 455.9 8.6 399.5H7.5c-36.1 200.7 68.2 199.1 89.7 252" class="st0"/><path d="m180.7 799.7 1.6-1.2c-34.9-42.3-24.3-88.2-23.5-91.3 17.2-100-14.9-118-15.7-163.1h-1.6c-1.6 50.6-53.3 107.4-6.3 178l-2.4 1.6c-52.1-75.3-93.3-56.8-117.6-132.1-.8 0-1.6.4-2 .8 36.2 219.9 134.2 153.2 167.5 207.3" class="st0"/><path d="m382.6 895.8-.4-2c-68.2 13.7-103.1.4-115.2-62.3-17.6-87.8-77.2-121.9-84.3-156.8-1.2 0-1.6 0-1.6.4 12.9 62.3-17.2 99.2 57.6 173.6l-2 1.6c-72.1-57.2-121.9-36.1-150.5-76-.4.4-1.2.8-1.2 1.2C174.1 924 270.2 932.2 382.6 895.8" class="st0"/><path d="m214.1 921.2.4-.8c91.7 53.7 187.8-21.2 303.8-23.9 29-.8 116.4 4.7 196.4 97.6l-21.2 5.9c-26.3-45.9-67-79.2-104.3-88.2-105.8-26.3-107.8 72.1-225 73.7-87 1.5-146.6-60.8-150.1-64.3m857.7-664c.4.4.4.8.4.8s-.2-.3-.4-.8" class="st0"/><path d="M1071.8 257.2c.4.4.4.8.4.8s-.2-.3-.4-.8m-952.6 0c-.4.4-.4.8-.4.8s.4 0 .4-.8" class="st0"/><path d="M1071.8 257.2c.4.4.4.8.4.8s-.2-.3-.4-.8m-131-172.5-1.2 1.6c-3.5-2.4-16.1-11.4-31-15.7-83.1-23.5-78.8-52.1-114.1-69l1.2-1.6c3.5 2.4 14.1 8.6 29.4 8.6 97.3.8 89.9 57.7 115.7 76.1" class="st0"/><path d="m1037.3 192.5-2 1.2c-19.6-22-38.8-25.9-42-27-77.2-22.7-104.3-74.1-125-88.6l.8-1.2c28.6 20.4 62.3-.4 120.4 61.6.4.4 2-2 2-2-47-56.8-48.2-95.2-69.8-116l1.2-1.2c137.2 81.9 76.8 126.5 114.4 173.2" class="st0"/><path d="M1031.8 98c129 127.8 48.6 160.3 69 223.8l-1.2.4c-11.8-27-41.6-38.8-42.3-39.2-54.5-25.1-71.7-89-93.7-108.2l1.2-1.2c26.6 29 71 12.6 106.6 84.3 0 .4 2.4-1.2 2.4-1.2-29-62.3-15.3-119.2-43.1-158 .4.1.8-.3 1.1-.7" class="st0"/><path d="M1125.5 491.6h-2c.4-7.4 2.4-37.6-27.8-65.8-61.2-56.8-51-107-76-146.2l2-1.2c19.6 33.3 91 69.8 93.7 120.7l2.8-.4c-10.6-73.3 28.2-121.9 7-168.6.8-.4 1.6-.8 2-1.2 81.8 169 13.6 166.7-1.7 262.7" class="st0"/><path d="m1093.7 651.5-2-.8c16.8-38-11.4-89.8-12.6-92.5-37.2-72.1-24.7-137.6-33.3-160.3l1.6-.4c20 49.4 74.9 76.4 66.2 159.6h2.8c8.6-51.8 67.4-101.1 65.5-157.6h1.2c36.4 200.7-67.4 199.1-89.4 252" class="st0"/><path d="m1010.6 799.7-1.6-1.2c34.9-42.3 24.3-88.2 23.5-91.3-17.2-100 14.9-118 15.7-163.1h1.6c1.6 50.6 53.3 107.4 6.3 178l2.4 1.6c51.8-75.6 92.9-57.2 117.2-132.1.8 0 1.6.4 2 .8-36.2 219.9-134.2 153.2-167.1 207.3" class="st0"/><path d="m808.3 895.8.4-2c68.2 13.7 103.1.4 115.2-62.3 17.2-88.2 77.2-121.9 84.3-157.2 1.2 0 1.6 0 1.6.4-12.9 62.3 17.2 99.2-57.6 173.6l2 1.6c72.1-57.2 121.9-36.1 150.5-76 .4.4 1.2.8 1.2 1.2-88.7 148.9-184.7 157.1-297.6 120.7" class="st0"/><path d="m976.9 921.2-.4-.8c-91.7 53.7-187.8-21.2-303.8-23.9-29-.8-116.4 4.7-196.4 97.6l21.2 5.9c26.3-45.9 67-79.2 104.3-88.2 105.8-26.3 107.8 72.1 225 73.7 87.3 1.5 146.9-60.8 150.1-64.3m-857.7-664c-.4.4-.4.8-.4.8s.4 0 .4-.8" class="st0"/><path d="M119.2 257.2c-.4.4-.4.8-.4.8s.4 0 .4-.8m952.6 0c.4.4.4.8.4.8s-.2-.3-.4-.8m-535.9 50.5h2.8v-16.1H485l-36.1 199.5h-.9l-45.1-199.5h-82.7v16.1h14.9s11.4.8 11.8 11v244.2c-.8 10.6-11.8 11-11.8 11h-14.9V590h68.6v-16.1h-14.9s-11.4-.8-11.8-11V329.6l62.3 264.2h15.7L488 330v233.2c-.8 10.6-11.8 11-11.8 11H461v16.1h77.6v-16.1h-2.8s-11.4-.8-11.8-11V318.7c.9-10.6 11.8-11 11.9-11m334.4-17.2v95.2h-17.6v-25.9c0-.8 1.6-55.7-49.4-51.4v252.5s1.6 14.9 29.4 12.9v16.1H724.8v-16.1c28.2 1.6 31.4-12.9 31.4-12.9V308.5c-51-3.9-49.4 50.6-49.4 51.4v25.9h-17.6v-95.2zm596.7 3.9-49.4-147.8h-1.2c.4 3.5.8 8.2.8 14.1.4 6.3.4 12.9.8 20s.4 13.7.4 20v93.7h-29V114.1h45.1l47.4 141.9h1.2l49.4-141.9h45.1v180.7h-31v-95.2c0-5.9 0-12.2.4-18.8s.4-13.3.8-19.6.4-11 .8-14.1h-1.2l-51.8 147.8H1467zm201.8-139.6q27.6 0 43.5 16.5c10.6 11 16.1 26.3 16.1 45.9v16.1h-90.6c.4 12.6 3.9 22 10.2 29 6.7 6.7 15.7 10.2 27.4 10.2 8.6 0 16.8-.8 23.9-2.8 7-2 14.5-4.3 21.6-7.8v25.5c-6.7 3.1-13.7 5.5-21.2 7-7 1.6-16.1 2.4-25.9 2.4-13.3 0-25.5-2.8-35.7-7.8-10.2-5.1-18.4-12.9-24.3-23.1s-8.6-23.5-8.6-39.2c0-23.5 5.9-41.2 17.2-53.7 11.9-11.9 27.2-18.2 46.4-18.2m0 23.6c-8.6 0-15.7 2.8-20.8 8.2-5.5 5.5-8.2 13.7-9.4 24.3h58.8c0-9.4-2.8-17.2-7-23.5-4.7-5.9-11.7-9-21.6-9m272.8-20.8-52.5 65.8 57.2 71h-34.5L1857 225v69.4h-29.8V225l-54.9 69.4h-34.5l57.6-71-52.9-65.8h33.7l51 66.6v-66.6h29.8v66.6l51.4-66.6zm147.5 0v112.5h20V343h-29.4v-48.6h-93.3V343h-29v-72.9h11.4c9.8-14.5 17.6-31.8 22.7-51.8s8.6-40.4 9.8-60.8h87.8zm-31.4 23.9h-29c-1.6 15.7-4.7 31.8-9 47-4.3 15.7-10.2 29.4-17.6 41.2h55.7zm58.8-23.9h34.5l27.4 77.2c2 4.7 3.5 9.8 4.7 14.5s2 9.4 2.4 14.1h1.2c.8-4.3 1.6-9 3.1-14.1 1.2-5.1 2.8-9.8 4.7-14.9l26.3-77.2h34.5l-58.4 155.2c-5.1 13.7-12.6 24.3-21.6 31.4-9 7.4-20 11-33.3 11-4.3 0-7.8-.4-11-.8-3.1-.4-5.9-.8-7.8-1.6v-25.1c2 .4 3.9.8 6.7 1.2s5.5.4 8.2.4c7.8 0 14.1-2.4 18.8-7 4.7-4.7 8.2-10.6 11-17.2l3.9-11zm188.6 0v54.5h60.4v-54.5h31.8v137.2h-31.8v-58.4h-60.4v58h-31.8V157.2h31.8zm181.1-2.8c17.6 0 31 3.9 40.4 11.8 9 7.8 13.7 19.6 13.7 36.1v92.1h-22.4l-6.3-18.8h-1.2c-5.9 7.4-12.2 12.9-18.8 16.5-6.7 3.5-15.7 5.1-26.6 5.1-12.2 0-22.4-3.5-30.6-10.2-8.2-7-12.2-17.6-12.2-32.2 0-14.5 5.1-24.7 15.7-31.8 10.2-7 26.3-11 47-11.8l23.9-.8v-6.7c0-8.6-2-14.9-6.3-18.8-4.3-3.5-10.2-5.5-17.6-5.5-7 0-13.7.8-20 2.8s-12.6 4.3-18.8 7l-10.2-22.4c6.7-3.5 14.5-6.3 23.1-8.6 8.8-2.6 17.8-3.8 27.2-3.8m22.7 74.9-16.8.4c-14.1.4-23.5 2.8-29 7-5.5 4.3-8.2 10.2-8.2 17.2 0 6.7 2 11.4 5.9 14.1 3.9 2.8 8.6 4.3 14.9 4.3 9.4 0 17.2-2.8 23.5-7.8 6.3-5.5 9.8-13.3 9.8-23.5zm341.1-3.9c0 22.7-5.9 40.4-17.6 52.5-11.8 12.6-27.8 18.4-48.2 18.4-12.6 0-23.5-2.8-33.3-8.2s-17.6-13.7-23.1-24.3-8.2-23.5-8.2-38.8c0-22.7 5.9-40.4 17.6-52.5 11.8-12.2 27.8-18.4 47.8-18.4 12.6 0 23.9 2.8 33.7 8.2 9.8 5.5 17.6 13.3 23.1 23.9 5.4 11 8.2 23.9 8.2 39.2m-98 0c0 14.5 2.8 25.9 7.8 33.7 5.1 7.8 13.3 11.8 25.1 11.8s19.6-3.9 24.7-11.8c5.1-7.8 7.8-19.2 7.8-33.7s-2.8-25.5-7.8-33.3c-5.1-7.8-13.7-11.8-25.1-11.8s-19.6 3.9-24.7 11.8c-5.1 7.4-7.8 18.8-7.8 33.3m241.1-68.2v112.5h20V343h-29.4v-48.6h-93.3V343h-29v-72.9h11.4c9.8-14.5 17.6-31.8 22.7-51.8s8.6-40.4 9.8-60.8h87.8zm-31.4 23.9h-29c-1.6 15.7-4.7 31.8-9 47-4.3 15.7-10.2 29.4-17.6 41.2h55.7zm104.3-23.9v54.5h60.4v-54.5h31.8v137.2h-31.8v-58.4H3066v58h-31.8V157.2h31.8zm181.1-2.8c17.6 0 31 3.9 40.4 11.8 9 7.8 13.7 19.6 13.7 36.1v92.1h-22.4l-6.3-18.8h-1.2c-5.9 7.4-12.2 12.9-18.8 16.5-6.7 3.5-15.7 5.1-26.6 5.1-12.2 0-22.4-3.5-30.6-10.2-8.2-7-12.2-17.6-12.2-32.2 0-14.5 5.1-24.7 15.7-31.8 10.2-7 26.3-11 47-11.8l23.9-.8v-6.7c0-8.6-2-14.9-6.3-18.8-4.3-3.5-10.2-5.5-17.6-5.5-7 0-13.7.8-20 2.8s-12.6 4.3-18.8 7l-10.2-22.4c6.7-3.5 14.5-6.3 23.1-8.6 8.8-2.6 17.8-3.8 27.2-3.8m22.4 74.9-16.8.4c-14.1.4-23.5 2.8-29 7-5.5 4.3-8.2 10.2-8.2 17.2 0 6.7 2 11.4 5.9 14.1s8.6 4.3 14.9 4.3c9.4 0 17.2-2.8 23.5-7.8 6.3-5.5 9.8-13.3 9.8-23.5zm85.4 64.7h-35.3l37.6-55.3c-4.7-1.6-9.4-4.3-13.7-7.4s-7.8-7.4-10.6-12.9-3.9-11.8-3.9-19.6c0-13.3 4.7-23.9 14.5-31 9.8-7 22.4-10.6 38.4-10.6h63.1v137.2h-32.2v-52.5h-25.5zm5.1-94.9c0 6.7 2.4 11.4 7.4 14.9 5.1 3.5 11.8 5.1 20 5.1h25.5v-38.4h-29.8c-8.2 0-14.1 2-17.6 5.5-3.6 3.1-5.5 7.4-5.5 12.9M1508.5 478.7c0 22.7-5.9 40.4-17.6 52.5-11.8 12.6-27.8 18.4-48.2 18.4-12.6 0-23.5-2.8-33.3-8.2-9.8-5.5-17.6-13.7-23.1-24.3s-8.2-23.5-8.2-38.8c0-22.7 5.9-40.4 17.6-52.5s27.8-18.4 47.8-18.4c12.6 0 23.9 2.8 33.7 8.2 9.8 5.5 17.6 13.3 23.1 23.9 5.5 10.9 8.2 23.9 8.2 39.2m-97.6 0c0 14.5 2.8 25.9 7.8 33.7 5.1 7.8 13.3 11.8 25.1 11.8s19.6-3.9 24.7-11.8c5.1-7.8 7.8-19.2 7.8-33.7s-2.8-25.5-7.8-33.3c-5.1-7.8-13.7-11.8-25.1-11.8s-19.6 3.9-24.7 11.8c-5.5 7.4-7.8 18.7-7.8 33.3m368.5-68.2v24.7h-58.8v112.5h-31.8V410.5zm72.9-2.8c17.6 0 31 3.9 40.4 11.8 9 7.8 13.7 19.6 13.7 36.1v92.1H1884l-6.3-18.8h-1.2c-5.9 7.4-12.2 12.9-18.8 16.5-6.7 3.5-15.7 5.1-26.6 5.1-12.2 0-22.4-3.5-30.6-10.2-8.2-7-12.2-17.6-12.2-32.2 0-14.5 5.1-24.7 15.7-31.8 10.2-7 26.3-11 47-11.8l23.9-.8V457c0-8.6-2-14.9-6.3-18.8-4.3-3.5-10.2-5.5-17.6-5.5-7 0-13.7.8-20 2.8s-12.6 4.3-18.8 7l-10.2-22.4c6.7-3.5 14.5-6.3 23.1-8.6 8.8-2.7 17.8-3.8 27.2-3.8m22.7 74.9-16.8.4c-14.1.4-23.5 2.8-29 7-5.5 4.3-8.2 10.2-8.2 17.2 0 6.7 2 11.4 5.9 14.1 3.9 2.8 8.6 4.3 14.9 4.3 9.4 0 17.2-2.8 23.5-7.8 6.3-5.5 9.8-13.3 9.8-23.5zm96.9-72.1V465h60.4v-54.5h31.8v137.2h-31.8v-58h-60.4v58h-31.8V410.5zm157.2 0v65.1c0 3.1 0 7-.4 12.6-.4 5.5-.8 10.2-1.2 15.3s-.8 8.2-.8 10.2l67-103.1h38.4v137.2h-30.6v-64.3c0-3.9 0-8.2.4-13.3s.4-9.8.8-14.5.4-8.2.8-10.6l-66.6 103.1h-38.4V410.9h30.6zm183.8-2.8c10.2 0 19.2 1.2 27.4 3.9 8.2 2.8 14.9 6.7 19.6 12.2s7.4 12.2 7.4 20c0 8.2-2.4 14.9-7.4 19.6-4.7 4.7-11.4 8.6-19.6 10.6v1.2c5.9 1.2 11 3.1 15.7 5.9 4.7 2.4 8.2 5.9 11 10.2 2.7 4.3 4.3 9.8 4.3 16.8 0 7.4-2.4 14.5-7 20.8-4.7 6.2-11.8 11.4-21.2 15.3s-21.6 5.9-36.1 5.9c-10.6 0-20.4-.8-29-2.4s-16.1-3.5-21.6-6.3v-27c5.9 2.8 12.6 5.1 20.8 7.4 8.2 2.4 16.8 3.1 26.3 3.1 10.2 0 18.8-1.6 25.9-4.3 7-2.8 10.6-7.4 10.6-14.1 0-12.6-12.9-18.8-39.2-18.8h-16.1v-23.1h14.1c12.2 0 22-1.2 28.6-3.5 6.7-2.4 10.2-7 10.2-13.3 0-5.1-2.4-9-7-11.8-4.7-2.4-12.2-3.9-22-3.9-7 0-13.7.8-20.8 2.4s-13.7 3.5-20.8 6.3l-9.8-23.1c7.8-3.1 16.1-5.5 24.7-7 9.5-2.2 19.7-3 31-3m141.1 0c17.6 0 31 3.9 40.4 11.8 9 7.8 13.7 19.6 13.7 36.1v92.1h-22.4l-6.3-18.8h-1.2c-5.9 7.4-12.2 12.9-18.8 16.5s-15.7 5.1-26.6 5.1c-12.2 0-22.4-3.5-30.6-10.2-8.2-7-12.2-17.6-12.2-32.2 0-14.5 5.1-24.7 15.7-31.8 10.2-7 26.3-11 47-11.8l23.9-.8V457c0-8.6-2-14.9-6.3-18.8-4.3-3.5-10.2-5.5-17.6-5.5-7 0-13.7.8-20 2.8s-12.6 4.3-18.8 7l-10.2-22.4c6.7-3.5 14.5-6.3 23.1-8.6 8.8-2.7 17.8-3.8 27.2-3.8m22.4 74.9-16.8.4c-14.1.4-23.5 2.8-29 7-5.5 4.3-8.2 10.2-8.2 17.2 0 6.7 2 11.4 5.9 14.1 3.9 2.8 8.6 4.3 14.9 4.3 9.4 0 17.2-2.8 23.5-7.8 6.3-5.5 9.8-13.3 9.8-23.5zm209.3 113.3h-29.4v-48.6h-114.8V410.1h31.8v112.1h60.8V410.1h31.8V523h19.6v72.9zm51.4-185.4v65.1c0 3.1 0 7-.4 12.6-.4 5.5-.8 10.2-1.2 15.3s-.8 8.2-.8 10.2l67-103.1h38.4v137.2h-30.6v-64.3c0-3.9 0-8.2.4-13.3s.4-9.8.8-14.5.4-8.2.8-10.6l-66.5 103h-38.4V410.9h30.6zm157.2 136.8H2859l37.6-55.3c-4.7-1.6-9.4-4.3-13.7-7.4s-7.8-7.4-10.6-12.9-3.9-11.8-3.9-19.6c0-13.3 4.7-23.9 14.5-31 9.8-7 22.4-10.6 38.4-10.6h63.1v137.2h-31.8v-52.5h-25.5zm5.1-94.9c0 6.7 2.4 11.4 7.4 14.9s11.8 5.1 20 5.1h25.5V434h-29.8c-8.2 0-14.1 2-17.6 5.5-4 3-5.5 7.4-5.5 12.9M1492.8 687.6h-45.1v112.5h-31.8V687.6h-44.7v-24.7h121.5v24.7zm152.1-24.3h34.5l27.4 77.2c2 4.7 3.5 9.8 4.7 14.5q1.8 7.05 2.4 14.1h1.2c.8-4.3 1.6-9 3.1-14.1 1.2-5.1 2.8-9.8 4.7-14.9l26.3-77.2h34.5l-58.4 155.2c-5.1 13.7-12.6 24.3-21.6 31.4-9 7.4-20 11-33.3 11-4.3 0-7.8-.4-11-.8s-5.9-.8-7.8-1.6V833c2 .4 3.9.8 6.7 1.2s5.5.4 8.2.4c7.8 0 14.1-2.4 18.8-7 4.7-4.7 8.2-10.6 11-17.2l3.9-11zm258.3 0v112.5h20v72.9h-29.4v-48.6h-93.3v48.6h-29v-72.9h11.4c9.8-14.5 17.6-31.8 22.7-51.8s8.6-40.4 9.8-60.8h87.8zm-31.7 23.9h-29c-1.6 15.7-4.7 31.8-9 47-4.3 15.7-10.2 29.4-17.6 41.2h55.7zm131.3-26.7c17.6 0 31 3.9 40.4 11.8 9 7.8 13.7 19.6 13.7 36.1v92.1h-22.4l-6.3-18.8h-1.2c-5.9 7.4-12.2 12.9-18.8 16.5s-15.7 5.1-26.6 5.1c-12.2 0-22.4-3.5-30.6-10.2-8.2-7-12.2-17.6-12.2-32.2 0-14.5 5.1-24.7 15.7-31.8 10.2-7 26.3-11 47-11.8l23.9-.8v-6.7c0-8.6-2-14.9-6.3-18.8-4.3-3.5-10.2-5.5-17.6-5.5-7 0-13.7.8-20 2.8s-12.6 4.3-18.8 7l-10.2-22.4c6.7-3.5 14.5-6.3 23.1-8.6 8.4-2.6 17.8-3.8 27.2-3.8m22.4 74.9-16.8.4c-14.1.4-23.5 2.8-29 7-5.5 4.3-8.2 10.2-8.2 17.2 0 6.7 2 11.4 5.9 14.1 3.9 2.8 8.6 4.3 14.9 4.3 9.4 0 17.2-2.8 23.5-7.8 6.3-5.5 9.8-13.3 9.8-23.5zm659.4-562.5c-9.8-11.8-22.7-17.6-38.8-17.6-10.6 0-18.8 2-25.1 5.9s-11.4 9-15.3 14.5h-1.6l-4.7-18H2574v197.6l31.8-14.5v-41.2c0-3.5-.4-7-.8-10.6-.4-3.5-.8-7-1.6-10.2h2c3.5 4.7 8.6 9 14.9 12.9 6.3 3.5 14.5 5.5 24.7 5.5 16.1 0 29-5.9 39.2-18s14.9-29.8 14.9-53.3c.3-23.7-4.8-41.3-14.5-53m-25.1 85.8c-4.7 8.2-12.2 12.2-22 12.2-12.2 0-20.4-3.9-25.1-11.8-4.3-7.8-6.7-19.2-6.7-33.7v-3.9c0-13.7 2.8-23.9 7-30.6 4.7-6.7 12.6-10.2 23.9-10.2 10.2 0 17.6 3.9 22.7 11.8 4.7 7.8 7 18.8 7 32.9.6 13.7-1.8 25.1-6.8 33.3m-1013 167c-9.8-11.8-22.7-17.6-38.8-17.6-10.6 0-18.8 2-25.1 5.9s-11.4 9-15.3 14.5h-1.6l-4.7-18h-25.9V608l31.8-14.5v-41.2c0-3.5-.4-7-.8-10.6s-.8-7-1.6-10.2h2c3.5 4.7 8.6 9 14.9 12.9 6.3 3.5 14.5 5.5 24.7 5.5 16.1 0 29-5.9 39.2-18 10.2-12.2 14.9-29.8 14.9-53.3.8-23.5-4-41.2-13.7-52.9m-25.5 85.9c-4.7 8.2-12.2 12.2-22 12.2-12.2 0-20.4-3.9-25.1-11.8-4.3-7.8-6.7-19.2-6.7-33.7v-3.9c0-13.7 2.8-23.9 7-30.6 4.7-6.7 12.6-10.2 23.9-10.2 10.2 0 17.6 3.9 22.7 11.8 4.7 7.8 7 18.8 7 32.9.6 13.7-1.8 25-6.8 33.3m3.1 167c-9.8-11.8-22.7-17.6-38.8-17.6-10.6 0-18.8 2-25.1 5.9s-11.4 9-15.3 14.5h-1.6l-4.7-18h-25.9V861l31.8-14.5v-41.2c0-3.5-.4-7-.8-10.6s-.8-7-1.6-10.2h2c3.5 4.7 8.6 9 14.9 12.9 6.3 3.5 14.5 5.5 24.7 5.5 16.1 0 29-5.9 39.2-18 10.2-12.2 14.9-29.8 14.9-53.3 1.2-23.7-3.9-41.3-13.7-53m-25.1 85.8c-4.7 8.2-12.2 12.2-22 12.2-12.2 0-20.4-3.9-25.1-11.8-4.3-7.8-6.7-19.2-6.7-33.7v-3.9c0-13.7 2.8-23.9 7-30.6 4.7-6.7 12.6-10.2 23.9-10.2 10.2 0 17.6 3.9 22.7 11.8 4.7 7.8 7 18.8 7 32.9.6 13.7-2.1 25.1-6.8 33.3" class="st0"/></g></svg>