<svg xmlns="http://www.w3.org/2000/svg" id="Calque_1" viewBox="0 0 678.27 250"><defs><style>.cls-1{fill:#fff;stroke-width:0}</style></defs><g id="Lockup"><path d="M69.44 66.12c-1.23 2.12-1.69 3.09-1.69 3.09-.93 1.86-3.32 2.79-5.28 2.06l-3.58-1.36c-1.96-.73-4.18.23-4.91 2.19l-2.72 7.13c-.73 1.96.23 4.18 2.19 4.91L57 85.5c1.96.73 3.15 3.02 2.65 5.08l-1.56 7.8c-.33 2.09-2.29 3.72-4.38 3.65l-3.82-.13c-2.09-.07-3.88 1.59-3.95 3.68l-.27 7.6c-.07 2.09 1.59 3.88 3.68 3.95l3.85.13c2.09.07 3.98 1.82 4.15 3.92l1.06 7.86c.36 2.06-1 4.25-2.99 4.88l-3.72 1.13c-1.99.63-3.15 2.75-2.52 4.74l3.35 10.95 20.57-6.34c-9.42-22.99-8.46-49.97 4.91-73.16 13.4-23.19 36.26-37.49 60.92-40.84l-4.78-20.97L123 12.02c-2.06.46-3.32 2.52-2.85 4.58l.86 3.78c.46 2.06-.76 4.31-2.72 5.01l-7.33 3.02c-1.89.86-4.38.13-5.47-1.66l-2.02-3.28c-1.09-1.79-3.45-2.32-5.24-1.23l-6.47 4.01c-1.79 1.09-2.32 3.45-1.23 5.24l2.02 3.25c1.09 1.79.66 4.31-.96 5.64l-5.94 5.24c-1.53 1.46-4.08 1.56-5.71.23l-2.95-2.42c-1.63-1.33-4.05-1.06-5.37.56l-4.81 5.91c-1.33 1.63-1.06 4.05.56 5.37l2.95 2.42c1.63 1.33 1.99 3.85.86 5.57.03-.1-.53.73-1.76 2.85Zm79.33 137.53c2.46 0 3.52-.07 3.52-.07 2.09-.13 4.08 1.46 4.41 3.55l.6 3.78c.33 2.06 2.29 3.48 4.38 3.15l7.53-1.23c2.06-.33 3.48-2.29 3.15-4.38l-.6-3.78c-.33-2.06 1.03-4.25 3.05-4.81l7.53-2.52c1.96-.76 4.38.13 5.34 1.99l1.79 3.38c1 1.86 3.32 2.55 5.14 1.56l6.7-3.58c1.86-1 2.55-3.32 1.56-5.14l-1.82-3.38c-1-1.86-.4-4.35 1.33-5.57l6.27-4.84c1.59-1.36 4.18-1.29 5.71.13l2.82 2.65c1.53 1.43 3.95 1.33 5.37-.2l7.8-8.36-15.79-14.63c-15.23 19.64-39.05 32.32-65.83 32.32S98.13 181 82.9 161.35l-15.79 14.63 7.8 8.36c1.43 1.53 3.85 1.63 5.37.2l2.82-2.65c1.53-1.43 4.11-1.49 5.71-.13l6.27 4.84c1.73 1.23 2.29 3.72 1.33 5.57l-1.82 3.38c-1 1.86-.3 4.18 1.56 5.14l6.7 3.58c1.86 1 4.18.3 5.14-1.56l1.79-3.38c1-1.86 3.38-2.75 5.34-1.99l7.53 2.52c1.99.6 3.38 2.75 3.05 4.81l-.6 3.78c-.33 2.06 1.09 4.05 3.15 4.38l7.53 1.23c2.06.33 4.05-1.09 4.38-3.15l.6-3.78c.33-2.06 2.32-3.65 4.41-3.55.13 0 1.13.07 3.58.07ZM228.2 66.19c-1.23-2.12-1.82-3.02-1.82-3.02-1.16-1.76-.76-4.28.86-5.57l2.95-2.42c1.63-1.33 1.86-3.75.56-5.37l-4.81-5.91c-1.33-1.63-3.75-1.86-5.37-.56l-2.95 2.42c-1.63 1.33-4.18 1.23-5.71-.23l-5.94-5.24c-1.63-1.33-2.06-3.85-.96-5.64l2.02-3.25c1.09-1.79.56-4.15-1.23-5.24l-6.47-4.01c-1.79-1.09-4.15-.56-5.24 1.23l-2.02 3.28c-1.09 1.79-3.58 2.52-5.47 1.66l-7.33-3.02c-1.96-.73-3.19-2.99-2.72-5.01l.86-3.78c.46-2.06-.8-4.11-2.85-4.58l-11.15-2.59-4.78 20.97c24.62 3.35 47.51 17.65 60.92 40.84s14.33 50.17 4.91 73.16l20.54 6.34 3.35-10.95c.63-1.99-.53-4.15-2.52-4.74l-3.72-1.13c-1.99-.63-3.35-2.79-2.99-4.88l1.06-7.86c.2-2.09 2.06-3.85 4.15-3.92l3.85-.13a3.815 3.815 0 0 0 3.68-3.95l-.27-7.6a3.815 3.815 0 0 0-3.95-3.68l-3.82.13c-2.09.07-4.08-1.56-4.38-3.65l-1.56-7.8c-.5-2.02.7-4.31 2.65-5.08l3.55-1.36c1.96-.73 2.95-2.95 2.19-4.91l-2.69-7.13c-.73-1.96-2.95-2.95-4.91-2.19l-3.58 1.36c-1.96.73-4.31-.17-5.28-2.06.07.1-.4-.8-1.63-2.92ZM29.73 64.4c-.07.1-.1.17-.1.17s.03-.07.1-.17m32.75-43.17.3.36c.9-.63 3.98-2.85 7.73-3.88C91.25 11.87 90.22 4.7 98.98.46L98.71 0c-.86.56-3.55 2.12-7.3 2.16-24.32.33-22.46 14.5-28.93 19.08Z" class="cls-1"/><path d="m38.32 48.21.46.3c4.94-5.47 9.69-6.5 10.48-6.74 19.31-5.71 26.05-18.48 31.25-22.1l-.2-.3c-7.13 5.08-15.63-.07-30.06 15.36-.1.1-.5-.46-.5-.46C61.46 20.14 61.76 10.51 67.2 5.24l-.3-.27C32.69 25.37 47.69 36.52 38.3 48.2Z" class="cls-1"/><path d="M39.75 24.59C7.53 56.51 27.61 64.67 22.53 80.56l.33.13c2.89-6.74 10.38-9.69 10.55-9.75 13.64-6.3 17.95-22.2 23.39-27.01l-.27-.27c-6.67 7.23-17.68 3.19-26.58 21.07-.03.07-.6-.3-.6-.3 7.23-15.59 3.85-29.73 10.72-39.42-.13-.2-.27-.33-.33-.43Z" class="cls-1"/><path d="m16.32 122.93.46.03c-.13-1.82-.6-9.42 7-16.46 15.3-14.17 12.71-26.74 18.98-36.46l-.46-.27c-4.88 8.29-22.69 17.39-23.42 30.16 0 .03-.7-.07-.66-.1 2.59-18.28-7.07-30.49-1.79-42.07-.17-.13-.36-.2-.46-.27-20.47 41.97-3.48 41.37.36 65.43Z" class="cls-1"/><path d="m24.22 162.84.5-.17c-4.21-9.49 2.85-22.46 3.15-23.09 9.29-18.02 6.17-34.31 8.29-40.01l-.43-.13c-4.94 12.38-18.75 19.08-16.59 39.88 0 .03-.66.03-.66 0-2.19-12.91-16.82-25.28-16.32-39.35-.07 0-.17-.03-.23-.03-9.12 50.03 16.85 49.7 22.3 62.91Z" class="cls-1"/><path d="m45.02 199.87.33-.27c-8.66-10.52-6.04-22-5.91-22.83 4.31-24.95-3.75-29.43-3.95-40.71h-.43c-.36 12.64-13.3 26.84-1.56 44.49l-.56.36C20 162.03 9.75 166.64 3.71 147.86c-.2 0-.43.1-.53.17 9.12 54.94 33.58 38.29 41.84 51.82Z" class="cls-1"/><path d="m95.49 223.86-.1-.5c-17.02 3.42-25.75.13-28.83-15.53-4.35-22-19.31-30.46-21.04-39.25h-.03c-.27 0-.36.03-.43.07 3.22 15.53-4.35 24.75 14.37 43.36l-.5.43c-18.02-14.3-30.39-9.02-37.56-18.98-.13.13-.27.23-.3.33 22.33 37.06 46.25 39.08 74.42 30.06Z" class="cls-1"/><path d="m53.38 230.23.13-.2c22.93 13.37 46.85-5.28 75.88-5.94 7.3-.17 29.03 1.16 49.04 24.39l-5.31 1.53c-6.6-11.48-16.79-19.74-26.01-22.06-26.41-6.6-26.91 18.02-56.24 18.38-21.77.3-36.63-15.23-37.49-16.09ZM267.59 64.4c.03.1.1.17.1.17s-.03-.07-.1-.17" class="cls-1"/><path d="M267.59 64.4c.03.1.1.17.1.17s-.03-.07-.1-.17m-237.86 0c-.03.1-.1.17-.1.17s.03-.07.1-.17" class="cls-1"/><path d="M267.59 64.4c.03.1.1.17.1.17s-.03-.07-.1-.17M234.8 21.23l-.3.36c-.9-.63-3.98-2.85-7.73-3.88C206.03 11.87 207.1 4.7 198.3.46l.27-.43c.86.56 3.55 2.12 7.3 2.16 24.35.3 22.5 14.47 28.93 19.04" class="cls-1"/><path d="m258.99 48.21-.43.3c-4.94-5.47-9.69-6.5-10.48-6.74-19.31-5.71-26.05-18.48-31.25-22.1l.2-.3c7.13 5.08 15.59-.07 30.06 15.36.1.1.5-.46.5-.46-11.71-14.13-12.01-23.76-17.45-29.03l.3-.27c34.17 20.4 19.14 31.55 28.57 43.23Z" class="cls-1"/><path d="M257.57 24.59c32.22 31.92 12.14 40.08 17.22 55.97l-.33.13c-2.89-6.74-10.38-9.69-10.55-9.75-13.64-6.3-17.92-22.2-23.39-27.01l.27-.27c6.67 7.23 17.68 3.19 26.58 21.07.03.07.6-.3.6-.3-7.23-15.59-3.85-29.73-10.72-39.42.13-.2.27-.33.33-.43Z" class="cls-1"/><path d="m280.99 122.93-.46.03c.13-1.82.6-9.42-7-16.46-15.3-14.17-12.71-26.74-18.98-36.46l.46-.27c4.88 8.29 22.69 17.39 23.42 30.16 0 .03.7-.07.66-.1-2.59-18.28 7.07-30.49 1.79-42.07.17-.13.36-.2.46-.27 20.47 41.97 3.48 41.37-.36 65.43Z" class="cls-1"/><path d="m273.09 162.84-.5-.17c4.21-9.49-2.85-22.46-3.15-23.09-9.29-18.02-6.17-34.31-8.29-40.01l.43-.13c4.94 12.38 18.75 19.08 16.59 39.88 0 .03.66.03.66 0 2.19-12.91 16.79-25.28 16.32-39.35.07 0 .17-.03.23-.03 9.12 50.03-16.85 49.7-22.3 62.91Z" class="cls-1"/><path d="m252.29 199.87-.33-.27c8.66-10.52 6.04-22 5.91-22.83-4.31-24.95 3.75-29.43 3.95-40.71h.43c.36 12.64 13.3 26.84 1.56 44.49l.56.36c12.94-18.88 23.19-14.27 29.23-33.05.2 0 .43.1.53.17-9.12 54.94-33.58 38.29-41.84 51.82Z" class="cls-1"/><path d="m201.83 223.86.1-.5c17.02 3.42 25.75.13 28.83-15.53 4.35-22 19.31-30.46 21.04-39.25h.03c.27 0 .4.03.43.07-3.22 15.53 4.35 24.75-14.37 43.36l.5.43c18.02-14.3 30.39-9.02 37.56-18.98.13.13.27.23.3.33-22.33 37.06-46.25 39.08-74.42 30.06Z" class="cls-1"/><path d="m243.93 230.23-.13-.2c-22.93 13.37-46.85-5.28-75.88-5.94-7.27-.17-29.03 1.16-49.04 24.39l5.31 1.53c6.6-11.48 16.79-19.74 26.01-22.06 26.38-6.6 26.91 18.02 56.24 18.38 21.73.3 36.63-15.23 37.49-16.09ZM29.73 64.4c-.03.1-.1.17-.1.17s.03-.07.1-.17" class="cls-1"/><path d="M29.73 64.4c-.03.1-.1.17-.1.17s.03-.07.1-.17m237.86 0c.03.1.1.17.1.17s-.03-.07-.1-.17m-83.28.7h-.4c-10.72 0-21 6.9-26.14 18.38-2.59 5.84-3.19 13.44-3.22 20.77 0 7.3.6 14.9 3.22 20.74 5.11 11.48 15.43 19.34 26.14 19.34h.4c10.72 0 21-7.86 26.11-19.34 2.59-5.84 3.19-13.44 3.22-20.74 0-7.3-.6-14.93-3.22-20.77C205.31 72 195.03 65.1 184.31 65.1m16.49 39.62c-.03 6.87-.2 12.81-.2 12.81-.43 5.61-.53 11.25-3.12 15.1-2.95 4.35-7.66 6.64-12.41 6.64l-.2.07h-.6l-.17-.07c-4.74 0-9.46-2.29-12.41-6.64-2.59-3.85-2.69-9.49-3.12-15.1 0 0-.17-5.84-.17-12.67v-.3c0-6.87.17-12.81.17-12.81.43-5.61.53-11.25 3.12-15.1 2.95-4.35 7.66-6.64 12.41-6.64l.17-.07h.6l.17.07c4.74 0 9.46 2.26 12.41 6.64 2.62 3.85 2.69 9.49 3.12 15.1 0 0 .17 5.84.2 12.67z" class="cls-1"/><path d="M192.34 147.61s-2.09 5.44-6.01 8.79c-2.16 1.82-5.31 2.32-7.83 2.62l-26.34 1.29h-5.81s-4.41-.23-4.64-4.35V63.64c.23-4.11 4.64-4.35 4.64-4.35h5.81v-5.37h-35.27v5.37h5.84s4.41.23 4.64 4.35v92.34c-.23 4.11-4.64 4.35-4.64 4.35h-5.84v5.37h35.24l38.16.13 4.68-17.02v-.63l-2.62-.56Z" class="cls-1"/><path d="M109.56 75.25c.2-3.42 3.88-3.62 3.88-3.62h4.84v-4.48h-29.4v4.48h4.84s3.68.2 3.88 3.62v59.02c-.2 3.42-3.88 3.62-3.88 3.62h-4.84v4.48h29.4v-4.48h-4.84s-3.68-.2-3.88-3.62zm237.79-16.86v-28h7.76v27.97c0 8.26 4.01 10.58 9.89 10.58s9.89-2.32 9.89-10.58V30.39h7.76v27.97c0 13.37-8.06 18.02-17.65 18.02-9.32.03-17.65-4.41-17.65-17.98Zm44.29-25.84L399.2 29v46.65h-7.56zm36.4 39.91c-2.06 2.65-4.98 3.95-8.66 3.95-6.27 0-11.75-3.48-11.75-13.57V42.6h7.56v18.88c0 5.41 2.32 7.7 6.2 7.7s6.67-2.06 6.67-7.56V42.64h7.56v33.01h-7.56l-.03-3.19Zm13.7-1.72 5.18-4.38c1.36 1.36 4.08 3.48 7.7 3.48 3.12 0 5.37-.83 5.37-3.22s-2.65-3.35-6.4-4.84c-7.17-2.39-10.92-5.18-10.92-10.72 0-5.94 5.24-9.16 11.75-9.16 5.67 0 9.56 2.46 11.81 5.11l-5.24 4.28c-1.63-1.56-3.55-2.79-6.6-2.79-2.72 0-4.45.96-4.45 2.72 0 1.99 2.99 3.15 6.47 4.31 6.4 2.12 10.85 4.84 10.85 11.11s-5.04 9.82-12.67 9.82c-5.31-.07-10.38-2.26-12.84-5.74Zm32.61-38.19 7.56-3.55v46.65h-7.56zm35.11 40.44c-1.63 1.69-4.38 3.42-8.79 3.42-6.77 0-11.94-3.75-11.94-10.98 0-7.63 6.4-10.92 12.91-10.92 3.12 0 5.74.56 7.83 1.76v-1.76c0-4.31-2.12-6.01-6.47-6.01-4.01 0-7.03 1.16-9.82 3.12l-2.32-6.14c2.99-1.99 7.37-3.62 12.91-3.62s13.04 1.43 13.04 12.54v21.27h-7.37v-2.69h.03Zm0-6.4v-4.28c-1.76-.83-4.15-1.36-6.6-1.36-3.75 0-6.77 1.29-6.77 4.45 0 2.59 2.06 4.31 6.01 4.31 3.22.03 5.67-1.36 7.37-3.12Zm15.09-23.99h7.56v3.42c1.29-2.72 3.48-4.21 6.77-4.21 2.46 0 4.45.83 6.14 2.26l-1.09 6.9c-1.36-.96-3.12-1.76-5.61-1.76-2.92 0-6.2 1.63-6.2 7.9v18.48h-7.56V42.61Zm42.9 30.39c-1.63 1.69-4.38 3.42-8.79 3.42-6.77 0-11.94-3.75-11.94-10.98 0-7.63 6.4-10.92 12.91-10.92 3.12 0 5.74.56 7.83 1.76v-1.76c0-4.31-2.12-6.01-6.47-6.01-4.01 0-7.03 1.16-9.82 3.12l-2.32-6.14c2.99-1.99 7.37-3.62 12.91-3.62s13.04 1.43 13.04 12.54v21.27h-7.37v-2.69h.03Zm0-6.4v-4.28c-1.76-.83-4.15-1.36-6.6-1.36-3.75 0-6.77 1.29-6.77 4.45 0 2.59 2.06 4.31 6.01 4.31 3.25.03 5.71-1.36 7.37-3.12Zm15.13-23.99h7.56v3.42c1.29-2.72 3.48-4.21 6.77-4.21 2.46 0 4.45.83 6.14 2.26l-1.09 6.9c-1.36-.96-3.12-1.76-5.61-1.76-2.92 0-6.2 1.63-6.2 7.9v18.48h-7.56V42.61Zm42.9 30.39c-1.63 1.69-4.38 3.42-8.79 3.42-6.77 0-11.94-3.75-11.94-10.98 0-7.63 6.4-10.92 12.91-10.92 3.12 0 5.74.56 7.83 1.76v-1.76c0-4.31-2.12-6.01-6.47-6.01-4.01 0-7.03 1.16-9.82 3.12l-2.32-6.14c2.99-1.99 7.37-3.62 12.91-3.62s13.04 1.43 13.04 12.54v21.27h-7.37v-2.69h.03Zm0-6.4v-4.28c-1.76-.83-4.15-1.36-6.6-1.36-3.75 0-6.77 1.29-6.77 4.45 0 2.59 2.06 4.31 6.01 4.31 3.25.03 5.71-1.36 7.37-3.12Zm12.87 4.15 5.18-4.38c1.36 1.36 4.08 3.48 7.7 3.48 3.12 0 5.37-.83 5.37-3.22s-2.65-3.35-6.4-4.84c-7.17-2.39-10.92-5.18-10.92-10.72 0-5.94 5.24-9.16 11.75-9.16 5.67 0 9.56 2.46 11.81 5.11l-5.24 4.28c-1.63-1.56-3.55-2.79-6.6-2.79-2.72 0-4.45.96-4.45 2.72 0 1.99 2.99 3.15 6.47 4.31 6.4 2.12 10.85 4.84 10.85 11.11s-5.04 9.82-12.67 9.82c-5.28-.07-10.38-2.26-12.84-5.74ZM670.7 42.6h7.56v33.01h-7.56zM357.6 153.12l3.42-2.52c.53.63 1.36 1.09 2.59 1.09 1.99 0 3.15-1.09 3.15-2.72s-1.29-2.65-3.28-2.65c-1.03 0-1.92.27-2.72.76l-1.49-1.86 3.48-4.31c-12.41-1.23-16.72-12.67-16.72-23.26s4.98-23.39 18.94-23.39c8.59 0 13.84 4.84 15.76 9.62l-6.97 3.15c-2.26-3.42-4.51-5.37-8.79-5.37-8.33 0-10.92 8.86-10.92 15.96 0 7.5 3.28 15.89 10.92 15.89 4.08 0 6.6-2.39 8.66-5.81l7.17 2.72c-2.46 5.74-6.87 9.69-13.64 10.45l-1.56 2.46c5.04 0 7.23 2.59 7.23 5.67 0 4.01-3.15 6.87-8.46 6.87-3.35 0-5.47-1.16-6.77-2.75m48.6-15.53c-1.63 1.69-4.38 3.42-8.79 3.42-6.77 0-11.94-3.75-11.94-10.98 0-7.63 6.4-10.92 12.91-10.92 3.12 0 5.74.56 7.83 1.76v-1.76c0-4.31-2.12-6.01-6.47-6.01-4.01 0-7.03 1.16-9.82 3.12l-2.32-6.14c2.99-1.99 7.37-3.62 12.91-3.62s13.04 1.43 13.04 12.54v21.27h-7.37v-2.69h.03Zm0-6.4v-4.28c-1.76-.83-4.15-1.36-6.6-1.36-3.75 0-6.77 1.29-6.77 4.45 0 2.59 2.06 4.31 6.01 4.31 3.22.07 5.67-1.36 7.37-3.12Zm15.43-34.04 7.56-3.55v46.65h-7.56zm16.36 10.08h7.56v33.01h-7.56zm18.98 45.89 3.42-2.52c.53.63 1.36 1.09 2.59 1.09 1.99 0 3.15-1.09 3.15-2.72s-1.29-2.65-3.28-2.65c-1.03 0-1.92.27-2.72.76l-1.49-1.86 3.55-4.31c-4.31-.63-8.39-2.59-10.45-5.57l5.18-4.38c1.36 1.36 4.08 3.48 7.7 3.48 3.12 0 5.37-.83 5.37-3.22 0-2.59-3.42-3.62-7.56-5.31-5.74-2.12-9.75-4.45-9.75-10.29s5.24-9.16 11.75-9.16c5.67 0 9.56 2.46 11.81 5.11l-5.24 4.28c-1.63-1.56-3.55-2.79-6.6-2.79-2.72 0-4.45.96-4.45 2.72 0 2.12 3.48 3.28 7.3 4.64 5.18 1.86 10.02 4.28 10.02 10.78 0 5.87-4.28 9.16-10.78 9.75l-1.49 2.39c5.04 0 7.23 2.59 7.23 5.67 0 4.01-3.15 6.87-8.46 6.87-3.38-.03-5.47-1.19-6.77-2.79Zm65.86-31.82c0-5.18-1.76-7.7-5.61-7.7s-6.2 2.52-6.2 7.83v18.81h-7.56V121.3c0-5.18-1.76-7.7-5.61-7.7s-6.2 2.52-6.2 7.83v18.81h-7.56v-33.01h7.56v3.02c1.86-2.52 4.64-3.82 8.06-3.82 3.95 0 6.9 1.49 8.66 4.64 2.19-3.22 5.67-4.64 9.95-4.64 6.87 0 12.08 3.42 12.08 12.74v21.07h-7.56V121.3Zm34.44 16.29c-1.63 1.69-4.38 3.42-8.79 3.42-6.77 0-11.94-3.75-11.94-10.98 0-7.63 6.4-10.92 12.91-10.92 3.12 0 5.74.56 7.83 1.76v-1.76c0-4.31-2.12-6.01-6.47-6.01-4.01 0-7.03 1.16-9.82 3.12l-2.32-6.14c2.99-1.99 7.37-3.62 12.91-3.62s13.04 1.43 13.04 12.54v21.27h-7.37v-2.69h.03Zm0-6.4v-4.28c-1.76-.83-4.15-1.36-6.6-1.36-3.75 0-6.77 1.29-6.77 4.45 0 2.59 2.06 4.31 6.01 4.31 3.22.07 5.67-1.36 7.37-3.12Zm-211.22 63.77c0-11.18 5.31-23.39 19.84-23.39s19.84 12.21 19.84 23.39-5.24 23.39-19.84 23.39-19.84-12.21-19.84-23.39m31.65 0c0-7.43-3.02-15.96-11.81-15.96s-11.81 8.99-11.81 15.96c0 7.37 3.02 15.96 11.81 15.96s11.81-9.02 11.81-15.96m-22.23-31.85c0-2.46 1.92-4.38 4.38-4.38s4.38 1.92 4.38 4.38-1.92 4.38-4.38 4.38-4.38-1.92-4.38-4.38m11.94 0c0-2.46 1.92-4.38 4.38-4.38s4.38 1.92 4.38 4.38-1.92 4.38-4.38 4.38c-2.42.03-4.38-1.92-4.38-4.38m25.72 21.46h7.56v3.42c1.29-2.72 3.48-4.21 6.77-4.21 2.46 0 4.45.83 6.14 2.26l-1.09 6.9c-1.36-.96-3.12-1.76-5.61-1.76-2.92 0-6.2 1.63-6.2 7.9v18.48h-7.56v-32.98Zm32.05 39.85c9.29-.63 12.01-2.72 12.01-7.17v-1.86c-1.92 2.12-4.51 2.99-7.5 2.99-7.76 0-13.64-5.81-13.64-17.32 0-10.78 5.61-17.25 13.7-17.25 3.42 0 5.87 1.23 7.43 2.79v-1.99h7.56v29.73c0 10.92-4.21 15.39-15.56 16.22l-4.01-6.14Zm12.01-16.52v-13.7c-1.16-1.69-3.28-3.22-6.2-3.22-4.71 0-7.37 3.55-7.37 10.09 0 6.07 2.65 10.09 7.37 10.09 2.72-.03 4.84-1.19 6.2-3.25Zm36.07 6.5c-2.06 2.65-4.98 3.95-8.66 3.95-6.27 0-11.75-3.48-11.75-13.57v-20.24h7.56v18.88c0 5.41 2.32 7.7 6.2 7.7s6.67-2.06 6.67-7.56v-18.98h7.56v33.01h-7.56l-.03-3.19Zm-16.99-39.05c0-2.46 1.92-4.38 4.38-4.38s4.38 1.92 4.38 4.38-1.92 4.38-4.38 4.38-4.38-1.96-4.38-4.38m11.94 0c0-2.46 1.92-4.38 4.38-4.38s4.38 1.92 4.38 4.38-1.92 4.38-4.38 4.38-4.38-1.96-4.38-4.38m23.03 34.54v-18.75h-4.91v-6.6h4.91v-10.02l7.56-3.62v13.64h7.63v6.6h-7.63v17.25c0 1.86.76 3.15 2.79 3.15 1.69 0 3.42-.53 5.18-1.49l-.9 6.77c-1.86.96-4.21 1.49-6.9 1.49-5.47.03-7.73-3.19-7.73-8.43Zm41.71 4.51c-2.06 2.65-4.98 3.95-8.66 3.95-6.27 0-11.75-3.48-11.75-13.57v-20.24h7.56v18.88c0 5.41 2.32 7.7 6.2 7.7s6.67-2.06 6.67-7.56v-18.98h7.56v33.01h-7.56l-.03-3.19Zm-16.99-39.05c0-2.46 1.92-4.38 4.38-4.38s4.38 1.92 4.38 4.38-1.92 4.38-4.38 4.38-4.38-1.96-4.38-4.38m11.94 0c0-2.46 1.92-4.38 4.38-4.38s4.38 1.92 4.38 4.38-1.92 4.38-4.38 4.38-4.38-1.96-4.38-4.38" class="cls-1"/></g></svg>