<svg  xmlns="http://www.w3.org/2000/svg" xml:space="preserve" width="800" height="800" viewBox="0 0 19.524 19.524">
	<path

		d="M19.29 2.359c-.512-.332-.982-.506-1.538-.564a2.403 2.403 0 0 0-1.246.215 2.383 2.383 0 0 0-.961.849c-.295.459-.453.937-.511 1.549a.475.475 0 0 0 .005.125c-.901.206-1.785.509-2.634.879.166-.171.314-.355.444-.568.231-.394.347-.806.343-1.221 0-.417-.116-.827-.352-1.23-.287-.465-.648-.814-1.17-1.131a.51.51 0 0 0-.53 0c-.522.317-.882.666-1.175 1.142-.23.393-.346.802-.346 1.216-.003.418.112.83.348 1.233.285.466.647.814 1.174 1.132.015.009.03.013.045.021a20.794 20.794 0 0 0-2.596 1.62c.046-.184.072-.369.071-.557 0-.416-.116-.827-.352-1.23-.287-.465-.648-.813-1.17-1.131a.51.51 0 0 0-.53 0c-.521.317-.882.666-1.175 1.142-.23.392-.346.803-.346 1.215-.003.419.112.83.348 1.234.264.43.599.758 1.062 1.057-.485.447-.959.907-1.412 1.386l.002-.035c0-.417-.116-.826-.352-1.23-.287-.465-.648-.814-1.169-1.131a.51.51 0 0 0-.53 0c-.522.316-.883.666-1.176 1.142a2.405 2.405 0 0 0-.346 1.217c-.003.417.112.83.348 1.234.286.465.648.813 1.175 1.131.019.012.04.018.06.027-.024.031-.052.063-.077.096C1.826 14.789.763 16.492 0 18.336a133.805 133.805 0 0 1 3.931-4.375c.181-.184.36-.369.54-.555.122.451.306.828.587 1.186.29.352.637.602 1.027.742.391.145.816.176 1.276.094.536-.109.988-.326 1.465-.707a.517.517 0 0 0 .183-.498c-.118-.6-.321-1.059-.666-1.498a2.386 2.386 0 0 0-1.023-.744 2.357 2.357 0 0 0-1.278-.098c-.023.004-.044.012-.067.018.692-.67 1.394-1.33 2.131-1.944.058-.05.118-.098.177-.147a.503.503 0 0 0-.015.244c.117.604.319 1.064.665 1.501a2.37 2.37 0 0 0 1.027.742 2.4 2.4 0 0 0 1.276.094c.536-.109.987-.326 1.466-.707a.517.517 0 0 0 .183-.498c-.118-.599-.321-1.059-.666-1.499a2.412 2.412 0 0 0-1.022-.744 2.388 2.388 0 0 0-1.278-.097 3.074 3.074 0 0 0-.823.289 32.954 32.954 0 0 1 2.748-2.003.49.49 0 0 0-.001.179c.116.604.319 1.063.665 1.501.289.353.637.603 1.027.742.391.144.816.176 1.276.095.535-.109.987-.328 1.465-.708a.518.518 0 0 0 .184-.499c-.119-.599-.322-1.058-.667-1.497a2.4 2.4 0 0 0-1.022-.744 2.354 2.354 0 0 0-1.179-.11 24.07 24.07 0 0 1 2.045-.986c.377.196.749.308 1.168.351a2.35 2.35 0 0 0 1.248-.222c.376-.181.694-.463.956-.85.295-.461.453-.937.513-1.544a.52.52 0 0 0-.232-.481z"
		style="fill:#a0cb29" />
</svg>